<?xml version="1.0" encoding="utf-8" ?>
<svg xmlns="http://www.w3.org/2000/svg" xmlns:ev="http://www.w3.org/2001/xml-events" xmlns:xlink="http://www.w3.org/1999/xlink" baseProfile="full" height="250" version="1.1" width="250">
  <defs/>
  <g transform=" rotate(0, 125, 125)">
    <rect fill="white" height="250" width="250" x="0" y="0"/>
    <ellipse cx="24.020357912845867" cy="24.020357912845895" fill="#4682b4" opacity="1" rx="7.5" ry="7.5" stroke-width="0" transform=" rotate(0, 24, 24)"/>
    <ellipse cx="49.02035791284587" cy="32.83713669723299" fill="#4682b4" opacity="1" rx="7.5" ry="7.5" stroke-width="0" transform=" rotate(0, 49, 32)"/>
    <ellipse cx="74.02035791284587" cy="38.2862056572732" fill="#4682b4" opacity="1" rx="7.5" ry="7.5" stroke-width="0" transform=" rotate(0, 74, 38)"/>
    <ellipse cx="99.02035791284587" cy="38.2862056572732" fill="#4682b4" opacity="1" rx="7.5" ry="7.5" stroke-width="0" transform=" rotate(0, 99, 38)"/>
    <ellipse cx="124.02035791284587" cy="32.83713669723299" fill="#4682b4" opacity="1" rx="7.5" ry="7.5" stroke-width="0" transform=" rotate(0, 124, 32)"/>
    <ellipse cx="149.02035791284587" cy="24.0203579128459" fill="#4682b4" opacity="1" rx="7.5" ry="7.5" stroke-width="0" transform=" rotate(0, 149, 24)"/>
    <ellipse cx="174.02035791284587" cy="15.2035791284588" fill="#4682b4" opacity="1" rx="7.5" ry="7.5" stroke-width="0" transform=" rotate(0, 174, 15)"/>
    <ellipse cx="199.02035791284587" cy="9.754510168418593" fill="#4682b4" opacity="1" rx="7.5" ry="7.5" stroke-width="0" transform=" rotate(0, 199, 9)"/>
    <ellipse cx="224.02035791284587" cy="9.75451016841859" fill="#4682b4" opacity="1" rx="7.5" ry="7.5" stroke-width="0" transform=" rotate(0, 224, 9)"/>
    <ellipse cx="32.837136697232964" cy="49.020357912845895" fill="#4682b4" opacity="1" rx="7.5" ry="7.5" stroke-width="0" transform=" rotate(0, 32, 49)"/>
    <ellipse cx="57.837136697232964" cy="57.83713669723299" fill="#41afba" opacity="1" rx="7.5" ry="7.5" stroke-width="0" transform=" rotate(0, 57, 57)"/>
    <ellipse cx="82.83713669723296" cy="63.2862056572732" fill="#41afba" opacity="1" rx="7.5" ry="7.5" stroke-width="0" transform=" rotate(0, 82, 63)"/>
    <ellipse cx="107.83713669723296" cy="63.2862056572732" fill="#41afba" opacity="1" rx="7.5" ry="7.5" stroke-width="0" transform=" rotate(0, 107, 63)"/>
    <ellipse cx="132.83713669723295" cy="57.83713669723299" fill="#41afba" opacity="1" rx="7.5" ry="7.5" stroke-width="0" transform=" rotate(0, 132, 57)"/>
    <ellipse cx="157.83713669723298" cy="49.020357912845895" fill="#41afba" opacity="1" rx="7.5" ry="7.5" stroke-width="0" transform=" rotate(0, 157, 49)"/>
    <ellipse cx="182.83713669723298" cy="40.2035791284588" fill="#41afba" opacity="1" rx="7.5" ry="7.5" stroke-width="0" transform=" rotate(0, 182, 40)"/>
    <ellipse cx="207.83713669723298" cy="34.75451016841859" fill="#41afba" opacity="1" rx="7.5" ry="7.5" stroke-width="0" transform=" rotate(0, 207, 34)"/>
    <ellipse cx="232.83713669723298" cy="34.75451016841859" fill="#4682b4" opacity="1" rx="7.5" ry="7.5" stroke-width="0" transform=" rotate(0, 232, 34)"/>
    <ellipse cx="38.28620565727317" cy="74.0203579128459" fill="#4682b4" opacity="1" rx="7.5" ry="7.5" stroke-width="0" transform=" rotate(0, 38, 74)"/>
    <ellipse cx="63.28620565727317" cy="82.83713669723299" fill="#41afba" opacity="1" rx="7.5" ry="7.5" stroke-width="0" transform=" rotate(0, 63, 82)"/>
    <ellipse cx="88.28620565727317" cy="88.2862056572732" fill="#3cc09c" opacity="1" rx="7.5" ry="7.5" stroke-width="0" transform=" rotate(0, 88, 88)"/>
    <ellipse cx="113.28620565727317" cy="88.2862056572732" fill="#3cc09c" opacity="1" rx="7.5" ry="7.5" stroke-width="0" transform=" rotate(0, 113, 88)"/>
    <ellipse cx="138.28620565727317" cy="82.83713669723299" fill="#3cc09c" opacity="1" rx="7.5" ry="7.5" stroke-width="0" transform=" rotate(0, 138, 82)"/>
    <ellipse cx="163.28620565727317" cy="74.0203579128459" fill="#3cc09c" opacity="1" rx="7.5" ry="7.5" stroke-width="0" transform=" rotate(0, 163, 74)"/>
    <ellipse cx="188.28620565727317" cy="65.2035791284588" fill="#3cc09c" opacity="1" rx="7.5" ry="7.5" stroke-width="0" transform=" rotate(0, 188, 65)"/>
    <ellipse cx="213.28620565727317" cy="59.75451016841859" fill="#41afba" opacity="1" rx="7.5" ry="7.5" stroke-width="0" transform=" rotate(0, 213, 59)"/>
    <ellipse cx="238.28620565727317" cy="59.75451016841859" fill="#4682b4" opacity="1" rx="7.5" ry="7.5" stroke-width="0" transform=" rotate(0, 238, 59)"/>
    <ellipse cx="38.28620565727317" cy="99.0203579128459" fill="#4682b4" opacity="1" rx="7.5" ry="7.5" stroke-width="0" transform=" rotate(0, 38, 99)"/>
    <ellipse cx="63.28620565727317" cy="107.83713669723299" fill="#41afba" opacity="1" rx="7.5" ry="7.5" stroke-width="0" transform=" rotate(0, 63, 107)"/>
    <ellipse cx="88.28620565727317" cy="113.2862056572732" fill="#3cc09c" opacity="1" rx="7.5" ry="7.5" stroke-width="0" transform=" rotate(0, 88, 113)"/>
    <ellipse cx="113.28620565727317" cy="113.2862056572732" fill="#37c76b" opacity="1" rx="7.5" ry="7.5" stroke-width="0" transform=" rotate(0, 113, 113)"/>
    <ellipse cx="138.28620565727317" cy="107.83713669723299" fill="#37c76b" opacity="1" rx="7.5" ry="7.5" stroke-width="0" transform=" rotate(0, 138, 107)"/>
    <ellipse cx="163.28620565727317" cy="99.0203579128459" fill="#37c76b" opacity="1" rx="7.5" ry="7.5" stroke-width="0" transform=" rotate(0, 163, 99)"/>
    <ellipse cx="188.28620565727317" cy="90.2035791284588" fill="#3cc09c" opacity="1" rx="7.5" ry="7.5" stroke-width="0" transform=" rotate(0, 188, 90)"/>
    <ellipse cx="213.28620565727317" cy="84.75451016841859" fill="#41afba" opacity="1" rx="7.5" ry="7.5" stroke-width="0" transform=" rotate(0, 213, 84)"/>
    <ellipse cx="238.28620565727317" cy="84.75451016841859" fill="#4682b4" opacity="1" rx="7.5" ry="7.5" stroke-width="0" transform=" rotate(0, 238, 84)"/>
    <ellipse cx="32.837136697232964" cy="124.0203579128459" fill="#4682b4" opacity="1" rx="7.5" ry="7.5" stroke-width="0" transform=" rotate(0, 32, 124)"/>
    <ellipse cx="57.837136697232964" cy="132.837136697233" fill="#41afba" opacity="1" rx="7.5" ry="7.5" stroke-width="0" transform=" rotate(0, 57, 132)"/>
    <ellipse cx="82.83713669723296" cy="138.2862056572732" fill="#3cc09c" opacity="1" rx="7.5" ry="7.5" stroke-width="0" transform=" rotate(0, 82, 138)"/>
    <ellipse cx="107.83713669723296" cy="138.2862056572732" fill="#37c76b" opacity="1" rx="7.5" ry="7.5" stroke-width="0" transform=" rotate(0, 107, 138)"/>
    <ellipse cx="132.83713669723295" cy="132.837136697233" fill="#32cd32" opacity="1" rx="7.5" ry="7.5" stroke-width="0" transform=" rotate(0, 132, 132)"/>
    <ellipse cx="157.83713669723298" cy="124.0203579128459" fill="#37c76b" opacity="1" rx="7.5" ry="7.5" stroke-width="0" transform=" rotate(0, 157, 124)"/>
    <ellipse cx="182.83713669723298" cy="115.2035791284588" fill="#3cc09c" opacity="1" rx="7.5" ry="7.5" stroke-width="0" transform=" rotate(0, 182, 115)"/>
    <ellipse cx="207.83713669723298" cy="109.75451016841859" fill="#41afba" opacity="1" rx="7.5" ry="7.5" stroke-width="0" transform=" rotate(0, 207, 109)"/>
    <ellipse cx="232.83713669723298" cy="109.75451016841859" fill="#4682b4" opacity="1" rx="7.5" ry="7.5" stroke-width="0" transform=" rotate(0, 232, 109)"/>
    <ellipse cx="24.02035791284587" cy="149.0203579128459" fill="#4682b4" opacity="1" rx="7.5" ry="7.5" stroke-width="0" transform=" rotate(0, 24, 149)"/>
    <ellipse cx="49.02035791284587" cy="157.837136697233" fill="#41afba" opacity="1" rx="7.5" ry="7.5" stroke-width="0" transform=" rotate(0, 49, 157)"/>
    <ellipse cx="74.02035791284587" cy="163.2862056572732" fill="#3cc09c" opacity="1" rx="7.5" ry="7.5" stroke-width="0" transform=" rotate(0, 74, 163)"/>
    <ellipse cx="99.02035791284587" cy="163.2862056572732" fill="#37c76b" opacity="1" rx="7.5" ry="7.5" stroke-width="0" transform=" rotate(0, 99, 163)"/>
    <ellipse cx="124.02035791284587" cy="157.837136697233" fill="#37c76b" opacity="1" rx="7.5" ry="7.5" stroke-width="0" transform=" rotate(0, 124, 157)"/>
    <ellipse cx="149.02035791284587" cy="149.0203579128459" fill="#37c76b" opacity="1" rx="7.5" ry="7.5" stroke-width="0" transform=" rotate(0, 149, 149)"/>
    <ellipse cx="174.02035791284587" cy="140.20357912845878" fill="#3cc09c" opacity="1" rx="7.5" ry="7.5" stroke-width="0" transform=" rotate(0, 174, 140)"/>
    <ellipse cx="199.02035791284587" cy="134.7545101684186" fill="#41afba" opacity="1" rx="7.5" ry="7.5" stroke-width="0" transform=" rotate(0, 199, 134)"/>
    <ellipse cx="224.02035791284587" cy="134.7545101684186" fill="#4682b4" opacity="1" rx="7.5" ry="7.5" stroke-width="0" transform=" rotate(0, 224, 134)"/>
    <ellipse cx="15.203579128458772" cy="174.0203579128459" fill="#4682b4" opacity="1" rx="7.5" ry="7.5" stroke-width="0" transform=" rotate(0, 15, 174)"/>
    <ellipse cx="40.20357912845877" cy="182.837136697233" fill="#41afba" opacity="1" rx="7.5" ry="7.5" stroke-width="0" transform=" rotate(0, 40, 182)"/>
    <ellipse cx="65.20357912845877" cy="188.2862056572732" fill="#3cc09c" opacity="1" rx="7.5" ry="7.5" stroke-width="0" transform=" rotate(0, 65, 188)"/>
    <ellipse cx="90.20357912845877" cy="188.2862056572732" fill="#3cc09c" opacity="1" rx="7.5" ry="7.5" stroke-width="0" transform=" rotate(0, 90, 188)"/>
    <ellipse cx="115.20357912845877" cy="182.837136697233" fill="#3cc09c" opacity="1" rx="7.5" ry="7.5" stroke-width="0" transform=" rotate(0, 115, 182)"/>
    <ellipse cx="140.20357912845878" cy="174.0203579128459" fill="#3cc09c" opacity="1" rx="7.5" ry="7.5" stroke-width="0" transform=" rotate(0, 140, 174)"/>
    <ellipse cx="165.20357912845878" cy="165.2035791284588" fill="#3cc09c" opacity="1" rx="7.5" ry="7.5" stroke-width="0" transform=" rotate(0, 165, 165)"/>
    <ellipse cx="190.20357912845878" cy="159.7545101684186" fill="#41afba" opacity="1" rx="7.5" ry="7.5" stroke-width="0" transform=" rotate(0, 190, 159)"/>
    <ellipse cx="215.20357912845878" cy="159.7545101684186" fill="#4682b4" opacity="1" rx="7.5" ry="7.5" stroke-width="0" transform=" rotate(0, 215, 159)"/>
    <ellipse cx="9.754510168418564" cy="199.0203579128459" fill="#4682b4" opacity="1" rx="7.5" ry="7.5" stroke-width="0" transform=" rotate(0, 9, 199)"/>
    <ellipse cx="34.75451016841856" cy="207.837136697233" fill="#41afba" opacity="1" rx="7.5" ry="7.5" stroke-width="0" transform=" rotate(0, 34, 207)"/>
    <ellipse cx="59.75451016841856" cy="213.2862056572732" fill="#41afba" opacity="1" rx="7.5" ry="7.5" stroke-width="0" transform=" rotate(0, 59, 213)"/>
    <ellipse cx="84.75451016841856" cy="213.2862056572732" fill="#41afba" opacity="1" rx="7.5" ry="7.5" stroke-width="0" transform=" rotate(0, 84, 213)"/>
    <ellipse cx="109.75451016841856" cy="207.837136697233" fill="#41afba" opacity="1" rx="7.5" ry="7.5" stroke-width="0" transform=" rotate(0, 109, 207)"/>
    <ellipse cx="134.75451016841856" cy="199.0203579128459" fill="#41afba" opacity="1" rx="7.5" ry="7.5" stroke-width="0" transform=" rotate(0, 134, 199)"/>
    <ellipse cx="159.75451016841856" cy="190.2035791284588" fill="#41afba" opacity="1" rx="7.5" ry="7.5" stroke-width="0" transform=" rotate(0, 159, 190)"/>
    <ellipse cx="184.75451016841856" cy="184.7545101684186" fill="#41afba" opacity="1" rx="7.5" ry="7.5" stroke-width="0" transform=" rotate(0, 184, 184)"/>
    <ellipse cx="209.75451016841856" cy="184.7545101684186" fill="#4682b4" opacity="1" rx="7.5" ry="7.5" stroke-width="0" transform=" rotate(0, 209, 184)"/>
    <ellipse cx="9.754510168418562" cy="224.0203579128459" fill="#4682b4" opacity="1" rx="7.5" ry="7.5" stroke-width="0" transform=" rotate(0, 9, 224)"/>
    <ellipse cx="34.75451016841856" cy="232.837136697233" fill="#4682b4" opacity="1" rx="7.5" ry="7.5" stroke-width="0" transform=" rotate(0, 34, 232)"/>
    <ellipse cx="59.75451016841856" cy="238.2862056572732" fill="#4682b4" opacity="1" rx="7.5" ry="7.5" stroke-width="0" transform=" rotate(0, 59, 238)"/>
    <ellipse cx="84.75451016841856" cy="238.2862056572732" fill="#4682b4" opacity="1" rx="7.5" ry="7.5" stroke-width="0" transform=" rotate(0, 84, 238)"/>
    <ellipse cx="109.75451016841856" cy="232.837136697233" fill="#4682b4" opacity="1" rx="7.5" ry="7.5" stroke-width="0" transform=" rotate(0, 109, 232)"/>
    <ellipse cx="134.75451016841856" cy="224.0203579128459" fill="#4682b4" opacity="1" rx="7.5" ry="7.5" stroke-width="0" transform=" rotate(0, 134, 224)"/>
    <ellipse cx="159.75451016841856" cy="215.2035791284588" fill="#4682b4" opacity="1" rx="7.5" ry="7.5" stroke-width="0" transform=" rotate(0, 159, 215)"/>
    <ellipse cx="184.75451016841856" cy="209.7545101684186" fill="#4682b4" opacity="1" rx="7.5" ry="7.5" stroke-width="0" transform=" rotate(0, 184, 209)"/>
    <ellipse cx="209.75451016841856" cy="209.7545101684186" fill="#4682b4" opacity="1" rx="7.5" ry="7.5" stroke-width="0" transform=" rotate(0, 209, 209)"/>
  </g>
</svg>
