<?xml version="1.0" encoding="utf-8" ?>
<svg xmlns="http://www.w3.org/2000/svg" xmlns:ev="http://www.w3.org/2001/xml-events" xmlns:xlink="http://www.w3.org/1999/xlink" baseProfile="full" height="250" version="1.1" width="250">
  <defs/>
  <g transform=" rotate(0, 125, 125)">
    <rect fill="white" height="250" width="250" x="0" y="0"/>
    <polygon fill="dodgerblue" opacity="1" points="25.0,114.99999999999999 17.928932188134524,117.92893218813451 15.0,124.99999999999999 17.928932188134524,132.07106781186545 24.999999999999996,135.0 32.071067811865476,132.07106781186548 35.0,124.99999999999999 32.07106781186548,117.92893218813452" stroke-width="0" transform=" rotate(0, 25, 124)"/>
    <polygon fill="dodgerblue" opacity="1" points="28.141683887136892,90.13101128351451 21.070616075271417,93.05994347164904 18.141683887136892,100.13101128351451 21.070616075271417,107.20207909537999 28.14168388713689,110.13101128351451 35.21275169900237,107.20207909537999 38.14168388713689,100.13101128351451 35.212751699002375,93.05994347164905" stroke-width="0" transform=" rotate(0, 28, 100)"/>
    <polygon fill="dodgerblue" opacity="1" points="37.36933199561365,66.82463258982844 30.298264183748174,69.75356477796296 27.36933199561365,76.82463258982844 30.298264183748174,83.89570040169392 37.36933199561365,86.82463258982844 44.440399807479125,83.89570040169392 47.36933199561365,76.82463258982844 44.44039980747913,69.75356477796298" stroke-width="0" transform=" rotate(0, 37, 76)"/>
    <polygon fill="dodgerblue" opacity="1" points="52.10313725785883,46.54528940713115 45.03206944599336,49.474221595265675 42.10313725785883,56.54528940713115 45.03206944599336,63.616357218996626 52.10313725785883,66.54528940713115 59.17420506972431,63.616357218996626 62.10313725785883,56.54528940713115 59.174205069724316,49.47422159526568" stroke-width="0" transform=" rotate(0, 52, 56)"/>
    <polygon fill="dodgerblue" opacity="1" points="71.41732050210031,30.567207449798502 64.34625269023483,33.49613963793303 61.41732050210031,40.5672074497985 64.34625269023483,47.63827526166398 71.41732050210031,50.5672074497985 78.48838831396579,47.63827526166398 81.41732050210031,40.5672074497985 78.4883883139658,33.496139637933034" stroke-width="0" transform=" rotate(0, 71, 40)"/>
    <polygon fill="dodgerblue" opacity="1" points="94.09830056250527,19.894348370484636 87.0272327506398,22.82328055861916 84.09830056250527,29.894348370484632 87.0272327506398,36.96541618235011 94.09830056250527,39.894348370484636 101.16936837437075,36.96541618235011 104.09830056250527,29.89434837048464 101.16936837437076,22.823280558619167" stroke-width="0" transform=" rotate(0, 94, 29)"/>
    <polygon fill="dodgerblue" opacity="1" points="118.72094804706869,15.19732715717285 111.64988023520321,18.126259345307375 108.72094804706869,25.197327157172847 111.64988023520321,32.268394969038326 118.72094804706869,35.19732715717285 125.79201585893416,32.268394969038326 128.7209480470687,25.197327157172854 125.79201585893418,18.126259345307382" stroke-width="0" transform=" rotate(0, 118, 25)"/>
    <polygon fill="dodgerblue" opacity="1" points="143.73813145857244,16.77127492713113 136.66706364670696,19.700207115265655 133.73813145857244,26.771274927131127 136.66706364670696,33.84234273899661 143.73813145857244,36.77127492713113 150.80919927043792,33.84234273899661 153.73813145857244,26.771274927131135 150.80919927043792,19.700207115265663" stroke-width="0" transform=" rotate(0, 143, 26)"/>
    <polygon fill="dodgerblue" opacity="1" points="167.57792915650725,24.517294753398048 160.50686134464178,27.446226941532572 157.57792915650725,34.51729475339805 160.50686134464178,41.58836256526352 167.57792915650725,44.51729475339805 174.64899696837273,41.58836256526352 177.57792915650725,34.51729475339805 174.64899696837273,27.44622694153258" stroke-width="0" transform=" rotate(0, 167, 34)"/>
    <polygon fill="dodgerblue" opacity="1" points="188.74239897486896,37.94867572242107 181.6713311630035,40.8776079105556 178.74239897486896,47.94867572242107 181.6713311630035,55.01974353428655 188.74239897486896,57.94867572242107 195.81346678673444,55.01974353428655 198.74239897486896,47.94867572242107 195.81346678673444,40.877607910555604" stroke-width="0" transform=" rotate(0, 188, 47)"/>
    <polygon fill="dodgerblue" opacity="1" points="205.90169943749476,56.22147477075268 198.83063162562928,59.1504069588872 195.90169943749476,66.22147477075268 198.83063162562928,73.29254258261815 205.90169943749476,76.22147477075268 212.97276724936023,73.29254258261815 215.90169943749476,66.22147477075268 212.97276724936023,59.15040695888721" stroke-width="0" transform=" rotate(0, 205, 66)"/>
    <polygon fill="dodgerblue" opacity="1" points="217.97764858882516,78.18754473153221 210.9065807769597,81.11647691966674 207.97764858882516,88.18754473153221 210.9065807769597,95.25861254339769 217.97764858882516,98.18754473153221 225.04871640069064,95.25861254339769 227.97764858882516,88.18754473153221 225.04871640069064,81.11647691966675" stroke-width="0" transform=" rotate(0, 217, 88)"/>
    <polygon fill="dodgerblue" opacity="1" points="224.21147013144778,102.4666766435696 217.1404023195823,105.39560883170412 214.21147013144778,112.4666766435696 217.1404023195823,119.53774445543507 224.21147013144778,122.4666766435696 231.28253794331326,119.53774445543507 234.21147013144778,112.4666766435696 231.28253794331326,105.39560883170414" stroke-width="0" transform=" rotate(0, 224, 112)"/>
    <polygon fill="dodgerblue" opacity="1" points="224.21147013144778,127.53332335643046 217.1404023195823,130.46225554456498 214.21147013144778,137.53332335643046 217.1404023195823,144.60439116829593 224.21147013144778,147.53332335643046 231.28253794331326,144.60439116829593 234.21147013144778,137.53332335643046 231.28253794331326,130.46225554456498" stroke-width="0" transform=" rotate(0, 224, 137)"/>
    <polygon fill="dodgerblue" opacity="1" points="217.97764858882516,151.81245526846777 210.9065807769597,154.7413874566023 207.97764858882516,161.81245526846777 210.9065807769597,168.88352308033325 217.97764858882516,171.81245526846777 225.04871640069064,168.88352308033325 227.97764858882516,161.81245526846777 225.04871640069064,154.7413874566023" stroke-width="0" transform=" rotate(0, 217, 161)"/>
    <polygon fill="dodgerblue" opacity="1" points="205.90169943749476,173.77852522924732 198.83063162562928,176.70745741738185 195.90169943749476,183.77852522924732 198.83063162562928,190.8495930411128 205.90169943749476,193.77852522924732 212.97276724936023,190.8495930411128 215.90169943749476,183.77852522924732 212.97276724936023,176.70745741738185" stroke-width="0" transform=" rotate(0, 205, 183)"/>
    <polygon fill="dodgerblue" opacity="1" points="188.74239897486896,192.05132427757894 181.6713311630035,194.98025646571347 178.74239897486896,202.05132427757894 181.6713311630035,209.12239208944442 188.74239897486896,212.05132427757894 195.81346678673444,209.12239208944442 198.74239897486896,202.05132427757894 195.81346678673444,194.98025646571347" stroke-width="0" transform=" rotate(0, 188, 202)"/>
    <polygon fill="dodgerblue" opacity="1" points="167.57792915650725,205.48270524660194 160.50686134464178,208.41163743473646 157.57792915650725,215.48270524660194 160.50686134464178,222.5537730584674 167.57792915650725,225.48270524660194 174.64899696837273,222.5537730584674 177.57792915650725,215.48270524660194 174.64899696837273,208.41163743473646" stroke-width="0" transform=" rotate(0, 167, 215)"/>
    <polygon fill="dodgerblue" opacity="1" points="143.7381314585725,213.22872507286885 136.66706364670702,216.15765726100338 133.7381314585725,223.22872507286885 136.66706364670702,230.29979288473433 143.7381314585725,233.22872507286885 150.80919927043797,230.29979288473433 153.7381314585725,223.22872507286885 150.80919927043797,216.15765726100338" stroke-width="0" transform=" rotate(0, 143, 223)"/>
    <polygon fill="dodgerblue" opacity="1" points="118.72094804706862,214.80267284282715 111.64988023520314,217.73160503096167 108.72094804706862,224.80267284282715 111.64988023520314,231.87374065469263 118.72094804706862,234.80267284282715 125.79201585893409,231.87374065469263 128.72094804706862,224.80267284282715 125.7920158589341,217.73160503096167" stroke-width="0" transform=" rotate(0, 118, 224)"/>
    <polygon fill="dodgerblue" opacity="1" points="94.09830056250527,210.10565162951536 87.0272327506398,213.0345838176499 84.09830056250527,220.10565162951536 87.0272327506398,227.17671944138084 94.09830056250527,230.10565162951536 101.16936837437075,227.17671944138084 104.09830056250527,220.10565162951536 101.16936837437076,213.0345838176499" stroke-width="0" transform=" rotate(0, 94, 220)"/>
    <polygon fill="dodgerblue" opacity="1" points="71.41732050210028,199.43279255020147 64.3462526902348,202.361724738336 61.41732050210028,209.43279255020147 64.3462526902348,216.50386036206694 71.41732050210028,219.43279255020147 78.48838831396576,216.50386036206694 81.41732050210028,209.43279255020147 78.48838831396577,202.361724738336" stroke-width="0" transform=" rotate(0, 71, 209)"/>
    <polygon fill="dodgerblue" opacity="1" points="52.10313725785883,183.45471059286885 45.03206944599336,186.38364278100337 42.10313725785883,193.45471059286885 45.03206944599336,200.52577840473433 52.10313725785883,203.45471059286885 59.17420506972431,200.52577840473433 62.10313725785883,193.45471059286885 59.174205069724316,186.38364278100337" stroke-width="0" transform=" rotate(0, 52, 193)"/>
    <polygon fill="dodgerblue" opacity="1" points="37.36933199561365,163.17536741017156 30.298264183748174,166.10429959830608 27.36933199561365,173.17536741017156 30.298264183748174,180.24643522203704 37.36933199561365,183.17536741017156 44.440399807479125,180.24643522203704 47.36933199561365,173.17536741017156 44.44039980747913,166.10429959830608" stroke-width="0" transform=" rotate(0, 37, 173)"/>
    <polygon fill="dodgerblue" opacity="1" points="28.141683887136878,139.86898871648543 21.070616075271403,142.79792090461996 18.141683887136878,149.86898871648543 21.070616075271403,156.9400565283509 28.141683887136875,159.86898871648543 35.212751699002354,156.9400565283509 38.14168388713688,149.86898871648543 35.21275169900236,142.79792090461996" stroke-width="0" transform=" rotate(0, 28, 149)"/>
  </g>
</svg>
