<?xml version="1.0" encoding="utf-8" ?>
<svg xmlns="http://www.w3.org/2000/svg" xmlns:ev="http://www.w3.org/2001/xml-events" xmlns:xlink="http://www.w3.org/1999/xlink" baseProfile="full" height="250" version="1.1" width="250">
  <defs/>
  <g transform=" rotate(0, 125, 125)">
    <rect fill="white" height="250" width="250" x="0" y="0"/>
    <rect fill="#32cd32" height="15" opacity="1" stroke-width="0" transform=" rotate(0, 208, 123)" width="15" x="200.90014726608877" y="116.32040553729733"/>
    <ellipse cx="219.84728215309605" cy="97.50933165377928" fill="#33cc3a" opacity="1" rx="7.5" ry="7.5" stroke-width="0" transform=" rotate(0, 219, 97)"/>
    <rect fill="#33cb43" height="15" opacity="1" stroke-width="0" transform=" rotate(0, 224, 69)" width="15" x="217.31837111386835" y="61.75537085640582"/>
    <ellipse cx="219.03325085112567" cy="41.46067285139168" fill="#34ca4b" opacity="1" rx="7.5" ry="7.5" stroke-width="0" transform=" rotate(0, 219, 41)"/>
    <rect fill="#35ca53" height="15" opacity="1" stroke-width="0" transform=" rotate(0, 195, 28)" width="15" x="187.6401521654481" y="20.9506227899751"/>
    <ellipse cx="168.62593146239192" cy="39.35964211870629" fill="#36c95a" opacity="1" rx="7.5" ry="7.5" stroke-width="0" transform=" rotate(0, 168, 39)"/>
    <rect fill="#36c862" height="15" opacity="1" stroke-width="0" transform=" rotate(0, 150, 61)" width="15" x="143.02688702700354" y="53.77854094241423"/>
    <ellipse cx="142.6770110983132" cy="88.43995486070078" fill="#37c769" opacity="1" rx="7.5" ry="7.5" stroke-width="0" transform=" rotate(0, 142, 88)"/>
    <rect fill="#38c671" height="15" opacity="1" stroke-width="0" transform=" rotate(0, 118, 99)" width="15" x="110.53843165427715" y="91.92478193754255"/>
    <ellipse cx="104.25729946328794" cy="76.90674613931387" fill="#38c578" opacity="1" rx="7.5" ry="7.5" stroke-width="0" transform=" rotate(0, 104, 76)"/>
    <rect fill="#39c47f" height="15" opacity="1" stroke-width="0" transform=" rotate(0, 93, 51)" width="15" x="85.8096609537117" y="44.039619764791176"/>
    <ellipse cx="70.9846974633366" cy="32.81319747654142" fill="#3ac386" opacity="1" rx="7.5" ry="7.5" stroke-width="0" transform=" rotate(0, 70, 32)"/>
    <rect fill="#3ac38c" height="15" opacity="1" stroke-width="0" transform=" rotate(0, 42, 30)" width="15" x="35.12841766868682" y="23.118589186379246"/>
    <ellipse cx="26.425934632504337" cy="52.317213950516056" fill="#3bc293" opacity="1" rx="7.5" ry="7.5" stroke-width="0" transform=" rotate(0, 26, 52)"/>
    <rect fill="#3cc199" height="15" opacity="1" stroke-width="0" transform=" rotate(0, 26, 81)" width="15" x="18.95227766026972" y="73.62483880362647"/>
    <ellipse cx="34.16711815209068" cy="108.75781239820094" fill="#3cc09f" opacity="1" rx="7.5" ry="7.5" stroke-width="0" transform=" rotate(0, 34, 108)"/>
    <rect fill="#3dbfa5" height="15" opacity="1" stroke-width="0" transform=" rotate(0, 45, 135)" width="15" x="38.103475996285745" y="128.375118672263"/>
    <ellipse cx="38.51382857965375" cy="162.34987536548542" fill="#3ebeab" opacity="1" rx="7.5" ry="7.5" stroke-width="0" transform=" rotate(0, 38, 162)"/>
    <rect fill="#3fbdb1" height="15" opacity="1" stroke-width="0" transform=" rotate(0, 37, 189)" width="15" x="29.867880684715146" y="182.30302016964126"/>
    <ellipse cx="52.33113093148039" cy="215.6952025458007" fill="#3fbdb7" opacity="1" rx="7.5" ry="7.5" stroke-width="0" transform=" rotate(0, 52, 215)"/>
    <rect fill="#40bbbc" height="15" opacity="1" stroke-width="0" transform=" rotate(0, 76, 228)" width="15" x="68.74282432434725" y="220.78121331350235"/>
    <ellipse cx="95.2099984150797" cy="208.98248329624764" fill="#41b4bb" opacity="1" rx="7.5" ry="7.5" stroke-width="0" transform=" rotate(0, 95, 208)"/>
    <rect fill="#41adba" height="15" opacity="1" stroke-width="0" transform=" rotate(0, 106, 180)" width="15" x="99.49722721256587" y="173.4716958329925"/>
    <ellipse cx="131.2420987163256" cy="171.5314683315158" fill="#42a7b9" opacity="1" rx="7.5" ry="7.5" stroke-width="0" transform=" rotate(0, 131, 171)"/>
    <rect fill="#43a0b8" height="15" opacity="1" stroke-width="0" transform=" rotate(0, 147, 191)" width="15" x="140.05887237977103" y="184.05939950530345"/>
    <ellipse cx="161.24455824526177" cy="220.54436729543977" fill="#439ab7" opacity="1" rx="7.5" ry="7.5" stroke-width="0" transform=" rotate(0, 161, 220)"/>
    <rect fill="#4494b7" height="15" opacity="1" stroke-width="0" transform=" rotate(0, 184, 225)" width="15" x="177.196491323064" y="218.43414902896433"/>
    <ellipse cx="205.5928347910999" cy="205.21169224724355" fill="#458eb6" opacity="1" rx="7.5" ry="7.5" stroke-width="0" transform=" rotate(0, 205, 205)"/>
    <rect fill="#4588b5" height="15" opacity="1" stroke-width="0" transform=" rotate(0, 214, 178)" width="15" x="207.33784948248984" y="171.1418860364896"/>
    <ellipse cx="207.22805813235965" cy="151.5410870915281" fill="#4682b4" opacity="1" rx="7.5" ry="7.5" stroke-width="0" transform=" rotate(0, 207, 151)"/>
  </g>
</svg>
