<?xml version="1.0" encoding="utf-8" ?>
<svg xmlns="http://www.w3.org/2000/svg" xmlns:ev="http://www.w3.org/2001/xml-events" xmlns:xlink="http://www.w3.org/1999/xlink" baseProfile="full" height="250" version="1.1" width="250">
  <defs/>
  <g transform=" rotate(0, 125, 125)">
    <rect fill="none" height="250" width="250" x="0" y="0"/>
    <polygon fill="black" opacity="1" points="25.000000000000004,109.99999999999999 10.0,124.99999999999999 24.999999999999996,140.0 40.0,124.99999999999999" stroke-width="0" transform=" rotate(0, 25, 124)"/>
    <polygon fill="black" opacity="1" points="38.39745962155612,60.0 23.397459621556123,75.0 38.397459621556116,90.0 53.39745962155612,75.0" stroke-width="0" transform=" rotate(0, 38, 75)"/>
    <polygon fill="black" opacity="1" points="75.00000000000003,23.397459621556123 60.00000000000003,38.39745962155612 75.00000000000003,53.39745962155612 90.00000000000003,38.39745962155613" stroke-width="0" transform=" rotate(0, 75, 38)"/>
    <polygon fill="black" opacity="1" points="125.0,10.0 110.0,24.999999999999996 125.0,40.0 140.0,25.000000000000004" stroke-width="0" transform=" rotate(0, 125, 25)"/>
    <polygon fill="black" opacity="1" points="175.0,23.397459621556138 160.0,38.39745962155614 175.0,53.39745962155614 190.0,38.397459621556145" stroke-width="0" transform=" rotate(0, 175, 38)"/>
    <polygon fill="black" opacity="1" points="211.60254037844388,60.0 196.60254037844388,75.0 211.60254037844388,90.0 226.60254037844388,75.0" stroke-width="0" transform=" rotate(0, 211, 75)"/>
    <polygon fill="black" opacity="1" points="225.0,110.0 210.0,125.0 225.0,140.0 240.0,125.0" stroke-width="0" transform=" rotate(0, 225, 125)"/>
    <polygon fill="black" opacity="1" points="211.60254037844388,160.0 196.60254037844388,175.0 211.60254037844388,190.0 226.60254037844388,175.0" stroke-width="0" transform=" rotate(0, 211, 175)"/>
    <polygon fill="black" opacity="1" points="175.0,196.60254037844385 160.0,211.60254037844385 175.0,226.60254037844385 190.0,211.60254037844385" stroke-width="0" transform=" rotate(0, 175, 211)"/>
    <polygon fill="black" opacity="1" points="125.0,210.0 110.0,225.0 125.0,240.0 140.0,225.0" stroke-width="0" transform=" rotate(0, 125, 225)"/>
    <polygon fill="black" opacity="1" points="75.00000000000003,196.60254037844388 60.00000000000003,211.60254037844388 75.00000000000003,226.60254037844388 90.00000000000003,211.60254037844388" stroke-width="0" transform=" rotate(0, 75, 211)"/>
    <polygon fill="black" opacity="1" points="38.39745962155612,160.0 23.397459621556123,175.0 38.397459621556116,190.0 53.39745962155612,175.0" stroke-width="0" transform=" rotate(0, 38, 175)"/>
  </g>
</svg>
