<?xml version="1.0" encoding="utf-8" ?>
<svg xmlns="http://www.w3.org/2000/svg" xmlns:ev="http://www.w3.org/2001/xml-events" xmlns:xlink="http://www.w3.org/1999/xlink" baseProfile="full" height="250" version="1.1" width="250">
  <defs/>
  <g transform=" rotate(0, 125, 125)">
    <rect fill="none" height="250" width="250" x="0" y="0"/>
    <rect fill="steelblue" height="15" opacity="1" stroke-width="0" transform=" rotate(0, 15, 15)" width="15" x="7.5" y="7.5"/>
    <ellipse cx="35.0" cy="15.0" fill="limegreen" opacity="1" rx="7.5" ry="7.5" stroke-width="0" transform=" rotate(0, 35, 15)"/>
    <polygon fill="steelblue" opacity="1" points="55.0,7.5 47.5,14.999999999999998 55.0,22.5 62.5,15.000000000000002" stroke-width="0" transform=" rotate(0, 55, 15)"/>
    <rect fill="limegreen" height="15" opacity="1" stroke-width="0" transform=" rotate(0, 75, 15)" width="15" x="67.5" y="7.5"/>
    <ellipse cx="95.0" cy="15.0" fill="steelblue" opacity="1" rx="7.5" ry="7.5" stroke-width="0" transform=" rotate(0, 95, 15)"/>
    <polygon fill="limegreen" opacity="1" points="115.0,7.5 107.5,14.999999999999998 115.0,22.5 122.5,15.000000000000002" stroke-width="0" transform=" rotate(0, 115, 15)"/>
    <polygon fill="limegreen" opacity="1" points="135.0,7.5 127.5,14.999999999999998 135.0,22.5 142.5,15.000000000000002" stroke-width="0" transform=" rotate(0, 135, 15)"/>
    <ellipse cx="155.0" cy="15.0" fill="steelblue" opacity="1" rx="7.5" ry="7.5" stroke-width="0" transform=" rotate(0, 155, 15)"/>
    <rect fill="limegreen" height="15" opacity="1" stroke-width="0" transform=" rotate(0, 175, 15)" width="15" x="167.5" y="7.5"/>
    <polygon fill="steelblue" opacity="1" points="195.0,7.5 187.5,14.999999999999998 195.0,22.5 202.5,15.000000000000002" stroke-width="0" transform=" rotate(0, 195, 15)"/>
    <ellipse cx="215.0" cy="15.0" fill="limegreen" opacity="1" rx="7.5" ry="7.5" stroke-width="0" transform=" rotate(0, 215, 15)"/>
    <rect fill="steelblue" height="15" opacity="1" stroke-width="0" transform=" rotate(0, 235, 15)" width="15" x="227.5" y="7.5"/>
    <rect fill="steelblue" height="15" opacity="1" stroke-width="0" transform=" rotate(0, 15, 35)" width="15" x="7.5" y="27.5"/>
    <ellipse cx="35.0" cy="35.0" fill="limegreen" opacity="1" rx="7.5" ry="7.5" stroke-width="0" transform=" rotate(0, 35, 35)"/>
    <polygon fill="steelblue" opacity="1" points="55.0,27.5 47.5,35.0 55.0,42.5 62.5,35.0" stroke-width="0" transform=" rotate(0, 55, 35)"/>
    <rect fill="limegreen" height="15" opacity="1" stroke-width="0" transform=" rotate(0, 75, 35)" width="15" x="67.5" y="27.5"/>
    <ellipse cx="95.0" cy="35.0" fill="steelblue" opacity="1" rx="7.5" ry="7.5" stroke-width="0" transform=" rotate(0, 95, 35)"/>
    <polygon fill="limegreen" opacity="1" points="115.0,27.5 107.5,35.0 115.0,42.5 122.5,35.0" stroke-width="0" transform=" rotate(0, 115, 35)"/>
    <polygon fill="limegreen" opacity="1" points="135.0,27.5 127.5,35.0 135.0,42.5 142.5,35.0" stroke-width="0" transform=" rotate(0, 135, 35)"/>
    <ellipse cx="155.0" cy="35.0" fill="steelblue" opacity="1" rx="7.5" ry="7.5" stroke-width="0" transform=" rotate(0, 155, 35)"/>
    <rect fill="limegreen" height="15" opacity="1" stroke-width="0" transform=" rotate(0, 175, 35)" width="15" x="167.5" y="27.5"/>
    <polygon fill="steelblue" opacity="1" points="195.0,27.5 187.5,35.0 195.0,42.5 202.5,35.0" stroke-width="0" transform=" rotate(0, 195, 35)"/>
    <ellipse cx="215.0" cy="35.0" fill="limegreen" opacity="1" rx="7.5" ry="7.5" stroke-width="0" transform=" rotate(0, 215, 35)"/>
    <rect fill="steelblue" height="15" opacity="1" stroke-width="0" transform=" rotate(0, 235, 35)" width="15" x="227.5" y="27.5"/>
    <rect fill="steelblue" height="15" opacity="1" stroke-width="0" transform=" rotate(0, 15, 55)" width="15" x="7.5" y="47.5"/>
    <ellipse cx="35.0" cy="55.0" fill="limegreen" opacity="1" rx="7.5" ry="7.5" stroke-width="0" transform=" rotate(0, 35, 55)"/>
    <polygon fill="steelblue" opacity="1" points="55.0,47.5 47.5,55.0 55.0,62.5 62.5,55.0" stroke-width="0" transform=" rotate(0, 55, 55)"/>
    <rect fill="limegreen" height="15" opacity="1" stroke-width="0" transform=" rotate(0, 75, 55)" width="15" x="67.5" y="47.5"/>
    <ellipse cx="95.0" cy="55.0" fill="steelblue" opacity="1" rx="7.5" ry="7.5" stroke-width="0" transform=" rotate(0, 95, 55)"/>
    <polygon fill="limegreen" opacity="1" points="115.0,47.5 107.5,55.0 115.0,62.5 122.5,55.0" stroke-width="0" transform=" rotate(0, 115, 55)"/>
    <polygon fill="limegreen" opacity="1" points="135.0,47.5 127.5,55.0 135.0,62.5 142.5,55.0" stroke-width="0" transform=" rotate(0, 135, 55)"/>
    <ellipse cx="155.0" cy="55.0" fill="steelblue" opacity="1" rx="7.5" ry="7.5" stroke-width="0" transform=" rotate(0, 155, 55)"/>
    <rect fill="limegreen" height="15" opacity="1" stroke-width="0" transform=" rotate(0, 175, 55)" width="15" x="167.5" y="47.5"/>
    <polygon fill="steelblue" opacity="1" points="195.0,47.5 187.5,55.0 195.0,62.5 202.5,55.0" stroke-width="0" transform=" rotate(45, 195, 55)"/>
    <ellipse cx="215.0" cy="55.0" fill="limegreen" opacity="1" rx="7.5" ry="7.5" stroke-width="0" transform=" rotate(0, 215, 55)"/>
    <rect fill="steelblue" height="15" opacity="1" stroke-width="0" transform=" rotate(0, 235, 55)" width="15" x="227.5" y="47.5"/>
    <rect fill="steelblue" height="15" opacity="1" stroke-width="0" transform=" rotate(0, 15, 75)" width="15" x="7.5" y="67.5"/>
    <ellipse cx="35.0" cy="75.0" fill="limegreen" opacity="1" rx="7.5" ry="7.5" stroke-width="0" transform=" rotate(0, 35, 75)"/>
    <polygon fill="steelblue" opacity="1" points="55.0,67.5 47.5,75.0 55.0,82.5 62.5,75.0" stroke-width="0" transform=" rotate(0, 55, 75)"/>
    <rect fill="limegreen" height="15" opacity="1" stroke-width="0" transform=" rotate(0, 75, 75)" width="15" x="67.5" y="67.5"/>
    <ellipse cx="95.0" cy="75.0" fill="steelblue" opacity="1" rx="7.5" ry="7.5" stroke-width="0" transform=" rotate(0, 95, 75)"/>
    <polygon fill="limegreen" opacity="1" points="115.0,67.5 107.5,75.0 115.0,82.5 122.5,75.0" stroke-width="0" transform=" rotate(0, 115, 75)"/>
    <polygon fill="limegreen" opacity="1" points="135.0,67.5 127.5,75.0 135.0,82.5 142.5,75.0" stroke-width="0" transform=" rotate(0, 135, 75)"/>
    <ellipse cx="155.0" cy="75.0" fill="steelblue" opacity="1" rx="7.5" ry="7.5" stroke-width="0" transform=" rotate(0, 155, 75)"/>
    <rect fill="limegreen" height="15" opacity="1" stroke-width="0" transform=" rotate(45, 175, 75)" width="15" x="167.5" y="67.5"/>
    <polygon fill="steelblue" opacity="1" points="195.0,67.5 187.5,75.0 195.0,82.5 202.5,75.0" stroke-width="0" transform=" rotate(0, 195, 75)"/>
    <ellipse cx="215.0" cy="75.0" fill="limegreen" opacity="1" rx="7.5" ry="7.5" stroke-width="0" transform=" rotate(0, 215, 75)"/>
    <rect fill="steelblue" height="15" opacity="1" stroke-width="0" transform=" rotate(0, 235, 75)" width="15" x="227.5" y="67.5"/>
    <rect fill="steelblue" height="15" opacity="1" stroke-width="0" transform=" rotate(0, 15, 95)" width="15" x="7.5" y="87.5"/>
    <ellipse cx="35.0" cy="95.0" fill="limegreen" opacity="1" rx="7.5" ry="7.5" stroke-width="0" transform=" rotate(0, 35, 95)"/>
    <polygon fill="steelblue" opacity="1" points="55.0,87.5 47.5,95.0 55.0,102.5 62.5,95.0" stroke-width="0" transform=" rotate(0, 55, 95)"/>
    <rect fill="limegreen" height="15" opacity="1" stroke-width="0" transform=" rotate(0, 75, 95)" width="15" x="67.5" y="87.5"/>
    <ellipse cx="95.0" cy="95.0" fill="steelblue" opacity="1" rx="7.5" ry="7.5" stroke-width="0" transform=" rotate(0, 95, 95)"/>
    <polygon fill="limegreen" opacity="1" points="115.0,87.5 107.5,95.0 115.0,102.5 122.5,95.0" stroke-width="0" transform=" rotate(0, 115, 95)"/>
    <polygon fill="limegreen" opacity="1" points="135.0,87.5 127.5,95.0 135.0,102.5 142.5,95.0" stroke-width="0" transform=" rotate(0, 135, 95)"/>
    <ellipse cx="155.0" cy="95.0" fill="steelblue" opacity="1" rx="7.5" ry="7.5" stroke-width="0" transform=" rotate(0, 155, 95)"/>
    <rect fill="limegreen" height="15" opacity="1" stroke-width="0" transform=" rotate(0, 175, 95)" width="15" x="167.5" y="87.5"/>
    <polygon fill="steelblue" opacity="1" points="195.0,87.5 187.5,95.0 195.0,102.5 202.5,95.0" stroke-width="0" transform=" rotate(0, 195, 95)"/>
    <ellipse cx="215.0" cy="95.0" fill="limegreen" opacity="1" rx="7.5" ry="7.5" stroke-width="0" transform=" rotate(0, 215, 95)"/>
    <rect fill="steelblue" height="15" opacity="1" stroke-width="0" transform=" rotate(0, 235, 95)" width="15" x="227.5" y="87.5"/>
    <rect fill="steelblue" height="15" opacity="1" stroke-width="0" transform=" rotate(0, 15, 115)" width="15" x="7.5" y="107.5"/>
    <ellipse cx="35.0" cy="115.0" fill="limegreen" opacity="1" rx="7.5" ry="7.5" stroke-width="0" transform=" rotate(0, 35, 115)"/>
    <polygon fill="steelblue" opacity="1" points="55.0,107.5 47.5,115.0 55.0,122.5 62.5,115.0" stroke-width="0" transform=" rotate(0, 55, 115)"/>
    <rect fill="limegreen" height="15" opacity="1" stroke-width="0" transform=" rotate(0, 75, 115)" width="15" x="67.5" y="107.5"/>
    <ellipse cx="95.0" cy="115.0" fill="steelblue" opacity="1" rx="7.5" ry="7.5" stroke-width="0" transform=" rotate(0, 95, 115)"/>
    <polygon fill="limegreen" opacity="1" points="115.0,107.5 107.5,115.0 115.0,122.5 122.5,115.0" stroke-width="0" transform=" rotate(0, 115, 115)"/>
    <polygon fill="limegreen" opacity="1" points="135.0,107.5 127.5,115.0 135.0,122.5 142.5,115.0" stroke-width="0" transform=" rotate(0, 135, 115)"/>
    <ellipse cx="155.0" cy="115.0" fill="steelblue" opacity="1" rx="7.5" ry="7.5" stroke-width="0" transform=" rotate(0, 155, 115)"/>
    <rect fill="limegreen" height="15" opacity="1" stroke-width="0" transform=" rotate(0, 175, 115)" width="15" x="167.5" y="107.5"/>
    <polygon fill="steelblue" opacity="1" points="195.0,107.5 187.5,115.0 195.0,122.5 202.5,115.0" stroke-width="0" transform=" rotate(0, 195, 115)"/>
    <ellipse cx="215.0" cy="115.0" fill="limegreen" opacity="1" rx="7.5" ry="7.5" stroke-width="0" transform=" rotate(0, 215, 115)"/>
    <rect fill="steelblue" height="15" opacity="1" stroke-width="0" transform=" rotate(0, 235, 115)" width="15" x="227.5" y="107.5"/>
    <rect fill="steelblue" height="15" opacity="1" stroke-width="0" transform=" rotate(0, 15, 135)" width="15" x="7.5" y="127.5"/>
    <ellipse cx="35.0" cy="135.0" fill="limegreen" opacity="1" rx="7.5" ry="7.5" stroke-width="0" transform=" rotate(0, 35, 135)"/>
    <polygon fill="steelblue" opacity="1" points="55.0,127.5 47.5,135.0 55.0,142.5 62.5,135.0" stroke-width="0" transform=" rotate(0, 55, 135)"/>
    <rect fill="limegreen" height="15" opacity="1" stroke-width="0" transform=" rotate(0, 75, 135)" width="15" x="67.5" y="127.5"/>
    <ellipse cx="95.0" cy="135.0" fill="steelblue" opacity="1" rx="7.5" ry="7.5" stroke-width="0" transform=" rotate(0, 95, 135)"/>
    <polygon fill="limegreen" opacity="1" points="115.0,127.5 107.5,135.0 115.0,142.5 122.5,135.0" stroke-width="0" transform=" rotate(0, 115, 135)"/>
    <polygon fill="limegreen" opacity="1" points="135.0,127.5 127.5,135.0 135.0,142.5 142.5,135.0" stroke-width="0" transform=" rotate(0, 135, 135)"/>
    <ellipse cx="155.0" cy="135.0" fill="steelblue" opacity="1" rx="7.5" ry="7.5" stroke-width="0" transform=" rotate(0, 155, 135)"/>
    <rect fill="limegreen" height="15" opacity="1" stroke-width="0" transform=" rotate(0, 175, 135)" width="15" x="167.5" y="127.5"/>
    <polygon fill="steelblue" opacity="1" points="195.0,127.5 187.5,135.0 195.0,142.5 202.5,135.0" stroke-width="0" transform=" rotate(0, 195, 135)"/>
    <ellipse cx="215.0" cy="135.0" fill="limegreen" opacity="1" rx="7.5" ry="7.5" stroke-width="0" transform=" rotate(0, 215, 135)"/>
    <rect fill="steelblue" height="15" opacity="1" stroke-width="0" transform=" rotate(0, 235, 135)" width="15" x="227.5" y="127.5"/>
    <rect fill="steelblue" height="15" opacity="1" stroke-width="0" transform=" rotate(0, 15, 155)" width="15" x="7.5" y="147.5"/>
    <ellipse cx="35.0" cy="155.0" fill="limegreen" opacity="1" rx="7.5" ry="7.5" stroke-width="0" transform=" rotate(0, 35, 155)"/>
    <polygon fill="steelblue" opacity="1" points="55.0,147.5 47.5,155.0 55.0,162.5 62.5,155.0" stroke-width="0" transform=" rotate(0, 55, 155)"/>
    <rect fill="limegreen" height="15" opacity="1" stroke-width="0" transform=" rotate(0, 75, 155)" width="15" x="67.5" y="147.5"/>
    <ellipse cx="95.0" cy="155.0" fill="steelblue" opacity="1" rx="7.5" ry="7.5" stroke-width="0" transform=" rotate(0, 95, 155)"/>
    <polygon fill="limegreen" opacity="1" points="115.0,147.5 107.5,155.0 115.0,162.5 122.5,155.0" stroke-width="0" transform=" rotate(0, 115, 155)"/>
    <polygon fill="limegreen" opacity="1" points="135.0,147.5 127.5,155.0 135.0,162.5 142.5,155.0" stroke-width="0" transform=" rotate(0, 135, 155)"/>
    <ellipse cx="155.0" cy="155.0" fill="steelblue" opacity="1" rx="7.5" ry="7.5" stroke-width="0" transform=" rotate(0, 155, 155)"/>
    <rect fill="limegreen" height="15" opacity="1" stroke-width="0" transform=" rotate(0, 175, 155)" width="15" x="167.5" y="147.5"/>
    <polygon fill="steelblue" opacity="1" points="195.0,147.5 187.5,155.0 195.0,162.5 202.5,155.0" stroke-width="0" transform=" rotate(0, 195, 155)"/>
    <ellipse cx="215.0" cy="155.0" fill="limegreen" opacity="1" rx="7.5" ry="7.5" stroke-width="0" transform=" rotate(0, 215, 155)"/>
    <rect fill="steelblue" height="15" opacity="1" stroke-width="0" transform=" rotate(0, 235, 155)" width="15" x="227.5" y="147.5"/>
    <rect fill="steelblue" height="15" opacity="1" stroke-width="0" transform=" rotate(0, 15, 175)" width="15" x="7.5" y="167.5"/>
    <ellipse cx="35.0" cy="175.0" fill="limegreen" opacity="1" rx="7.5" ry="7.5" stroke-width="0" transform=" rotate(0, 35, 175)"/>
    <polygon fill="steelblue" opacity="1" points="55.0,167.5 47.5,175.0 55.0,182.5 62.5,175.0" stroke-width="0" transform=" rotate(0, 55, 175)"/>
    <rect fill="limegreen" height="15" opacity="1" stroke-width="0" transform=" rotate(0, 75, 175)" width="15" x="67.5" y="167.5"/>
    <ellipse cx="95.0" cy="175.0" fill="steelblue" opacity="1" rx="7.5" ry="7.5" stroke-width="0" transform=" rotate(0, 95, 175)"/>
    <polygon fill="limegreen" opacity="1" points="115.0,167.5 107.5,175.0 115.0,182.5 122.5,175.0" stroke-width="0" transform=" rotate(0, 115, 175)"/>
    <polygon fill="limegreen" opacity="1" points="135.0,167.5 127.5,175.0 135.0,182.5 142.5,175.0" stroke-width="0" transform=" rotate(0, 135, 175)"/>
    <ellipse cx="155.0" cy="175.0" fill="steelblue" opacity="1" rx="7.5" ry="7.5" stroke-width="0" transform=" rotate(0, 155, 175)"/>
    <rect fill="limegreen" height="15" opacity="1" stroke-width="0" transform=" rotate(0, 175, 175)" width="15" x="167.5" y="167.5"/>
    <polygon fill="steelblue" opacity="1" points="195.0,167.5 187.5,175.0 195.0,182.5 202.5,175.0" stroke-width="0" transform=" rotate(0, 195, 175)"/>
    <ellipse cx="215.0" cy="175.0" fill="limegreen" opacity="1" rx="7.5" ry="7.5" stroke-width="0" transform=" rotate(0, 215, 175)"/>
    <rect fill="steelblue" height="15" opacity="1" stroke-width="0" transform=" rotate(0, 235, 175)" width="15" x="227.5" y="167.5"/>
    <rect fill="steelblue" height="15" opacity="1" stroke-width="0" transform=" rotate(0, 15, 195)" width="15" x="7.5" y="187.5"/>
    <ellipse cx="35.0" cy="195.0" fill="limegreen" opacity="1" rx="7.5" ry="7.5" stroke-width="0" transform=" rotate(0, 35, 195)"/>
    <polygon fill="steelblue" opacity="1" points="55.0,187.5 47.5,195.0 55.0,202.5 62.5,195.0" stroke-width="0" transform=" rotate(0, 55, 195)"/>
    <rect fill="limegreen" height="15" opacity="1" stroke-width="0" transform=" rotate(0, 75, 195)" width="15" x="67.5" y="187.5"/>
    <ellipse cx="95.0" cy="195.0" fill="steelblue" opacity="1" rx="7.5" ry="7.5" stroke-width="0" transform=" rotate(0, 95, 195)"/>
    <polygon fill="limegreen" opacity="1" points="115.0,187.5 107.5,195.0 115.0,202.5 122.5,195.0" stroke-width="0" transform=" rotate(0, 115, 195)"/>
    <polygon fill="limegreen" opacity="1" points="135.0,187.5 127.5,195.0 135.0,202.5 142.5,195.0" stroke-width="0" transform=" rotate(0, 135, 195)"/>
    <ellipse cx="155.0" cy="195.0" fill="steelblue" opacity="1" rx="7.5" ry="7.5" stroke-width="0" transform=" rotate(0, 155, 195)"/>
    <rect fill="limegreen" height="15" opacity="1" stroke-width="0" transform=" rotate(0, 175, 195)" width="15" x="167.5" y="187.5"/>
    <polygon fill="steelblue" opacity="1" points="195.0,187.5 187.5,195.0 195.0,202.5 202.5,195.0" stroke-width="0" transform=" rotate(0, 195, 195)"/>
    <ellipse cx="215.0" cy="195.0" fill="limegreen" opacity="1" rx="7.5" ry="7.5" stroke-width="0" transform=" rotate(0, 215, 195)"/>
    <rect fill="steelblue" height="15" opacity="1" stroke-width="0" transform=" rotate(0, 235, 195)" width="15" x="227.5" y="187.5"/>
    <rect fill="steelblue" height="15" opacity="1" stroke-width="0" transform=" rotate(0, 15, 215)" width="15" x="7.5" y="207.5"/>
    <ellipse cx="35.0" cy="215.0" fill="limegreen" opacity="1" rx="7.5" ry="7.5" stroke-width="0" transform=" rotate(0, 35, 215)"/>
    <polygon fill="steelblue" opacity="1" points="55.0,207.5 47.5,215.0 55.0,222.5 62.5,215.0" stroke-width="0" transform=" rotate(0, 55, 215)"/>
    <rect fill="limegreen" height="15" opacity="1" stroke-width="0" transform=" rotate(0, 75, 215)" width="15" x="67.5" y="207.5"/>
    <ellipse cx="95.0" cy="215.0" fill="steelblue" opacity="1" rx="7.5" ry="7.5" stroke-width="0" transform=" rotate(0, 95, 215)"/>
    <polygon fill="limegreen" opacity="1" points="115.0,207.5 107.5,215.0 115.0,222.5 122.5,215.0" stroke-width="0" transform=" rotate(0, 115, 215)"/>
    <polygon fill="limegreen" opacity="1" points="135.0,207.5 127.5,215.0 135.0,222.5 142.5,215.0" stroke-width="0" transform=" rotate(0, 135, 215)"/>
    <ellipse cx="155.0" cy="215.0" fill="steelblue" opacity="1" rx="7.5" ry="7.5" stroke-width="0" transform=" rotate(0, 155, 215)"/>
    <rect fill="limegreen" height="15" opacity="1" stroke-width="0" transform=" rotate(0, 175, 215)" width="15" x="167.5" y="207.5"/>
    <polygon fill="steelblue" opacity="1" points="195.0,207.5 187.5,215.0 195.0,222.5 202.5,215.0" stroke-width="0" transform=" rotate(0, 195, 215)"/>
    <ellipse cx="215.0" cy="215.0" fill="limegreen" opacity="1" rx="7.5" ry="7.5" stroke-width="0" transform=" rotate(0, 215, 215)"/>
    <rect fill="steelblue" height="15" opacity="1" stroke-width="0" transform=" rotate(0, 235, 215)" width="15" x="227.5" y="207.5"/>
    <rect fill="steelblue" height="15" opacity="1" stroke-width="0" transform=" rotate(0, 15, 235)" width="15" x="7.5" y="227.5"/>
    <ellipse cx="35.0" cy="235.0" fill="limegreen" opacity="1" rx="7.5" ry="7.5" stroke-width="0" transform=" rotate(0, 35, 235)"/>
    <polygon fill="steelblue" opacity="1" points="55.0,227.5 47.5,235.0 55.0,242.5 62.5,235.0" stroke-width="0" transform=" rotate(0, 55, 235)"/>
    <rect fill="limegreen" height="15" opacity="1" stroke-width="0" transform=" rotate(0, 75, 235)" width="15" x="67.5" y="227.5"/>
    <ellipse cx="95.0" cy="235.0" fill="steelblue" opacity="1" rx="7.5" ry="7.5" stroke-width="0" transform=" rotate(0, 95, 235)"/>
    <polygon fill="limegreen" opacity="1" points="115.0,227.5 107.5,235.0 115.0,242.5 122.5,235.0" stroke-width="0" transform=" rotate(0, 115, 235)"/>
    <polygon fill="limegreen" opacity="1" points="135.0,227.5 127.5,235.0 135.0,242.5 142.5,235.0" stroke-width="0" transform=" rotate(0, 135, 235)"/>
    <ellipse cx="155.0" cy="235.0" fill="steelblue" opacity="1" rx="7.5" ry="7.5" stroke-width="0" transform=" rotate(0, 155, 235)"/>
    <rect fill="limegreen" height="15" opacity="1" stroke-width="0" transform=" rotate(0, 175, 235)" width="15" x="167.5" y="227.5"/>
    <polygon fill="steelblue" opacity="1" points="195.0,227.5 187.5,235.0 195.0,242.5 202.5,235.0" stroke-width="0" transform=" rotate(0, 195, 235)"/>
    <ellipse cx="215.0" cy="235.0" fill="limegreen" opacity="1" rx="7.5" ry="7.5" stroke-width="0" transform=" rotate(0, 215, 235)"/>
    <rect fill="steelblue" height="15" opacity="1" stroke-width="0" transform=" rotate(0, 235, 235)" width="15" x="227.5" y="227.5"/>
  </g>
</svg>
