<?xml version="1.0" encoding="utf-8" ?>
<svg xmlns="http://www.w3.org/2000/svg" xmlns:ev="http://www.w3.org/2001/xml-events" xmlns:xlink="http://www.w3.org/1999/xlink" baseProfile="full" height="250" version="1.1" width="250">
  <defs>
    <linearGradient id="id1797" x1="0" x2="1" y1="0" y2="0">
      <stop offset="0.0" stop-color="darkmagenta"/>
      <stop offset="0.5" stop-color="white"/>
      <stop offset="1.0" stop-color="darkmagenta"/>
    </linearGradient>
    <linearGradient id="id1798" x1="0" x2="1" y1="0" y2="1">
      <stop offset="0.0" stop-color="#1b9fd8"/>
      <stop offset="0.25" stop-color="white"/>
      <stop offset="0.5" stop-color="#6dd6ff"/>
      <stop offset="0.75" stop-color="white"/>
      <stop offset="1.0" stop-color="#006ca1"/>
    </linearGradient>
    <linearGradient id="id1799" x1="0" x2="0" y1="0" y2="1">
      <stop offset="0.0" stop-color="rgb(255,166,51)"/>
      <stop offset="0.5" stop-color="white"/>
      <stop offset="1.0" stop-color="rgb(255,166,51)"/>
    </linearGradient>
    <radialGradient id="id1800">
      <stop offset="0.0" stop-color="white"/>
      <stop offset="1.0" stop-color="#d3d3d3"/>
    </radialGradient>
    <linearGradient id="id1801" x1="0" x2="1" y1="0" y2="0">
      <stop offset="0.0" stop-color="rgb(51,255,51)"/>
      <stop offset="1.0" stop-color="black"/>
    </linearGradient>
    <radialGradient id="id1802">
      <stop offset="0.0" stop-color="white"/>
      <stop offset="1.0" stop-color="rgb(255,87,51)"/>
    </radialGradient>
    <linearGradient id="id1803" x1="0" x2="1" y1="0" y2="0">
      <stop offset="0.0" stop-color="red"/>
      <stop offset="0.2" stop-color="orange"/>
      <stop offset="0.4" stop-color="green"/>
      <stop offset="0.6000000000000001" stop-color="blue"/>
      <stop offset="0.8" stop-color="indigo"/>
      <stop offset="1.0" stop-color="violet"/>
    </linearGradient>
    <linearGradient id="id1804" x1="0" x2="0" y1="0" y2="1">
      <stop offset="0.0" stop-color="green"/>
      <stop offset="0.5" stop-color="white"/>
      <stop offset="1.0" stop-color="green"/>
    </linearGradient>
    <linearGradient id="id1805" x1="0" x2="1" y1="0" y2="1">
      <stop offset="0.0" stop-color="red"/>
      <stop offset="1.0" stop-color="white"/>
    </linearGradient>
    <radialGradient id="id1806">
      <stop offset="0.0" stop-color="white"/>
      <stop offset="0.3333333333333333" stop-color="#1b9fd8"/>
      <stop offset="0.6666666666666666" stop-color="#6dd6ff"/>
      <stop offset="1.0" stop-color="#006ca1"/>
    </radialGradient>
  </defs>
  <g transform=" rotate(0, 125, 125)">
    <rect fill="none" height="250" width="250" x="0" y="0"/>
    <ellipse cx="35.0" cy="35.0" fill="none" opacity="1" rx="15.0" ry="15.0" stroke="darkturquoise" stroke-width="5" transform=" rotate(0, 35, 35)"/>
    <polygon fill="none" opacity="1" points="65.0,50.0 80.0,20.0 95.0,50.0" stroke="steelblue" stroke-width="5" transform=" rotate(0, 80, 35)"/>
    <rect fill="none" height="30" opacity="1" stroke="violet" stroke-width="5" transform=" rotate(0, 125, 35)" width="30" x="110.0" y="20.0"/>
    <polygon fill="none" opacity="1" points="170.0,20.73415225557262 155.0,31.63229017565303 160.72949016875157,49.26584774442723 179.27050983124843,49.26584774442723 185.0,31.632290175653036" stroke="sandybrown" stroke-width="5" transform=" rotate(0, 170, 35)"/>
    <polygon fill="none" opacity="1" points="215.0,20.0 204.3933982822018,24.393398282201787 200.0,35.0 204.3933982822018,45.60660171779821 215.0,50.0 225.6066017177982,45.60660171779821 230.0,35.00000000000001 225.6066017177982,24.3933982822018" stroke="darkmagenta" stroke-width="5" transform=" rotate(0, 215, 35)"/>
    <ellipse cx="35.0" cy="80.0" fill="none" opacity="1" rx="15.0" ry="15.0" stroke="url(#id1797) none" stroke-width="5" transform=" rotate(0, 35, 80)"/>
    <polygon fill="none" opacity="1" points="65.0,95.0 80.0,65.0 95.0,95.0" stroke="url(#id1798) none" stroke-width="5" transform=" rotate(0, 80, 80)"/>
    <rect fill="none" height="30" opacity="1" stroke="url(#id1799) none" stroke-width="5" transform=" rotate(0, 125, 80)" width="30" x="110.0" y="65.0"/>
    <polygon fill="none" opacity="1" points="170.0,65.73415225557284 155.0,76.63229017565325 160.72949016875157,94.26584774442745 179.27050983124843,94.26584774442745 185.0,76.63229017565327" stroke="url(#id1800) none" stroke-width="5" transform=" rotate(0, 170, 80)"/>
    <polygon fill="none" opacity="1" points="215.0,65.0 204.3933982822018,69.39339828220179 200.0,80.0 204.3933982822018,90.60660171779821 215.0,95.0 225.6066017177982,90.60660171779821 230.0,80.0 225.6066017177982,69.3933982822018" stroke="url(#id1801) none" stroke-width="5" transform=" rotate(0, 215, 80)"/>
    <ellipse cx="35.0" cy="125.0" fill="none" opacity="1" rx="15.0" ry="15.0" stroke="orange" stroke-width="5" transform=" rotate(0, 35, 125)">
      <set attributeName="stroke" begin="click" dur="2s" to="purple"/>
    </ellipse>
    <polygon fill="none" opacity="1" points="65.0,140.0 80.0,110.0 95.0,140.0" stroke="rgb(255,87,51)" stroke-width="5" transform=" rotate(0, 80, 125)">
      <set attributeName="stroke" begin="click" dur="2s" to="#6dd6ff"/>
    </polygon>
    <rect fill="none" height="30" opacity="1" stroke="rgb(255,51,237)" stroke-width="5" transform=" rotate(0, 125, 125)" width="30" x="110.0" y="110.0">
      <animate attributeName="stroke" begin="2s" calcMode="linear" dur="10s" repeatCount="indefinite" values="red;orange;green;blue;indigo;violet;red"/>
    </rect>
    <polygon fill="none" opacity="1" points="170.0,110.73415225557284 155.0,121.63229017565325 160.72949016875157,139.26584774442745 179.27050983124843,139.26584774442745 185.0,121.63229017565327" stroke="#1b9fd8" stroke-width="5" transform=" rotate(0, 170, 125)">
      <animate attributeName="stroke" begin="2s" calcMode="discrete" dur="10s" repeatCount="indefinite" values="red;orange;green;blue;indigo;violet;red"/>
    </polygon>
    <polygon fill="none" opacity="1" points="215.0,110.0 204.3933982822018,114.39339828220179 200.0,125.0 204.3933982822018,135.6066017177982 215.0,140.0 225.6066017177982,135.6066017177982 230.0,125.0 225.6066017177982,114.3933982822018" stroke="darkturquoise" stroke-width="5" transform=" rotate(0, 215, 125)">
      <animate attributeName="stroke" begin="2s" calcMode="discrete" dur="10s" repeatCount="indefinite" values="rgb(255,51,237);#6dd6ff"/>
    </polygon>
    <ellipse cx="35.0" cy="170.0" fill="none" opacity="1" rx="15.0" ry="15.0" stroke="url(#id1802) none" stroke-width="5" transform=" rotate(0, 35, 170)"/>
    <polygon fill="none" opacity="1" points="65.0,185.0 80.0,155.0 95.0,185.0" stroke="url(#id1803) none" stroke-width="5" transform=" rotate(0, 80, 170)"/>
    <rect fill="none" height="30" opacity="1" stroke="url(#id1804) none" stroke-width="5" transform=" rotate(0, 125, 170)" width="30" x="110.0" y="155.0"/>
    <polygon fill="none" opacity="1" points="170.0,155.73415225557284 155.0,166.63229017565325 160.72949016875157,184.26584774442745 179.27050983124843,184.26584774442745 185.0,166.63229017565325" stroke="url(#id1805) none" stroke-width="5" transform=" rotate(0, 170, 170)"/>
    <polygon fill="none" opacity="1" points="215.0,155.0 204.3933982822018,159.3933982822018 200.0,170.0 204.3933982822018,180.6066017177982 215.0,185.0 225.6066017177982,180.6066017177982 230.0,170.0 225.6066017177982,159.3933982822018" stroke="url(#id1806) none" stroke-width="5" transform=" rotate(0, 215, 170)"/>
    <ellipse cx="35.0" cy="215.0" fill="none" opacity="1" rx="15.0" ry="15.0" stroke="rgb(255,51,237)" stroke-width="5" transform=" rotate(0, 35, 215)"/>
    <polygon fill="none" opacity="1" points="65.0,230.0 80.0,200.0 95.0,230.0" stroke="#1b9fd8" stroke-width="5" transform=" rotate(0, 80, 215)"/>
    <rect fill="none" height="30" opacity="1" stroke="#6dd6ff" stroke-width="5" transform=" rotate(0, 125, 215)" width="30" x="110.0" y="200.0"/>
    <polygon fill="none" opacity="1" points="170.0,200.73415225557284 155.0,211.63229017565325 160.72949016875157,229.26584774442745 179.27050983124843,229.26584774442745 185.0,211.63229017565325" stroke="rgb(255,87,51)" stroke-width="5" transform=" rotate(0, 170, 215)"/>
    <polygon fill="none" opacity="1" points="215.0,200.0 204.3933982822018,204.3933982822018 200.0,215.0 204.3933982822018,225.6066017177982 215.0,230.0 225.6066017177982,225.6066017177982 230.0,215.0 225.6066017177982,204.3933982822018" stroke="rgb(255,166,51)" stroke-width="5" transform=" rotate(0, 215, 215)"/>
  </g>
</svg>
