<?xml version="1.0" encoding="utf-8" ?>
<svg xmlns="http://www.w3.org/2000/svg" xmlns:ev="http://www.w3.org/2001/xml-events" xmlns:xlink="http://www.w3.org/1999/xlink" baseProfile="full" height="250" version="1.1" width="250">
  <defs/>
  <g transform=" rotate(0, 125, 125)">
    <rect fill="white" height="250" width="250" x="0" y="0"/>
    <polygon fill="dodgerblue" opacity="1" points="25.000000000000004,2.5 9.090097423302682,9.090097423302677 2.5,24.999999999999996 9.090097423302677,40.90990257669731 24.999999999999993,47.5 40.90990257669731,40.90990257669732 47.5,25.000000000000007 40.909902576697334,9.0900974233027" stroke-width="0" transform=" rotate(0, 25, 25)"/>
    <polygon fill="dodgerblue" opacity="1" points="75.0,2.5 59.09009742330268,9.090097423302677 52.5,24.999999999999996 59.09009742330268,40.90990257669731 75.0,47.5 90.90990257669732,40.90990257669732 97.5,25.000000000000007 90.90990257669733,9.0900974233027" stroke-width="0" transform=" rotate(0, 75, 25)"/>
    <polygon fill="dodgerblue" opacity="1" points="125.0,2.5 109.09009742330268,9.090097423302677 102.5,24.999999999999996 109.09009742330268,40.90990257669731 125.0,47.5 140.9099025766973,40.90990257669732 147.5,25.000000000000007 140.90990257669733,9.0900974233027" stroke-width="0" transform=" rotate(0, 125, 25)"/>
    <polygon fill="dodgerblue" opacity="1" points="175.0,2.5 159.0900974233027,9.090097423302677 152.5,24.999999999999996 159.09009742330267,40.90990257669731 175.0,47.5 190.9099025766973,40.90990257669732 197.5,25.000000000000007 190.90990257669733,9.0900974233027" stroke-width="0" transform=" rotate(0, 175, 25)"/>
    <polygon fill="dodgerblue" opacity="1" points="225.0,2.5 209.0900974233027,9.090097423302677 202.5,24.999999999999996 209.09009742330267,40.90990257669731 225.0,47.5 240.9099025766973,40.90990257669732 247.5,25.000000000000007 240.90990257669733,9.0900974233027" stroke-width="0" transform=" rotate(0, 225, 25)"/>
    <polygon fill="dodgerblue" opacity="1" points="25.000000000000004,52.5 9.090097423302682,59.09009742330268 2.5,75.0 9.090097423302677,90.90990257669732 24.999999999999993,97.5 40.90990257669731,90.90990257669732 47.5,75.0 40.909902576697334,59.0900974233027" stroke-width="0" transform=" rotate(0, 25, 75)"/>
    <polygon fill="dodgerblue" opacity="1" points="75.0,52.5 59.09009742330268,59.09009742330268 52.5,75.0 59.09009742330268,90.90990257669732 75.0,97.5 90.90990257669732,90.90990257669732 97.5,75.0 90.90990257669733,59.0900974233027" stroke-width="0" transform=" rotate(0, 75, 75)"/>
    <polygon fill="dodgerblue" opacity="1" points="125.0,52.5 109.09009742330268,59.09009742330268 102.5,75.0 109.09009742330268,90.90990257669732 125.0,97.5 140.9099025766973,90.90990257669732 147.5,75.0 140.90990257669733,59.0900974233027" stroke-width="0" transform=" rotate(0, 125, 75)"/>
    <polygon fill="dodgerblue" opacity="1" points="175.0,52.5 159.0900974233027,59.09009742330268 152.5,75.0 159.09009742330267,90.90990257669732 175.0,97.5 190.9099025766973,90.90990257669732 197.5,75.0 190.90990257669733,59.0900974233027" stroke-width="0" transform=" rotate(0, 175, 75)"/>
    <polygon fill="dodgerblue" opacity="1" points="225.0,52.5 209.0900974233027,59.09009742330268 202.5,75.0 209.09009742330267,90.90990257669732 225.0,97.5 240.9099025766973,90.90990257669732 247.5,75.0 240.90990257669733,59.0900974233027" stroke-width="0" transform=" rotate(0, 225, 75)"/>
    <polygon fill="dodgerblue" opacity="1" points="25.000000000000004,102.5 9.090097423302682,109.09009742330268 2.5,125.0 9.090097423302677,140.9099025766973 24.999999999999993,147.5 40.90990257669731,140.90990257669733 47.5,125.0 40.909902576697334,109.0900974233027" stroke-width="0" transform=" rotate(0, 25, 125)"/>
    <polygon fill="dodgerblue" opacity="1" points="75.0,102.5 59.09009742330268,109.09009742330268 52.5,125.0 59.09009742330268,140.9099025766973 75.0,147.5 90.90990257669732,140.90990257669733 97.5,125.0 90.90990257669733,109.0900974233027" stroke-width="0" transform=" rotate(0, 75, 125)"/>
    <polygon fill="dodgerblue" opacity="1" points="125.0,102.5 109.09009742330268,109.09009742330268 102.5,125.0 109.09009742330268,140.9099025766973 125.0,147.5 140.9099025766973,140.90990257669733 147.5,125.0 140.90990257669733,109.0900974233027" stroke-width="0" transform=" rotate(0, 125, 125)"/>
    <polygon fill="dodgerblue" opacity="1" points="175.0,102.5 159.0900974233027,109.09009742330268 152.5,125.0 159.09009742330267,140.9099025766973 175.0,147.5 190.9099025766973,140.90990257669733 197.5,125.0 190.90990257669733,109.0900974233027" stroke-width="0" transform=" rotate(0, 175, 125)"/>
    <polygon fill="dodgerblue" opacity="1" points="225.0,102.5 209.0900974233027,109.09009742330268 202.5,125.0 209.09009742330267,140.9099025766973 225.0,147.5 240.9099025766973,140.90990257669733 247.5,125.0 240.90990257669733,109.0900974233027" stroke-width="0" transform=" rotate(0, 225, 125)"/>
    <polygon fill="dodgerblue" opacity="1" points="25.000000000000004,152.5 9.090097423302682,159.09009742330267 2.5,175.0 9.090097423302677,190.9099025766973 24.999999999999993,197.5 40.90990257669731,190.90990257669733 47.5,175.0 40.909902576697334,159.0900974233027" stroke-width="0" transform=" rotate(0, 25, 175)"/>
    <polygon fill="dodgerblue" opacity="1" points="75.0,152.5 59.09009742330268,159.09009742330267 52.5,175.0 59.09009742330268,190.9099025766973 75.0,197.5 90.90990257669732,190.90990257669733 97.5,175.0 90.90990257669733,159.0900974233027" stroke-width="0" transform=" rotate(0, 75, 175)"/>
    <polygon fill="dodgerblue" opacity="1" points="125.0,152.5 109.09009742330268,159.09009742330267 102.5,175.0 109.09009742330268,190.9099025766973 125.0,197.5 140.9099025766973,190.90990257669733 147.5,175.0 140.90990257669733,159.0900974233027" stroke-width="0" transform=" rotate(0, 125, 175)"/>
    <polygon fill="dodgerblue" opacity="1" points="175.0,152.5 159.0900974233027,159.09009742330267 152.5,175.0 159.09009742330267,190.9099025766973 175.0,197.5 190.9099025766973,190.90990257669733 197.5,175.0 190.90990257669733,159.0900974233027" stroke-width="0" transform=" rotate(0, 175, 175)"/>
    <polygon fill="dodgerblue" opacity="1" points="225.0,152.5 209.0900974233027,159.09009742330267 202.5,175.0 209.09009742330267,190.9099025766973 225.0,197.5 240.9099025766973,190.90990257669733 247.5,175.0 240.90990257669733,159.0900974233027" stroke-width="0" transform=" rotate(0, 225, 175)"/>
    <polygon fill="dodgerblue" opacity="1" points="25.000000000000004,202.5 9.090097423302682,209.09009742330267 2.5,225.0 9.090097423302677,240.9099025766973 24.999999999999993,247.5 40.90990257669731,240.90990257669733 47.5,225.0 40.909902576697334,209.0900974233027" stroke-width="0" transform=" rotate(0, 25, 225)"/>
    <polygon fill="dodgerblue" opacity="1" points="75.0,202.5 59.09009742330268,209.09009742330267 52.5,225.0 59.09009742330268,240.9099025766973 75.0,247.5 90.90990257669732,240.90990257669733 97.5,225.0 90.90990257669733,209.0900974233027" stroke-width="0" transform=" rotate(0, 75, 225)"/>
    <polygon fill="dodgerblue" opacity="1" points="125.0,202.5 109.09009742330268,209.09009742330267 102.5,225.0 109.09009742330268,240.9099025766973 125.0,247.5 140.9099025766973,240.90990257669733 147.5,225.0 140.90990257669733,209.0900974233027" stroke-width="0" transform=" rotate(0, 125, 225)"/>
    <polygon fill="dodgerblue" opacity="1" points="175.0,202.5 159.0900974233027,209.09009742330267 152.5,225.0 159.09009742330267,240.9099025766973 175.0,247.5 190.9099025766973,240.90990257669733 197.5,225.0 190.90990257669733,209.0900974233027" stroke-width="0" transform=" rotate(0, 175, 225)"/>
    <polygon fill="dodgerblue" opacity="1" points="225.0,202.5 209.0900974233027,209.09009742330267 202.5,225.0 209.09009742330267,240.9099025766973 225.0,247.5 240.9099025766973,240.90990257669733 247.5,225.0 240.90990257669733,209.0900974233027" stroke-width="0" transform=" rotate(0, 225, 225)"/>
  </g>
</svg>
