<?xml version="1.0" encoding="utf-8" ?>
<svg xmlns="http://www.w3.org/2000/svg" xmlns:ev="http://www.w3.org/2001/xml-events" xmlns:xlink="http://www.w3.org/1999/xlink" baseProfile="full" height="250" version="1.1" width="250">
  <defs/>
  <g transform=" rotate(0, 125, 125)">
    <rect fill="white" height="250" width="250" x="0" y="0"/>
    <rect fill="#4682b4" height="14.110594014299188" opacity="1" stroke-width="0" transform=" rotate(0, 24, 24)" width="19.699442281069487" x="14.170636772311124" y="16.9650609056963"/>
    <rect fill="#4682b4" height="12.912537495376263" opacity="1" stroke-width="0" transform=" rotate(0, 49, 32)" width="13.500540044695914" x="42.27008789049791" y="26.38086794954486"/>
    <rect fill="#4682b4" height="12.876946324955828" opacity="1" stroke-width="0" transform=" rotate(0, 74, 38)" width="12.777674746917638" x="67.63152053938705" y="31.847732494795288"/>
    <rect fill="#4682b4" height="16.14722779628932" opacity="1" stroke-width="0" transform=" rotate(0, 99, 38)" width="10.453433693230242" x="93.79364106623075" y="30.21259175912854"/>
    <rect fill="#4682b4" height="13.892311002599904" opacity="1" stroke-width="0" transform=" rotate(0, 124, 32)" width="16.62344912619107" x="115.70863334975033" y="25.89098119593304"/>
    <rect fill="#4682b4" height="13.284553677100295" opacity="1" stroke-width="0" transform=" rotate(0, 149, 24)" width="10.751943762778689" x="143.64438603145652" y="17.37808107429575"/>
    <rect fill="#4682b4" height="14.578034696525883" opacity="1" stroke-width="0" transform=" rotate(0, 174, 15)" width="10.714049897419597" x="168.66333296413606" y="7.914561780195859"/>
    <rect fill="#4682b4" height="19.67455247828524" opacity="1" stroke-width="0" transform=" rotate(0, 199, 9)" width="14.131476563459747" x="191.954619631116" y="-0.08276607072402697"/>
    <rect fill="#4682b4" height="13.075413058938835" opacity="1" stroke-width="0" transform=" rotate(0, 224, 9)" width="17.236000618632495" x="215.40235760352962" y="3.216803638949173"/>
    <rect fill="#4682b4" height="11.271178812874272" opacity="1" stroke-width="0" transform=" rotate(0, 32, 49)" width="13.836932779415013" x="25.918670307525456" y="43.38476850640876"/>
    <rect fill="#41afba" height="18.723699682836312" opacity="1" stroke-width="0" transform=" rotate(0, 57, 57)" width="17.870464497042708" x="48.90190444871161" y="48.475286855814836"/>
    <rect fill="#41afba" height="18.05042297364362" opacity="1" stroke-width="0" transform=" rotate(0, 82, 63)" width="18.06226044375009" x="73.80600647535792" y="54.26099417045139"/>
    <rect fill="#41afba" height="19.553481551640836" opacity="1" stroke-width="0" transform=" rotate(0, 107, 63)" width="10.265871467443658" x="102.70420096351114" y="53.509464881452786"/>
    <rect fill="#41afba" height="10.086391701692598" opacity="1" stroke-width="0" transform=" rotate(0, 132, 57)" width="19.399796673943815" x="123.13723836026104" y="52.79394084638669"/>
    <rect fill="#41afba" height="17.027407812391004" opacity="1" stroke-width="0" transform=" rotate(0, 157, 49)" width="10.517871660027017" x="152.57820086721946" y="40.50665400665039"/>
    <rect fill="#41afba" height="15.537893388590085" opacity="1" stroke-width="0" transform=" rotate(0, 182, 40)" width="11.783396112735133" x="176.9454386408654" y="32.43463243416376"/>
    <rect fill="#41afba" height="10.322555512895253" opacity="1" stroke-width="0" transform=" rotate(0, 207, 34)" width="19.853350767799895" x="197.91046131333303" y="29.593232411970966"/>
    <rect fill="#4682b4" height="17.445690251520467" opacity="1" stroke-width="0" transform=" rotate(0, 232, 34)" width="18.287347817008566" x="223.6934627887287" y="26.031665042658357"/>
    <rect fill="#4682b4" height="10.436237866624225" opacity="1" stroke-width="0" transform=" rotate(0, 38, 74)" width="14.604710376789747" x="30.9838504688783" y="68.80223897953378"/>
    <rect fill="#41afba" height="14.605510668560568" opacity="1" stroke-width="0" transform=" rotate(0, 63, 82)" width="18.452692631946377" x="54.05985934129998" y="75.53438136295271"/>
    <rect fill="#3cc09c" height="18.183029987989116" opacity="1" stroke-width="0" transform=" rotate(0, 88, 88)" width="19.984909354565815" x="78.29375097999026" y="79.19469066327864"/>
    <rect fill="#3cc09c" height="10.00593481093492" opacity="1" stroke-width="0" transform=" rotate(0, 113, 88)" width="13.919306836067921" x="106.3265522392392" y="83.28323825180574"/>
    <rect fill="#3cc09c" height="15.096941264884904" opacity="1" stroke-width="0" transform=" rotate(0, 138, 82)" width="11.93864569180046" x="132.31688281137295" y="75.28866606479053"/>
    <rect fill="#3cc09c" height="10.13290310273115" opacity="1" stroke-width="0" transform=" rotate(0, 163, 74)" width="11.670868834541373" x="157.4507712400025" y="68.95390636148032"/>
    <rect fill="#3cc09c" height="18.558099554039437" opacity="1" stroke-width="0" transform=" rotate(0, 188, 65)" width="15.576366518112792" x="180.4980223982168" y="55.92452935143908"/>
    <rect fill="#41afba" height="17.127115975139983" opacity="1" stroke-width="0" transform=" rotate(0, 213, 59)" width="18.324673451188595" x="204.12386893167889" y="51.1909521808486"/>
    <rect fill="#4682b4" height="13.393669543187427" opacity="1" stroke-width="0" transform=" rotate(0, 238, 59)" width="12.336539142608114" x="232.11793608596912" y="53.05767539682488"/>
    <rect fill="#4682b4" height="12.547326618716916" opacity="1" stroke-width="0" transform=" rotate(0, 38, 99)" width="10.236343422455262" x="33.16803394604554" y="92.74669460348744"/>
    <rect fill="#41afba" height="13.554232827106528" opacity="1" stroke-width="0" transform=" rotate(0, 63, 107)" width="11.948356990273087" x="57.31202716213663" y="101.06002028367973"/>
    <rect fill="#3cc09c" height="19.07056615548565" opacity="1" stroke-width="0" transform=" rotate(0, 88, 113)" width="12.058929130606785" x="82.25674109196979" y="103.75092257953037"/>
    <rect fill="#37c76b" height="13.553133245345055" opacity="1" stroke-width="0" transform=" rotate(0, 113, 113)" width="12.221611230381017" x="107.17540004208266" y="106.50963903460067"/>
    <rect fill="#37c76b" height="10.853129865577976" opacity="1" stroke-width="0" transform=" rotate(0, 138, 107)" width="15.626593342365487" x="130.47290898609043" y="102.410571764444"/>
    <rect fill="#37c76b" height="17.05700652880001" opacity="1" stroke-width="0" transform=" rotate(0, 163, 99)" width="17.142201294858886" x="154.71510500984374" y="90.4918546484459"/>
    <rect fill="#3cc09c" height="14.1129192627312" opacity="1" stroke-width="0" transform=" rotate(0, 188, 90)" width="17.148763538913677" x="179.71182388781634" y="83.1471194970932"/>
    <rect fill="#41afba" height="18.738594131777738" opacity="1" stroke-width="0" transform=" rotate(0, 213, 84)" width="13.941996871489318" x="206.3152072215285" y="75.38521310252972"/>
    <rect fill="#4682b4" height="11.363776511810268" opacity="1" stroke-width="0" transform=" rotate(0, 238, 84)" width="11.93041248344364" x="232.32099941555134" y="79.07262191251345"/>
    <rect fill="#4682b4" height="11.989285809694099" opacity="1" stroke-width="0" transform=" rotate(0, 32, 124)" width="12.30775115772829" x="26.68326111836882" y="118.02571500799884"/>
    <rect fill="#41afba" height="12.103630100584404" opacity="1" stroke-width="0" transform=" rotate(0, 57, 132)" width="16.282500836748255" x="49.695886278858836" y="126.7853216469408"/>
    <rect fill="#3cc09c" height="13.339900282692795" opacity="1" stroke-width="0" transform=" rotate(0, 82, 138)" width="14.043060336926537" x="75.81560652876969" y="131.6162555159268"/>
    <rect fill="#37c76b" height="10.876029636187425" opacity="1" stroke-width="0" transform=" rotate(0, 107, 138)" width="18.14531227375579" x="98.76448056035507" y="132.8481908391795"/>
    <rect fill="#32cd32" height="17.405723222848106" opacity="1" stroke-width="0" transform=" rotate(0, 132, 132)" width="13.389490791393378" x="126.14239130153626" y="124.13427508580895"/>
    <rect fill="#37c76b" height="16.55457325401254" opacity="1" stroke-width="0" transform=" rotate(0, 157, 124)" width="14.618043431461626" x="150.52811498150217" y="115.74307128583962"/>
    <rect fill="#3cc09c" height="15.261671543305276" opacity="1" stroke-width="0" transform=" rotate(0, 182, 115)" width="10.602775710631036" x="177.53574884191747" y="107.57274335680616"/>
    <rect fill="#41afba" height="16.176534756328618" opacity="1" stroke-width="0" transform=" rotate(0, 207, 109)" width="19.090869234054047" x="198.29170208020597" y="101.66624279025429"/>
    <rect fill="#4682b4" height="10.963151528651855" opacity="1" stroke-width="0" transform=" rotate(0, 232, 109)" width="18.816857657644746" x="223.4287078684106" y="104.27293440409267"/>
    <rect fill="#4682b4" height="18.664715442315025" opacity="1" stroke-width="0" transform=" rotate(0, 24, 149)" width="18.45969699105172" x="14.79050941732001" y="139.6880001916884"/>
    <rect fill="#41afba" height="19.520067714213006" opacity="1" stroke-width="0" transform=" rotate(0, 49, 157)" width="12.935526118929838" x="42.552594853380945" y="148.0771028401265"/>
    <rect fill="#3cc09c" height="13.00468861313086" opacity="1" stroke-width="0" transform=" rotate(0, 74, 163)" width="16.864870120252796" x="65.58792285271947" y="156.78386135070778"/>
    <rect fill="#37c76b" height="10.38705010695728" opacity="1" stroke-width="0" transform=" rotate(0, 99, 163)" width="10.679006261142465" x="93.68085478227464" y="158.09268060379455"/>
    <rect fill="#37c76b" height="17.779095943898227" opacity="1" stroke-width="0" transform=" rotate(0, 124, 157)" width="12.939958944047229" x="117.55037844082226" y="148.94758872528388"/>
    <rect fill="#37c76b" height="16.43818109533406" opacity="1" stroke-width="0" transform=" rotate(0, 149, 149)" width="17.338306810913693" x="140.351204507389" y="140.80126736517886"/>
    <rect fill="#3cc09c" height="13.423692182062501" opacity="1" stroke-width="0" transform=" rotate(0, 174, 140)" width="16.409223280801328" x="165.8157462724452" y="133.49173303742754"/>
    <rect fill="#41afba" height="10.928840493865568" opacity="1" stroke-width="0" transform=" rotate(0, 199, 134)" width="11.546206340890091" x="193.24725474240083" y="129.29008992148582"/>
    <rect fill="#4682b4" height="16.672196358197425" opacity="1" stroke-width="0" transform=" rotate(0, 224, 134)" width="10.224692082041303" x="218.9080118718252" y="126.41841198931988"/>
    <rect fill="#4682b4" height="10.880654672737158" opacity="1" stroke-width="0" transform=" rotate(0, 15, 174)" width="14.375941735284965" x="8.01560826081629" y="168.58003057647733"/>
    <rect fill="#41afba" height="17.999993378532462" opacity="1" stroke-width="0" transform=" rotate(0, 40, 182)" width="17.40855197362496" x="31.49930314164629" y="173.83714000796678"/>
    <rect fill="#3cc09c" height="14.362109070828154" opacity="1" stroke-width="0" transform=" rotate(0, 65, 188)" width="19.15299637822749" x="55.62708093934503" y="181.10515112185914"/>
    <rect fill="#3cc09c" height="10.178177280770154" opacity="1" stroke-width="0" transform=" rotate(0, 90, 188)" width="11.769751778033319" x="84.31870323944212" y="183.19711701688811"/>
    <rect fill="#3cc09c" height="17.068562039020392" opacity="1" stroke-width="0" transform=" rotate(0, 115, 182)" width="15.815435167838132" x="107.2958615445397" y="174.30285567772282"/>
    <rect fill="#3cc09c" height="13.801269712424816" opacity="1" stroke-width="0" transform=" rotate(0, 140, 174)" width="13.855144154211434" x="133.27600705135308" y="167.1197230566335"/>
    <rect fill="#3cc09c" height="11.821738166343998" opacity="1" stroke-width="0" transform=" rotate(0, 165, 165)" width="15.727461888343978" x="157.3398481842868" y="159.2927100452868"/>
    <rect fill="#41afba" height="16.142506491606483" opacity="1" stroke-width="0" transform=" rotate(0, 190, 159)" width="17.309652662569874" x="181.54875279717385" y="151.68325692261536"/>
    <rect fill="#4682b4" height="12.248431522439951" opacity="1" stroke-width="0" transform=" rotate(0, 215, 159)" width="18.932467093490075" x="205.73734558171375" y="153.63029440719862"/>
    <rect fill="#4682b4" height="15.764665384786168" opacity="1" stroke-width="0" transform=" rotate(0, 9, 199)" width="19.449994465524913" x="0.029512935656107686" y="191.13802522045282"/>
    <rect fill="#41afba" height="13.137766250401189" opacity="1" stroke-width="0" transform=" rotate(0, 34, 207)" width="12.500864316352931" x="28.504078010242097" y="201.26825357203242"/>
    <rect fill="#41afba" height="15.275911335802816" opacity="1" stroke-width="0" transform=" rotate(0, 59, 213)" width="14.791166866437194" x="52.358926735199965" y="205.6482499893718"/>
    <rect fill="#41afba" height="12.97573198652212" opacity="1" stroke-width="0" transform=" rotate(0, 84, 213)" width="18.373993100926896" x="75.56751361795511" y="206.79833966401213"/>
    <rect fill="#41afba" height="19.125730904045817" opacity="1" stroke-width="0" transform=" rotate(0, 109, 207)" width="10.552154184176576" x="104.47843307633028" y="198.2742712452101"/>
    <rect fill="#41afba" height="14.535210344167231" opacity="1" stroke-width="0" transform=" rotate(0, 134, 199)" width="12.405666225319258" x="128.55167705575894" y="191.75275274076228"/>
    <rect fill="#41afba" height="19.169096683205737" opacity="1" stroke-width="0" transform=" rotate(0, 159, 190)" width="11.004228267426672" x="154.2523960347052" y="180.61903078685594"/>
    <rect fill="#41afba" height="17.053886727892333" opacity="1" stroke-width="0" transform=" rotate(0, 184, 184)" width="17.896996330396977" x="175.80601200322008" y="176.22756680447242"/>
    <rect fill="#4682b4" height="17.409344428243706" opacity="1" stroke-width="0" transform=" rotate(0, 209, 184)" width="12.097463348554701" x="203.7057784941412" y="176.04983795429675"/>
    <rect fill="#4682b4" height="15.895300578588024" opacity="1" stroke-width="0" transform=" rotate(0, 9, 224)" width="17.27909964853958" x="1.1149603441487717" y="216.07270762355188"/>
    <rect fill="#4682b4" height="19.085785623573077" opacity="1" stroke-width="0" transform=" rotate(0, 34, 232)" width="13.346998391783712" x="28.081010972526705" y="223.29424388544646"/>
    <rect fill="#4682b4" height="15.086569242830716" opacity="1" stroke-width="0" transform=" rotate(0, 59, 238)" width="15.491528684479228" x="52.00874582617895" y="230.74292103585785"/>
    <rect fill="#4682b4" height="11.180730798758148" opacity="1" stroke-width="0" transform=" rotate(0, 84, 238)" width="18.34252755166415" x="75.58324639258649" y="232.69584025789413"/>
    <rect fill="#4682b4" height="17.776110459708107" opacity="1" stroke-width="0" transform=" rotate(0, 109, 232)" width="16.386699576166382" x="101.56116038033537" y="223.94908146737896"/>
    <rect fill="#4682b4" height="10.861479080433568" opacity="1" stroke-width="0" transform=" rotate(0, 134, 224)" width="13.758138348433082" x="127.87544099420202" y="218.5896183726291"/>
    <rect fill="#4682b4" height="14.173787225034383" opacity="1" stroke-width="0" transform=" rotate(0, 159, 215)" width="19.573672511504608" x="149.96767391266627" y="208.1166855159416"/>
    <rect fill="#4682b4" height="16.938698805478154" opacity="1" stroke-width="0" transform=" rotate(0, 184, 209)" width="14.265681870616316" x="177.6216692331104" y="201.2851607656795"/>
    <rect fill="#4682b4" height="14.344729746345802" opacity="1" stroke-width="0" transform=" rotate(0, 209, 209)" width="18.278809497484286" x="200.6151054196764" y="202.58214529524568"/>
  </g>
</svg>
