<?xml version="1.0" encoding="utf-8" ?>
<svg xmlns="http://www.w3.org/2000/svg" xmlns:ev="http://www.w3.org/2001/xml-events" xmlns:xlink="http://www.w3.org/1999/xlink" baseProfile="full" height="250" version="1.1" width="250">
  <defs/>
  <g transform=" rotate(0, 125, 125)">
    <rect fill="white" height="250" width="250" x="0" y="0"/>
    <ellipse cx="37.5" cy="29.61029784792047" fill="#6dd6ff" opacity="1" rx="12.5" ry="12.5" stroke-width="0" transform=" rotate(0, 37, 29)"/>
    <ellipse cx="72.5" cy="43.36467452036711" fill="#6dd6ff" opacity="1" rx="12.5" ry="12.5" stroke-width="0" transform=" rotate(0, 72, 43)"/>
    <ellipse cx="107.5" cy="30.386754319780206" fill="#1b9fd8" opacity="1" rx="12.5" ry="12.5" stroke-width="0" transform=" rotate(0, 107, 30)"/>
    <ellipse cx="142.5" cy="30.698529396579257" fill="#1b9fd8" opacity="1" rx="12.5" ry="12.5" stroke-width="0" transform=" rotate(0, 142, 30)"/>
    <ellipse cx="177.5" cy="33.27904937284204" fill="#006ca1" opacity="1" rx="12.5" ry="12.5" stroke-width="0" transform=" rotate(0, 177, 33)"/>
    <ellipse cx="212.5" cy="43.61375287062562" fill="#006ca1" opacity="1" rx="12.5" ry="12.5" stroke-width="0" transform=" rotate(0, 212, 43)"/>
    <ellipse cx="37.5" cy="70.99599454450157" fill="#6dd6ff" opacity="1" rx="12.5" ry="12.5" stroke-width="0" transform=" rotate(0, 37, 70)"/>
    <ellipse cx="72.5" cy="79.15621881933626" fill="#6dd6ff" opacity="1" rx="12.5" ry="12.5" stroke-width="0" transform=" rotate(0, 72, 79)"/>
    <ellipse cx="107.5" cy="68.80642193096529" fill="#1b9fd8" opacity="1" rx="12.5" ry="12.5" stroke-width="0" transform=" rotate(0, 107, 68)"/>
    <ellipse cx="142.5" cy="73.26398895292965" fill="#1b9fd8" opacity="1" rx="12.5" ry="12.5" stroke-width="0" transform=" rotate(0, 142, 73)"/>
    <ellipse cx="177.5" cy="69.43290683066398" fill="#006ca1" opacity="1" rx="12.5" ry="12.5" stroke-width="0" transform=" rotate(0, 177, 69)"/>
    <ellipse cx="212.5" cy="66.34063445567607" fill="#006ca1" opacity="1" rx="12.5" ry="12.5" stroke-width="0" transform=" rotate(0, 212, 66)"/>
    <ellipse cx="37.5" cy="113.27822425941764" fill="#6dd6ff" opacity="1" rx="12.5" ry="12.5" stroke-width="0" transform=" rotate(0, 37, 113)"/>
    <ellipse cx="72.5" cy="102.04831368434499" fill="#6dd6ff" opacity="1" rx="12.5" ry="12.5" stroke-width="0" transform=" rotate(0, 72, 102)"/>
    <ellipse cx="107.5" cy="105.52025275493124" fill="#1b9fd8" opacity="1" rx="12.5" ry="12.5" stroke-width="0" transform=" rotate(0, 107, 105)"/>
    <ellipse cx="142.5" cy="110.30809488393041" fill="#1b9fd8" opacity="1" rx="12.5" ry="12.5" stroke-width="0" transform=" rotate(0, 142, 110)"/>
    <ellipse cx="177.5" cy="114.20564530765961" fill="#006ca1" opacity="1" rx="12.5" ry="12.5" stroke-width="0" transform=" rotate(0, 177, 114)"/>
    <ellipse cx="212.5" cy="106.35683937005625" fill="#006ca1" opacity="1" rx="12.5" ry="12.5" stroke-width="0" transform=" rotate(0, 212, 106)"/>
    <ellipse cx="37.5" cy="145.42885841357247" fill="#6dd6ff" opacity="1" rx="12.5" ry="12.5" stroke-width="0" transform=" rotate(0, 37, 145)"/>
    <ellipse cx="72.5" cy="149.79446939924537" fill="#6dd6ff" opacity="1" rx="12.5" ry="12.5" stroke-width="0" transform=" rotate(0, 72, 149)"/>
    <ellipse cx="107.5" cy="147.3104955969912" fill="#1b9fd8" opacity="1" rx="12.5" ry="12.5" stroke-width="0" transform=" rotate(0, 107, 147)"/>
    <ellipse cx="142.5" cy="145.0997965953615" fill="#1b9fd8" opacity="1" rx="12.5" ry="12.5" stroke-width="0" transform=" rotate(0, 142, 145)"/>
    <ellipse cx="177.5" cy="149.5526564618235" fill="#006ca1" opacity="1" rx="12.5" ry="12.5" stroke-width="0" transform=" rotate(0, 177, 149)"/>
    <ellipse cx="212.5" cy="138.60051322643292" fill="#006ca1" opacity="1" rx="12.5" ry="12.5" stroke-width="0" transform=" rotate(0, 212, 138)"/>
    <ellipse cx="37.5" cy="171.92301552438036" fill="#6dd6ff" opacity="1" rx="12.5" ry="12.5" stroke-width="0" transform=" rotate(0, 37, 171)"/>
    <ellipse cx="72.5" cy="172.49022472630364" fill="#6dd6ff" opacity="1" rx="12.5" ry="12.5" stroke-width="0" transform=" rotate(0, 72, 172)"/>
    <ellipse cx="107.5" cy="174.0036747014458" fill="#1b9fd8" opacity="1" rx="12.5" ry="12.5" stroke-width="0" transform=" rotate(0, 107, 174)"/>
    <ellipse cx="142.5" cy="173.44058640989599" fill="#1b9fd8" opacity="1" rx="12.5" ry="12.5" stroke-width="0" transform=" rotate(0, 142, 173)"/>
    <ellipse cx="177.5" cy="183.44014487537797" fill="#006ca1" opacity="1" rx="12.5" ry="12.5" stroke-width="0" transform=" rotate(0, 177, 183)"/>
    <ellipse cx="212.5" cy="183.764351291785" fill="#006ca1" opacity="1" rx="12.5" ry="12.5" stroke-width="0" transform=" rotate(0, 212, 183)"/>
    <ellipse cx="37.5" cy="214.32830045599258" fill="#6dd6ff" opacity="1" rx="12.5" ry="12.5" stroke-width="0" transform=" rotate(0, 37, 214)"/>
    <ellipse cx="72.5" cy="206.74904545761174" fill="#6dd6ff" opacity="1" rx="12.5" ry="12.5" stroke-width="0" transform=" rotate(0, 72, 206)"/>
    <ellipse cx="107.5" cy="212.54054808357526" fill="#1b9fd8" opacity="1" rx="12.5" ry="12.5" stroke-width="0" transform=" rotate(0, 107, 212)"/>
    <ellipse cx="142.5" cy="213.5247536017701" fill="#1b9fd8" opacity="1" rx="12.5" ry="12.5" stroke-width="0" transform=" rotate(0, 142, 213)"/>
    <ellipse cx="177.5" cy="213.91188870869772" fill="#006ca1" opacity="1" rx="12.5" ry="12.5" stroke-width="0" transform=" rotate(0, 177, 213)"/>
    <ellipse cx="212.5" cy="213.4300823472086" fill="#006ca1" opacity="1" rx="12.5" ry="12.5" stroke-width="0" transform=" rotate(0, 212, 213)"/>
  </g>
</svg>
