<?xml version="1.0" encoding="utf-8" ?>
<svg xmlns="http://www.w3.org/2000/svg" xmlns:ev="http://www.w3.org/2001/xml-events" xmlns:xlink="http://www.w3.org/1999/xlink" baseProfile="full" height="250" version="1.1" width="250">
  <defs/>
  <g transform=" rotate(0, 125, 125)">
    <rect fill="white" height="250" width="250" x="0" y="0"/>
    <polygon fill="dodgerblue" opacity="1" points="125.00000000000001,10.0 43.682720163547046,43.68272016354702 10.0,124.99999999999999 43.68272016354702,206.31727983645294 124.99999999999997,240.0 206.31727983645294,206.317279836453 240.0,125.00000000000003 206.31727983645305,43.68272016354713" stroke-width="0" transform=" rotate(0, 125, 125)"/>
    <polygon fill="lightgrey" opacity="1" points="125.00000000000001,28.33333333333333 56.6463444853004,56.64634448530039 28.33333333333333,124.99999999999999 56.64634448530039,193.3536555146996 124.99999999999997,221.66666666666669 193.3536555146996,193.3536555146996 221.66666666666669,125.00000000000003 193.35365551469968,56.64634448530049" stroke-width="0" transform=" rotate(0, 125, 125)"/>
    <polygon fill="dodgerblue" opacity="1" points="125.00000000000001,46.66666666666666 69.60996880705378,69.60996880705376 46.66666666666666,124.99999999999999 69.60996880705376,180.39003119294622 124.99999999999999,203.33333333333334 180.39003119294622,180.39003119294625 203.33333333333334,125.00000000000003 180.3900311929463,69.60996880705383" stroke-width="0" transform=" rotate(0, 125, 125)"/>
    <polygon fill="lightgrey" opacity="1" points="125.00000000000001,64.99999999999999 82.57359312880715,82.57359312880712 64.99999999999999,124.99999999999999 82.57359312880712,167.42640687119285 124.99999999999999,185.0 167.42640687119285,167.42640687119288 185.0,125.00000000000001 167.4264068711929,82.57359312880719" stroke-width="0" transform=" rotate(0, 125, 125)"/>
    <polygon fill="dodgerblue" opacity="1" points="125.0,83.33333333333331 95.5372174505605,95.5372174505605 83.33333333333331,124.99999999999999 95.5372174505605,154.46278254943948 124.99999999999999,166.66666666666669 154.46278254943948,154.4627825494395 166.66666666666669,125.00000000000001 154.46278254943954,95.53721745056055" stroke-width="0" transform=" rotate(0, 125, 125)"/>
    <polygon fill="lightgrey" opacity="1" points="125.0,101.66666666666664 108.50084177231388,108.50084177231388 101.66666666666664,125.0 108.50084177231388,141.4991582276861 125.0,148.33333333333334 141.4991582276861,141.49915822768614 148.33333333333334,125.00000000000001 141.49915822768614,108.50084177231389" stroke-width="0" transform=" rotate(0, 125, 125)"/>
    <polygon fill="dodgerblue" opacity="1" points="125.0,119.99999999999997 121.46446609406725,121.46446609406725 119.99999999999997,125.0 121.46446609406725,128.53553390593277 125.0,130.00000000000003 128.53553390593277,128.53553390593277 130.00000000000003,125.0 128.53553390593277,121.46446609406725" stroke-width="0" transform=" rotate(0, 125, 125)"/>
  </g>
</svg>
