<?xml version="1.0" encoding="utf-8" ?>
<svg xmlns="http://www.w3.org/2000/svg" xmlns:ev="http://www.w3.org/2001/xml-events" xmlns:xlink="http://www.w3.org/1999/xlink" baseProfile="full" height="250" version="1.1" width="250">
  <defs/>
  <g transform=" rotate(0, 125, 125)">
    <rect fill="none" height="250" width="250" x="0" y="0"/>
    <ellipse class="circle" cx="35.0" cy="35.0" fill="#32cd32" opacity="1" rx="15.0" ry="15.0" stroke-width="0" transform=" rotate(0, 35, 35)"/>
    <text class="number" fill="#33cc3c" id="first" opacity="1" stroke-width="0" style="text-align: middle; font-size:40.65px; font-family: Arial" text-anchor="middle" textLength="100%" transform=" rotate(0, 80, 35)" x="80.0" y="49.55">1</text>
    <ellipse class="circle" cx="125.0" cy="35.0" fill="#34cb46" opacity="1" rx="15.0" ry="15.0" stroke-width="0" transform=" rotate(0, 125, 35)"/>
    <ellipse class="circle" cx="170.0" cy="35.0" fill="#35ca50" opacity="1" rx="15.0" ry="15.0" stroke-width="0" transform=" rotate(0, 170, 35)"/>
    <ellipse class="circle" cx="215.0" cy="35.0" fill="#35c959" opacity="1" rx="15.0" ry="15.0" stroke-width="0" transform=" rotate(0, 215, 35)"/>
    <text class="number" fill="#36c862" id="second" opacity="1" stroke-width="0" style="text-align: middle; font-size:40.65px; font-family: Arial" text-anchor="middle" textLength="100%" transform=" rotate(0, 35, 80)" x="35.0" y="94.55">2</text>
    <ellipse class="circle" cx="80.0" cy="80.0" fill="#37c76b" opacity="1" rx="15.0" ry="15.0" stroke-width="0" transform=" rotate(0, 80, 80)"/>
    <ellipse class="circle" cx="125.0" cy="80.0" fill="#38c674" opacity="1" rx="15.0" ry="15.0" stroke-width="0" transform=" rotate(0, 125, 80)"/>
    <ellipse class="circle" cx="170.0" cy="80.0" fill="#39c57d" opacity="1" rx="15.0" ry="15.0" stroke-width="0" transform=" rotate(0, 170, 80)"/>
    <ellipse class="circle" cx="215.0" cy="80.0" fill="#3ac485" opacity="1" rx="15.0" ry="15.0" stroke-width="0" transform=" rotate(0, 215, 80)"/>
    <ellipse class="circle" cx="35.0" cy="125.0" fill="#3ac28d" opacity="1" rx="15.0" ry="15.0" stroke-width="0" transform=" rotate(0, 35, 125)"/>
    <ellipse class="circle" cx="80.0" cy="125.0" fill="#3bc195" opacity="1" rx="15.0" ry="15.0" stroke-width="0" transform=" rotate(0, 80, 125)"/>
    <text class="number" fill="#3cc09c" id="third" opacity="1" stroke-width="0" style="text-align: middle; font-size:40.65px; font-family: Arial" text-anchor="middle" textLength="100%" transform=" rotate(0, 125, 125)" x="125.0" y="139.55">3</text>
    <ellipse class="circle" cx="170.0" cy="125.0" fill="#3dbfa4" opacity="1" rx="15.0" ry="15.0" stroke-width="0" transform=" rotate(0, 170, 125)"/>
    <ellipse class="circle" cx="215.0" cy="125.0" fill="#3ebeab" opacity="1" rx="15.0" ry="15.0" stroke-width="0" transform=" rotate(0, 215, 125)"/>
    <ellipse class="circle" cx="35.0" cy="170.0" fill="#3fbdb2" opacity="1" rx="15.0" ry="15.0" stroke-width="0" transform=" rotate(0, 35, 170)"/>
    <ellipse class="circle" cx="80.0" cy="170.0" fill="#3fbcb8" opacity="1" rx="15.0" ry="15.0" stroke-width="0" transform=" rotate(0, 80, 170)"/>
    <ellipse class="circle" cx="125.0" cy="170.0" fill="#40b7bb" opacity="1" rx="15.0" ry="15.0" stroke-width="0" transform=" rotate(0, 125, 170)"/>
    <ellipse class="circle" cx="170.0" cy="170.0" fill="#41afba" opacity="1" rx="15.0" ry="15.0" stroke-width="0" transform=" rotate(0, 170, 170)"/>
    <text class="number" fill="#42a7b9" id="fourth" opacity="1" stroke-width="0" style="text-align: middle; font-size:40.65px; font-family: Arial" text-anchor="middle" textLength="100%" transform=" rotate(0, 215, 170)" x="215.0" y="184.55">4</text>
    <ellipse class="circle" cx="35.0" cy="215.0" fill="#439fb8" opacity="1" rx="15.0" ry="15.0" stroke-width="0" transform=" rotate(0, 35, 215)"/>
    <ellipse class="circle" cx="80.0" cy="215.0" fill="#4498b7" opacity="1" rx="15.0" ry="15.0" stroke-width="0" transform=" rotate(0, 80, 215)"/>
    <ellipse class="circle" cx="125.0" cy="215.0" fill="#4490b6" opacity="1" rx="15.0" ry="15.0" stroke-width="0" transform=" rotate(0, 125, 215)"/>
    <text class="number" fill="#4589b5" id="fifth" opacity="1" stroke-width="0" style="text-align: middle; font-size:40.65px; font-family: Arial" text-anchor="middle" textLength="100%" transform=" rotate(0, 170, 215)" x="170.0" y="229.55">5</text>
    <ellipse class="circle" cx="215.0" cy="215.0" fill="#4682b4" opacity="1" rx="15.0" ry="15.0" stroke-width="0" transform=" rotate(0, 215, 215)"/>
  </g>
</svg>
