<?xml version="1.0" encoding="utf-8" ?>
<svg xmlns="http://www.w3.org/2000/svg" xmlns:ev="http://www.w3.org/2001/xml-events" xmlns:xlink="http://www.w3.org/1999/xlink" baseProfile="full" height="216" version="1.1" width="216">
  <defs/>
  <g transform=" rotate(0, 108, 108)">
    <rect fill="none" height="216" width="216" x="0" y="0"/>
    <polygon fill="black" opacity="1" points="152.0,11.5 132.51442841485013,22.74999999999999 132.51442841485013,45.249999999999986 152.0,56.5 171.48557158514987,45.250000000000014 171.48557158514987,22.749999999999982" stroke-width="0" transform=" rotate(90, 152, 34)"/>
    <polygon fill="black" opacity="1" points="107.0,8.5 91.84455543377233,17.249999999999993 91.84455543377231,34.749999999999986 107.0,43.5 122.15544456622767,34.75000000000001 122.15544456622767,17.249999999999986" stroke-width="0" transform=" rotate(90, 107, 26)"/>
    <polygon fill="black" opacity="1" points="187.0,41.5 176.17468245269453,47.74999999999999 176.17468245269453,60.24999999999999 187.0,66.5 197.82531754730547,60.25000000000001 197.82531754730547,47.74999999999999" stroke-width="0" transform=" rotate(90, 187, 54)"/>
    <polygon fill="black" opacity="1" points="194.0,16.0 188.80384757729337,18.999999999999996 188.80384757729337,24.999999999999996 194.0,28.0 199.19615242270663,25.000000000000004 199.19615242270663,18.999999999999996" stroke-width="0" transform=" rotate(90, 194, 22)"/>
    <polygon fill="black" opacity="1" points="187.0,32.0 183.53589838486224,34.0 183.53589838486224,38.0 187.0,40.0 190.46410161513776,38.0 190.46410161513776,34.0" stroke-width="0" transform=" rotate(90, 187, 36)"/>
    <polygon fill="black" opacity="1" points="162.0,66.0 153.3397459621556,71.0 153.3397459621556,81.0 162.0,86.0 170.6602540378444,81.0 170.66025403784437,70.99999999999999" stroke-width="0" transform=" rotate(90, 162, 76)"/>
    <polygon fill="black" opacity="1" points="172.0,88.0 169.40192378864668,89.5 169.40192378864668,92.5 172.0,94.0 174.59807621135332,92.5 174.59807621135332,89.5" stroke-width="0" transform=" rotate(90, 172, 91)"/>
  </g>
</svg>
