<?xml version='1.0' encoding='ASCII' standalone='yes'?>
<svg xmlns="http://www.w3.org/2000/svg" xmlns:xlink="http://www.w3.org/1999/xlink" version="1.1" width="250.0px" viewBox="0 0 250.0 250.0" height="250.0px">
  <g>
    <g transform="translate(0, 0) scale(0.5 0.5) "><defs>
    <clipPath id="custom_clip_path">
      <ellipse cx="250.0" cy="250.0" fill="none" opacity="1" rx="250.0" ry="250.0" stroke="none" stroke-width="0" transform=" rotate(0, 0, 0)"/>
    </clipPath>
  </defs>
  <a target="_blank" xlink:href="None">
    <ellipse cx="250.0" cy="250.0" fill="none" opacity="1" rx="250.0" ry="250.0" stroke="none" stroke-width="0" transform=" rotate(0, 0, 0)"/>
  </a>
  <g clip-path="url(#custom_clip_path)" transform=" rotate(30, 250, 250)">
    <rect fill="white" height="500" width="500" x="0" y="0"/>
    <ellipse cx="-125.0" cy="-125.0" fill="steelblue" opacity="1" rx="12.5" ry="12.5" stroke-width="0" transform=" rotate(0, -125, -125)"/>
    <ellipse cx="-75.0" cy="-125.0" fill="steelblue" opacity="1" rx="12.5" ry="12.5" stroke-width="0" transform=" rotate(0, -75, -125)"/>
    <ellipse cx="-25.0" cy="-125.0" fill="steelblue" opacity="1" rx="12.5" ry="12.5" stroke-width="0" transform=" rotate(0, -25, -125)"/>
    <ellipse cx="25.0" cy="-125.0" fill="steelblue" opacity="1" rx="12.5" ry="12.5" stroke-width="0" transform=" rotate(0, 25, -125)"/>
    <ellipse cx="75.0" cy="-125.0" fill="steelblue" opacity="1" rx="12.5" ry="12.5" stroke-width="0" transform=" rotate(0, 75, -125)"/>
    <ellipse cx="125.0" cy="-125.0" fill="steelblue" opacity="1" rx="12.5" ry="12.5" stroke-width="0" transform=" rotate(0, 125, -125)"/>
    <ellipse cx="175.0" cy="-125.0" fill="steelblue" opacity="1" rx="12.5" ry="12.5" stroke-width="0" transform=" rotate(0, 175, -125)"/>
    <ellipse cx="225.0" cy="-125.0" fill="steelblue" opacity="1" rx="12.5" ry="12.5" stroke-width="0" transform=" rotate(0, 225, -125)"/>
    <ellipse cx="275.0" cy="-125.0" fill="steelblue" opacity="1" rx="12.5" ry="12.5" stroke-width="0" transform=" rotate(0, 275, -125)"/>
    <ellipse cx="325.0" cy="-125.0" fill="steelblue" opacity="1" rx="12.5" ry="12.5" stroke-width="0" transform=" rotate(0, 325, -125)"/>
    <ellipse cx="375.0" cy="-125.0" fill="steelblue" opacity="1" rx="12.5" ry="12.5" stroke-width="0" transform=" rotate(0, 375, -125)"/>
    <ellipse cx="425.0" cy="-125.0" fill="steelblue" opacity="1" rx="12.5" ry="12.5" stroke-width="0" transform=" rotate(0, 425, -125)"/>
    <ellipse cx="475.0" cy="-125.0" fill="steelblue" opacity="1" rx="12.5" ry="12.5" stroke-width="0" transform=" rotate(0, 475, -125)"/>
    <ellipse cx="525.0" cy="-125.0" fill="steelblue" opacity="1" rx="12.5" ry="12.5" stroke-width="0" transform=" rotate(0, 525, -125)"/>
    <ellipse cx="575.0" cy="-125.0" fill="steelblue" opacity="1" rx="12.5" ry="12.5" stroke-width="0" transform=" rotate(0, 575, -125)"/>
    <ellipse cx="625.0" cy="-125.0" fill="steelblue" opacity="1" rx="12.5" ry="12.5" stroke-width="0" transform=" rotate(0, 625, -125)"/>
    <ellipse cx="-125.0" cy="-75.0" fill="steelblue" opacity="1" rx="12.5" ry="12.5" stroke-width="0" transform=" rotate(0, -125, -75)"/>
    <ellipse cx="-75.0" cy="-75.0" fill="steelblue" opacity="1" rx="12.5" ry="12.5" stroke-width="0" transform=" rotate(0, -75, -75)"/>
    <ellipse cx="-25.0" cy="-75.0" fill="steelblue" opacity="1" rx="12.5" ry="12.5" stroke-width="0" transform=" rotate(0, -25, -75)"/>
    <ellipse cx="25.0" cy="-75.0" fill="steelblue" opacity="1" rx="12.5" ry="12.5" stroke-width="0" transform=" rotate(0, 25, -75)"/>
    <ellipse cx="75.0" cy="-75.0" fill="steelblue" opacity="1" rx="12.5" ry="12.5" stroke-width="0" transform=" rotate(0, 75, -75)"/>
    <ellipse cx="125.0" cy="-75.0" fill="steelblue" opacity="1" rx="12.5" ry="12.5" stroke-width="0" transform=" rotate(0, 125, -75)"/>
    <ellipse cx="175.0" cy="-75.0" fill="steelblue" opacity="1" rx="12.5" ry="12.5" stroke-width="0" transform=" rotate(0, 175, -75)"/>
    <ellipse cx="225.0" cy="-75.0" fill="steelblue" opacity="1" rx="12.5" ry="12.5" stroke-width="0" transform=" rotate(0, 225, -75)"/>
    <ellipse cx="275.0" cy="-75.0" fill="steelblue" opacity="1" rx="12.5" ry="12.5" stroke-width="0" transform=" rotate(0, 275, -75)"/>
    <ellipse cx="325.0" cy="-75.0" fill="steelblue" opacity="1" rx="12.5" ry="12.5" stroke-width="0" transform=" rotate(0, 325, -75)"/>
    <ellipse cx="375.0" cy="-75.0" fill="steelblue" opacity="1" rx="12.5" ry="12.5" stroke-width="0" transform=" rotate(0, 375, -75)"/>
    <ellipse cx="425.0" cy="-75.0" fill="steelblue" opacity="1" rx="12.5" ry="12.5" stroke-width="0" transform=" rotate(0, 425, -75)"/>
    <ellipse cx="475.0" cy="-75.0" fill="steelblue" opacity="1" rx="12.5" ry="12.5" stroke-width="0" transform=" rotate(0, 475, -75)"/>
    <ellipse cx="525.0" cy="-75.0" fill="steelblue" opacity="1" rx="12.5" ry="12.5" stroke-width="0" transform=" rotate(0, 525, -75)"/>
    <ellipse cx="575.0" cy="-75.0" fill="steelblue" opacity="1" rx="12.5" ry="12.5" stroke-width="0" transform=" rotate(0, 575, -75)"/>
    <ellipse cx="625.0" cy="-75.0" fill="steelblue" opacity="1" rx="12.5" ry="12.5" stroke-width="0" transform=" rotate(0, 625, -75)"/>
    <ellipse cx="-125.0" cy="-25.0" fill="steelblue" opacity="1" rx="12.5" ry="12.5" stroke-width="0" transform=" rotate(0, -125, -25)"/>
    <ellipse cx="-75.0" cy="-25.0" fill="steelblue" opacity="1" rx="12.5" ry="12.5" stroke-width="0" transform=" rotate(0, -75, -25)"/>
    <ellipse cx="-25.0" cy="-25.0" fill="steelblue" opacity="1" rx="12.5" ry="12.5" stroke-width="0" transform=" rotate(0, -25, -25)"/>
    <ellipse cx="25.0" cy="-25.0" fill="steelblue" opacity="1" rx="12.5" ry="12.5" stroke-width="0" transform=" rotate(0, 25, -25)"/>
    <ellipse cx="75.0" cy="-25.0" fill="steelblue" opacity="1" rx="12.5" ry="12.5" stroke-width="0" transform=" rotate(0, 75, -25)"/>
    <ellipse cx="125.0" cy="-25.0" fill="steelblue" opacity="1" rx="12.5" ry="12.5" stroke-width="0" transform=" rotate(0, 125, -25)"/>
    <ellipse cx="175.0" cy="-25.0" fill="steelblue" opacity="1" rx="12.5" ry="12.5" stroke-width="0" transform=" rotate(0, 175, -25)"/>
    <ellipse cx="225.0" cy="-25.0" fill="steelblue" opacity="1" rx="12.5" ry="12.5" stroke-width="0" transform=" rotate(0, 225, -25)"/>
    <ellipse cx="275.0" cy="-25.0" fill="steelblue" opacity="1" rx="12.5" ry="12.5" stroke-width="0" transform=" rotate(0, 275, -25)"/>
    <ellipse cx="325.0" cy="-25.0" fill="steelblue" opacity="1" rx="12.5" ry="12.5" stroke-width="0" transform=" rotate(0, 325, -25)"/>
    <ellipse cx="375.0" cy="-25.0" fill="steelblue" opacity="1" rx="12.5" ry="12.5" stroke-width="0" transform=" rotate(0, 375, -25)"/>
    <ellipse cx="425.0" cy="-25.0" fill="steelblue" opacity="1" rx="12.5" ry="12.5" stroke-width="0" transform=" rotate(0, 425, -25)"/>
    <ellipse cx="475.0" cy="-25.0" fill="steelblue" opacity="1" rx="12.5" ry="12.5" stroke-width="0" transform=" rotate(0, 475, -25)"/>
    <ellipse cx="525.0" cy="-25.0" fill="steelblue" opacity="1" rx="12.5" ry="12.5" stroke-width="0" transform=" rotate(0, 525, -25)"/>
    <ellipse cx="575.0" cy="-25.0" fill="steelblue" opacity="1" rx="12.5" ry="12.5" stroke-width="0" transform=" rotate(0, 575, -25)"/>
    <ellipse cx="625.0" cy="-25.0" fill="steelblue" opacity="1" rx="12.5" ry="12.5" stroke-width="0" transform=" rotate(0, 625, -25)"/>
    <ellipse cx="-125.0" cy="25.0" fill="steelblue" opacity="1" rx="12.5" ry="12.5" stroke-width="0" transform=" rotate(0, -125, 25)"/>
    <ellipse cx="-75.0" cy="25.0" fill="steelblue" opacity="1" rx="12.5" ry="12.5" stroke-width="0" transform=" rotate(0, -75, 25)"/>
    <ellipse cx="-25.0" cy="25.0" fill="steelblue" opacity="1" rx="12.5" ry="12.5" stroke-width="0" transform=" rotate(0, -25, 25)"/>
    <ellipse cx="25.0" cy="25.0" fill="steelblue" opacity="1" rx="12.5" ry="12.5" stroke-width="0" transform=" rotate(0, 25, 25)"/>
    <ellipse cx="75.0" cy="25.0" fill="steelblue" opacity="1" rx="12.5" ry="12.5" stroke-width="0" transform=" rotate(0, 75, 25)"/>
    <ellipse cx="125.0" cy="25.0" fill="steelblue" opacity="1" rx="12.5" ry="12.5" stroke-width="0" transform=" rotate(0, 125, 25)"/>
    <ellipse cx="175.0" cy="25.0" fill="steelblue" opacity="1" rx="12.5" ry="12.5" stroke-width="0" transform=" rotate(0, 175, 25)"/>
    <ellipse cx="225.0" cy="25.0" fill="steelblue" opacity="1" rx="12.5" ry="12.5" stroke-width="0" transform=" rotate(0, 225, 25)"/>
    <ellipse cx="275.0" cy="25.0" fill="steelblue" opacity="1" rx="12.5" ry="12.5" stroke-width="0" transform=" rotate(0, 275, 25)"/>
    <ellipse cx="325.0" cy="25.0" fill="steelblue" opacity="1" rx="12.5" ry="12.5" stroke-width="0" transform=" rotate(0, 325, 25)"/>
    <ellipse cx="375.0" cy="25.0" fill="steelblue" opacity="1" rx="12.5" ry="12.5" stroke-width="0" transform=" rotate(0, 375, 25)"/>
    <ellipse cx="425.0" cy="25.0" fill="steelblue" opacity="1" rx="12.5" ry="12.5" stroke-width="0" transform=" rotate(0, 425, 25)"/>
    <ellipse cx="475.0" cy="25.0" fill="steelblue" opacity="1" rx="12.5" ry="12.5" stroke-width="0" transform=" rotate(0, 475, 25)"/>
    <ellipse cx="525.0" cy="25.0" fill="steelblue" opacity="1" rx="12.5" ry="12.5" stroke-width="0" transform=" rotate(0, 525, 25)"/>
    <ellipse cx="575.0" cy="25.0" fill="steelblue" opacity="1" rx="12.5" ry="12.5" stroke-width="0" transform=" rotate(0, 575, 25)"/>
    <ellipse cx="625.0" cy="25.0" fill="steelblue" opacity="1" rx="12.5" ry="12.5" stroke-width="0" transform=" rotate(0, 625, 25)"/>
    <ellipse cx="-125.0" cy="75.0" fill="steelblue" opacity="1" rx="12.5" ry="12.5" stroke-width="0" transform=" rotate(0, -125, 75)"/>
    <ellipse cx="-75.0" cy="75.0" fill="steelblue" opacity="1" rx="12.5" ry="12.5" stroke-width="0" transform=" rotate(0, -75, 75)"/>
    <ellipse cx="-25.0" cy="75.0" fill="steelblue" opacity="1" rx="12.5" ry="12.5" stroke-width="0" transform=" rotate(0, -25, 75)"/>
    <ellipse cx="25.0" cy="75.0" fill="steelblue" opacity="1" rx="12.5" ry="12.5" stroke-width="0" transform=" rotate(0, 25, 75)"/>
    <ellipse cx="75.0" cy="75.0" fill="steelblue" opacity="1" rx="12.5" ry="12.5" stroke-width="0" transform=" rotate(0, 75, 75)"/>
    <ellipse cx="125.0" cy="75.0" fill="steelblue" opacity="1" rx="12.5" ry="12.5" stroke-width="0" transform=" rotate(0, 125, 75)"/>
    <ellipse cx="175.0" cy="75.0" fill="steelblue" opacity="1" rx="12.5" ry="12.5" stroke-width="0" transform=" rotate(0, 175, 75)"/>
    <ellipse cx="225.0" cy="75.0" fill="steelblue" opacity="1" rx="12.5" ry="12.5" stroke-width="0" transform=" rotate(0, 225, 75)"/>
    <ellipse cx="275.0" cy="75.0" fill="steelblue" opacity="1" rx="12.5" ry="12.5" stroke-width="0" transform=" rotate(0, 275, 75)"/>
    <ellipse cx="325.0" cy="75.0" fill="steelblue" opacity="1" rx="12.5" ry="12.5" stroke-width="0" transform=" rotate(0, 325, 75)"/>
    <ellipse cx="375.0" cy="75.0" fill="steelblue" opacity="1" rx="12.5" ry="12.5" stroke-width="0" transform=" rotate(0, 375, 75)"/>
    <ellipse cx="425.0" cy="75.0" fill="steelblue" opacity="1" rx="12.5" ry="12.5" stroke-width="0" transform=" rotate(0, 425, 75)"/>
    <ellipse cx="475.0" cy="75.0" fill="steelblue" opacity="1" rx="12.5" ry="12.5" stroke-width="0" transform=" rotate(0, 475, 75)"/>
    <ellipse cx="525.0" cy="75.0" fill="steelblue" opacity="1" rx="12.5" ry="12.5" stroke-width="0" transform=" rotate(0, 525, 75)"/>
    <ellipse cx="575.0" cy="75.0" fill="steelblue" opacity="1" rx="12.5" ry="12.5" stroke-width="0" transform=" rotate(0, 575, 75)"/>
    <ellipse cx="625.0" cy="75.0" fill="steelblue" opacity="1" rx="12.5" ry="12.5" stroke-width="0" transform=" rotate(0, 625, 75)"/>
    <ellipse cx="-125.0" cy="125.0" fill="steelblue" opacity="1" rx="12.5" ry="12.5" stroke-width="0" transform=" rotate(0, -125, 125)"/>
    <ellipse cx="-75.0" cy="125.0" fill="steelblue" opacity="1" rx="12.5" ry="12.5" stroke-width="0" transform=" rotate(0, -75, 125)"/>
    <ellipse cx="-25.0" cy="125.0" fill="steelblue" opacity="1" rx="12.5" ry="12.5" stroke-width="0" transform=" rotate(0, -25, 125)"/>
    <ellipse cx="25.0" cy="125.0" fill="steelblue" opacity="1" rx="12.5" ry="12.5" stroke-width="0" transform=" rotate(0, 25, 125)"/>
    <ellipse cx="75.0" cy="125.0" fill="steelblue" opacity="1" rx="12.5" ry="12.5" stroke-width="0" transform=" rotate(0, 75, 125)"/>
    <ellipse cx="125.0" cy="125.0" fill="steelblue" opacity="1" rx="12.5" ry="12.5" stroke-width="0" transform=" rotate(0, 125, 125)"/>
    <ellipse cx="175.0" cy="125.0" fill="steelblue" opacity="1" rx="12.5" ry="12.5" stroke-width="0" transform=" rotate(0, 175, 125)"/>
    <ellipse cx="225.0" cy="125.0" fill="steelblue" opacity="1" rx="12.5" ry="12.5" stroke-width="0" transform=" rotate(0, 225, 125)"/>
    <ellipse cx="275.0" cy="125.0" fill="steelblue" opacity="1" rx="12.5" ry="12.5" stroke-width="0" transform=" rotate(0, 275, 125)"/>
    <ellipse cx="325.0" cy="125.0" fill="steelblue" opacity="1" rx="12.5" ry="12.5" stroke-width="0" transform=" rotate(0, 325, 125)"/>
    <ellipse cx="375.0" cy="125.0" fill="steelblue" opacity="1" rx="12.5" ry="12.5" stroke-width="0" transform=" rotate(0, 375, 125)"/>
    <ellipse cx="425.0" cy="125.0" fill="steelblue" opacity="1" rx="12.5" ry="12.5" stroke-width="0" transform=" rotate(0, 425, 125)"/>
    <ellipse cx="475.0" cy="125.0" fill="steelblue" opacity="1" rx="12.5" ry="12.5" stroke-width="0" transform=" rotate(0, 475, 125)"/>
    <ellipse cx="525.0" cy="125.0" fill="steelblue" opacity="1" rx="12.5" ry="12.5" stroke-width="0" transform=" rotate(0, 525, 125)"/>
    <ellipse cx="575.0" cy="125.0" fill="steelblue" opacity="1" rx="12.5" ry="12.5" stroke-width="0" transform=" rotate(0, 575, 125)"/>
    <ellipse cx="625.0" cy="125.0" fill="steelblue" opacity="1" rx="12.5" ry="12.5" stroke-width="0" transform=" rotate(0, 625, 125)"/>
    <ellipse cx="-125.0" cy="175.0" fill="steelblue" opacity="1" rx="12.5" ry="12.5" stroke-width="0" transform=" rotate(0, -125, 175)"/>
    <ellipse cx="-75.0" cy="175.0" fill="steelblue" opacity="1" rx="12.5" ry="12.5" stroke-width="0" transform=" rotate(0, -75, 175)"/>
    <ellipse cx="-25.0" cy="175.0" fill="steelblue" opacity="1" rx="12.5" ry="12.5" stroke-width="0" transform=" rotate(0, -25, 175)"/>
    <ellipse cx="25.0" cy="175.0" fill="steelblue" opacity="1" rx="12.5" ry="12.5" stroke-width="0" transform=" rotate(0, 25, 175)"/>
    <ellipse cx="75.0" cy="175.0" fill="steelblue" opacity="1" rx="12.5" ry="12.5" stroke-width="0" transform=" rotate(0, 75, 175)"/>
    <ellipse cx="125.0" cy="175.0" fill="steelblue" opacity="1" rx="12.5" ry="12.5" stroke-width="0" transform=" rotate(0, 125, 175)"/>
    <ellipse cx="175.0" cy="175.0" fill="steelblue" opacity="1" rx="12.5" ry="12.5" stroke-width="0" transform=" rotate(0, 175, 175)"/>
    <ellipse cx="225.0" cy="175.0" fill="steelblue" opacity="1" rx="12.5" ry="12.5" stroke-width="0" transform=" rotate(0, 225, 175)"/>
    <ellipse cx="275.0" cy="175.0" fill="steelblue" opacity="1" rx="12.5" ry="12.5" stroke-width="0" transform=" rotate(0, 275, 175)"/>
    <ellipse cx="325.0" cy="175.0" fill="steelblue" opacity="1" rx="12.5" ry="12.5" stroke-width="0" transform=" rotate(0, 325, 175)"/>
    <ellipse cx="375.0" cy="175.0" fill="steelblue" opacity="1" rx="12.5" ry="12.5" stroke-width="0" transform=" rotate(0, 375, 175)"/>
    <ellipse cx="425.0" cy="175.0" fill="steelblue" opacity="1" rx="12.5" ry="12.5" stroke-width="0" transform=" rotate(0, 425, 175)"/>
    <ellipse cx="475.0" cy="175.0" fill="steelblue" opacity="1" rx="12.5" ry="12.5" stroke-width="0" transform=" rotate(0, 475, 175)"/>
    <ellipse cx="525.0" cy="175.0" fill="steelblue" opacity="1" rx="12.5" ry="12.5" stroke-width="0" transform=" rotate(0, 525, 175)"/>
    <ellipse cx="575.0" cy="175.0" fill="steelblue" opacity="1" rx="12.5" ry="12.5" stroke-width="0" transform=" rotate(0, 575, 175)"/>
    <ellipse cx="625.0" cy="175.0" fill="steelblue" opacity="1" rx="12.5" ry="12.5" stroke-width="0" transform=" rotate(0, 625, 175)"/>
    <ellipse cx="-125.0" cy="225.0" fill="steelblue" opacity="1" rx="12.5" ry="12.5" stroke-width="0" transform=" rotate(0, -125, 225)"/>
    <ellipse cx="-75.0" cy="225.0" fill="steelblue" opacity="1" rx="12.5" ry="12.5" stroke-width="0" transform=" rotate(0, -75, 225)"/>
    <ellipse cx="-25.0" cy="225.0" fill="steelblue" opacity="1" rx="12.5" ry="12.5" stroke-width="0" transform=" rotate(0, -25, 225)"/>
    <ellipse cx="25.0" cy="225.0" fill="steelblue" opacity="1" rx="12.5" ry="12.5" stroke-width="0" transform=" rotate(0, 25, 225)"/>
    <ellipse cx="75.0" cy="225.0" fill="steelblue" opacity="1" rx="12.5" ry="12.5" stroke-width="0" transform=" rotate(0, 75, 225)"/>
    <ellipse cx="125.0" cy="225.0" fill="steelblue" opacity="1" rx="12.5" ry="12.5" stroke-width="0" transform=" rotate(0, 125, 225)"/>
    <ellipse cx="175.0" cy="225.0" fill="steelblue" opacity="1" rx="12.5" ry="12.5" stroke-width="0" transform=" rotate(0, 175, 225)"/>
    <ellipse cx="225.0" cy="225.0" fill="steelblue" opacity="1" rx="12.5" ry="12.5" stroke-width="0" transform=" rotate(0, 225, 225)"/>
    <ellipse cx="275.0" cy="225.0" fill="steelblue" opacity="1" rx="12.5" ry="12.5" stroke-width="0" transform=" rotate(0, 275, 225)"/>
    <ellipse cx="325.0" cy="225.0" fill="steelblue" opacity="1" rx="12.5" ry="12.5" stroke-width="0" transform=" rotate(0, 325, 225)"/>
    <ellipse cx="375.0" cy="225.0" fill="steelblue" opacity="1" rx="12.5" ry="12.5" stroke-width="0" transform=" rotate(0, 375, 225)"/>
    <ellipse cx="425.0" cy="225.0" fill="steelblue" opacity="1" rx="12.5" ry="12.5" stroke-width="0" transform=" rotate(0, 425, 225)"/>
    <ellipse cx="475.0" cy="225.0" fill="steelblue" opacity="1" rx="12.5" ry="12.5" stroke-width="0" transform=" rotate(0, 475, 225)"/>
    <ellipse cx="525.0" cy="225.0" fill="steelblue" opacity="1" rx="12.5" ry="12.5" stroke-width="0" transform=" rotate(0, 525, 225)"/>
    <ellipse cx="575.0" cy="225.0" fill="steelblue" opacity="1" rx="12.5" ry="12.5" stroke-width="0" transform=" rotate(0, 575, 225)"/>
    <ellipse cx="625.0" cy="225.0" fill="steelblue" opacity="1" rx="12.5" ry="12.5" stroke-width="0" transform=" rotate(0, 625, 225)"/>
    <ellipse cx="-125.0" cy="275.0" fill="steelblue" opacity="1" rx="12.5" ry="12.5" stroke-width="0" transform=" rotate(0, -125, 275)"/>
    <ellipse cx="-75.0" cy="275.0" fill="steelblue" opacity="1" rx="12.5" ry="12.5" stroke-width="0" transform=" rotate(0, -75, 275)"/>
    <ellipse cx="-25.0" cy="275.0" fill="steelblue" opacity="1" rx="12.5" ry="12.5" stroke-width="0" transform=" rotate(0, -25, 275)"/>
    <ellipse cx="25.0" cy="275.0" fill="steelblue" opacity="1" rx="12.5" ry="12.5" stroke-width="0" transform=" rotate(0, 25, 275)"/>
    <ellipse cx="75.0" cy="275.0" fill="steelblue" opacity="1" rx="12.5" ry="12.5" stroke-width="0" transform=" rotate(0, 75, 275)"/>
    <ellipse cx="125.0" cy="275.0" fill="steelblue" opacity="1" rx="12.5" ry="12.5" stroke-width="0" transform=" rotate(0, 125, 275)"/>
    <ellipse cx="175.0" cy="275.0" fill="steelblue" opacity="1" rx="12.5" ry="12.5" stroke-width="0" transform=" rotate(0, 175, 275)"/>
    <ellipse cx="225.0" cy="275.0" fill="steelblue" opacity="1" rx="12.5" ry="12.5" stroke-width="0" transform=" rotate(0, 225, 275)"/>
    <ellipse cx="275.0" cy="275.0" fill="steelblue" opacity="1" rx="12.5" ry="12.5" stroke-width="0" transform=" rotate(0, 275, 275)"/>
    <ellipse cx="325.0" cy="275.0" fill="steelblue" opacity="1" rx="12.5" ry="12.5" stroke-width="0" transform=" rotate(0, 325, 275)"/>
    <ellipse cx="375.0" cy="275.0" fill="steelblue" opacity="1" rx="12.5" ry="12.5" stroke-width="0" transform=" rotate(0, 375, 275)"/>
    <ellipse cx="425.0" cy="275.0" fill="steelblue" opacity="1" rx="12.5" ry="12.5" stroke-width="0" transform=" rotate(0, 425, 275)"/>
    <ellipse cx="475.0" cy="275.0" fill="steelblue" opacity="1" rx="12.5" ry="12.5" stroke-width="0" transform=" rotate(0, 475, 275)"/>
    <ellipse cx="525.0" cy="275.0" fill="steelblue" opacity="1" rx="12.5" ry="12.5" stroke-width="0" transform=" rotate(0, 525, 275)"/>
    <ellipse cx="575.0" cy="275.0" fill="steelblue" opacity="1" rx="12.5" ry="12.5" stroke-width="0" transform=" rotate(0, 575, 275)"/>
    <ellipse cx="625.0" cy="275.0" fill="steelblue" opacity="1" rx="12.5" ry="12.5" stroke-width="0" transform=" rotate(0, 625, 275)"/>
    <ellipse cx="-125.0" cy="325.0" fill="steelblue" opacity="1" rx="12.5" ry="12.5" stroke-width="0" transform=" rotate(0, -125, 325)"/>
    <ellipse cx="-75.0" cy="325.0" fill="steelblue" opacity="1" rx="12.5" ry="12.5" stroke-width="0" transform=" rotate(0, -75, 325)"/>
    <ellipse cx="-25.0" cy="325.0" fill="steelblue" opacity="1" rx="12.5" ry="12.5" stroke-width="0" transform=" rotate(0, -25, 325)"/>
    <ellipse cx="25.0" cy="325.0" fill="steelblue" opacity="1" rx="12.5" ry="12.5" stroke-width="0" transform=" rotate(0, 25, 325)"/>
    <ellipse cx="75.0" cy="325.0" fill="steelblue" opacity="1" rx="12.5" ry="12.5" stroke-width="0" transform=" rotate(0, 75, 325)"/>
    <ellipse cx="125.0" cy="325.0" fill="steelblue" opacity="1" rx="12.5" ry="12.5" stroke-width="0" transform=" rotate(0, 125, 325)"/>
    <ellipse cx="175.0" cy="325.0" fill="steelblue" opacity="1" rx="12.5" ry="12.5" stroke-width="0" transform=" rotate(0, 175, 325)"/>
    <ellipse cx="225.0" cy="325.0" fill="steelblue" opacity="1" rx="12.5" ry="12.5" stroke-width="0" transform=" rotate(0, 225, 325)"/>
    <ellipse cx="275.0" cy="325.0" fill="steelblue" opacity="1" rx="12.5" ry="12.5" stroke-width="0" transform=" rotate(0, 275, 325)"/>
    <ellipse cx="325.0" cy="325.0" fill="steelblue" opacity="1" rx="12.5" ry="12.5" stroke-width="0" transform=" rotate(0, 325, 325)"/>
    <ellipse cx="375.0" cy="325.0" fill="steelblue" opacity="1" rx="12.5" ry="12.5" stroke-width="0" transform=" rotate(0, 375, 325)"/>
    <ellipse cx="425.0" cy="325.0" fill="steelblue" opacity="1" rx="12.5" ry="12.5" stroke-width="0" transform=" rotate(0, 425, 325)"/>
    <ellipse cx="475.0" cy="325.0" fill="steelblue" opacity="1" rx="12.5" ry="12.5" stroke-width="0" transform=" rotate(0, 475, 325)"/>
    <ellipse cx="525.0" cy="325.0" fill="steelblue" opacity="1" rx="12.5" ry="12.5" stroke-width="0" transform=" rotate(0, 525, 325)"/>
    <ellipse cx="575.0" cy="325.0" fill="steelblue" opacity="1" rx="12.5" ry="12.5" stroke-width="0" transform=" rotate(0, 575, 325)"/>
    <ellipse cx="625.0" cy="325.0" fill="steelblue" opacity="1" rx="12.5" ry="12.5" stroke-width="0" transform=" rotate(0, 625, 325)"/>
    <ellipse cx="-125.0" cy="375.0" fill="steelblue" opacity="1" rx="12.5" ry="12.5" stroke-width="0" transform=" rotate(0, -125, 375)"/>
    <ellipse cx="-75.0" cy="375.0" fill="steelblue" opacity="1" rx="12.5" ry="12.5" stroke-width="0" transform=" rotate(0, -75, 375)"/>
    <ellipse cx="-25.0" cy="375.0" fill="steelblue" opacity="1" rx="12.5" ry="12.5" stroke-width="0" transform=" rotate(0, -25, 375)"/>
    <ellipse cx="25.0" cy="375.0" fill="steelblue" opacity="1" rx="12.5" ry="12.5" stroke-width="0" transform=" rotate(0, 25, 375)"/>
    <ellipse cx="75.0" cy="375.0" fill="steelblue" opacity="1" rx="12.5" ry="12.5" stroke-width="0" transform=" rotate(0, 75, 375)"/>
    <ellipse cx="125.0" cy="375.0" fill="steelblue" opacity="1" rx="12.5" ry="12.5" stroke-width="0" transform=" rotate(0, 125, 375)"/>
    <ellipse cx="175.0" cy="375.0" fill="steelblue" opacity="1" rx="12.5" ry="12.5" stroke-width="0" transform=" rotate(0, 175, 375)"/>
    <ellipse cx="225.0" cy="375.0" fill="steelblue" opacity="1" rx="12.5" ry="12.5" stroke-width="0" transform=" rotate(0, 225, 375)"/>
    <ellipse cx="275.0" cy="375.0" fill="steelblue" opacity="1" rx="12.5" ry="12.5" stroke-width="0" transform=" rotate(0, 275, 375)"/>
    <ellipse cx="325.0" cy="375.0" fill="steelblue" opacity="1" rx="12.5" ry="12.5" stroke-width="0" transform=" rotate(0, 325, 375)"/>
    <ellipse cx="375.0" cy="375.0" fill="steelblue" opacity="1" rx="12.5" ry="12.5" stroke-width="0" transform=" rotate(0, 375, 375)"/>
    <ellipse cx="425.0" cy="375.0" fill="steelblue" opacity="1" rx="12.5" ry="12.5" stroke-width="0" transform=" rotate(0, 425, 375)"/>
    <ellipse cx="475.0" cy="375.0" fill="steelblue" opacity="1" rx="12.5" ry="12.5" stroke-width="0" transform=" rotate(0, 475, 375)"/>
    <ellipse cx="525.0" cy="375.0" fill="steelblue" opacity="1" rx="12.5" ry="12.5" stroke-width="0" transform=" rotate(0, 525, 375)"/>
    <ellipse cx="575.0" cy="375.0" fill="steelblue" opacity="1" rx="12.5" ry="12.5" stroke-width="0" transform=" rotate(0, 575, 375)"/>
    <ellipse cx="625.0" cy="375.0" fill="steelblue" opacity="1" rx="12.5" ry="12.5" stroke-width="0" transform=" rotate(0, 625, 375)"/>
    <ellipse cx="-125.0" cy="425.0" fill="steelblue" opacity="1" rx="12.5" ry="12.5" stroke-width="0" transform=" rotate(0, -125, 425)"/>
    <ellipse cx="-75.0" cy="425.0" fill="steelblue" opacity="1" rx="12.5" ry="12.5" stroke-width="0" transform=" rotate(0, -75, 425)"/>
    <ellipse cx="-25.0" cy="425.0" fill="steelblue" opacity="1" rx="12.5" ry="12.5" stroke-width="0" transform=" rotate(0, -25, 425)"/>
    <ellipse cx="25.0" cy="425.0" fill="steelblue" opacity="1" rx="12.5" ry="12.5" stroke-width="0" transform=" rotate(0, 25, 425)"/>
    <ellipse cx="75.0" cy="425.0" fill="steelblue" opacity="1" rx="12.5" ry="12.5" stroke-width="0" transform=" rotate(0, 75, 425)"/>
    <ellipse cx="125.0" cy="425.0" fill="steelblue" opacity="1" rx="12.5" ry="12.5" stroke-width="0" transform=" rotate(0, 125, 425)"/>
    <ellipse cx="175.0" cy="425.0" fill="steelblue" opacity="1" rx="12.5" ry="12.5" stroke-width="0" transform=" rotate(0, 175, 425)"/>
    <ellipse cx="225.0" cy="425.0" fill="steelblue" opacity="1" rx="12.5" ry="12.5" stroke-width="0" transform=" rotate(0, 225, 425)"/>
    <ellipse cx="275.0" cy="425.0" fill="steelblue" opacity="1" rx="12.5" ry="12.5" stroke-width="0" transform=" rotate(0, 275, 425)"/>
    <ellipse cx="325.0" cy="425.0" fill="steelblue" opacity="1" rx="12.5" ry="12.5" stroke-width="0" transform=" rotate(0, 325, 425)"/>
    <ellipse cx="375.0" cy="425.0" fill="steelblue" opacity="1" rx="12.5" ry="12.5" stroke-width="0" transform=" rotate(0, 375, 425)"/>
    <ellipse cx="425.0" cy="425.0" fill="steelblue" opacity="1" rx="12.5" ry="12.5" stroke-width="0" transform=" rotate(0, 425, 425)"/>
    <ellipse cx="475.0" cy="425.0" fill="steelblue" opacity="1" rx="12.5" ry="12.5" stroke-width="0" transform=" rotate(0, 475, 425)"/>
    <ellipse cx="525.0" cy="425.0" fill="steelblue" opacity="1" rx="12.5" ry="12.5" stroke-width="0" transform=" rotate(0, 525, 425)"/>
    <ellipse cx="575.0" cy="425.0" fill="steelblue" opacity="1" rx="12.5" ry="12.5" stroke-width="0" transform=" rotate(0, 575, 425)"/>
    <ellipse cx="625.0" cy="425.0" fill="steelblue" opacity="1" rx="12.5" ry="12.5" stroke-width="0" transform=" rotate(0, 625, 425)"/>
    <ellipse cx="-125.0" cy="475.0" fill="steelblue" opacity="1" rx="12.5" ry="12.5" stroke-width="0" transform=" rotate(0, -125, 475)"/>
    <ellipse cx="-75.0" cy="475.0" fill="steelblue" opacity="1" rx="12.5" ry="12.5" stroke-width="0" transform=" rotate(0, -75, 475)"/>
    <ellipse cx="-25.0" cy="475.0" fill="steelblue" opacity="1" rx="12.5" ry="12.5" stroke-width="0" transform=" rotate(0, -25, 475)"/>
    <ellipse cx="25.0" cy="475.0" fill="steelblue" opacity="1" rx="12.5" ry="12.5" stroke-width="0" transform=" rotate(0, 25, 475)"/>
    <ellipse cx="75.0" cy="475.0" fill="steelblue" opacity="1" rx="12.5" ry="12.5" stroke-width="0" transform=" rotate(0, 75, 475)"/>
    <ellipse cx="125.0" cy="475.0" fill="steelblue" opacity="1" rx="12.5" ry="12.5" stroke-width="0" transform=" rotate(0, 125, 475)"/>
    <ellipse cx="175.0" cy="475.0" fill="steelblue" opacity="1" rx="12.5" ry="12.5" stroke-width="0" transform=" rotate(0, 175, 475)"/>
    <ellipse cx="225.0" cy="475.0" fill="steelblue" opacity="1" rx="12.5" ry="12.5" stroke-width="0" transform=" rotate(0, 225, 475)"/>
    <ellipse cx="275.0" cy="475.0" fill="steelblue" opacity="1" rx="12.5" ry="12.5" stroke-width="0" transform=" rotate(0, 275, 475)"/>
    <ellipse cx="325.0" cy="475.0" fill="steelblue" opacity="1" rx="12.5" ry="12.5" stroke-width="0" transform=" rotate(0, 325, 475)"/>
    <ellipse cx="375.0" cy="475.0" fill="steelblue" opacity="1" rx="12.5" ry="12.5" stroke-width="0" transform=" rotate(0, 375, 475)"/>
    <ellipse cx="425.0" cy="475.0" fill="steelblue" opacity="1" rx="12.5" ry="12.5" stroke-width="0" transform=" rotate(0, 425, 475)"/>
    <ellipse cx="475.0" cy="475.0" fill="steelblue" opacity="1" rx="12.5" ry="12.5" stroke-width="0" transform=" rotate(0, 475, 475)"/>
    <ellipse cx="525.0" cy="475.0" fill="steelblue" opacity="1" rx="12.5" ry="12.5" stroke-width="0" transform=" rotate(0, 525, 475)"/>
    <ellipse cx="575.0" cy="475.0" fill="steelblue" opacity="1" rx="12.5" ry="12.5" stroke-width="0" transform=" rotate(0, 575, 475)"/>
    <ellipse cx="625.0" cy="475.0" fill="steelblue" opacity="1" rx="12.5" ry="12.5" stroke-width="0" transform=" rotate(0, 625, 475)"/>
    <ellipse cx="-125.0" cy="525.0" fill="steelblue" opacity="1" rx="12.5" ry="12.5" stroke-width="0" transform=" rotate(0, -125, 525)"/>
    <ellipse cx="-75.0" cy="525.0" fill="steelblue" opacity="1" rx="12.5" ry="12.5" stroke-width="0" transform=" rotate(0, -75, 525)"/>
    <ellipse cx="-25.0" cy="525.0" fill="steelblue" opacity="1" rx="12.5" ry="12.5" stroke-width="0" transform=" rotate(0, -25, 525)"/>
    <ellipse cx="25.0" cy="525.0" fill="steelblue" opacity="1" rx="12.5" ry="12.5" stroke-width="0" transform=" rotate(0, 25, 525)"/>
    <ellipse cx="75.0" cy="525.0" fill="steelblue" opacity="1" rx="12.5" ry="12.5" stroke-width="0" transform=" rotate(0, 75, 525)"/>
    <ellipse cx="125.0" cy="525.0" fill="steelblue" opacity="1" rx="12.5" ry="12.5" stroke-width="0" transform=" rotate(0, 125, 525)"/>
    <ellipse cx="175.0" cy="525.0" fill="steelblue" opacity="1" rx="12.5" ry="12.5" stroke-width="0" transform=" rotate(0, 175, 525)"/>
    <ellipse cx="225.0" cy="525.0" fill="steelblue" opacity="1" rx="12.5" ry="12.5" stroke-width="0" transform=" rotate(0, 225, 525)"/>
    <ellipse cx="275.0" cy="525.0" fill="steelblue" opacity="1" rx="12.5" ry="12.5" stroke-width="0" transform=" rotate(0, 275, 525)"/>
    <ellipse cx="325.0" cy="525.0" fill="steelblue" opacity="1" rx="12.5" ry="12.5" stroke-width="0" transform=" rotate(0, 325, 525)"/>
    <ellipse cx="375.0" cy="525.0" fill="steelblue" opacity="1" rx="12.5" ry="12.5" stroke-width="0" transform=" rotate(0, 375, 525)"/>
    <ellipse cx="425.0" cy="525.0" fill="steelblue" opacity="1" rx="12.5" ry="12.5" stroke-width="0" transform=" rotate(0, 425, 525)"/>
    <ellipse cx="475.0" cy="525.0" fill="steelblue" opacity="1" rx="12.5" ry="12.5" stroke-width="0" transform=" rotate(0, 475, 525)"/>
    <ellipse cx="525.0" cy="525.0" fill="steelblue" opacity="1" rx="12.5" ry="12.5" stroke-width="0" transform=" rotate(0, 525, 525)"/>
    <ellipse cx="575.0" cy="525.0" fill="steelblue" opacity="1" rx="12.5" ry="12.5" stroke-width="0" transform=" rotate(0, 575, 525)"/>
    <ellipse cx="625.0" cy="525.0" fill="steelblue" opacity="1" rx="12.5" ry="12.5" stroke-width="0" transform=" rotate(0, 625, 525)"/>
    <ellipse cx="-125.0" cy="575.0" fill="steelblue" opacity="1" rx="12.5" ry="12.5" stroke-width="0" transform=" rotate(0, -125, 575)"/>
    <ellipse cx="-75.0" cy="575.0" fill="steelblue" opacity="1" rx="12.5" ry="12.5" stroke-width="0" transform=" rotate(0, -75, 575)"/>
    <ellipse cx="-25.0" cy="575.0" fill="steelblue" opacity="1" rx="12.5" ry="12.5" stroke-width="0" transform=" rotate(0, -25, 575)"/>
    <ellipse cx="25.0" cy="575.0" fill="steelblue" opacity="1" rx="12.5" ry="12.5" stroke-width="0" transform=" rotate(0, 25, 575)"/>
    <ellipse cx="75.0" cy="575.0" fill="steelblue" opacity="1" rx="12.5" ry="12.5" stroke-width="0" transform=" rotate(0, 75, 575)"/>
    <ellipse cx="125.0" cy="575.0" fill="steelblue" opacity="1" rx="12.5" ry="12.5" stroke-width="0" transform=" rotate(0, 125, 575)"/>
    <ellipse cx="175.0" cy="575.0" fill="steelblue" opacity="1" rx="12.5" ry="12.5" stroke-width="0" transform=" rotate(0, 175, 575)"/>
    <ellipse cx="225.0" cy="575.0" fill="steelblue" opacity="1" rx="12.5" ry="12.5" stroke-width="0" transform=" rotate(0, 225, 575)"/>
    <ellipse cx="275.0" cy="575.0" fill="steelblue" opacity="1" rx="12.5" ry="12.5" stroke-width="0" transform=" rotate(0, 275, 575)"/>
    <ellipse cx="325.0" cy="575.0" fill="steelblue" opacity="1" rx="12.5" ry="12.5" stroke-width="0" transform=" rotate(0, 325, 575)"/>
    <ellipse cx="375.0" cy="575.0" fill="steelblue" opacity="1" rx="12.5" ry="12.5" stroke-width="0" transform=" rotate(0, 375, 575)"/>
    <ellipse cx="425.0" cy="575.0" fill="steelblue" opacity="1" rx="12.5" ry="12.5" stroke-width="0" transform=" rotate(0, 425, 575)"/>
    <ellipse cx="475.0" cy="575.0" fill="steelblue" opacity="1" rx="12.5" ry="12.5" stroke-width="0" transform=" rotate(0, 475, 575)"/>
    <ellipse cx="525.0" cy="575.0" fill="steelblue" opacity="1" rx="12.5" ry="12.5" stroke-width="0" transform=" rotate(0, 525, 575)"/>
    <ellipse cx="575.0" cy="575.0" fill="steelblue" opacity="1" rx="12.5" ry="12.5" stroke-width="0" transform=" rotate(0, 575, 575)"/>
    <ellipse cx="625.0" cy="575.0" fill="steelblue" opacity="1" rx="12.5" ry="12.5" stroke-width="0" transform=" rotate(0, 625, 575)"/>
    <ellipse cx="-125.0" cy="625.0" fill="steelblue" opacity="1" rx="12.5" ry="12.5" stroke-width="0" transform=" rotate(0, -125, 625)"/>
    <ellipse cx="-75.0" cy="625.0" fill="steelblue" opacity="1" rx="12.5" ry="12.5" stroke-width="0" transform=" rotate(0, -75, 625)"/>
    <ellipse cx="-25.0" cy="625.0" fill="steelblue" opacity="1" rx="12.5" ry="12.5" stroke-width="0" transform=" rotate(0, -25, 625)"/>
    <ellipse cx="25.0" cy="625.0" fill="steelblue" opacity="1" rx="12.5" ry="12.5" stroke-width="0" transform=" rotate(0, 25, 625)"/>
    <ellipse cx="75.0" cy="625.0" fill="steelblue" opacity="1" rx="12.5" ry="12.5" stroke-width="0" transform=" rotate(0, 75, 625)"/>
    <ellipse cx="125.0" cy="625.0" fill="steelblue" opacity="1" rx="12.5" ry="12.5" stroke-width="0" transform=" rotate(0, 125, 625)"/>
    <ellipse cx="175.0" cy="625.0" fill="steelblue" opacity="1" rx="12.5" ry="12.5" stroke-width="0" transform=" rotate(0, 175, 625)"/>
    <ellipse cx="225.0" cy="625.0" fill="steelblue" opacity="1" rx="12.5" ry="12.5" stroke-width="0" transform=" rotate(0, 225, 625)"/>
    <ellipse cx="275.0" cy="625.0" fill="steelblue" opacity="1" rx="12.5" ry="12.5" stroke-width="0" transform=" rotate(0, 275, 625)"/>
    <ellipse cx="325.0" cy="625.0" fill="steelblue" opacity="1" rx="12.5" ry="12.5" stroke-width="0" transform=" rotate(0, 325, 625)"/>
    <ellipse cx="375.0" cy="625.0" fill="steelblue" opacity="1" rx="12.5" ry="12.5" stroke-width="0" transform=" rotate(0, 375, 625)"/>
    <ellipse cx="425.0" cy="625.0" fill="steelblue" opacity="1" rx="12.5" ry="12.5" stroke-width="0" transform=" rotate(0, 425, 625)"/>
    <ellipse cx="475.0" cy="625.0" fill="steelblue" opacity="1" rx="12.5" ry="12.5" stroke-width="0" transform=" rotate(0, 475, 625)"/>
    <ellipse cx="525.0" cy="625.0" fill="steelblue" opacity="1" rx="12.5" ry="12.5" stroke-width="0" transform=" rotate(0, 525, 625)"/>
    <ellipse cx="575.0" cy="625.0" fill="steelblue" opacity="1" rx="12.5" ry="12.5" stroke-width="0" transform=" rotate(0, 575, 625)"/>
    <ellipse cx="625.0" cy="625.0" fill="steelblue" opacity="1" rx="12.5" ry="12.5" stroke-width="0" transform=" rotate(0, 625, 625)"/>
  </g>
</g>
  </g>
</svg>
