<?xml version="1.0" encoding="utf-8" ?>
<svg xmlns="http://www.w3.org/2000/svg" xmlns:ev="http://www.w3.org/2001/xml-events" xmlns:xlink="http://www.w3.org/1999/xlink" baseProfile="full" height="250" version="1.1" width="250">
  <defs/>
  <g transform=" rotate(0, 125, 125)">
    <rect fill="white" height="250" width="250" x="0" y="0"/>
    <polygon fill="dodgerblue" opacity="1" points="15.0,35.0 25.0,15.0 35.0,35.0" stroke-width="0" transform=" rotate(0, 25, 25)"/>
    <polygon fill="dodgerblue" opacity="1" points="42.5,32.5 50.0,17.5 57.5,32.5" stroke-width="0" transform=" rotate(0, 50, 25)"/>
    <polygon fill="dodgerblue" opacity="1" points="65.0,35.0 75.0,15.0 85.0,35.0" stroke-width="0" transform=" rotate(0, 75, 25)"/>
    <polygon fill="dodgerblue" opacity="1" points="92.5,32.5 100.0,17.5 107.5,32.5" stroke-width="0" transform=" rotate(0, 100, 25)"/>
    <polygon fill="dodgerblue" opacity="1" points="115.0,35.0 125.0,15.0 135.0,35.0" stroke-width="0" transform=" rotate(0, 125, 25)"/>
    <polygon fill="dodgerblue" opacity="1" points="142.5,32.5 150.0,17.5 157.5,32.5" stroke-width="0" transform=" rotate(0, 150, 25)"/>
    <polygon fill="dodgerblue" opacity="1" points="165.0,35.0 175.0,15.0 185.0,35.0" stroke-width="0" transform=" rotate(0, 175, 25)"/>
    <polygon fill="dodgerblue" opacity="1" points="192.5,32.5 200.0,17.5 207.5,32.5" stroke-width="0" transform=" rotate(0, 200, 25)"/>
    <polygon fill="dodgerblue" opacity="1" points="215.0,35.0 225.0,15.0 235.0,35.0" stroke-width="0" transform=" rotate(0, 225, 25)"/>
    <polygon fill="dodgerblue" opacity="1" points="17.5,57.5 25.0,42.5 32.5,57.5" stroke-width="0" transform=" rotate(0, 25, 50)"/>
    <rect fill="dodgerblue" height="20" opacity="1" stroke-width="0" transform=" rotate(0, 50, 50)" width="20" x="40.0" y="40.0"/>
    <rect fill="dodgerblue" height="15" opacity="1" stroke-width="0" transform=" rotate(0, 75, 50)" width="15" x="67.5" y="42.5"/>
    <rect fill="dodgerblue" height="20" opacity="1" stroke-width="0" transform=" rotate(0, 100, 50)" width="20" x="90.0" y="40.0"/>
    <rect fill="dodgerblue" height="15" opacity="1" stroke-width="0" transform=" rotate(0, 125, 50)" width="15" x="117.5" y="42.5"/>
    <rect fill="dodgerblue" height="20" opacity="1" stroke-width="0" transform=" rotate(0, 150, 50)" width="20" x="140.0" y="40.0"/>
    <rect fill="dodgerblue" height="15" opacity="1" stroke-width="0" transform=" rotate(0, 175, 50)" width="15" x="167.5" y="42.5"/>
    <rect fill="dodgerblue" height="20" opacity="1" stroke-width="0" transform=" rotate(0, 200, 50)" width="20" x="190.0" y="40.0"/>
    <polygon fill="dodgerblue" opacity="1" points="217.5,57.5 225.0,42.5 232.5,57.5" stroke-width="0" transform=" rotate(0, 225, 50)"/>
    <polygon fill="dodgerblue" opacity="1" points="15.0,85.0 25.0,65.0 35.0,85.0" stroke-width="0" transform=" rotate(0, 25, 75)"/>
    <rect fill="dodgerblue" height="15" opacity="1" stroke-width="0" transform=" rotate(0, 50, 75)" width="15" x="42.5" y="67.5"/>
    <ellipse cx="75.0" cy="75.0" fill="dodgerblue" opacity="1" rx="10.0" ry="10.0" stroke-width="0" transform=" rotate(0, 75, 75)"/>
    <ellipse cx="100.0" cy="75.0" fill="dodgerblue" opacity="1" rx="7.5" ry="7.5" stroke-width="0" transform=" rotate(0, 100, 75)"/>
    <ellipse cx="125.0" cy="75.0" fill="dodgerblue" opacity="1" rx="10.0" ry="10.0" stroke-width="0" transform=" rotate(0, 125, 75)"/>
    <ellipse cx="150.0" cy="75.0" fill="dodgerblue" opacity="1" rx="7.5" ry="7.5" stroke-width="0" transform=" rotate(0, 150, 75)"/>
    <ellipse cx="175.0" cy="75.0" fill="dodgerblue" opacity="1" rx="10.0" ry="10.0" stroke-width="0" transform=" rotate(0, 175, 75)"/>
    <rect fill="dodgerblue" height="15" opacity="1" stroke-width="0" transform=" rotate(0, 200, 75)" width="15" x="192.5" y="67.5"/>
    <polygon fill="dodgerblue" opacity="1" points="215.0,85.0 225.0,65.0 235.0,85.0" stroke-width="0" transform=" rotate(0, 225, 75)"/>
    <polygon fill="dodgerblue" opacity="1" points="17.5,107.5 25.0,92.5 32.5,107.5" stroke-width="0" transform=" rotate(0, 25, 100)"/>
    <rect fill="dodgerblue" height="20" opacity="1" stroke-width="0" transform=" rotate(0, 50, 100)" width="20" x="40.0" y="90.0"/>
    <ellipse cx="75.0" cy="100.0" fill="dodgerblue" opacity="1" rx="7.5" ry="7.5" stroke-width="0" transform=" rotate(0, 75, 100)"/>
    <polygon fill="dodgerblue" opacity="1" points="90.0,110.0 100.0,90.0 110.0,110.0" stroke-width="0" transform=" rotate(0, 100, 100)"/>
    <polygon fill="dodgerblue" opacity="1" points="117.5,107.5 125.0,92.5 132.5,107.5" stroke-width="0" transform=" rotate(0, 125, 100)"/>
    <polygon fill="dodgerblue" opacity="1" points="140.0,110.0 150.0,90.0 160.0,110.0" stroke-width="0" transform=" rotate(0, 150, 100)"/>
    <ellipse cx="175.0" cy="100.0" fill="dodgerblue" opacity="1" rx="7.5" ry="7.5" stroke-width="0" transform=" rotate(0, 175, 100)"/>
    <rect fill="dodgerblue" height="20" opacity="1" stroke-width="0" transform=" rotate(0, 200, 100)" width="20" x="190.0" y="90.0"/>
    <polygon fill="dodgerblue" opacity="1" points="217.5,107.5 225.0,92.5 232.5,107.5" stroke-width="0" transform=" rotate(0, 225, 100)"/>
    <polygon fill="dodgerblue" opacity="1" points="15.0,135.0 25.0,115.0 35.0,135.0" stroke-width="0" transform=" rotate(0, 25, 125)"/>
    <rect fill="dodgerblue" height="15" opacity="1" stroke-width="0" transform=" rotate(0, 50, 125)" width="15" x="42.5" y="117.5"/>
    <ellipse cx="75.0" cy="125.0" fill="dodgerblue" opacity="1" rx="10.0" ry="10.0" stroke-width="0" transform=" rotate(0, 75, 125)"/>
    <polygon fill="dodgerblue" opacity="1" points="92.5,132.5 100.0,117.5 107.5,132.5" stroke-width="0" transform=" rotate(0, 100, 125)"/>
    <rect fill="dodgerblue" height="20" opacity="1" stroke-width="0" transform=" rotate(0, 125, 125)" width="20" x="115.0" y="115.0"/>
    <polygon fill="dodgerblue" opacity="1" points="142.5,132.5 150.0,117.5 157.5,132.5" stroke-width="0" transform=" rotate(0, 150, 125)"/>
    <ellipse cx="175.0" cy="125.0" fill="dodgerblue" opacity="1" rx="10.0" ry="10.0" stroke-width="0" transform=" rotate(0, 175, 125)"/>
    <rect fill="dodgerblue" height="15" opacity="1" stroke-width="0" transform=" rotate(0, 200, 125)" width="15" x="192.5" y="117.5"/>
    <polygon fill="dodgerblue" opacity="1" points="215.0,135.0 225.0,115.0 235.0,135.0" stroke-width="0" transform=" rotate(0, 225, 125)"/>
    <polygon fill="dodgerblue" opacity="1" points="17.5,157.5 25.0,142.5 32.5,157.5" stroke-width="0" transform=" rotate(0, 25, 150)"/>
    <rect fill="dodgerblue" height="20" opacity="1" stroke-width="0" transform=" rotate(0, 50, 150)" width="20" x="40.0" y="140.0"/>
    <ellipse cx="75.0" cy="150.0" fill="dodgerblue" opacity="1" rx="7.5" ry="7.5" stroke-width="0" transform=" rotate(0, 75, 150)"/>
    <polygon fill="dodgerblue" opacity="1" points="90.0,160.0 100.0,140.0 110.0,160.0" stroke-width="0" transform=" rotate(0, 100, 150)"/>
    <polygon fill="dodgerblue" opacity="1" points="117.5,157.5 125.0,142.5 132.5,157.5" stroke-width="0" transform=" rotate(0, 125, 150)"/>
    <polygon fill="dodgerblue" opacity="1" points="140.0,160.0 150.0,140.0 160.0,160.0" stroke-width="0" transform=" rotate(0, 150, 150)"/>
    <ellipse cx="175.0" cy="150.0" fill="dodgerblue" opacity="1" rx="7.5" ry="7.5" stroke-width="0" transform=" rotate(0, 175, 150)"/>
    <rect fill="dodgerblue" height="20" opacity="1" stroke-width="0" transform=" rotate(0, 200, 150)" width="20" x="190.0" y="140.0"/>
    <polygon fill="dodgerblue" opacity="1" points="217.5,157.5 225.0,142.5 232.5,157.5" stroke-width="0" transform=" rotate(0, 225, 150)"/>
    <polygon fill="dodgerblue" opacity="1" points="15.0,185.0 25.0,165.0 35.0,185.0" stroke-width="0" transform=" rotate(0, 25, 175)"/>
    <rect fill="dodgerblue" height="15" opacity="1" stroke-width="0" transform=" rotate(0, 50, 175)" width="15" x="42.5" y="167.5"/>
    <ellipse cx="75.0" cy="175.0" fill="dodgerblue" opacity="1" rx="10.0" ry="10.0" stroke-width="0" transform=" rotate(0, 75, 175)"/>
    <ellipse cx="100.0" cy="175.0" fill="dodgerblue" opacity="1" rx="7.5" ry="7.5" stroke-width="0" transform=" rotate(0, 100, 175)"/>
    <ellipse cx="125.0" cy="175.0" fill="dodgerblue" opacity="1" rx="10.0" ry="10.0" stroke-width="0" transform=" rotate(0, 125, 175)"/>
    <ellipse cx="150.0" cy="175.0" fill="dodgerblue" opacity="1" rx="7.5" ry="7.5" stroke-width="0" transform=" rotate(0, 150, 175)"/>
    <ellipse cx="175.0" cy="175.0" fill="dodgerblue" opacity="1" rx="10.0" ry="10.0" stroke-width="0" transform=" rotate(0, 175, 175)"/>
    <rect fill="dodgerblue" height="15" opacity="1" stroke-width="0" transform=" rotate(0, 200, 175)" width="15" x="192.5" y="167.5"/>
    <polygon fill="dodgerblue" opacity="1" points="215.0,185.0 225.0,165.0 235.0,185.0" stroke-width="0" transform=" rotate(0, 225, 175)"/>
    <polygon fill="dodgerblue" opacity="1" points="17.5,207.5 25.0,192.5 32.5,207.5" stroke-width="0" transform=" rotate(0, 25, 200)"/>
    <rect fill="dodgerblue" height="20" opacity="1" stroke-width="0" transform=" rotate(0, 50, 200)" width="20" x="40.0" y="190.0"/>
    <rect fill="dodgerblue" height="15" opacity="1" stroke-width="0" transform=" rotate(0, 75, 200)" width="15" x="67.5" y="192.5"/>
    <rect fill="dodgerblue" height="20" opacity="1" stroke-width="0" transform=" rotate(0, 100, 200)" width="20" x="90.0" y="190.0"/>
    <rect fill="dodgerblue" height="15" opacity="1" stroke-width="0" transform=" rotate(0, 125, 200)" width="15" x="117.5" y="192.5"/>
    <rect fill="dodgerblue" height="20" opacity="1" stroke-width="0" transform=" rotate(0, 150, 200)" width="20" x="140.0" y="190.0"/>
    <rect fill="dodgerblue" height="15" opacity="1" stroke-width="0" transform=" rotate(0, 175, 200)" width="15" x="167.5" y="192.5"/>
    <rect fill="dodgerblue" height="20" opacity="1" stroke-width="0" transform=" rotate(0, 200, 200)" width="20" x="190.0" y="190.0"/>
    <polygon fill="dodgerblue" opacity="1" points="217.5,207.5 225.0,192.5 232.5,207.5" stroke-width="0" transform=" rotate(0, 225, 200)"/>
    <polygon fill="dodgerblue" opacity="1" points="15.0,235.0 25.0,215.0 35.0,235.0" stroke-width="0" transform=" rotate(0, 25, 225)"/>
    <polygon fill="dodgerblue" opacity="1" points="42.5,232.5 50.0,217.5 57.5,232.5" stroke-width="0" transform=" rotate(0, 50, 225)"/>
    <polygon fill="dodgerblue" opacity="1" points="65.0,235.0 75.0,215.0 85.0,235.0" stroke-width="0" transform=" rotate(0, 75, 225)"/>
    <polygon fill="dodgerblue" opacity="1" points="92.5,232.5 100.0,217.5 107.5,232.5" stroke-width="0" transform=" rotate(0, 100, 225)"/>
    <polygon fill="dodgerblue" opacity="1" points="115.0,235.0 125.0,215.0 135.0,235.0" stroke-width="0" transform=" rotate(0, 125, 225)"/>
    <polygon fill="dodgerblue" opacity="1" points="142.5,232.5 150.0,217.5 157.5,232.5" stroke-width="0" transform=" rotate(0, 150, 225)"/>
    <polygon fill="dodgerblue" opacity="1" points="165.0,235.0 175.0,215.0 185.0,235.0" stroke-width="0" transform=" rotate(0, 175, 225)"/>
    <polygon fill="dodgerblue" opacity="1" points="192.5,232.5 200.0,217.5 207.5,232.5" stroke-width="0" transform=" rotate(0, 200, 225)"/>
    <polygon fill="dodgerblue" opacity="1" points="215.0,235.0 225.0,215.0 235.0,235.0" stroke-width="0" transform=" rotate(0, 225, 225)"/>
  </g>
</svg>
