<?xml version="1.0" encoding="utf-8" ?>
<svg xmlns="http://www.w3.org/2000/svg" xmlns:ev="http://www.w3.org/2001/xml-events" xmlns:xlink="http://www.w3.org/1999/xlink" baseProfile="full" height="250" version="1.1" width="250">
  <defs>
    <linearGradient id="id1441" x1="0" x2="1" y1="0" y2="1">
      <stop offset="0.0" stop-color="dodgerblue"/>
      <stop offset="1.0" stop-color="white"/>
    </linearGradient>
    <linearGradient id="id1442" x1="0" x2="1" y1="0" y2="1">
      <stop offset="0.0" stop-color="dodgerblue"/>
      <stop offset="1.0" stop-color="white"/>
    </linearGradient>
    <linearGradient id="id1443" x1="0" x2="1" y1="0" y2="1">
      <stop offset="0.0" stop-color="dodgerblue"/>
      <stop offset="1.0" stop-color="white"/>
    </linearGradient>
    <linearGradient id="id1444" x1="0" x2="1" y1="0" y2="1">
      <stop offset="0.0" stop-color="dodgerblue"/>
      <stop offset="1.0" stop-color="white"/>
    </linearGradient>
    <linearGradient id="id1445" x1="0" x2="1" y1="0" y2="1">
      <stop offset="0.0" stop-color="dodgerblue"/>
      <stop offset="1.0" stop-color="white"/>
    </linearGradient>
    <linearGradient id="id1446" x1="0" x2="1" y1="0" y2="1">
      <stop offset="0.0" stop-color="dodgerblue"/>
      <stop offset="1.0" stop-color="white"/>
    </linearGradient>
    <linearGradient id="id1447" x1="0" x2="1" y1="0" y2="1">
      <stop offset="0.0" stop-color="dodgerblue"/>
      <stop offset="1.0" stop-color="white"/>
    </linearGradient>
    <linearGradient id="id1448" x1="0" x2="1" y1="0" y2="1">
      <stop offset="0.0" stop-color="dodgerblue"/>
      <stop offset="1.0" stop-color="white"/>
    </linearGradient>
    <linearGradient id="id1449" x1="0" x2="1" y1="0" y2="1">
      <stop offset="0.0" stop-color="dodgerblue"/>
      <stop offset="1.0" stop-color="white"/>
    </linearGradient>
    <linearGradient id="id1450" x1="0" x2="1" y1="0" y2="1">
      <stop offset="0.0" stop-color="dodgerblue"/>
      <stop offset="1.0" stop-color="white"/>
    </linearGradient>
    <linearGradient id="id1451" x1="0" x2="1" y1="0" y2="1">
      <stop offset="0.0" stop-color="dodgerblue"/>
      <stop offset="1.0" stop-color="white"/>
    </linearGradient>
    <linearGradient id="id1452" x1="0" x2="1" y1="0" y2="1">
      <stop offset="0.0" stop-color="dodgerblue"/>
      <stop offset="1.0" stop-color="white"/>
    </linearGradient>
    <linearGradient id="id1453" x1="0" x2="1" y1="0" y2="1">
      <stop offset="0.0" stop-color="dodgerblue"/>
      <stop offset="1.0" stop-color="white"/>
    </linearGradient>
    <linearGradient id="id1454" x1="0" x2="1" y1="0" y2="1">
      <stop offset="0.0" stop-color="dodgerblue"/>
      <stop offset="1.0" stop-color="white"/>
    </linearGradient>
    <linearGradient id="id1455" x1="0" x2="1" y1="0" y2="1">
      <stop offset="0.0" stop-color="dodgerblue"/>
      <stop offset="1.0" stop-color="white"/>
    </linearGradient>
    <linearGradient id="id1456" x1="0" x2="1" y1="0" y2="1">
      <stop offset="0.0" stop-color="dodgerblue"/>
      <stop offset="1.0" stop-color="white"/>
    </linearGradient>
    <linearGradient id="id1457" x1="0" x2="1" y1="0" y2="1">
      <stop offset="0.0" stop-color="dodgerblue"/>
      <stop offset="1.0" stop-color="white"/>
    </linearGradient>
    <linearGradient id="id1458" x1="0" x2="1" y1="0" y2="1">
      <stop offset="0.0" stop-color="dodgerblue"/>
      <stop offset="1.0" stop-color="white"/>
    </linearGradient>
    <linearGradient id="id1459" x1="0" x2="1" y1="0" y2="1">
      <stop offset="0.0" stop-color="dodgerblue"/>
      <stop offset="1.0" stop-color="white"/>
    </linearGradient>
    <linearGradient id="id1460" x1="0" x2="1" y1="0" y2="1">
      <stop offset="0.0" stop-color="dodgerblue"/>
      <stop offset="1.0" stop-color="white"/>
    </linearGradient>
    <linearGradient id="id1461" x1="0" x2="1" y1="0" y2="1">
      <stop offset="0.0" stop-color="dodgerblue"/>
      <stop offset="1.0" stop-color="white"/>
    </linearGradient>
    <linearGradient id="id1462" x1="0" x2="1" y1="0" y2="1">
      <stop offset="0.0" stop-color="dodgerblue"/>
      <stop offset="1.0" stop-color="white"/>
    </linearGradient>
    <linearGradient id="id1463" x1="0" x2="1" y1="0" y2="1">
      <stop offset="0.0" stop-color="dodgerblue"/>
      <stop offset="1.0" stop-color="white"/>
    </linearGradient>
    <linearGradient id="id1464" x1="0" x2="1" y1="0" y2="1">
      <stop offset="0.0" stop-color="dodgerblue"/>
      <stop offset="1.0" stop-color="white"/>
    </linearGradient>
    <linearGradient id="id1465" x1="0" x2="1" y1="0" y2="1">
      <stop offset="0.0" stop-color="dodgerblue"/>
      <stop offset="1.0" stop-color="white"/>
    </linearGradient>
    <linearGradient id="id1466" x1="0" x2="1" y1="0" y2="1">
      <stop offset="0.0" stop-color="dodgerblue"/>
      <stop offset="1.0" stop-color="white"/>
    </linearGradient>
    <linearGradient id="id1467" x1="0" x2="1" y1="0" y2="1">
      <stop offset="0.0" stop-color="dodgerblue"/>
      <stop offset="1.0" stop-color="white"/>
    </linearGradient>
    <linearGradient id="id1468" x1="0" x2="1" y1="0" y2="1">
      <stop offset="0.0" stop-color="dodgerblue"/>
      <stop offset="1.0" stop-color="white"/>
    </linearGradient>
    <linearGradient id="id1469" x1="0" x2="1" y1="0" y2="1">
      <stop offset="0.0" stop-color="dodgerblue"/>
      <stop offset="1.0" stop-color="white"/>
    </linearGradient>
    <linearGradient id="id1470" x1="0" x2="1" y1="0" y2="1">
      <stop offset="0.0" stop-color="dodgerblue"/>
      <stop offset="1.0" stop-color="white"/>
    </linearGradient>
    <linearGradient id="id1471" x1="0" x2="1" y1="0" y2="1">
      <stop offset="0.0" stop-color="dodgerblue"/>
      <stop offset="1.0" stop-color="white"/>
    </linearGradient>
    <linearGradient id="id1472" x1="0" x2="1" y1="0" y2="1">
      <stop offset="0.0" stop-color="dodgerblue"/>
      <stop offset="1.0" stop-color="white"/>
    </linearGradient>
    <linearGradient id="id1473" x1="0" x2="1" y1="0" y2="1">
      <stop offset="0.0" stop-color="dodgerblue"/>
      <stop offset="1.0" stop-color="white"/>
    </linearGradient>
    <linearGradient id="id1474" x1="0" x2="1" y1="0" y2="1">
      <stop offset="0.0" stop-color="dodgerblue"/>
      <stop offset="1.0" stop-color="white"/>
    </linearGradient>
    <linearGradient id="id1475" x1="0" x2="1" y1="0" y2="1">
      <stop offset="0.0" stop-color="dodgerblue"/>
      <stop offset="1.0" stop-color="white"/>
    </linearGradient>
    <linearGradient id="id1476" x1="0" x2="1" y1="0" y2="1">
      <stop offset="0.0" stop-color="dodgerblue"/>
      <stop offset="1.0" stop-color="white"/>
    </linearGradient>
  </defs>
  <g transform=" rotate(0, 125, 125)">
    <rect fill="none" height="250" width="250" x="0" y="0"/>
    <path d="M 40.9,23.8 S 39.9,25.5 34.4,25.7 C 32.4,25.8 31.8,25.5 32.6,27.6 C 33.4,29.7 33.9,30.9 32.9,32.9 C 30.9,33.9 29.6,33.4 27.6,32.6 C 25.5,31.8 25.8,32.3 25.7,34.4 C 25.5,40 23.8,40.9 23.8,40.9 S 22.6,40.7 21.5,39.6 C 17.7,35.8 17.2,30.3 17.1,28.3 C 17.1,27.9 16.8,27.5 16.3,27.5 C 15.4,27.5 14,27.2 12.8,26 C 12.5,25.7 12.2,25.3 12,25 C 11.7,24.6 11.7,24 12,23.6 C 13.3,21.3 13.5,18.5 11.2,16.2 C 8.7,13.7 6.4,13.9 4.9,13.9 L 4.9,5 L 13.8,5 C 13.8,6.5 13.6,8.7 16.1,11.3 C 18.4,13.6 21.2,13.4 23.5,12.1 C 24,11.8 24.5,11.9 24.9,12.1 C 25.2,12.3 25.6,12.6 25.9,12.9 C 27.1,14.1 27.4,15.5 27.4,16.4 C 27.4,16.8 27.8,17.2 28.2,17.2 C 30.2,17.3 35.7,17.8 39.5,21.6 C 40.7,22.6 40.9,23.8 40.9,23.8 Z M 75.6,27.1 C 71.1,27.8 57,30.9 43.9,43.9 C 30.9,56.9 27.8,71.1 27.1,75.6 C 27,76.1 26.4,76.2 26.2,75.8 C 23,70.3 10.8,48.8 5,43.1 L 5,25.4 C 10.8,31.2 21.1,47.6 23.8,51.9 C 24.1,52.4 24.7,52.4 25,51.9 C 26.4,49.7 30.3,44.1 37.2,37.2 C 44.1,30.3 49.7,26.4 51.9,25 C 52.4,24.7 52.4,24.1 51.9,23.8 C 47.6,21.2 31.2,10.8 25.4,5 L 43,5 C 48.8,10.8 70.2,23 75.7,26.2 C 76.1,26.4 76,27 75.6,27.1 Z M 26.1,95 L 13,95 C 9.8,86.2 5,82.7 5,82.7 L 5,62.7 C 9.6,67.2 22.1,87.9 26.1,95 Z M 95,13 L 95,26.1 C 87.9,22.1 67.2,9.6 62.6,5 L 82.6,5 C 82.7,5 86.3,9.8 95,13 Z M 95,35.9 L 95,46.9 C 68.5,46.9 47,68.4 47,94.9 L 36,94.9 C 35.9,62.4 62.4,35.9 95,35.9 Z M 95,49.6 L 95,80 C 86.7,80 80.1,86.7 80.1,94.9 L 49.6,94.9 C 49.6,92.7 50.9,91.7 52.9,91 C 54.8,90.3 54.9,90.5 54.9,88 C 55,85.5 56,83.9 58,83.4 C 58.4,83.3 58.3,88.8 63.6,90.7 C 64.2,90.9 65,84.9 69.3,84.7 C 70.2,84.8 67.7,88 70.9,91.2 C 73.2,93.5 76.1,93.3 77.7,91.6 C 79.3,89.9 81.1,86.3 78.3,83.6 C 75.6,80.9 73.6,82.2 71.9,80.4 C 71,79.5 71,77.9 71,77.1 C 71,76.8 70.8,76.5 70.5,76.6 C 69.7,76.7 68.4,76.7 67.4,75.8 C 66,74.4 66.7,73.7 66.2,73.2 S 65.1,72.9 64.2,72.1 C 62.6,70.5 64.4,68.6 63.6,67.8 C 61.9,66.2 61.5,64.1 62.7,62.8 S 66,62 67.7,63.7 C 68.5,64.5 70.4,62.7 72,64.3 C 72.9,65.2 72.6,65.8 73.1,66.3 S 74.3,66.1 75.7,67.5 C 76.6,68.5 76.6,69.8 76.5,70.6 C 76.5,70.9 76.7,71.2 77,71.1 C 77.9,71 79.4,71 80.3,71.9 C 82.1,73.7 80.8,75.6 83.5,78.3 S 89.9,79.3 91.5,77.7 C 93.2,76 93.4,73.2 91.1,70.9 C 87.9,67.7 84.7,70.2 84.6,69.3 C 84.8,65.1 90.8,64.2 90.6,63.6 C 88.6,58.3 83.2,58.4 83.3,58 C 83.8,56 85.4,55 87.9,54.9 S 90.2,54.8 90.9,52.9 C 91.8,51 92.8,49.6 95,49.6 Z M 95,86.2 L 95,95 L 86.2,95 C 86.2,90.1 90.1,86.2 95,86.2 Z" fill="url(#id1441) none" opacity="1" stroke-width="0" transform=" scale(0.450450, 0.450000) translate(5.550000, 5.555556) rotate(0, 49, 50)"/>
    <path d="M 40.9,23.8 S 39.9,25.5 34.4,25.7 C 32.4,25.8 31.8,25.5 32.6,27.6 C 33.4,29.7 33.9,30.9 32.9,32.9 C 30.9,33.9 29.6,33.4 27.6,32.6 C 25.5,31.8 25.8,32.3 25.7,34.4 C 25.5,40 23.8,40.9 23.8,40.9 S 22.6,40.7 21.5,39.6 C 17.7,35.8 17.2,30.3 17.1,28.3 C 17.1,27.9 16.8,27.5 16.3,27.5 C 15.4,27.5 14,27.2 12.8,26 C 12.5,25.7 12.2,25.3 12,25 C 11.7,24.6 11.7,24 12,23.6 C 13.3,21.3 13.5,18.5 11.2,16.2 C 8.7,13.7 6.4,13.9 4.9,13.9 L 4.9,5 L 13.8,5 C 13.8,6.5 13.6,8.7 16.1,11.3 C 18.4,13.6 21.2,13.4 23.5,12.1 C 24,11.8 24.5,11.9 24.9,12.1 C 25.2,12.3 25.6,12.6 25.9,12.9 C 27.1,14.1 27.4,15.5 27.4,16.4 C 27.4,16.8 27.8,17.2 28.2,17.2 C 30.2,17.3 35.7,17.8 39.5,21.6 C 40.7,22.6 40.9,23.8 40.9,23.8 Z M 75.6,27.1 C 71.1,27.8 57,30.9 43.9,43.9 C 30.9,56.9 27.8,71.1 27.1,75.6 C 27,76.1 26.4,76.2 26.2,75.8 C 23,70.3 10.8,48.8 5,43.1 L 5,25.4 C 10.8,31.2 21.1,47.6 23.8,51.9 C 24.1,52.4 24.7,52.4 25,51.9 C 26.4,49.7 30.3,44.1 37.2,37.2 C 44.1,30.3 49.7,26.4 51.9,25 C 52.4,24.7 52.4,24.1 51.9,23.8 C 47.6,21.2 31.2,10.8 25.4,5 L 43,5 C 48.8,10.8 70.2,23 75.7,26.2 C 76.1,26.4 76,27 75.6,27.1 Z M 26.1,95 L 13,95 C 9.8,86.2 5,82.7 5,82.7 L 5,62.7 C 9.6,67.2 22.1,87.9 26.1,95 Z M 95,13 L 95,26.1 C 87.9,22.1 67.2,9.6 62.6,5 L 82.6,5 C 82.7,5 86.3,9.8 95,13 Z M 95,35.9 L 95,46.9 C 68.5,46.9 47,68.4 47,94.9 L 36,94.9 C 35.9,62.4 62.4,35.9 95,35.9 Z M 95,49.6 L 95,80 C 86.7,80 80.1,86.7 80.1,94.9 L 49.6,94.9 C 49.6,92.7 50.9,91.7 52.9,91 C 54.8,90.3 54.9,90.5 54.9,88 C 55,85.5 56,83.9 58,83.4 C 58.4,83.3 58.3,88.8 63.6,90.7 C 64.2,90.9 65,84.9 69.3,84.7 C 70.2,84.8 67.7,88 70.9,91.2 C 73.2,93.5 76.1,93.3 77.7,91.6 C 79.3,89.9 81.1,86.3 78.3,83.6 C 75.6,80.9 73.6,82.2 71.9,80.4 C 71,79.5 71,77.9 71,77.1 C 71,76.8 70.8,76.5 70.5,76.6 C 69.7,76.7 68.4,76.7 67.4,75.8 C 66,74.4 66.7,73.7 66.2,73.2 S 65.1,72.9 64.2,72.1 C 62.6,70.5 64.4,68.6 63.6,67.8 C 61.9,66.2 61.5,64.1 62.7,62.8 S 66,62 67.7,63.7 C 68.5,64.5 70.4,62.7 72,64.3 C 72.9,65.2 72.6,65.8 73.1,66.3 S 74.3,66.1 75.7,67.5 C 76.6,68.5 76.6,69.8 76.5,70.6 C 76.5,70.9 76.7,71.2 77,71.1 C 77.9,71 79.4,71 80.3,71.9 C 82.1,73.7 80.8,75.6 83.5,78.3 S 89.9,79.3 91.5,77.7 C 93.2,76 93.4,73.2 91.1,70.9 C 87.9,67.7 84.7,70.2 84.6,69.3 C 84.8,65.1 90.8,64.2 90.6,63.6 C 88.6,58.3 83.2,58.4 83.3,58 C 83.8,56 85.4,55 87.9,54.9 S 90.2,54.8 90.9,52.9 C 91.8,51 92.8,49.6 95,49.6 Z M 95,86.2 L 95,95 L 86.2,95 C 86.2,90.1 90.1,86.2 95,86.2 Z" fill="url(#id1442) none" opacity="1" stroke-width="0" transform=" scale(0.450450, 0.450000) translate(94.350000, 5.555556) rotate(90, 49, 50)"/>
    <path d="M 40.9,23.8 S 39.9,25.5 34.4,25.7 C 32.4,25.8 31.8,25.5 32.6,27.6 C 33.4,29.7 33.9,30.9 32.9,32.9 C 30.9,33.9 29.6,33.4 27.6,32.6 C 25.5,31.8 25.8,32.3 25.7,34.4 C 25.5,40 23.8,40.9 23.8,40.9 S 22.6,40.7 21.5,39.6 C 17.7,35.8 17.2,30.3 17.1,28.3 C 17.1,27.9 16.8,27.5 16.3,27.5 C 15.4,27.5 14,27.2 12.8,26 C 12.5,25.7 12.2,25.3 12,25 C 11.7,24.6 11.7,24 12,23.6 C 13.3,21.3 13.5,18.5 11.2,16.2 C 8.7,13.7 6.4,13.9 4.9,13.9 L 4.9,5 L 13.8,5 C 13.8,6.5 13.6,8.7 16.1,11.3 C 18.4,13.6 21.2,13.4 23.5,12.1 C 24,11.8 24.5,11.9 24.9,12.1 C 25.2,12.3 25.6,12.6 25.9,12.9 C 27.1,14.1 27.4,15.5 27.4,16.4 C 27.4,16.8 27.8,17.2 28.2,17.2 C 30.2,17.3 35.7,17.8 39.5,21.6 C 40.7,22.6 40.9,23.8 40.9,23.8 Z M 75.6,27.1 C 71.1,27.8 57,30.9 43.9,43.9 C 30.9,56.9 27.8,71.1 27.1,75.6 C 27,76.1 26.4,76.2 26.2,75.8 C 23,70.3 10.8,48.8 5,43.1 L 5,25.4 C 10.8,31.2 21.1,47.6 23.8,51.9 C 24.1,52.4 24.7,52.4 25,51.9 C 26.4,49.7 30.3,44.1 37.2,37.2 C 44.1,30.3 49.7,26.4 51.9,25 C 52.4,24.7 52.4,24.1 51.9,23.8 C 47.6,21.2 31.2,10.8 25.4,5 L 43,5 C 48.8,10.8 70.2,23 75.7,26.2 C 76.1,26.4 76,27 75.6,27.1 Z M 26.1,95 L 13,95 C 9.8,86.2 5,82.7 5,82.7 L 5,62.7 C 9.6,67.2 22.1,87.9 26.1,95 Z M 95,13 L 95,26.1 C 87.9,22.1 67.2,9.6 62.6,5 L 82.6,5 C 82.7,5 86.3,9.8 95,13 Z M 95,35.9 L 95,46.9 C 68.5,46.9 47,68.4 47,94.9 L 36,94.9 C 35.9,62.4 62.4,35.9 95,35.9 Z M 95,49.6 L 95,80 C 86.7,80 80.1,86.7 80.1,94.9 L 49.6,94.9 C 49.6,92.7 50.9,91.7 52.9,91 C 54.8,90.3 54.9,90.5 54.9,88 C 55,85.5 56,83.9 58,83.4 C 58.4,83.3 58.3,88.8 63.6,90.7 C 64.2,90.9 65,84.9 69.3,84.7 C 70.2,84.8 67.7,88 70.9,91.2 C 73.2,93.5 76.1,93.3 77.7,91.6 C 79.3,89.9 81.1,86.3 78.3,83.6 C 75.6,80.9 73.6,82.2 71.9,80.4 C 71,79.5 71,77.9 71,77.1 C 71,76.8 70.8,76.5 70.5,76.6 C 69.7,76.7 68.4,76.7 67.4,75.8 C 66,74.4 66.7,73.7 66.2,73.2 S 65.1,72.9 64.2,72.1 C 62.6,70.5 64.4,68.6 63.6,67.8 C 61.9,66.2 61.5,64.1 62.7,62.8 S 66,62 67.7,63.7 C 68.5,64.5 70.4,62.7 72,64.3 C 72.9,65.2 72.6,65.8 73.1,66.3 S 74.3,66.1 75.7,67.5 C 76.6,68.5 76.6,69.8 76.5,70.6 C 76.5,70.9 76.7,71.2 77,71.1 C 77.9,71 79.4,71 80.3,71.9 C 82.1,73.7 80.8,75.6 83.5,78.3 S 89.9,79.3 91.5,77.7 C 93.2,76 93.4,73.2 91.1,70.9 C 87.9,67.7 84.7,70.2 84.6,69.3 C 84.8,65.1 90.8,64.2 90.6,63.6 C 88.6,58.3 83.2,58.4 83.3,58 C 83.8,56 85.4,55 87.9,54.9 S 90.2,54.8 90.9,52.9 C 91.8,51 92.8,49.6 95,49.6 Z M 95,86.2 L 95,95 L 86.2,95 C 86.2,90.1 90.1,86.2 95,86.2 Z" fill="url(#id1443) none" opacity="1" stroke-width="0" transform=" scale(0.450450, 0.450000) translate(183.150000, 5.555556) rotate(0, 49, 50)"/>
    <path d="M 40.9,23.8 S 39.9,25.5 34.4,25.7 C 32.4,25.8 31.8,25.5 32.6,27.6 C 33.4,29.7 33.9,30.9 32.9,32.9 C 30.9,33.9 29.6,33.4 27.6,32.6 C 25.5,31.8 25.8,32.3 25.7,34.4 C 25.5,40 23.8,40.9 23.8,40.9 S 22.6,40.7 21.5,39.6 C 17.7,35.8 17.2,30.3 17.1,28.3 C 17.1,27.9 16.8,27.5 16.3,27.5 C 15.4,27.5 14,27.2 12.8,26 C 12.5,25.7 12.2,25.3 12,25 C 11.7,24.6 11.7,24 12,23.6 C 13.3,21.3 13.5,18.5 11.2,16.2 C 8.7,13.7 6.4,13.9 4.9,13.9 L 4.9,5 L 13.8,5 C 13.8,6.5 13.6,8.7 16.1,11.3 C 18.4,13.6 21.2,13.4 23.5,12.1 C 24,11.8 24.5,11.9 24.9,12.1 C 25.2,12.3 25.6,12.6 25.9,12.9 C 27.1,14.1 27.4,15.5 27.4,16.4 C 27.4,16.8 27.8,17.2 28.2,17.2 C 30.2,17.3 35.7,17.8 39.5,21.6 C 40.7,22.6 40.9,23.8 40.9,23.8 Z M 75.6,27.1 C 71.1,27.8 57,30.9 43.9,43.9 C 30.9,56.9 27.8,71.1 27.1,75.6 C 27,76.1 26.4,76.2 26.2,75.8 C 23,70.3 10.8,48.8 5,43.1 L 5,25.4 C 10.8,31.2 21.1,47.6 23.8,51.9 C 24.1,52.4 24.7,52.4 25,51.9 C 26.4,49.7 30.3,44.1 37.2,37.2 C 44.1,30.3 49.7,26.4 51.9,25 C 52.4,24.7 52.4,24.1 51.9,23.8 C 47.6,21.2 31.2,10.8 25.4,5 L 43,5 C 48.8,10.8 70.2,23 75.7,26.2 C 76.1,26.4 76,27 75.6,27.1 Z M 26.1,95 L 13,95 C 9.8,86.2 5,82.7 5,82.7 L 5,62.7 C 9.6,67.2 22.1,87.9 26.1,95 Z M 95,13 L 95,26.1 C 87.9,22.1 67.2,9.6 62.6,5 L 82.6,5 C 82.7,5 86.3,9.8 95,13 Z M 95,35.9 L 95,46.9 C 68.5,46.9 47,68.4 47,94.9 L 36,94.9 C 35.9,62.4 62.4,35.9 95,35.9 Z M 95,49.6 L 95,80 C 86.7,80 80.1,86.7 80.1,94.9 L 49.6,94.9 C 49.6,92.7 50.9,91.7 52.9,91 C 54.8,90.3 54.9,90.5 54.9,88 C 55,85.5 56,83.9 58,83.4 C 58.4,83.3 58.3,88.8 63.6,90.7 C 64.2,90.9 65,84.9 69.3,84.7 C 70.2,84.8 67.7,88 70.9,91.2 C 73.2,93.5 76.1,93.3 77.7,91.6 C 79.3,89.9 81.1,86.3 78.3,83.6 C 75.6,80.9 73.6,82.2 71.9,80.4 C 71,79.5 71,77.9 71,77.1 C 71,76.8 70.8,76.5 70.5,76.6 C 69.7,76.7 68.4,76.7 67.4,75.8 C 66,74.4 66.7,73.7 66.2,73.2 S 65.1,72.9 64.2,72.1 C 62.6,70.5 64.4,68.6 63.6,67.8 C 61.9,66.2 61.5,64.1 62.7,62.8 S 66,62 67.7,63.7 C 68.5,64.5 70.4,62.7 72,64.3 C 72.9,65.2 72.6,65.8 73.1,66.3 S 74.3,66.1 75.7,67.5 C 76.6,68.5 76.6,69.8 76.5,70.6 C 76.5,70.9 76.7,71.2 77,71.1 C 77.9,71 79.4,71 80.3,71.9 C 82.1,73.7 80.8,75.6 83.5,78.3 S 89.9,79.3 91.5,77.7 C 93.2,76 93.4,73.2 91.1,70.9 C 87.9,67.7 84.7,70.2 84.6,69.3 C 84.8,65.1 90.8,64.2 90.6,63.6 C 88.6,58.3 83.2,58.4 83.3,58 C 83.8,56 85.4,55 87.9,54.9 S 90.2,54.8 90.9,52.9 C 91.8,51 92.8,49.6 95,49.6 Z M 95,86.2 L 95,95 L 86.2,95 C 86.2,90.1 90.1,86.2 95,86.2 Z" fill="url(#id1444) none" opacity="1" stroke-width="0" transform=" scale(0.450450, 0.450000) translate(271.950000, 5.555556) rotate(90, 49, 50)"/>
    <path d="M 40.9,23.8 S 39.9,25.5 34.4,25.7 C 32.4,25.8 31.8,25.5 32.6,27.6 C 33.4,29.7 33.9,30.9 32.9,32.9 C 30.9,33.9 29.6,33.4 27.6,32.6 C 25.5,31.8 25.8,32.3 25.7,34.4 C 25.5,40 23.8,40.9 23.8,40.9 S 22.6,40.7 21.5,39.6 C 17.7,35.8 17.2,30.3 17.1,28.3 C 17.1,27.9 16.8,27.5 16.3,27.5 C 15.4,27.5 14,27.2 12.8,26 C 12.5,25.7 12.2,25.3 12,25 C 11.7,24.6 11.7,24 12,23.6 C 13.3,21.3 13.5,18.5 11.2,16.2 C 8.7,13.7 6.4,13.9 4.9,13.9 L 4.9,5 L 13.8,5 C 13.8,6.5 13.6,8.7 16.1,11.3 C 18.4,13.6 21.2,13.4 23.5,12.1 C 24,11.8 24.5,11.9 24.9,12.1 C 25.2,12.3 25.6,12.6 25.9,12.9 C 27.1,14.1 27.4,15.5 27.4,16.4 C 27.4,16.8 27.8,17.2 28.2,17.2 C 30.2,17.3 35.7,17.8 39.5,21.6 C 40.7,22.6 40.9,23.8 40.9,23.8 Z M 75.6,27.1 C 71.1,27.8 57,30.9 43.9,43.9 C 30.9,56.9 27.8,71.1 27.1,75.6 C 27,76.1 26.4,76.2 26.2,75.8 C 23,70.3 10.8,48.8 5,43.1 L 5,25.4 C 10.8,31.2 21.1,47.6 23.8,51.9 C 24.1,52.4 24.7,52.4 25,51.9 C 26.4,49.7 30.3,44.1 37.2,37.2 C 44.1,30.3 49.7,26.4 51.9,25 C 52.4,24.7 52.4,24.1 51.9,23.8 C 47.6,21.2 31.2,10.8 25.4,5 L 43,5 C 48.8,10.8 70.2,23 75.7,26.2 C 76.1,26.4 76,27 75.6,27.1 Z M 26.1,95 L 13,95 C 9.8,86.2 5,82.7 5,82.7 L 5,62.7 C 9.6,67.2 22.1,87.9 26.1,95 Z M 95,13 L 95,26.1 C 87.9,22.1 67.2,9.6 62.6,5 L 82.6,5 C 82.7,5 86.3,9.8 95,13 Z M 95,35.9 L 95,46.9 C 68.5,46.9 47,68.4 47,94.9 L 36,94.9 C 35.9,62.4 62.4,35.9 95,35.9 Z M 95,49.6 L 95,80 C 86.7,80 80.1,86.7 80.1,94.9 L 49.6,94.9 C 49.6,92.7 50.9,91.7 52.9,91 C 54.8,90.3 54.9,90.5 54.9,88 C 55,85.5 56,83.9 58,83.4 C 58.4,83.3 58.3,88.8 63.6,90.7 C 64.2,90.9 65,84.9 69.3,84.7 C 70.2,84.8 67.7,88 70.9,91.2 C 73.2,93.5 76.1,93.3 77.7,91.6 C 79.3,89.9 81.1,86.3 78.3,83.6 C 75.6,80.9 73.6,82.2 71.9,80.4 C 71,79.5 71,77.9 71,77.1 C 71,76.8 70.8,76.5 70.5,76.6 C 69.7,76.7 68.4,76.7 67.4,75.8 C 66,74.4 66.7,73.7 66.2,73.2 S 65.1,72.9 64.2,72.1 C 62.6,70.5 64.4,68.6 63.6,67.8 C 61.9,66.2 61.5,64.1 62.7,62.8 S 66,62 67.7,63.7 C 68.5,64.5 70.4,62.7 72,64.3 C 72.9,65.2 72.6,65.8 73.1,66.3 S 74.3,66.1 75.7,67.5 C 76.6,68.5 76.6,69.8 76.5,70.6 C 76.5,70.9 76.7,71.2 77,71.1 C 77.9,71 79.4,71 80.3,71.9 C 82.1,73.7 80.8,75.6 83.5,78.3 S 89.9,79.3 91.5,77.7 C 93.2,76 93.4,73.2 91.1,70.9 C 87.9,67.7 84.7,70.2 84.6,69.3 C 84.8,65.1 90.8,64.2 90.6,63.6 C 88.6,58.3 83.2,58.4 83.3,58 C 83.8,56 85.4,55 87.9,54.9 S 90.2,54.8 90.9,52.9 C 91.8,51 92.8,49.6 95,49.6 Z M 95,86.2 L 95,95 L 86.2,95 C 86.2,90.1 90.1,86.2 95,86.2 Z" fill="url(#id1445) none" opacity="1" stroke-width="0" transform=" scale(0.450450, 0.450000) translate(360.750000, 5.555556) rotate(0, 49, 50)"/>
    <path d="M 40.9,23.8 S 39.9,25.5 34.4,25.7 C 32.4,25.8 31.8,25.5 32.6,27.6 C 33.4,29.7 33.9,30.9 32.9,32.9 C 30.9,33.9 29.6,33.4 27.6,32.6 C 25.5,31.8 25.8,32.3 25.7,34.4 C 25.5,40 23.8,40.9 23.8,40.9 S 22.6,40.7 21.5,39.6 C 17.7,35.8 17.2,30.3 17.1,28.3 C 17.1,27.9 16.8,27.5 16.3,27.5 C 15.4,27.5 14,27.2 12.8,26 C 12.5,25.7 12.2,25.3 12,25 C 11.7,24.6 11.7,24 12,23.6 C 13.3,21.3 13.5,18.5 11.2,16.2 C 8.7,13.7 6.4,13.9 4.9,13.9 L 4.9,5 L 13.8,5 C 13.8,6.5 13.6,8.7 16.1,11.3 C 18.4,13.6 21.2,13.4 23.5,12.1 C 24,11.8 24.5,11.9 24.9,12.1 C 25.2,12.3 25.6,12.6 25.9,12.9 C 27.1,14.1 27.4,15.5 27.4,16.4 C 27.4,16.8 27.8,17.2 28.2,17.2 C 30.2,17.3 35.7,17.8 39.5,21.6 C 40.7,22.6 40.9,23.8 40.9,23.8 Z M 75.6,27.1 C 71.1,27.8 57,30.9 43.9,43.9 C 30.9,56.9 27.8,71.1 27.1,75.6 C 27,76.1 26.4,76.2 26.2,75.8 C 23,70.3 10.8,48.8 5,43.1 L 5,25.4 C 10.8,31.2 21.1,47.6 23.8,51.9 C 24.1,52.4 24.7,52.4 25,51.9 C 26.4,49.7 30.3,44.1 37.2,37.2 C 44.1,30.3 49.7,26.4 51.9,25 C 52.4,24.7 52.4,24.1 51.9,23.8 C 47.6,21.2 31.2,10.8 25.4,5 L 43,5 C 48.8,10.8 70.2,23 75.7,26.2 C 76.1,26.4 76,27 75.6,27.1 Z M 26.1,95 L 13,95 C 9.8,86.2 5,82.7 5,82.7 L 5,62.7 C 9.6,67.2 22.1,87.9 26.1,95 Z M 95,13 L 95,26.1 C 87.9,22.1 67.2,9.6 62.6,5 L 82.6,5 C 82.7,5 86.3,9.8 95,13 Z M 95,35.9 L 95,46.9 C 68.5,46.9 47,68.4 47,94.9 L 36,94.9 C 35.9,62.4 62.4,35.9 95,35.9 Z M 95,49.6 L 95,80 C 86.7,80 80.1,86.7 80.1,94.9 L 49.6,94.9 C 49.6,92.7 50.9,91.7 52.9,91 C 54.8,90.3 54.9,90.5 54.9,88 C 55,85.5 56,83.9 58,83.4 C 58.4,83.3 58.3,88.8 63.6,90.7 C 64.2,90.9 65,84.9 69.3,84.7 C 70.2,84.8 67.7,88 70.9,91.2 C 73.2,93.5 76.1,93.3 77.7,91.6 C 79.3,89.9 81.1,86.3 78.3,83.6 C 75.6,80.9 73.6,82.2 71.9,80.4 C 71,79.5 71,77.9 71,77.1 C 71,76.8 70.8,76.5 70.5,76.6 C 69.7,76.7 68.4,76.7 67.4,75.8 C 66,74.4 66.7,73.7 66.2,73.2 S 65.1,72.9 64.2,72.1 C 62.6,70.5 64.4,68.6 63.6,67.8 C 61.9,66.2 61.5,64.1 62.7,62.8 S 66,62 67.7,63.7 C 68.5,64.5 70.4,62.7 72,64.3 C 72.9,65.2 72.6,65.8 73.1,66.3 S 74.3,66.1 75.7,67.5 C 76.6,68.5 76.6,69.8 76.5,70.6 C 76.5,70.9 76.7,71.2 77,71.1 C 77.9,71 79.4,71 80.3,71.9 C 82.1,73.7 80.8,75.6 83.5,78.3 S 89.9,79.3 91.5,77.7 C 93.2,76 93.4,73.2 91.1,70.9 C 87.9,67.7 84.7,70.2 84.6,69.3 C 84.8,65.1 90.8,64.2 90.6,63.6 C 88.6,58.3 83.2,58.4 83.3,58 C 83.8,56 85.4,55 87.9,54.9 S 90.2,54.8 90.9,52.9 C 91.8,51 92.8,49.6 95,49.6 Z M 95,86.2 L 95,95 L 86.2,95 C 86.2,90.1 90.1,86.2 95,86.2 Z" fill="url(#id1446) none" opacity="1" stroke-width="0" transform=" scale(0.450450, 0.450000) translate(449.550000, 5.555556) rotate(90, 49, 50)"/>
    <path d="M 40.9,23.8 S 39.9,25.5 34.4,25.7 C 32.4,25.8 31.8,25.5 32.6,27.6 C 33.4,29.7 33.9,30.9 32.9,32.9 C 30.9,33.9 29.6,33.4 27.6,32.6 C 25.5,31.8 25.8,32.3 25.7,34.4 C 25.5,40 23.8,40.9 23.8,40.9 S 22.6,40.7 21.5,39.6 C 17.7,35.8 17.2,30.3 17.1,28.3 C 17.1,27.9 16.8,27.5 16.3,27.5 C 15.4,27.5 14,27.2 12.8,26 C 12.5,25.7 12.2,25.3 12,25 C 11.7,24.6 11.7,24 12,23.6 C 13.3,21.3 13.5,18.5 11.2,16.2 C 8.7,13.7 6.4,13.9 4.9,13.9 L 4.9,5 L 13.8,5 C 13.8,6.5 13.6,8.7 16.1,11.3 C 18.4,13.6 21.2,13.4 23.5,12.1 C 24,11.8 24.5,11.9 24.9,12.1 C 25.2,12.3 25.6,12.6 25.9,12.9 C 27.1,14.1 27.4,15.5 27.4,16.4 C 27.4,16.8 27.8,17.2 28.2,17.2 C 30.2,17.3 35.7,17.8 39.5,21.6 C 40.7,22.6 40.9,23.8 40.9,23.8 Z M 75.6,27.1 C 71.1,27.8 57,30.9 43.9,43.9 C 30.9,56.9 27.8,71.1 27.1,75.6 C 27,76.1 26.4,76.2 26.2,75.8 C 23,70.3 10.8,48.8 5,43.1 L 5,25.4 C 10.8,31.2 21.1,47.6 23.8,51.9 C 24.1,52.4 24.7,52.4 25,51.9 C 26.4,49.7 30.3,44.1 37.2,37.2 C 44.1,30.3 49.7,26.4 51.9,25 C 52.4,24.7 52.4,24.1 51.9,23.8 C 47.6,21.2 31.2,10.8 25.4,5 L 43,5 C 48.8,10.8 70.2,23 75.7,26.2 C 76.1,26.4 76,27 75.6,27.1 Z M 26.1,95 L 13,95 C 9.8,86.2 5,82.7 5,82.7 L 5,62.7 C 9.6,67.2 22.1,87.9 26.1,95 Z M 95,13 L 95,26.1 C 87.9,22.1 67.2,9.6 62.6,5 L 82.6,5 C 82.7,5 86.3,9.8 95,13 Z M 95,35.9 L 95,46.9 C 68.5,46.9 47,68.4 47,94.9 L 36,94.9 C 35.9,62.4 62.4,35.9 95,35.9 Z M 95,49.6 L 95,80 C 86.7,80 80.1,86.7 80.1,94.9 L 49.6,94.9 C 49.6,92.7 50.9,91.7 52.9,91 C 54.8,90.3 54.9,90.5 54.9,88 C 55,85.5 56,83.9 58,83.4 C 58.4,83.3 58.3,88.8 63.6,90.7 C 64.2,90.9 65,84.9 69.3,84.7 C 70.2,84.8 67.7,88 70.9,91.2 C 73.2,93.5 76.1,93.3 77.7,91.6 C 79.3,89.9 81.1,86.3 78.3,83.6 C 75.6,80.9 73.6,82.2 71.9,80.4 C 71,79.5 71,77.9 71,77.1 C 71,76.8 70.8,76.5 70.5,76.6 C 69.7,76.7 68.4,76.7 67.4,75.8 C 66,74.4 66.7,73.7 66.2,73.2 S 65.1,72.9 64.2,72.1 C 62.6,70.5 64.4,68.6 63.6,67.8 C 61.9,66.2 61.5,64.1 62.7,62.8 S 66,62 67.7,63.7 C 68.5,64.5 70.4,62.7 72,64.3 C 72.9,65.2 72.6,65.8 73.1,66.3 S 74.3,66.1 75.7,67.5 C 76.6,68.5 76.6,69.8 76.5,70.6 C 76.5,70.9 76.7,71.2 77,71.1 C 77.9,71 79.4,71 80.3,71.9 C 82.1,73.7 80.8,75.6 83.5,78.3 S 89.9,79.3 91.5,77.7 C 93.2,76 93.4,73.2 91.1,70.9 C 87.9,67.7 84.7,70.2 84.6,69.3 C 84.8,65.1 90.8,64.2 90.6,63.6 C 88.6,58.3 83.2,58.4 83.3,58 C 83.8,56 85.4,55 87.9,54.9 S 90.2,54.8 90.9,52.9 C 91.8,51 92.8,49.6 95,49.6 Z M 95,86.2 L 95,95 L 86.2,95 C 86.2,90.1 90.1,86.2 95,86.2 Z" fill="url(#id1447) none" opacity="1" stroke-width="0" transform=" scale(0.450450, 0.450000) translate(5.550000, 94.444444) rotate(270, 49, 50)"/>
    <path d="M 40.9,23.8 S 39.9,25.5 34.4,25.7 C 32.4,25.8 31.8,25.5 32.6,27.6 C 33.4,29.7 33.9,30.9 32.9,32.9 C 30.9,33.9 29.6,33.4 27.6,32.6 C 25.5,31.8 25.8,32.3 25.7,34.4 C 25.5,40 23.8,40.9 23.8,40.9 S 22.6,40.7 21.5,39.6 C 17.7,35.8 17.2,30.3 17.1,28.3 C 17.1,27.9 16.8,27.5 16.3,27.5 C 15.4,27.5 14,27.2 12.8,26 C 12.5,25.7 12.2,25.3 12,25 C 11.7,24.6 11.7,24 12,23.6 C 13.3,21.3 13.5,18.5 11.2,16.2 C 8.7,13.7 6.4,13.9 4.9,13.9 L 4.9,5 L 13.8,5 C 13.8,6.5 13.6,8.7 16.1,11.3 C 18.4,13.6 21.2,13.4 23.5,12.1 C 24,11.8 24.5,11.9 24.9,12.1 C 25.2,12.3 25.6,12.6 25.9,12.9 C 27.1,14.1 27.4,15.5 27.4,16.4 C 27.4,16.8 27.8,17.2 28.2,17.2 C 30.2,17.3 35.7,17.8 39.5,21.6 C 40.7,22.6 40.9,23.8 40.9,23.8 Z M 75.6,27.1 C 71.1,27.8 57,30.9 43.9,43.9 C 30.9,56.9 27.8,71.1 27.1,75.6 C 27,76.1 26.4,76.2 26.2,75.8 C 23,70.3 10.8,48.8 5,43.1 L 5,25.4 C 10.8,31.2 21.1,47.6 23.8,51.9 C 24.1,52.4 24.7,52.4 25,51.9 C 26.4,49.7 30.3,44.1 37.2,37.2 C 44.1,30.3 49.7,26.4 51.9,25 C 52.4,24.7 52.4,24.1 51.9,23.8 C 47.6,21.2 31.2,10.8 25.4,5 L 43,5 C 48.8,10.8 70.2,23 75.7,26.2 C 76.1,26.4 76,27 75.6,27.1 Z M 26.1,95 L 13,95 C 9.8,86.2 5,82.7 5,82.7 L 5,62.7 C 9.6,67.2 22.1,87.9 26.1,95 Z M 95,13 L 95,26.1 C 87.9,22.1 67.2,9.6 62.6,5 L 82.6,5 C 82.7,5 86.3,9.8 95,13 Z M 95,35.9 L 95,46.9 C 68.5,46.9 47,68.4 47,94.9 L 36,94.9 C 35.9,62.4 62.4,35.9 95,35.9 Z M 95,49.6 L 95,80 C 86.7,80 80.1,86.7 80.1,94.9 L 49.6,94.9 C 49.6,92.7 50.9,91.7 52.9,91 C 54.8,90.3 54.9,90.5 54.9,88 C 55,85.5 56,83.9 58,83.4 C 58.4,83.3 58.3,88.8 63.6,90.7 C 64.2,90.9 65,84.9 69.3,84.7 C 70.2,84.8 67.7,88 70.9,91.2 C 73.2,93.5 76.1,93.3 77.7,91.6 C 79.3,89.9 81.1,86.3 78.3,83.6 C 75.6,80.9 73.6,82.2 71.9,80.4 C 71,79.5 71,77.9 71,77.1 C 71,76.8 70.8,76.5 70.5,76.6 C 69.7,76.7 68.4,76.7 67.4,75.8 C 66,74.4 66.7,73.7 66.2,73.2 S 65.1,72.9 64.2,72.1 C 62.6,70.5 64.4,68.6 63.6,67.8 C 61.9,66.2 61.5,64.1 62.7,62.8 S 66,62 67.7,63.7 C 68.5,64.5 70.4,62.7 72,64.3 C 72.9,65.2 72.6,65.8 73.1,66.3 S 74.3,66.1 75.7,67.5 C 76.6,68.5 76.6,69.8 76.5,70.6 C 76.5,70.9 76.7,71.2 77,71.1 C 77.9,71 79.4,71 80.3,71.9 C 82.1,73.7 80.8,75.6 83.5,78.3 S 89.9,79.3 91.5,77.7 C 93.2,76 93.4,73.2 91.1,70.9 C 87.9,67.7 84.7,70.2 84.6,69.3 C 84.8,65.1 90.8,64.2 90.6,63.6 C 88.6,58.3 83.2,58.4 83.3,58 C 83.8,56 85.4,55 87.9,54.9 S 90.2,54.8 90.9,52.9 C 91.8,51 92.8,49.6 95,49.6 Z M 95,86.2 L 95,95 L 86.2,95 C 86.2,90.1 90.1,86.2 95,86.2 Z" fill="url(#id1448) none" opacity="1" stroke-width="0" transform=" scale(0.450450, 0.450000) translate(94.350000, 94.444444) rotate(180, 49, 50)"/>
    <path d="M 40.9,23.8 S 39.9,25.5 34.4,25.7 C 32.4,25.8 31.8,25.5 32.6,27.6 C 33.4,29.7 33.9,30.9 32.9,32.9 C 30.9,33.9 29.6,33.4 27.6,32.6 C 25.5,31.8 25.8,32.3 25.7,34.4 C 25.5,40 23.8,40.9 23.8,40.9 S 22.6,40.7 21.5,39.6 C 17.7,35.8 17.2,30.3 17.1,28.3 C 17.1,27.9 16.8,27.5 16.3,27.5 C 15.4,27.5 14,27.2 12.8,26 C 12.5,25.7 12.2,25.3 12,25 C 11.7,24.6 11.7,24 12,23.6 C 13.3,21.3 13.5,18.5 11.2,16.2 C 8.7,13.7 6.4,13.9 4.9,13.9 L 4.9,5 L 13.8,5 C 13.8,6.5 13.6,8.7 16.1,11.3 C 18.4,13.6 21.2,13.4 23.5,12.1 C 24,11.8 24.5,11.9 24.9,12.1 C 25.2,12.3 25.6,12.6 25.9,12.9 C 27.1,14.1 27.4,15.5 27.4,16.4 C 27.4,16.8 27.8,17.2 28.2,17.2 C 30.2,17.3 35.7,17.8 39.5,21.6 C 40.7,22.6 40.9,23.8 40.9,23.8 Z M 75.6,27.1 C 71.1,27.8 57,30.9 43.9,43.9 C 30.9,56.9 27.8,71.1 27.1,75.6 C 27,76.1 26.4,76.2 26.2,75.8 C 23,70.3 10.8,48.8 5,43.1 L 5,25.4 C 10.8,31.2 21.1,47.6 23.8,51.9 C 24.1,52.4 24.7,52.4 25,51.9 C 26.4,49.7 30.3,44.1 37.2,37.2 C 44.1,30.3 49.7,26.4 51.9,25 C 52.4,24.7 52.4,24.1 51.9,23.8 C 47.6,21.2 31.2,10.8 25.4,5 L 43,5 C 48.8,10.8 70.2,23 75.7,26.2 C 76.1,26.4 76,27 75.6,27.1 Z M 26.1,95 L 13,95 C 9.8,86.2 5,82.7 5,82.7 L 5,62.7 C 9.6,67.2 22.1,87.9 26.1,95 Z M 95,13 L 95,26.1 C 87.9,22.1 67.2,9.6 62.6,5 L 82.6,5 C 82.7,5 86.3,9.8 95,13 Z M 95,35.9 L 95,46.9 C 68.5,46.9 47,68.4 47,94.9 L 36,94.9 C 35.9,62.4 62.4,35.9 95,35.9 Z M 95,49.6 L 95,80 C 86.7,80 80.1,86.7 80.1,94.9 L 49.6,94.9 C 49.6,92.7 50.9,91.7 52.9,91 C 54.8,90.3 54.9,90.5 54.9,88 C 55,85.5 56,83.9 58,83.4 C 58.4,83.3 58.3,88.8 63.6,90.7 C 64.2,90.9 65,84.9 69.3,84.7 C 70.2,84.8 67.7,88 70.9,91.2 C 73.2,93.5 76.1,93.3 77.7,91.6 C 79.3,89.9 81.1,86.3 78.3,83.6 C 75.6,80.9 73.6,82.2 71.9,80.4 C 71,79.5 71,77.9 71,77.1 C 71,76.8 70.8,76.5 70.5,76.6 C 69.7,76.7 68.4,76.7 67.4,75.8 C 66,74.4 66.7,73.7 66.2,73.2 S 65.1,72.9 64.2,72.1 C 62.6,70.5 64.4,68.6 63.6,67.8 C 61.9,66.2 61.5,64.1 62.7,62.8 S 66,62 67.7,63.7 C 68.5,64.5 70.4,62.7 72,64.3 C 72.9,65.2 72.6,65.8 73.1,66.3 S 74.3,66.1 75.7,67.5 C 76.6,68.5 76.6,69.8 76.5,70.6 C 76.5,70.9 76.7,71.2 77,71.1 C 77.9,71 79.4,71 80.3,71.9 C 82.1,73.7 80.8,75.6 83.5,78.3 S 89.9,79.3 91.5,77.7 C 93.2,76 93.4,73.2 91.1,70.9 C 87.9,67.7 84.7,70.2 84.6,69.3 C 84.8,65.1 90.8,64.2 90.6,63.6 C 88.6,58.3 83.2,58.4 83.3,58 C 83.8,56 85.4,55 87.9,54.9 S 90.2,54.8 90.9,52.9 C 91.8,51 92.8,49.6 95,49.6 Z M 95,86.2 L 95,95 L 86.2,95 C 86.2,90.1 90.1,86.2 95,86.2 Z" fill="url(#id1449) none" opacity="1" stroke-width="0" transform=" scale(0.450450, 0.450000) translate(183.150000, 94.444444) rotate(270, 49, 50)"/>
    <path d="M 40.9,23.8 S 39.9,25.5 34.4,25.7 C 32.4,25.8 31.8,25.5 32.6,27.6 C 33.4,29.7 33.9,30.9 32.9,32.9 C 30.9,33.9 29.6,33.4 27.6,32.6 C 25.5,31.8 25.8,32.3 25.7,34.4 C 25.5,40 23.8,40.9 23.8,40.9 S 22.6,40.7 21.5,39.6 C 17.7,35.8 17.2,30.3 17.1,28.3 C 17.1,27.9 16.8,27.5 16.3,27.5 C 15.4,27.5 14,27.2 12.8,26 C 12.5,25.7 12.2,25.3 12,25 C 11.7,24.6 11.7,24 12,23.6 C 13.3,21.3 13.5,18.5 11.2,16.2 C 8.7,13.7 6.4,13.9 4.9,13.9 L 4.9,5 L 13.8,5 C 13.8,6.5 13.6,8.7 16.1,11.3 C 18.4,13.6 21.2,13.4 23.5,12.1 C 24,11.8 24.5,11.9 24.9,12.1 C 25.2,12.3 25.6,12.6 25.9,12.9 C 27.1,14.1 27.4,15.5 27.4,16.4 C 27.4,16.8 27.8,17.2 28.2,17.2 C 30.2,17.3 35.7,17.8 39.5,21.6 C 40.7,22.6 40.9,23.8 40.9,23.8 Z M 75.6,27.1 C 71.1,27.8 57,30.9 43.9,43.9 C 30.9,56.9 27.8,71.1 27.1,75.6 C 27,76.1 26.4,76.2 26.2,75.8 C 23,70.3 10.8,48.8 5,43.1 L 5,25.4 C 10.8,31.2 21.1,47.6 23.8,51.9 C 24.1,52.4 24.7,52.4 25,51.9 C 26.4,49.7 30.3,44.1 37.2,37.2 C 44.1,30.3 49.7,26.4 51.9,25 C 52.4,24.7 52.4,24.1 51.9,23.8 C 47.6,21.2 31.2,10.8 25.4,5 L 43,5 C 48.8,10.8 70.2,23 75.7,26.2 C 76.1,26.4 76,27 75.6,27.1 Z M 26.1,95 L 13,95 C 9.8,86.2 5,82.7 5,82.7 L 5,62.7 C 9.6,67.2 22.1,87.9 26.1,95 Z M 95,13 L 95,26.1 C 87.9,22.1 67.2,9.6 62.6,5 L 82.6,5 C 82.7,5 86.3,9.8 95,13 Z M 95,35.9 L 95,46.9 C 68.5,46.9 47,68.4 47,94.9 L 36,94.9 C 35.9,62.4 62.4,35.9 95,35.9 Z M 95,49.6 L 95,80 C 86.7,80 80.1,86.7 80.1,94.9 L 49.6,94.9 C 49.6,92.7 50.9,91.7 52.9,91 C 54.8,90.3 54.9,90.5 54.9,88 C 55,85.5 56,83.9 58,83.4 C 58.4,83.3 58.3,88.8 63.6,90.7 C 64.2,90.9 65,84.9 69.3,84.7 C 70.2,84.8 67.7,88 70.9,91.2 C 73.2,93.5 76.1,93.3 77.7,91.6 C 79.3,89.9 81.1,86.3 78.3,83.6 C 75.6,80.9 73.6,82.2 71.9,80.4 C 71,79.5 71,77.9 71,77.1 C 71,76.8 70.8,76.5 70.5,76.6 C 69.7,76.7 68.4,76.7 67.4,75.8 C 66,74.4 66.7,73.7 66.2,73.2 S 65.1,72.9 64.2,72.1 C 62.6,70.5 64.4,68.6 63.6,67.8 C 61.9,66.2 61.5,64.1 62.7,62.8 S 66,62 67.7,63.7 C 68.5,64.5 70.4,62.7 72,64.3 C 72.9,65.2 72.6,65.8 73.1,66.3 S 74.3,66.1 75.7,67.5 C 76.6,68.5 76.6,69.8 76.5,70.6 C 76.5,70.9 76.7,71.2 77,71.1 C 77.9,71 79.4,71 80.3,71.9 C 82.1,73.7 80.8,75.6 83.5,78.3 S 89.9,79.3 91.5,77.7 C 93.2,76 93.4,73.2 91.1,70.9 C 87.9,67.7 84.7,70.2 84.6,69.3 C 84.8,65.1 90.8,64.2 90.6,63.6 C 88.6,58.3 83.2,58.4 83.3,58 C 83.8,56 85.4,55 87.9,54.9 S 90.2,54.8 90.9,52.9 C 91.8,51 92.8,49.6 95,49.6 Z M 95,86.2 L 95,95 L 86.2,95 C 86.2,90.1 90.1,86.2 95,86.2 Z" fill="url(#id1450) none" opacity="1" stroke-width="0" transform=" scale(0.450450, 0.450000) translate(271.950000, 94.444444) rotate(180, 49, 50)"/>
    <path d="M 40.9,23.8 S 39.9,25.5 34.4,25.7 C 32.4,25.8 31.8,25.5 32.6,27.6 C 33.4,29.7 33.9,30.9 32.9,32.9 C 30.9,33.9 29.6,33.4 27.6,32.6 C 25.5,31.8 25.8,32.3 25.7,34.4 C 25.5,40 23.8,40.9 23.8,40.9 S 22.6,40.7 21.5,39.6 C 17.7,35.8 17.2,30.3 17.1,28.3 C 17.1,27.9 16.8,27.5 16.3,27.5 C 15.4,27.5 14,27.2 12.8,26 C 12.5,25.7 12.2,25.3 12,25 C 11.7,24.6 11.7,24 12,23.6 C 13.3,21.3 13.5,18.5 11.2,16.2 C 8.7,13.7 6.4,13.9 4.9,13.9 L 4.9,5 L 13.8,5 C 13.8,6.5 13.6,8.7 16.1,11.3 C 18.4,13.6 21.2,13.4 23.5,12.1 C 24,11.8 24.5,11.9 24.9,12.1 C 25.2,12.3 25.6,12.6 25.9,12.9 C 27.1,14.1 27.4,15.5 27.4,16.4 C 27.4,16.8 27.8,17.2 28.2,17.2 C 30.2,17.3 35.7,17.8 39.5,21.6 C 40.7,22.6 40.9,23.8 40.9,23.8 Z M 75.6,27.1 C 71.1,27.8 57,30.9 43.9,43.9 C 30.9,56.9 27.8,71.1 27.1,75.6 C 27,76.1 26.4,76.2 26.2,75.8 C 23,70.3 10.8,48.8 5,43.1 L 5,25.4 C 10.8,31.2 21.1,47.6 23.8,51.9 C 24.1,52.4 24.7,52.4 25,51.9 C 26.4,49.7 30.3,44.1 37.2,37.2 C 44.1,30.3 49.7,26.4 51.9,25 C 52.4,24.7 52.4,24.1 51.9,23.8 C 47.6,21.2 31.2,10.8 25.4,5 L 43,5 C 48.8,10.8 70.2,23 75.7,26.2 C 76.1,26.4 76,27 75.6,27.1 Z M 26.1,95 L 13,95 C 9.8,86.2 5,82.7 5,82.7 L 5,62.7 C 9.6,67.2 22.1,87.9 26.1,95 Z M 95,13 L 95,26.1 C 87.9,22.1 67.2,9.6 62.6,5 L 82.6,5 C 82.7,5 86.3,9.8 95,13 Z M 95,35.9 L 95,46.9 C 68.5,46.9 47,68.4 47,94.9 L 36,94.9 C 35.9,62.4 62.4,35.9 95,35.9 Z M 95,49.6 L 95,80 C 86.7,80 80.1,86.7 80.1,94.9 L 49.6,94.9 C 49.6,92.7 50.9,91.7 52.9,91 C 54.8,90.3 54.9,90.5 54.9,88 C 55,85.5 56,83.9 58,83.4 C 58.4,83.3 58.3,88.8 63.6,90.7 C 64.2,90.9 65,84.9 69.3,84.7 C 70.2,84.8 67.7,88 70.9,91.2 C 73.2,93.5 76.1,93.3 77.7,91.6 C 79.3,89.9 81.1,86.3 78.3,83.6 C 75.6,80.9 73.6,82.2 71.9,80.4 C 71,79.5 71,77.9 71,77.1 C 71,76.8 70.8,76.5 70.5,76.6 C 69.7,76.7 68.4,76.7 67.4,75.8 C 66,74.4 66.7,73.7 66.2,73.2 S 65.1,72.9 64.2,72.1 C 62.6,70.5 64.4,68.6 63.6,67.8 C 61.9,66.2 61.5,64.1 62.7,62.8 S 66,62 67.7,63.7 C 68.5,64.5 70.4,62.7 72,64.3 C 72.9,65.2 72.6,65.8 73.1,66.3 S 74.3,66.1 75.7,67.5 C 76.6,68.5 76.6,69.8 76.5,70.6 C 76.5,70.9 76.7,71.2 77,71.1 C 77.9,71 79.4,71 80.3,71.9 C 82.1,73.7 80.8,75.6 83.5,78.3 S 89.9,79.3 91.5,77.7 C 93.2,76 93.4,73.2 91.1,70.9 C 87.9,67.7 84.7,70.2 84.6,69.3 C 84.8,65.1 90.8,64.2 90.6,63.6 C 88.6,58.3 83.2,58.4 83.3,58 C 83.8,56 85.4,55 87.9,54.9 S 90.2,54.8 90.9,52.9 C 91.8,51 92.8,49.6 95,49.6 Z M 95,86.2 L 95,95 L 86.2,95 C 86.2,90.1 90.1,86.2 95,86.2 Z" fill="url(#id1451) none" opacity="1" stroke-width="0" transform=" scale(0.450450, 0.450000) translate(360.750000, 94.444444) rotate(270, 49, 50)"/>
    <path d="M 40.9,23.8 S 39.9,25.5 34.4,25.7 C 32.4,25.8 31.8,25.5 32.6,27.6 C 33.4,29.7 33.9,30.9 32.9,32.9 C 30.9,33.9 29.6,33.4 27.6,32.6 C 25.5,31.8 25.8,32.3 25.7,34.4 C 25.5,40 23.8,40.9 23.8,40.9 S 22.6,40.7 21.5,39.6 C 17.7,35.8 17.2,30.3 17.1,28.3 C 17.1,27.9 16.8,27.5 16.3,27.5 C 15.4,27.5 14,27.2 12.8,26 C 12.5,25.7 12.2,25.3 12,25 C 11.7,24.6 11.7,24 12,23.6 C 13.3,21.3 13.5,18.5 11.2,16.2 C 8.7,13.7 6.4,13.9 4.9,13.9 L 4.9,5 L 13.8,5 C 13.8,6.5 13.6,8.7 16.1,11.3 C 18.4,13.6 21.2,13.4 23.5,12.1 C 24,11.8 24.5,11.9 24.9,12.1 C 25.2,12.3 25.6,12.6 25.9,12.9 C 27.1,14.1 27.4,15.5 27.4,16.4 C 27.4,16.8 27.8,17.2 28.2,17.2 C 30.2,17.3 35.7,17.8 39.5,21.6 C 40.7,22.6 40.9,23.8 40.9,23.8 Z M 75.6,27.1 C 71.1,27.8 57,30.9 43.9,43.9 C 30.9,56.9 27.8,71.1 27.1,75.6 C 27,76.1 26.4,76.2 26.2,75.8 C 23,70.3 10.8,48.8 5,43.1 L 5,25.4 C 10.8,31.2 21.1,47.6 23.8,51.9 C 24.1,52.4 24.7,52.4 25,51.9 C 26.4,49.7 30.3,44.1 37.2,37.2 C 44.1,30.3 49.7,26.4 51.9,25 C 52.4,24.7 52.4,24.1 51.9,23.8 C 47.6,21.2 31.2,10.8 25.4,5 L 43,5 C 48.8,10.8 70.2,23 75.7,26.2 C 76.1,26.4 76,27 75.6,27.1 Z M 26.1,95 L 13,95 C 9.8,86.2 5,82.7 5,82.7 L 5,62.7 C 9.6,67.2 22.1,87.9 26.1,95 Z M 95,13 L 95,26.1 C 87.9,22.1 67.2,9.6 62.6,5 L 82.6,5 C 82.7,5 86.3,9.8 95,13 Z M 95,35.9 L 95,46.9 C 68.5,46.9 47,68.4 47,94.9 L 36,94.9 C 35.9,62.4 62.4,35.9 95,35.9 Z M 95,49.6 L 95,80 C 86.7,80 80.1,86.7 80.1,94.9 L 49.6,94.9 C 49.6,92.7 50.9,91.7 52.9,91 C 54.8,90.3 54.9,90.5 54.9,88 C 55,85.5 56,83.9 58,83.4 C 58.4,83.3 58.3,88.8 63.6,90.7 C 64.2,90.9 65,84.9 69.3,84.7 C 70.2,84.8 67.7,88 70.9,91.2 C 73.2,93.5 76.1,93.3 77.7,91.6 C 79.3,89.9 81.1,86.3 78.3,83.6 C 75.6,80.9 73.6,82.2 71.9,80.4 C 71,79.5 71,77.9 71,77.1 C 71,76.8 70.8,76.5 70.5,76.6 C 69.7,76.7 68.4,76.7 67.4,75.8 C 66,74.4 66.7,73.7 66.2,73.2 S 65.1,72.9 64.2,72.1 C 62.6,70.5 64.4,68.6 63.6,67.8 C 61.9,66.2 61.5,64.1 62.7,62.8 S 66,62 67.7,63.7 C 68.5,64.5 70.4,62.7 72,64.3 C 72.9,65.2 72.6,65.8 73.1,66.3 S 74.3,66.1 75.7,67.5 C 76.6,68.5 76.6,69.8 76.5,70.6 C 76.5,70.9 76.7,71.2 77,71.1 C 77.9,71 79.4,71 80.3,71.9 C 82.1,73.7 80.8,75.6 83.5,78.3 S 89.9,79.3 91.5,77.7 C 93.2,76 93.4,73.2 91.1,70.9 C 87.9,67.7 84.7,70.2 84.6,69.3 C 84.8,65.1 90.8,64.2 90.6,63.6 C 88.6,58.3 83.2,58.4 83.3,58 C 83.8,56 85.4,55 87.9,54.9 S 90.2,54.8 90.9,52.9 C 91.8,51 92.8,49.6 95,49.6 Z M 95,86.2 L 95,95 L 86.2,95 C 86.2,90.1 90.1,86.2 95,86.2 Z" fill="url(#id1452) none" opacity="1" stroke-width="0" transform=" scale(0.450450, 0.450000) translate(449.550000, 94.444444) rotate(180, 49, 50)"/>
    <path d="M 40.9,23.8 S 39.9,25.5 34.4,25.7 C 32.4,25.8 31.8,25.5 32.6,27.6 C 33.4,29.7 33.9,30.9 32.9,32.9 C 30.9,33.9 29.6,33.4 27.6,32.6 C 25.5,31.8 25.8,32.3 25.7,34.4 C 25.5,40 23.8,40.9 23.8,40.9 S 22.6,40.7 21.5,39.6 C 17.7,35.8 17.2,30.3 17.1,28.3 C 17.1,27.9 16.8,27.5 16.3,27.5 C 15.4,27.5 14,27.2 12.8,26 C 12.5,25.7 12.2,25.3 12,25 C 11.7,24.6 11.7,24 12,23.6 C 13.3,21.3 13.5,18.5 11.2,16.2 C 8.7,13.7 6.4,13.9 4.9,13.9 L 4.9,5 L 13.8,5 C 13.8,6.5 13.6,8.7 16.1,11.3 C 18.4,13.6 21.2,13.4 23.5,12.1 C 24,11.8 24.5,11.9 24.9,12.1 C 25.2,12.3 25.6,12.6 25.9,12.9 C 27.1,14.1 27.4,15.5 27.4,16.4 C 27.4,16.8 27.8,17.2 28.2,17.2 C 30.2,17.3 35.7,17.8 39.5,21.6 C 40.7,22.6 40.9,23.8 40.9,23.8 Z M 75.6,27.1 C 71.1,27.8 57,30.9 43.9,43.9 C 30.9,56.9 27.8,71.1 27.1,75.6 C 27,76.1 26.4,76.2 26.2,75.8 C 23,70.3 10.8,48.8 5,43.1 L 5,25.4 C 10.8,31.2 21.1,47.6 23.8,51.9 C 24.1,52.4 24.7,52.4 25,51.9 C 26.4,49.7 30.3,44.1 37.2,37.2 C 44.1,30.3 49.7,26.4 51.9,25 C 52.4,24.7 52.4,24.1 51.9,23.8 C 47.6,21.2 31.2,10.8 25.4,5 L 43,5 C 48.8,10.8 70.2,23 75.7,26.2 C 76.1,26.4 76,27 75.6,27.1 Z M 26.1,95 L 13,95 C 9.8,86.2 5,82.7 5,82.7 L 5,62.7 C 9.6,67.2 22.1,87.9 26.1,95 Z M 95,13 L 95,26.1 C 87.9,22.1 67.2,9.6 62.6,5 L 82.6,5 C 82.7,5 86.3,9.8 95,13 Z M 95,35.9 L 95,46.9 C 68.5,46.9 47,68.4 47,94.9 L 36,94.9 C 35.9,62.4 62.4,35.9 95,35.9 Z M 95,49.6 L 95,80 C 86.7,80 80.1,86.7 80.1,94.9 L 49.6,94.9 C 49.6,92.7 50.9,91.7 52.9,91 C 54.8,90.3 54.9,90.5 54.9,88 C 55,85.5 56,83.9 58,83.4 C 58.4,83.3 58.3,88.8 63.6,90.7 C 64.2,90.9 65,84.9 69.3,84.7 C 70.2,84.8 67.7,88 70.9,91.2 C 73.2,93.5 76.1,93.3 77.7,91.6 C 79.3,89.9 81.1,86.3 78.3,83.6 C 75.6,80.9 73.6,82.2 71.9,80.4 C 71,79.5 71,77.9 71,77.1 C 71,76.8 70.8,76.5 70.5,76.6 C 69.7,76.7 68.4,76.7 67.4,75.8 C 66,74.4 66.7,73.7 66.2,73.2 S 65.1,72.9 64.2,72.1 C 62.6,70.5 64.4,68.6 63.6,67.8 C 61.9,66.2 61.5,64.1 62.7,62.8 S 66,62 67.7,63.7 C 68.5,64.5 70.4,62.7 72,64.3 C 72.9,65.2 72.6,65.8 73.1,66.3 S 74.3,66.1 75.7,67.5 C 76.6,68.5 76.6,69.8 76.5,70.6 C 76.5,70.9 76.7,71.2 77,71.1 C 77.9,71 79.4,71 80.3,71.9 C 82.1,73.7 80.8,75.6 83.5,78.3 S 89.9,79.3 91.5,77.7 C 93.2,76 93.4,73.2 91.1,70.9 C 87.9,67.7 84.7,70.2 84.6,69.3 C 84.8,65.1 90.8,64.2 90.6,63.6 C 88.6,58.3 83.2,58.4 83.3,58 C 83.8,56 85.4,55 87.9,54.9 S 90.2,54.8 90.9,52.9 C 91.8,51 92.8,49.6 95,49.6 Z M 95,86.2 L 95,95 L 86.2,95 C 86.2,90.1 90.1,86.2 95,86.2 Z" fill="url(#id1453) none" opacity="1" stroke-width="0" transform=" scale(0.450450, 0.450000) translate(5.550000, 183.333333) rotate(0, 49, 50)"/>
    <path d="M 40.9,23.8 S 39.9,25.5 34.4,25.7 C 32.4,25.8 31.8,25.5 32.6,27.6 C 33.4,29.7 33.9,30.9 32.9,32.9 C 30.9,33.9 29.6,33.4 27.6,32.6 C 25.5,31.8 25.8,32.3 25.7,34.4 C 25.5,40 23.8,40.9 23.8,40.9 S 22.6,40.7 21.5,39.6 C 17.7,35.8 17.2,30.3 17.1,28.3 C 17.1,27.9 16.8,27.5 16.3,27.5 C 15.4,27.5 14,27.2 12.8,26 C 12.5,25.7 12.2,25.3 12,25 C 11.7,24.6 11.7,24 12,23.6 C 13.3,21.3 13.5,18.5 11.2,16.2 C 8.7,13.7 6.4,13.9 4.9,13.9 L 4.9,5 L 13.8,5 C 13.8,6.5 13.6,8.7 16.1,11.3 C 18.4,13.6 21.2,13.4 23.5,12.1 C 24,11.8 24.5,11.9 24.9,12.1 C 25.2,12.3 25.6,12.6 25.9,12.9 C 27.1,14.1 27.4,15.5 27.4,16.4 C 27.4,16.8 27.8,17.2 28.2,17.2 C 30.2,17.3 35.7,17.8 39.5,21.6 C 40.7,22.6 40.9,23.8 40.9,23.8 Z M 75.6,27.1 C 71.1,27.8 57,30.9 43.9,43.9 C 30.9,56.9 27.8,71.1 27.1,75.6 C 27,76.1 26.4,76.2 26.2,75.8 C 23,70.3 10.8,48.8 5,43.1 L 5,25.4 C 10.8,31.2 21.1,47.6 23.8,51.9 C 24.1,52.4 24.7,52.4 25,51.9 C 26.4,49.7 30.3,44.1 37.2,37.2 C 44.1,30.3 49.7,26.4 51.9,25 C 52.4,24.7 52.4,24.1 51.9,23.8 C 47.6,21.2 31.2,10.8 25.4,5 L 43,5 C 48.8,10.8 70.2,23 75.7,26.2 C 76.1,26.4 76,27 75.6,27.1 Z M 26.1,95 L 13,95 C 9.8,86.2 5,82.7 5,82.7 L 5,62.7 C 9.6,67.2 22.1,87.9 26.1,95 Z M 95,13 L 95,26.1 C 87.9,22.1 67.2,9.6 62.6,5 L 82.6,5 C 82.7,5 86.3,9.8 95,13 Z M 95,35.9 L 95,46.9 C 68.5,46.9 47,68.4 47,94.9 L 36,94.9 C 35.9,62.4 62.4,35.9 95,35.9 Z M 95,49.6 L 95,80 C 86.7,80 80.1,86.7 80.1,94.9 L 49.6,94.9 C 49.6,92.7 50.9,91.7 52.9,91 C 54.8,90.3 54.9,90.5 54.9,88 C 55,85.5 56,83.9 58,83.4 C 58.4,83.3 58.3,88.8 63.6,90.7 C 64.2,90.9 65,84.9 69.3,84.7 C 70.2,84.8 67.7,88 70.9,91.2 C 73.2,93.5 76.1,93.3 77.7,91.6 C 79.3,89.9 81.1,86.3 78.3,83.6 C 75.6,80.9 73.6,82.2 71.9,80.4 C 71,79.5 71,77.9 71,77.1 C 71,76.8 70.8,76.5 70.5,76.6 C 69.7,76.7 68.4,76.7 67.4,75.8 C 66,74.4 66.7,73.7 66.2,73.2 S 65.1,72.9 64.2,72.1 C 62.6,70.5 64.4,68.6 63.6,67.8 C 61.9,66.2 61.5,64.1 62.7,62.8 S 66,62 67.7,63.7 C 68.5,64.5 70.4,62.7 72,64.3 C 72.9,65.2 72.6,65.8 73.1,66.3 S 74.3,66.1 75.7,67.5 C 76.6,68.5 76.6,69.8 76.5,70.6 C 76.5,70.9 76.7,71.2 77,71.1 C 77.9,71 79.4,71 80.3,71.9 C 82.1,73.7 80.8,75.6 83.5,78.3 S 89.9,79.3 91.5,77.7 C 93.2,76 93.4,73.2 91.1,70.9 C 87.9,67.7 84.7,70.2 84.6,69.3 C 84.8,65.1 90.8,64.2 90.6,63.6 C 88.6,58.3 83.2,58.4 83.3,58 C 83.8,56 85.4,55 87.9,54.9 S 90.2,54.8 90.9,52.9 C 91.8,51 92.8,49.6 95,49.6 Z M 95,86.2 L 95,95 L 86.2,95 C 86.2,90.1 90.1,86.2 95,86.2 Z" fill="url(#id1454) none" opacity="1" stroke-width="0" transform=" scale(0.450450, 0.450000) translate(94.350000, 183.333333) rotate(90, 49, 50)"/>
    <path d="M 40.9,23.8 S 39.9,25.5 34.4,25.7 C 32.4,25.8 31.8,25.5 32.6,27.6 C 33.4,29.7 33.9,30.9 32.9,32.9 C 30.9,33.9 29.6,33.4 27.6,32.6 C 25.5,31.8 25.8,32.3 25.7,34.4 C 25.5,40 23.8,40.9 23.8,40.9 S 22.6,40.7 21.5,39.6 C 17.7,35.8 17.2,30.3 17.1,28.3 C 17.1,27.9 16.8,27.5 16.3,27.5 C 15.4,27.5 14,27.2 12.8,26 C 12.5,25.7 12.2,25.3 12,25 C 11.7,24.6 11.7,24 12,23.6 C 13.3,21.3 13.5,18.5 11.2,16.2 C 8.7,13.7 6.4,13.9 4.9,13.9 L 4.9,5 L 13.8,5 C 13.8,6.5 13.6,8.7 16.1,11.3 C 18.4,13.6 21.2,13.4 23.5,12.1 C 24,11.8 24.5,11.9 24.9,12.1 C 25.2,12.3 25.6,12.6 25.9,12.9 C 27.1,14.1 27.4,15.5 27.4,16.4 C 27.4,16.8 27.8,17.2 28.2,17.2 C 30.2,17.3 35.7,17.8 39.5,21.6 C 40.7,22.6 40.9,23.8 40.9,23.8 Z M 75.6,27.1 C 71.1,27.8 57,30.9 43.9,43.9 C 30.9,56.9 27.8,71.1 27.1,75.6 C 27,76.1 26.4,76.2 26.2,75.8 C 23,70.3 10.8,48.8 5,43.1 L 5,25.4 C 10.8,31.2 21.1,47.6 23.8,51.9 C 24.1,52.4 24.7,52.4 25,51.9 C 26.4,49.7 30.3,44.1 37.2,37.2 C 44.1,30.3 49.7,26.4 51.9,25 C 52.4,24.7 52.4,24.1 51.9,23.8 C 47.6,21.2 31.2,10.8 25.4,5 L 43,5 C 48.8,10.8 70.2,23 75.7,26.2 C 76.1,26.4 76,27 75.6,27.1 Z M 26.1,95 L 13,95 C 9.8,86.2 5,82.7 5,82.7 L 5,62.7 C 9.6,67.2 22.1,87.9 26.1,95 Z M 95,13 L 95,26.1 C 87.9,22.1 67.2,9.6 62.6,5 L 82.6,5 C 82.7,5 86.3,9.8 95,13 Z M 95,35.9 L 95,46.9 C 68.5,46.9 47,68.4 47,94.9 L 36,94.9 C 35.9,62.4 62.4,35.9 95,35.9 Z M 95,49.6 L 95,80 C 86.7,80 80.1,86.7 80.1,94.9 L 49.6,94.9 C 49.6,92.7 50.9,91.7 52.9,91 C 54.8,90.3 54.9,90.5 54.9,88 C 55,85.5 56,83.9 58,83.4 C 58.4,83.3 58.3,88.8 63.6,90.7 C 64.2,90.9 65,84.9 69.3,84.7 C 70.2,84.8 67.7,88 70.9,91.2 C 73.2,93.5 76.1,93.3 77.7,91.6 C 79.3,89.9 81.1,86.3 78.3,83.6 C 75.6,80.9 73.6,82.2 71.9,80.4 C 71,79.5 71,77.9 71,77.1 C 71,76.8 70.8,76.5 70.5,76.6 C 69.7,76.7 68.4,76.7 67.4,75.8 C 66,74.4 66.7,73.7 66.2,73.2 S 65.1,72.9 64.2,72.1 C 62.6,70.5 64.4,68.6 63.6,67.8 C 61.9,66.2 61.5,64.1 62.7,62.8 S 66,62 67.7,63.7 C 68.5,64.5 70.4,62.7 72,64.3 C 72.9,65.2 72.6,65.8 73.1,66.3 S 74.3,66.1 75.7,67.5 C 76.6,68.5 76.6,69.8 76.5,70.6 C 76.5,70.9 76.7,71.2 77,71.1 C 77.9,71 79.4,71 80.3,71.9 C 82.1,73.7 80.8,75.6 83.5,78.3 S 89.9,79.3 91.5,77.7 C 93.2,76 93.4,73.2 91.1,70.9 C 87.9,67.7 84.7,70.2 84.6,69.3 C 84.8,65.1 90.8,64.2 90.6,63.6 C 88.6,58.3 83.2,58.4 83.3,58 C 83.8,56 85.4,55 87.9,54.9 S 90.2,54.8 90.9,52.9 C 91.8,51 92.8,49.6 95,49.6 Z M 95,86.2 L 95,95 L 86.2,95 C 86.2,90.1 90.1,86.2 95,86.2 Z" fill="url(#id1455) none" opacity="1" stroke-width="0" transform=" scale(0.450450, 0.450000) translate(183.150000, 183.333333) rotate(0, 49, 50)"/>
    <path d="M 40.9,23.8 S 39.9,25.5 34.4,25.7 C 32.4,25.8 31.8,25.5 32.6,27.6 C 33.4,29.7 33.9,30.9 32.9,32.9 C 30.9,33.9 29.6,33.4 27.6,32.6 C 25.5,31.8 25.8,32.3 25.7,34.4 C 25.5,40 23.8,40.9 23.8,40.9 S 22.6,40.7 21.5,39.6 C 17.7,35.8 17.2,30.3 17.1,28.3 C 17.1,27.9 16.8,27.5 16.3,27.5 C 15.4,27.5 14,27.2 12.8,26 C 12.5,25.7 12.2,25.3 12,25 C 11.7,24.6 11.7,24 12,23.6 C 13.3,21.3 13.5,18.5 11.2,16.2 C 8.7,13.7 6.4,13.9 4.9,13.9 L 4.9,5 L 13.8,5 C 13.8,6.5 13.6,8.7 16.1,11.3 C 18.4,13.6 21.2,13.4 23.5,12.1 C 24,11.8 24.5,11.9 24.9,12.1 C 25.2,12.3 25.6,12.6 25.9,12.9 C 27.1,14.1 27.4,15.5 27.4,16.4 C 27.4,16.8 27.8,17.2 28.2,17.2 C 30.2,17.3 35.7,17.8 39.5,21.6 C 40.7,22.6 40.9,23.8 40.9,23.8 Z M 75.6,27.1 C 71.1,27.8 57,30.9 43.9,43.9 C 30.9,56.9 27.8,71.1 27.1,75.6 C 27,76.1 26.4,76.2 26.2,75.8 C 23,70.3 10.8,48.8 5,43.1 L 5,25.4 C 10.8,31.2 21.1,47.6 23.8,51.9 C 24.1,52.4 24.7,52.4 25,51.9 C 26.4,49.7 30.3,44.1 37.2,37.2 C 44.1,30.3 49.7,26.4 51.9,25 C 52.4,24.7 52.4,24.1 51.9,23.8 C 47.6,21.2 31.2,10.8 25.4,5 L 43,5 C 48.8,10.8 70.2,23 75.7,26.2 C 76.1,26.4 76,27 75.6,27.1 Z M 26.1,95 L 13,95 C 9.8,86.2 5,82.7 5,82.7 L 5,62.7 C 9.6,67.2 22.1,87.9 26.1,95 Z M 95,13 L 95,26.1 C 87.9,22.1 67.2,9.6 62.6,5 L 82.6,5 C 82.7,5 86.3,9.8 95,13 Z M 95,35.9 L 95,46.9 C 68.5,46.9 47,68.4 47,94.9 L 36,94.9 C 35.9,62.4 62.4,35.9 95,35.9 Z M 95,49.6 L 95,80 C 86.7,80 80.1,86.7 80.1,94.9 L 49.6,94.9 C 49.6,92.7 50.9,91.7 52.9,91 C 54.8,90.3 54.9,90.5 54.9,88 C 55,85.5 56,83.9 58,83.4 C 58.4,83.3 58.3,88.8 63.6,90.7 C 64.2,90.9 65,84.9 69.3,84.7 C 70.2,84.8 67.7,88 70.9,91.2 C 73.2,93.5 76.1,93.3 77.7,91.6 C 79.3,89.9 81.1,86.3 78.3,83.6 C 75.6,80.9 73.6,82.2 71.9,80.4 C 71,79.5 71,77.9 71,77.1 C 71,76.8 70.8,76.5 70.5,76.6 C 69.7,76.7 68.4,76.7 67.4,75.8 C 66,74.4 66.7,73.7 66.2,73.2 S 65.1,72.9 64.2,72.1 C 62.6,70.5 64.4,68.6 63.6,67.8 C 61.9,66.2 61.5,64.1 62.7,62.8 S 66,62 67.7,63.7 C 68.5,64.5 70.4,62.7 72,64.3 C 72.9,65.2 72.6,65.8 73.1,66.3 S 74.3,66.1 75.7,67.5 C 76.6,68.5 76.6,69.8 76.5,70.6 C 76.5,70.9 76.7,71.2 77,71.1 C 77.9,71 79.4,71 80.3,71.9 C 82.1,73.7 80.8,75.6 83.5,78.3 S 89.9,79.3 91.5,77.7 C 93.2,76 93.4,73.2 91.1,70.9 C 87.9,67.7 84.7,70.2 84.6,69.3 C 84.8,65.1 90.8,64.2 90.6,63.6 C 88.6,58.3 83.2,58.4 83.3,58 C 83.8,56 85.4,55 87.9,54.9 S 90.2,54.8 90.9,52.9 C 91.8,51 92.8,49.6 95,49.6 Z M 95,86.2 L 95,95 L 86.2,95 C 86.2,90.1 90.1,86.2 95,86.2 Z" fill="url(#id1456) none" opacity="1" stroke-width="0" transform=" scale(0.450450, 0.450000) translate(271.950000, 183.333333) rotate(90, 49, 50)"/>
    <path d="M 40.9,23.8 S 39.9,25.5 34.4,25.7 C 32.4,25.8 31.8,25.5 32.6,27.6 C 33.4,29.7 33.9,30.9 32.9,32.9 C 30.9,33.9 29.6,33.4 27.6,32.6 C 25.5,31.8 25.8,32.3 25.7,34.4 C 25.5,40 23.8,40.9 23.8,40.9 S 22.6,40.7 21.5,39.6 C 17.7,35.8 17.2,30.3 17.1,28.3 C 17.1,27.9 16.8,27.5 16.3,27.5 C 15.4,27.5 14,27.2 12.8,26 C 12.5,25.7 12.2,25.3 12,25 C 11.7,24.6 11.7,24 12,23.6 C 13.3,21.3 13.5,18.5 11.2,16.2 C 8.7,13.7 6.4,13.9 4.9,13.9 L 4.9,5 L 13.8,5 C 13.8,6.5 13.6,8.7 16.1,11.3 C 18.4,13.6 21.2,13.4 23.5,12.1 C 24,11.8 24.5,11.9 24.9,12.1 C 25.2,12.3 25.6,12.6 25.9,12.9 C 27.1,14.1 27.4,15.5 27.4,16.4 C 27.4,16.8 27.8,17.2 28.2,17.2 C 30.2,17.3 35.7,17.8 39.5,21.6 C 40.7,22.6 40.9,23.8 40.9,23.8 Z M 75.6,27.1 C 71.1,27.8 57,30.9 43.9,43.9 C 30.9,56.9 27.8,71.1 27.1,75.6 C 27,76.1 26.4,76.2 26.2,75.8 C 23,70.3 10.8,48.8 5,43.1 L 5,25.4 C 10.8,31.2 21.1,47.6 23.8,51.9 C 24.1,52.4 24.7,52.4 25,51.9 C 26.4,49.7 30.3,44.1 37.2,37.2 C 44.1,30.3 49.7,26.4 51.9,25 C 52.4,24.7 52.4,24.1 51.9,23.8 C 47.6,21.2 31.2,10.8 25.4,5 L 43,5 C 48.8,10.8 70.2,23 75.7,26.2 C 76.1,26.4 76,27 75.6,27.1 Z M 26.1,95 L 13,95 C 9.8,86.2 5,82.7 5,82.7 L 5,62.7 C 9.6,67.2 22.1,87.9 26.1,95 Z M 95,13 L 95,26.1 C 87.9,22.1 67.2,9.6 62.6,5 L 82.6,5 C 82.7,5 86.3,9.8 95,13 Z M 95,35.9 L 95,46.9 C 68.5,46.9 47,68.4 47,94.9 L 36,94.9 C 35.9,62.4 62.4,35.9 95,35.9 Z M 95,49.6 L 95,80 C 86.7,80 80.1,86.7 80.1,94.9 L 49.6,94.9 C 49.6,92.7 50.9,91.7 52.9,91 C 54.8,90.3 54.9,90.5 54.9,88 C 55,85.5 56,83.9 58,83.4 C 58.4,83.3 58.3,88.8 63.6,90.7 C 64.2,90.9 65,84.9 69.3,84.7 C 70.2,84.8 67.7,88 70.9,91.2 C 73.2,93.5 76.1,93.3 77.7,91.6 C 79.3,89.9 81.1,86.3 78.3,83.6 C 75.6,80.9 73.6,82.2 71.9,80.4 C 71,79.5 71,77.9 71,77.1 C 71,76.8 70.8,76.5 70.5,76.6 C 69.7,76.7 68.4,76.7 67.4,75.8 C 66,74.4 66.7,73.7 66.2,73.2 S 65.1,72.9 64.2,72.1 C 62.6,70.5 64.4,68.6 63.6,67.8 C 61.9,66.2 61.5,64.1 62.7,62.8 S 66,62 67.7,63.7 C 68.5,64.5 70.4,62.7 72,64.3 C 72.9,65.2 72.6,65.8 73.1,66.3 S 74.3,66.1 75.7,67.5 C 76.6,68.5 76.6,69.8 76.5,70.6 C 76.5,70.9 76.7,71.2 77,71.1 C 77.9,71 79.4,71 80.3,71.9 C 82.1,73.7 80.8,75.6 83.5,78.3 S 89.9,79.3 91.5,77.7 C 93.2,76 93.4,73.2 91.1,70.9 C 87.9,67.7 84.7,70.2 84.6,69.3 C 84.8,65.1 90.8,64.2 90.6,63.6 C 88.6,58.3 83.2,58.4 83.3,58 C 83.8,56 85.4,55 87.9,54.9 S 90.2,54.8 90.9,52.9 C 91.8,51 92.8,49.6 95,49.6 Z M 95,86.2 L 95,95 L 86.2,95 C 86.2,90.1 90.1,86.2 95,86.2 Z" fill="url(#id1457) none" opacity="1" stroke-width="0" transform=" scale(0.450450, 0.450000) translate(360.750000, 183.333333) rotate(0, 49, 50)"/>
    <path d="M 40.9,23.8 S 39.9,25.5 34.4,25.7 C 32.4,25.8 31.8,25.5 32.6,27.6 C 33.4,29.7 33.9,30.9 32.9,32.9 C 30.9,33.9 29.6,33.4 27.6,32.6 C 25.5,31.8 25.8,32.3 25.7,34.4 C 25.5,40 23.8,40.9 23.8,40.9 S 22.6,40.7 21.5,39.6 C 17.7,35.8 17.2,30.3 17.1,28.3 C 17.1,27.9 16.8,27.5 16.3,27.5 C 15.4,27.5 14,27.2 12.8,26 C 12.5,25.7 12.2,25.3 12,25 C 11.7,24.6 11.7,24 12,23.6 C 13.3,21.3 13.5,18.5 11.2,16.2 C 8.7,13.7 6.4,13.9 4.9,13.9 L 4.9,5 L 13.8,5 C 13.8,6.5 13.6,8.7 16.1,11.3 C 18.4,13.6 21.2,13.4 23.5,12.1 C 24,11.8 24.5,11.9 24.9,12.1 C 25.2,12.3 25.6,12.6 25.9,12.9 C 27.1,14.1 27.4,15.5 27.4,16.4 C 27.4,16.8 27.8,17.2 28.2,17.2 C 30.2,17.3 35.7,17.8 39.5,21.6 C 40.7,22.6 40.9,23.8 40.9,23.8 Z M 75.6,27.1 C 71.1,27.8 57,30.9 43.9,43.9 C 30.9,56.9 27.8,71.1 27.1,75.6 C 27,76.1 26.4,76.2 26.2,75.8 C 23,70.3 10.8,48.8 5,43.1 L 5,25.4 C 10.8,31.2 21.1,47.6 23.8,51.9 C 24.1,52.4 24.7,52.4 25,51.9 C 26.4,49.7 30.3,44.1 37.2,37.2 C 44.1,30.3 49.7,26.4 51.9,25 C 52.4,24.7 52.4,24.1 51.9,23.8 C 47.6,21.2 31.2,10.8 25.4,5 L 43,5 C 48.8,10.8 70.2,23 75.7,26.2 C 76.1,26.4 76,27 75.6,27.1 Z M 26.1,95 L 13,95 C 9.8,86.2 5,82.7 5,82.7 L 5,62.7 C 9.6,67.2 22.1,87.9 26.1,95 Z M 95,13 L 95,26.1 C 87.9,22.1 67.2,9.6 62.6,5 L 82.6,5 C 82.7,5 86.3,9.8 95,13 Z M 95,35.9 L 95,46.9 C 68.5,46.9 47,68.4 47,94.9 L 36,94.9 C 35.9,62.4 62.4,35.9 95,35.9 Z M 95,49.6 L 95,80 C 86.7,80 80.1,86.7 80.1,94.9 L 49.6,94.9 C 49.6,92.7 50.9,91.7 52.9,91 C 54.8,90.3 54.9,90.5 54.9,88 C 55,85.5 56,83.9 58,83.4 C 58.4,83.3 58.3,88.8 63.6,90.7 C 64.2,90.9 65,84.9 69.3,84.7 C 70.2,84.8 67.7,88 70.9,91.2 C 73.2,93.5 76.1,93.3 77.7,91.6 C 79.3,89.9 81.1,86.3 78.3,83.6 C 75.6,80.9 73.6,82.2 71.9,80.4 C 71,79.5 71,77.9 71,77.1 C 71,76.8 70.8,76.5 70.5,76.6 C 69.7,76.7 68.4,76.7 67.4,75.8 C 66,74.4 66.7,73.7 66.2,73.2 S 65.1,72.9 64.2,72.1 C 62.6,70.5 64.4,68.6 63.6,67.8 C 61.9,66.2 61.5,64.1 62.7,62.8 S 66,62 67.7,63.7 C 68.5,64.5 70.4,62.7 72,64.3 C 72.9,65.2 72.6,65.8 73.1,66.3 S 74.3,66.1 75.7,67.5 C 76.6,68.5 76.6,69.8 76.5,70.6 C 76.5,70.9 76.7,71.2 77,71.1 C 77.9,71 79.4,71 80.3,71.9 C 82.1,73.7 80.8,75.6 83.5,78.3 S 89.9,79.3 91.5,77.7 C 93.2,76 93.4,73.2 91.1,70.9 C 87.9,67.7 84.7,70.2 84.6,69.3 C 84.8,65.1 90.8,64.2 90.6,63.6 C 88.6,58.3 83.2,58.4 83.3,58 C 83.8,56 85.4,55 87.9,54.9 S 90.2,54.8 90.9,52.9 C 91.8,51 92.8,49.6 95,49.6 Z M 95,86.2 L 95,95 L 86.2,95 C 86.2,90.1 90.1,86.2 95,86.2 Z" fill="url(#id1458) none" opacity="1" stroke-width="0" transform=" scale(0.450450, 0.450000) translate(449.550000, 183.333333) rotate(90, 49, 50)"/>
    <path d="M 40.9,23.8 S 39.9,25.5 34.4,25.7 C 32.4,25.8 31.8,25.5 32.6,27.6 C 33.4,29.7 33.9,30.9 32.9,32.9 C 30.9,33.9 29.6,33.4 27.6,32.6 C 25.5,31.8 25.8,32.3 25.7,34.4 C 25.5,40 23.8,40.9 23.8,40.9 S 22.6,40.7 21.5,39.6 C 17.7,35.8 17.2,30.3 17.1,28.3 C 17.1,27.9 16.8,27.5 16.3,27.5 C 15.4,27.5 14,27.2 12.8,26 C 12.5,25.7 12.2,25.3 12,25 C 11.7,24.6 11.7,24 12,23.6 C 13.3,21.3 13.5,18.5 11.2,16.2 C 8.7,13.7 6.4,13.9 4.9,13.9 L 4.9,5 L 13.8,5 C 13.8,6.5 13.6,8.7 16.1,11.3 C 18.4,13.6 21.2,13.4 23.5,12.1 C 24,11.8 24.5,11.9 24.9,12.1 C 25.2,12.3 25.6,12.6 25.9,12.9 C 27.1,14.1 27.4,15.5 27.4,16.4 C 27.4,16.8 27.8,17.2 28.2,17.2 C 30.2,17.3 35.7,17.8 39.5,21.6 C 40.7,22.6 40.9,23.8 40.9,23.8 Z M 75.6,27.1 C 71.1,27.8 57,30.9 43.9,43.9 C 30.9,56.9 27.8,71.1 27.1,75.6 C 27,76.1 26.4,76.2 26.2,75.8 C 23,70.3 10.8,48.8 5,43.1 L 5,25.4 C 10.8,31.2 21.1,47.6 23.8,51.9 C 24.1,52.4 24.7,52.4 25,51.9 C 26.4,49.7 30.3,44.1 37.2,37.2 C 44.1,30.3 49.7,26.4 51.9,25 C 52.4,24.7 52.4,24.1 51.9,23.8 C 47.6,21.2 31.2,10.8 25.4,5 L 43,5 C 48.8,10.8 70.2,23 75.7,26.2 C 76.1,26.4 76,27 75.6,27.1 Z M 26.1,95 L 13,95 C 9.8,86.2 5,82.7 5,82.7 L 5,62.7 C 9.6,67.2 22.1,87.9 26.1,95 Z M 95,13 L 95,26.1 C 87.9,22.1 67.2,9.6 62.6,5 L 82.6,5 C 82.7,5 86.3,9.8 95,13 Z M 95,35.9 L 95,46.9 C 68.5,46.9 47,68.4 47,94.9 L 36,94.9 C 35.9,62.4 62.4,35.9 95,35.9 Z M 95,49.6 L 95,80 C 86.7,80 80.1,86.7 80.1,94.9 L 49.6,94.9 C 49.6,92.7 50.9,91.7 52.9,91 C 54.8,90.3 54.9,90.5 54.9,88 C 55,85.5 56,83.9 58,83.4 C 58.4,83.3 58.3,88.8 63.6,90.7 C 64.2,90.9 65,84.9 69.3,84.7 C 70.2,84.8 67.7,88 70.9,91.2 C 73.2,93.5 76.1,93.3 77.7,91.6 C 79.3,89.9 81.1,86.3 78.3,83.6 C 75.6,80.9 73.6,82.2 71.9,80.4 C 71,79.5 71,77.9 71,77.1 C 71,76.8 70.8,76.5 70.5,76.6 C 69.7,76.7 68.4,76.7 67.4,75.8 C 66,74.4 66.7,73.7 66.2,73.2 S 65.1,72.9 64.2,72.1 C 62.6,70.5 64.4,68.6 63.6,67.8 C 61.9,66.2 61.5,64.1 62.7,62.8 S 66,62 67.7,63.7 C 68.5,64.5 70.4,62.7 72,64.3 C 72.9,65.2 72.6,65.8 73.1,66.3 S 74.3,66.1 75.7,67.5 C 76.6,68.5 76.6,69.8 76.5,70.6 C 76.5,70.9 76.7,71.2 77,71.1 C 77.9,71 79.4,71 80.3,71.9 C 82.1,73.7 80.8,75.6 83.5,78.3 S 89.9,79.3 91.5,77.7 C 93.2,76 93.4,73.2 91.1,70.9 C 87.9,67.7 84.7,70.2 84.6,69.3 C 84.8,65.1 90.8,64.2 90.6,63.6 C 88.6,58.3 83.2,58.4 83.3,58 C 83.8,56 85.4,55 87.9,54.9 S 90.2,54.8 90.9,52.9 C 91.8,51 92.8,49.6 95,49.6 Z M 95,86.2 L 95,95 L 86.2,95 C 86.2,90.1 90.1,86.2 95,86.2 Z" fill="url(#id1459) none" opacity="1" stroke-width="0" transform=" scale(0.450450, 0.450000) translate(5.550000, 272.222222) rotate(270, 49, 50)"/>
    <path d="M 40.9,23.8 S 39.9,25.5 34.4,25.7 C 32.4,25.8 31.8,25.5 32.6,27.6 C 33.4,29.7 33.9,30.9 32.9,32.9 C 30.9,33.9 29.6,33.4 27.6,32.6 C 25.5,31.8 25.8,32.3 25.7,34.4 C 25.5,40 23.8,40.9 23.8,40.9 S 22.6,40.7 21.5,39.6 C 17.7,35.8 17.2,30.3 17.1,28.3 C 17.1,27.9 16.8,27.5 16.3,27.5 C 15.4,27.5 14,27.2 12.8,26 C 12.5,25.7 12.2,25.3 12,25 C 11.7,24.6 11.7,24 12,23.6 C 13.3,21.3 13.5,18.5 11.2,16.2 C 8.7,13.7 6.4,13.9 4.9,13.9 L 4.9,5 L 13.8,5 C 13.8,6.5 13.6,8.7 16.1,11.3 C 18.4,13.6 21.2,13.4 23.5,12.1 C 24,11.8 24.5,11.9 24.9,12.1 C 25.2,12.3 25.6,12.6 25.9,12.9 C 27.1,14.1 27.4,15.5 27.4,16.4 C 27.4,16.8 27.8,17.2 28.2,17.2 C 30.2,17.3 35.7,17.8 39.5,21.6 C 40.7,22.6 40.9,23.8 40.9,23.8 Z M 75.6,27.1 C 71.1,27.8 57,30.9 43.9,43.9 C 30.9,56.9 27.8,71.1 27.1,75.6 C 27,76.1 26.4,76.2 26.2,75.8 C 23,70.3 10.8,48.8 5,43.1 L 5,25.4 C 10.8,31.2 21.1,47.6 23.8,51.9 C 24.1,52.4 24.7,52.4 25,51.9 C 26.4,49.7 30.3,44.1 37.2,37.2 C 44.1,30.3 49.7,26.4 51.9,25 C 52.4,24.7 52.4,24.1 51.9,23.8 C 47.6,21.2 31.2,10.8 25.4,5 L 43,5 C 48.8,10.8 70.2,23 75.7,26.2 C 76.1,26.4 76,27 75.6,27.1 Z M 26.1,95 L 13,95 C 9.8,86.2 5,82.7 5,82.7 L 5,62.7 C 9.6,67.2 22.1,87.9 26.1,95 Z M 95,13 L 95,26.1 C 87.9,22.1 67.2,9.6 62.6,5 L 82.6,5 C 82.7,5 86.3,9.8 95,13 Z M 95,35.9 L 95,46.9 C 68.5,46.9 47,68.4 47,94.9 L 36,94.9 C 35.9,62.4 62.4,35.9 95,35.9 Z M 95,49.6 L 95,80 C 86.7,80 80.1,86.7 80.1,94.9 L 49.6,94.9 C 49.6,92.7 50.9,91.7 52.9,91 C 54.8,90.3 54.9,90.5 54.9,88 C 55,85.5 56,83.9 58,83.4 C 58.4,83.3 58.3,88.8 63.6,90.7 C 64.2,90.9 65,84.9 69.3,84.7 C 70.2,84.8 67.7,88 70.9,91.2 C 73.2,93.5 76.1,93.3 77.7,91.6 C 79.3,89.9 81.1,86.3 78.3,83.6 C 75.6,80.9 73.6,82.2 71.9,80.4 C 71,79.5 71,77.9 71,77.1 C 71,76.8 70.8,76.5 70.5,76.6 C 69.7,76.7 68.4,76.7 67.4,75.8 C 66,74.4 66.7,73.7 66.2,73.2 S 65.1,72.9 64.2,72.1 C 62.6,70.5 64.4,68.6 63.6,67.8 C 61.9,66.2 61.5,64.1 62.7,62.8 S 66,62 67.7,63.7 C 68.5,64.5 70.4,62.7 72,64.3 C 72.9,65.2 72.6,65.8 73.1,66.3 S 74.3,66.1 75.7,67.5 C 76.6,68.5 76.6,69.8 76.5,70.6 C 76.5,70.9 76.7,71.2 77,71.1 C 77.9,71 79.4,71 80.3,71.9 C 82.1,73.7 80.8,75.6 83.5,78.3 S 89.9,79.3 91.5,77.7 C 93.2,76 93.4,73.2 91.1,70.9 C 87.9,67.7 84.7,70.2 84.6,69.3 C 84.8,65.1 90.8,64.2 90.6,63.6 C 88.6,58.3 83.2,58.4 83.3,58 C 83.8,56 85.4,55 87.9,54.9 S 90.2,54.8 90.9,52.9 C 91.8,51 92.8,49.6 95,49.6 Z M 95,86.2 L 95,95 L 86.2,95 C 86.2,90.1 90.1,86.2 95,86.2 Z" fill="url(#id1460) none" opacity="1" stroke-width="0" transform=" scale(0.450450, 0.450000) translate(94.350000, 272.222222) rotate(180, 49, 50)"/>
    <path d="M 40.9,23.8 S 39.9,25.5 34.4,25.7 C 32.4,25.8 31.8,25.5 32.6,27.6 C 33.4,29.7 33.9,30.9 32.9,32.9 C 30.9,33.9 29.6,33.4 27.6,32.6 C 25.5,31.8 25.8,32.3 25.7,34.4 C 25.5,40 23.8,40.9 23.8,40.9 S 22.6,40.7 21.5,39.6 C 17.7,35.8 17.2,30.3 17.1,28.3 C 17.1,27.9 16.8,27.5 16.3,27.5 C 15.4,27.5 14,27.2 12.8,26 C 12.5,25.7 12.2,25.3 12,25 C 11.7,24.6 11.7,24 12,23.6 C 13.3,21.3 13.5,18.5 11.2,16.2 C 8.7,13.7 6.4,13.9 4.9,13.9 L 4.9,5 L 13.8,5 C 13.8,6.5 13.6,8.7 16.1,11.3 C 18.4,13.6 21.2,13.4 23.5,12.1 C 24,11.8 24.5,11.9 24.9,12.1 C 25.2,12.3 25.6,12.6 25.9,12.9 C 27.1,14.1 27.4,15.5 27.4,16.4 C 27.4,16.8 27.8,17.2 28.2,17.2 C 30.2,17.3 35.7,17.8 39.5,21.6 C 40.7,22.6 40.9,23.8 40.9,23.8 Z M 75.6,27.1 C 71.1,27.8 57,30.9 43.9,43.9 C 30.9,56.9 27.8,71.1 27.1,75.6 C 27,76.1 26.4,76.2 26.2,75.8 C 23,70.3 10.8,48.8 5,43.1 L 5,25.4 C 10.8,31.2 21.1,47.6 23.8,51.9 C 24.1,52.4 24.7,52.4 25,51.9 C 26.4,49.7 30.3,44.1 37.2,37.2 C 44.1,30.3 49.7,26.4 51.9,25 C 52.4,24.7 52.4,24.1 51.9,23.8 C 47.6,21.2 31.2,10.8 25.4,5 L 43,5 C 48.8,10.8 70.2,23 75.7,26.2 C 76.1,26.4 76,27 75.6,27.1 Z M 26.1,95 L 13,95 C 9.8,86.2 5,82.7 5,82.7 L 5,62.7 C 9.6,67.2 22.1,87.9 26.1,95 Z M 95,13 L 95,26.1 C 87.9,22.1 67.2,9.6 62.6,5 L 82.6,5 C 82.7,5 86.3,9.8 95,13 Z M 95,35.9 L 95,46.9 C 68.5,46.9 47,68.4 47,94.9 L 36,94.9 C 35.9,62.4 62.4,35.9 95,35.9 Z M 95,49.6 L 95,80 C 86.7,80 80.1,86.7 80.1,94.9 L 49.6,94.9 C 49.6,92.7 50.9,91.7 52.9,91 C 54.8,90.3 54.9,90.5 54.9,88 C 55,85.5 56,83.9 58,83.4 C 58.4,83.3 58.3,88.8 63.6,90.7 C 64.2,90.9 65,84.9 69.3,84.7 C 70.2,84.8 67.7,88 70.9,91.2 C 73.2,93.5 76.1,93.3 77.7,91.6 C 79.3,89.9 81.1,86.3 78.3,83.6 C 75.6,80.9 73.6,82.2 71.9,80.4 C 71,79.5 71,77.9 71,77.1 C 71,76.8 70.8,76.5 70.5,76.6 C 69.7,76.7 68.4,76.7 67.4,75.8 C 66,74.4 66.7,73.7 66.2,73.2 S 65.1,72.9 64.2,72.1 C 62.6,70.5 64.4,68.6 63.6,67.8 C 61.9,66.2 61.5,64.1 62.7,62.8 S 66,62 67.7,63.7 C 68.5,64.5 70.4,62.7 72,64.3 C 72.9,65.2 72.6,65.8 73.1,66.3 S 74.3,66.1 75.7,67.5 C 76.6,68.5 76.6,69.8 76.5,70.6 C 76.5,70.9 76.7,71.2 77,71.1 C 77.9,71 79.4,71 80.3,71.9 C 82.1,73.7 80.8,75.6 83.5,78.3 S 89.9,79.3 91.5,77.7 C 93.2,76 93.4,73.2 91.1,70.9 C 87.9,67.7 84.7,70.2 84.6,69.3 C 84.8,65.1 90.8,64.2 90.6,63.6 C 88.6,58.3 83.2,58.4 83.3,58 C 83.8,56 85.4,55 87.9,54.9 S 90.2,54.8 90.9,52.9 C 91.8,51 92.8,49.6 95,49.6 Z M 95,86.2 L 95,95 L 86.2,95 C 86.2,90.1 90.1,86.2 95,86.2 Z" fill="url(#id1461) none" opacity="1" stroke-width="0" transform=" scale(0.450450, 0.450000) translate(183.150000, 272.222222) rotate(270, 49, 50)"/>
    <path d="M 40.9,23.8 S 39.9,25.5 34.4,25.7 C 32.4,25.8 31.8,25.5 32.6,27.6 C 33.4,29.7 33.9,30.9 32.9,32.9 C 30.9,33.9 29.6,33.4 27.6,32.6 C 25.5,31.8 25.8,32.3 25.7,34.4 C 25.5,40 23.8,40.9 23.8,40.9 S 22.6,40.7 21.5,39.6 C 17.7,35.8 17.2,30.3 17.1,28.3 C 17.1,27.9 16.8,27.5 16.3,27.5 C 15.4,27.5 14,27.2 12.8,26 C 12.5,25.7 12.2,25.3 12,25 C 11.7,24.6 11.7,24 12,23.6 C 13.3,21.3 13.5,18.5 11.2,16.2 C 8.7,13.7 6.4,13.9 4.9,13.9 L 4.9,5 L 13.8,5 C 13.8,6.5 13.6,8.7 16.1,11.3 C 18.4,13.6 21.2,13.4 23.5,12.1 C 24,11.8 24.5,11.9 24.9,12.1 C 25.2,12.3 25.6,12.6 25.9,12.9 C 27.1,14.1 27.4,15.5 27.4,16.4 C 27.4,16.8 27.8,17.2 28.2,17.2 C 30.2,17.3 35.7,17.8 39.5,21.6 C 40.7,22.6 40.9,23.8 40.9,23.8 Z M 75.6,27.1 C 71.1,27.8 57,30.9 43.9,43.9 C 30.9,56.9 27.8,71.1 27.1,75.6 C 27,76.1 26.4,76.2 26.2,75.8 C 23,70.3 10.8,48.8 5,43.1 L 5,25.4 C 10.8,31.2 21.1,47.6 23.8,51.9 C 24.1,52.4 24.7,52.4 25,51.9 C 26.4,49.7 30.3,44.1 37.2,37.2 C 44.1,30.3 49.7,26.4 51.9,25 C 52.4,24.7 52.4,24.1 51.9,23.8 C 47.6,21.2 31.2,10.8 25.4,5 L 43,5 C 48.8,10.8 70.2,23 75.7,26.2 C 76.1,26.4 76,27 75.6,27.1 Z M 26.1,95 L 13,95 C 9.8,86.2 5,82.7 5,82.7 L 5,62.7 C 9.6,67.2 22.1,87.9 26.1,95 Z M 95,13 L 95,26.1 C 87.9,22.1 67.2,9.6 62.6,5 L 82.6,5 C 82.7,5 86.3,9.8 95,13 Z M 95,35.9 L 95,46.9 C 68.5,46.9 47,68.4 47,94.9 L 36,94.9 C 35.9,62.4 62.4,35.9 95,35.9 Z M 95,49.6 L 95,80 C 86.7,80 80.1,86.7 80.1,94.9 L 49.6,94.9 C 49.6,92.7 50.9,91.7 52.9,91 C 54.8,90.3 54.9,90.5 54.9,88 C 55,85.5 56,83.9 58,83.4 C 58.4,83.3 58.3,88.8 63.6,90.7 C 64.2,90.9 65,84.9 69.3,84.7 C 70.2,84.8 67.7,88 70.9,91.2 C 73.2,93.5 76.1,93.3 77.7,91.6 C 79.3,89.9 81.1,86.3 78.3,83.6 C 75.6,80.9 73.6,82.2 71.9,80.4 C 71,79.5 71,77.9 71,77.1 C 71,76.8 70.8,76.5 70.5,76.6 C 69.7,76.7 68.4,76.7 67.4,75.8 C 66,74.4 66.7,73.7 66.2,73.2 S 65.1,72.9 64.2,72.1 C 62.6,70.5 64.4,68.6 63.6,67.8 C 61.9,66.2 61.5,64.1 62.7,62.8 S 66,62 67.7,63.7 C 68.5,64.5 70.4,62.7 72,64.3 C 72.9,65.2 72.6,65.8 73.1,66.3 S 74.3,66.1 75.7,67.5 C 76.6,68.5 76.6,69.8 76.5,70.6 C 76.5,70.9 76.7,71.2 77,71.1 C 77.9,71 79.4,71 80.3,71.9 C 82.1,73.7 80.8,75.6 83.5,78.3 S 89.9,79.3 91.5,77.7 C 93.2,76 93.4,73.2 91.1,70.9 C 87.9,67.7 84.7,70.2 84.6,69.3 C 84.8,65.1 90.8,64.2 90.6,63.6 C 88.6,58.3 83.2,58.4 83.3,58 C 83.8,56 85.4,55 87.9,54.9 S 90.2,54.8 90.9,52.9 C 91.8,51 92.8,49.6 95,49.6 Z M 95,86.2 L 95,95 L 86.2,95 C 86.2,90.1 90.1,86.2 95,86.2 Z" fill="url(#id1462) none" opacity="1" stroke-width="0" transform=" scale(0.450450, 0.450000) translate(271.950000, 272.222222) rotate(180, 49, 50)"/>
    <path d="M 40.9,23.8 S 39.9,25.5 34.4,25.7 C 32.4,25.8 31.8,25.5 32.6,27.6 C 33.4,29.7 33.9,30.9 32.9,32.9 C 30.9,33.9 29.6,33.4 27.6,32.6 C 25.5,31.8 25.8,32.3 25.7,34.4 C 25.5,40 23.8,40.9 23.8,40.9 S 22.6,40.7 21.5,39.6 C 17.7,35.8 17.2,30.3 17.1,28.3 C 17.1,27.9 16.8,27.5 16.3,27.5 C 15.4,27.5 14,27.2 12.8,26 C 12.5,25.7 12.2,25.3 12,25 C 11.7,24.6 11.7,24 12,23.6 C 13.3,21.3 13.5,18.5 11.2,16.2 C 8.7,13.7 6.4,13.9 4.9,13.9 L 4.9,5 L 13.8,5 C 13.8,6.5 13.6,8.7 16.1,11.3 C 18.4,13.6 21.2,13.4 23.5,12.1 C 24,11.8 24.5,11.9 24.9,12.1 C 25.2,12.3 25.6,12.6 25.9,12.9 C 27.1,14.1 27.4,15.5 27.4,16.4 C 27.4,16.8 27.8,17.2 28.2,17.2 C 30.2,17.3 35.7,17.8 39.5,21.6 C 40.7,22.6 40.9,23.8 40.9,23.8 Z M 75.6,27.1 C 71.1,27.8 57,30.9 43.9,43.9 C 30.9,56.9 27.8,71.1 27.1,75.6 C 27,76.1 26.4,76.2 26.2,75.8 C 23,70.3 10.8,48.8 5,43.1 L 5,25.4 C 10.8,31.2 21.1,47.6 23.8,51.9 C 24.1,52.4 24.7,52.4 25,51.9 C 26.4,49.7 30.3,44.1 37.2,37.2 C 44.1,30.3 49.7,26.4 51.9,25 C 52.4,24.7 52.4,24.1 51.9,23.8 C 47.6,21.2 31.2,10.8 25.4,5 L 43,5 C 48.8,10.8 70.2,23 75.7,26.2 C 76.1,26.4 76,27 75.6,27.1 Z M 26.1,95 L 13,95 C 9.8,86.2 5,82.7 5,82.7 L 5,62.7 C 9.6,67.2 22.1,87.9 26.1,95 Z M 95,13 L 95,26.1 C 87.9,22.1 67.2,9.6 62.6,5 L 82.6,5 C 82.7,5 86.3,9.8 95,13 Z M 95,35.9 L 95,46.9 C 68.5,46.9 47,68.4 47,94.9 L 36,94.9 C 35.9,62.4 62.4,35.9 95,35.9 Z M 95,49.6 L 95,80 C 86.7,80 80.1,86.7 80.1,94.9 L 49.6,94.9 C 49.6,92.7 50.9,91.7 52.9,91 C 54.8,90.3 54.9,90.5 54.9,88 C 55,85.5 56,83.9 58,83.4 C 58.4,83.3 58.3,88.8 63.6,90.7 C 64.2,90.9 65,84.9 69.3,84.7 C 70.2,84.8 67.7,88 70.9,91.2 C 73.2,93.5 76.1,93.3 77.7,91.6 C 79.3,89.9 81.1,86.3 78.3,83.6 C 75.6,80.9 73.6,82.2 71.9,80.4 C 71,79.5 71,77.9 71,77.1 C 71,76.8 70.8,76.5 70.5,76.6 C 69.7,76.7 68.4,76.7 67.4,75.8 C 66,74.4 66.7,73.7 66.2,73.2 S 65.1,72.9 64.2,72.1 C 62.6,70.5 64.4,68.6 63.6,67.8 C 61.9,66.2 61.5,64.1 62.7,62.8 S 66,62 67.7,63.7 C 68.5,64.5 70.4,62.7 72,64.3 C 72.9,65.2 72.6,65.8 73.1,66.3 S 74.3,66.1 75.7,67.5 C 76.6,68.5 76.6,69.8 76.5,70.6 C 76.5,70.9 76.7,71.2 77,71.1 C 77.9,71 79.4,71 80.3,71.9 C 82.1,73.7 80.8,75.6 83.5,78.3 S 89.9,79.3 91.5,77.7 C 93.2,76 93.4,73.2 91.1,70.9 C 87.9,67.7 84.7,70.2 84.6,69.3 C 84.8,65.1 90.8,64.2 90.6,63.6 C 88.6,58.3 83.2,58.4 83.3,58 C 83.8,56 85.4,55 87.9,54.9 S 90.2,54.8 90.9,52.9 C 91.8,51 92.8,49.6 95,49.6 Z M 95,86.2 L 95,95 L 86.2,95 C 86.2,90.1 90.1,86.2 95,86.2 Z" fill="url(#id1463) none" opacity="1" stroke-width="0" transform=" scale(0.450450, 0.450000) translate(360.750000, 272.222222) rotate(270, 49, 50)"/>
    <path d="M 40.9,23.8 S 39.9,25.5 34.4,25.7 C 32.4,25.8 31.8,25.5 32.6,27.6 C 33.4,29.7 33.9,30.9 32.9,32.9 C 30.9,33.9 29.6,33.4 27.6,32.6 C 25.5,31.8 25.8,32.3 25.7,34.4 C 25.5,40 23.8,40.9 23.8,40.9 S 22.6,40.7 21.5,39.6 C 17.7,35.8 17.2,30.3 17.1,28.3 C 17.1,27.9 16.8,27.5 16.3,27.5 C 15.4,27.5 14,27.2 12.8,26 C 12.5,25.7 12.2,25.3 12,25 C 11.7,24.6 11.7,24 12,23.6 C 13.3,21.3 13.5,18.5 11.2,16.2 C 8.7,13.7 6.4,13.9 4.9,13.9 L 4.9,5 L 13.8,5 C 13.8,6.5 13.6,8.7 16.1,11.3 C 18.4,13.6 21.2,13.4 23.5,12.1 C 24,11.8 24.5,11.9 24.9,12.1 C 25.2,12.3 25.6,12.6 25.9,12.9 C 27.1,14.1 27.4,15.5 27.4,16.4 C 27.4,16.8 27.8,17.2 28.2,17.2 C 30.2,17.3 35.7,17.8 39.5,21.6 C 40.7,22.6 40.9,23.8 40.9,23.8 Z M 75.6,27.1 C 71.1,27.8 57,30.9 43.9,43.9 C 30.9,56.9 27.8,71.1 27.1,75.6 C 27,76.1 26.4,76.2 26.2,75.8 C 23,70.3 10.8,48.8 5,43.1 L 5,25.4 C 10.8,31.2 21.1,47.6 23.8,51.9 C 24.1,52.4 24.7,52.4 25,51.9 C 26.4,49.7 30.3,44.1 37.2,37.2 C 44.1,30.3 49.7,26.4 51.9,25 C 52.4,24.7 52.4,24.1 51.9,23.8 C 47.6,21.2 31.2,10.8 25.4,5 L 43,5 C 48.8,10.8 70.2,23 75.7,26.2 C 76.1,26.4 76,27 75.6,27.1 Z M 26.1,95 L 13,95 C 9.8,86.2 5,82.7 5,82.7 L 5,62.7 C 9.6,67.2 22.1,87.9 26.1,95 Z M 95,13 L 95,26.1 C 87.9,22.1 67.2,9.6 62.6,5 L 82.6,5 C 82.7,5 86.3,9.8 95,13 Z M 95,35.9 L 95,46.9 C 68.5,46.9 47,68.4 47,94.9 L 36,94.9 C 35.9,62.4 62.4,35.9 95,35.9 Z M 95,49.6 L 95,80 C 86.7,80 80.1,86.7 80.1,94.9 L 49.6,94.9 C 49.6,92.7 50.9,91.7 52.9,91 C 54.8,90.3 54.9,90.5 54.9,88 C 55,85.5 56,83.9 58,83.4 C 58.4,83.3 58.3,88.8 63.6,90.7 C 64.2,90.9 65,84.9 69.3,84.7 C 70.2,84.8 67.7,88 70.9,91.2 C 73.2,93.5 76.1,93.3 77.7,91.6 C 79.3,89.9 81.1,86.3 78.3,83.6 C 75.6,80.9 73.6,82.2 71.9,80.4 C 71,79.5 71,77.9 71,77.1 C 71,76.8 70.8,76.5 70.5,76.6 C 69.7,76.7 68.4,76.7 67.4,75.8 C 66,74.4 66.7,73.7 66.2,73.2 S 65.1,72.9 64.2,72.1 C 62.6,70.5 64.4,68.6 63.6,67.8 C 61.9,66.2 61.5,64.1 62.7,62.8 S 66,62 67.7,63.7 C 68.5,64.5 70.4,62.7 72,64.3 C 72.9,65.2 72.6,65.8 73.1,66.3 S 74.3,66.1 75.7,67.5 C 76.6,68.5 76.6,69.8 76.5,70.6 C 76.5,70.9 76.7,71.2 77,71.1 C 77.9,71 79.4,71 80.3,71.9 C 82.1,73.7 80.8,75.6 83.5,78.3 S 89.9,79.3 91.5,77.7 C 93.2,76 93.4,73.2 91.1,70.9 C 87.9,67.7 84.7,70.2 84.6,69.3 C 84.8,65.1 90.8,64.2 90.6,63.6 C 88.6,58.3 83.2,58.4 83.3,58 C 83.8,56 85.4,55 87.9,54.9 S 90.2,54.8 90.9,52.9 C 91.8,51 92.8,49.6 95,49.6 Z M 95,86.2 L 95,95 L 86.2,95 C 86.2,90.1 90.1,86.2 95,86.2 Z" fill="url(#id1464) none" opacity="1" stroke-width="0" transform=" scale(0.450450, 0.450000) translate(449.550000, 272.222222) rotate(180, 49, 50)"/>
    <path d="M 40.9,23.8 S 39.9,25.5 34.4,25.7 C 32.4,25.8 31.8,25.5 32.6,27.6 C 33.4,29.7 33.9,30.9 32.9,32.9 C 30.9,33.9 29.6,33.4 27.6,32.6 C 25.5,31.8 25.8,32.3 25.7,34.4 C 25.5,40 23.8,40.9 23.8,40.9 S 22.6,40.7 21.5,39.6 C 17.7,35.8 17.2,30.3 17.1,28.3 C 17.1,27.9 16.8,27.5 16.3,27.5 C 15.4,27.5 14,27.2 12.8,26 C 12.5,25.7 12.2,25.3 12,25 C 11.7,24.6 11.7,24 12,23.6 C 13.3,21.3 13.5,18.5 11.2,16.2 C 8.7,13.7 6.4,13.9 4.9,13.9 L 4.9,5 L 13.8,5 C 13.8,6.5 13.6,8.7 16.1,11.3 C 18.4,13.6 21.2,13.4 23.5,12.1 C 24,11.8 24.5,11.9 24.9,12.1 C 25.2,12.3 25.6,12.6 25.9,12.9 C 27.1,14.1 27.4,15.5 27.4,16.4 C 27.4,16.8 27.8,17.2 28.2,17.2 C 30.2,17.3 35.7,17.8 39.5,21.6 C 40.7,22.6 40.9,23.8 40.9,23.8 Z M 75.6,27.1 C 71.1,27.8 57,30.9 43.9,43.9 C 30.9,56.9 27.8,71.1 27.1,75.6 C 27,76.1 26.4,76.2 26.2,75.8 C 23,70.3 10.8,48.8 5,43.1 L 5,25.4 C 10.8,31.2 21.1,47.6 23.8,51.9 C 24.1,52.4 24.7,52.4 25,51.9 C 26.4,49.7 30.3,44.1 37.2,37.2 C 44.1,30.3 49.7,26.4 51.9,25 C 52.4,24.7 52.4,24.1 51.9,23.8 C 47.6,21.2 31.2,10.8 25.4,5 L 43,5 C 48.8,10.8 70.2,23 75.7,26.2 C 76.1,26.4 76,27 75.6,27.1 Z M 26.1,95 L 13,95 C 9.8,86.2 5,82.7 5,82.7 L 5,62.7 C 9.6,67.2 22.1,87.9 26.1,95 Z M 95,13 L 95,26.1 C 87.9,22.1 67.2,9.6 62.6,5 L 82.6,5 C 82.7,5 86.3,9.8 95,13 Z M 95,35.9 L 95,46.9 C 68.5,46.9 47,68.4 47,94.9 L 36,94.9 C 35.9,62.4 62.4,35.9 95,35.9 Z M 95,49.6 L 95,80 C 86.7,80 80.1,86.7 80.1,94.9 L 49.6,94.9 C 49.6,92.7 50.9,91.7 52.9,91 C 54.8,90.3 54.9,90.5 54.9,88 C 55,85.5 56,83.9 58,83.4 C 58.4,83.3 58.3,88.8 63.6,90.7 C 64.2,90.9 65,84.9 69.3,84.7 C 70.2,84.8 67.7,88 70.9,91.2 C 73.2,93.5 76.1,93.3 77.7,91.6 C 79.3,89.9 81.1,86.3 78.3,83.6 C 75.6,80.9 73.6,82.2 71.9,80.4 C 71,79.5 71,77.9 71,77.1 C 71,76.8 70.8,76.5 70.5,76.6 C 69.7,76.7 68.4,76.7 67.4,75.8 C 66,74.4 66.7,73.7 66.2,73.2 S 65.1,72.9 64.2,72.1 C 62.6,70.5 64.4,68.6 63.6,67.8 C 61.9,66.2 61.5,64.1 62.7,62.8 S 66,62 67.7,63.7 C 68.5,64.5 70.4,62.7 72,64.3 C 72.9,65.2 72.6,65.8 73.1,66.3 S 74.3,66.1 75.7,67.5 C 76.6,68.5 76.6,69.8 76.5,70.6 C 76.5,70.9 76.7,71.2 77,71.1 C 77.9,71 79.4,71 80.3,71.9 C 82.1,73.7 80.8,75.6 83.5,78.3 S 89.9,79.3 91.5,77.7 C 93.2,76 93.4,73.2 91.1,70.9 C 87.9,67.7 84.7,70.2 84.6,69.3 C 84.8,65.1 90.8,64.2 90.6,63.6 C 88.6,58.3 83.2,58.4 83.3,58 C 83.8,56 85.4,55 87.9,54.9 S 90.2,54.8 90.9,52.9 C 91.8,51 92.8,49.6 95,49.6 Z M 95,86.2 L 95,95 L 86.2,95 C 86.2,90.1 90.1,86.2 95,86.2 Z" fill="url(#id1465) none" opacity="1" stroke-width="0" transform=" scale(0.450450, 0.450000) translate(5.550000, 361.111111) rotate(0, 49, 50)"/>
    <path d="M 40.9,23.8 S 39.9,25.5 34.4,25.7 C 32.4,25.8 31.8,25.5 32.6,27.6 C 33.4,29.7 33.9,30.9 32.9,32.9 C 30.9,33.9 29.6,33.4 27.6,32.6 C 25.5,31.8 25.8,32.3 25.7,34.4 C 25.5,40 23.8,40.9 23.8,40.9 S 22.6,40.7 21.5,39.6 C 17.7,35.8 17.2,30.3 17.1,28.3 C 17.1,27.9 16.8,27.5 16.3,27.5 C 15.4,27.5 14,27.2 12.8,26 C 12.5,25.7 12.2,25.3 12,25 C 11.7,24.6 11.7,24 12,23.6 C 13.3,21.3 13.5,18.5 11.2,16.2 C 8.7,13.7 6.4,13.9 4.9,13.9 L 4.9,5 L 13.8,5 C 13.8,6.5 13.6,8.7 16.1,11.3 C 18.4,13.6 21.2,13.4 23.5,12.1 C 24,11.8 24.5,11.9 24.9,12.1 C 25.2,12.3 25.6,12.6 25.9,12.9 C 27.1,14.1 27.4,15.5 27.4,16.4 C 27.4,16.8 27.8,17.2 28.2,17.2 C 30.2,17.3 35.7,17.8 39.5,21.6 C 40.7,22.6 40.9,23.8 40.9,23.8 Z M 75.6,27.1 C 71.1,27.8 57,30.9 43.9,43.9 C 30.9,56.9 27.8,71.1 27.1,75.6 C 27,76.1 26.4,76.2 26.2,75.8 C 23,70.3 10.8,48.8 5,43.1 L 5,25.4 C 10.8,31.2 21.1,47.6 23.8,51.9 C 24.1,52.4 24.7,52.4 25,51.9 C 26.4,49.7 30.3,44.1 37.2,37.2 C 44.1,30.3 49.7,26.4 51.9,25 C 52.4,24.7 52.4,24.1 51.9,23.8 C 47.6,21.2 31.2,10.8 25.4,5 L 43,5 C 48.8,10.8 70.2,23 75.7,26.2 C 76.1,26.4 76,27 75.6,27.1 Z M 26.1,95 L 13,95 C 9.8,86.2 5,82.7 5,82.7 L 5,62.7 C 9.6,67.2 22.1,87.9 26.1,95 Z M 95,13 L 95,26.1 C 87.9,22.1 67.2,9.6 62.6,5 L 82.6,5 C 82.7,5 86.3,9.8 95,13 Z M 95,35.9 L 95,46.9 C 68.5,46.9 47,68.4 47,94.9 L 36,94.9 C 35.9,62.4 62.4,35.9 95,35.9 Z M 95,49.6 L 95,80 C 86.7,80 80.1,86.7 80.1,94.9 L 49.6,94.9 C 49.6,92.7 50.9,91.7 52.9,91 C 54.8,90.3 54.9,90.5 54.9,88 C 55,85.5 56,83.9 58,83.4 C 58.4,83.3 58.3,88.8 63.6,90.7 C 64.2,90.9 65,84.9 69.3,84.7 C 70.2,84.8 67.7,88 70.9,91.2 C 73.2,93.5 76.1,93.3 77.7,91.6 C 79.3,89.9 81.1,86.3 78.3,83.6 C 75.6,80.9 73.6,82.2 71.9,80.4 C 71,79.5 71,77.9 71,77.1 C 71,76.8 70.8,76.5 70.5,76.6 C 69.7,76.7 68.4,76.7 67.4,75.8 C 66,74.4 66.7,73.7 66.2,73.2 S 65.1,72.9 64.2,72.1 C 62.6,70.5 64.4,68.6 63.6,67.8 C 61.9,66.2 61.5,64.1 62.7,62.8 S 66,62 67.7,63.7 C 68.5,64.5 70.4,62.7 72,64.3 C 72.9,65.2 72.6,65.8 73.1,66.3 S 74.3,66.1 75.7,67.5 C 76.6,68.5 76.6,69.8 76.5,70.6 C 76.5,70.9 76.7,71.2 77,71.1 C 77.9,71 79.4,71 80.3,71.9 C 82.1,73.7 80.8,75.6 83.5,78.3 S 89.9,79.3 91.5,77.7 C 93.2,76 93.4,73.2 91.1,70.9 C 87.9,67.7 84.7,70.2 84.6,69.3 C 84.8,65.1 90.8,64.2 90.6,63.6 C 88.6,58.3 83.2,58.4 83.3,58 C 83.8,56 85.4,55 87.9,54.9 S 90.2,54.8 90.9,52.9 C 91.8,51 92.8,49.6 95,49.6 Z M 95,86.2 L 95,95 L 86.2,95 C 86.2,90.1 90.1,86.2 95,86.2 Z" fill="url(#id1466) none" opacity="1" stroke-width="0" transform=" scale(0.450450, 0.450000) translate(94.350000, 361.111111) rotate(90, 49, 50)"/>
    <path d="M 40.9,23.8 S 39.9,25.5 34.4,25.7 C 32.4,25.8 31.8,25.5 32.6,27.6 C 33.4,29.7 33.9,30.9 32.9,32.9 C 30.9,33.9 29.6,33.4 27.6,32.6 C 25.5,31.8 25.8,32.3 25.7,34.4 C 25.5,40 23.8,40.9 23.8,40.9 S 22.6,40.7 21.5,39.6 C 17.7,35.8 17.2,30.3 17.1,28.3 C 17.1,27.9 16.8,27.5 16.3,27.5 C 15.4,27.5 14,27.2 12.8,26 C 12.5,25.7 12.2,25.3 12,25 C 11.7,24.6 11.7,24 12,23.6 C 13.3,21.3 13.5,18.5 11.2,16.2 C 8.7,13.7 6.4,13.9 4.9,13.9 L 4.9,5 L 13.8,5 C 13.8,6.5 13.6,8.7 16.1,11.3 C 18.4,13.6 21.2,13.4 23.5,12.1 C 24,11.8 24.5,11.9 24.9,12.1 C 25.2,12.3 25.6,12.6 25.9,12.9 C 27.1,14.1 27.4,15.5 27.4,16.4 C 27.4,16.8 27.8,17.2 28.2,17.2 C 30.2,17.3 35.7,17.8 39.5,21.6 C 40.7,22.6 40.9,23.8 40.9,23.8 Z M 75.6,27.1 C 71.1,27.8 57,30.9 43.9,43.9 C 30.9,56.9 27.8,71.1 27.1,75.6 C 27,76.1 26.4,76.2 26.2,75.8 C 23,70.3 10.8,48.8 5,43.1 L 5,25.4 C 10.8,31.2 21.1,47.6 23.8,51.9 C 24.1,52.4 24.7,52.4 25,51.9 C 26.4,49.7 30.3,44.1 37.2,37.2 C 44.1,30.3 49.7,26.4 51.9,25 C 52.4,24.7 52.4,24.1 51.9,23.8 C 47.6,21.2 31.2,10.8 25.4,5 L 43,5 C 48.8,10.8 70.2,23 75.7,26.2 C 76.1,26.4 76,27 75.6,27.1 Z M 26.1,95 L 13,95 C 9.8,86.2 5,82.7 5,82.7 L 5,62.7 C 9.6,67.2 22.1,87.9 26.1,95 Z M 95,13 L 95,26.1 C 87.9,22.1 67.2,9.6 62.6,5 L 82.6,5 C 82.7,5 86.3,9.8 95,13 Z M 95,35.9 L 95,46.9 C 68.5,46.9 47,68.4 47,94.9 L 36,94.9 C 35.9,62.4 62.4,35.9 95,35.9 Z M 95,49.6 L 95,80 C 86.7,80 80.1,86.7 80.1,94.9 L 49.6,94.9 C 49.6,92.7 50.9,91.7 52.9,91 C 54.8,90.3 54.9,90.5 54.9,88 C 55,85.5 56,83.9 58,83.4 C 58.4,83.3 58.3,88.8 63.6,90.7 C 64.2,90.9 65,84.9 69.3,84.7 C 70.2,84.8 67.7,88 70.9,91.2 C 73.2,93.5 76.1,93.3 77.7,91.6 C 79.3,89.9 81.1,86.3 78.3,83.6 C 75.6,80.9 73.6,82.2 71.9,80.4 C 71,79.5 71,77.9 71,77.1 C 71,76.8 70.8,76.5 70.5,76.6 C 69.7,76.7 68.4,76.7 67.4,75.8 C 66,74.4 66.7,73.7 66.2,73.2 S 65.1,72.9 64.2,72.1 C 62.6,70.5 64.4,68.6 63.6,67.8 C 61.9,66.2 61.5,64.1 62.7,62.8 S 66,62 67.7,63.7 C 68.5,64.5 70.4,62.7 72,64.3 C 72.9,65.2 72.6,65.8 73.1,66.3 S 74.3,66.1 75.7,67.5 C 76.6,68.5 76.6,69.8 76.5,70.6 C 76.5,70.9 76.7,71.2 77,71.1 C 77.9,71 79.4,71 80.3,71.9 C 82.1,73.7 80.8,75.6 83.5,78.3 S 89.9,79.3 91.5,77.7 C 93.2,76 93.4,73.2 91.1,70.9 C 87.9,67.7 84.7,70.2 84.6,69.3 C 84.8,65.1 90.8,64.2 90.6,63.6 C 88.6,58.3 83.2,58.4 83.3,58 C 83.8,56 85.4,55 87.9,54.9 S 90.2,54.8 90.9,52.9 C 91.8,51 92.8,49.6 95,49.6 Z M 95,86.2 L 95,95 L 86.2,95 C 86.2,90.1 90.1,86.2 95,86.2 Z" fill="url(#id1467) none" opacity="1" stroke-width="0" transform=" scale(0.450450, 0.450000) translate(183.150000, 361.111111) rotate(0, 49, 50)"/>
    <path d="M 40.9,23.8 S 39.9,25.5 34.4,25.7 C 32.4,25.8 31.8,25.5 32.6,27.6 C 33.4,29.7 33.9,30.9 32.9,32.9 C 30.9,33.9 29.6,33.4 27.6,32.6 C 25.5,31.8 25.8,32.3 25.7,34.4 C 25.5,40 23.8,40.9 23.8,40.9 S 22.6,40.7 21.5,39.6 C 17.7,35.8 17.2,30.3 17.1,28.3 C 17.1,27.9 16.8,27.5 16.3,27.5 C 15.4,27.5 14,27.2 12.8,26 C 12.5,25.7 12.2,25.3 12,25 C 11.7,24.6 11.7,24 12,23.6 C 13.3,21.3 13.5,18.5 11.2,16.2 C 8.7,13.7 6.4,13.9 4.9,13.9 L 4.9,5 L 13.8,5 C 13.8,6.5 13.6,8.7 16.1,11.3 C 18.4,13.6 21.2,13.4 23.5,12.1 C 24,11.8 24.5,11.9 24.9,12.1 C 25.2,12.3 25.6,12.6 25.9,12.9 C 27.1,14.1 27.4,15.5 27.4,16.4 C 27.4,16.8 27.8,17.2 28.2,17.2 C 30.2,17.3 35.7,17.8 39.5,21.6 C 40.7,22.6 40.9,23.8 40.9,23.8 Z M 75.6,27.1 C 71.1,27.8 57,30.9 43.9,43.9 C 30.9,56.9 27.8,71.1 27.1,75.6 C 27,76.1 26.4,76.2 26.2,75.8 C 23,70.3 10.8,48.8 5,43.1 L 5,25.4 C 10.8,31.2 21.1,47.6 23.8,51.9 C 24.1,52.4 24.7,52.4 25,51.9 C 26.4,49.7 30.3,44.1 37.2,37.2 C 44.1,30.3 49.7,26.4 51.9,25 C 52.4,24.7 52.4,24.1 51.9,23.8 C 47.6,21.2 31.2,10.8 25.4,5 L 43,5 C 48.8,10.8 70.2,23 75.7,26.2 C 76.1,26.4 76,27 75.6,27.1 Z M 26.1,95 L 13,95 C 9.8,86.2 5,82.7 5,82.7 L 5,62.7 C 9.6,67.2 22.1,87.9 26.1,95 Z M 95,13 L 95,26.1 C 87.9,22.1 67.2,9.6 62.6,5 L 82.6,5 C 82.7,5 86.3,9.8 95,13 Z M 95,35.9 L 95,46.9 C 68.5,46.9 47,68.4 47,94.9 L 36,94.9 C 35.9,62.4 62.4,35.9 95,35.9 Z M 95,49.6 L 95,80 C 86.7,80 80.1,86.7 80.1,94.9 L 49.6,94.9 C 49.6,92.7 50.9,91.7 52.9,91 C 54.8,90.3 54.9,90.5 54.9,88 C 55,85.5 56,83.9 58,83.4 C 58.4,83.3 58.3,88.8 63.6,90.7 C 64.2,90.9 65,84.9 69.3,84.7 C 70.2,84.8 67.7,88 70.9,91.2 C 73.2,93.5 76.1,93.3 77.7,91.6 C 79.3,89.9 81.1,86.3 78.3,83.6 C 75.6,80.9 73.6,82.2 71.9,80.4 C 71,79.5 71,77.9 71,77.1 C 71,76.8 70.8,76.5 70.5,76.6 C 69.7,76.7 68.4,76.7 67.4,75.8 C 66,74.4 66.7,73.7 66.2,73.2 S 65.1,72.9 64.2,72.1 C 62.6,70.5 64.4,68.6 63.6,67.8 C 61.9,66.2 61.5,64.1 62.7,62.8 S 66,62 67.7,63.7 C 68.5,64.5 70.4,62.7 72,64.3 C 72.9,65.2 72.6,65.8 73.1,66.3 S 74.3,66.1 75.7,67.5 C 76.6,68.5 76.6,69.8 76.5,70.6 C 76.5,70.9 76.7,71.2 77,71.1 C 77.9,71 79.4,71 80.3,71.9 C 82.1,73.7 80.8,75.6 83.5,78.3 S 89.9,79.3 91.5,77.7 C 93.2,76 93.4,73.2 91.1,70.9 C 87.9,67.7 84.7,70.2 84.6,69.3 C 84.8,65.1 90.8,64.2 90.6,63.6 C 88.6,58.3 83.2,58.4 83.3,58 C 83.8,56 85.4,55 87.9,54.9 S 90.2,54.8 90.9,52.9 C 91.8,51 92.8,49.6 95,49.6 Z M 95,86.2 L 95,95 L 86.2,95 C 86.2,90.1 90.1,86.2 95,86.2 Z" fill="url(#id1468) none" opacity="1" stroke-width="0" transform=" scale(0.450450, 0.450000) translate(271.950000, 361.111111) rotate(90, 49, 50)"/>
    <path d="M 40.9,23.8 S 39.9,25.5 34.4,25.7 C 32.4,25.8 31.8,25.5 32.6,27.6 C 33.4,29.7 33.9,30.9 32.9,32.9 C 30.9,33.9 29.6,33.4 27.6,32.6 C 25.5,31.8 25.8,32.3 25.7,34.4 C 25.5,40 23.8,40.9 23.8,40.9 S 22.6,40.7 21.5,39.6 C 17.7,35.8 17.2,30.3 17.1,28.3 C 17.1,27.9 16.8,27.5 16.3,27.5 C 15.4,27.5 14,27.2 12.8,26 C 12.5,25.7 12.2,25.3 12,25 C 11.7,24.6 11.7,24 12,23.6 C 13.3,21.3 13.5,18.5 11.2,16.2 C 8.7,13.7 6.4,13.9 4.9,13.9 L 4.9,5 L 13.8,5 C 13.8,6.5 13.6,8.7 16.1,11.3 C 18.4,13.6 21.2,13.4 23.5,12.1 C 24,11.8 24.5,11.9 24.9,12.1 C 25.2,12.3 25.6,12.6 25.9,12.9 C 27.1,14.1 27.4,15.5 27.4,16.4 C 27.4,16.8 27.8,17.2 28.2,17.2 C 30.2,17.3 35.7,17.8 39.5,21.6 C 40.7,22.6 40.9,23.8 40.9,23.8 Z M 75.6,27.1 C 71.1,27.8 57,30.9 43.9,43.9 C 30.9,56.9 27.8,71.1 27.1,75.6 C 27,76.1 26.4,76.2 26.2,75.8 C 23,70.3 10.8,48.8 5,43.1 L 5,25.4 C 10.8,31.2 21.1,47.6 23.8,51.9 C 24.1,52.4 24.7,52.4 25,51.9 C 26.4,49.7 30.3,44.1 37.2,37.2 C 44.1,30.3 49.7,26.4 51.9,25 C 52.4,24.7 52.4,24.1 51.9,23.8 C 47.6,21.2 31.2,10.8 25.4,5 L 43,5 C 48.8,10.8 70.2,23 75.7,26.2 C 76.1,26.4 76,27 75.6,27.1 Z M 26.1,95 L 13,95 C 9.8,86.2 5,82.7 5,82.7 L 5,62.7 C 9.6,67.2 22.1,87.9 26.1,95 Z M 95,13 L 95,26.1 C 87.9,22.1 67.2,9.6 62.6,5 L 82.6,5 C 82.7,5 86.3,9.8 95,13 Z M 95,35.9 L 95,46.9 C 68.5,46.9 47,68.4 47,94.9 L 36,94.9 C 35.9,62.4 62.4,35.9 95,35.9 Z M 95,49.6 L 95,80 C 86.7,80 80.1,86.7 80.1,94.9 L 49.6,94.9 C 49.6,92.7 50.9,91.7 52.9,91 C 54.8,90.3 54.9,90.5 54.9,88 C 55,85.5 56,83.9 58,83.4 C 58.4,83.3 58.3,88.8 63.6,90.7 C 64.2,90.9 65,84.9 69.3,84.7 C 70.2,84.8 67.7,88 70.9,91.2 C 73.2,93.5 76.1,93.3 77.7,91.6 C 79.3,89.9 81.1,86.3 78.3,83.6 C 75.6,80.9 73.6,82.2 71.9,80.4 C 71,79.5 71,77.9 71,77.1 C 71,76.8 70.8,76.5 70.5,76.6 C 69.7,76.7 68.4,76.7 67.4,75.8 C 66,74.4 66.7,73.7 66.2,73.2 S 65.1,72.9 64.2,72.1 C 62.6,70.5 64.4,68.6 63.6,67.8 C 61.9,66.2 61.5,64.1 62.7,62.8 S 66,62 67.7,63.7 C 68.5,64.5 70.4,62.7 72,64.3 C 72.9,65.2 72.6,65.8 73.1,66.3 S 74.3,66.1 75.7,67.5 C 76.6,68.5 76.6,69.8 76.5,70.6 C 76.5,70.9 76.7,71.2 77,71.1 C 77.9,71 79.4,71 80.3,71.9 C 82.1,73.7 80.8,75.6 83.5,78.3 S 89.9,79.3 91.5,77.7 C 93.2,76 93.4,73.2 91.1,70.9 C 87.9,67.7 84.7,70.2 84.6,69.3 C 84.8,65.1 90.8,64.2 90.6,63.6 C 88.6,58.3 83.2,58.4 83.3,58 C 83.8,56 85.4,55 87.9,54.9 S 90.2,54.8 90.9,52.9 C 91.8,51 92.8,49.6 95,49.6 Z M 95,86.2 L 95,95 L 86.2,95 C 86.2,90.1 90.1,86.2 95,86.2 Z" fill="url(#id1469) none" opacity="1" stroke-width="0" transform=" scale(0.450450, 0.450000) translate(360.750000, 361.111111) rotate(0, 49, 50)"/>
    <path d="M 40.9,23.8 S 39.9,25.5 34.4,25.7 C 32.4,25.8 31.8,25.5 32.6,27.6 C 33.4,29.7 33.9,30.9 32.9,32.9 C 30.9,33.9 29.6,33.4 27.6,32.6 C 25.5,31.8 25.8,32.3 25.7,34.4 C 25.5,40 23.8,40.9 23.8,40.9 S 22.6,40.7 21.5,39.6 C 17.7,35.8 17.2,30.3 17.1,28.3 C 17.1,27.9 16.8,27.5 16.3,27.5 C 15.4,27.5 14,27.2 12.8,26 C 12.5,25.7 12.2,25.3 12,25 C 11.7,24.6 11.7,24 12,23.6 C 13.3,21.3 13.5,18.5 11.2,16.2 C 8.7,13.7 6.4,13.9 4.9,13.9 L 4.9,5 L 13.8,5 C 13.8,6.5 13.6,8.7 16.1,11.3 C 18.4,13.6 21.2,13.4 23.5,12.1 C 24,11.8 24.5,11.9 24.9,12.1 C 25.2,12.3 25.6,12.6 25.9,12.9 C 27.1,14.1 27.4,15.5 27.4,16.4 C 27.4,16.8 27.8,17.2 28.2,17.2 C 30.2,17.3 35.7,17.8 39.5,21.6 C 40.7,22.6 40.9,23.8 40.9,23.8 Z M 75.6,27.1 C 71.1,27.8 57,30.9 43.9,43.9 C 30.9,56.9 27.8,71.1 27.1,75.6 C 27,76.1 26.4,76.2 26.2,75.8 C 23,70.3 10.8,48.8 5,43.1 L 5,25.4 C 10.8,31.2 21.1,47.6 23.8,51.9 C 24.1,52.4 24.7,52.4 25,51.9 C 26.4,49.7 30.3,44.1 37.2,37.2 C 44.1,30.3 49.7,26.4 51.9,25 C 52.4,24.7 52.4,24.1 51.9,23.8 C 47.6,21.2 31.2,10.8 25.4,5 L 43,5 C 48.8,10.8 70.2,23 75.7,26.2 C 76.1,26.4 76,27 75.6,27.1 Z M 26.1,95 L 13,95 C 9.8,86.2 5,82.7 5,82.7 L 5,62.7 C 9.6,67.2 22.1,87.9 26.1,95 Z M 95,13 L 95,26.1 C 87.9,22.1 67.2,9.6 62.6,5 L 82.6,5 C 82.7,5 86.3,9.8 95,13 Z M 95,35.9 L 95,46.9 C 68.5,46.9 47,68.4 47,94.9 L 36,94.9 C 35.9,62.4 62.4,35.9 95,35.9 Z M 95,49.6 L 95,80 C 86.7,80 80.1,86.7 80.1,94.9 L 49.6,94.9 C 49.6,92.7 50.9,91.7 52.9,91 C 54.8,90.3 54.9,90.5 54.9,88 C 55,85.5 56,83.9 58,83.4 C 58.4,83.3 58.3,88.8 63.6,90.7 C 64.2,90.9 65,84.9 69.3,84.7 C 70.2,84.8 67.7,88 70.9,91.2 C 73.2,93.5 76.1,93.3 77.7,91.6 C 79.3,89.9 81.1,86.3 78.3,83.6 C 75.6,80.9 73.6,82.2 71.9,80.4 C 71,79.5 71,77.9 71,77.1 C 71,76.8 70.8,76.5 70.5,76.6 C 69.7,76.7 68.4,76.7 67.4,75.8 C 66,74.4 66.7,73.7 66.2,73.2 S 65.1,72.9 64.2,72.1 C 62.6,70.5 64.4,68.6 63.6,67.8 C 61.9,66.2 61.5,64.1 62.7,62.8 S 66,62 67.7,63.7 C 68.5,64.5 70.4,62.7 72,64.3 C 72.9,65.2 72.6,65.8 73.1,66.3 S 74.3,66.1 75.7,67.5 C 76.6,68.5 76.6,69.8 76.5,70.6 C 76.5,70.9 76.7,71.2 77,71.1 C 77.9,71 79.4,71 80.3,71.9 C 82.1,73.7 80.8,75.6 83.5,78.3 S 89.9,79.3 91.5,77.7 C 93.2,76 93.4,73.2 91.1,70.9 C 87.9,67.7 84.7,70.2 84.6,69.3 C 84.8,65.1 90.8,64.2 90.6,63.6 C 88.6,58.3 83.2,58.4 83.3,58 C 83.8,56 85.4,55 87.9,54.9 S 90.2,54.8 90.9,52.9 C 91.8,51 92.8,49.6 95,49.6 Z M 95,86.2 L 95,95 L 86.2,95 C 86.2,90.1 90.1,86.2 95,86.2 Z" fill="url(#id1470) none" opacity="1" stroke-width="0" transform=" scale(0.450450, 0.450000) translate(449.550000, 361.111111) rotate(90, 49, 50)"/>
    <path d="M 40.9,23.8 S 39.9,25.5 34.4,25.7 C 32.4,25.8 31.8,25.5 32.6,27.6 C 33.4,29.7 33.9,30.9 32.9,32.9 C 30.9,33.9 29.6,33.4 27.6,32.6 C 25.5,31.8 25.8,32.3 25.7,34.4 C 25.5,40 23.8,40.9 23.8,40.9 S 22.6,40.7 21.5,39.6 C 17.7,35.8 17.2,30.3 17.1,28.3 C 17.1,27.9 16.8,27.5 16.3,27.5 C 15.4,27.5 14,27.2 12.8,26 C 12.5,25.7 12.2,25.3 12,25 C 11.7,24.6 11.7,24 12,23.6 C 13.3,21.3 13.5,18.5 11.2,16.2 C 8.7,13.7 6.4,13.9 4.9,13.9 L 4.9,5 L 13.8,5 C 13.8,6.5 13.6,8.7 16.1,11.3 C 18.4,13.6 21.2,13.4 23.5,12.1 C 24,11.8 24.5,11.9 24.9,12.1 C 25.2,12.3 25.6,12.6 25.9,12.9 C 27.1,14.1 27.4,15.5 27.4,16.4 C 27.4,16.8 27.8,17.2 28.2,17.2 C 30.2,17.3 35.7,17.8 39.5,21.6 C 40.7,22.6 40.9,23.8 40.9,23.8 Z M 75.6,27.1 C 71.1,27.8 57,30.9 43.9,43.9 C 30.9,56.9 27.8,71.1 27.1,75.6 C 27,76.1 26.4,76.2 26.2,75.8 C 23,70.3 10.8,48.8 5,43.1 L 5,25.4 C 10.8,31.2 21.1,47.6 23.8,51.9 C 24.1,52.4 24.7,52.4 25,51.9 C 26.4,49.7 30.3,44.1 37.2,37.2 C 44.1,30.3 49.7,26.4 51.9,25 C 52.4,24.7 52.4,24.1 51.9,23.8 C 47.6,21.2 31.2,10.8 25.4,5 L 43,5 C 48.8,10.8 70.2,23 75.7,26.2 C 76.1,26.4 76,27 75.6,27.1 Z M 26.1,95 L 13,95 C 9.8,86.2 5,82.7 5,82.7 L 5,62.7 C 9.6,67.2 22.1,87.9 26.1,95 Z M 95,13 L 95,26.1 C 87.9,22.1 67.2,9.6 62.6,5 L 82.6,5 C 82.7,5 86.3,9.8 95,13 Z M 95,35.9 L 95,46.9 C 68.5,46.9 47,68.4 47,94.9 L 36,94.9 C 35.9,62.4 62.4,35.9 95,35.9 Z M 95,49.6 L 95,80 C 86.7,80 80.1,86.7 80.1,94.9 L 49.6,94.9 C 49.6,92.7 50.9,91.7 52.9,91 C 54.8,90.3 54.9,90.5 54.9,88 C 55,85.5 56,83.9 58,83.4 C 58.4,83.3 58.3,88.8 63.6,90.7 C 64.2,90.9 65,84.9 69.3,84.7 C 70.2,84.8 67.7,88 70.9,91.2 C 73.2,93.5 76.1,93.3 77.7,91.6 C 79.3,89.9 81.1,86.3 78.3,83.6 C 75.6,80.9 73.6,82.2 71.9,80.4 C 71,79.5 71,77.9 71,77.1 C 71,76.8 70.8,76.5 70.5,76.6 C 69.7,76.7 68.4,76.7 67.4,75.8 C 66,74.4 66.7,73.7 66.2,73.2 S 65.1,72.9 64.2,72.1 C 62.6,70.5 64.4,68.6 63.6,67.8 C 61.9,66.2 61.5,64.1 62.7,62.8 S 66,62 67.7,63.7 C 68.5,64.5 70.4,62.7 72,64.3 C 72.9,65.2 72.6,65.8 73.1,66.3 S 74.3,66.1 75.7,67.5 C 76.6,68.5 76.6,69.8 76.5,70.6 C 76.5,70.9 76.7,71.2 77,71.1 C 77.9,71 79.4,71 80.3,71.9 C 82.1,73.7 80.8,75.6 83.5,78.3 S 89.9,79.3 91.5,77.7 C 93.2,76 93.4,73.2 91.1,70.9 C 87.9,67.7 84.7,70.2 84.6,69.3 C 84.8,65.1 90.8,64.2 90.6,63.6 C 88.6,58.3 83.2,58.4 83.3,58 C 83.8,56 85.4,55 87.9,54.9 S 90.2,54.8 90.9,52.9 C 91.8,51 92.8,49.6 95,49.6 Z M 95,86.2 L 95,95 L 86.2,95 C 86.2,90.1 90.1,86.2 95,86.2 Z" fill="url(#id1471) none" opacity="1" stroke-width="0" transform=" scale(0.450450, 0.450000) translate(5.550000, 450.000000) rotate(270, 49, 50)"/>
    <path d="M 40.9,23.8 S 39.9,25.5 34.4,25.7 C 32.4,25.8 31.8,25.5 32.6,27.6 C 33.4,29.7 33.9,30.9 32.9,32.9 C 30.9,33.9 29.6,33.4 27.6,32.6 C 25.5,31.8 25.8,32.3 25.7,34.4 C 25.5,40 23.8,40.9 23.8,40.9 S 22.6,40.7 21.5,39.6 C 17.7,35.8 17.2,30.3 17.1,28.3 C 17.1,27.9 16.8,27.5 16.3,27.5 C 15.4,27.5 14,27.2 12.8,26 C 12.5,25.7 12.2,25.3 12,25 C 11.7,24.6 11.7,24 12,23.6 C 13.3,21.3 13.5,18.5 11.2,16.2 C 8.7,13.7 6.4,13.9 4.9,13.9 L 4.9,5 L 13.8,5 C 13.8,6.5 13.6,8.7 16.1,11.3 C 18.4,13.6 21.2,13.4 23.5,12.1 C 24,11.8 24.5,11.9 24.9,12.1 C 25.2,12.3 25.6,12.6 25.9,12.9 C 27.1,14.1 27.4,15.5 27.4,16.4 C 27.4,16.8 27.8,17.2 28.2,17.2 C 30.2,17.3 35.7,17.8 39.5,21.6 C 40.7,22.6 40.9,23.8 40.9,23.8 Z M 75.6,27.1 C 71.1,27.8 57,30.9 43.9,43.9 C 30.9,56.9 27.8,71.1 27.1,75.6 C 27,76.1 26.4,76.2 26.2,75.8 C 23,70.3 10.8,48.8 5,43.1 L 5,25.4 C 10.8,31.2 21.1,47.6 23.8,51.9 C 24.1,52.4 24.7,52.4 25,51.9 C 26.4,49.7 30.3,44.1 37.2,37.2 C 44.1,30.3 49.7,26.4 51.9,25 C 52.4,24.7 52.4,24.1 51.9,23.8 C 47.6,21.2 31.2,10.8 25.4,5 L 43,5 C 48.8,10.8 70.2,23 75.7,26.2 C 76.1,26.4 76,27 75.6,27.1 Z M 26.1,95 L 13,95 C 9.8,86.2 5,82.7 5,82.7 L 5,62.7 C 9.6,67.2 22.1,87.9 26.1,95 Z M 95,13 L 95,26.1 C 87.9,22.1 67.2,9.6 62.6,5 L 82.6,5 C 82.7,5 86.3,9.8 95,13 Z M 95,35.9 L 95,46.9 C 68.5,46.9 47,68.4 47,94.9 L 36,94.9 C 35.9,62.4 62.4,35.9 95,35.9 Z M 95,49.6 L 95,80 C 86.7,80 80.1,86.7 80.1,94.9 L 49.6,94.9 C 49.6,92.7 50.9,91.7 52.9,91 C 54.8,90.3 54.9,90.5 54.9,88 C 55,85.5 56,83.9 58,83.4 C 58.4,83.3 58.3,88.8 63.6,90.7 C 64.2,90.9 65,84.9 69.3,84.7 C 70.2,84.8 67.7,88 70.9,91.2 C 73.2,93.5 76.1,93.3 77.7,91.6 C 79.3,89.9 81.1,86.3 78.3,83.6 C 75.6,80.9 73.6,82.2 71.9,80.4 C 71,79.5 71,77.9 71,77.1 C 71,76.8 70.8,76.5 70.5,76.6 C 69.7,76.7 68.4,76.7 67.4,75.8 C 66,74.4 66.7,73.7 66.2,73.2 S 65.1,72.9 64.2,72.1 C 62.6,70.5 64.4,68.6 63.6,67.8 C 61.9,66.2 61.5,64.1 62.7,62.8 S 66,62 67.7,63.7 C 68.5,64.5 70.4,62.7 72,64.3 C 72.9,65.2 72.6,65.8 73.1,66.3 S 74.3,66.1 75.7,67.5 C 76.6,68.5 76.6,69.8 76.5,70.6 C 76.5,70.9 76.7,71.2 77,71.1 C 77.9,71 79.4,71 80.3,71.9 C 82.1,73.7 80.8,75.6 83.5,78.3 S 89.9,79.3 91.5,77.7 C 93.2,76 93.4,73.2 91.1,70.9 C 87.9,67.7 84.7,70.2 84.6,69.3 C 84.8,65.1 90.8,64.2 90.6,63.6 C 88.6,58.3 83.2,58.4 83.3,58 C 83.8,56 85.4,55 87.9,54.9 S 90.2,54.8 90.9,52.9 C 91.8,51 92.8,49.6 95,49.6 Z M 95,86.2 L 95,95 L 86.2,95 C 86.2,90.1 90.1,86.2 95,86.2 Z" fill="url(#id1472) none" opacity="1" stroke-width="0" transform=" scale(0.450450, 0.450000) translate(94.350000, 450.000000) rotate(180, 49, 50)"/>
    <path d="M 40.9,23.8 S 39.9,25.5 34.4,25.7 C 32.4,25.8 31.8,25.5 32.6,27.6 C 33.4,29.7 33.9,30.9 32.9,32.9 C 30.9,33.9 29.6,33.4 27.6,32.6 C 25.5,31.8 25.8,32.3 25.7,34.4 C 25.5,40 23.8,40.9 23.8,40.9 S 22.6,40.7 21.5,39.6 C 17.7,35.8 17.2,30.3 17.1,28.3 C 17.1,27.9 16.8,27.5 16.3,27.5 C 15.4,27.5 14,27.2 12.8,26 C 12.5,25.7 12.2,25.3 12,25 C 11.7,24.6 11.7,24 12,23.6 C 13.3,21.3 13.5,18.5 11.2,16.2 C 8.7,13.7 6.4,13.9 4.9,13.9 L 4.9,5 L 13.8,5 C 13.8,6.5 13.6,8.7 16.1,11.3 C 18.4,13.6 21.2,13.4 23.5,12.1 C 24,11.8 24.5,11.9 24.9,12.1 C 25.2,12.3 25.6,12.6 25.9,12.9 C 27.1,14.1 27.4,15.5 27.4,16.4 C 27.4,16.8 27.8,17.2 28.2,17.2 C 30.2,17.3 35.7,17.8 39.5,21.6 C 40.7,22.6 40.9,23.8 40.9,23.8 Z M 75.6,27.1 C 71.1,27.8 57,30.9 43.9,43.9 C 30.9,56.9 27.8,71.1 27.1,75.6 C 27,76.1 26.4,76.2 26.2,75.8 C 23,70.3 10.8,48.8 5,43.1 L 5,25.4 C 10.8,31.2 21.1,47.6 23.8,51.9 C 24.1,52.4 24.7,52.4 25,51.9 C 26.4,49.7 30.3,44.1 37.2,37.2 C 44.1,30.3 49.7,26.4 51.9,25 C 52.4,24.7 52.4,24.1 51.9,23.8 C 47.6,21.2 31.2,10.8 25.4,5 L 43,5 C 48.8,10.8 70.2,23 75.7,26.2 C 76.1,26.4 76,27 75.6,27.1 Z M 26.1,95 L 13,95 C 9.8,86.2 5,82.7 5,82.7 L 5,62.7 C 9.6,67.2 22.1,87.9 26.1,95 Z M 95,13 L 95,26.1 C 87.9,22.1 67.2,9.6 62.6,5 L 82.6,5 C 82.7,5 86.3,9.8 95,13 Z M 95,35.9 L 95,46.9 C 68.5,46.9 47,68.4 47,94.9 L 36,94.9 C 35.9,62.4 62.4,35.9 95,35.9 Z M 95,49.6 L 95,80 C 86.7,80 80.1,86.7 80.1,94.9 L 49.6,94.9 C 49.6,92.7 50.9,91.7 52.9,91 C 54.8,90.3 54.9,90.5 54.9,88 C 55,85.5 56,83.9 58,83.4 C 58.4,83.3 58.3,88.8 63.6,90.7 C 64.2,90.9 65,84.9 69.3,84.7 C 70.2,84.8 67.7,88 70.9,91.2 C 73.2,93.5 76.1,93.3 77.7,91.6 C 79.3,89.9 81.1,86.3 78.3,83.6 C 75.6,80.9 73.6,82.2 71.9,80.4 C 71,79.5 71,77.9 71,77.1 C 71,76.8 70.8,76.5 70.5,76.6 C 69.7,76.7 68.4,76.7 67.4,75.8 C 66,74.4 66.7,73.7 66.2,73.2 S 65.1,72.9 64.2,72.1 C 62.6,70.5 64.4,68.6 63.6,67.8 C 61.9,66.2 61.5,64.1 62.7,62.8 S 66,62 67.7,63.7 C 68.5,64.5 70.4,62.7 72,64.3 C 72.9,65.2 72.6,65.8 73.1,66.3 S 74.3,66.1 75.7,67.5 C 76.6,68.5 76.6,69.8 76.5,70.6 C 76.5,70.9 76.7,71.2 77,71.1 C 77.9,71 79.4,71 80.3,71.9 C 82.1,73.7 80.8,75.6 83.5,78.3 S 89.9,79.3 91.5,77.7 C 93.2,76 93.4,73.2 91.1,70.9 C 87.9,67.7 84.7,70.2 84.6,69.3 C 84.8,65.1 90.8,64.2 90.6,63.6 C 88.6,58.3 83.2,58.4 83.3,58 C 83.8,56 85.4,55 87.9,54.9 S 90.2,54.8 90.9,52.9 C 91.8,51 92.8,49.6 95,49.6 Z M 95,86.2 L 95,95 L 86.2,95 C 86.2,90.1 90.1,86.2 95,86.2 Z" fill="url(#id1473) none" opacity="1" stroke-width="0" transform=" scale(0.450450, 0.450000) translate(183.150000, 450.000000) rotate(270, 49, 50)"/>
    <path d="M 40.9,23.8 S 39.9,25.5 34.4,25.7 C 32.4,25.8 31.8,25.5 32.6,27.6 C 33.4,29.7 33.9,30.9 32.9,32.9 C 30.9,33.9 29.6,33.4 27.6,32.6 C 25.5,31.8 25.8,32.3 25.7,34.4 C 25.5,40 23.8,40.9 23.8,40.9 S 22.6,40.7 21.5,39.6 C 17.7,35.8 17.2,30.3 17.1,28.3 C 17.1,27.9 16.8,27.5 16.3,27.5 C 15.4,27.5 14,27.2 12.8,26 C 12.5,25.7 12.2,25.3 12,25 C 11.7,24.6 11.7,24 12,23.6 C 13.3,21.3 13.5,18.5 11.2,16.2 C 8.7,13.7 6.4,13.9 4.9,13.9 L 4.9,5 L 13.8,5 C 13.8,6.5 13.6,8.7 16.1,11.3 C 18.4,13.6 21.2,13.4 23.5,12.1 C 24,11.8 24.5,11.9 24.9,12.1 C 25.2,12.3 25.6,12.6 25.9,12.9 C 27.1,14.1 27.4,15.5 27.4,16.4 C 27.4,16.8 27.8,17.2 28.2,17.2 C 30.2,17.3 35.7,17.8 39.5,21.6 C 40.7,22.6 40.9,23.8 40.9,23.8 Z M 75.6,27.1 C 71.1,27.8 57,30.9 43.9,43.9 C 30.9,56.9 27.8,71.1 27.1,75.6 C 27,76.1 26.4,76.2 26.2,75.8 C 23,70.3 10.8,48.8 5,43.1 L 5,25.4 C 10.8,31.2 21.1,47.6 23.8,51.9 C 24.1,52.4 24.7,52.4 25,51.9 C 26.4,49.7 30.3,44.1 37.2,37.2 C 44.1,30.3 49.7,26.4 51.9,25 C 52.4,24.7 52.4,24.1 51.9,23.8 C 47.6,21.2 31.2,10.8 25.4,5 L 43,5 C 48.8,10.8 70.2,23 75.7,26.2 C 76.1,26.4 76,27 75.6,27.1 Z M 26.1,95 L 13,95 C 9.8,86.2 5,82.7 5,82.7 L 5,62.7 C 9.6,67.2 22.1,87.9 26.1,95 Z M 95,13 L 95,26.1 C 87.9,22.1 67.2,9.6 62.6,5 L 82.6,5 C 82.7,5 86.3,9.8 95,13 Z M 95,35.9 L 95,46.9 C 68.5,46.9 47,68.4 47,94.9 L 36,94.9 C 35.9,62.4 62.4,35.9 95,35.9 Z M 95,49.6 L 95,80 C 86.7,80 80.1,86.7 80.1,94.9 L 49.6,94.9 C 49.6,92.7 50.9,91.7 52.9,91 C 54.8,90.3 54.9,90.5 54.9,88 C 55,85.5 56,83.9 58,83.4 C 58.4,83.3 58.3,88.8 63.6,90.7 C 64.2,90.9 65,84.9 69.3,84.7 C 70.2,84.8 67.7,88 70.9,91.2 C 73.2,93.5 76.1,93.3 77.7,91.6 C 79.3,89.9 81.1,86.3 78.3,83.6 C 75.6,80.9 73.6,82.2 71.9,80.4 C 71,79.5 71,77.9 71,77.1 C 71,76.8 70.8,76.5 70.5,76.6 C 69.7,76.7 68.4,76.7 67.4,75.8 C 66,74.4 66.7,73.7 66.2,73.2 S 65.1,72.9 64.2,72.1 C 62.6,70.5 64.4,68.6 63.6,67.8 C 61.9,66.2 61.5,64.1 62.7,62.8 S 66,62 67.7,63.7 C 68.5,64.5 70.4,62.7 72,64.3 C 72.9,65.2 72.6,65.8 73.1,66.3 S 74.3,66.1 75.7,67.5 C 76.6,68.5 76.6,69.8 76.5,70.6 C 76.5,70.9 76.7,71.2 77,71.1 C 77.9,71 79.4,71 80.3,71.9 C 82.1,73.7 80.8,75.6 83.5,78.3 S 89.9,79.3 91.5,77.7 C 93.2,76 93.4,73.2 91.1,70.9 C 87.9,67.7 84.7,70.2 84.6,69.3 C 84.8,65.1 90.8,64.2 90.6,63.6 C 88.6,58.3 83.2,58.4 83.3,58 C 83.8,56 85.4,55 87.9,54.9 S 90.2,54.8 90.9,52.9 C 91.8,51 92.8,49.6 95,49.6 Z M 95,86.2 L 95,95 L 86.2,95 C 86.2,90.1 90.1,86.2 95,86.2 Z" fill="url(#id1474) none" opacity="1" stroke-width="0" transform=" scale(0.450450, 0.450000) translate(271.950000, 450.000000) rotate(180, 49, 50)"/>
    <path d="M 40.9,23.8 S 39.9,25.5 34.4,25.7 C 32.4,25.8 31.8,25.5 32.6,27.6 C 33.4,29.7 33.9,30.9 32.9,32.9 C 30.9,33.9 29.6,33.4 27.6,32.6 C 25.5,31.8 25.8,32.3 25.7,34.4 C 25.5,40 23.8,40.9 23.8,40.9 S 22.6,40.7 21.5,39.6 C 17.7,35.8 17.2,30.3 17.1,28.3 C 17.1,27.9 16.8,27.5 16.3,27.5 C 15.4,27.5 14,27.2 12.8,26 C 12.5,25.7 12.2,25.3 12,25 C 11.7,24.6 11.7,24 12,23.6 C 13.3,21.3 13.5,18.5 11.2,16.2 C 8.7,13.7 6.4,13.9 4.9,13.9 L 4.9,5 L 13.8,5 C 13.8,6.5 13.6,8.7 16.1,11.3 C 18.4,13.6 21.2,13.4 23.5,12.1 C 24,11.8 24.5,11.9 24.9,12.1 C 25.2,12.3 25.6,12.6 25.9,12.9 C 27.1,14.1 27.4,15.5 27.4,16.4 C 27.4,16.8 27.8,17.2 28.2,17.2 C 30.2,17.3 35.7,17.8 39.5,21.6 C 40.7,22.6 40.9,23.8 40.9,23.8 Z M 75.6,27.1 C 71.1,27.8 57,30.9 43.9,43.9 C 30.9,56.9 27.8,71.1 27.1,75.6 C 27,76.1 26.4,76.2 26.2,75.8 C 23,70.3 10.8,48.8 5,43.1 L 5,25.4 C 10.8,31.2 21.1,47.6 23.8,51.9 C 24.1,52.4 24.7,52.4 25,51.9 C 26.4,49.7 30.3,44.1 37.2,37.2 C 44.1,30.3 49.7,26.4 51.9,25 C 52.4,24.7 52.4,24.1 51.9,23.8 C 47.6,21.2 31.2,10.8 25.4,5 L 43,5 C 48.8,10.8 70.2,23 75.7,26.2 C 76.1,26.4 76,27 75.6,27.1 Z M 26.1,95 L 13,95 C 9.8,86.2 5,82.7 5,82.7 L 5,62.7 C 9.6,67.2 22.1,87.9 26.1,95 Z M 95,13 L 95,26.1 C 87.9,22.1 67.2,9.6 62.6,5 L 82.6,5 C 82.7,5 86.3,9.8 95,13 Z M 95,35.9 L 95,46.9 C 68.5,46.9 47,68.4 47,94.9 L 36,94.9 C 35.9,62.4 62.4,35.9 95,35.9 Z M 95,49.6 L 95,80 C 86.7,80 80.1,86.7 80.1,94.9 L 49.6,94.9 C 49.6,92.7 50.9,91.7 52.9,91 C 54.8,90.3 54.9,90.5 54.9,88 C 55,85.5 56,83.9 58,83.4 C 58.4,83.3 58.3,88.8 63.6,90.7 C 64.2,90.9 65,84.9 69.3,84.7 C 70.2,84.8 67.7,88 70.9,91.2 C 73.2,93.5 76.1,93.3 77.7,91.6 C 79.3,89.9 81.1,86.3 78.3,83.6 C 75.6,80.9 73.6,82.2 71.9,80.4 C 71,79.5 71,77.9 71,77.1 C 71,76.8 70.8,76.5 70.5,76.6 C 69.7,76.7 68.4,76.7 67.4,75.8 C 66,74.4 66.7,73.7 66.2,73.2 S 65.1,72.9 64.2,72.1 C 62.6,70.5 64.4,68.6 63.6,67.8 C 61.9,66.2 61.5,64.1 62.7,62.8 S 66,62 67.7,63.7 C 68.5,64.5 70.4,62.7 72,64.3 C 72.9,65.2 72.6,65.8 73.1,66.3 S 74.3,66.1 75.7,67.5 C 76.6,68.5 76.6,69.8 76.5,70.6 C 76.5,70.9 76.7,71.2 77,71.1 C 77.9,71 79.4,71 80.3,71.9 C 82.1,73.7 80.8,75.6 83.5,78.3 S 89.9,79.3 91.5,77.7 C 93.2,76 93.4,73.2 91.1,70.9 C 87.9,67.7 84.7,70.2 84.6,69.3 C 84.8,65.1 90.8,64.2 90.6,63.6 C 88.6,58.3 83.2,58.4 83.3,58 C 83.8,56 85.4,55 87.9,54.9 S 90.2,54.8 90.9,52.9 C 91.8,51 92.8,49.6 95,49.6 Z M 95,86.2 L 95,95 L 86.2,95 C 86.2,90.1 90.1,86.2 95,86.2 Z" fill="url(#id1475) none" opacity="1" stroke-width="0" transform=" scale(0.450450, 0.450000) translate(360.750000, 450.000000) rotate(270, 49, 50)"/>
    <path d="M 40.9,23.8 S 39.9,25.5 34.4,25.7 C 32.4,25.8 31.8,25.5 32.6,27.6 C 33.4,29.7 33.9,30.9 32.9,32.9 C 30.9,33.9 29.6,33.4 27.6,32.6 C 25.5,31.8 25.8,32.3 25.7,34.4 C 25.5,40 23.8,40.9 23.8,40.9 S 22.6,40.7 21.5,39.6 C 17.7,35.8 17.2,30.3 17.1,28.3 C 17.1,27.9 16.8,27.5 16.3,27.5 C 15.4,27.5 14,27.2 12.8,26 C 12.5,25.7 12.2,25.3 12,25 C 11.7,24.6 11.7,24 12,23.6 C 13.3,21.3 13.5,18.5 11.2,16.2 C 8.7,13.7 6.4,13.9 4.9,13.9 L 4.9,5 L 13.8,5 C 13.8,6.5 13.6,8.7 16.1,11.3 C 18.4,13.6 21.2,13.4 23.5,12.1 C 24,11.8 24.5,11.9 24.9,12.1 C 25.2,12.3 25.6,12.6 25.9,12.9 C 27.1,14.1 27.4,15.5 27.4,16.4 C 27.4,16.8 27.8,17.2 28.2,17.2 C 30.2,17.3 35.7,17.8 39.5,21.6 C 40.7,22.6 40.9,23.8 40.9,23.8 Z M 75.6,27.1 C 71.1,27.8 57,30.9 43.9,43.9 C 30.9,56.9 27.8,71.1 27.1,75.6 C 27,76.1 26.4,76.2 26.2,75.8 C 23,70.3 10.8,48.8 5,43.1 L 5,25.4 C 10.8,31.2 21.1,47.6 23.8,51.9 C 24.1,52.4 24.7,52.4 25,51.9 C 26.4,49.7 30.3,44.1 37.2,37.2 C 44.1,30.3 49.7,26.4 51.9,25 C 52.4,24.7 52.4,24.1 51.9,23.8 C 47.6,21.2 31.2,10.8 25.4,5 L 43,5 C 48.8,10.8 70.2,23 75.7,26.2 C 76.1,26.4 76,27 75.6,27.1 Z M 26.1,95 L 13,95 C 9.8,86.2 5,82.7 5,82.7 L 5,62.7 C 9.6,67.2 22.1,87.9 26.1,95 Z M 95,13 L 95,26.1 C 87.9,22.1 67.2,9.6 62.6,5 L 82.6,5 C 82.7,5 86.3,9.8 95,13 Z M 95,35.9 L 95,46.9 C 68.5,46.9 47,68.4 47,94.9 L 36,94.9 C 35.9,62.4 62.4,35.9 95,35.9 Z M 95,49.6 L 95,80 C 86.7,80 80.1,86.7 80.1,94.9 L 49.6,94.9 C 49.6,92.7 50.9,91.7 52.9,91 C 54.8,90.3 54.9,90.5 54.9,88 C 55,85.5 56,83.9 58,83.4 C 58.4,83.3 58.3,88.8 63.6,90.7 C 64.2,90.9 65,84.9 69.3,84.7 C 70.2,84.8 67.7,88 70.9,91.2 C 73.2,93.5 76.1,93.3 77.7,91.6 C 79.3,89.9 81.1,86.3 78.3,83.6 C 75.6,80.9 73.6,82.2 71.9,80.4 C 71,79.5 71,77.9 71,77.1 C 71,76.8 70.8,76.5 70.5,76.6 C 69.7,76.7 68.4,76.7 67.4,75.8 C 66,74.4 66.7,73.7 66.2,73.2 S 65.1,72.9 64.2,72.1 C 62.6,70.5 64.4,68.6 63.6,67.8 C 61.9,66.2 61.5,64.1 62.7,62.8 S 66,62 67.7,63.7 C 68.5,64.5 70.4,62.7 72,64.3 C 72.9,65.2 72.6,65.8 73.1,66.3 S 74.3,66.1 75.7,67.5 C 76.6,68.5 76.6,69.8 76.5,70.6 C 76.5,70.9 76.7,71.2 77,71.1 C 77.9,71 79.4,71 80.3,71.9 C 82.1,73.7 80.8,75.6 83.5,78.3 S 89.9,79.3 91.5,77.7 C 93.2,76 93.4,73.2 91.1,70.9 C 87.9,67.7 84.7,70.2 84.6,69.3 C 84.8,65.1 90.8,64.2 90.6,63.6 C 88.6,58.3 83.2,58.4 83.3,58 C 83.8,56 85.4,55 87.9,54.9 S 90.2,54.8 90.9,52.9 C 91.8,51 92.8,49.6 95,49.6 Z M 95,86.2 L 95,95 L 86.2,95 C 86.2,90.1 90.1,86.2 95,86.2 Z" fill="url(#id1476) none" opacity="1" stroke-width="0" transform=" scale(0.450450, 0.450000) translate(449.550000, 450.000000) rotate(180, 49, 50)"/>
  </g>
</svg>
