<?xml version="1.0" encoding="utf-8" ?>
<svg xmlns="http://www.w3.org/2000/svg" xmlns:ev="http://www.w3.org/2001/xml-events" xmlns:xlink="http://www.w3.org/1999/xlink" baseProfile="full" height="250" version="1.1" width="250">
  <defs/>
  <g transform=" rotate(0, 125, 125)">
    <rect fill="white" height="250" width="250" x="0" y="0"/>
    <ellipse cx="25.0" cy="124.99999999999999" fill="none" opacity="1" rx="11.0" ry="11.0" stroke="#6dd6ff" stroke-width="5" transform=" rotate(0, 25, 124)"/>
    <ellipse cx="26.519224698779198" cy="107.63518223330698" fill="none" opacity="1" rx="11.0" ry="11.0" stroke="#1b9fd8" stroke-width="5" transform=" rotate(0, 26, 107)"/>
    <ellipse cx="31.03073792140917" cy="90.79798566743311" fill="none" opacity="1" rx="11.0" ry="11.0" stroke="#006ca1" stroke-width="5" transform=" rotate(0, 31, 90)"/>
    <ellipse cx="38.39745962155612" cy="75.0" fill="none" opacity="1" rx="11.0" ry="11.0" stroke="#6dd6ff" stroke-width="5" transform=" rotate(0, 38, 75)"/>
    <ellipse cx="48.395555688102206" cy="60.72123903134606" fill="none" opacity="1" rx="11.0" ry="11.0" stroke="#1b9fd8" stroke-width="5" transform=" rotate(0, 48, 60)"/>
    <ellipse cx="60.72123903134606" cy="48.39555568810219" fill="none" opacity="1" rx="11.0" ry="11.0" stroke="#006ca1" stroke-width="5" transform=" rotate(0, 60, 48)"/>
    <ellipse cx="75.00000000000003" cy="38.39745962155612" fill="none" opacity="1" rx="11.0" ry="11.0" stroke="#6dd6ff" stroke-width="5" transform=" rotate(0, 75, 38)"/>
    <ellipse cx="90.79798566743312" cy="31.030737921409155" fill="none" opacity="1" rx="11.0" ry="11.0" stroke="#1b9fd8" stroke-width="5" transform=" rotate(0, 90, 31)"/>
    <ellipse cx="107.63518223330698" cy="26.519224698779198" fill="none" opacity="1" rx="11.0" ry="11.0" stroke="#006ca1" stroke-width="5" transform=" rotate(0, 107, 26)"/>
    <ellipse cx="125.0" cy="25.0" fill="none" opacity="1" rx="11.0" ry="11.0" stroke="#6dd6ff" stroke-width="5" transform=" rotate(0, 125, 25)"/>
    <ellipse cx="142.36481776669305" cy="26.519224698779198" fill="none" opacity="1" rx="11.0" ry="11.0" stroke="#1b9fd8" stroke-width="5" transform=" rotate(0, 142, 26)"/>
    <ellipse cx="159.20201433256688" cy="31.03073792140917" fill="none" opacity="1" rx="11.0" ry="11.0" stroke="#006ca1" stroke-width="5" transform=" rotate(0, 159, 31)"/>
    <ellipse cx="175.0" cy="38.39745962155614" fill="none" opacity="1" rx="11.0" ry="11.0" stroke="#6dd6ff" stroke-width="5" transform=" rotate(0, 175, 38)"/>
    <ellipse cx="189.27876096865396" cy="48.39555568810219" fill="none" opacity="1" rx="11.0" ry="11.0" stroke="#1b9fd8" stroke-width="5" transform=" rotate(0, 189, 48)"/>
    <ellipse cx="201.6044443118978" cy="60.72123903134607" fill="none" opacity="1" rx="11.0" ry="11.0" stroke="#006ca1" stroke-width="5" transform=" rotate(0, 201, 60)"/>
    <ellipse cx="211.60254037844388" cy="75.0" fill="none" opacity="1" rx="11.0" ry="11.0" stroke="#6dd6ff" stroke-width="5" transform=" rotate(0, 211, 75)"/>
    <ellipse cx="218.96926207859084" cy="90.79798566743312" fill="none" opacity="1" rx="11.0" ry="11.0" stroke="#1b9fd8" stroke-width="5" transform=" rotate(0, 218, 90)"/>
    <ellipse cx="223.4807753012208" cy="107.63518223330696" fill="none" opacity="1" rx="11.0" ry="11.0" stroke="#006ca1" stroke-width="5" transform=" rotate(0, 223, 107)"/>
    <ellipse cx="225.0" cy="125.0" fill="none" opacity="1" rx="11.0" ry="11.0" stroke="#6dd6ff" stroke-width="5" transform=" rotate(0, 225, 125)"/>
    <ellipse cx="223.4807753012208" cy="142.36481776669302" fill="none" opacity="1" rx="11.0" ry="11.0" stroke="#1b9fd8" stroke-width="5" transform=" rotate(0, 223, 142)"/>
    <ellipse cx="218.96926207859084" cy="159.20201433256688" fill="none" opacity="1" rx="11.0" ry="11.0" stroke="#006ca1" stroke-width="5" transform=" rotate(0, 218, 159)"/>
    <ellipse cx="211.60254037844388" cy="175.0" fill="none" opacity="1" rx="11.0" ry="11.0" stroke="#6dd6ff" stroke-width="5" transform=" rotate(0, 211, 175)"/>
    <ellipse cx="201.6044443118978" cy="189.27876096865393" fill="none" opacity="1" rx="11.0" ry="11.0" stroke="#1b9fd8" stroke-width="5" transform=" rotate(0, 201, 189)"/>
    <ellipse cx="189.27876096865396" cy="201.6044443118978" fill="none" opacity="1" rx="11.0" ry="11.0" stroke="#006ca1" stroke-width="5" transform=" rotate(0, 189, 201)"/>
    <ellipse cx="175.0" cy="211.60254037844385" fill="none" opacity="1" rx="11.0" ry="11.0" stroke="#6dd6ff" stroke-width="5" transform=" rotate(0, 175, 211)"/>
    <ellipse cx="159.20201433256688" cy="218.96926207859082" fill="none" opacity="1" rx="11.0" ry="11.0" stroke="#1b9fd8" stroke-width="5" transform=" rotate(0, 159, 218)"/>
    <ellipse cx="142.36481776669305" cy="223.4807753012208" fill="none" opacity="1" rx="11.0" ry="11.0" stroke="#006ca1" stroke-width="5" transform=" rotate(0, 142, 223)"/>
    <ellipse cx="125.0" cy="225.0" fill="none" opacity="1" rx="11.0" ry="11.0" stroke="#6dd6ff" stroke-width="5" transform=" rotate(0, 125, 225)"/>
    <ellipse cx="107.63518223330698" cy="223.4807753012208" fill="none" opacity="1" rx="11.0" ry="11.0" stroke="#1b9fd8" stroke-width="5" transform=" rotate(0, 107, 223)"/>
    <ellipse cx="90.79798566743312" cy="218.96926207859084" fill="none" opacity="1" rx="11.0" ry="11.0" stroke="#006ca1" stroke-width="5" transform=" rotate(0, 90, 218)"/>
    <ellipse cx="75.00000000000003" cy="211.60254037844388" fill="none" opacity="1" rx="11.0" ry="11.0" stroke="#6dd6ff" stroke-width="5" transform=" rotate(0, 75, 211)"/>
    <ellipse cx="60.72123903134606" cy="201.6044443118978" fill="none" opacity="1" rx="11.0" ry="11.0" stroke="#1b9fd8" stroke-width="5" transform=" rotate(0, 60, 201)"/>
    <ellipse cx="48.395555688102206" cy="189.27876096865396" fill="none" opacity="1" rx="11.0" ry="11.0" stroke="#006ca1" stroke-width="5" transform=" rotate(0, 48, 189)"/>
    <ellipse cx="38.39745962155612" cy="175.0" fill="none" opacity="1" rx="11.0" ry="11.0" stroke="#6dd6ff" stroke-width="5" transform=" rotate(0, 38, 175)"/>
    <ellipse cx="31.03073792140917" cy="159.20201433256688" fill="none" opacity="1" rx="11.0" ry="11.0" stroke="#1b9fd8" stroke-width="5" transform=" rotate(0, 31, 159)"/>
    <ellipse cx="26.519224698779198" cy="142.36481776669302" fill="none" opacity="1" rx="11.0" ry="11.0" stroke="#006ca1" stroke-width="5" transform=" rotate(0, 26, 142)"/>
  </g>
</svg>
