<?xml version="1.0" encoding="utf-8" ?>
<svg xmlns="http://www.w3.org/2000/svg" xmlns:ev="http://www.w3.org/2001/xml-events" xmlns:xlink="http://www.w3.org/1999/xlink" baseProfile="full" height="240" version="1.1" width="840">
  <defs/>
  <g transform=" rotate(0, 420, 120)">
    <rect fill="white" height="240" width="840" x="0" y="0"/>
    <path d="M 46.94,0 C 65.14,-0.34 82.61,10.56 88.53,33.31 C 97.03,65.96 77.15,111.31 47.53,122.87 L 22.58,122.87 C 31.8,112.29 61.2,84.47 56.76,69.47 C 49.85,77.41 39.76,80.47 30,79.31 C -19.27,73.68 -3.79,0.94 46.94,0 Z" fill="black" opacity="1" stroke-width="0" transform=" scale(1.104888, 0.813919) translate(18.101378, 24.572458) rotate(0, 45, 61)"/>
    <path d="M 46.94,0 C 65.14,-0.34 82.61,10.56 88.53,33.31 C 97.03,65.96 77.15,111.31 47.53,122.87 L 22.58,122.87 C 31.8,112.29 61.2,84.47 56.76,69.47 C 49.85,77.41 39.76,80.47 30,79.31 C -19.27,73.68 -3.79,0.94 46.94,0 Z" fill="black" opacity="1" stroke-width="0" transform="scale(-1, 1) translate(-340.000000, 0) scale(1.104888, 0.813919) translate(108.608269, 24.572458) rotate(0, 45, 61)"/>
    <path d="M 46.94,0 C 65.14,-0.34 82.61,10.56 88.53,33.31 C 97.03,65.96 77.15,111.31 47.53,122.87 L 22.58,122.87 C 31.8,112.29 61.2,84.47 56.76,69.47 C 49.85,77.41 39.76,80.47 30,79.31 C -19.27,73.68 -3.79,0.94 46.94,0 Z" fill="black" opacity="1" stroke-width="0" transform=" scale(1.104888, 0.813919) translate(199.115159, 24.572458) rotate(0, 45, 61)"/>
    <path d="M 46.94,0 C 65.14,-0.34 82.61,10.56 88.53,33.31 C 97.03,65.96 77.15,111.31 47.53,122.87 L 22.58,122.87 C 31.8,112.29 61.2,84.47 56.76,69.47 C 49.85,77.41 39.76,80.47 30,79.31 C -19.27,73.68 -3.79,0.94 46.94,0 Z" fill="black" opacity="1" stroke-width="0" transform="scale(-1, 1) translate(-740.000000, 0) scale(1.104888, 0.813919) translate(289.622050, 24.572458) rotate(0, 45, 61)"/>
    <path d="M 46.94,0 C 65.14,-0.34 82.61,10.56 88.53,33.31 C 97.03,65.96 77.15,111.31 47.53,122.87 L 22.58,122.87 C 31.8,112.29 61.2,84.47 56.76,69.47 C 49.85,77.41 39.76,80.47 30,79.31 C -19.27,73.68 -3.79,0.94 46.94,0 Z" fill="black" opacity="1" stroke-width="0" transform=" scale(1.104888, 0.813919) translate(380.128941, 24.572458) rotate(0, 45, 61)"/>
    <path d="M 46.94,0 C 65.14,-0.34 82.61,10.56 88.53,33.31 C 97.03,65.96 77.15,111.31 47.53,122.87 L 22.58,122.87 C 31.8,112.29 61.2,84.47 56.76,69.47 C 49.85,77.41 39.76,80.47 30,79.31 C -19.27,73.68 -3.79,0.94 46.94,0 Z" fill="black" opacity="1" stroke-width="0" transform="scale(-1, 1) translate(-1140.000000, 0) scale(1.104888, 0.813919) translate(470.635831, 24.572458) rotate(0, 45, 61)"/>
    <path d="M 46.94,0 C 65.14,-0.34 82.61,10.56 88.53,33.31 C 97.03,65.96 77.15,111.31 47.53,122.87 L 22.58,122.87 C 31.8,112.29 61.2,84.47 56.76,69.47 C 49.85,77.41 39.76,80.47 30,79.31 C -19.27,73.68 -3.79,0.94 46.94,0 Z" fill="black" opacity="1" stroke-width="0" transform=" scale(1.104888, 0.813919) translate(561.142722, 24.572458) rotate(0, 45, 61)"/>
    <path d="M 46.94,0 C 65.14,-0.34 82.61,10.56 88.53,33.31 C 97.03,65.96 77.15,111.31 47.53,122.87 L 22.58,122.87 C 31.8,112.29 61.2,84.47 56.76,69.47 C 49.85,77.41 39.76,80.47 30,79.31 C -19.27,73.68 -3.79,0.94 46.94,0 Z" fill="black" opacity="1" stroke-width="0" transform="scale(-1, 1) translate(-1540.000000, 0) scale(1.104888, 0.813919) translate(651.649613, 24.572458) rotate(0, 45, 61)"/>
    <path d="M 46.94,0 C 65.14,-0.34 82.61,10.56 88.53,33.31 C 97.03,65.96 77.15,111.31 47.53,122.87 L 22.58,122.87 C 31.8,112.29 61.2,84.47 56.76,69.47 C 49.85,77.41 39.76,80.47 30,79.31 C -19.27,73.68 -3.79,0.94 46.94,0 Z" fill="red" opacity="1" stroke-width="0" transform="scale(1, -1), translate(0, -340.000000) scale(1.104888, 0.813919) translate(18.101378, 147.434746) rotate(0, 45, 61)"/>
    <path d="M 46.94,0 C 65.14,-0.34 82.61,10.56 88.53,33.31 C 97.03,65.96 77.15,111.31 47.53,122.87 L 22.58,122.87 C 31.8,112.29 61.2,84.47 56.76,69.47 C 49.85,77.41 39.76,80.47 30,79.31 C -19.27,73.68 -3.79,0.94 46.94,0 Z" fill="red" opacity="1" stroke-width="0" transform="scale(-1, -1) translate(-340.000000, -340.000000) scale(1.104888, 0.813919) translate(108.608269, 147.434746) rotate(0, 45, 61)"/>
    <path d="M 46.94,0 C 65.14,-0.34 82.61,10.56 88.53,33.31 C 97.03,65.96 77.15,111.31 47.53,122.87 L 22.58,122.87 C 31.8,112.29 61.2,84.47 56.76,69.47 C 49.85,77.41 39.76,80.47 30,79.31 C -19.27,73.68 -3.79,0.94 46.94,0 Z" fill="red" opacity="1" stroke-width="0" transform="scale(1, -1), translate(0, -340.000000) scale(1.104888, 0.813919) translate(199.115159, 147.434746) rotate(0, 45, 61)"/>
    <path d="M 46.94,0 C 65.14,-0.34 82.61,10.56 88.53,33.31 C 97.03,65.96 77.15,111.31 47.53,122.87 L 22.58,122.87 C 31.8,112.29 61.2,84.47 56.76,69.47 C 49.85,77.41 39.76,80.47 30,79.31 C -19.27,73.68 -3.79,0.94 46.94,0 Z" fill="red" opacity="1" stroke-width="0" transform="scale(-1, -1) translate(-740.000000, -340.000000) scale(1.104888, 0.813919) translate(289.622050, 147.434746) rotate(0, 45, 61)"/>
    <path d="M 46.94,0 C 65.14,-0.34 82.61,10.56 88.53,33.31 C 97.03,65.96 77.15,111.31 47.53,122.87 L 22.58,122.87 C 31.8,112.29 61.2,84.47 56.76,69.47 C 49.85,77.41 39.76,80.47 30,79.31 C -19.27,73.68 -3.79,0.94 46.94,0 Z" fill="red" opacity="1" stroke-width="0" transform="scale(1, -1), translate(0, -340.000000) scale(1.104888, 0.813919) translate(380.128941, 147.434746) rotate(0, 45, 61)"/>
    <path d="M 46.94,0 C 65.14,-0.34 82.61,10.56 88.53,33.31 C 97.03,65.96 77.15,111.31 47.53,122.87 L 22.58,122.87 C 31.8,112.29 61.2,84.47 56.76,69.47 C 49.85,77.41 39.76,80.47 30,79.31 C -19.27,73.68 -3.79,0.94 46.94,0 Z" fill="red" opacity="1" stroke-width="0" transform="scale(-1, -1) translate(-1140.000000, -340.000000) scale(1.104888, 0.813919) translate(470.635831, 147.434746) rotate(0, 45, 61)"/>
    <path d="M 46.94,0 C 65.14,-0.34 82.61,10.56 88.53,33.31 C 97.03,65.96 77.15,111.31 47.53,122.87 L 22.58,122.87 C 31.8,112.29 61.2,84.47 56.76,69.47 C 49.85,77.41 39.76,80.47 30,79.31 C -19.27,73.68 -3.79,0.94 46.94,0 Z" fill="red" opacity="1" stroke-width="0" transform="scale(1, -1), translate(0, -340.000000) scale(1.104888, 0.813919) translate(561.142722, 147.434746) rotate(0, 45, 61)"/>
    <path d="M 46.94,0 C 65.14,-0.34 82.61,10.56 88.53,33.31 C 97.03,65.96 77.15,111.31 47.53,122.87 L 22.58,122.87 C 31.8,112.29 61.2,84.47 56.76,69.47 C 49.85,77.41 39.76,80.47 30,79.31 C -19.27,73.68 -3.79,0.94 46.94,0 Z" fill="red" opacity="1" stroke-width="0" transform="scale(-1, -1) translate(-1540.000000, -340.000000) scale(1.104888, 0.813919) translate(651.649613, 147.434746) rotate(0, 45, 61)"/>
  </g>
</svg>
