<?xml version="1.0" encoding="utf-8" ?>
<svg xmlns="http://www.w3.org/2000/svg" xmlns:ev="http://www.w3.org/2001/xml-events" xmlns:xlink="http://www.w3.org/1999/xlink" baseProfile="full" height="484" version="1.1" width="484">
  <defs/>
  <g transform=" rotate(0, 242, 242)">
    <rect fill="white" height="484" width="484" x="0" y="0"/>
    <polygon fill="dodgerblue" opacity="1" points="42.0,19.5 26.09009742330268,26.090097423302677 19.5,41.99999999999999 26.090097423302677,57.90990257669731 41.99999999999999,64.5 57.90990257669731,57.90990257669732 64.5,42.00000000000001 57.909902576697334,26.0900974233027" stroke-width="0" transform=" rotate(0, 42, 42)"/>
    <polygon fill="dodgerblue" opacity="1" points="92.0,19.5 76.09009742330268,26.090097423302677 69.5,41.99999999999999 76.09009742330268,57.90990257669731 92.0,64.5 107.90990257669732,57.90990257669732 114.5,42.00000000000001 107.90990257669733,26.0900974233027" stroke-width="0" transform=" rotate(0, 92, 42)"/>
    <polygon fill="dodgerblue" opacity="1" points="142.0,19.5 126.09009742330268,26.090097423302677 119.5,41.99999999999999 126.09009742330268,57.90990257669731 142.0,64.5 157.9099025766973,57.90990257669732 164.5,42.00000000000001 157.90990257669733,26.0900974233027" stroke-width="0" transform=" rotate(0, 142, 42)"/>
    <polygon fill="dodgerblue" opacity="1" points="192.0,19.5 176.0900974233027,26.090097423302677 169.5,41.99999999999999 176.09009742330267,57.90990257669731 192.0,64.5 207.9099025766973,57.90990257669732 214.5,42.00000000000001 207.90990257669733,26.0900974233027" stroke-width="0" transform=" rotate(0, 192, 42)"/>
    <polygon fill="dodgerblue" opacity="1" points="242.0,19.5 226.0900974233027,26.090097423302677 219.5,41.99999999999999 226.09009742330267,57.90990257669731 242.0,64.5 257.90990257669733,57.90990257669732 264.5,42.00000000000001 257.90990257669733,26.0900974233027" stroke-width="0" transform=" rotate(0, 242, 42)"/>
    <polygon fill="dodgerblue" opacity="1" points="292.0,19.5 276.09009742330267,26.090097423302677 269.5,41.99999999999999 276.09009742330267,57.90990257669731 292.0,64.5 307.90990257669733,57.90990257669732 314.5,42.00000000000001 307.90990257669733,26.0900974233027" stroke-width="0" transform=" rotate(0, 292, 42)"/>
    <polygon fill="dodgerblue" opacity="1" points="342.0,19.5 326.09009742330267,26.090097423302677 319.5,41.99999999999999 326.09009742330267,57.90990257669731 342.0,64.5 357.90990257669733,57.90990257669732 364.5,42.00000000000001 357.90990257669733,26.0900974233027" stroke-width="0" transform=" rotate(0, 342, 42)"/>
    <polygon fill="dodgerblue" opacity="1" points="392.0,19.5 376.09009742330267,26.090097423302677 369.5,41.99999999999999 376.09009742330267,57.90990257669731 392.0,64.5 407.90990257669733,57.90990257669732 414.5,42.00000000000001 407.90990257669733,26.0900974233027" stroke-width="0" transform=" rotate(0, 392, 42)"/>
    <polygon fill="dodgerblue" opacity="1" points="442.0,19.5 426.09009742330267,26.090097423302677 419.5,41.99999999999999 426.09009742330267,57.90990257669731 442.0,64.5 457.90990257669733,57.90990257669732 464.5,42.00000000000001 457.90990257669733,26.0900974233027" stroke-width="0" transform=" rotate(0, 442, 42)"/>
    <polygon fill="dodgerblue" opacity="1" points="42.0,69.5 26.09009742330268,76.09009742330268 19.5,92.0 26.090097423302677,107.90990257669732 41.99999999999999,114.5 57.90990257669731,107.90990257669732 64.5,92.0 57.909902576697334,76.0900974233027" stroke-width="0" transform=" rotate(0, 42, 92)"/>
    <polygon fill="dodgerblue" opacity="1" points="92.0,69.5 76.09009742330268,76.09009742330268 69.5,92.0 76.09009742330268,107.90990257669732 92.0,114.5 107.90990257669732,107.90990257669732 114.5,92.0 107.90990257669733,76.0900974233027" stroke-width="0" transform=" rotate(0, 92, 92)"/>
    <polygon fill="dodgerblue" opacity="1" points="142.0,69.5 126.09009742330268,76.09009742330268 119.5,92.0 126.09009742330268,107.90990257669732 142.0,114.5 157.9099025766973,107.90990257669732 164.5,92.0 157.90990257669733,76.0900974233027" stroke-width="0" transform=" rotate(0, 142, 92)"/>
    <polygon fill="dodgerblue" opacity="1" points="192.0,69.5 176.0900974233027,76.09009742330268 169.5,92.0 176.09009742330267,107.90990257669732 192.0,114.5 207.9099025766973,107.90990257669732 214.5,92.0 207.90990257669733,76.0900974233027" stroke-width="0" transform=" rotate(0, 192, 92)"/>
    <polygon fill="dodgerblue" opacity="1" points="242.0,69.5 226.0900974233027,76.09009742330268 219.5,92.0 226.09009742330267,107.90990257669732 242.0,114.5 257.90990257669733,107.90990257669732 264.5,92.0 257.90990257669733,76.0900974233027" stroke-width="0" transform=" rotate(0, 242, 92)"/>
    <polygon fill="dodgerblue" opacity="1" points="292.0,69.5 276.09009742330267,76.09009742330268 269.5,92.0 276.09009742330267,107.90990257669732 292.0,114.5 307.90990257669733,107.90990257669732 314.5,92.0 307.90990257669733,76.0900974233027" stroke-width="0" transform=" rotate(0, 292, 92)"/>
    <polygon fill="dodgerblue" opacity="1" points="342.0,69.5 326.09009742330267,76.09009742330268 319.5,92.0 326.09009742330267,107.90990257669732 342.0,114.5 357.90990257669733,107.90990257669732 364.5,92.0 357.90990257669733,76.0900974233027" stroke-width="0" transform=" rotate(0, 342, 92)"/>
    <polygon fill="dodgerblue" opacity="1" points="392.0,69.5 376.09009742330267,76.09009742330268 369.5,92.0 376.09009742330267,107.90990257669732 392.0,114.5 407.90990257669733,107.90990257669732 414.5,92.0 407.90990257669733,76.0900974233027" stroke-width="0" transform=" rotate(0, 392, 92)"/>
    <polygon fill="dodgerblue" opacity="1" points="442.0,69.5 426.09009742330267,76.09009742330268 419.5,92.0 426.09009742330267,107.90990257669732 442.0,114.5 457.90990257669733,107.90990257669732 464.5,92.0 457.90990257669733,76.0900974233027" stroke-width="0" transform=" rotate(0, 442, 92)"/>
    <polygon fill="dodgerblue" opacity="1" points="42.0,119.5 26.09009742330268,126.09009742330268 19.5,142.0 26.090097423302677,157.9099025766973 41.99999999999999,164.5 57.90990257669731,157.90990257669733 64.5,142.0 57.909902576697334,126.0900974233027" stroke-width="0" transform=" rotate(0, 42, 142)"/>
    <polygon fill="dodgerblue" opacity="1" points="92.0,119.5 76.09009742330268,126.09009742330268 69.5,142.0 76.09009742330268,157.9099025766973 92.0,164.5 107.90990257669732,157.90990257669733 114.5,142.0 107.90990257669733,126.0900974233027" stroke-width="0" transform=" rotate(0, 92, 142)"/>
    <polygon fill="dodgerblue" opacity="1" points="142.0,119.5 126.09009742330268,126.09009742330268 119.5,142.0 126.09009742330268,157.9099025766973 142.0,164.5 157.9099025766973,157.90990257669733 164.5,142.0 157.90990257669733,126.0900974233027" stroke-width="0" transform=" rotate(0, 142, 142)"/>
    <polygon fill="dodgerblue" opacity="1" points="192.0,119.5 176.0900974233027,126.09009742330268 169.5,142.0 176.09009742330267,157.9099025766973 192.0,164.5 207.9099025766973,157.90990257669733 214.5,142.0 207.90990257669733,126.0900974233027" stroke-width="0" transform=" rotate(0, 192, 142)"/>
    <polygon fill="dodgerblue" opacity="1" points="242.0,119.5 226.0900974233027,126.09009742330268 219.5,142.0 226.09009742330267,157.9099025766973 242.0,164.5 257.90990257669733,157.90990257669733 264.5,142.0 257.90990257669733,126.0900974233027" stroke-width="0" transform=" rotate(0, 242, 142)"/>
    <polygon fill="dodgerblue" opacity="1" points="292.0,119.5 276.09009742330267,126.09009742330268 269.5,142.0 276.09009742330267,157.9099025766973 292.0,164.5 307.90990257669733,157.90990257669733 314.5,142.0 307.90990257669733,126.0900974233027" stroke-width="0" transform=" rotate(0, 292, 142)"/>
    <polygon fill="dodgerblue" opacity="1" points="342.0,119.5 326.09009742330267,126.09009742330268 319.5,142.0 326.09009742330267,157.9099025766973 342.0,164.5 357.90990257669733,157.90990257669733 364.5,142.0 357.90990257669733,126.0900974233027" stroke-width="0" transform=" rotate(0, 342, 142)"/>
    <polygon fill="dodgerblue" opacity="1" points="392.0,119.5 376.09009742330267,126.09009742330268 369.5,142.0 376.09009742330267,157.9099025766973 392.0,164.5 407.90990257669733,157.90990257669733 414.5,142.0 407.90990257669733,126.0900974233027" stroke-width="0" transform=" rotate(0, 392, 142)"/>
    <polygon fill="dodgerblue" opacity="1" points="442.0,119.5 426.09009742330267,126.09009742330268 419.5,142.0 426.09009742330267,157.9099025766973 442.0,164.5 457.90990257669733,157.90990257669733 464.5,142.0 457.90990257669733,126.0900974233027" stroke-width="0" transform=" rotate(0, 442, 142)"/>
    <polygon fill="dodgerblue" opacity="1" points="42.0,169.5 26.09009742330268,176.09009742330267 19.5,192.0 26.090097423302677,207.9099025766973 41.99999999999999,214.5 57.90990257669731,207.90990257669733 64.5,192.0 57.909902576697334,176.0900974233027" stroke-width="0" transform=" rotate(0, 42, 192)"/>
    <polygon fill="dodgerblue" opacity="1" points="92.0,169.5 76.09009742330268,176.09009742330267 69.5,192.0 76.09009742330268,207.9099025766973 92.0,214.5 107.90990257669732,207.90990257669733 114.5,192.0 107.90990257669733,176.0900974233027" stroke-width="0" transform=" rotate(0, 92, 192)"/>
    <polygon fill="dodgerblue" opacity="1" points="142.0,169.5 126.09009742330268,176.09009742330267 119.5,192.0 126.09009742330268,207.9099025766973 142.0,214.5 157.9099025766973,207.90990257669733 164.5,192.0 157.90990257669733,176.0900974233027" stroke-width="0" transform=" rotate(0, 142, 192)"/>
    <polygon fill="dodgerblue" opacity="1" points="192.0,169.5 176.0900974233027,176.09009742330267 169.5,192.0 176.09009742330267,207.9099025766973 192.0,214.5 207.9099025766973,207.90990257669733 214.5,192.0 207.90990257669733,176.0900974233027" stroke-width="0" transform=" rotate(0, 192, 192)"/>
    <polygon fill="dodgerblue" opacity="1" points="242.0,169.5 226.0900974233027,176.09009742330267 219.5,192.0 226.09009742330267,207.9099025766973 242.0,214.5 257.90990257669733,207.90990257669733 264.5,192.0 257.90990257669733,176.0900974233027" stroke-width="0" transform=" rotate(0, 242, 192)"/>
    <polygon fill="dodgerblue" opacity="1" points="292.0,169.5 276.09009742330267,176.09009742330267 269.5,192.0 276.09009742330267,207.9099025766973 292.0,214.5 307.90990257669733,207.90990257669733 314.5,192.0 307.90990257669733,176.0900974233027" stroke-width="0" transform=" rotate(0, 292, 192)"/>
    <polygon fill="dodgerblue" opacity="1" points="342.0,169.5 326.09009742330267,176.09009742330267 319.5,192.0 326.09009742330267,207.9099025766973 342.0,214.5 357.90990257669733,207.90990257669733 364.5,192.0 357.90990257669733,176.0900974233027" stroke-width="0" transform=" rotate(0, 342, 192)"/>
    <polygon fill="dodgerblue" opacity="1" points="392.0,169.5 376.09009742330267,176.09009742330267 369.5,192.0 376.09009742330267,207.9099025766973 392.0,214.5 407.90990257669733,207.90990257669733 414.5,192.0 407.90990257669733,176.0900974233027" stroke-width="0" transform=" rotate(0, 392, 192)"/>
    <polygon fill="dodgerblue" opacity="1" points="442.0,169.5 426.09009742330267,176.09009742330267 419.5,192.0 426.09009742330267,207.9099025766973 442.0,214.5 457.90990257669733,207.90990257669733 464.5,192.0 457.90990257669733,176.0900974233027" stroke-width="0" transform=" rotate(0, 442, 192)"/>
    <polygon fill="dodgerblue" opacity="1" points="42.0,219.5 26.09009742330268,226.09009742330267 19.5,242.0 26.090097423302677,257.90990257669733 41.99999999999999,264.5 57.90990257669731,257.90990257669733 64.5,242.0 57.909902576697334,226.0900974233027" stroke-width="0" transform=" rotate(0, 42, 242)"/>
    <polygon fill="dodgerblue" opacity="1" points="92.0,219.5 76.09009742330268,226.09009742330267 69.5,242.0 76.09009742330268,257.90990257669733 92.0,264.5 107.90990257669732,257.90990257669733 114.5,242.0 107.90990257669733,226.0900974233027" stroke-width="0" transform=" rotate(0, 92, 242)"/>
    <polygon fill="dodgerblue" opacity="1" points="142.0,219.5 126.09009742330268,226.09009742330267 119.5,242.0 126.09009742330268,257.90990257669733 142.0,264.5 157.9099025766973,257.90990257669733 164.5,242.0 157.90990257669733,226.0900974233027" stroke-width="0" transform=" rotate(0, 142, 242)"/>
    <polygon fill="dodgerblue" opacity="1" points="192.0,219.5 176.0900974233027,226.09009742330267 169.5,242.0 176.09009742330267,257.90990257669733 192.0,264.5 207.9099025766973,257.90990257669733 214.5,242.0 207.90990257669733,226.0900974233027" stroke-width="0" transform=" rotate(0, 192, 242)"/>
    <polygon fill="dodgerblue" opacity="1" points="242.0,219.5 226.0900974233027,226.09009742330267 219.5,242.0 226.09009742330267,257.90990257669733 242.0,264.5 257.90990257669733,257.90990257669733 264.5,242.0 257.90990257669733,226.0900974233027" stroke-width="0" transform=" rotate(0, 242, 242)"/>
    <polygon fill="dodgerblue" opacity="1" points="292.0,219.5 276.09009742330267,226.09009742330267 269.5,242.0 276.09009742330267,257.90990257669733 292.0,264.5 307.90990257669733,257.90990257669733 314.5,242.0 307.90990257669733,226.0900974233027" stroke-width="0" transform=" rotate(0, 292, 242)"/>
    <polygon fill="dodgerblue" opacity="1" points="342.0,219.5 326.09009742330267,226.09009742330267 319.5,242.0 326.09009742330267,257.90990257669733 342.0,264.5 357.90990257669733,257.90990257669733 364.5,242.0 357.90990257669733,226.0900974233027" stroke-width="0" transform=" rotate(0, 342, 242)"/>
    <polygon fill="dodgerblue" opacity="1" points="392.0,219.5 376.09009742330267,226.09009742330267 369.5,242.0 376.09009742330267,257.90990257669733 392.0,264.5 407.90990257669733,257.90990257669733 414.5,242.0 407.90990257669733,226.0900974233027" stroke-width="0" transform=" rotate(0, 392, 242)"/>
    <polygon fill="dodgerblue" opacity="1" points="442.0,219.5 426.09009742330267,226.09009742330267 419.5,242.0 426.09009742330267,257.90990257669733 442.0,264.5 457.90990257669733,257.90990257669733 464.5,242.0 457.90990257669733,226.0900974233027" stroke-width="0" transform=" rotate(0, 442, 242)"/>
    <polygon fill="dodgerblue" opacity="1" points="42.0,269.5 26.09009742330268,276.09009742330267 19.5,292.0 26.090097423302677,307.90990257669733 41.99999999999999,314.5 57.90990257669731,307.90990257669733 64.5,292.0 57.909902576697334,276.0900974233027" stroke-width="0" transform=" rotate(0, 42, 292)"/>
    <polygon fill="dodgerblue" opacity="1" points="92.0,269.5 76.09009742330268,276.09009742330267 69.5,292.0 76.09009742330268,307.90990257669733 92.0,314.5 107.90990257669732,307.90990257669733 114.5,292.0 107.90990257669733,276.0900974233027" stroke-width="0" transform=" rotate(0, 92, 292)"/>
    <polygon fill="dodgerblue" opacity="1" points="142.0,269.5 126.09009742330268,276.09009742330267 119.5,292.0 126.09009742330268,307.90990257669733 142.0,314.5 157.9099025766973,307.90990257669733 164.5,292.0 157.90990257669733,276.0900974233027" stroke-width="0" transform=" rotate(0, 142, 292)"/>
    <polygon fill="dodgerblue" opacity="1" points="192.0,269.5 176.0900974233027,276.09009742330267 169.5,292.0 176.09009742330267,307.90990257669733 192.0,314.5 207.9099025766973,307.90990257669733 214.5,292.0 207.90990257669733,276.0900974233027" stroke-width="0" transform=" rotate(0, 192, 292)"/>
    <polygon fill="dodgerblue" opacity="1" points="242.0,269.5 226.0900974233027,276.09009742330267 219.5,292.0 226.09009742330267,307.90990257669733 242.0,314.5 257.90990257669733,307.90990257669733 264.5,292.0 257.90990257669733,276.0900974233027" stroke-width="0" transform=" rotate(0, 242, 292)"/>
    <polygon fill="dodgerblue" opacity="1" points="292.0,269.5 276.09009742330267,276.09009742330267 269.5,292.0 276.09009742330267,307.90990257669733 292.0,314.5 307.90990257669733,307.90990257669733 314.5,292.0 307.90990257669733,276.0900974233027" stroke-width="0" transform=" rotate(0, 292, 292)"/>
    <polygon fill="dodgerblue" opacity="1" points="342.0,269.5 326.09009742330267,276.09009742330267 319.5,292.0 326.09009742330267,307.90990257669733 342.0,314.5 357.90990257669733,307.90990257669733 364.5,292.0 357.90990257669733,276.0900974233027" stroke-width="0" transform=" rotate(0, 342, 292)"/>
    <polygon fill="dodgerblue" opacity="1" points="392.0,269.5 376.09009742330267,276.09009742330267 369.5,292.0 376.09009742330267,307.90990257669733 392.0,314.5 407.90990257669733,307.90990257669733 414.5,292.0 407.90990257669733,276.0900974233027" stroke-width="0" transform=" rotate(0, 392, 292)"/>
    <polygon fill="dodgerblue" opacity="1" points="442.0,269.5 426.09009742330267,276.09009742330267 419.5,292.0 426.09009742330267,307.90990257669733 442.0,314.5 457.90990257669733,307.90990257669733 464.5,292.0 457.90990257669733,276.0900974233027" stroke-width="0" transform=" rotate(0, 442, 292)"/>
    <polygon fill="dodgerblue" opacity="1" points="42.0,319.5 26.09009742330268,326.09009742330267 19.5,342.0 26.090097423302677,357.90990257669733 41.99999999999999,364.5 57.90990257669731,357.90990257669733 64.5,342.0 57.909902576697334,326.0900974233027" stroke-width="0" transform=" rotate(0, 42, 342)"/>
    <polygon fill="dodgerblue" opacity="1" points="92.0,319.5 76.09009742330268,326.09009742330267 69.5,342.0 76.09009742330268,357.90990257669733 92.0,364.5 107.90990257669732,357.90990257669733 114.5,342.0 107.90990257669733,326.0900974233027" stroke-width="0" transform=" rotate(0, 92, 342)"/>
    <polygon fill="dodgerblue" opacity="1" points="142.0,319.5 126.09009742330268,326.09009742330267 119.5,342.0 126.09009742330268,357.90990257669733 142.0,364.5 157.9099025766973,357.90990257669733 164.5,342.0 157.90990257669733,326.0900974233027" stroke-width="0" transform=" rotate(0, 142, 342)"/>
    <polygon fill="dodgerblue" opacity="1" points="192.0,319.5 176.0900974233027,326.09009742330267 169.5,342.0 176.09009742330267,357.90990257669733 192.0,364.5 207.9099025766973,357.90990257669733 214.5,342.0 207.90990257669733,326.0900974233027" stroke-width="0" transform=" rotate(0, 192, 342)"/>
    <polygon fill="dodgerblue" opacity="1" points="242.0,319.5 226.0900974233027,326.09009742330267 219.5,342.0 226.09009742330267,357.90990257669733 242.0,364.5 257.90990257669733,357.90990257669733 264.5,342.0 257.90990257669733,326.0900974233027" stroke-width="0" transform=" rotate(0, 242, 342)"/>
    <polygon fill="dodgerblue" opacity="1" points="292.0,319.5 276.09009742330267,326.09009742330267 269.5,342.0 276.09009742330267,357.90990257669733 292.0,364.5 307.90990257669733,357.90990257669733 314.5,342.0 307.90990257669733,326.0900974233027" stroke-width="0" transform=" rotate(0, 292, 342)"/>
    <polygon fill="dodgerblue" opacity="1" points="342.0,319.5 326.09009742330267,326.09009742330267 319.5,342.0 326.09009742330267,357.90990257669733 342.0,364.5 357.90990257669733,357.90990257669733 364.5,342.0 357.90990257669733,326.0900974233027" stroke-width="0" transform=" rotate(0, 342, 342)"/>
    <polygon fill="dodgerblue" opacity="1" points="392.0,319.5 376.09009742330267,326.09009742330267 369.5,342.0 376.09009742330267,357.90990257669733 392.0,364.5 407.90990257669733,357.90990257669733 414.5,342.0 407.90990257669733,326.0900974233027" stroke-width="0" transform=" rotate(0, 392, 342)"/>
    <polygon fill="dodgerblue" opacity="1" points="442.0,319.5 426.09009742330267,326.09009742330267 419.5,342.0 426.09009742330267,357.90990257669733 442.0,364.5 457.90990257669733,357.90990257669733 464.5,342.0 457.90990257669733,326.0900974233027" stroke-width="0" transform=" rotate(0, 442, 342)"/>
    <polygon fill="dodgerblue" opacity="1" points="42.0,369.5 26.09009742330268,376.09009742330267 19.5,392.0 26.090097423302677,407.90990257669733 41.99999999999999,414.5 57.90990257669731,407.90990257669733 64.5,392.0 57.909902576697334,376.0900974233027" stroke-width="0" transform=" rotate(0, 42, 392)"/>
    <polygon fill="dodgerblue" opacity="1" points="92.0,369.5 76.09009742330268,376.09009742330267 69.5,392.0 76.09009742330268,407.90990257669733 92.0,414.5 107.90990257669732,407.90990257669733 114.5,392.0 107.90990257669733,376.0900974233027" stroke-width="0" transform=" rotate(0, 92, 392)"/>
    <polygon fill="dodgerblue" opacity="1" points="142.0,369.5 126.09009742330268,376.09009742330267 119.5,392.0 126.09009742330268,407.90990257669733 142.0,414.5 157.9099025766973,407.90990257669733 164.5,392.0 157.90990257669733,376.0900974233027" stroke-width="0" transform=" rotate(0, 142, 392)"/>
    <polygon fill="dodgerblue" opacity="1" points="192.0,369.5 176.0900974233027,376.09009742330267 169.5,392.0 176.09009742330267,407.90990257669733 192.0,414.5 207.9099025766973,407.90990257669733 214.5,392.0 207.90990257669733,376.0900974233027" stroke-width="0" transform=" rotate(0, 192, 392)"/>
    <polygon fill="dodgerblue" opacity="1" points="242.0,369.5 226.0900974233027,376.09009742330267 219.5,392.0 226.09009742330267,407.90990257669733 242.0,414.5 257.90990257669733,407.90990257669733 264.5,392.0 257.90990257669733,376.0900974233027" stroke-width="0" transform=" rotate(0, 242, 392)"/>
    <polygon fill="dodgerblue" opacity="1" points="292.0,369.5 276.09009742330267,376.09009742330267 269.5,392.0 276.09009742330267,407.90990257669733 292.0,414.5 307.90990257669733,407.90990257669733 314.5,392.0 307.90990257669733,376.0900974233027" stroke-width="0" transform=" rotate(0, 292, 392)"/>
    <polygon fill="dodgerblue" opacity="1" points="342.0,369.5 326.09009742330267,376.09009742330267 319.5,392.0 326.09009742330267,407.90990257669733 342.0,414.5 357.90990257669733,407.90990257669733 364.5,392.0 357.90990257669733,376.0900974233027" stroke-width="0" transform=" rotate(0, 342, 392)"/>
    <polygon fill="dodgerblue" opacity="1" points="392.0,369.5 376.09009742330267,376.09009742330267 369.5,392.0 376.09009742330267,407.90990257669733 392.0,414.5 407.90990257669733,407.90990257669733 414.5,392.0 407.90990257669733,376.0900974233027" stroke-width="0" transform=" rotate(0, 392, 392)"/>
    <polygon fill="dodgerblue" opacity="1" points="442.0,369.5 426.09009742330267,376.09009742330267 419.5,392.0 426.09009742330267,407.90990257669733 442.0,414.5 457.90990257669733,407.90990257669733 464.5,392.0 457.90990257669733,376.0900974233027" stroke-width="0" transform=" rotate(0, 442, 392)"/>
    <polygon fill="dodgerblue" opacity="1" points="42.0,419.5 26.09009742330268,426.09009742330267 19.5,442.0 26.090097423302677,457.90990257669733 41.99999999999999,464.5 57.90990257669731,457.90990257669733 64.5,442.0 57.909902576697334,426.0900974233027" stroke-width="0" transform=" rotate(0, 42, 442)"/>
    <polygon fill="dodgerblue" opacity="1" points="92.0,419.5 76.09009742330268,426.09009742330267 69.5,442.0 76.09009742330268,457.90990257669733 92.0,464.5 107.90990257669732,457.90990257669733 114.5,442.0 107.90990257669733,426.0900974233027" stroke-width="0" transform=" rotate(0, 92, 442)"/>
    <polygon fill="dodgerblue" opacity="1" points="142.0,419.5 126.09009742330268,426.09009742330267 119.5,442.0 126.09009742330268,457.90990257669733 142.0,464.5 157.9099025766973,457.90990257669733 164.5,442.0 157.90990257669733,426.0900974233027" stroke-width="0" transform=" rotate(0, 142, 442)"/>
    <polygon fill="dodgerblue" opacity="1" points="192.0,419.5 176.0900974233027,426.09009742330267 169.5,442.0 176.09009742330267,457.90990257669733 192.0,464.5 207.9099025766973,457.90990257669733 214.5,442.0 207.90990257669733,426.0900974233027" stroke-width="0" transform=" rotate(0, 192, 442)"/>
    <polygon fill="dodgerblue" opacity="1" points="242.0,419.5 226.0900974233027,426.09009742330267 219.5,442.0 226.09009742330267,457.90990257669733 242.0,464.5 257.90990257669733,457.90990257669733 264.5,442.0 257.90990257669733,426.0900974233027" stroke-width="0" transform=" rotate(0, 242, 442)"/>
    <polygon fill="dodgerblue" opacity="1" points="292.0,419.5 276.09009742330267,426.09009742330267 269.5,442.0 276.09009742330267,457.90990257669733 292.0,464.5 307.90990257669733,457.90990257669733 314.5,442.0 307.90990257669733,426.0900974233027" stroke-width="0" transform=" rotate(0, 292, 442)"/>
    <polygon fill="dodgerblue" opacity="1" points="342.0,419.5 326.09009742330267,426.09009742330267 319.5,442.0 326.09009742330267,457.90990257669733 342.0,464.5 357.90990257669733,457.90990257669733 364.5,442.0 357.90990257669733,426.0900974233027" stroke-width="0" transform=" rotate(0, 342, 442)"/>
    <polygon fill="dodgerblue" opacity="1" points="392.0,419.5 376.09009742330267,426.09009742330267 369.5,442.0 376.09009742330267,457.90990257669733 392.0,464.5 407.90990257669733,457.90990257669733 414.5,442.0 407.90990257669733,426.0900974233027" stroke-width="0" transform=" rotate(0, 392, 442)"/>
    <polygon fill="dodgerblue" opacity="1" points="442.0,419.5 426.09009742330267,426.09009742330267 419.5,442.0 426.09009742330267,457.90990257669733 442.0,464.5 457.90990257669733,457.90990257669733 464.5,442.0 457.90990257669733,426.0900974233027" stroke-width="0" transform=" rotate(0, 442, 442)"/>
  </g>
</svg>
