<?xml version="1.0" encoding="utf-8" ?>
<svg xmlns="http://www.w3.org/2000/svg" xmlns:ev="http://www.w3.org/2001/xml-events" xmlns:xlink="http://www.w3.org/1999/xlink" baseProfile="full" height="250" version="1.1" width="250">
  <defs/>
  <g transform=" rotate(0, 125, 125)">
    <rect fill="none" height="250" width="250" x="0" y="0"/>
    <ellipse cx="75.0" cy="75.0" fill="none" opacity="1" rx="15.0" ry="15.0" stroke-width="0" transform=" rotate(0, 75, 75)"/>
    <ellipse cx="125.0" cy="75.0" fill="black" opacity="1" rx="15.0" ry="15.0" stroke-width="0" transform=" rotate(0, 125, 75)"/>
    <ellipse cx="175.0" cy="75.0" fill="black" opacity="1" rx="15.0" ry="15.0" stroke-width="0" transform=" rotate(0, 175, 75)"/>
    <ellipse cx="75.0" cy="125.0" fill="black" opacity="1" rx="15.0" ry="15.0" stroke-width="0" transform=" rotate(0, 75, 125)"/>
    <ellipse cx="125.0" cy="125.0" fill="none" opacity="1" rx="15.0" ry="15.0" stroke-width="0" transform=" rotate(0, 125, 125)"/>
    <ellipse cx="175.0" cy="125.0" fill="black" opacity="1" rx="15.0" ry="15.0" stroke-width="0" transform=" rotate(0, 175, 125)"/>
    <ellipse cx="75.0" cy="175.0" fill="none" opacity="1" rx="15.0" ry="15.0" stroke-width="0" transform=" rotate(0, 75, 175)"/>
    <ellipse cx="125.0" cy="175.0" fill="black" opacity="1" rx="15.0" ry="15.0" stroke-width="0" transform=" rotate(0, 125, 175)"/>
    <ellipse cx="175.0" cy="175.0" fill="none" opacity="1" rx="15.0" ry="15.0" stroke-width="0" transform=" rotate(0, 175, 175)"/>
  </g>
</svg>
