<?xml version="1.0" encoding="utf-8" ?>
<svg xmlns="http://www.w3.org/2000/svg" xmlns:ev="http://www.w3.org/2001/xml-events" xmlns:xlink="http://www.w3.org/1999/xlink" baseProfile="full" height="240.0" version="1.1" width="240.0">
  <defs/>
  <g transform=" rotate(0, 120, 120)">
    <rect fill="none" height="240.0" width="240.0" x="0" y="0"/>
    <rect fill="black" height="40.5" opacity="1" stroke-width="0" transform=" rotate(0, 20, 20)" width="40.5" x="-0.25" y="-0.25"/>
    <rect fill="black" height="40.5" opacity="1" stroke-width="0" transform=" rotate(0, 60, 20)" width="40.5" x="39.75" y="-0.25"/>
    <rect fill="white" height="40.5" opacity="1" stroke-width="0" transform=" rotate(0, 100, 20)" width="40.5" x="79.75" y="-0.25"/>
    <rect fill="white" height="40.5" opacity="1" stroke-width="0" transform=" rotate(0, 140, 20)" width="40.5" x="119.75" y="-0.25"/>
    <rect fill="black" height="40.5" opacity="1" stroke-width="0" transform=" rotate(0, 180, 20)" width="40.5" x="159.75" y="-0.25"/>
    <rect fill="black" height="40.5" opacity="1" stroke-width="0" transform=" rotate(0, 220, 20)" width="40.5" x="199.75" y="-0.25"/>
    <rect fill="black" height="40.5" opacity="1" stroke-width="0" transform=" rotate(0, 20, 60)" width="40.5" x="-0.25" y="39.75"/>
    <rect fill="white" height="40.5" opacity="1" stroke-width="0" transform=" rotate(0, 60, 60)" width="40.5" x="39.75" y="39.75"/>
    <rect fill="white" height="40.5" opacity="1" stroke-width="0" transform=" rotate(0, 100, 60)" width="40.5" x="79.75" y="39.75"/>
    <rect fill="white" height="40.5" opacity="1" stroke-width="0" transform=" rotate(0, 140, 60)" width="40.5" x="119.75" y="39.75"/>
    <rect fill="white" height="40.5" opacity="1" stroke-width="0" transform=" rotate(0, 180, 60)" width="40.5" x="159.75" y="39.75"/>
    <rect fill="black" height="40.5" opacity="1" stroke-width="0" transform=" rotate(0, 220, 60)" width="40.5" x="199.75" y="39.75"/>
    <rect fill="white" height="40.5" opacity="1" stroke-width="0" transform=" rotate(0, 20, 100)" width="40.5" x="-0.25" y="79.75"/>
    <rect fill="white" height="40.5" opacity="1" stroke-width="0" transform=" rotate(0, 60, 100)" width="40.5" x="39.75" y="79.75"/>
    <rect fill="white" height="40.5" opacity="1" stroke-width="0" transform=" rotate(0, 100, 100)" width="40.5" x="79.75" y="79.75"/>
    <rect fill="white" height="40.5" opacity="1" stroke-width="0" transform=" rotate(0, 140, 100)" width="40.5" x="119.75" y="79.75"/>
    <rect fill="white" height="40.5" opacity="1" stroke-width="0" transform=" rotate(0, 180, 100)" width="40.5" x="159.75" y="79.75"/>
    <rect fill="white" height="40.5" opacity="1" stroke-width="0" transform=" rotate(0, 220, 100)" width="40.5" x="199.75" y="79.75"/>
    <rect fill="white" height="40.5" opacity="1" stroke-width="0" transform=" rotate(0, 20, 140)" width="40.5" x="-0.25" y="119.75"/>
    <rect fill="white" height="40.5" opacity="1" stroke-width="0" transform=" rotate(0, 60, 140)" width="40.5" x="39.75" y="119.75"/>
    <rect fill="white" height="40.5" opacity="1" stroke-width="0" transform=" rotate(0, 100, 140)" width="40.5" x="79.75" y="119.75"/>
    <rect fill="white" height="40.5" opacity="1" stroke-width="0" transform=" rotate(0, 140, 140)" width="40.5" x="119.75" y="119.75"/>
    <rect fill="white" height="40.5" opacity="1" stroke-width="0" transform=" rotate(0, 180, 140)" width="40.5" x="159.75" y="119.75"/>
    <rect fill="white" height="40.5" opacity="1" stroke-width="0" transform=" rotate(0, 220, 140)" width="40.5" x="199.75" y="119.75"/>
    <rect fill="black" height="40.5" opacity="1" stroke-width="0" transform=" rotate(0, 20, 180)" width="40.5" x="-0.25" y="159.75"/>
    <rect fill="white" height="40.5" opacity="1" stroke-width="0" transform=" rotate(0, 60, 180)" width="40.5" x="39.75" y="159.75"/>
    <rect fill="white" height="40.5" opacity="1" stroke-width="0" transform=" rotate(0, 100, 180)" width="40.5" x="79.75" y="159.75"/>
    <rect fill="white" height="40.5" opacity="1" stroke-width="0" transform=" rotate(0, 140, 180)" width="40.5" x="119.75" y="159.75"/>
    <rect fill="white" height="40.5" opacity="1" stroke-width="0" transform=" rotate(0, 180, 180)" width="40.5" x="159.75" y="159.75"/>
    <rect fill="black" height="40.5" opacity="1" stroke-width="0" transform=" rotate(0, 220, 180)" width="40.5" x="199.75" y="159.75"/>
    <rect fill="black" height="40.5" opacity="1" stroke-width="0" transform=" rotate(0, 20, 220)" width="40.5" x="-0.25" y="199.75"/>
    <rect fill="black" height="40.5" opacity="1" stroke-width="0" transform=" rotate(0, 60, 220)" width="40.5" x="39.75" y="199.75"/>
    <rect fill="white" height="40.5" opacity="1" stroke-width="0" transform=" rotate(0, 100, 220)" width="40.5" x="79.75" y="199.75"/>
    <rect fill="white" height="40.5" opacity="1" stroke-width="0" transform=" rotate(0, 140, 220)" width="40.5" x="119.75" y="199.75"/>
    <rect fill="black" height="40.5" opacity="1" stroke-width="0" transform=" rotate(0, 180, 220)" width="40.5" x="159.75" y="199.75"/>
    <rect fill="black" height="40.5" opacity="1" stroke-width="0" transform=" rotate(0, 220, 220)" width="40.5" x="199.75" y="199.75"/>
  </g>
</svg>
