<?xml version="1.0" encoding="utf-8" ?>
<svg xmlns="http://www.w3.org/2000/svg" xmlns:ev="http://www.w3.org/2001/xml-events" xmlns:xlink="http://www.w3.org/1999/xlink" baseProfile="full" height="250" version="1.1" width="250">
  <defs/>
  <g transform=" rotate(0, 125, 125)">
    <rect fill="none" height="250" width="250" x="0" y="0"/>
    <polygon fill="black" opacity="1" points="125.00000000000003,9.999999999999986 110.00000000000003,24.999999999999982 125.00000000000003,39.999999999999986 140.00000000000003,24.99999999999999" stroke-width="0" transform=" rotate(0, 125, 24)"/>
    <polygon fill="black" opacity="1" points="91.66666666666669,43.33333333333332 76.66666666666669,58.33333333333332 91.66666666666669,73.33333333333331 106.66666666666669,58.33333333333333" stroke-width="0" transform=" rotate(0, 91, 58)"/>
    <polygon fill="black" opacity="1" points="58.33333333333334,76.66666666666666 43.33333333333334,91.66666666666666 58.333333333333336,106.66666666666666 73.33333333333334,91.66666666666666" stroke-width="0" transform=" rotate(0, 58, 91)"/>
    <polygon fill="black" opacity="1" points="25.00000000000003,109.99999999999999 10.000000000000025,124.99999999999999 25.00000000000002,140.0 40.00000000000003,124.99999999999999" stroke-width="0" transform=" rotate(0, 25, 124)"/>
    <polygon fill="black" opacity="1" points="58.33333333333335,143.33333333333331 43.33333333333335,158.33333333333331 58.33333333333334,173.33333333333331 73.33333333333334,158.33333333333331" stroke-width="0" transform=" rotate(0, 58, 158)"/>
    <polygon fill="black" opacity="1" points="91.66666666666667,176.66666666666663 76.66666666666667,191.66666666666663 91.66666666666667,206.66666666666663 106.66666666666667,191.66666666666663" stroke-width="0" transform=" rotate(0, 91, 191)"/>
    <polygon fill="black" opacity="1" points="125.0,210.0 110.0,225.0 125.0,240.0 140.0,225.0" stroke-width="0" transform=" rotate(0, 125, 225)"/>
    <polygon fill="black" opacity="1" points="158.33333333333331,176.66666666666669 143.33333333333331,191.66666666666669 158.33333333333331,206.66666666666669 173.33333333333331,191.66666666666669" stroke-width="0" transform=" rotate(0, 158, 191)"/>
    <polygon fill="black" opacity="1" points="191.66666666666669,143.33333333333337 176.66666666666669,158.33333333333337 191.66666666666669,173.33333333333337 206.66666666666669,158.33333333333337" stroke-width="0" transform=" rotate(0, 191, 158)"/>
    <polygon fill="black" opacity="1" points="225.0,110.00000000000003 210.0,125.00000000000003 225.0,140.00000000000003 240.0,125.00000000000003" stroke-width="0" transform=" rotate(0, 225, 125)"/>
    <polygon fill="black" opacity="1" points="191.66666666666674,76.66666666666671 176.66666666666674,91.66666666666671 191.66666666666674,106.66666666666671 206.66666666666674,91.66666666666671" stroke-width="0" transform=" rotate(0, 191, 91)"/>
    <polygon fill="black" opacity="1" points="158.33333333333337,43.33333333333335 143.33333333333337,58.33333333333335 158.33333333333337,73.33333333333334 173.33333333333337,58.33333333333336" stroke-width="0" transform=" rotate(0, 158, 58)"/>
  </g>
</svg>
