<?xml version="1.0" encoding="utf-8" ?>
<svg xmlns="http://www.w3.org/2000/svg" xmlns:ev="http://www.w3.org/2001/xml-events" xmlns:xlink="http://www.w3.org/1999/xlink" baseProfile="full" height="250" version="1.1" width="250">
  <defs/>
  <g transform=" rotate(0, 125, 125)">
    <rect fill="white" height="250" width="250" x="0" y="0"/>
    <polygon fill="dodgerblue" opacity="1" points="25.000000000000004,2.5 9.090097423302682,9.090097423302677 2.5,24.999999999999996 9.090097423302677,40.90990257669731 24.999999999999993,47.5 40.90990257669731,40.90990257669732 47.5,25.000000000000007 40.909902576697334,9.0900974233027" stroke-width="0" transform=" rotate(0, 25, 25)"/>
    <polygon fill="dodgerblue" opacity="1" points="75.0,10.0 64.39339828220179,14.393398282201785 60.0,24.999999999999996 64.39339828220179,35.60660171779821 75.0,40.0 85.60660171779821,35.60660171779821 90.0,25.000000000000004 85.60660171779823,14.3933982822018" stroke-width="0" transform=" rotate(0, 75, 25)"/>
    <polygon fill="dodgerblue" opacity="1" points="125.0,2.5 109.09009742330268,9.090097423302677 102.5,24.999999999999996 109.09009742330268,40.90990257669731 125.0,47.5 140.9099025766973,40.90990257669732 147.5,25.000000000000007 140.90990257669733,9.0900974233027" stroke-width="0" transform=" rotate(0, 125, 25)"/>
    <polygon fill="dodgerblue" opacity="1" points="175.0,10.0 164.3933982822018,14.393398282201785 160.0,24.999999999999996 164.3933982822018,35.60660171779821 175.0,40.0 185.6066017177982,35.60660171779821 190.0,25.000000000000004 185.6066017177982,14.3933982822018" stroke-width="0" transform=" rotate(0, 175, 25)"/>
    <polygon fill="dodgerblue" opacity="1" points="225.0,2.5 209.0900974233027,9.090097423302677 202.5,24.999999999999996 209.09009742330267,40.90990257669731 225.0,47.5 240.9099025766973,40.90990257669732 247.5,25.000000000000007 240.90990257669733,9.0900974233027" stroke-width="0" transform=" rotate(0, 225, 25)"/>
    <polygon fill="dodgerblue" opacity="1" points="25.000000000000004,60.0 14.393398282201789,64.39339828220179 10.0,75.0 14.393398282201785,85.60660171779821 24.999999999999996,90.0 35.60660171779821,85.60660171779821 40.0,75.0 35.60660171779823,64.3933982822018" stroke-width="0" transform=" rotate(0, 25, 75)"/>
    <polygon fill="dodgerblue" opacity="1" points="75.0,52.5 59.09009742330268,59.09009742330268 52.5,75.0 59.09009742330268,90.90990257669732 75.0,97.5 90.90990257669732,90.90990257669732 97.5,75.0 90.90990257669733,59.0900974233027" stroke-width="0" transform=" rotate(0, 75, 75)"/>
    <polygon fill="dodgerblue" opacity="1" points="125.0,60.0 114.39339828220179,64.39339828220179 110.0,75.0 114.39339828220179,85.60660171779821 125.0,90.0 135.6066017177982,85.60660171779821 140.0,75.0 135.6066017177982,64.3933982822018" stroke-width="0" transform=" rotate(0, 125, 75)"/>
    <polygon fill="dodgerblue" opacity="1" points="175.0,52.5 159.0900974233027,59.09009742330268 152.5,75.0 159.09009742330267,90.90990257669732 175.0,97.5 190.9099025766973,90.90990257669732 197.5,75.0 190.90990257669733,59.0900974233027" stroke-width="0" transform=" rotate(0, 175, 75)"/>
    <polygon fill="dodgerblue" opacity="1" points="225.0,60.0 214.3933982822018,64.39339828220179 210.0,75.0 214.3933982822018,85.60660171779821 225.0,90.0 235.6066017177982,85.60660171779821 240.0,75.0 235.6066017177982,64.3933982822018" stroke-width="0" transform=" rotate(0, 225, 75)"/>
    <polygon fill="dodgerblue" opacity="1" points="25.000000000000004,102.5 9.090097423302682,109.09009742330268 2.5,125.0 9.090097423302677,140.9099025766973 24.999999999999993,147.5 40.90990257669731,140.90990257669733 47.5,125.0 40.909902576697334,109.0900974233027" stroke-width="0" transform=" rotate(0, 25, 125)"/>
    <polygon fill="dodgerblue" opacity="1" points="75.0,110.0 64.39339828220179,114.39339828220179 60.0,125.0 64.39339828220179,135.6066017177982 75.0,140.0 85.60660171779821,135.6066017177982 90.0,125.0 85.60660171779823,114.3933982822018" stroke-width="0" transform=" rotate(0, 75, 125)"/>
    <polygon fill="dodgerblue" opacity="1" points="125.0,102.5 109.09009742330268,109.09009742330268 102.5,125.0 109.09009742330268,140.9099025766973 125.0,147.5 140.9099025766973,140.90990257669733 147.5,125.0 140.90990257669733,109.0900974233027" stroke-width="0" transform=" rotate(0, 125, 125)"/>
    <polygon fill="dodgerblue" opacity="1" points="175.0,110.0 164.3933982822018,114.39339828220179 160.0,125.0 164.3933982822018,135.6066017177982 175.0,140.0 185.6066017177982,135.6066017177982 190.0,125.0 185.6066017177982,114.3933982822018" stroke-width="0" transform=" rotate(0, 175, 125)"/>
    <polygon fill="dodgerblue" opacity="1" points="225.0,102.5 209.0900974233027,109.09009742330268 202.5,125.0 209.09009742330267,140.9099025766973 225.0,147.5 240.9099025766973,140.90990257669733 247.5,125.0 240.90990257669733,109.0900974233027" stroke-width="0" transform=" rotate(0, 225, 125)"/>
    <polygon fill="dodgerblue" opacity="1" points="25.000000000000004,160.0 14.393398282201789,164.3933982822018 10.0,175.0 14.393398282201785,185.6066017177982 24.999999999999996,190.0 35.60660171779821,185.6066017177982 40.0,175.0 35.60660171779823,164.3933982822018" stroke-width="0" transform=" rotate(0, 25, 175)"/>
    <polygon fill="dodgerblue" opacity="1" points="75.0,152.5 59.09009742330268,159.09009742330267 52.5,175.0 59.09009742330268,190.9099025766973 75.0,197.5 90.90990257669732,190.90990257669733 97.5,175.0 90.90990257669733,159.0900974233027" stroke-width="0" transform=" rotate(0, 75, 175)"/>
    <polygon fill="dodgerblue" opacity="1" points="125.0,160.0 114.39339828220179,164.3933982822018 110.0,175.0 114.39339828220179,185.6066017177982 125.0,190.0 135.6066017177982,185.6066017177982 140.0,175.0 135.6066017177982,164.3933982822018" stroke-width="0" transform=" rotate(0, 125, 175)"/>
    <polygon fill="dodgerblue" opacity="1" points="175.0,152.5 159.0900974233027,159.09009742330267 152.5,175.0 159.09009742330267,190.9099025766973 175.0,197.5 190.9099025766973,190.90990257669733 197.5,175.0 190.90990257669733,159.0900974233027" stroke-width="0" transform=" rotate(0, 175, 175)"/>
    <polygon fill="dodgerblue" opacity="1" points="225.0,160.0 214.3933982822018,164.3933982822018 210.0,175.0 214.3933982822018,185.6066017177982 225.0,190.0 235.6066017177982,185.6066017177982 240.0,175.0 235.6066017177982,164.3933982822018" stroke-width="0" transform=" rotate(0, 225, 175)"/>
    <polygon fill="dodgerblue" opacity="1" points="25.000000000000004,202.5 9.090097423302682,209.09009742330267 2.5,225.0 9.090097423302677,240.9099025766973 24.999999999999993,247.5 40.90990257669731,240.90990257669733 47.5,225.0 40.909902576697334,209.0900974233027" stroke-width="0" transform=" rotate(0, 25, 225)"/>
    <polygon fill="dodgerblue" opacity="1" points="75.0,210.0 64.39339828220179,214.3933982822018 60.0,225.0 64.39339828220179,235.6066017177982 75.0,240.0 85.60660171779821,235.6066017177982 90.0,225.0 85.60660171779823,214.3933982822018" stroke-width="0" transform=" rotate(0, 75, 225)"/>
    <polygon fill="dodgerblue" opacity="1" points="125.0,202.5 109.09009742330268,209.09009742330267 102.5,225.0 109.09009742330268,240.9099025766973 125.0,247.5 140.9099025766973,240.90990257669733 147.5,225.0 140.90990257669733,209.0900974233027" stroke-width="0" transform=" rotate(0, 125, 225)"/>
    <polygon fill="dodgerblue" opacity="1" points="175.0,210.0 164.3933982822018,214.3933982822018 160.0,225.0 164.3933982822018,235.6066017177982 175.0,240.0 185.6066017177982,235.6066017177982 190.0,225.0 185.6066017177982,214.3933982822018" stroke-width="0" transform=" rotate(0, 175, 225)"/>
    <polygon fill="dodgerblue" opacity="1" points="225.0,202.5 209.0900974233027,209.09009742330267 202.5,225.0 209.09009742330267,240.9099025766973 225.0,247.5 240.9099025766973,240.90990257669733 247.5,225.0 240.90990257669733,209.0900974233027" stroke-width="0" transform=" rotate(0, 225, 225)"/>
  </g>
</svg>
