<?xml version="1.0" encoding="utf-8" ?>
<svg xmlns="http://www.w3.org/2000/svg" xmlns:ev="http://www.w3.org/2001/xml-events" xmlns:xlink="http://www.w3.org/1999/xlink" baseProfile="full" height="250" version="1.1" width="250">
  <defs/>
  <g transform=" rotate(0, 125, 125)">
    <rect fill="white" height="250" width="250" x="0" y="0"/>
    <ellipse cx="25.0" cy="24.020357912845895" fill="dodgerblue" opacity="1" rx="7.5" ry="7.5" stroke-width="0" transform=" rotate(0, 25, 24)"/>
    <ellipse cx="50.0" cy="32.83713669723299" fill="dodgerblue" opacity="1" rx="7.5" ry="7.5" stroke-width="0" transform=" rotate(0, 50, 32)"/>
    <ellipse cx="75.0" cy="38.2862056572732" fill="dodgerblue" opacity="1" rx="7.5" ry="7.5" stroke-width="0" transform=" rotate(0, 75, 38)"/>
    <ellipse cx="100.0" cy="38.2862056572732" fill="dodgerblue" opacity="1" rx="7.5" ry="7.5" stroke-width="0" transform=" rotate(0, 100, 38)"/>
    <ellipse cx="125.0" cy="32.83713669723299" fill="dodgerblue" opacity="1" rx="7.5" ry="7.5" stroke-width="0" transform=" rotate(0, 125, 32)"/>
    <ellipse cx="150.0" cy="24.0203579128459" fill="dodgerblue" opacity="1" rx="7.5" ry="7.5" stroke-width="0" transform=" rotate(0, 150, 24)"/>
    <ellipse cx="175.0" cy="15.2035791284588" fill="dodgerblue" opacity="1" rx="7.5" ry="7.5" stroke-width="0" transform=" rotate(0, 175, 15)"/>
    <ellipse cx="200.0" cy="9.754510168418593" fill="dodgerblue" opacity="1" rx="7.5" ry="7.5" stroke-width="0" transform=" rotate(0, 200, 9)"/>
    <ellipse cx="225.0" cy="9.75451016841859" fill="dodgerblue" opacity="1" rx="7.5" ry="7.5" stroke-width="0" transform=" rotate(0, 225, 9)"/>
    <ellipse cx="25.0" cy="49.020357912845895" fill="dodgerblue" opacity="1" rx="7.5" ry="7.5" stroke-width="0" transform=" rotate(0, 25, 49)"/>
    <ellipse cx="50.0" cy="57.83713669723299" fill="dodgerblue" opacity="1" rx="7.5" ry="7.5" stroke-width="0" transform=" rotate(0, 50, 57)"/>
    <ellipse cx="75.0" cy="63.2862056572732" fill="dodgerblue" opacity="1" rx="7.5" ry="7.5" stroke-width="0" transform=" rotate(0, 75, 63)"/>
    <ellipse cx="100.0" cy="63.2862056572732" fill="dodgerblue" opacity="1" rx="7.5" ry="7.5" stroke-width="0" transform=" rotate(0, 100, 63)"/>
    <ellipse cx="125.0" cy="57.83713669723299" fill="dodgerblue" opacity="1" rx="7.5" ry="7.5" stroke-width="0" transform=" rotate(0, 125, 57)"/>
    <ellipse cx="150.0" cy="49.020357912845895" fill="dodgerblue" opacity="1" rx="7.5" ry="7.5" stroke-width="0" transform=" rotate(0, 150, 49)"/>
    <ellipse cx="175.0" cy="40.2035791284588" fill="dodgerblue" opacity="1" rx="7.5" ry="7.5" stroke-width="0" transform=" rotate(0, 175, 40)"/>
    <ellipse cx="200.0" cy="34.75451016841859" fill="dodgerblue" opacity="1" rx="7.5" ry="7.5" stroke-width="0" transform=" rotate(0, 200, 34)"/>
    <ellipse cx="225.0" cy="34.75451016841859" fill="dodgerblue" opacity="1" rx="7.5" ry="7.5" stroke-width="0" transform=" rotate(0, 225, 34)"/>
    <ellipse cx="25.0" cy="74.0203579128459" fill="dodgerblue" opacity="1" rx="7.5" ry="7.5" stroke-width="0" transform=" rotate(0, 25, 74)"/>
    <ellipse cx="50.0" cy="82.83713669723299" fill="dodgerblue" opacity="1" rx="7.5" ry="7.5" stroke-width="0" transform=" rotate(0, 50, 82)"/>
    <ellipse cx="75.0" cy="88.2862056572732" fill="dodgerblue" opacity="1" rx="7.5" ry="7.5" stroke-width="0" transform=" rotate(0, 75, 88)"/>
    <ellipse cx="100.0" cy="88.2862056572732" fill="dodgerblue" opacity="1" rx="7.5" ry="7.5" stroke-width="0" transform=" rotate(0, 100, 88)"/>
    <ellipse cx="125.0" cy="82.83713669723299" fill="dodgerblue" opacity="1" rx="7.5" ry="7.5" stroke-width="0" transform=" rotate(0, 125, 82)"/>
    <ellipse cx="150.0" cy="74.0203579128459" fill="dodgerblue" opacity="1" rx="7.5" ry="7.5" stroke-width="0" transform=" rotate(0, 150, 74)"/>
    <ellipse cx="175.0" cy="65.2035791284588" fill="dodgerblue" opacity="1" rx="7.5" ry="7.5" stroke-width="0" transform=" rotate(0, 175, 65)"/>
    <ellipse cx="200.0" cy="59.75451016841859" fill="dodgerblue" opacity="1" rx="7.5" ry="7.5" stroke-width="0" transform=" rotate(0, 200, 59)"/>
    <ellipse cx="225.0" cy="59.75451016841859" fill="dodgerblue" opacity="1" rx="7.5" ry="7.5" stroke-width="0" transform=" rotate(0, 225, 59)"/>
    <ellipse cx="25.0" cy="99.0203579128459" fill="dodgerblue" opacity="1" rx="7.5" ry="7.5" stroke-width="0" transform=" rotate(0, 25, 99)"/>
    <ellipse cx="50.0" cy="107.83713669723299" fill="dodgerblue" opacity="1" rx="7.5" ry="7.5" stroke-width="0" transform=" rotate(0, 50, 107)"/>
    <ellipse cx="75.0" cy="113.2862056572732" fill="dodgerblue" opacity="1" rx="7.5" ry="7.5" stroke-width="0" transform=" rotate(0, 75, 113)"/>
    <ellipse cx="100.0" cy="113.2862056572732" fill="dodgerblue" opacity="1" rx="7.5" ry="7.5" stroke-width="0" transform=" rotate(0, 100, 113)"/>
    <ellipse cx="125.0" cy="107.83713669723299" fill="dodgerblue" opacity="1" rx="7.5" ry="7.5" stroke-width="0" transform=" rotate(0, 125, 107)"/>
    <ellipse cx="150.0" cy="99.0203579128459" fill="dodgerblue" opacity="1" rx="7.5" ry="7.5" stroke-width="0" transform=" rotate(0, 150, 99)"/>
    <ellipse cx="175.0" cy="90.2035791284588" fill="dodgerblue" opacity="1" rx="7.5" ry="7.5" stroke-width="0" transform=" rotate(0, 175, 90)"/>
    <ellipse cx="200.0" cy="84.75451016841859" fill="dodgerblue" opacity="1" rx="7.5" ry="7.5" stroke-width="0" transform=" rotate(0, 200, 84)"/>
    <ellipse cx="225.0" cy="84.75451016841859" fill="dodgerblue" opacity="1" rx="7.5" ry="7.5" stroke-width="0" transform=" rotate(0, 225, 84)"/>
    <ellipse cx="25.0" cy="124.0203579128459" fill="dodgerblue" opacity="1" rx="7.5" ry="7.5" stroke-width="0" transform=" rotate(0, 25, 124)"/>
    <ellipse cx="50.0" cy="132.837136697233" fill="dodgerblue" opacity="1" rx="7.5" ry="7.5" stroke-width="0" transform=" rotate(0, 50, 132)"/>
    <ellipse cx="75.0" cy="138.2862056572732" fill="dodgerblue" opacity="1" rx="7.5" ry="7.5" stroke-width="0" transform=" rotate(0, 75, 138)"/>
    <ellipse cx="100.0" cy="138.2862056572732" fill="dodgerblue" opacity="1" rx="7.5" ry="7.5" stroke-width="0" transform=" rotate(0, 100, 138)"/>
    <ellipse cx="125.0" cy="132.837136697233" fill="dodgerblue" opacity="1" rx="7.5" ry="7.5" stroke-width="0" transform=" rotate(0, 125, 132)"/>
    <ellipse cx="150.0" cy="124.0203579128459" fill="dodgerblue" opacity="1" rx="7.5" ry="7.5" stroke-width="0" transform=" rotate(0, 150, 124)"/>
    <ellipse cx="175.0" cy="115.2035791284588" fill="dodgerblue" opacity="1" rx="7.5" ry="7.5" stroke-width="0" transform=" rotate(0, 175, 115)"/>
    <ellipse cx="200.0" cy="109.75451016841859" fill="dodgerblue" opacity="1" rx="7.5" ry="7.5" stroke-width="0" transform=" rotate(0, 200, 109)"/>
    <ellipse cx="225.0" cy="109.75451016841859" fill="dodgerblue" opacity="1" rx="7.5" ry="7.5" stroke-width="0" transform=" rotate(0, 225, 109)"/>
    <ellipse cx="25.0" cy="149.0203579128459" fill="dodgerblue" opacity="1" rx="7.5" ry="7.5" stroke-width="0" transform=" rotate(0, 25, 149)"/>
    <ellipse cx="50.0" cy="157.837136697233" fill="dodgerblue" opacity="1" rx="7.5" ry="7.5" stroke-width="0" transform=" rotate(0, 50, 157)"/>
    <ellipse cx="75.0" cy="163.2862056572732" fill="dodgerblue" opacity="1" rx="7.5" ry="7.5" stroke-width="0" transform=" rotate(0, 75, 163)"/>
    <ellipse cx="100.0" cy="163.2862056572732" fill="dodgerblue" opacity="1" rx="7.5" ry="7.5" stroke-width="0" transform=" rotate(0, 100, 163)"/>
    <ellipse cx="125.0" cy="157.837136697233" fill="dodgerblue" opacity="1" rx="7.5" ry="7.5" stroke-width="0" transform=" rotate(0, 125, 157)"/>
    <ellipse cx="150.0" cy="149.0203579128459" fill="dodgerblue" opacity="1" rx="7.5" ry="7.5" stroke-width="0" transform=" rotate(0, 150, 149)"/>
    <ellipse cx="175.0" cy="140.20357912845878" fill="dodgerblue" opacity="1" rx="7.5" ry="7.5" stroke-width="0" transform=" rotate(0, 175, 140)"/>
    <ellipse cx="200.0" cy="134.7545101684186" fill="dodgerblue" opacity="1" rx="7.5" ry="7.5" stroke-width="0" transform=" rotate(0, 200, 134)"/>
    <ellipse cx="225.0" cy="134.7545101684186" fill="dodgerblue" opacity="1" rx="7.5" ry="7.5" stroke-width="0" transform=" rotate(0, 225, 134)"/>
    <ellipse cx="25.0" cy="174.0203579128459" fill="dodgerblue" opacity="1" rx="7.5" ry="7.5" stroke-width="0" transform=" rotate(0, 25, 174)"/>
    <ellipse cx="50.0" cy="182.837136697233" fill="dodgerblue" opacity="1" rx="7.5" ry="7.5" stroke-width="0" transform=" rotate(0, 50, 182)"/>
    <ellipse cx="75.0" cy="188.2862056572732" fill="dodgerblue" opacity="1" rx="7.5" ry="7.5" stroke-width="0" transform=" rotate(0, 75, 188)"/>
    <ellipse cx="100.0" cy="188.2862056572732" fill="dodgerblue" opacity="1" rx="7.5" ry="7.5" stroke-width="0" transform=" rotate(0, 100, 188)"/>
    <ellipse cx="125.0" cy="182.837136697233" fill="dodgerblue" opacity="1" rx="7.5" ry="7.5" stroke-width="0" transform=" rotate(0, 125, 182)"/>
    <ellipse cx="150.0" cy="174.0203579128459" fill="dodgerblue" opacity="1" rx="7.5" ry="7.5" stroke-width="0" transform=" rotate(0, 150, 174)"/>
    <ellipse cx="175.0" cy="165.2035791284588" fill="dodgerblue" opacity="1" rx="7.5" ry="7.5" stroke-width="0" transform=" rotate(0, 175, 165)"/>
    <ellipse cx="200.0" cy="159.7545101684186" fill="dodgerblue" opacity="1" rx="7.5" ry="7.5" stroke-width="0" transform=" rotate(0, 200, 159)"/>
    <ellipse cx="225.0" cy="159.7545101684186" fill="dodgerblue" opacity="1" rx="7.5" ry="7.5" stroke-width="0" transform=" rotate(0, 225, 159)"/>
    <ellipse cx="25.0" cy="199.0203579128459" fill="dodgerblue" opacity="1" rx="7.5" ry="7.5" stroke-width="0" transform=" rotate(0, 25, 199)"/>
    <ellipse cx="50.0" cy="207.837136697233" fill="dodgerblue" opacity="1" rx="7.5" ry="7.5" stroke-width="0" transform=" rotate(0, 50, 207)"/>
    <ellipse cx="75.0" cy="213.2862056572732" fill="dodgerblue" opacity="1" rx="7.5" ry="7.5" stroke-width="0" transform=" rotate(0, 75, 213)"/>
    <ellipse cx="100.0" cy="213.2862056572732" fill="dodgerblue" opacity="1" rx="7.5" ry="7.5" stroke-width="0" transform=" rotate(0, 100, 213)"/>
    <ellipse cx="125.0" cy="207.837136697233" fill="dodgerblue" opacity="1" rx="7.5" ry="7.5" stroke-width="0" transform=" rotate(0, 125, 207)"/>
    <ellipse cx="150.0" cy="199.0203579128459" fill="dodgerblue" opacity="1" rx="7.5" ry="7.5" stroke-width="0" transform=" rotate(0, 150, 199)"/>
    <ellipse cx="175.0" cy="190.2035791284588" fill="dodgerblue" opacity="1" rx="7.5" ry="7.5" stroke-width="0" transform=" rotate(0, 175, 190)"/>
    <ellipse cx="200.0" cy="184.7545101684186" fill="dodgerblue" opacity="1" rx="7.5" ry="7.5" stroke-width="0" transform=" rotate(0, 200, 184)"/>
    <ellipse cx="225.0" cy="184.7545101684186" fill="dodgerblue" opacity="1" rx="7.5" ry="7.5" stroke-width="0" transform=" rotate(0, 225, 184)"/>
    <ellipse cx="25.0" cy="224.0203579128459" fill="dodgerblue" opacity="1" rx="7.5" ry="7.5" stroke-width="0" transform=" rotate(0, 25, 224)"/>
    <ellipse cx="50.0" cy="232.837136697233" fill="dodgerblue" opacity="1" rx="7.5" ry="7.5" stroke-width="0" transform=" rotate(0, 50, 232)"/>
    <ellipse cx="75.0" cy="238.2862056572732" fill="dodgerblue" opacity="1" rx="7.5" ry="7.5" stroke-width="0" transform=" rotate(0, 75, 238)"/>
    <ellipse cx="100.0" cy="238.2862056572732" fill="dodgerblue" opacity="1" rx="7.5" ry="7.5" stroke-width="0" transform=" rotate(0, 100, 238)"/>
    <ellipse cx="125.0" cy="232.837136697233" fill="dodgerblue" opacity="1" rx="7.5" ry="7.5" stroke-width="0" transform=" rotate(0, 125, 232)"/>
    <ellipse cx="150.0" cy="224.0203579128459" fill="dodgerblue" opacity="1" rx="7.5" ry="7.5" stroke-width="0" transform=" rotate(0, 150, 224)"/>
    <ellipse cx="175.0" cy="215.2035791284588" fill="dodgerblue" opacity="1" rx="7.5" ry="7.5" stroke-width="0" transform=" rotate(0, 175, 215)"/>
    <ellipse cx="200.0" cy="209.7545101684186" fill="dodgerblue" opacity="1" rx="7.5" ry="7.5" stroke-width="0" transform=" rotate(0, 200, 209)"/>
    <ellipse cx="225.0" cy="209.7545101684186" fill="dodgerblue" opacity="1" rx="7.5" ry="7.5" stroke-width="0" transform=" rotate(0, 225, 209)"/>
  </g>
</svg>
