<?xml version="1.0" encoding="utf-8" ?>
<svg xmlns="http://www.w3.org/2000/svg" xmlns:ev="http://www.w3.org/2001/xml-events" xmlns:xlink="http://www.w3.org/1999/xlink" baseProfile="full" height="250" version="1.1" width="250">
  <defs/>
  <g transform=" rotate(0, 125, 125)">
    <rect fill="white" height="250" width="250" x="0" y="0"/>
    <polygon fill="dodgerblue" opacity="1" points="24.020357912845867,17.5 18.71705705394676,19.696699141100893 16.520357912845867,25.0 18.71705705394676,30.303300858899107 24.020357912845864,32.5 29.323658771744974,30.303300858899107 31.520357912845867,25.000000000000004 29.32365877174498,19.6966991411009" stroke-width="0" transform=" rotate(0, 24, 25)"/>
    <polygon fill="dodgerblue" opacity="1" points="49.02035791284587,17.5 43.71705705394676,19.696699141100893 41.52035791284587,25.0 43.71705705394676,30.303300858899107 49.02035791284587,32.5 54.323658771744974,30.303300858899107 56.52035791284587,25.000000000000004 54.32365877174498,19.6966991411009" stroke-width="0" transform=" rotate(0, 49, 25)"/>
    <polygon fill="dodgerblue" opacity="1" points="74.02035791284587,17.5 68.71705705394676,19.696699141100893 66.52035791284587,25.0 68.71705705394676,30.303300858899107 74.02035791284587,32.5 79.32365877174497,30.303300858899107 81.52035791284587,25.000000000000004 79.32365877174497,19.6966991411009" stroke-width="0" transform=" rotate(0, 74, 25)"/>
    <polygon fill="dodgerblue" opacity="1" points="99.02035791284587,17.5 93.71705705394676,19.696699141100893 91.52035791284587,25.0 93.71705705394676,30.303300858899107 99.02035791284587,32.5 104.32365877174497,30.303300858899107 106.52035791284587,25.000000000000004 104.32365877174497,19.6966991411009" stroke-width="0" transform=" rotate(0, 99, 25)"/>
    <polygon fill="dodgerblue" opacity="1" points="124.02035791284587,17.5 118.71705705394676,19.696699141100893 116.52035791284587,25.0 118.71705705394676,30.303300858899107 124.02035791284587,32.5 129.32365877174496,30.303300858899107 131.52035791284587,25.000000000000004 129.323658771745,19.6966991411009" stroke-width="0" transform=" rotate(0, 124, 25)"/>
    <polygon fill="dodgerblue" opacity="1" points="149.02035791284587,17.5 143.71705705394677,19.696699141100893 141.52035791284587,25.0 143.71705705394675,30.303300858899107 149.02035791284587,32.5 154.32365877174496,30.303300858899107 156.52035791284587,25.000000000000004 154.323658771745,19.6966991411009" stroke-width="0" transform=" rotate(0, 149, 25)"/>
    <polygon fill="dodgerblue" opacity="1" points="174.02035791284587,17.5 168.71705705394677,19.696699141100893 166.52035791284587,25.0 168.71705705394675,30.303300858899107 174.02035791284587,32.5 179.32365877174496,30.303300858899107 181.52035791284587,25.000000000000004 179.323658771745,19.6966991411009" stroke-width="0" transform=" rotate(0, 174, 25)"/>
    <polygon fill="dodgerblue" opacity="1" points="199.02035791284587,17.5 193.71705705394677,19.696699141100893 191.52035791284587,25.0 193.71705705394675,30.303300858899107 199.02035791284587,32.5 204.32365877174496,30.303300858899107 206.52035791284587,25.000000000000004 204.323658771745,19.6966991411009" stroke-width="0" transform=" rotate(0, 199, 25)"/>
    <polygon fill="dodgerblue" opacity="1" points="224.02035791284587,17.5 218.71705705394677,19.696699141100893 216.52035791284587,25.0 218.71705705394675,30.303300858899107 224.02035791284587,32.5 229.32365877174496,30.303300858899107 231.52035791284587,25.000000000000004 229.323658771745,19.6966991411009" stroke-width="0" transform=" rotate(0, 224, 25)"/>
    <polygon fill="dodgerblue" opacity="1" points="32.837136697232964,42.5 27.533835838333857,44.69669914110089 25.337136697232964,50.0 27.533835838333857,55.30330085889911 32.837136697232964,57.5 38.14043755613207,55.30330085889911 40.337136697232964,50.0 38.14043755613208,44.6966991411009" stroke-width="0" transform=" rotate(0, 32, 50)"/>
    <polygon fill="dodgerblue" opacity="1" points="57.837136697232964,42.5 52.53383583833386,44.69669914110089 50.337136697232964,50.0 52.53383583833386,55.30330085889911 57.837136697232964,57.5 63.14043755613207,55.30330085889911 65.33713669723296,50.0 63.14043755613208,44.6966991411009" stroke-width="0" transform=" rotate(0, 57, 50)"/>
    <polygon fill="dodgerblue" opacity="1" points="82.83713669723296,42.5 77.53383583833386,44.69669914110089 75.33713669723296,50.0 77.53383583833386,55.30330085889911 82.83713669723296,57.5 88.14043755613207,55.30330085889911 90.33713669723296,50.0 88.14043755613207,44.6966991411009" stroke-width="0" transform=" rotate(0, 82, 50)"/>
    <polygon fill="dodgerblue" opacity="1" points="107.83713669723296,42.5 102.53383583833386,44.69669914110089 100.33713669723296,50.0 102.53383583833386,55.30330085889911 107.83713669723296,57.5 113.14043755613207,55.30330085889911 115.33713669723296,50.0 113.14043755613207,44.6966991411009" stroke-width="0" transform=" rotate(0, 107, 50)"/>
    <polygon fill="dodgerblue" opacity="1" points="132.83713669723295,42.5 127.53383583833384,44.69669914110089 125.33713669723295,50.0 127.53383583833384,55.30330085889911 132.83713669723295,57.5 138.14043755613204,55.30330085889911 140.33713669723295,50.0 138.14043755613207,44.6966991411009" stroke-width="0" transform=" rotate(0, 132, 50)"/>
    <polygon fill="dodgerblue" opacity="1" points="157.83713669723298,42.5 152.53383583833389,44.69669914110089 150.33713669723298,50.0 152.53383583833386,55.30330085889911 157.83713669723298,57.5 163.14043755613207,55.30330085889911 165.33713669723298,50.0 163.1404375561321,44.6966991411009" stroke-width="0" transform=" rotate(0, 157, 50)"/>
    <polygon fill="dodgerblue" opacity="1" points="182.83713669723298,42.5 177.53383583833389,44.69669914110089 175.33713669723298,50.0 177.53383583833386,55.30330085889911 182.83713669723298,57.5 188.14043755613207,55.30330085889911 190.33713669723298,50.0 188.1404375561321,44.6966991411009" stroke-width="0" transform=" rotate(0, 182, 50)"/>
    <polygon fill="dodgerblue" opacity="1" points="207.83713669723298,42.5 202.53383583833389,44.69669914110089 200.33713669723298,50.0 202.53383583833386,55.30330085889911 207.83713669723298,57.5 213.14043755613207,55.30330085889911 215.33713669723298,50.0 213.1404375561321,44.6966991411009" stroke-width="0" transform=" rotate(0, 207, 50)"/>
    <polygon fill="dodgerblue" opacity="1" points="232.83713669723298,42.5 227.53383583833389,44.69669914110089 225.33713669723298,50.0 227.53383583833386,55.30330085889911 232.83713669723298,57.5 238.14043755613207,55.30330085889911 240.33713669723298,50.0 238.1404375561321,44.6966991411009" stroke-width="0" transform=" rotate(0, 232, 50)"/>
    <polygon fill="dodgerblue" opacity="1" points="38.28620565727317,67.5 32.982904798374065,69.6966991411009 30.78620565727317,75.0 32.982904798374065,80.3033008588991 38.28620565727317,82.5 43.58950651617228,80.3033008588991 45.78620565727317,75.0 43.589506516172285,69.6966991411009" stroke-width="0" transform=" rotate(0, 38, 75)"/>
    <polygon fill="dodgerblue" opacity="1" points="63.28620565727317,67.5 57.982904798374065,69.6966991411009 55.78620565727317,75.0 57.982904798374065,80.3033008588991 63.28620565727317,82.5 68.58950651617228,80.3033008588991 70.78620565727317,75.0 68.58950651617228,69.6966991411009" stroke-width="0" transform=" rotate(0, 63, 75)"/>
    <polygon fill="dodgerblue" opacity="1" points="88.28620565727317,67.5 82.98290479837407,69.6966991411009 80.78620565727317,75.0 82.98290479837407,80.3033008588991 88.28620565727317,82.5 93.58950651617228,80.3033008588991 95.78620565727317,75.0 93.58950651617228,69.6966991411009" stroke-width="0" transform=" rotate(0, 88, 75)"/>
    <polygon fill="dodgerblue" opacity="1" points="113.28620565727317,67.5 107.98290479837407,69.6966991411009 105.78620565727317,75.0 107.98290479837407,80.3033008588991 113.28620565727317,82.5 118.58950651617228,80.3033008588991 120.78620565727317,75.0 118.58950651617228,69.6966991411009" stroke-width="0" transform=" rotate(0, 113, 75)"/>
    <polygon fill="dodgerblue" opacity="1" points="138.28620565727317,67.5 132.98290479837408,69.6966991411009 130.78620565727317,75.0 132.98290479837405,80.3033008588991 138.28620565727317,82.5 143.58950651617226,80.3033008588991 145.78620565727317,75.0 143.5895065161723,69.6966991411009" stroke-width="0" transform=" rotate(0, 138, 75)"/>
    <polygon fill="dodgerblue" opacity="1" points="163.28620565727317,67.5 157.98290479837408,69.6966991411009 155.78620565727317,75.0 157.98290479837405,80.3033008588991 163.28620565727317,82.5 168.58950651617226,80.3033008588991 170.78620565727317,75.0 168.5895065161723,69.6966991411009" stroke-width="0" transform=" rotate(0, 163, 75)"/>
    <polygon fill="dodgerblue" opacity="1" points="188.28620565727317,67.5 182.98290479837408,69.6966991411009 180.78620565727317,75.0 182.98290479837405,80.3033008588991 188.28620565727317,82.5 193.58950651617226,80.3033008588991 195.78620565727317,75.0 193.5895065161723,69.6966991411009" stroke-width="0" transform=" rotate(0, 188, 75)"/>
    <polygon fill="dodgerblue" opacity="1" points="213.28620565727317,67.5 207.98290479837408,69.6966991411009 205.78620565727317,75.0 207.98290479837405,80.3033008588991 213.28620565727317,82.5 218.58950651617226,80.3033008588991 220.78620565727317,75.0 218.5895065161723,69.6966991411009" stroke-width="0" transform=" rotate(0, 213, 75)"/>
    <polygon fill="dodgerblue" opacity="1" points="238.28620565727317,67.5 232.98290479837408,69.6966991411009 230.78620565727317,75.0 232.98290479837405,80.3033008588991 238.28620565727317,82.5 243.58950651617226,80.3033008588991 245.78620565727317,75.0 243.5895065161723,69.6966991411009" stroke-width="0" transform=" rotate(0, 238, 75)"/>
    <polygon fill="dodgerblue" opacity="1" points="38.28620565727317,92.5 32.982904798374065,94.6966991411009 30.78620565727317,100.0 32.982904798374065,105.3033008588991 38.28620565727317,107.5 43.58950651617228,105.3033008588991 45.78620565727317,100.0 43.589506516172285,94.6966991411009" stroke-width="0" transform=" rotate(0, 38, 100)"/>
    <polygon fill="dodgerblue" opacity="1" points="63.28620565727317,92.5 57.982904798374065,94.6966991411009 55.78620565727317,100.0 57.982904798374065,105.3033008588991 63.28620565727317,107.5 68.58950651617228,105.3033008588991 70.78620565727317,100.0 68.58950651617228,94.6966991411009" stroke-width="0" transform=" rotate(0, 63, 100)"/>
    <polygon fill="dodgerblue" opacity="1" points="88.28620565727317,92.5 82.98290479837407,94.6966991411009 80.78620565727317,100.0 82.98290479837407,105.3033008588991 88.28620565727317,107.5 93.58950651617228,105.3033008588991 95.78620565727317,100.0 93.58950651617228,94.6966991411009" stroke-width="0" transform=" rotate(0, 88, 100)"/>
    <polygon fill="dodgerblue" opacity="1" points="113.28620565727317,92.5 107.98290479837407,94.6966991411009 105.78620565727317,100.0 107.98290479837407,105.3033008588991 113.28620565727317,107.5 118.58950651617228,105.3033008588991 120.78620565727317,100.0 118.58950651617228,94.6966991411009" stroke-width="0" transform=" rotate(0, 113, 100)"/>
    <polygon fill="dodgerblue" opacity="1" points="138.28620565727317,92.5 132.98290479837408,94.6966991411009 130.78620565727317,100.0 132.98290479837405,105.3033008588991 138.28620565727317,107.5 143.58950651617226,105.3033008588991 145.78620565727317,100.0 143.5895065161723,94.6966991411009" stroke-width="0" transform=" rotate(0, 138, 100)"/>
    <polygon fill="dodgerblue" opacity="1" points="163.28620565727317,92.5 157.98290479837408,94.6966991411009 155.78620565727317,100.0 157.98290479837405,105.3033008588991 163.28620565727317,107.5 168.58950651617226,105.3033008588991 170.78620565727317,100.0 168.5895065161723,94.6966991411009" stroke-width="0" transform=" rotate(0, 163, 100)"/>
    <polygon fill="dodgerblue" opacity="1" points="188.28620565727317,92.5 182.98290479837408,94.6966991411009 180.78620565727317,100.0 182.98290479837405,105.3033008588991 188.28620565727317,107.5 193.58950651617226,105.3033008588991 195.78620565727317,100.0 193.5895065161723,94.6966991411009" stroke-width="0" transform=" rotate(0, 188, 100)"/>
    <polygon fill="dodgerblue" opacity="1" points="213.28620565727317,92.5 207.98290479837408,94.6966991411009 205.78620565727317,100.0 207.98290479837405,105.3033008588991 213.28620565727317,107.5 218.58950651617226,105.3033008588991 220.78620565727317,100.0 218.5895065161723,94.6966991411009" stroke-width="0" transform=" rotate(0, 213, 100)"/>
    <polygon fill="dodgerblue" opacity="1" points="238.28620565727317,92.5 232.98290479837408,94.6966991411009 230.78620565727317,100.0 232.98290479837405,105.3033008588991 238.28620565727317,107.5 243.58950651617226,105.3033008588991 245.78620565727317,100.0 243.5895065161723,94.6966991411009" stroke-width="0" transform=" rotate(0, 238, 100)"/>
    <polygon fill="dodgerblue" opacity="1" points="32.837136697232964,117.5 27.533835838333857,119.6966991411009 25.337136697232964,125.0 27.533835838333857,130.3033008588991 32.837136697232964,132.5 38.14043755613207,130.30330085889912 40.337136697232964,125.0 38.14043755613208,119.6966991411009" stroke-width="0" transform=" rotate(0, 32, 125)"/>
    <polygon fill="dodgerblue" opacity="1" points="57.837136697232964,117.5 52.53383583833386,119.6966991411009 50.337136697232964,125.0 52.53383583833386,130.3033008588991 57.837136697232964,132.5 63.14043755613207,130.30330085889912 65.33713669723296,125.0 63.14043755613208,119.6966991411009" stroke-width="0" transform=" rotate(0, 57, 125)"/>
    <polygon fill="dodgerblue" opacity="1" points="82.83713669723296,117.5 77.53383583833386,119.6966991411009 75.33713669723296,125.0 77.53383583833386,130.3033008588991 82.83713669723296,132.5 88.14043755613207,130.30330085889912 90.33713669723296,125.0 88.14043755613207,119.6966991411009" stroke-width="0" transform=" rotate(0, 82, 125)"/>
    <polygon fill="dodgerblue" opacity="1" points="107.83713669723296,117.5 102.53383583833386,119.6966991411009 100.33713669723296,125.0 102.53383583833386,130.3033008588991 107.83713669723296,132.5 113.14043755613207,130.30330085889912 115.33713669723296,125.0 113.14043755613207,119.6966991411009" stroke-width="0" transform=" rotate(0, 107, 125)"/>
    <polygon fill="dodgerblue" opacity="1" points="132.83713669723295,117.5 127.53383583833384,119.6966991411009 125.33713669723295,125.0 127.53383583833384,130.3033008588991 132.83713669723295,132.5 138.14043755613204,130.30330085889912 140.33713669723295,125.0 138.14043755613207,119.6966991411009" stroke-width="0" transform=" rotate(0, 132, 125)"/>
    <polygon fill="dodgerblue" opacity="1" points="157.83713669723298,117.5 152.53383583833389,119.6966991411009 150.33713669723298,125.0 152.53383583833386,130.3033008588991 157.83713669723298,132.5 163.14043755613207,130.30330085889912 165.33713669723298,125.0 163.1404375561321,119.6966991411009" stroke-width="0" transform=" rotate(0, 157, 125)"/>
    <polygon fill="dodgerblue" opacity="1" points="182.83713669723298,117.5 177.53383583833389,119.6966991411009 175.33713669723298,125.0 177.53383583833386,130.3033008588991 182.83713669723298,132.5 188.14043755613207,130.30330085889912 190.33713669723298,125.0 188.1404375561321,119.6966991411009" stroke-width="0" transform=" rotate(0, 182, 125)"/>
    <polygon fill="dodgerblue" opacity="1" points="207.83713669723298,117.5 202.53383583833389,119.6966991411009 200.33713669723298,125.0 202.53383583833386,130.3033008588991 207.83713669723298,132.5 213.14043755613207,130.30330085889912 215.33713669723298,125.0 213.1404375561321,119.6966991411009" stroke-width="0" transform=" rotate(0, 207, 125)"/>
    <polygon fill="dodgerblue" opacity="1" points="232.83713669723298,117.5 227.53383583833389,119.6966991411009 225.33713669723298,125.0 227.53383583833386,130.3033008588991 232.83713669723298,132.5 238.14043755613207,130.30330085889912 240.33713669723298,125.0 238.1404375561321,119.6966991411009" stroke-width="0" transform=" rotate(0, 232, 125)"/>
    <polygon fill="dodgerblue" opacity="1" points="24.02035791284587,142.5 18.717057053946764,144.69669914110088 16.52035791284587,150.0 18.717057053946764,155.3033008588991 24.020357912845867,157.5 29.323658771744974,155.30330085889912 31.52035791284587,150.0 29.323658771744984,144.6966991411009" stroke-width="0" transform=" rotate(0, 24, 150)"/>
    <polygon fill="dodgerblue" opacity="1" points="49.02035791284587,142.5 43.71705705394676,144.69669914110088 41.52035791284587,150.0 43.71705705394676,155.3033008588991 49.02035791284587,157.5 54.323658771744974,155.30330085889912 56.52035791284587,150.0 54.32365877174498,144.6966991411009" stroke-width="0" transform=" rotate(0, 49, 150)"/>
    <polygon fill="dodgerblue" opacity="1" points="74.02035791284587,142.5 68.71705705394676,144.69669914110088 66.52035791284587,150.0 68.71705705394676,155.3033008588991 74.02035791284587,157.5 79.32365877174497,155.30330085889912 81.52035791284587,150.0 79.32365877174497,144.6966991411009" stroke-width="0" transform=" rotate(0, 74, 150)"/>
    <polygon fill="dodgerblue" opacity="1" points="99.02035791284587,142.5 93.71705705394676,144.69669914110088 91.52035791284587,150.0 93.71705705394676,155.3033008588991 99.02035791284587,157.5 104.32365877174497,155.30330085889912 106.52035791284587,150.0 104.32365877174497,144.6966991411009" stroke-width="0" transform=" rotate(0, 99, 150)"/>
    <polygon fill="dodgerblue" opacity="1" points="124.02035791284587,142.5 118.71705705394676,144.69669914110088 116.52035791284587,150.0 118.71705705394676,155.3033008588991 124.02035791284587,157.5 129.32365877174496,155.30330085889912 131.52035791284587,150.0 129.323658771745,144.6966991411009" stroke-width="0" transform=" rotate(0, 124, 150)"/>
    <polygon fill="dodgerblue" opacity="1" points="149.02035791284587,142.5 143.71705705394677,144.69669914110088 141.52035791284587,150.0 143.71705705394675,155.3033008588991 149.02035791284587,157.5 154.32365877174496,155.30330085889912 156.52035791284587,150.0 154.323658771745,144.6966991411009" stroke-width="0" transform=" rotate(0, 149, 150)"/>
    <polygon fill="dodgerblue" opacity="1" points="174.02035791284587,142.5 168.71705705394677,144.69669914110088 166.52035791284587,150.0 168.71705705394675,155.3033008588991 174.02035791284587,157.5 179.32365877174496,155.30330085889912 181.52035791284587,150.0 179.323658771745,144.6966991411009" stroke-width="0" transform=" rotate(0, 174, 150)"/>
    <polygon fill="dodgerblue" opacity="1" points="199.02035791284587,142.5 193.71705705394677,144.69669914110088 191.52035791284587,150.0 193.71705705394675,155.3033008588991 199.02035791284587,157.5 204.32365877174496,155.30330085889912 206.52035791284587,150.0 204.323658771745,144.6966991411009" stroke-width="0" transform=" rotate(0, 199, 150)"/>
    <polygon fill="dodgerblue" opacity="1" points="224.02035791284587,142.5 218.71705705394677,144.69669914110088 216.52035791284587,150.0 218.71705705394675,155.3033008588991 224.02035791284587,157.5 229.32365877174496,155.30330085889912 231.52035791284587,150.0 229.323658771745,144.6966991411009" stroke-width="0" transform=" rotate(0, 224, 150)"/>
    <polygon fill="dodgerblue" opacity="1" points="15.203579128458786,167.5 9.900278269559674,169.69669914110088 7.703579128458778,175.0 9.900278269559672,180.3033008588991 15.203579128458783,182.5 20.506879987357895,180.30330085889912 22.70357912845879,175.0 20.5068799873579,169.6966991411009" stroke-width="0" transform=" rotate(0, 15, 175)"/>
    <polygon fill="dodgerblue" opacity="1" points="40.20357912845877,167.5 34.900278269559664,169.69669914110088 32.70357912845877,175.0 34.900278269559664,180.3033008588991 40.20357912845877,182.5 45.50687998735788,180.30330085889912 47.70357912845877,175.0 45.506879987357884,169.6966991411009" stroke-width="0" transform=" rotate(0, 40, 175)"/>
    <polygon fill="dodgerblue" opacity="1" points="65.20357912845877,167.5 59.900278269559664,169.69669914110088 57.70357912845877,175.0 59.900278269559664,180.3033008588991 65.20357912845877,182.5 70.50687998735788,180.30330085889912 72.70357912845877,175.0 70.50687998735788,169.6966991411009" stroke-width="0" transform=" rotate(0, 65, 175)"/>
    <polygon fill="dodgerblue" opacity="1" points="90.20357912845877,167.5 84.90027826955966,169.69669914110088 82.70357912845877,175.0 84.90027826955966,180.3033008588991 90.20357912845877,182.5 95.50687998735788,180.30330085889912 97.70357912845877,175.0 95.50687998735788,169.6966991411009" stroke-width="0" transform=" rotate(0, 90, 175)"/>
    <polygon fill="dodgerblue" opacity="1" points="115.20357912845877,167.5 109.90027826955966,169.69669914110088 107.70357912845877,175.0 109.90027826955966,180.3033008588991 115.20357912845877,182.5 120.50687998735788,180.30330085889912 122.70357912845877,175.0 120.50687998735788,169.6966991411009" stroke-width="0" transform=" rotate(0, 115, 175)"/>
    <polygon fill="dodgerblue" opacity="1" points="140.20357912845878,167.5 134.9002782695597,169.69669914110088 132.70357912845878,175.0 134.90027826955966,180.3033008588991 140.20357912845878,182.5 145.50687998735788,180.30330085889912 147.70357912845878,175.0 145.5068799873579,169.6966991411009" stroke-width="0" transform=" rotate(0, 140, 175)"/>
    <polygon fill="dodgerblue" opacity="1" points="165.20357912845878,167.5 159.9002782695597,169.69669914110088 157.70357912845878,175.0 159.90027826955966,180.3033008588991 165.20357912845878,182.5 170.50687998735788,180.30330085889912 172.70357912845878,175.0 170.5068799873579,169.6966991411009" stroke-width="0" transform=" rotate(0, 165, 175)"/>
    <polygon fill="dodgerblue" opacity="1" points="190.20357912845878,167.5 184.9002782695597,169.69669914110088 182.70357912845878,175.0 184.90027826955966,180.3033008588991 190.20357912845878,182.5 195.50687998735788,180.30330085889912 197.70357912845878,175.0 195.5068799873579,169.6966991411009" stroke-width="0" transform=" rotate(0, 190, 175)"/>
    <polygon fill="dodgerblue" opacity="1" points="215.20357912845878,167.5 209.9002782695597,169.69669914110088 207.70357912845878,175.0 209.90027826955966,180.3033008588991 215.20357912845878,182.5 220.50687998735788,180.30330085889912 222.70357912845878,175.0 220.5068799873579,169.6966991411009" stroke-width="0" transform=" rotate(0, 215, 175)"/>
    <polygon fill="dodgerblue" opacity="1" points="9.754510168418566,192.5 4.4512093095194585,194.69669914110088 2.254510168418564,200.0 4.451209309519457,205.3033008588991 9.754510168418562,207.5 15.057811027317669,205.30330085889912 17.254510168418562,200.0 15.057811027317676,194.6966991411009" stroke-width="0" transform=" rotate(0, 9, 200)"/>
    <polygon fill="dodgerblue" opacity="1" points="34.75451016841856,192.5 29.451209309519456,194.69669914110088 27.254510168418562,200.0 29.451209309519456,205.3033008588991 34.75451016841856,207.5 40.05781102731767,205.30330085889912 42.25451016841856,200.0 40.057811027317676,194.6966991411009" stroke-width="0" transform=" rotate(0, 34, 200)"/>
    <polygon fill="dodgerblue" opacity="1" points="59.75451016841856,192.5 54.451209309519456,194.69669914110088 52.25451016841856,200.0 54.451209309519456,205.3033008588991 59.75451016841856,207.5 65.05781102731767,205.30330085889912 67.25451016841856,200.0 65.05781102731767,194.6966991411009" stroke-width="0" transform=" rotate(0, 59, 200)"/>
    <polygon fill="dodgerblue" opacity="1" points="84.75451016841856,192.5 79.45120930951946,194.69669914110088 77.25451016841856,200.0 79.45120930951946,205.3033008588991 84.75451016841856,207.5 90.05781102731767,205.30330085889912 92.25451016841856,200.0 90.05781102731767,194.6966991411009" stroke-width="0" transform=" rotate(0, 84, 200)"/>
    <polygon fill="dodgerblue" opacity="1" points="109.75451016841856,192.5 104.45120930951946,194.69669914110088 102.25451016841856,200.0 104.45120930951946,205.3033008588991 109.75451016841856,207.5 115.05781102731767,205.30330085889912 117.25451016841856,200.0 115.05781102731767,194.6966991411009" stroke-width="0" transform=" rotate(0, 109, 200)"/>
    <polygon fill="dodgerblue" opacity="1" points="134.75451016841856,192.5 129.45120930951947,194.69669914110088 127.25451016841856,200.0 129.45120930951944,205.3033008588991 134.75451016841856,207.5 140.05781102731765,205.30330085889912 142.25451016841856,200.0 140.05781102731768,194.6966991411009" stroke-width="0" transform=" rotate(0, 134, 200)"/>
    <polygon fill="dodgerblue" opacity="1" points="159.75451016841856,192.5 154.45120930951947,194.69669914110088 152.25451016841856,200.0 154.45120930951944,205.3033008588991 159.75451016841856,207.5 165.05781102731765,205.30330085889912 167.25451016841856,200.0 165.05781102731768,194.6966991411009" stroke-width="0" transform=" rotate(0, 159, 200)"/>
    <polygon fill="dodgerblue" opacity="1" points="184.75451016841856,192.5 179.45120930951947,194.69669914110088 177.25451016841856,200.0 179.45120930951944,205.3033008588991 184.75451016841856,207.5 190.05781102731765,205.30330085889912 192.25451016841856,200.0 190.05781102731768,194.6966991411009" stroke-width="0" transform=" rotate(0, 184, 200)"/>
    <polygon fill="dodgerblue" opacity="1" points="209.75451016841856,192.5 204.45120930951947,194.69669914110088 202.25451016841856,200.0 204.45120930951944,205.3033008588991 209.75451016841856,207.5 215.05781102731765,205.30330085889912 217.25451016841856,200.0 215.05781102731768,194.6966991411009" stroke-width="0" transform=" rotate(0, 209, 200)"/>
    <polygon fill="dodgerblue" opacity="1" points="9.754510168418564,217.5 4.451209309519457,219.69669914110088 2.2545101684185624,225.0 4.451209309519455,230.3033008588991 9.75451016841856,232.5 15.057811027317667,230.30330085889912 17.254510168418562,225.0 15.057811027317676,219.6966991411009" stroke-width="0" transform=" rotate(0, 9, 225)"/>
    <polygon fill="dodgerblue" opacity="1" points="34.75451016841856,217.5 29.451209309519456,219.69669914110088 27.254510168418562,225.0 29.451209309519456,230.3033008588991 34.75451016841856,232.5 40.05781102731767,230.30330085889912 42.25451016841856,225.0 40.057811027317676,219.6966991411009" stroke-width="0" transform=" rotate(0, 34, 225)"/>
    <polygon fill="dodgerblue" opacity="1" points="59.75451016841856,217.5 54.451209309519456,219.69669914110088 52.25451016841856,225.0 54.451209309519456,230.3033008588991 59.75451016841856,232.5 65.05781102731767,230.30330085889912 67.25451016841856,225.0 65.05781102731767,219.6966991411009" stroke-width="0" transform=" rotate(0, 59, 225)"/>
    <polygon fill="dodgerblue" opacity="1" points="84.75451016841856,217.5 79.45120930951946,219.69669914110088 77.25451016841856,225.0 79.45120930951946,230.3033008588991 84.75451016841856,232.5 90.05781102731767,230.30330085889912 92.25451016841856,225.0 90.05781102731767,219.6966991411009" stroke-width="0" transform=" rotate(0, 84, 225)"/>
    <polygon fill="dodgerblue" opacity="1" points="109.75451016841856,217.5 104.45120930951946,219.69669914110088 102.25451016841856,225.0 104.45120930951946,230.3033008588991 109.75451016841856,232.5 115.05781102731767,230.30330085889912 117.25451016841856,225.0 115.05781102731767,219.6966991411009" stroke-width="0" transform=" rotate(0, 109, 225)"/>
    <polygon fill="dodgerblue" opacity="1" points="134.75451016841856,217.5 129.45120930951947,219.69669914110088 127.25451016841856,225.0 129.45120930951944,230.3033008588991 134.75451016841856,232.5 140.05781102731765,230.30330085889912 142.25451016841856,225.0 140.05781102731768,219.6966991411009" stroke-width="0" transform=" rotate(0, 134, 225)"/>
    <polygon fill="dodgerblue" opacity="1" points="159.75451016841856,217.5 154.45120930951947,219.69669914110088 152.25451016841856,225.0 154.45120930951944,230.3033008588991 159.75451016841856,232.5 165.05781102731765,230.30330085889912 167.25451016841856,225.0 165.05781102731768,219.6966991411009" stroke-width="0" transform=" rotate(0, 159, 225)"/>
    <polygon fill="dodgerblue" opacity="1" points="184.75451016841856,217.5 179.45120930951947,219.69669914110088 177.25451016841856,225.0 179.45120930951944,230.3033008588991 184.75451016841856,232.5 190.05781102731765,230.30330085889912 192.25451016841856,225.0 190.05781102731768,219.6966991411009" stroke-width="0" transform=" rotate(0, 184, 225)"/>
    <polygon fill="dodgerblue" opacity="1" points="209.75451016841856,217.5 204.45120930951947,219.69669914110088 202.25451016841856,225.0 204.45120930951944,230.3033008588991 209.75451016841856,232.5 215.05781102731765,230.30330085889912 217.25451016841856,225.0 215.05781102731768,219.6966991411009" stroke-width="0" transform=" rotate(0, 209, 225)"/>
  </g>
</svg>
