<?xml version="1.0" encoding="utf-8" ?>
<svg xmlns="http://www.w3.org/2000/svg" xmlns:ev="http://www.w3.org/2001/xml-events" xmlns:xlink="http://www.w3.org/1999/xlink" baseProfile="full" height="250" version="1.1" width="250">
  <defs/>
  <g transform=" rotate(0, 125, 125)">
    <rect fill="#ECFAF9" height="250" width="250" x="0" y="0"/>
    <path d="M 353.985,203.905 C 389.13,182.91 401.034,137.526 380.493,101.951 C 359.953,66.376 314.699,53.994 278.946,73.934 C 278.336,33.001 244.985,0 203.907,0 C 162.828,0 129.476,33.001 128.868,73.937 C 93.114,53.997 47.858,66.38 27.319,101.957 C 6.78,137.531 18.683,182.915 53.83,203.908 C 18.684,224.903 6.78,270.287 27.32,305.862 C 47.86,341.438 93.116,353.82 128.87,333.879 C 129.477,374.815 162.83,407.817 203.909,407.815 C 244.989,407.815 278.339,374.813 278.947,333.879 C 314.701,353.818 359.958,341.436 380.495,305.858 C 401.035,270.282 389.13,224.898 353.985,203.905 Z M 203.907,272.65 C 165.941,272.65 135.163,241.873 135.163,203.906 S 165.941,135.162 203.907,135.162 C 241.872,135.162 272.651,165.939 272.651,203.906 S 241.873,272.65 203.907,272.65 Z" fill="#1b9fd8" opacity="1" stroke-width="0" transform=" scale(0.036781, 0.036781) translate(5371.484865, 3198.919374) rotate(0, 203, 203)">
      <animate attributeName="fill" begin="click" calcMode="linear" dur="10s" repeatCount="indefinite" values="#1b9fd8;#6dd6ff;#006ca1;#6dd6ff;#1b9fd8"/>
      <animateTransform additive="sum" attributeName="transform" begin="click" dur="3s" from="0 203.907130009007 203.90750004544947" to="360 203.907130009007 203.90750004544947" type="rotate"/>
    </path>
    <path d="M 353.985,203.905 C 389.13,182.91 401.034,137.526 380.493,101.951 C 359.953,66.376 314.699,53.994 278.946,73.934 C 278.336,33.001 244.985,0 203.907,0 C 162.828,0 129.476,33.001 128.868,73.937 C 93.114,53.997 47.858,66.38 27.319,101.957 C 6.78,137.531 18.683,182.915 53.83,203.908 C 18.684,224.903 6.78,270.287 27.32,305.862 C 47.86,341.438 93.116,353.82 128.87,333.879 C 129.477,374.815 162.83,407.817 203.909,407.815 C 244.989,407.815 278.339,374.813 278.947,333.879 C 314.701,353.818 359.958,341.436 380.495,305.858 C 401.035,270.282 389.13,224.898 353.985,203.905 Z M 203.907,272.65 C 165.941,272.65 135.163,241.873 135.163,203.906 S 165.941,135.162 203.907,135.162 C 241.872,135.162 272.651,165.939 272.651,203.906 S 241.873,272.65 203.907,272.65 Z" fill="#1b9fd8" opacity="1" stroke-width="0" transform=" scale(0.036781, 0.036781) translate(5738.878073, 2869.008837) rotate(0, 203, 203)">
      <animate attributeName="fill" begin="click" calcMode="linear" dur="10s" repeatCount="indefinite" values="#1b9fd8;#6dd6ff;#006ca1;#6dd6ff;#1b9fd8"/>
      <animateTransform additive="sum" attributeName="transform" begin="click" dur="3s" from="0 203.907130009007 203.90750004544947" to="360 203.907130009007 203.90750004544947" type="rotate"/>
    </path>
    <path d="M 353.985,203.905 C 389.13,182.91 401.034,137.526 380.493,101.951 C 359.953,66.376 314.699,53.994 278.946,73.934 C 278.336,33.001 244.985,0 203.907,0 C 162.828,0 129.476,33.001 128.868,73.937 C 93.114,53.997 47.858,66.38 27.319,101.957 C 6.78,137.531 18.683,182.915 53.83,203.908 C 18.684,224.903 6.78,270.287 27.32,305.862 C 47.86,341.438 93.116,353.82 128.87,333.879 C 129.477,374.815 162.83,407.817 203.909,407.815 C 244.989,407.815 278.339,374.813 278.947,333.879 C 314.701,353.818 359.958,341.436 380.495,305.858 C 401.035,270.282 389.13,224.898 353.985,203.905 Z M 203.907,272.65 C 165.941,272.65 135.163,241.873 135.163,203.906 S 165.941,135.162 203.907,135.162 C 241.872,135.162 272.651,165.939 272.651,203.906 S 241.873,272.65 203.907,272.65 Z" fill="#1b9fd8" opacity="1" stroke-width="0" transform=" scale(0.036781, 0.036781) translate(5899.006041, 2436.544426) rotate(0, 203, 203)">
      <animate attributeName="fill" begin="click" calcMode="linear" dur="10s" repeatCount="indefinite" values="#1b9fd8;#6dd6ff;#006ca1;#6dd6ff;#1b9fd8"/>
      <animateTransform additive="sum" attributeName="transform" begin="click" dur="3s" from="0 203.907130009007 203.90750004544947" to="360 203.907130009007 203.90750004544947" type="rotate"/>
    </path>
    <path d="M 353.985,203.905 C 389.13,182.91 401.034,137.526 380.493,101.951 C 359.953,66.376 314.699,53.994 278.946,73.934 C 278.336,33.001 244.985,0 203.907,0 C 162.828,0 129.476,33.001 128.868,73.937 C 93.114,53.997 47.858,66.38 27.319,101.957 C 6.78,137.531 18.683,182.915 53.83,203.908 C 18.684,224.903 6.78,270.287 27.32,305.862 C 47.86,341.438 93.116,353.82 128.87,333.879 C 129.477,374.815 162.83,407.817 203.909,407.815 C 244.989,407.815 278.339,374.813 278.947,333.879 C 314.701,353.818 359.958,341.436 380.495,305.858 C 401.035,270.282 389.13,224.898 353.985,203.905 Z M 203.907,272.65 C 165.941,272.65 135.163,241.873 135.163,203.906 S 165.941,135.162 203.907,135.162 C 241.872,135.162 272.651,165.939 272.651,203.906 S 241.873,272.65 203.907,272.65 Z" fill="#1b9fd8" opacity="1" stroke-width="0" transform=" scale(0.036781, 0.036781) translate(5829.734276, 1976.809393) rotate(0, 203, 203)">
      <animate attributeName="fill" begin="click" calcMode="linear" dur="10s" repeatCount="indefinite" values="#1b9fd8;#6dd6ff;#006ca1;#6dd6ff;#1b9fd8"/>
      <animateTransform additive="sum" attributeName="transform" begin="click" dur="3s" from="0 203.907130009007 203.90750004544947" to="360 203.907130009007 203.90750004544947" type="rotate"/>
    </path>
    <path d="M 353.985,203.905 C 389.13,182.91 401.034,137.526 380.493,101.951 C 359.953,66.376 314.699,53.994 278.946,73.934 C 278.336,33.001 244.985,0 203.907,0 C 162.828,0 129.476,33.001 128.868,73.937 C 93.114,53.997 47.858,66.38 27.319,101.957 C 6.78,137.531 18.683,182.915 53.83,203.908 C 18.684,224.903 6.78,270.287 27.32,305.862 C 47.86,341.438 93.116,353.82 128.87,333.879 C 129.477,374.815 162.83,407.817 203.909,407.815 C 244.989,407.815 278.339,374.813 278.947,333.879 C 314.701,353.818 359.958,341.436 380.495,305.858 C 401.035,270.282 389.13,224.898 353.985,203.905 Z M 203.907,272.65 C 165.941,272.65 135.163,241.873 135.163,203.906 S 165.941,135.162 203.907,135.162 C 241.872,135.162 272.651,165.939 272.651,203.906 S 241.873,272.65 203.907,272.65 Z" fill="#1b9fd8" opacity="1" stroke-width="0" transform=" scale(0.036781, 0.036781) translate(5529.152433, 1585.166984) rotate(0, 203, 203)">
      <animate attributeName="fill" begin="click" calcMode="linear" dur="10s" repeatCount="indefinite" values="#1b9fd8;#6dd6ff;#006ca1;#6dd6ff;#1b9fd8"/>
      <animateTransform additive="sum" attributeName="transform" begin="click" dur="3s" from="0 203.907130009007 203.90750004544947" to="360 203.907130009007 203.90750004544947" type="rotate"/>
    </path>
    <path d="M 353.985,203.905 C 389.13,182.91 401.034,137.526 380.493,101.951 C 359.953,66.376 314.699,53.994 278.946,73.934 C 278.336,33.001 244.985,0 203.907,0 C 162.828,0 129.476,33.001 128.868,73.937 C 93.114,53.997 47.858,66.38 27.319,101.957 C 6.78,137.531 18.683,182.915 53.83,203.908 C 18.684,224.903 6.78,270.287 27.32,305.862 C 47.86,341.438 93.116,353.82 128.87,333.879 C 129.477,374.815 162.83,407.817 203.909,407.815 C 244.989,407.815 278.339,374.813 278.947,333.879 C 314.701,353.818 359.958,341.436 380.495,305.858 C 401.035,270.282 389.13,224.898 353.985,203.905 Z M 203.907,272.65 C 165.941,272.65 135.163,241.873 135.163,203.906 S 165.941,135.162 203.907,135.162 C 241.872,135.162 272.651,165.939 272.651,203.906 S 241.873,272.65 203.907,272.65 Z" fill="#1b9fd8" opacity="1" stroke-width="0" transform=" scale(0.036781, 0.036781) translate(5085.815414, 1371.427148) rotate(0, 203, 203)">
      <animate attributeName="fill" begin="click" calcMode="linear" dur="10s" repeatCount="indefinite" values="#1b9fd8;#6dd6ff;#006ca1;#6dd6ff;#1b9fd8"/>
      <animateTransform additive="sum" attributeName="transform" begin="click" dur="3s" from="0 203.907130009007 203.90750004544947" to="360 203.907130009007 203.90750004544947" type="rotate"/>
    </path>
    <path d="M 353.985,203.905 C 389.13,182.91 401.034,137.526 380.493,101.951 C 359.953,66.376 314.699,53.994 278.946,73.934 C 278.336,33.001 244.985,0 203.907,0 C 162.828,0 129.476,33.001 128.868,73.937 C 93.114,53.997 47.858,66.38 27.319,101.957 C 6.78,137.531 18.683,182.915 53.83,203.908 C 18.684,224.903 6.78,270.287 27.32,305.862 C 47.86,341.438 93.116,353.82 128.87,333.879 C 129.477,374.815 162.83,407.817 203.909,407.815 C 244.989,407.815 278.339,374.813 278.947,333.879 C 314.701,353.818 359.958,341.436 380.495,305.858 C 401.035,270.282 389.13,224.898 353.985,203.905 Z M 203.907,272.65 C 165.941,272.65 135.163,241.873 135.163,203.906 S 165.941,135.162 203.907,135.162 C 241.872,135.162 272.651,165.939 272.651,203.906 S 241.873,272.65 203.907,272.65 Z" fill="#1b9fd8" opacity="1" stroke-width="0" transform=" scale(0.036781, 0.036781) translate(4584.482869, 1360.731206) rotate(0, 203, 203)">
      <animate attributeName="fill" begin="click" calcMode="linear" dur="10s" repeatCount="indefinite" values="#1b9fd8;#6dd6ff;#006ca1;#6dd6ff;#1b9fd8"/>
      <animateTransform additive="sum" attributeName="transform" begin="click" dur="3s" from="0 203.907130009007 203.90750004544947" to="360 203.907130009007 203.90750004544947" type="rotate"/>
    </path>
    <path d="M 353.985,203.905 C 389.13,182.91 401.034,137.526 380.493,101.951 C 359.953,66.376 314.699,53.994 278.946,73.934 C 278.336,33.001 244.985,0 203.907,0 C 162.828,0 129.476,33.001 128.868,73.937 C 93.114,53.997 47.858,66.38 27.319,101.957 C 6.78,137.531 18.683,182.915 53.83,203.908 C 18.684,224.903 6.78,270.287 27.32,305.862 C 47.86,341.438 93.116,353.82 128.87,333.879 C 129.477,374.815 162.83,407.817 203.909,407.815 C 244.989,407.815 278.339,374.813 278.947,333.879 C 314.701,353.818 359.958,341.436 380.495,305.858 C 401.035,270.282 389.13,224.898 353.985,203.905 Z M 203.907,272.65 C 165.941,272.65 135.163,241.873 135.163,203.906 S 165.941,135.162 203.907,135.162 C 241.872,135.162 272.651,165.939 272.651,203.906 S 241.873,272.65 203.907,272.65 Z" fill="#1b9fd8" opacity="1" stroke-width="0" transform=" scale(0.036781, 0.036781) translate(4257.607696, 1284.935795) rotate(0, 203, 203)">
      <animate attributeName="fill" begin="click" calcMode="linear" dur="10s" repeatCount="indefinite" values="#1b9fd8;#6dd6ff;#006ca1;#6dd6ff;#1b9fd8"/>
      <animateTransform additive="sum" attributeName="transform" begin="click" dur="3s" from="0 203.907130009007 203.90750004544947" to="360 203.907130009007 203.90750004544947" type="rotate"/>
    </path>
    <path d="M 353.985,203.905 C 389.13,182.91 401.034,137.526 380.493,101.951 C 359.953,66.376 314.699,53.994 278.946,73.934 C 278.336,33.001 244.985,0 203.907,0 C 162.828,0 129.476,33.001 128.868,73.937 C 93.114,53.997 47.858,66.38 27.319,101.957 C 6.78,137.531 18.683,182.915 53.83,203.908 C 18.684,224.903 6.78,270.287 27.32,305.862 C 47.86,341.438 93.116,353.82 128.87,333.879 C 129.477,374.815 162.83,407.817 203.909,407.815 C 244.989,407.815 278.339,374.813 278.947,333.879 C 314.701,353.818 359.958,341.436 380.495,305.858 C 401.035,270.282 389.13,224.898 353.985,203.905 Z M 203.907,272.65 C 165.941,272.65 135.163,241.873 135.163,203.906 S 165.941,135.162 203.907,135.162 C 241.872,135.162 272.651,165.939 272.651,203.906 S 241.873,272.65 203.907,272.65 Z" fill="#1b9fd8" opacity="1" stroke-width="0" transform=" scale(0.036781, 0.036781) translate(4046.787545, 864.699517) rotate(0, 203, 203)">
      <animate attributeName="fill" begin="click" calcMode="linear" dur="10s" repeatCount="indefinite" values="#1b9fd8;#6dd6ff;#006ca1;#6dd6ff;#1b9fd8"/>
      <animateTransform additive="sum" attributeName="transform" begin="click" dur="3s" from="0 203.907130009007 203.90750004544947" to="360 203.907130009007 203.90750004544947" type="rotate"/>
    </path>
    <path d="M 353.985,203.905 C 389.13,182.91 401.034,137.526 380.493,101.951 C 359.953,66.376 314.699,53.994 278.946,73.934 C 278.336,33.001 244.985,0 203.907,0 C 162.828,0 129.476,33.001 128.868,73.937 C 93.114,53.997 47.858,66.38 27.319,101.957 C 6.78,137.531 18.683,182.915 53.83,203.908 C 18.684,224.903 6.78,270.287 27.32,305.862 C 47.86,341.438 93.116,353.82 128.87,333.879 C 129.477,374.815 162.83,407.817 203.909,407.815 C 244.989,407.815 278.339,374.813 278.947,333.879 C 314.701,353.818 359.958,341.436 380.495,305.858 C 401.035,270.282 389.13,224.898 353.985,203.905 Z M 203.907,272.65 C 165.941,272.65 135.163,241.873 135.163,203.906 S 165.941,135.162 203.907,135.162 C 241.872,135.162 272.651,165.939 272.651,203.906 S 241.873,272.65 203.907,272.65 Z" fill="#1b9fd8" opacity="1" stroke-width="0" transform=" scale(0.036781, 0.036781) translate(3657.899890, 578.214130) rotate(0, 203, 203)">
      <animate attributeName="fill" begin="click" calcMode="linear" dur="10s" repeatCount="indefinite" values="#1b9fd8;#6dd6ff;#006ca1;#6dd6ff;#1b9fd8"/>
      <animateTransform additive="sum" attributeName="transform" begin="click" dur="3s" from="0 203.907130009007 203.90750004544947" to="360 203.907130009007 203.90750004544947" type="rotate"/>
    </path>
    <path d="M 353.985,203.905 C 389.13,182.91 401.034,137.526 380.493,101.951 C 359.953,66.376 314.699,53.994 278.946,73.934 C 278.336,33.001 244.985,0 203.907,0 C 162.828,0 129.476,33.001 128.868,73.937 C 93.114,53.997 47.858,66.38 27.319,101.957 C 6.78,137.531 18.683,182.915 53.83,203.908 C 18.684,224.903 6.78,270.287 27.32,305.862 C 47.86,341.438 93.116,353.82 128.87,333.879 C 129.477,374.815 162.83,407.817 203.909,407.815 C 244.989,407.815 278.339,374.813 278.947,333.879 C 314.701,353.818 359.958,341.436 380.495,305.858 C 401.035,270.282 389.13,224.898 353.985,203.905 Z M 203.907,272.65 C 165.941,272.65 135.163,241.873 135.163,203.906 S 165.941,135.162 203.907,135.162 C 241.872,135.162 272.651,165.939 272.651,203.906 S 241.873,272.65 203.907,272.65 Z" fill="#1b9fd8" opacity="1" stroke-width="0" transform=" scale(0.036781, 0.036781) translate(3151.349483, 480.664464) rotate(0, 203, 203)">
      <animate attributeName="fill" begin="click" calcMode="linear" dur="10s" repeatCount="indefinite" values="#1b9fd8;#6dd6ff;#006ca1;#6dd6ff;#1b9fd8"/>
      <animateTransform additive="sum" attributeName="transform" begin="click" dur="3s" from="0 203.907130009007 203.90750004544947" to="360 203.907130009007 203.90750004544947" type="rotate"/>
    </path>
    <path d="M 353.985,203.905 C 389.13,182.91 401.034,137.526 380.493,101.951 C 359.953,66.376 314.699,53.994 278.946,73.934 C 278.336,33.001 244.985,0 203.907,0 C 162.828,0 129.476,33.001 128.868,73.937 C 93.114,53.997 47.858,66.38 27.319,101.957 C 6.78,137.531 18.683,182.915 53.83,203.908 C 18.684,224.903 6.78,270.287 27.32,305.862 C 47.86,341.438 93.116,353.82 128.87,333.879 C 129.477,374.815 162.83,407.817 203.909,407.815 C 244.989,407.815 278.339,374.813 278.947,333.879 C 314.701,353.818 359.958,341.436 380.495,305.858 C 401.035,270.282 389.13,224.898 353.985,203.905 Z M 203.907,272.65 C 165.941,272.65 135.163,241.873 135.163,203.906 S 165.941,135.162 203.907,135.162 C 241.872,135.162 272.651,165.939 272.651,203.906 S 241.873,272.65 203.907,272.65 Z" fill="#1b9fd8" opacity="1" stroke-width="0" transform=" scale(0.036781, 0.036781) translate(2656.138623, 605.138007) rotate(0, 203, 203)">
      <animate attributeName="fill" begin="click" calcMode="linear" dur="10s" repeatCount="indefinite" values="#1b9fd8;#6dd6ff;#006ca1;#6dd6ff;#1b9fd8"/>
      <animateTransform additive="sum" attributeName="transform" begin="click" dur="3s" from="0 203.907130009007 203.90750004544947" to="360 203.907130009007 203.90750004544947" type="rotate"/>
    </path>
    <path d="M 353.985,203.905 C 389.13,182.91 401.034,137.526 380.493,101.951 C 359.953,66.376 314.699,53.994 278.946,73.934 C 278.336,33.001 244.985,0 203.907,0 C 162.828,0 129.476,33.001 128.868,73.937 C 93.114,53.997 47.858,66.38 27.319,101.957 C 6.78,137.531 18.683,182.915 53.83,203.908 C 18.684,224.903 6.78,270.287 27.32,305.862 C 47.86,341.438 93.116,353.82 128.87,333.879 C 129.477,374.815 162.83,407.817 203.909,407.815 C 244.989,407.815 278.339,374.813 278.947,333.879 C 314.701,353.818 359.958,341.436 380.495,305.858 C 401.035,270.282 389.13,224.898 353.985,203.905 Z M 203.907,272.65 C 165.941,272.65 135.163,241.873 135.163,203.906 S 165.941,135.162 203.907,135.162 C 241.872,135.162 272.651,165.939 272.651,203.906 S 241.873,272.65 203.907,272.65 Z" fill="#1b9fd8" opacity="1" stroke-width="0" transform=" scale(0.036781, 0.036781) translate(2286.440528, 911.572674) rotate(0, 203, 203)">
      <animate attributeName="fill" begin="click" calcMode="linear" dur="10s" repeatCount="indefinite" values="#1b9fd8;#6dd6ff;#006ca1;#6dd6ff;#1b9fd8"/>
      <animateTransform additive="sum" attributeName="transform" begin="click" dur="3s" from="0 203.907130009007 203.90750004544947" to="360 203.907130009007 203.90750004544947" type="rotate"/>
    </path>
    <path d="M 353.985,203.905 C 389.13,182.91 401.034,137.526 380.493,101.951 C 359.953,66.376 314.699,53.994 278.946,73.934 C 278.336,33.001 244.985,0 203.907,0 C 162.828,0 129.476,33.001 128.868,73.937 C 93.114,53.997 47.858,66.38 27.319,101.957 C 6.78,137.531 18.683,182.915 53.83,203.908 C 18.684,224.903 6.78,270.287 27.32,305.862 C 47.86,341.438 93.116,353.82 128.87,333.879 C 129.477,374.815 162.83,407.817 203.909,407.815 C 244.989,407.815 278.339,374.813 278.947,333.879 C 314.701,353.818 359.958,341.436 380.495,305.858 C 401.035,270.282 389.13,224.898 353.985,203.905 Z M 203.907,272.65 C 165.941,272.65 135.163,241.873 135.163,203.906 S 165.941,135.162 203.907,135.162 C 241.872,135.162 272.651,165.939 272.651,203.906 S 241.873,272.65 203.907,272.65 Z" fill="#1b9fd8" opacity="1" stroke-width="0" transform=" scale(0.036781, 0.036781) translate(2102.415723, 1344.790448) rotate(0, 203, 203)">
      <animate attributeName="fill" begin="click" calcMode="linear" dur="10s" repeatCount="indefinite" values="#1b9fd8;#6dd6ff;#006ca1;#6dd6ff;#1b9fd8"/>
      <animateTransform additive="sum" attributeName="transform" begin="click" dur="3s" from="0 203.907130009007 203.90750004544947" to="360 203.907130009007 203.90750004544947" type="rotate"/>
    </path>
    <path d="M 353.985,203.905 C 389.13,182.91 401.034,137.526 380.493,101.951 C 359.953,66.376 314.699,53.994 278.946,73.934 C 278.336,33.001 244.985,0 203.907,0 C 162.828,0 129.476,33.001 128.868,73.937 C 93.114,53.997 47.858,66.38 27.319,101.957 C 6.78,137.531 18.683,182.915 53.83,203.908 C 18.684,224.903 6.78,270.287 27.32,305.862 C 47.86,341.438 93.116,353.82 128.87,333.879 C 129.477,374.815 162.83,407.817 203.909,407.815 C 244.989,407.815 278.339,374.813 278.947,333.879 C 314.701,353.818 359.958,341.436 380.495,305.858 C 401.035,270.282 389.13,224.898 353.985,203.905 Z M 203.907,272.65 C 165.941,272.65 135.163,241.873 135.163,203.906 S 165.941,135.162 203.907,135.162 C 241.872,135.162 272.651,165.939 272.651,203.906 S 241.873,272.65 203.907,272.65 Z" fill="#1b9fd8" opacity="1" stroke-width="0" transform=" scale(0.036781, 0.036781) translate(1722.781262, 1350.228493) rotate(0, 203, 203)">
      <animate attributeName="fill" begin="click" calcMode="linear" dur="10s" repeatCount="indefinite" values="#1b9fd8;#6dd6ff;#006ca1;#6dd6ff;#1b9fd8"/>
      <animateTransform additive="sum" attributeName="transform" begin="click" dur="3s" from="0 203.907130009007 203.90750004544947" to="360 203.907130009007 203.90750004544947" type="rotate"/>
    </path>
    <path d="M 353.985,203.905 C 389.13,182.91 401.034,137.526 380.493,101.951 C 359.953,66.376 314.699,53.994 278.946,73.934 C 278.336,33.001 244.985,0 203.907,0 C 162.828,0 129.476,33.001 128.868,73.937 C 93.114,53.997 47.858,66.38 27.319,101.957 C 6.78,137.531 18.683,182.915 53.83,203.908 C 18.684,224.903 6.78,270.287 27.32,305.862 C 47.86,341.438 93.116,353.82 128.87,333.879 C 129.477,374.815 162.83,407.817 203.909,407.815 C 244.989,407.815 278.339,374.813 278.947,333.879 C 314.701,353.818 359.958,341.436 380.495,305.858 C 401.035,270.282 389.13,224.898 353.985,203.905 Z M 203.907,272.65 C 165.941,272.65 135.163,241.873 135.163,203.906 S 165.941,135.162 203.907,135.162 C 241.872,135.162 272.651,165.939 272.651,203.906 S 241.873,272.65 203.907,272.65 Z" fill="#1b9fd8" opacity="1" stroke-width="0" transform=" scale(0.036781, 0.036781) translate(1224.232259, 1387.683701) rotate(0, 203, 203)">
      <animate attributeName="fill" begin="click" calcMode="linear" dur="10s" repeatCount="indefinite" values="#1b9fd8;#6dd6ff;#006ca1;#6dd6ff;#1b9fd8"/>
      <animateTransform additive="sum" attributeName="transform" begin="click" dur="3s" from="0 203.907130009007 203.90750004544947" to="360 203.907130009007 203.90750004544947" type="rotate"/>
    </path>
    <path d="M 353.985,203.905 C 389.13,182.91 401.034,137.526 380.493,101.951 C 359.953,66.376 314.699,53.994 278.946,73.934 C 278.336,33.001 244.985,0 203.907,0 C 162.828,0 129.476,33.001 128.868,73.937 C 93.114,53.997 47.858,66.38 27.319,101.957 C 6.78,137.531 18.683,182.915 53.83,203.908 C 18.684,224.903 6.78,270.287 27.32,305.862 C 47.86,341.438 93.116,353.82 128.87,333.879 C 129.477,374.815 162.83,407.817 203.909,407.815 C 244.989,407.815 278.339,374.813 278.947,333.879 C 314.701,353.818 359.958,341.436 380.495,305.858 C 401.035,270.282 389.13,224.898 353.985,203.905 Z M 203.907,272.65 C 165.941,272.65 135.163,241.873 135.163,203.906 S 165.941,135.162 203.907,135.162 C 241.872,135.162 272.651,165.939 272.651,203.906 S 241.873,272.65 203.907,272.65 Z" fill="#1b9fd8" opacity="1" stroke-width="0" transform=" scale(0.036781, 0.036781) translate(794.074699, 1625.640439) rotate(0, 203, 203)">
      <animate attributeName="fill" begin="click" calcMode="linear" dur="10s" repeatCount="indefinite" values="#1b9fd8;#6dd6ff;#006ca1;#6dd6ff;#1b9fd8"/>
      <animateTransform additive="sum" attributeName="transform" begin="click" dur="3s" from="0 203.907130009007 203.90750004544947" to="360 203.907130009007 203.90750004544947" type="rotate"/>
    </path>
    <path d="M 353.985,203.905 C 389.13,182.91 401.034,137.526 380.493,101.951 C 359.953,66.376 314.699,53.994 278.946,73.934 C 278.336,33.001 244.985,0 203.907,0 C 162.828,0 129.476,33.001 128.868,73.937 C 93.114,53.997 47.858,66.38 27.319,101.957 C 6.78,137.531 18.683,182.915 53.83,203.908 C 18.684,224.903 6.78,270.287 27.32,305.862 C 47.86,341.438 93.116,353.82 128.87,333.879 C 129.477,374.815 162.83,407.817 203.909,407.815 C 244.989,407.815 278.339,374.813 278.947,333.879 C 314.701,353.818 359.958,341.436 380.495,305.858 C 401.035,270.282 389.13,224.898 353.985,203.905 Z M 203.907,272.65 C 165.941,272.65 135.163,241.873 135.163,203.906 S 165.941,135.162 203.907,135.162 C 241.872,135.162 272.651,165.939 272.651,203.906 S 241.873,272.65 203.907,272.65 Z" fill="#1b9fd8" opacity="1" stroke-width="0" transform=" scale(0.036781, 0.036781) translate(519.047928, 2033.830646) rotate(0, 203, 203)">
      <animate attributeName="fill" begin="click" calcMode="linear" dur="10s" repeatCount="indefinite" values="#1b9fd8;#6dd6ff;#006ca1;#6dd6ff;#1b9fd8"/>
      <animateTransform additive="sum" attributeName="transform" begin="click" dur="3s" from="0 203.907130009007 203.90750004544947" to="360 203.907130009007 203.90750004544947" type="rotate"/>
    </path>
    <path d="M 353.985,203.905 C 389.13,182.91 401.034,137.526 380.493,101.951 C 359.953,66.376 314.699,53.994 278.946,73.934 C 278.336,33.001 244.985,0 203.907,0 C 162.828,0 129.476,33.001 128.868,73.937 C 93.114,53.997 47.858,66.38 27.319,101.957 C 6.78,137.531 18.683,182.915 53.83,203.908 C 18.684,224.903 6.78,270.287 27.32,305.862 C 47.86,341.438 93.116,353.82 128.87,333.879 C 129.477,374.815 162.83,407.817 203.909,407.815 C 244.989,407.815 278.339,374.813 278.947,333.879 C 314.701,353.818 359.958,341.436 380.495,305.858 C 401.035,270.282 389.13,224.898 353.985,203.905 Z M 203.907,272.65 C 165.941,272.65 135.163,241.873 135.163,203.906 S 165.941,135.162 203.907,135.162 C 241.872,135.162 272.651,165.939 272.651,203.906 S 241.873,272.65 203.907,272.65 Z" fill="#1b9fd8" opacity="1" stroke-width="0" transform=" scale(0.036781, 0.036781) translate(479.967554, 2494.273714) rotate(0, 203, 203)">
      <animate attributeName="fill" begin="click" calcMode="linear" dur="10s" repeatCount="indefinite" values="#1b9fd8;#6dd6ff;#006ca1;#6dd6ff;#1b9fd8"/>
      <animateTransform additive="sum" attributeName="transform" begin="click" dur="3s" from="0 203.907130009007 203.90750004544947" to="360 203.907130009007 203.90750004544947" type="rotate"/>
    </path>
    <path d="M 353.985,203.905 C 389.13,182.91 401.034,137.526 380.493,101.951 C 359.953,66.376 314.699,53.994 278.946,73.934 C 278.336,33.001 244.985,0 203.907,0 C 162.828,0 129.476,33.001 128.868,73.937 C 93.114,53.997 47.858,66.38 27.319,101.957 C 6.78,137.531 18.683,182.915 53.83,203.908 C 18.684,224.903 6.78,270.287 27.32,305.862 C 47.86,341.438 93.116,353.82 128.87,333.879 C 129.477,374.815 162.83,407.817 203.909,407.815 C 244.989,407.815 278.339,374.813 278.947,333.879 C 314.701,353.818 359.958,341.436 380.495,305.858 C 401.035,270.282 389.13,224.898 353.985,203.905 Z M 203.907,272.65 C 165.941,272.65 135.163,241.873 135.163,203.906 S 165.941,135.162 203.907,135.162 C 241.872,135.162 272.651,165.939 272.651,203.906 S 241.873,272.65 203.907,272.65 Z" fill="#1b9fd8" opacity="1" stroke-width="0" transform=" scale(0.036781, 0.036781) translate(667.496329, 2917.938159) rotate(0, 203, 203)">
      <animate attributeName="fill" begin="click" calcMode="linear" dur="10s" repeatCount="indefinite" values="#1b9fd8;#6dd6ff;#006ca1;#6dd6ff;#1b9fd8"/>
      <animateTransform additive="sum" attributeName="transform" begin="click" dur="3s" from="0 203.907130009007 203.90750004544947" to="360 203.907130009007 203.90750004544947" type="rotate"/>
    </path>
    <path d="M 353.985,203.905 C 389.13,182.91 401.034,137.526 380.493,101.951 C 359.953,66.376 314.699,53.994 278.946,73.934 C 278.336,33.001 244.985,0 203.907,0 C 162.828,0 129.476,33.001 128.868,73.937 C 93.114,53.997 47.858,66.38 27.319,101.957 C 6.78,137.531 18.683,182.915 53.83,203.908 C 18.684,224.903 6.78,270.287 27.32,305.862 C 47.86,341.438 93.116,353.82 128.87,333.879 C 129.477,374.815 162.83,407.817 203.909,407.815 C 244.989,407.815 278.339,374.813 278.947,333.879 C 314.701,353.818 359.958,341.436 380.495,305.858 C 401.035,270.282 389.13,224.898 353.985,203.905 Z M 203.907,272.65 C 165.941,272.65 135.163,241.873 135.163,203.906 S 165.941,135.162 203.907,135.162 C 241.872,135.162 272.651,165.939 272.651,203.906 S 241.873,272.65 203.907,272.65 Z" fill="#1b9fd8" opacity="1" stroke-width="0" transform=" scale(0.036781, 0.036781) translate(942.422346, 3232.369132) rotate(0, 203, 203)">
      <animate attributeName="fill" begin="click" calcMode="linear" dur="10s" repeatCount="indefinite" values="#1b9fd8;#6dd6ff;#006ca1;#6dd6ff;#1b9fd8"/>
      <animateTransform additive="sum" attributeName="transform" begin="click" dur="3s" from="0 203.907130009007 203.90750004544947" to="360 203.907130009007 203.90750004544947" type="rotate"/>
    </path>
    <path d="M 353.985,203.905 C 389.13,182.91 401.034,137.526 380.493,101.951 C 359.953,66.376 314.699,53.994 278.946,73.934 C 278.336,33.001 244.985,0 203.907,0 C 162.828,0 129.476,33.001 128.868,73.937 C 93.114,53.997 47.858,66.38 27.319,101.957 C 6.78,137.531 18.683,182.915 53.83,203.908 C 18.684,224.903 6.78,270.287 27.32,305.862 C 47.86,341.438 93.116,353.82 128.87,333.879 C 129.477,374.815 162.83,407.817 203.909,407.815 C 244.989,407.815 278.339,374.813 278.947,333.879 C 314.701,353.818 359.958,341.436 380.495,305.858 C 401.035,270.282 389.13,224.898 353.985,203.905 Z M 203.907,272.65 C 165.941,272.65 135.163,241.873 135.163,203.906 S 165.941,135.162 203.907,135.162 C 241.872,135.162 272.651,165.939 272.651,203.906 S 241.873,272.65 203.907,272.65 Z" fill="#1b9fd8" opacity="1" stroke-width="0" transform=" scale(0.036781, 0.036781) translate(599.973183, 3579.381819) rotate(0, 203, 203)">
      <animate attributeName="fill" begin="click" calcMode="linear" dur="10s" repeatCount="indefinite" values="#1b9fd8;#6dd6ff;#006ca1;#6dd6ff;#1b9fd8"/>
      <animateTransform additive="sum" attributeName="transform" begin="click" dur="3s" from="0 203.907130009007 203.90750004544947" to="360 203.907130009007 203.90750004544947" type="rotate"/>
    </path>
    <path d="M 353.985,203.905 C 389.13,182.91 401.034,137.526 380.493,101.951 C 359.953,66.376 314.699,53.994 278.946,73.934 C 278.336,33.001 244.985,0 203.907,0 C 162.828,0 129.476,33.001 128.868,73.937 C 93.114,53.997 47.858,66.38 27.319,101.957 C 6.78,137.531 18.683,182.915 53.83,203.908 C 18.684,224.903 6.78,270.287 27.32,305.862 C 47.86,341.438 93.116,353.82 128.87,333.879 C 129.477,374.815 162.83,407.817 203.909,407.815 C 244.989,407.815 278.339,374.813 278.947,333.879 C 314.701,353.818 359.958,341.436 380.495,305.858 C 401.035,270.282 389.13,224.898 353.985,203.905 Z M 203.907,272.65 C 165.941,272.65 135.163,241.873 135.163,203.906 S 165.941,135.162 203.907,135.162 C 241.872,135.162 272.651,165.939 272.651,203.906 S 241.873,272.65 203.907,272.65 Z" fill="#1b9fd8" opacity="1" stroke-width="0" transform=" scale(0.036781, 0.036781) translate(467.585277, 4019.441146) rotate(0, 203, 203)">
      <animate attributeName="fill" begin="click" calcMode="linear" dur="10s" repeatCount="indefinite" values="#1b9fd8;#6dd6ff;#006ca1;#6dd6ff;#1b9fd8"/>
      <animateTransform additive="sum" attributeName="transform" begin="click" dur="3s" from="0 203.907130009007 203.90750004544947" to="360 203.907130009007 203.90750004544947" type="rotate"/>
    </path>
    <path d="M 353.985,203.905 C 389.13,182.91 401.034,137.526 380.493,101.951 C 359.953,66.376 314.699,53.994 278.946,73.934 C 278.336,33.001 244.985,0 203.907,0 C 162.828,0 129.476,33.001 128.868,73.937 C 93.114,53.997 47.858,66.38 27.319,101.957 C 6.78,137.531 18.683,182.915 53.83,203.908 C 18.684,224.903 6.78,270.287 27.32,305.862 C 47.86,341.438 93.116,353.82 128.87,333.879 C 129.477,374.815 162.83,407.817 203.909,407.815 C 244.989,407.815 278.339,374.813 278.947,333.879 C 314.701,353.818 359.958,341.436 380.495,305.858 C 401.035,270.282 389.13,224.898 353.985,203.905 Z M 203.907,272.65 C 165.941,272.65 135.163,241.873 135.163,203.906 S 165.941,135.162 203.907,135.162 C 241.872,135.162 272.651,165.939 272.651,203.906 S 241.873,272.65 203.907,272.65 Z" fill="#1b9fd8" opacity="1" stroke-width="0" transform=" scale(0.036781, 0.036781) translate(567.388056, 4477.264728) rotate(0, 203, 203)">
      <animate attributeName="fill" begin="click" calcMode="linear" dur="10s" repeatCount="indefinite" values="#1b9fd8;#6dd6ff;#006ca1;#6dd6ff;#1b9fd8"/>
      <animateTransform additive="sum" attributeName="transform" begin="click" dur="3s" from="0 203.907130009007 203.90750004544947" to="360 203.907130009007 203.90750004544947" type="rotate"/>
    </path>
    <path d="M 353.985,203.905 C 389.13,182.91 401.034,137.526 380.493,101.951 C 359.953,66.376 314.699,53.994 278.946,73.934 C 278.336,33.001 244.985,0 203.907,0 C 162.828,0 129.476,33.001 128.868,73.937 C 93.114,53.997 47.858,66.38 27.319,101.957 C 6.78,137.531 18.683,182.915 53.83,203.908 C 18.684,224.903 6.78,270.287 27.32,305.862 C 47.86,341.438 93.116,353.82 128.87,333.879 C 129.477,374.815 162.83,407.817 203.909,407.815 C 244.989,407.815 278.339,374.813 278.947,333.879 C 314.701,353.818 359.958,341.436 380.495,305.858 C 401.035,270.282 389.13,224.898 353.985,203.905 Z M 203.907,272.65 C 165.941,272.65 135.163,241.873 135.163,203.906 S 165.941,135.162 203.907,135.162 C 241.872,135.162 272.651,165.939 272.651,203.906 S 241.873,272.65 203.907,272.65 Z" fill="#1b9fd8" opacity="1" stroke-width="0" transform=" scale(0.036781, 0.036781) translate(891.733401, 4850.208801) rotate(0, 203, 203)">
      <animate attributeName="fill" begin="click" calcMode="linear" dur="10s" repeatCount="indefinite" values="#1b9fd8;#6dd6ff;#006ca1;#6dd6ff;#1b9fd8"/>
      <animateTransform additive="sum" attributeName="transform" begin="click" dur="3s" from="0 203.907130009007 203.90750004544947" to="360 203.907130009007 203.90750004544947" type="rotate"/>
    </path>
    <path d="M 353.985,203.905 C 389.13,182.91 401.034,137.526 380.493,101.951 C 359.953,66.376 314.699,53.994 278.946,73.934 C 278.336,33.001 244.985,0 203.907,0 C 162.828,0 129.476,33.001 128.868,73.937 C 93.114,53.997 47.858,66.38 27.319,101.957 C 6.78,137.531 18.683,182.915 53.83,203.908 C 18.684,224.903 6.78,270.287 27.32,305.862 C 47.86,341.438 93.116,353.82 128.87,333.879 C 129.477,374.815 162.83,407.817 203.909,407.815 C 244.989,407.815 278.339,374.813 278.947,333.879 C 314.701,353.818 359.958,341.436 380.495,305.858 C 401.035,270.282 389.13,224.898 353.985,203.905 Z M 203.907,272.65 C 165.941,272.65 135.163,241.873 135.163,203.906 S 165.941,135.162 203.907,135.162 C 241.872,135.162 272.651,165.939 272.651,203.906 S 241.873,272.65 203.907,272.65 Z" fill="#1b9fd8" opacity="1" stroke-width="0" transform=" scale(0.036781, 0.036781) translate(1346.930311, 5039.423825) rotate(0, 203, 203)">
      <animate attributeName="fill" begin="click" calcMode="linear" dur="10s" repeatCount="indefinite" values="#1b9fd8;#6dd6ff;#006ca1;#6dd6ff;#1b9fd8"/>
      <animateTransform additive="sum" attributeName="transform" begin="click" dur="3s" from="0 203.907130009007 203.90750004544947" to="360 203.907130009007 203.90750004544947" type="rotate"/>
    </path>
    <path d="M 353.985,203.905 C 389.13,182.91 401.034,137.526 380.493,101.951 C 359.953,66.376 314.699,53.994 278.946,73.934 C 278.336,33.001 244.985,0 203.907,0 C 162.828,0 129.476,33.001 128.868,73.937 C 93.114,53.997 47.858,66.38 27.319,101.957 C 6.78,137.531 18.683,182.915 53.83,203.908 C 18.684,224.903 6.78,270.287 27.32,305.862 C 47.86,341.438 93.116,353.82 128.87,333.879 C 129.477,374.815 162.83,407.817 203.909,407.815 C 244.989,407.815 278.339,374.813 278.947,333.879 C 314.701,353.818 359.958,341.436 380.495,305.858 C 401.035,270.282 389.13,224.898 353.985,203.905 Z M 203.907,272.65 C 165.941,272.65 135.163,241.873 135.163,203.906 S 165.941,135.162 203.907,135.162 C 241.872,135.162 272.651,165.939 272.651,203.906 S 241.873,272.65 203.907,272.65 Z" fill="#1b9fd8" opacity="1" stroke-width="0" transform=" scale(0.036781, 0.036781) translate(1849.736698, 5023.063203) rotate(0, 203, 203)">
      <animate attributeName="fill" begin="click" calcMode="linear" dur="10s" repeatCount="indefinite" values="#1b9fd8;#6dd6ff;#006ca1;#6dd6ff;#1b9fd8"/>
      <animateTransform additive="sum" attributeName="transform" begin="click" dur="3s" from="0 203.907130009007 203.90750004544947" to="360 203.907130009007 203.90750004544947" type="rotate"/>
    </path>
    <path d="M 353.985,203.905 C 389.13,182.91 401.034,137.526 380.493,101.951 C 359.953,66.376 314.699,53.994 278.946,73.934 C 278.336,33.001 244.985,0 203.907,0 C 162.828,0 129.476,33.001 128.868,73.937 C 93.114,53.997 47.858,66.38 27.319,101.957 C 6.78,137.531 18.683,182.915 53.83,203.908 C 18.684,224.903 6.78,270.287 27.32,305.862 C 47.86,341.438 93.116,353.82 128.87,333.879 C 129.477,374.815 162.83,407.817 203.909,407.815 C 244.989,407.815 278.339,374.813 278.947,333.879 C 314.701,353.818 359.958,341.436 380.495,305.858 C 401.035,270.282 389.13,224.898 353.985,203.905 Z M 203.907,272.65 C 165.941,272.65 135.163,241.873 135.163,203.906 S 165.941,135.162 203.907,135.162 C 241.872,135.162 272.651,165.939 272.651,203.906 S 241.873,272.65 203.907,272.65 Z" fill="#1b9fd8" opacity="1" stroke-width="0" transform=" scale(0.036781, 0.036781) translate(2128.076323, 5171.446058) rotate(0, 203, 203)">
      <animate attributeName="fill" begin="click" calcMode="linear" dur="10s" repeatCount="indefinite" values="#1b9fd8;#6dd6ff;#006ca1;#6dd6ff;#1b9fd8"/>
      <animateTransform additive="sum" attributeName="transform" begin="click" dur="3s" from="0 203.907130009007 203.90750004544947" to="360 203.907130009007 203.90750004544947" type="rotate"/>
    </path>
    <path d="M 353.985,203.905 C 389.13,182.91 401.034,137.526 380.493,101.951 C 359.953,66.376 314.699,53.994 278.946,73.934 C 278.336,33.001 244.985,0 203.907,0 C 162.828,0 129.476,33.001 128.868,73.937 C 93.114,53.997 47.858,66.38 27.319,101.957 C 6.78,137.531 18.683,182.915 53.83,203.908 C 18.684,224.903 6.78,270.287 27.32,305.862 C 47.86,341.438 93.116,353.82 128.87,333.879 C 129.477,374.815 162.83,407.817 203.909,407.815 C 244.989,407.815 278.339,374.813 278.947,333.879 C 314.701,353.818 359.958,341.436 380.495,305.858 C 401.035,270.282 389.13,224.898 353.985,203.905 Z M 203.907,272.65 C 165.941,272.65 135.163,241.873 135.163,203.906 S 165.941,135.162 203.907,135.162 C 241.872,135.162 272.651,165.939 272.651,203.906 S 241.873,272.65 203.907,272.65 Z" fill="#1b9fd8" opacity="1" stroke-width="0" transform=" scale(0.036781, 0.036781) translate(2364.658408, 5577.860677) rotate(0, 203, 203)">
      <animate attributeName="fill" begin="click" calcMode="linear" dur="10s" repeatCount="indefinite" values="#1b9fd8;#6dd6ff;#006ca1;#6dd6ff;#1b9fd8"/>
      <animateTransform additive="sum" attributeName="transform" begin="click" dur="3s" from="0 203.907130009007 203.90750004544947" to="360 203.907130009007 203.90750004544947" type="rotate"/>
    </path>
    <path d="M 353.985,203.905 C 389.13,182.91 401.034,137.526 380.493,101.951 C 359.953,66.376 314.699,53.994 278.946,73.934 C 278.336,33.001 244.985,0 203.907,0 C 162.828,0 129.476,33.001 128.868,73.937 C 93.114,53.997 47.858,66.38 27.319,101.957 C 6.78,137.531 18.683,182.915 53.83,203.908 C 18.684,224.903 6.78,270.287 27.32,305.862 C 47.86,341.438 93.116,353.82 128.87,333.879 C 129.477,374.815 162.83,407.817 203.909,407.815 C 244.989,407.815 278.339,374.813 278.947,333.879 C 314.701,353.818 359.958,341.436 380.495,305.858 C 401.035,270.282 389.13,224.898 353.985,203.905 Z M 203.907,272.65 C 165.941,272.65 135.163,241.873 135.163,203.906 S 165.941,135.162 203.907,135.162 C 241.872,135.162 272.651,165.939 272.651,203.906 S 241.873,272.65 203.907,272.65 Z" fill="#1b9fd8" opacity="1" stroke-width="0" transform=" scale(0.036781, 0.036781) translate(2771.728051, 5843.554719) rotate(0, 203, 203)">
      <animate attributeName="fill" begin="click" calcMode="linear" dur="10s" repeatCount="indefinite" values="#1b9fd8;#6dd6ff;#006ca1;#6dd6ff;#1b9fd8"/>
      <animateTransform additive="sum" attributeName="transform" begin="click" dur="3s" from="0 203.907130009007 203.90750004544947" to="360 203.907130009007 203.90750004544947" type="rotate"/>
    </path>
    <path d="M 353.985,203.905 C 389.13,182.91 401.034,137.526 380.493,101.951 C 359.953,66.376 314.699,53.994 278.946,73.934 C 278.336,33.001 244.985,0 203.907,0 C 162.828,0 129.476,33.001 128.868,73.937 C 93.114,53.997 47.858,66.38 27.319,101.957 C 6.78,137.531 18.683,182.915 53.83,203.908 C 18.684,224.903 6.78,270.287 27.32,305.862 C 47.86,341.438 93.116,353.82 128.87,333.879 C 129.477,374.815 162.83,407.817 203.909,407.815 C 244.989,407.815 278.339,374.813 278.947,333.879 C 314.701,353.818 359.958,341.436 380.495,305.858 C 401.035,270.282 389.13,224.898 353.985,203.905 Z M 203.907,272.65 C 165.941,272.65 135.163,241.873 135.163,203.906 S 165.941,135.162 203.907,135.162 C 241.872,135.162 272.651,165.939 272.651,203.906 S 241.873,272.65 203.907,272.65 Z" fill="#1b9fd8" opacity="1" stroke-width="0" transform=" scale(0.036781, 0.036781) translate(3286.916572, 5913.471134) rotate(0, 203, 203)">
      <animate attributeName="fill" begin="click" calcMode="linear" dur="10s" repeatCount="indefinite" values="#1b9fd8;#6dd6ff;#006ca1;#6dd6ff;#1b9fd8"/>
      <animateTransform additive="sum" attributeName="transform" begin="click" dur="3s" from="0 203.907130009007 203.90750004544947" to="360 203.907130009007 203.90750004544947" type="rotate"/>
    </path>
    <path d="M 353.985,203.905 C 389.13,182.91 401.034,137.526 380.493,101.951 C 359.953,66.376 314.699,53.994 278.946,73.934 C 278.336,33.001 244.985,0 203.907,0 C 162.828,0 129.476,33.001 128.868,73.937 C 93.114,53.997 47.858,66.38 27.319,101.957 C 6.78,137.531 18.683,182.915 53.83,203.908 C 18.684,224.903 6.78,270.287 27.32,305.862 C 47.86,341.438 93.116,353.82 128.87,333.879 C 129.477,374.815 162.83,407.817 203.909,407.815 C 244.989,407.815 278.339,374.813 278.947,333.879 C 314.701,353.818 359.958,341.436 380.495,305.858 C 401.035,270.282 389.13,224.898 353.985,203.905 Z M 203.907,272.65 C 165.941,272.65 135.163,241.873 135.163,203.906 S 165.941,135.162 203.907,135.162 C 241.872,135.162 272.651,165.939 272.651,203.906 S 241.873,272.65 203.907,272.65 Z" fill="#1b9fd8" opacity="1" stroke-width="0" transform=" scale(0.036781, 0.036781) translate(3769.624094, 5763.012576) rotate(0, 203, 203)">
      <animate attributeName="fill" begin="click" calcMode="linear" dur="10s" repeatCount="indefinite" values="#1b9fd8;#6dd6ff;#006ca1;#6dd6ff;#1b9fd8"/>
      <animateTransform additive="sum" attributeName="transform" begin="click" dur="3s" from="0 203.907130009007 203.90750004544947" to="360 203.907130009007 203.90750004544947" type="rotate"/>
    </path>
    <path d="M 353.985,203.905 C 389.13,182.91 401.034,137.526 380.493,101.951 C 359.953,66.376 314.699,53.994 278.946,73.934 C 278.336,33.001 244.985,0 203.907,0 C 162.828,0 129.476,33.001 128.868,73.937 C 93.114,53.997 47.858,66.38 27.319,101.957 C 6.78,137.531 18.683,182.915 53.83,203.908 C 18.684,224.903 6.78,270.287 27.32,305.862 C 47.86,341.438 93.116,353.82 128.87,333.879 C 129.477,374.815 162.83,407.817 203.909,407.815 C 244.989,407.815 278.339,374.813 278.947,333.879 C 314.701,353.818 359.958,341.436 380.495,305.858 C 401.035,270.282 389.13,224.898 353.985,203.905 Z M 203.907,272.65 C 165.941,272.65 135.163,241.873 135.163,203.906 S 165.941,135.162 203.907,135.162 C 241.872,135.162 272.651,165.939 272.651,203.906 S 241.873,272.65 203.907,272.65 Z" fill="#1b9fd8" opacity="1" stroke-width="0" transform=" scale(0.036781, 0.036781) translate(4119.220573, 5437.548350) rotate(0, 203, 203)">
      <animate attributeName="fill" begin="click" calcMode="linear" dur="10s" repeatCount="indefinite" values="#1b9fd8;#6dd6ff;#006ca1;#6dd6ff;#1b9fd8"/>
      <animateTransform additive="sum" attributeName="transform" begin="click" dur="3s" from="0 203.907130009007 203.90750004544947" to="360 203.907130009007 203.90750004544947" type="rotate"/>
    </path>
    <path d="M 353.985,203.905 C 389.13,182.91 401.034,137.526 380.493,101.951 C 359.953,66.376 314.699,53.994 278.946,73.934 C 278.336,33.001 244.985,0 203.907,0 C 162.828,0 129.476,33.001 128.868,73.937 C 93.114,53.997 47.858,66.38 27.319,101.957 C 6.78,137.531 18.683,182.915 53.83,203.908 C 18.684,224.903 6.78,270.287 27.32,305.862 C 47.86,341.438 93.116,353.82 128.87,333.879 C 129.477,374.815 162.83,407.817 203.909,407.815 C 244.989,407.815 278.339,374.813 278.947,333.879 C 314.701,353.818 359.958,341.436 380.495,305.858 C 401.035,270.282 389.13,224.898 353.985,203.905 Z M 203.907,272.65 C 165.941,272.65 135.163,241.873 135.163,203.906 S 165.941,135.162 203.907,135.162 C 241.872,135.162 272.651,165.939 272.651,203.906 S 241.873,272.65 203.907,272.65 Z" fill="#1b9fd8" opacity="1" stroke-width="0" transform=" scale(0.036781, 0.036781) translate(4275.555107, 4992.267483) rotate(0, 203, 203)">
      <animate attributeName="fill" begin="click" calcMode="linear" dur="10s" repeatCount="indefinite" values="#1b9fd8;#6dd6ff;#006ca1;#6dd6ff;#1b9fd8"/>
      <animateTransform additive="sum" attributeName="transform" begin="click" dur="3s" from="0 203.907130009007 203.90750004544947" to="360 203.907130009007 203.90750004544947" type="rotate"/>
    </path>
    <path d="M 353.985,203.905 C 389.13,182.91 401.034,137.526 380.493,101.951 C 359.953,66.376 314.699,53.994 278.946,73.934 C 278.336,33.001 244.985,0 203.907,0 C 162.828,0 129.476,33.001 128.868,73.937 C 93.114,53.997 47.858,66.38 27.319,101.957 C 6.78,137.531 18.683,182.915 53.83,203.908 C 18.684,224.903 6.78,270.287 27.32,305.862 C 47.86,341.438 93.116,353.82 128.87,333.879 C 129.477,374.815 162.83,407.817 203.909,407.815 C 244.989,407.815 278.339,374.813 278.947,333.879 C 314.701,353.818 359.958,341.436 380.495,305.858 C 401.035,270.282 389.13,224.898 353.985,203.905 Z M 203.907,272.65 C 165.941,272.65 135.163,241.873 135.163,203.906 S 165.941,135.162 203.907,135.162 C 241.872,135.162 272.651,165.939 272.651,203.906 S 241.873,272.65 203.907,272.65 Z" fill="#1b9fd8" opacity="1" stroke-width="0" transform=" scale(0.036781, 0.036781) translate(4712.005276, 5054.700881) rotate(0, 203, 203)">
      <animate attributeName="fill" begin="click" calcMode="linear" dur="10s" repeatCount="indefinite" values="#1b9fd8;#6dd6ff;#006ca1;#6dd6ff;#1b9fd8"/>
      <animateTransform additive="sum" attributeName="transform" begin="click" dur="3s" from="0 203.907130009007 203.90750004544947" to="360 203.907130009007 203.90750004544947" type="rotate"/>
    </path>
    <path d="M 353.985,203.905 C 389.13,182.91 401.034,137.526 380.493,101.951 C 359.953,66.376 314.699,53.994 278.946,73.934 C 278.336,33.001 244.985,0 203.907,0 C 162.828,0 129.476,33.001 128.868,73.937 C 93.114,53.997 47.858,66.38 27.319,101.957 C 6.78,137.531 18.683,182.915 53.83,203.908 C 18.684,224.903 6.78,270.287 27.32,305.862 C 47.86,341.438 93.116,353.82 128.87,333.879 C 129.477,374.815 162.83,407.817 203.909,407.815 C 244.989,407.815 278.339,374.813 278.947,333.879 C 314.701,353.818 359.958,341.436 380.495,305.858 C 401.035,270.282 389.13,224.898 353.985,203.905 Z M 203.907,272.65 C 165.941,272.65 135.163,241.873 135.163,203.906 S 165.941,135.162 203.907,135.162 C 241.872,135.162 272.651,165.939 272.651,203.906 S 241.873,272.65 203.907,272.65 Z" fill="#1b9fd8" opacity="1" stroke-width="0" transform=" scale(0.036781, 0.036781) translate(5206.466834, 4990.851220) rotate(0, 203, 203)">
      <animate attributeName="fill" begin="click" calcMode="linear" dur="10s" repeatCount="indefinite" values="#1b9fd8;#6dd6ff;#006ca1;#6dd6ff;#1b9fd8"/>
      <animateTransform additive="sum" attributeName="transform" begin="click" dur="3s" from="0 203.907130009007 203.90750004544947" to="360 203.907130009007 203.90750004544947" type="rotate"/>
    </path>
    <path d="M 353.985,203.905 C 389.13,182.91 401.034,137.526 380.493,101.951 C 359.953,66.376 314.699,53.994 278.946,73.934 C 278.336,33.001 244.985,0 203.907,0 C 162.828,0 129.476,33.001 128.868,73.937 C 93.114,53.997 47.858,66.38 27.319,101.957 C 6.78,137.531 18.683,182.915 53.83,203.908 C 18.684,224.903 6.78,270.287 27.32,305.862 C 47.86,341.438 93.116,353.82 128.87,333.879 C 129.477,374.815 162.83,407.817 203.909,407.815 C 244.989,407.815 278.339,374.813 278.947,333.879 C 314.701,353.818 359.958,341.436 380.495,305.858 C 401.035,270.282 389.13,224.898 353.985,203.905 Z M 203.907,272.65 C 165.941,272.65 135.163,241.873 135.163,203.906 S 165.941,135.162 203.907,135.162 C 241.872,135.162 272.651,165.939 272.651,203.906 S 241.873,272.65 203.907,272.65 Z" fill="#1b9fd8" opacity="1" stroke-width="0" transform=" scale(0.036781, 0.036781) translate(5622.148073, 4729.031243) rotate(0, 203, 203)">
      <animate attributeName="fill" begin="click" calcMode="linear" dur="10s" repeatCount="indefinite" values="#1b9fd8;#6dd6ff;#006ca1;#6dd6ff;#1b9fd8"/>
      <animateTransform additive="sum" attributeName="transform" begin="click" dur="3s" from="0 203.907130009007 203.90750004544947" to="360 203.907130009007 203.90750004544947" type="rotate"/>
    </path>
    <path d="M 353.985,203.905 C 389.13,182.91 401.034,137.526 380.493,101.951 C 359.953,66.376 314.699,53.994 278.946,73.934 C 278.336,33.001 244.985,0 203.907,0 C 162.828,0 129.476,33.001 128.868,73.937 C 93.114,53.997 47.858,66.38 27.319,101.957 C 6.78,137.531 18.683,182.915 53.83,203.908 C 18.684,224.903 6.78,270.287 27.32,305.862 C 47.86,341.438 93.116,353.82 128.87,333.879 C 129.477,374.815 162.83,407.817 203.909,407.815 C 244.989,407.815 278.339,374.813 278.947,333.879 C 314.701,353.818 359.958,341.436 380.495,305.858 C 401.035,270.282 389.13,224.898 353.985,203.905 Z M 203.907,272.65 C 165.941,272.65 135.163,241.873 135.163,203.906 S 165.941,135.162 203.907,135.162 C 241.872,135.162 272.651,165.939 272.651,203.906 S 241.873,272.65 203.907,272.65 Z" fill="#1b9fd8" opacity="1" stroke-width="0" transform=" scale(0.036781, 0.036781) translate(5870.093827, 4306.559799) rotate(0, 203, 203)">
      <animate attributeName="fill" begin="click" calcMode="linear" dur="10s" repeatCount="indefinite" values="#1b9fd8;#6dd6ff;#006ca1;#6dd6ff;#1b9fd8"/>
      <animateTransform additive="sum" attributeName="transform" begin="click" dur="3s" from="0 203.907130009007 203.90750004544947" to="360 203.907130009007 203.90750004544947" type="rotate"/>
    </path>
    <path d="M 353.985,203.905 C 389.13,182.91 401.034,137.526 380.493,101.951 C 359.953,66.376 314.699,53.994 278.946,73.934 C 278.336,33.001 244.985,0 203.907,0 C 162.828,0 129.476,33.001 128.868,73.937 C 93.114,53.997 47.858,66.38 27.319,101.957 C 6.78,137.531 18.683,182.915 53.83,203.908 C 18.684,224.903 6.78,270.287 27.32,305.862 C 47.86,341.438 93.116,353.82 128.87,333.879 C 129.477,374.815 162.83,407.817 203.909,407.815 C 244.989,407.815 278.339,374.813 278.947,333.879 C 314.701,353.818 359.958,341.436 380.495,305.858 C 401.035,270.282 389.13,224.898 353.985,203.905 Z M 203.907,272.65 C 165.941,272.65 135.163,241.873 135.163,203.906 S 165.941,135.162 203.907,135.162 C 241.872,135.162 272.651,165.939 272.651,203.906 S 241.873,272.65 203.907,272.65 Z" fill="#1b9fd8" opacity="1" stroke-width="0" transform=" scale(0.036781, 0.036781) translate(5879.375795, 3846.599910) rotate(0, 203, 203)">
      <animate attributeName="fill" begin="click" calcMode="linear" dur="10s" repeatCount="indefinite" values="#1b9fd8;#6dd6ff;#006ca1;#6dd6ff;#1b9fd8"/>
      <animateTransform additive="sum" attributeName="transform" begin="click" dur="3s" from="0 203.907130009007 203.90750004544947" to="360 203.907130009007 203.90750004544947" type="rotate"/>
    </path>
    <path d="M 353.985,203.905 C 389.13,182.91 401.034,137.526 380.493,101.951 C 359.953,66.376 314.699,53.994 278.946,73.934 C 278.336,33.001 244.985,0 203.907,0 C 162.828,0 129.476,33.001 128.868,73.937 C 93.114,53.997 47.858,66.38 27.319,101.957 C 6.78,137.531 18.683,182.915 53.83,203.908 C 18.684,224.903 6.78,270.287 27.32,305.862 C 47.86,341.438 93.116,353.82 128.87,333.879 C 129.477,374.815 162.83,407.817 203.909,407.815 C 244.989,407.815 278.339,374.813 278.947,333.879 C 314.701,353.818 359.958,341.436 380.495,305.858 C 401.035,270.282 389.13,224.898 353.985,203.905 Z M 203.907,272.65 C 165.941,272.65 135.163,241.873 135.163,203.906 S 165.941,135.162 203.907,135.162 C 241.872,135.162 272.651,165.939 272.651,203.906 S 241.873,272.65 203.907,272.65 Z" fill="#1b9fd8" opacity="1" stroke-width="0" transform=" scale(0.036781, 0.036781) translate(5664.845763, 3432.919968) rotate(0, 203, 203)">
      <animate attributeName="fill" begin="click" calcMode="linear" dur="10s" repeatCount="indefinite" values="#1b9fd8;#6dd6ff;#006ca1;#6dd6ff;#1b9fd8"/>
      <animateTransform additive="sum" attributeName="transform" begin="click" dur="3s" from="0 203.907130009007 203.90750004544947" to="360 203.907130009007 203.90750004544947" type="rotate"/>
    </path>
    <path d="M 353.985,203.905 C 389.13,182.91 401.034,137.526 380.493,101.951 C 359.953,66.376 314.699,53.994 278.946,73.934 C 278.336,33.001 244.985,0 203.907,0 C 162.828,0 129.476,33.001 128.868,73.937 C 93.114,53.997 47.858,66.38 27.319,101.957 C 6.78,137.531 18.683,182.915 53.83,203.908 C 18.684,224.903 6.78,270.287 27.32,305.862 C 47.86,341.438 93.116,353.82 128.87,333.879 C 129.477,374.815 162.83,407.817 203.909,407.815 C 244.989,407.815 278.339,374.813 278.947,333.879 C 314.701,353.818 359.958,341.436 380.495,305.858 C 401.035,270.282 389.13,224.898 353.985,203.905 Z M 203.907,272.65 C 165.941,272.65 135.163,241.873 135.163,203.906 S 165.941,135.162 203.907,135.162 C 241.872,135.162 272.651,165.939 272.651,203.906 S 241.873,272.65 203.907,272.65 Z" fill="#1b9fd8" opacity="1" stroke-width="0" transform=" scale(0.036781, 0.036781) translate(3051.120722, 4107.338852) rotate(0, 203, 203)">
      <animate attributeName="fill" begin="click" calcMode="linear" dur="10s" repeatCount="indefinite" values="#1b9fd8;#6dd6ff;#006ca1;#6dd6ff;#1b9fd8"/>
      <animateTransform additive="sum" attributeName="transform" begin="click" dur="3s" from="0 203.907130009007 203.90750004544947" to="360 203.907130009007 203.90750004544947" type="rotate"/>
    </path>
    <path d="M 353.985,203.905 C 389.13,182.91 401.034,137.526 380.493,101.951 C 359.953,66.376 314.699,53.994 278.946,73.934 C 278.336,33.001 244.985,0 203.907,0 C 162.828,0 129.476,33.001 128.868,73.937 C 93.114,53.997 47.858,66.38 27.319,101.957 C 6.78,137.531 18.683,182.915 53.83,203.908 C 18.684,224.903 6.78,270.287 27.32,305.862 C 47.86,341.438 93.116,353.82 128.87,333.879 C 129.477,374.815 162.83,407.817 203.909,407.815 C 244.989,407.815 278.339,374.813 278.947,333.879 C 314.701,353.818 359.958,341.436 380.495,305.858 C 401.035,270.282 389.13,224.898 353.985,203.905 Z M 203.907,272.65 C 165.941,272.65 135.163,241.873 135.163,203.906 S 165.941,135.162 203.907,135.162 C 241.872,135.162 272.651,165.939 272.651,203.906 S 241.873,272.65 203.907,272.65 Z" fill="#1b9fd8" opacity="1" stroke-width="0" transform=" scale(0.036781, 0.036781) translate(2583.171754, 3931.222384) rotate(0, 203, 203)">
      <animate attributeName="fill" begin="click" calcMode="linear" dur="10s" repeatCount="indefinite" values="#1b9fd8;#6dd6ff;#006ca1;#6dd6ff;#1b9fd8"/>
      <animateTransform additive="sum" attributeName="transform" begin="click" dur="3s" from="0 203.907130009007 203.90750004544947" to="360 203.907130009007 203.90750004544947" type="rotate"/>
    </path>
    <path d="M 353.985,203.905 C 389.13,182.91 401.034,137.526 380.493,101.951 C 359.953,66.376 314.699,53.994 278.946,73.934 C 278.336,33.001 244.985,0 203.907,0 C 162.828,0 129.476,33.001 128.868,73.937 C 93.114,53.997 47.858,66.38 27.319,101.957 C 6.78,137.531 18.683,182.915 53.83,203.908 C 18.684,224.903 6.78,270.287 27.32,305.862 C 47.86,341.438 93.116,353.82 128.87,333.879 C 129.477,374.815 162.83,407.817 203.909,407.815 C 244.989,407.815 278.339,374.813 278.947,333.879 C 314.701,353.818 359.958,341.436 380.495,305.858 C 401.035,270.282 389.13,224.898 353.985,203.905 Z M 203.907,272.65 C 165.941,272.65 135.163,241.873 135.163,203.906 S 165.941,135.162 203.907,135.162 C 241.872,135.162 272.651,165.939 272.651,203.906 S 241.873,272.65 203.907,272.65 Z" fill="#1b9fd8" opacity="1" stroke-width="0" transform=" scale(0.036781, 0.036781) translate(2272.014947, 3574.913125) rotate(0, 203, 203)">
      <animate attributeName="fill" begin="click" calcMode="linear" dur="10s" repeatCount="indefinite" values="#1b9fd8;#6dd6ff;#006ca1;#6dd6ff;#1b9fd8"/>
      <animateTransform additive="sum" attributeName="transform" begin="click" dur="3s" from="0 203.907130009007 203.90750004544947" to="360 203.907130009007 203.90750004544947" type="rotate"/>
    </path>
    <path d="M 353.985,203.905 C 389.13,182.91 401.034,137.526 380.493,101.951 C 359.953,66.376 314.699,53.994 278.946,73.934 C 278.336,33.001 244.985,0 203.907,0 C 162.828,0 129.476,33.001 128.868,73.937 C 93.114,53.997 47.858,66.38 27.319,101.957 C 6.78,137.531 18.683,182.915 53.83,203.908 C 18.684,224.903 6.78,270.287 27.32,305.862 C 47.86,341.438 93.116,353.82 128.87,333.879 C 129.477,374.815 162.83,407.817 203.909,407.815 C 244.989,407.815 278.339,374.813 278.947,333.879 C 314.701,353.818 359.958,341.436 380.495,305.858 C 401.035,270.282 389.13,224.898 353.985,203.905 Z M 203.907,272.65 C 165.941,272.65 135.163,241.873 135.163,203.906 S 165.941,135.162 203.907,135.162 C 241.872,135.162 272.651,165.939 272.651,203.906 S 241.873,272.65 203.907,272.65 Z" fill="#1b9fd8" opacity="1" stroke-width="0" transform=" scale(0.036781, 0.036781) translate(2189.223475, 3106.264457) rotate(0, 203, 203)">
      <animate attributeName="fill" begin="click" calcMode="linear" dur="10s" repeatCount="indefinite" values="#1b9fd8;#6dd6ff;#006ca1;#6dd6ff;#1b9fd8"/>
      <animateTransform additive="sum" attributeName="transform" begin="click" dur="3s" from="0 203.907130009007 203.90750004544947" to="360 203.907130009007 203.90750004544947" type="rotate"/>
    </path>
    <path d="M 353.985,203.905 C 389.13,182.91 401.034,137.526 380.493,101.951 C 359.953,66.376 314.699,53.994 278.946,73.934 C 278.336,33.001 244.985,0 203.907,0 C 162.828,0 129.476,33.001 128.868,73.937 C 93.114,53.997 47.858,66.38 27.319,101.957 C 6.78,137.531 18.683,182.915 53.83,203.908 C 18.684,224.903 6.78,270.287 27.32,305.862 C 47.86,341.438 93.116,353.82 128.87,333.879 C 129.477,374.815 162.83,407.817 203.909,407.815 C 244.989,407.815 278.339,374.813 278.947,333.879 C 314.701,353.818 359.958,341.436 380.495,305.858 C 401.035,270.282 389.13,224.898 353.985,203.905 Z M 203.907,272.65 C 165.941,272.65 135.163,241.873 135.163,203.906 S 165.941,135.162 203.907,135.162 C 241.872,135.162 272.651,165.939 272.651,203.906 S 241.873,272.65 203.907,272.65 Z" fill="#1b9fd8" opacity="1" stroke-width="0" transform=" scale(0.036781, 0.036781) translate(2366.797900, 2671.053301) rotate(0, 203, 203)">
      <animate attributeName="fill" begin="click" calcMode="linear" dur="10s" repeatCount="indefinite" values="#1b9fd8;#6dd6ff;#006ca1;#6dd6ff;#1b9fd8"/>
      <animateTransform additive="sum" attributeName="transform" begin="click" dur="3s" from="0 203.907130009007 203.90750004544947" to="360 203.907130009007 203.90750004544947" type="rotate"/>
    </path>
    <path d="M 353.985,203.905 C 389.13,182.91 401.034,137.526 380.493,101.951 C 359.953,66.376 314.699,53.994 278.946,73.934 C 278.336,33.001 244.985,0 203.907,0 C 162.828,0 129.476,33.001 128.868,73.937 C 93.114,53.997 47.858,66.38 27.319,101.957 C 6.78,137.531 18.683,182.915 53.83,203.908 C 18.684,224.903 6.78,270.287 27.32,305.862 C 47.86,341.438 93.116,353.82 128.87,333.879 C 129.477,374.815 162.83,407.817 203.909,407.815 C 244.989,407.815 278.339,374.813 278.947,333.879 C 314.701,353.818 359.958,341.436 380.495,305.858 C 401.035,270.282 389.13,224.898 353.985,203.905 Z M 203.907,272.65 C 165.941,272.65 135.163,241.873 135.163,203.906 S 165.941,135.162 203.907,135.162 C 241.872,135.162 272.651,165.939 272.651,203.906 S 241.873,272.65 203.907,272.65 Z" fill="#1b9fd8" opacity="1" stroke-width="0" transform=" scale(0.036781, 0.036781) translate(2745.744949, 2375.231754) rotate(0, 203, 203)">
      <animate attributeName="fill" begin="click" calcMode="linear" dur="10s" repeatCount="indefinite" values="#1b9fd8;#6dd6ff;#006ca1;#6dd6ff;#1b9fd8"/>
      <animateTransform additive="sum" attributeName="transform" begin="click" dur="3s" from="0 203.907130009007 203.90750004544947" to="360 203.907130009007 203.90750004544947" type="rotate"/>
    </path>
    <path d="M 353.985,203.905 C 389.13,182.91 401.034,137.526 380.493,101.951 C 359.953,66.376 314.699,53.994 278.946,73.934 C 278.336,33.001 244.985,0 203.907,0 C 162.828,0 129.476,33.001 128.868,73.937 C 93.114,53.997 47.858,66.38 27.319,101.957 C 6.78,137.531 18.683,182.915 53.83,203.908 C 18.684,224.903 6.78,270.287 27.32,305.862 C 47.86,341.438 93.116,353.82 128.87,333.879 C 129.477,374.815 162.83,407.817 203.909,407.815 C 244.989,407.815 278.339,374.813 278.947,333.879 C 314.701,353.818 359.958,341.436 380.495,305.858 C 401.035,270.282 389.13,224.898 353.985,203.905 Z M 203.907,272.65 C 165.941,272.65 135.163,241.873 135.163,203.906 S 165.941,135.162 203.907,135.162 C 241.872,135.162 272.651,165.939 272.651,203.906 S 241.873,272.65 203.907,272.65 Z" fill="#1b9fd8" opacity="1" stroke-width="0" transform=" scale(0.036781, 0.036781) translate(3253.261830, 2284.413064) rotate(0, 203, 203)">
      <animate attributeName="fill" begin="click" calcMode="linear" dur="10s" repeatCount="indefinite" values="#1b9fd8;#6dd6ff;#006ca1;#6dd6ff;#1b9fd8"/>
      <animateTransform additive="sum" attributeName="transform" begin="click" dur="3s" from="0 203.907130009007 203.90750004544947" to="360 203.907130009007 203.90750004544947" type="rotate"/>
    </path>
    <path d="M 353.985,203.905 C 389.13,182.91 401.034,137.526 380.493,101.951 C 359.953,66.376 314.699,53.994 278.946,73.934 C 278.336,33.001 244.985,0 203.907,0 C 162.828,0 129.476,33.001 128.868,73.937 C 93.114,53.997 47.858,66.38 27.319,101.957 C 6.78,137.531 18.683,182.915 53.83,203.908 C 18.684,224.903 6.78,270.287 27.32,305.862 C 47.86,341.438 93.116,353.82 128.87,333.879 C 129.477,374.815 162.83,407.817 203.909,407.815 C 244.989,407.815 278.339,374.813 278.947,333.879 C 314.701,353.818 359.958,341.436 380.495,305.858 C 401.035,270.282 389.13,224.898 353.985,203.905 Z M 203.907,272.65 C 165.941,272.65 135.163,241.873 135.163,203.906 S 165.941,135.162 203.907,135.162 C 241.872,135.162 272.651,165.939 272.651,203.906 S 241.873,272.65 203.907,272.65 Z" fill="#1b9fd8" opacity="1" stroke-width="0" transform=" scale(0.036781, 0.036781) translate(3735.894578, 2433.127311) rotate(0, 203, 203)">
      <animate attributeName="fill" begin="click" calcMode="linear" dur="10s" repeatCount="indefinite" values="#1b9fd8;#6dd6ff;#006ca1;#6dd6ff;#1b9fd8"/>
      <animateTransform additive="sum" attributeName="transform" begin="click" dur="3s" from="0 203.907130009007 203.90750004544947" to="360 203.907130009007 203.90750004544947" type="rotate"/>
    </path>
    <path d="M 353.985,203.905 C 389.13,182.91 401.034,137.526 380.493,101.951 C 359.953,66.376 314.699,53.994 278.946,73.934 C 278.336,33.001 244.985,0 203.907,0 C 162.828,0 129.476,33.001 128.868,73.937 C 93.114,53.997 47.858,66.38 27.319,101.957 C 6.78,137.531 18.683,182.915 53.83,203.908 C 18.684,224.903 6.78,270.287 27.32,305.862 C 47.86,341.438 93.116,353.82 128.87,333.879 C 129.477,374.815 162.83,407.817 203.909,407.815 C 244.989,407.815 278.339,374.813 278.947,333.879 C 314.701,353.818 359.958,341.436 380.495,305.858 C 401.035,270.282 389.13,224.898 353.985,203.905 Z M 203.907,272.65 C 165.941,272.65 135.163,241.873 135.163,203.906 S 165.941,135.162 203.907,135.162 C 241.872,135.162 272.651,165.939 272.651,203.906 S 241.873,272.65 203.907,272.65 Z" fill="#1b9fd8" opacity="1" stroke-width="0" transform=" scale(0.036781, 0.036781) translate(4070.794673, 2770.319902) rotate(0, 203, 203)">
      <animate attributeName="fill" begin="click" calcMode="linear" dur="10s" repeatCount="indefinite" values="#1b9fd8;#6dd6ff;#006ca1;#6dd6ff;#1b9fd8"/>
      <animateTransform additive="sum" attributeName="transform" begin="click" dur="3s" from="0 203.907130009007 203.90750004544947" to="360 203.907130009007 203.90750004544947" type="rotate"/>
    </path>
    <path d="M 353.985,203.905 C 389.13,182.91 401.034,137.526 380.493,101.951 C 359.953,66.376 314.699,53.994 278.946,73.934 C 278.336,33.001 244.985,0 203.907,0 C 162.828,0 129.476,33.001 128.868,73.937 C 93.114,53.997 47.858,66.38 27.319,101.957 C 6.78,137.531 18.683,182.915 53.83,203.908 C 18.684,224.903 6.78,270.287 27.32,305.862 C 47.86,341.438 93.116,353.82 128.87,333.879 C 129.477,374.815 162.83,407.817 203.909,407.815 C 244.989,407.815 278.339,374.813 278.947,333.879 C 314.701,353.818 359.958,341.436 380.495,305.858 C 401.035,270.282 389.13,224.898 353.985,203.905 Z M 203.907,272.65 C 165.941,272.65 135.163,241.873 135.163,203.906 S 165.941,135.162 203.907,135.162 C 241.872,135.162 272.651,165.939 272.651,203.906 S 241.873,272.65 203.907,272.65 Z" fill="#1b9fd8" opacity="1" stroke-width="0" transform=" scale(0.036781, 0.036781) translate(4186.223281, 3230.089138) rotate(0, 203, 203)">
      <animate attributeName="fill" begin="click" calcMode="linear" dur="10s" repeatCount="indefinite" values="#1b9fd8;#6dd6ff;#006ca1;#6dd6ff;#1b9fd8"/>
      <animateTransform additive="sum" attributeName="transform" begin="click" dur="3s" from="0 203.907130009007 203.90750004544947" to="360 203.907130009007 203.90750004544947" type="rotate"/>
    </path>
    <path d="M 353.985,203.905 C 389.13,182.91 401.034,137.526 380.493,101.951 C 359.953,66.376 314.699,53.994 278.946,73.934 C 278.336,33.001 244.985,0 203.907,0 C 162.828,0 129.476,33.001 128.868,73.937 C 93.114,53.997 47.858,66.38 27.319,101.957 C 6.78,137.531 18.683,182.915 53.83,203.908 C 18.684,224.903 6.78,270.287 27.32,305.862 C 47.86,341.438 93.116,353.82 128.87,333.879 C 129.477,374.815 162.83,407.817 203.909,407.815 C 244.989,407.815 278.339,374.813 278.947,333.879 C 314.701,353.818 359.958,341.436 380.495,305.858 C 401.035,270.282 389.13,224.898 353.985,203.905 Z M 203.907,272.65 C 165.941,272.65 135.163,241.873 135.163,203.906 S 165.941,135.162 203.907,135.162 C 241.872,135.162 272.651,165.939 272.651,203.906 S 241.873,272.65 203.907,272.65 Z" fill="#1b9fd8" opacity="1" stroke-width="0" transform=" scale(0.036781, 0.036781) translate(4039.154572, 3678.223355) rotate(0, 203, 203)">
      <animate attributeName="fill" begin="click" calcMode="linear" dur="10s" repeatCount="indefinite" values="#1b9fd8;#6dd6ff;#006ca1;#6dd6ff;#1b9fd8"/>
      <animateTransform additive="sum" attributeName="transform" begin="click" dur="3s" from="0 203.907130009007 203.90750004544947" to="360 203.907130009007 203.90750004544947" type="rotate"/>
    </path>
    <path d="M 353.985,203.905 C 389.13,182.91 401.034,137.526 380.493,101.951 C 359.953,66.376 314.699,53.994 278.946,73.934 C 278.336,33.001 244.985,0 203.907,0 C 162.828,0 129.476,33.001 128.868,73.937 C 93.114,53.997 47.858,66.38 27.319,101.957 C 6.78,137.531 18.683,182.915 53.83,203.908 C 18.684,224.903 6.78,270.287 27.32,305.862 C 47.86,341.438 93.116,353.82 128.87,333.879 C 129.477,374.815 162.83,407.817 203.909,407.815 C 244.989,407.815 278.339,374.813 278.947,333.879 C 314.701,353.818 359.958,341.436 380.495,305.858 C 401.035,270.282 389.13,224.898 353.985,203.905 Z M 203.907,272.65 C 165.941,272.65 135.163,241.873 135.163,203.906 S 165.941,135.162 203.907,135.162 C 241.872,135.162 272.651,165.939 272.651,203.906 S 241.873,272.65 203.907,272.65 Z" fill="#1b9fd8" opacity="1" stroke-width="0" transform=" scale(0.036781, 0.036781) translate(3681.661772, 3995.252502) rotate(0, 203, 203)">
      <animate attributeName="fill" begin="click" calcMode="linear" dur="10s" repeatCount="indefinite" values="#1b9fd8;#6dd6ff;#006ca1;#6dd6ff;#1b9fd8"/>
      <animateTransform additive="sum" attributeName="transform" begin="click" dur="3s" from="0 203.907130009007 203.90750004544947" to="360 203.907130009007 203.90750004544947" type="rotate"/>
    </path>
  </g>
</svg>
