<?xml version="1.0" encoding="utf-8" ?>
<svg xmlns="http://www.w3.org/2000/svg" xmlns:ev="http://www.w3.org/2001/xml-events" xmlns:xlink="http://www.w3.org/1999/xlink" baseProfile="full" height="250" version="1.1" width="250">
  <defs/>
  <g transform=" rotate(0, 125, 125)">
    <rect fill="white" height="250" width="250" x="0" y="0"/>
    <rect fill="dodgerblue" height="30" opacity="1" stroke-width="0" transform=" rotate(29, 25, 25)" width="3" x="23.5" y="10.0"/>
    <rect fill="dodgerblue" height="30" opacity="1" stroke-width="0" transform=" rotate(27, 65, 25)" width="3" x="63.5" y="10.0"/>
    <rect fill="dodgerblue" height="30" opacity="1" stroke-width="0" transform=" rotate(25, 105, 25)" width="3" x="103.5" y="10.0"/>
    <rect fill="dodgerblue" height="30" opacity="1" stroke-width="0" transform=" rotate(23, 145, 25)" width="3" x="143.5" y="10.0"/>
    <rect fill="dodgerblue" height="30" opacity="1" stroke-width="0" transform=" rotate(18, 185, 25)" width="3" x="183.5" y="10.0"/>
    <rect fill="dodgerblue" height="30" opacity="1" stroke-width="0" transform=" rotate(28, 225, 25)" width="3" x="223.5" y="10.0"/>
    <rect fill="dodgerblue" height="30" opacity="1" stroke-width="0" transform=" rotate(27, 25, 65)" width="3" x="23.5" y="50.0"/>
    <rect fill="dodgerblue" height="30" opacity="1" stroke-width="0" transform=" rotate(17, 65, 65)" width="3" x="63.5" y="50.0"/>
    <rect fill="dodgerblue" height="30" opacity="1" stroke-width="0" transform=" rotate(26, 105, 65)" width="3" x="103.5" y="50.0"/>
    <rect fill="dodgerblue" height="30" opacity="1" stroke-width="0" transform=" rotate(21, 145, 65)" width="3" x="143.5" y="50.0"/>
    <rect fill="dodgerblue" height="30" opacity="1" stroke-width="0" transform=" rotate(22, 185, 65)" width="3" x="183.5" y="50.0"/>
    <rect fill="dodgerblue" height="30" opacity="1" stroke-width="0" transform=" rotate(23, 225, 65)" width="3" x="223.5" y="50.0"/>
    <rect fill="dodgerblue" height="30" opacity="1" stroke-width="0" transform=" rotate(20, 25, 105)" width="3" x="23.5" y="90.0"/>
    <rect fill="dodgerblue" height="30" opacity="1" stroke-width="0" transform=" rotate(-30, 65, 105)" width="3" x="63.5" y="90.0"/>
    <rect fill="dodgerblue" height="30" opacity="1" stroke-width="0" transform=" rotate(17, 105, 105)" width="3" x="103.5" y="90.0"/>
    <rect fill="dodgerblue" height="30" opacity="1" stroke-width="0" transform=" rotate(22, 145, 105)" width="3" x="143.5" y="90.0"/>
    <rect fill="dodgerblue" height="30" opacity="1" stroke-width="0" transform=" rotate(20, 185, 105)" width="3" x="183.5" y="90.0"/>
    <rect fill="dodgerblue" height="30" opacity="1" stroke-width="0" transform=" rotate(18, 225, 105)" width="3" x="223.5" y="90.0"/>
    <rect fill="dodgerblue" height="30" opacity="1" stroke-width="0" transform=" rotate(24, 25, 145)" width="3" x="23.5" y="130.0"/>
    <rect fill="dodgerblue" height="30" opacity="1" stroke-width="0" transform=" rotate(20, 65, 145)" width="3" x="63.5" y="130.0"/>
    <rect fill="dodgerblue" height="30" opacity="1" stroke-width="0" transform=" rotate(28, 105, 145)" width="3" x="103.5" y="130.0"/>
    <rect fill="dodgerblue" height="30" opacity="1" stroke-width="0" transform=" rotate(16, 145, 145)" width="3" x="143.5" y="130.0"/>
    <rect fill="dodgerblue" height="30" opacity="1" stroke-width="0" transform=" rotate(17, 185, 145)" width="3" x="183.5" y="130.0"/>
    <rect fill="dodgerblue" height="30" opacity="1" stroke-width="0" transform=" rotate(19, 225, 145)" width="3" x="223.5" y="130.0"/>
    <rect fill="dodgerblue" height="30" opacity="1" stroke-width="0" transform=" rotate(24, 25, 185)" width="3" x="23.5" y="170.0"/>
    <rect fill="dodgerblue" height="30" opacity="1" stroke-width="0" transform=" rotate(16, 65, 185)" width="3" x="63.5" y="170.0"/>
    <rect fill="dodgerblue" height="30" opacity="1" stroke-width="0" transform=" rotate(23, 105, 185)" width="3" x="103.5" y="170.0"/>
    <rect fill="dodgerblue" height="30" opacity="1" stroke-width="0" transform=" rotate(25, 145, 185)" width="3" x="143.5" y="170.0"/>
    <rect fill="dodgerblue" height="30" opacity="1" stroke-width="0" transform=" rotate(26, 185, 185)" width="3" x="183.5" y="170.0"/>
    <rect fill="dodgerblue" height="30" opacity="1" stroke-width="0" transform=" rotate(15, 225, 185)" width="3" x="223.5" y="170.0"/>
    <rect fill="dodgerblue" height="30" opacity="1" stroke-width="0" transform=" rotate(29, 25, 225)" width="3" x="23.5" y="210.0"/>
    <rect fill="dodgerblue" height="30" opacity="1" stroke-width="0" transform=" rotate(21, 65, 225)" width="3" x="63.5" y="210.0"/>
    <rect fill="dodgerblue" height="30" opacity="1" stroke-width="0" transform=" rotate(19, 105, 225)" width="3" x="103.5" y="210.0"/>
    <rect fill="dodgerblue" height="30" opacity="1" stroke-width="0" transform=" rotate(15, 145, 225)" width="3" x="143.5" y="210.0"/>
    <rect fill="dodgerblue" height="30" opacity="1" stroke-width="0" transform=" rotate(29, 185, 225)" width="3" x="183.5" y="210.0"/>
    <rect fill="dodgerblue" height="30" opacity="1" stroke-width="0" transform=" rotate(15, 225, 225)" width="3" x="223.5" y="210.0"/>
  </g>
</svg>
