<?xml version="1.0" encoding="utf-8" ?>
<svg xmlns="http://www.w3.org/2000/svg" xmlns:ev="http://www.w3.org/2001/xml-events" xmlns:xlink="http://www.w3.org/1999/xlink" baseProfile="full" height="250" version="1.1" width="250">
  <defs/>
  <g transform=" rotate(0, 125, 125)">
    <rect fill="white" height="250" width="250" x="0" y="0"/>
    <path d="M 256,0 C 114.615,0 0,114.615 0,256 S 114.615,512 256,512 S 512,397.385 512,256 S 397.385,0 256,0 Z M 208,416 L 102,278 L 149,229 L 208,304 L 393,153 L 416,176 L 208,416 Z" fill="dodgerblue" opacity="1" stroke-width="0" transform=" scale(0.068359, 0.068359) translate(109.714286, 109.714286) rotate(0, 256, 256)"/>
    <path d="M 256,0 C 114.615,0 0,114.615 0,256 S 114.615,512 256,512 S 512,397.385 512,256 S 397.385,0 256,0 Z M 208,416 L 102,278 L 149,229 L 208,304 L 393,153 L 416,176 L 208,416 Z" fill="dodgerblue" opacity="1" stroke-width="0" transform=" scale(0.068359, 0.068359) translate(694.857143, 109.714286) rotate(0, 256, 256)"/>
    <path d="M 256,0 C 114.615,0 0,114.615 0,256 S 114.615,512 256,512 S 512,397.385 512,256 S 397.385,0 256,0 Z M 208,416 L 102,278 L 149,229 L 208,304 L 393,153 L 416,176 L 208,416 Z" fill="dodgerblue" opacity="1" stroke-width="0" transform=" scale(0.068359, 0.068359) translate(1280.000000, 109.714286) rotate(0, 256, 256)"/>
    <path d="M 256,0 C 114.615,0 0,114.615 0,256 S 114.615,512 256,512 S 512,397.385 512,256 S 397.385,0 256,0 Z M 208,416 L 102,278 L 149,229 L 208,304 L 393,153 L 416,176 L 208,416 Z" fill="dodgerblue" opacity="1" stroke-width="0" transform=" scale(0.068359, 0.068359) translate(1865.142857, 109.714286) rotate(0, 256, 256)"/>
    <path d="M 256,0 C 114.615,0 0,114.615 0,256 S 114.615,512 256,512 S 512,397.385 512,256 S 397.385,0 256,0 Z M 208,416 L 102,278 L 149,229 L 208,304 L 393,153 L 416,176 L 208,416 Z" fill="dodgerblue" opacity="1" stroke-width="0" transform=" scale(0.068359, 0.068359) translate(2450.285714, 109.714286) rotate(0, 256, 256)"/>
    <path d="M 256,0 C 114.615,0 0,114.615 0,256 S 114.615,512 256,512 S 512,397.385 512,256 S 397.385,0 256,0 Z M 208,416 L 102,278 L 149,229 L 208,304 L 393,153 L 416,176 L 208,416 Z" fill="dodgerblue" opacity="1" stroke-width="0" transform=" scale(0.068359, 0.068359) translate(3035.428571, 109.714286) rotate(0, 256, 256)"/>
    <path d="M 256,0 C 114.615,0 0,114.615 0,256 S 114.615,512 256,512 S 512,397.385 512,256 S 397.385,0 256,0 Z M 208,416 L 102,278 L 149,229 L 208,304 L 393,153 L 416,176 L 208,416 Z" fill="dodgerblue" opacity="1" stroke-width="0" transform=" scale(0.068359, 0.068359) translate(109.714286, 694.857143) rotate(0, 256, 256)"/>
    <path d="M 256,0 C 114.615,0 0,114.615 0,256 S 114.615,512 256,512 S 512,397.385 512,256 S 397.385,0 256,0 Z M 208,416 L 102,278 L 149,229 L 208,304 L 393,153 L 416,176 L 208,416 Z" fill="dodgerblue" opacity="1" stroke-width="0" transform=" scale(0.068359, 0.068359) translate(694.857143, 694.857143) rotate(0, 256, 256)"/>
    <path d="M 256,0 C 114.615,0 0,114.615 0,256 S 114.615,512 256,512 S 512,397.385 512,256 S 397.385,0 256,0 Z M 208,416 L 102,278 L 149,229 L 208,304 L 393,153 L 416,176 L 208,416 Z" fill="dodgerblue" opacity="1" stroke-width="0" transform=" scale(0.068359, 0.068359) translate(1280.000000, 694.857143) rotate(0, 256, 256)"/>
    <path d="M 256,0 C 114.615,0 0,114.615 0,256 S 114.615,512 256,512 S 512,397.385 512,256 S 397.385,0 256,0 Z M 208,416 L 102,278 L 149,229 L 208,304 L 393,153 L 416,176 L 208,416 Z" fill="dodgerblue" opacity="1" stroke-width="0" transform=" scale(0.068359, 0.068359) translate(1865.142857, 694.857143) rotate(0, 256, 256)"/>
    <path d="M 256,0 C 114.615,0 0,114.615 0,256 S 114.615,512 256,512 S 512,397.385 512,256 S 397.385,0 256,0 Z M 208,416 L 102,278 L 149,229 L 208,304 L 393,153 L 416,176 L 208,416 Z" fill="dodgerblue" opacity="1" stroke-width="0" transform=" scale(0.068359, 0.068359) translate(2450.285714, 694.857143) rotate(0, 256, 256)"/>
    <path d="M 256,0 C 114.615,0 0,114.615 0,256 S 114.615,512 256,512 S 512,397.385 512,256 S 397.385,0 256,0 Z M 208,416 L 102,278 L 149,229 L 208,304 L 393,153 L 416,176 L 208,416 Z" fill="dodgerblue" opacity="1" stroke-width="0" transform=" scale(0.068359, 0.068359) translate(3035.428571, 694.857143) rotate(0, 256, 256)"/>
    <path d="M 256,0 C 114.615,0 0,114.615 0,256 S 114.615,512 256,512 S 512,397.385 512,256 S 397.385,0 256,0 Z M 208,416 L 102,278 L 149,229 L 208,304 L 393,153 L 416,176 L 208,416 Z" fill="dodgerblue" opacity="1" stroke-width="0" transform=" scale(0.068359, 0.068359) translate(109.714286, 1280.000000) rotate(0, 256, 256)"/>
    <path d="M 256,0 C 114.615,0 0,114.615 0,256 S 114.615,512 256,512 S 512,397.385 512,256 S 397.385,0 256,0 Z M 208,416 L 102,278 L 149,229 L 208,304 L 393,153 L 416,176 L 208,416 Z" fill="dodgerblue" opacity="1" stroke-width="0" transform=" scale(0.068359, 0.068359) translate(694.857143, 1280.000000) rotate(0, 256, 256)"/>
    <path d="M 256,0 C 114.615,0 0,114.615 0,256 S 114.615,512 256,512 S 512,397.385 512,256 S 397.385,0 256,0 Z M 208,416 L 102,278 L 149,229 L 208,304 L 393,153 L 416,176 L 208,416 Z" fill="dodgerblue" opacity="1" stroke-width="0" transform=" scale(0.068359, 0.068359) translate(1280.000000, 1280.000000) rotate(0, 256, 256)"/>
    <path d="M 256,0 C 114.615,0 0,114.615 0,256 S 114.615,512 256,512 S 512,397.385 512,256 S 397.385,0 256,0 Z M 208,416 L 102,278 L 149,229 L 208,304 L 393,153 L 416,176 L 208,416 Z" fill="dodgerblue" opacity="1" stroke-width="0" transform=" scale(0.068359, 0.068359) translate(1865.142857, 1280.000000) rotate(0, 256, 256)"/>
    <path d="M 256,0 C 114.615,0 0,114.615 0,256 S 114.615,512 256,512 S 512,397.385 512,256 S 397.385,0 256,0 Z M 208,416 L 102,278 L 149,229 L 208,304 L 393,153 L 416,176 L 208,416 Z" fill="dodgerblue" opacity="1" stroke-width="0" transform=" scale(0.068359, 0.068359) translate(2450.285714, 1280.000000) rotate(0, 256, 256)"/>
    <path d="M 256,0 C 114.615,0 0,114.615 0,256 S 114.615,512 256,512 S 512,397.385 512,256 S 397.385,0 256,0 Z M 208,416 L 102,278 L 149,229 L 208,304 L 393,153 L 416,176 L 208,416 Z" fill="dodgerblue" opacity="1" stroke-width="0" transform=" scale(0.068359, 0.068359) translate(3035.428571, 1280.000000) rotate(0, 256, 256)"/>
    <path d="M 256,0 C 114.615,0 0,114.615 0,256 S 114.615,512 256,512 S 512,397.385 512,256 S 397.385,0 256,0 Z M 208,416 L 102,278 L 149,229 L 208,304 L 393,153 L 416,176 L 208,416 Z" fill="dodgerblue" opacity="1" stroke-width="0" transform=" scale(0.068359, 0.068359) translate(109.714286, 1865.142857) rotate(0, 256, 256)"/>
    <path d="M 256,0 C 114.615,0 0,114.615 0,256 S 114.615,512 256,512 S 512,397.385 512,256 S 397.385,0 256,0 Z M 208,416 L 102,278 L 149,229 L 208,304 L 393,153 L 416,176 L 208,416 Z" fill="dodgerblue" opacity="1" stroke-width="0" transform=" scale(0.068359, 0.068359) translate(694.857143, 1865.142857) rotate(0, 256, 256)"/>
    <path d="M 256,0 C 114.615,0 0,114.615 0,256 S 114.615,512 256,512 S 512,397.385 512,256 S 397.385,0 256,0 Z M 208,416 L 102,278 L 149,229 L 208,304 L 393,153 L 416,176 L 208,416 Z" fill="dodgerblue" opacity="1" stroke-width="0" transform=" scale(0.068359, 0.068359) translate(1280.000000, 1865.142857) rotate(0, 256, 256)"/>
    <path d="M 256,0 C 114.615,0 0,114.615 0,256 S 114.615,512 256,512 S 512,397.385 512,256 S 397.385,0 256,0 Z M 208,416 L 102,278 L 149,229 L 208,304 L 393,153 L 416,176 L 208,416 Z" fill="dodgerblue" opacity="1" stroke-width="0" transform=" scale(0.068359, 0.068359) translate(1865.142857, 1865.142857) rotate(0, 256, 256)"/>
    <path d="M 256,0 C 114.615,0 0,114.615 0,256 S 114.615,512 256,512 S 512,397.385 512,256 S 397.385,0 256,0 Z M 208,416 L 102,278 L 149,229 L 208,304 L 393,153 L 416,176 L 208,416 Z" fill="dodgerblue" opacity="1" stroke-width="0" transform=" scale(0.068359, 0.068359) translate(2450.285714, 1865.142857) rotate(0, 256, 256)"/>
    <path d="M 256,0 C 114.615,0 0,114.615 0,256 S 114.615,512 256,512 S 512,397.385 512,256 S 397.385,0 256,0 Z M 208,416 L 102,278 L 149,229 L 208,304 L 393,153 L 416,176 L 208,416 Z" fill="dodgerblue" opacity="1" stroke-width="0" transform=" scale(0.068359, 0.068359) translate(3035.428571, 1865.142857) rotate(0, 256, 256)"/>
    <path d="M 256,0 C 114.615,0 0,114.615 0,256 S 114.615,512 256,512 S 512,397.385 512,256 S 397.385,0 256,0 Z M 208,416 L 102,278 L 149,229 L 208,304 L 393,153 L 416,176 L 208,416 Z" fill="dodgerblue" opacity="1" stroke-width="0" transform=" scale(0.068359, 0.068359) translate(109.714286, 2450.285714) rotate(0, 256, 256)"/>
    <path d="M 256,0 C 114.615,0 0,114.615 0,256 S 114.615,512 256,512 S 512,397.385 512,256 S 397.385,0 256,0 Z M 208,416 L 102,278 L 149,229 L 208,304 L 393,153 L 416,176 L 208,416 Z" fill="dodgerblue" opacity="1" stroke-width="0" transform=" scale(0.068359, 0.068359) translate(694.857143, 2450.285714) rotate(0, 256, 256)"/>
    <path d="M 256,0 C 114.615,0 0,114.615 0,256 S 114.615,512 256,512 S 512,397.385 512,256 S 397.385,0 256,0 Z M 208,416 L 102,278 L 149,229 L 208,304 L 393,153 L 416,176 L 208,416 Z" fill="dodgerblue" opacity="1" stroke-width="0" transform=" scale(0.068359, 0.068359) translate(1280.000000, 2450.285714) rotate(0, 256, 256)"/>
    <path d="M 256,0 C 114.615,0 0,114.615 0,256 S 114.615,512 256,512 S 512,397.385 512,256 S 397.385,0 256,0 Z M 208,416 L 102,278 L 149,229 L 208,304 L 393,153 L 416,176 L 208,416 Z" fill="dodgerblue" opacity="1" stroke-width="0" transform=" scale(0.068359, 0.068359) translate(1865.142857, 2450.285714) rotate(180, 256, 256)"/>
    <path d="M 256,0 C 114.615,0 0,114.615 0,256 S 114.615,512 256,512 S 512,397.385 512,256 S 397.385,0 256,0 Z M 208,416 L 102,278 L 149,229 L 208,304 L 393,153 L 416,176 L 208,416 Z" fill="dodgerblue" opacity="1" stroke-width="0" transform=" scale(0.068359, 0.068359) translate(2450.285714, 2450.285714) rotate(0, 256, 256)"/>
    <path d="M 256,0 C 114.615,0 0,114.615 0,256 S 114.615,512 256,512 S 512,397.385 512,256 S 397.385,0 256,0 Z M 208,416 L 102,278 L 149,229 L 208,304 L 393,153 L 416,176 L 208,416 Z" fill="dodgerblue" opacity="1" stroke-width="0" transform=" scale(0.068359, 0.068359) translate(3035.428571, 2450.285714) rotate(0, 256, 256)"/>
    <path d="M 256,0 C 114.615,0 0,114.615 0,256 S 114.615,512 256,512 S 512,397.385 512,256 S 397.385,0 256,0 Z M 208,416 L 102,278 L 149,229 L 208,304 L 393,153 L 416,176 L 208,416 Z" fill="dodgerblue" opacity="1" stroke-width="0" transform=" scale(0.068359, 0.068359) translate(109.714286, 3035.428571) rotate(0, 256, 256)"/>
    <path d="M 256,0 C 114.615,0 0,114.615 0,256 S 114.615,512 256,512 S 512,397.385 512,256 S 397.385,0 256,0 Z M 208,416 L 102,278 L 149,229 L 208,304 L 393,153 L 416,176 L 208,416 Z" fill="dodgerblue" opacity="1" stroke-width="0" transform=" scale(0.068359, 0.068359) translate(694.857143, 3035.428571) rotate(0, 256, 256)"/>
    <path d="M 256,0 C 114.615,0 0,114.615 0,256 S 114.615,512 256,512 S 512,397.385 512,256 S 397.385,0 256,0 Z M 208,416 L 102,278 L 149,229 L 208,304 L 393,153 L 416,176 L 208,416 Z" fill="dodgerblue" opacity="1" stroke-width="0" transform=" scale(0.068359, 0.068359) translate(1280.000000, 3035.428571) rotate(0, 256, 256)"/>
    <path d="M 256,0 C 114.615,0 0,114.615 0,256 S 114.615,512 256,512 S 512,397.385 512,256 S 397.385,0 256,0 Z M 208,416 L 102,278 L 149,229 L 208,304 L 393,153 L 416,176 L 208,416 Z" fill="dodgerblue" opacity="1" stroke-width="0" transform=" scale(0.068359, 0.068359) translate(1865.142857, 3035.428571) rotate(0, 256, 256)"/>
    <path d="M 256,0 C 114.615,0 0,114.615 0,256 S 114.615,512 256,512 S 512,397.385 512,256 S 397.385,0 256,0 Z M 208,416 L 102,278 L 149,229 L 208,304 L 393,153 L 416,176 L 208,416 Z" fill="dodgerblue" opacity="1" stroke-width="0" transform=" scale(0.068359, 0.068359) translate(2450.285714, 3035.428571) rotate(0, 256, 256)"/>
    <path d="M 256,0 C 114.615,0 0,114.615 0,256 S 114.615,512 256,512 S 512,397.385 512,256 S 397.385,0 256,0 Z M 208,416 L 102,278 L 149,229 L 208,304 L 393,153 L 416,176 L 208,416 Z" fill="dodgerblue" opacity="1" stroke-width="0" transform=" scale(0.068359, 0.068359) translate(3035.428571, 3035.428571) rotate(0, 256, 256)"/>
  </g>
</svg>
