<?xml version='1.0' encoding='ASCII' standalone='yes'?>
<svg xmlns="http://www.w3.org/2000/svg" xmlns:xlink="http://www.w3.org/1999/xlink" version="1.1" width="125.0px" viewBox="0 0 125.0 125.0" height="125.0px">
  <g>
    <g transform="translate(0, 0) scale(0.5 0.5) "><defs/>
  <g transform=" rotate(0, 125, 125)">
    <rect fill="white" height="250" width="250" x="0" y="0"/>
    <rect fill="#32cd32" height="15" opacity="1" stroke-width="0" transform=" rotate(0, 29, 29)" width="15" x="21.5" y="21.5"/>
    <ellipse cx="53.0" cy="29.0" fill="#35ca50" opacity="1" rx="7.5" ry="7.5" stroke-width="0" transform=" rotate(0, 53, 29)"/>
    <rect fill="#37c76b" height="15" opacity="1" stroke-width="0" transform=" rotate(0, 77, 29)" width="15" x="69.5" y="21.5"/>
    <ellipse cx="101.0" cy="29.0" fill="#3ac485" opacity="1" rx="7.5" ry="7.5" stroke-width="0" transform=" rotate(0, 101, 29)"/>
    <rect fill="#3cc09c" height="15" opacity="1" stroke-width="0" transform=" rotate(0, 125, 29)" width="15" x="117.5" y="21.5"/>
    <ellipse cx="149.0" cy="29.0" fill="#3fbdb2" opacity="1" rx="7.5" ry="7.5" stroke-width="0" transform=" rotate(0, 149, 29)"/>
    <rect fill="#41afba" height="15" opacity="1" stroke-width="0" transform=" rotate(0, 173, 29)" width="15" x="165.5" y="21.5"/>
    <ellipse cx="197.0" cy="29.0" fill="#4498b7" opacity="1" rx="7.5" ry="7.5" stroke-width="0" transform=" rotate(0, 197, 29)"/>
    <rect fill="#4682b4" height="15" opacity="1" stroke-width="0" transform=" rotate(0, 221, 29)" width="15" x="213.5" y="21.5"/>
    <ellipse cx="29.0" cy="53.0" fill="#32cd32" opacity="1" rx="7.5" ry="7.5" stroke-width="0" transform=" rotate(0, 29, 53)"/>
    <rect fill="#35ca50" height="15" opacity="1" stroke-width="0" transform=" rotate(0, 53, 53)" width="15" x="45.5" y="45.5"/>
    <ellipse cx="77.0" cy="53.0" fill="#37c76b" opacity="1" rx="7.5" ry="7.5" stroke-width="0" transform=" rotate(0, 77, 53)"/>
    <rect fill="#3ac485" height="15" opacity="1" stroke-width="0" transform=" rotate(0, 101, 53)" width="15" x="93.5" y="45.5"/>
    <ellipse cx="125.0" cy="53.0" fill="#3cc09c" opacity="1" rx="7.5" ry="7.5" stroke-width="0" transform=" rotate(0, 125, 53)"/>
    <rect fill="#3fbdb2" height="15" opacity="1" stroke-width="0" transform=" rotate(0, 149, 53)" width="15" x="141.5" y="45.5"/>
    <ellipse cx="173.0" cy="53.0" fill="#41afba" opacity="1" rx="7.5" ry="7.5" stroke-width="0" transform=" rotate(0, 173, 53)"/>
    <rect fill="#4498b7" height="15" opacity="1" stroke-width="0" transform=" rotate(0, 197, 53)" width="15" x="189.5" y="45.5"/>
    <ellipse cx="221.0" cy="53.0" fill="#4682b4" opacity="1" rx="7.5" ry="7.5" stroke-width="0" transform=" rotate(0, 221, 53)"/>
    <rect fill="#32cd32" height="15" opacity="1" stroke-width="0" transform=" rotate(0, 29, 77)" width="15" x="21.5" y="69.5"/>
    <ellipse cx="53.0" cy="77.0" fill="#35ca50" opacity="1" rx="7.5" ry="7.5" stroke-width="0" transform=" rotate(0, 53, 77)"/>
    <rect fill="#37c76b" height="15" opacity="1" stroke-width="0" transform=" rotate(0, 77, 77)" width="15" x="69.5" y="69.5"/>
    <ellipse cx="101.0" cy="77.0" fill="#3ac485" opacity="1" rx="7.5" ry="7.5" stroke-width="0" transform=" rotate(0, 101, 77)"/>
    <rect fill="#3cc09c" height="15" opacity="1" stroke-width="0" transform=" rotate(0, 125, 77)" width="15" x="117.5" y="69.5"/>
    <ellipse cx="149.0" cy="77.0" fill="#3fbdb2" opacity="1" rx="7.5" ry="7.5" stroke-width="0" transform=" rotate(0, 149, 77)"/>
    <rect fill="#41afba" height="15" opacity="1" stroke-width="0" transform=" rotate(0, 173, 77)" width="15" x="165.5" y="69.5"/>
    <ellipse cx="197.0" cy="77.0" fill="#4498b7" opacity="1" rx="7.5" ry="7.5" stroke-width="0" transform=" rotate(0, 197, 77)"/>
    <rect fill="#4682b4" height="15" opacity="1" stroke-width="0" transform=" rotate(0, 221, 77)" width="15" x="213.5" y="69.5"/>
    <ellipse cx="29.0" cy="101.0" fill="#32cd32" opacity="1" rx="7.5" ry="7.5" stroke-width="0" transform=" rotate(0, 29, 101)"/>
    <rect fill="#35ca50" height="15" opacity="1" stroke-width="0" transform=" rotate(0, 53, 101)" width="15" x="45.5" y="93.5"/>
    <ellipse cx="77.0" cy="101.0" fill="#37c76b" opacity="1" rx="7.5" ry="7.5" stroke-width="0" transform=" rotate(0, 77, 101)"/>
    <rect fill="#3ac485" height="15" opacity="1" stroke-width="0" transform=" rotate(0, 101, 101)" width="15" x="93.5" y="93.5"/>
    <ellipse cx="125.0" cy="101.0" fill="#3cc09c" opacity="1" rx="7.5" ry="7.5" stroke-width="0" transform=" rotate(0, 125, 101)"/>
    <rect fill="#3fbdb2" height="15" opacity="1" stroke-width="0" transform=" rotate(0, 149, 101)" width="15" x="141.5" y="93.5"/>
    <ellipse cx="173.0" cy="101.0" fill="#41afba" opacity="1" rx="7.5" ry="7.5" stroke-width="0" transform=" rotate(0, 173, 101)"/>
    <rect fill="#4498b7" height="15" opacity="1" stroke-width="0" transform=" rotate(0, 197, 101)" width="15" x="189.5" y="93.5"/>
    <ellipse cx="221.0" cy="101.0" fill="#4682b4" opacity="1" rx="7.5" ry="7.5" stroke-width="0" transform=" rotate(0, 221, 101)"/>
    <rect fill="#32cd32" height="15" opacity="1" stroke-width="0" transform=" rotate(0, 29, 125)" width="15" x="21.5" y="117.5"/>
    <ellipse cx="53.0" cy="125.0" fill="#35ca50" opacity="1" rx="7.5" ry="7.5" stroke-width="0" transform=" rotate(0, 53, 125)"/>
    <rect fill="#37c76b" height="15" opacity="1" stroke-width="0" transform=" rotate(0, 77, 125)" width="15" x="69.5" y="117.5"/>
    <ellipse cx="101.0" cy="125.0" fill="#3ac485" opacity="1" rx="7.5" ry="7.5" stroke-width="0" transform=" rotate(0, 101, 125)"/>
    <rect fill="#3cc09c" height="15" opacity="1" stroke-width="0" transform=" rotate(0, 125, 125)" width="15" x="117.5" y="117.5"/>
    <ellipse cx="149.0" cy="125.0" fill="#3fbdb2" opacity="1" rx="7.5" ry="7.5" stroke-width="0" transform=" rotate(0, 149, 125)"/>
    <rect fill="#41afba" height="15" opacity="1" stroke-width="0" transform=" rotate(0, 173, 125)" width="15" x="165.5" y="117.5"/>
    <ellipse cx="197.0" cy="125.0" fill="#4498b7" opacity="1" rx="7.5" ry="7.5" stroke-width="0" transform=" rotate(0, 197, 125)"/>
    <rect fill="#4682b4" height="15" opacity="1" stroke-width="0" transform=" rotate(0, 221, 125)" width="15" x="213.5" y="117.5"/>
    <ellipse cx="29.0" cy="149.0" fill="#32cd32" opacity="1" rx="7.5" ry="7.5" stroke-width="0" transform=" rotate(0, 29, 149)"/>
    <rect fill="#35ca50" height="15" opacity="1" stroke-width="0" transform=" rotate(0, 53, 149)" width="15" x="45.5" y="141.5"/>
    <ellipse cx="77.0" cy="149.0" fill="#37c76b" opacity="1" rx="7.5" ry="7.5" stroke-width="0" transform=" rotate(0, 77, 149)"/>
    <rect fill="#3ac485" height="15" opacity="1" stroke-width="0" transform=" rotate(0, 101, 149)" width="15" x="93.5" y="141.5"/>
    <ellipse cx="125.0" cy="149.0" fill="#3cc09c" opacity="1" rx="7.5" ry="7.5" stroke-width="0" transform=" rotate(0, 125, 149)"/>
    <rect fill="#3fbdb2" height="15" opacity="1" stroke-width="0" transform=" rotate(0, 149, 149)" width="15" x="141.5" y="141.5"/>
    <ellipse cx="173.0" cy="149.0" fill="#41afba" opacity="1" rx="7.5" ry="7.5" stroke-width="0" transform=" rotate(0, 173, 149)"/>
    <rect fill="#4498b7" height="15" opacity="1" stroke-width="0" transform=" rotate(0, 197, 149)" width="15" x="189.5" y="141.5"/>
    <ellipse cx="221.0" cy="149.0" fill="#4682b4" opacity="1" rx="7.5" ry="7.5" stroke-width="0" transform=" rotate(0, 221, 149)"/>
    <rect fill="#32cd32" height="15" opacity="1" stroke-width="0" transform=" rotate(0, 29, 173)" width="15" x="21.5" y="165.5"/>
    <ellipse cx="53.0" cy="173.0" fill="#35ca50" opacity="1" rx="7.5" ry="7.5" stroke-width="0" transform=" rotate(0, 53, 173)"/>
    <rect fill="#37c76b" height="15" opacity="1" stroke-width="0" transform=" rotate(0, 77, 173)" width="15" x="69.5" y="165.5"/>
    <ellipse cx="101.0" cy="173.0" fill="#3ac485" opacity="1" rx="7.5" ry="7.5" stroke-width="0" transform=" rotate(0, 101, 173)"/>
    <rect fill="#3cc09c" height="15" opacity="1" stroke-width="0" transform=" rotate(0, 125, 173)" width="15" x="117.5" y="165.5"/>
    <ellipse cx="149.0" cy="173.0" fill="#3fbdb2" opacity="1" rx="7.5" ry="7.5" stroke-width="0" transform=" rotate(0, 149, 173)"/>
    <rect fill="#41afba" height="15" opacity="1" stroke-width="0" transform=" rotate(0, 173, 173)" width="15" x="165.5" y="165.5"/>
    <ellipse cx="197.0" cy="173.0" fill="#4498b7" opacity="1" rx="7.5" ry="7.5" stroke-width="0" transform=" rotate(0, 197, 173)"/>
    <rect fill="#4682b4" height="15" opacity="1" stroke-width="0" transform=" rotate(0, 221, 173)" width="15" x="213.5" y="165.5"/>
    <ellipse cx="29.0" cy="197.0" fill="#32cd32" opacity="1" rx="7.5" ry="7.5" stroke-width="0" transform=" rotate(0, 29, 197)"/>
    <rect fill="#35ca50" height="15" opacity="1" stroke-width="0" transform=" rotate(0, 53, 197)" width="15" x="45.5" y="189.5"/>
    <ellipse cx="77.0" cy="197.0" fill="#37c76b" opacity="1" rx="7.5" ry="7.5" stroke-width="0" transform=" rotate(0, 77, 197)"/>
    <rect fill="#3ac485" height="15" opacity="1" stroke-width="0" transform=" rotate(0, 101, 197)" width="15" x="93.5" y="189.5"/>
    <ellipse cx="125.0" cy="197.0" fill="#3cc09c" opacity="1" rx="7.5" ry="7.5" stroke-width="0" transform=" rotate(0, 125, 197)"/>
    <rect fill="#3fbdb2" height="15" opacity="1" stroke-width="0" transform=" rotate(0, 149, 197)" width="15" x="141.5" y="189.5"/>
    <ellipse cx="173.0" cy="197.0" fill="#41afba" opacity="1" rx="7.5" ry="7.5" stroke-width="0" transform=" rotate(0, 173, 197)"/>
    <rect fill="#4498b7" height="15" opacity="1" stroke-width="0" transform=" rotate(0, 197, 197)" width="15" x="189.5" y="189.5"/>
    <ellipse cx="221.0" cy="197.0" fill="#4682b4" opacity="1" rx="7.5" ry="7.5" stroke-width="0" transform=" rotate(0, 221, 197)"/>
    <rect fill="#32cd32" height="15" opacity="1" stroke-width="0" transform=" rotate(0, 29, 221)" width="15" x="21.5" y="213.5"/>
    <ellipse cx="53.0" cy="221.0" fill="#35ca50" opacity="1" rx="7.5" ry="7.5" stroke-width="0" transform=" rotate(0, 53, 221)"/>
    <rect fill="#37c76b" height="15" opacity="1" stroke-width="0" transform=" rotate(0, 77, 221)" width="15" x="69.5" y="213.5"/>
    <ellipse cx="101.0" cy="221.0" fill="#3ac485" opacity="1" rx="7.5" ry="7.5" stroke-width="0" transform=" rotate(0, 101, 221)"/>
    <rect fill="#3cc09c" height="15" opacity="1" stroke-width="0" transform=" rotate(0, 125, 221)" width="15" x="117.5" y="213.5"/>
    <ellipse cx="149.0" cy="221.0" fill="#3fbdb2" opacity="1" rx="7.5" ry="7.5" stroke-width="0" transform=" rotate(0, 149, 221)"/>
    <rect fill="#41afba" height="15" opacity="1" stroke-width="0" transform=" rotate(0, 173, 221)" width="15" x="165.5" y="213.5"/>
    <ellipse cx="197.0" cy="221.0" fill="#4498b7" opacity="1" rx="7.5" ry="7.5" stroke-width="0" transform=" rotate(0, 197, 221)"/>
    <rect fill="#4682b4" height="15" opacity="1" stroke-width="0" transform=" rotate(0, 221, 221)" width="15" x="213.5" y="213.5"/>
  </g>
</g>
  </g>
</svg>
