<?xml version='1.0' encoding='ASCII' standalone='yes'?>
<svg xmlns="http://www.w3.org/2000/svg" xmlns:xlink="http://www.w3.org/1999/xlink" version="1.1" width="125.0px" viewBox="0 0 125.0 125.0" height="125.0px">
  <g>
    <g transform="translate(0, 0) scale(0.5 0.5) "><defs/>
  <g transform=" rotate(0, 125, 125)">
    <rect fill="white" height="250" width="250" x="0" y="0"/>
    <rect fill="#4682b4" height="15.437818171608882" opacity="1" stroke-width="0" transform=" rotate(0, 24, 24)" width="18.172541382455552" x="14.93408722161809" y="16.301448827041455"/>
    <rect fill="#4682b4" height="12.593301919420156" opacity="1" stroke-width="0" transform=" rotate(0, 49, 32)" width="11.3890650281933" x="43.32582539874922" y="26.540485737522914"/>
    <rect fill="#4682b4" height="15.394812597538275" opacity="1" stroke-width="0" transform=" rotate(0, 74, 38)" width="11.137897731694824" x="68.45140904699845" y="30.588799358504062"/>
    <rect fill="#4682b4" height="12.081074583371018" opacity="1" stroke-width="0" transform=" rotate(0, 99, 38)" width="12.767696359350438" x="92.63650973317064" y="32.24566836558769"/>
    <rect fill="#4682b4" height="13.314621623903525" opacity="1" stroke-width="0" transform=" rotate(0, 124, 32)" width="15.686136850277" x="116.17728948770737" y="26.17982588528123"/>
    <rect fill="#4682b4" height="16.515593978474055" opacity="1" stroke-width="0" transform=" rotate(0, 149, 24)" width="14.681545064508377" x="141.67958538059167" y="15.762560923608872"/>
    <rect fill="#4682b4" height="16.289945610051845" opacity="1" stroke-width="0" transform=" rotate(0, 174, 15)" width="10.0504163541211" x="168.9951497357853" y="7.058606323432878"/>
    <rect fill="#4682b4" height="10.72083272657737" opacity="1" stroke-width="0" transform=" rotate(0, 199, 9)" width="14.933078678781571" x="191.5538185734551" y="4.394093805129907"/>
    <rect fill="#4682b4" height="11.630516521547897" opacity="1" stroke-width="0" transform=" rotate(0, 224, 9)" width="18.989583739634373" x="214.52556604302868" y="3.9392519076446426"/>
    <rect fill="#4682b4" height="19.667564715297605" opacity="1" stroke-width="0" transform=" rotate(0, 32, 49)" width="10.974469585694576" x="27.349901904385675" y="39.186575555197095"/>
    <rect fill="#41afba" height="15.661959281858307" opacity="1" stroke-width="0" transform=" rotate(0, 57, 57)" width="14.183371310556067" x="50.74545104195493" y="50.00615705630384"/>
    <rect fill="#41afba" height="12.93252962063875" opacity="1" stroke-width="0" transform=" rotate(0, 82, 63)" width="11.153362156426114" x="77.26045561901991" y="56.81994084695383"/>
    <rect fill="#41afba" height="12.488401017421925" opacity="1" stroke-width="0" transform=" rotate(0, 107, 63)" width="10.72603451994777" x="102.47411943725908" y="57.04200514856224"/>
    <rect fill="#41afba" height="15.741295485936046" opacity="1" stroke-width="0" transform=" rotate(0, 132, 57)" width="13.980634858089282" x="125.84681926818831" y="49.96648895426497"/>
    <rect fill="#41afba" height="15.564093149783528" opacity="1" stroke-width="0" transform=" rotate(0, 157, 49)" width="12.621960833173631" x="151.52615628064615" y="41.23831133795413"/>
    <rect fill="#41afba" height="10.378414009758766" opacity="1" stroke-width="0" transform=" rotate(0, 182, 40)" width="10.402421315021034" x="177.63592603972245" y="35.01437212357941"/>
    <rect fill="#41afba" height="12.539799512088443" opacity="1" stroke-width="0" transform=" rotate(0, 207, 34)" width="14.05549960737299" x="200.80938689354647" y="28.48461041237437"/>
    <rect fill="#4682b4" height="19.871999418003313" opacity="1" stroke-width="0" transform=" rotate(0, 232, 34)" width="15.38106615560634" x="225.1466036194298" y="24.818510459416935"/>
    <rect fill="#4682b4" height="18.003138965614397" opacity="1" stroke-width="0" transform=" rotate(0, 38, 74)" width="10.069089977600054" x="33.25166066847314" y="65.0187884300387"/>
    <rect fill="#41afba" height="11.291696773117431" opacity="1" stroke-width="0" transform=" rotate(0, 63, 82)" width="17.236931878393502" x="54.66773971807642" y="77.19128831067428"/>
    <rect fill="#3cc09c" height="15.050010362989118" opacity="1" stroke-width="0" transform=" rotate(0, 88, 88)" width="17.89419782054364" x="79.33910674700135" y="80.76120047577864"/>
    <rect fill="#3cc09c" height="13.665872243355068" opacity="1" stroke-width="0" transform=" rotate(0, 113, 88)" width="16.131951858571533" x="105.2202297279874" y="81.45326953559567"/>
    <rect fill="#3cc09c" height="17.958154620062793" opacity="1" stroke-width="0" transform=" rotate(0, 138, 82)" width="19.355793307184353" x="128.608309003681" y="73.85805938720159"/>
    <rect fill="#3cc09c" height="13.30579279563674" opacity="1" stroke-width="0" transform=" rotate(0, 163, 74)" width="13.814271927365684" x="156.37906969359034" y="67.36746151502753"/>
    <rect fill="#3cc09c" height="17.16840181559139" opacity="1" stroke-width="0" transform=" rotate(0, 188, 65)" width="12.895089644606605" x="181.83866083496986" y="56.6193782206631"/>
    <rect fill="#41afba" height="15.497006020656208" opacity="1" stroke-width="0" transform=" rotate(0, 213, 59)" width="10.696606190920292" x="207.93790256181302" y="52.00600715809048"/>
    <rect fill="#4682b4" height="18.264260719746268" opacity="1" stroke-width="0" transform=" rotate(0, 238, 59)" width="10.670766222706751" x="232.9508225459198" y="50.62237980854546"/>
    <rect fill="#4682b4" height="11.32694177532092" opacity="1" stroke-width="0" transform=" rotate(0, 38, 99)" width="15.19953513575745" x="30.686438089394446" y="93.35688702518543"/>
    <rect fill="#41afba" height="18.325200915524174" opacity="1" stroke-width="0" transform=" rotate(0, 63, 107)" width="11.531608567125462" x="57.52040137371044" y="98.67453623947091"/>
    <rect fill="#3cc09c" height="19.555658464010513" opacity="1" stroke-width="0" transform=" rotate(0, 88, 113)" width="15.98859267479454" x="80.2919093198759" y="103.50837642526794"/>
    <rect fill="#37c76b" height="18.304458105313735" opacity="1" stroke-width="0" transform=" rotate(0, 113, 113)" width="13.839467595799729" x="106.3664718593733" y="104.13397660461634"/>
    <rect fill="#37c76b" height="19.2905653089758" opacity="1" stroke-width="0" transform=" rotate(0, 138, 107)" width="11.91834371605973" x="132.3270337992433" y="98.19185404274509"/>
    <rect fill="#37c76b" height="18.613527620630723" opacity="1" stroke-width="0" transform=" rotate(0, 163, 99)" width="18.941804058142893" x="153.81530362820172" y="89.71359410253054"/>
    <rect fill="#3cc09c" height="18.742091687053332" opacity="1" stroke-width="0" transform=" rotate(0, 188, 90)" width="19.264674234446026" x="178.65386854005015" y="80.83253328493214"/>
    <rect fill="#41afba" height="18.654609246743696" opacity="1" stroke-width="0" transform=" rotate(0, 213, 84)" width="13.197406420069262" x="206.68750244723853" y="75.42720554504675"/>
    <rect fill="#4682b4" height="15.406993161776644" opacity="1" stroke-width="0" transform=" rotate(0, 238, 84)" width="17.652162871135516" x="229.46012422170543" y="77.05101358753026"/>
    <rect fill="#4682b4" height="12.24497418644009" opacity="1" stroke-width="0" transform=" rotate(0, 32, 124)" width="17.90768467448244" x="23.883294359991744" y="117.89787081962585"/>
    <rect fill="#41afba" height="15.797725713708243" opacity="1" stroke-width="0" transform=" rotate(0, 57, 132)" width="16.72757800517225" x="49.47334769464684" y="124.93827384037888"/>
    <rect fill="#3cc09c" height="18.579569180425146" opacity="1" stroke-width="0" transform=" rotate(0, 82, 138)" width="18.12557402573413" x="73.7743496843659" y="128.99642106706062"/>
    <rect fill="#37c76b" height="19.856133461160795" opacity="1" stroke-width="0" transform=" rotate(0, 107, 138)" width="11.354338403854051" x="102.15996749530593" y="128.3581389266928"/>
    <rect fill="#32cd32" height="10.032569348659766" opacity="1" stroke-width="0" transform=" rotate(0, 132, 132)" width="16.684681231713455" x="124.49479608137622" y="127.82085202290313"/>
    <rect fill="#37c76b" height="14.127521976891078" opacity="1" stroke-width="0" transform=" rotate(0, 157, 124)" width="12.976466788528182" x="151.3489033029689" y="116.95659692440036"/>
    <rect fill="#3cc09c" height="12.873122715860573" opacity="1" stroke-width="0" transform=" rotate(0, 182, 115)" width="18.133029434350256" x="173.77062198005785" y="108.76701777052851"/>
    <rect fill="#41afba" height="18.169236895617555" opacity="1" stroke-width="0" transform=" rotate(0, 207, 109)" width="10.201613471861506" x="202.73632996130223" y="100.66989172060981"/>
    <rect fill="#4682b4" height="11.849901956278632" opacity="1" stroke-width="0" transform=" rotate(0, 232, 109)" width="19.527208107616126" x="223.07353264342493" y="103.82955919027927"/>
    <rect fill="#4682b4" height="12.951553570765872" opacity="1" stroke-width="0" transform=" rotate(0, 24, 149)" width="18.171415575331928" x="14.934650125179907" y="142.54458112746295"/>
    <rect fill="#41afba" height="11.305006045429096" opacity="1" stroke-width="0" transform=" rotate(0, 49, 157)" width="13.466555451435571" x="42.28708018712808" y="152.18463367451847"/>
    <rect fill="#3cc09c" height="18.753584854405695" opacity="1" stroke-width="0" transform=" rotate(0, 74, 163)" width="10.038581787738746" x="69.0010670189765" y="153.90941323007036"/>
    <rect fill="#37c76b" height="10.315708588403576" opacity="1" stroke-width="0" transform=" rotate(0, 99, 163)" width="10.727564625465673" x="93.65657560011303" y="158.1283513630714"/>
    <rect fill="#37c76b" height="16.94260299441819" opacity="1" stroke-width="0" transform=" rotate(0, 124, 157)" width="12.724796326530667" x="117.65795974958053" y="149.36583520002392"/>
    <rect fill="#37c76b" height="16.64828207912415" opacity="1" stroke-width="0" transform=" rotate(0, 149, 149)" width="17.32613308692529" x="140.35729136938323" y="140.69621687328382"/>
    <rect fill="#3cc09c" height="13.287707977446633" opacity="1" stroke-width="0" transform=" rotate(0, 174, 140)" width="18.223926650791665" x="164.90839458745003" y="133.55972513973546"/>
    <rect fill="#41afba" height="19.984419255654316" opacity="1" stroke-width="0" transform=" rotate(0, 199, 134)" width="14.802271841630965" x="191.6192219920304" y="124.76230054059144"/>
    <rect fill="#4682b4" height="12.49835830235088" opacity="1" stroke-width="0" transform=" rotate(0, 224, 134)" width="18.848912050299436" x="214.59590188769616" y="128.50533101724315"/>
    <rect fill="#4682b4" height="11.413837528688498" opacity="1" stroke-width="0" transform=" rotate(0, 15, 174)" width="12.898925610013029" x="8.754116323452259" y="168.31343914850166"/>
    <rect fill="#41afba" height="10.986566630115504" opacity="1" stroke-width="0" transform=" rotate(0, 40, 182)" width="14.86547216410803" x="32.77084304640476" y="177.34385338217527"/>
    <rect fill="#3cc09c" height="15.793481096796253" opacity="1" stroke-width="0" transform=" rotate(0, 65, 188)" width="16.528042971814035" x="56.939557642551755" y="180.38946510887507"/>
    <rect fill="#3cc09c" height="11.64369242830842" opacity="1" stroke-width="0" transform=" rotate(0, 90, 188)" width="18.320016576723937" x="81.0435708400968" y="182.46435944311898"/>
    <rect fill="#3cc09c" height="12.220609861627462" opacity="1" stroke-width="0" transform=" rotate(0, 115, 182)" width="13.08027692412343" x="108.66344066639705" y="176.72683176641928"/>
    <rect fill="#3cc09c" height="11.772475032776475" opacity="1" stroke-width="0" transform=" rotate(0, 140, 174)" width="18.076082814827885" x="131.16553772104484" y="168.13412039645766"/>
    <rect fill="#3cc09c" height="16.982937015676562" opacity="1" stroke-width="0" transform=" rotate(0, 165, 165)" width="12.430918516002045" x="158.98811987045775" y="156.71211062062054"/>
    <rect fill="#41afba" height="19.435929921703874" opacity="1" stroke-width="0" transform=" rotate(0, 190, 159)" width="10.535753471593765" x="184.9357023926619" y="150.03654520756666"/>
    <rect fill="#4682b4" height="15.023039621715041" opacity="1" stroke-width="0" transform=" rotate(0, 215, 159)" width="11.951866258663836" x="209.22764599912688" y="152.24299035756107"/>
    <rect fill="#4682b4" height="16.341178842408258" opacity="1" stroke-width="0" transform=" rotate(0, 9, 199)" width="14.7675862477717" x="2.3707170445327144" y="190.84976849164175"/>
    <rect fill="#41afba" height="15.980761068976213" opacity="1" stroke-width="0" transform=" rotate(0, 34, 207)" width="10.987467412455139" x="29.260776462190993" y="199.8467561627449"/>
    <rect fill="#41afba" height="10.390937698091008" opacity="1" stroke-width="0" transform=" rotate(0, 59, 213)" width="14.281044100808824" x="52.61398811801415" y="208.0907368082277"/>
    <rect fill="#41afba" height="18.04693251435458" opacity="1" stroke-width="0" transform=" rotate(0, 84, 213)" width="13.6606896468789" x="77.92416534497912" y="204.2627394000959"/>
    <rect fill="#41afba" height="12.337663217928387" opacity="1" stroke-width="0" transform=" rotate(0, 109, 207)" width="11.895228774435395" x="103.80689578120086" y="201.66830508826882"/>
    <rect fill="#41afba" height="10.743885235079787" opacity="1" stroke-width="0" transform=" rotate(0, 134, 199)" width="18.143695790324344" x="125.6826622732564" y="193.648415295306"/>
    <rect fill="#41afba" height="15.375308642453584" opacity="1" stroke-width="0" transform=" rotate(0, 159, 190)" width="17.124188778282967" x="151.19241577927707" y="182.515924807232"/>
    <rect fill="#41afba" height="18.716990076795533" opacity="1" stroke-width="0" transform=" rotate(0, 184, 184)" width="14.824508406642384" x="177.34225596509737" y="175.39601513002083"/>
    <rect fill="#4682b4" height="16.858459738306973" opacity="1" stroke-width="0" transform=" rotate(0, 209, 184)" width="11.673972523261606" x="203.91752390678775" y="176.3252802992651"/>
    <rect fill="#4682b4" height="13.20916633868386" opacity="1" stroke-width="0" transform=" rotate(0, 9, 224)" width="11.635853528792566" x="3.9365834040222794" y="217.41577474350396"/>
    <rect fill="#4682b4" height="11.568960000676764" opacity="1" stroke-width="0" transform=" rotate(0, 34, 232)" width="15.021131425070045" x="27.24394445588354" y="227.05265669689462"/>
    <rect fill="#4682b4" height="14.727463208091208" opacity="1" stroke-width="0" transform=" rotate(0, 59, 238)" width="13.579702262573218" x="52.96465903713195" y="230.9224740532276"/>
    <rect fill="#4682b4" height="12.814769712358709" opacity="1" stroke-width="0" transform=" rotate(0, 84, 238)" width="10.028024669303637" x="79.74049783376674" y="231.87882080109384"/>
    <rect fill="#4682b4" height="13.323722096757933" opacity="1" stroke-width="0" transform=" rotate(0, 109, 232)" width="16.94331914900718" x="101.28285059391497" y="226.17527564885404"/>
    <rect fill="#4682b4" height="14.678527251896599" opacity="1" stroke-width="0" transform=" rotate(0, 134, 224)" width="13.25268793420269" x="128.1281662013172" y="216.6810942868976"/>
    <rect fill="#4682b4" height="12.730209299808717" opacity="1" stroke-width="0" transform=" rotate(0, 159, 215)" width="19.63969048056884" x="149.93466492813414" y="208.83847447855445"/>
    <rect fill="#4682b4" height="15.587844227076584" opacity="1" stroke-width="0" transform=" rotate(0, 184, 209)" width="16.493622459348003" x="176.50769893874457" y="201.9605880548803"/>
    <rect fill="#4682b4" height="19.43546833902463" opacity="1" stroke-width="0" transform=" rotate(0, 209, 209)" width="18.72040104586567" x="200.39430964548572" y="200.03677599890628"/>
  </g>
</g>
  </g>
</svg>
