<?xml version='1.0' encoding='ASCII' standalone='yes'?>
<svg xmlns="http://www.w3.org/2000/svg" xmlns:xlink="http://www.w3.org/1999/xlink" version="1.1" width="125.0px" viewBox="0 0 125.0 125.0" height="125.0px">
  <g>
    <g transform="translate(0, 0) scale(0.5 0.5) "><defs/>
  <g transform=" rotate(0, 125, 125)">
    <rect fill="white" height="250" width="250" x="0" y="0"/>
    <polygon fill="#1b9fd8" opacity="1" points="37.5,22.499999999999943 22.5,33.95898033750308 28.229490168751575,52.49999999999989 46.77050983124842,52.4999999999999 52.5,33.958980337503085" stroke-width="0" transform=" rotate(0, 37, 37)"/>
    <polygon fill="#1b9fd8" opacity="1" points="72.5,22.499999999999943 57.5,33.95898033750308 63.229490168751575,52.49999999999989 81.77050983124842,52.4999999999999 87.5,33.958980337503085" stroke-width="0" transform=" rotate(0, 72, 37)"/>
    <polygon fill="#1b9fd8" opacity="1" points="107.5,22.499999999999943 92.5,33.95898033750308 98.22949016875157,52.49999999999989 116.77050983124842,52.4999999999999 122.5,33.958980337503085" stroke-width="0" transform=" rotate(0, 107, 37)"/>
    <polygon fill="#1b9fd8" opacity="1" points="142.5,22.499999999999943 127.5,33.95898033750308 133.22949016875157,52.49999999999989 151.77050983124843,52.4999999999999 157.5,33.958980337503085" stroke-width="0" transform=" rotate(0, 142, 37)"/>
    <polygon fill="#1b9fd8" opacity="1" points="177.5,22.499999999999943 162.5,33.95898033750308 168.22949016875157,52.49999999999989 186.77050983124843,52.4999999999999 192.5,33.958980337503085" stroke-width="0" transform=" rotate(0, 177, 37)"/>
    <polygon fill="#1b9fd8" opacity="1" points="212.5,22.499999999999943 197.5,33.95898033750308 203.22949016875157,52.49999999999989 221.77050983124843,52.4999999999999 227.5,33.958980337503085" stroke-width="0" transform=" rotate(0, 212, 37)"/>
    <polygon fill="#1b9fd8" opacity="1" points="37.5,57.500000000000114 22.5,68.95898033750329 28.229490168751575,87.5000000000002 46.77050983124842,87.5000000000002 52.5,68.9589803375033" stroke-width="0" transform=" rotate(0, 37, 72)"/>
    <polygon fill="#1b9fd8" opacity="1" points="72.5,57.500000000000114 57.5,68.95898033750329 63.229490168751575,87.5000000000002 81.77050983124842,87.5000000000002 87.5,68.9589803375033" stroke-width="0" transform=" rotate(0, 72, 72)"/>
    <polygon fill="#1b9fd8" opacity="1" points="107.5,57.500000000000114 92.5,68.95898033750329 98.22949016875157,87.5000000000002 116.77050983124842,87.5000000000002 122.5,68.9589803375033" stroke-width="0" transform=" rotate(0, 107, 72)"/>
    <polygon fill="#1b9fd8" opacity="1" points="142.5,57.500000000000114 127.5,68.95898033750329 133.22949016875157,87.5000000000002 151.77050983124843,87.5000000000002 157.5,68.9589803375033" stroke-width="0" transform=" rotate(0, 142, 72)"/>
    <polygon fill="#1b9fd8" opacity="1" points="177.5,57.500000000000114 162.5,68.95898033750329 168.22949016875157,87.5000000000002 186.77050983124843,87.5000000000002 192.5,68.9589803375033" stroke-width="0" transform=" rotate(0, 177, 72)"/>
    <polygon fill="#1b9fd8" opacity="1" points="212.5,57.500000000000114 197.5,68.95898033750329 203.22949016875157,87.5000000000002 221.77050983124843,87.5000000000002 227.5,68.9589803375033" stroke-width="0" transform=" rotate(0, 212, 72)"/>
    <polygon fill="#1b9fd8" opacity="1" points="37.5,92.50000000000011 22.5,103.95898033750329 28.229490168751575,122.5000000000002 46.77050983124842,122.5000000000002 52.5,103.9589803375033" stroke-width="0" transform=" rotate(0, 37, 107)"/>
    <polygon fill="#1b9fd8" opacity="1" points="72.5,92.50000000000011 57.5,103.95898033750329 63.229490168751575,122.5000000000002 81.77050983124842,122.5000000000002 87.5,103.9589803375033" stroke-width="0" transform=" rotate(0, 72, 107)"/>
    <polygon fill="#1b9fd8" opacity="1" points="107.5,92.50000000000011 92.5,103.95898033750329 98.22949016875157,122.5000000000002 116.77050983124842,122.5000000000002 122.5,103.9589803375033" stroke-width="0" transform=" rotate(0, 107, 107)"/>
    <polygon fill="#1b9fd8" opacity="1" points="142.5,92.50000000000011 127.5,103.95898033750329 133.22949016875157,122.5000000000002 151.77050983124843,122.5000000000002 157.5,103.9589803375033" stroke-width="0" transform=" rotate(0, 142, 107)"/>
    <polygon fill="#1b9fd8" opacity="1" points="177.5,92.50000000000011 162.5,103.95898033750329 168.22949016875157,122.5000000000002 186.77050983124843,122.5000000000002 192.5,103.9589803375033" stroke-width="0" transform=" rotate(0, 177, 107)"/>
    <polygon fill="#1b9fd8" opacity="1" points="212.5,92.50000000000011 197.5,103.95898033750329 203.22949016875157,122.5000000000002 221.77050983124843,122.5000000000002 227.5,103.9589803375033" stroke-width="0" transform=" rotate(0, 212, 107)"/>
    <polygon fill="#1b9fd8" opacity="1" points="37.5,127.50000000000024 22.5,138.95898033750333 28.229490168751575,157.50000000000006 46.77050983124842,157.50000000000009 52.5,138.95898033750333" stroke-width="0" transform=" rotate(0, 37, 142)"/>
    <polygon fill="#1b9fd8" opacity="1" points="72.5,127.50000000000024 57.5,138.95898033750333 63.229490168751575,157.50000000000006 81.77050983124842,157.50000000000009 87.5,138.95898033750333" stroke-width="0" transform=" rotate(0, 72, 142)"/>
    <polygon fill="#1b9fd8" opacity="1" points="107.5,127.50000000000024 92.5,138.95898033750333 98.22949016875157,157.50000000000006 116.77050983124842,157.50000000000009 122.5,138.95898033750333" stroke-width="0" transform=" rotate(0, 107, 142)"/>
    <polygon fill="#1b9fd8" opacity="1" points="142.5,127.50000000000024 127.5,138.95898033750333 133.22949016875157,157.50000000000006 151.77050983124843,157.50000000000009 157.5,138.95898033750333" stroke-width="0" transform=" rotate(0, 142, 142)"/>
    <polygon fill="#1b9fd8" opacity="1" points="177.5,127.50000000000024 162.5,138.95898033750333 168.22949016875157,157.50000000000006 186.77050983124843,157.50000000000009 192.5,138.95898033750333" stroke-width="0" transform=" rotate(0, 177, 142)"/>
    <polygon fill="#1b9fd8" opacity="1" points="212.5,127.50000000000024 197.5,138.95898033750333 203.22949016875157,157.50000000000006 221.77050983124843,157.50000000000009 227.5,138.95898033750333" stroke-width="0" transform=" rotate(0, 212, 142)"/>
    <polygon fill="#1b9fd8" opacity="1" points="37.5,162.50000000000023 22.5,173.95898033750333 28.229490168751575,192.50000000000006 46.77050983124842,192.50000000000009 52.5,173.95898033750333" stroke-width="0" transform=" rotate(0, 37, 177)"/>
    <polygon fill="#1b9fd8" opacity="1" points="72.5,162.50000000000023 57.5,173.95898033750333 63.229490168751575,192.50000000000006 81.77050983124842,192.50000000000009 87.5,173.95898033750333" stroke-width="0" transform=" rotate(0, 72, 177)"/>
    <polygon fill="#1b9fd8" opacity="1" points="107.5,162.50000000000023 92.5,173.95898033750333 98.22949016875157,192.50000000000006 116.77050983124842,192.50000000000009 122.5,173.95898033750333" stroke-width="0" transform=" rotate(0, 107, 177)"/>
    <polygon fill="#1b9fd8" opacity="1" points="142.5,162.50000000000023 127.5,173.95898033750333 133.22949016875157,192.50000000000006 151.77050983124843,192.50000000000009 157.5,173.95898033750333" stroke-width="0" transform=" rotate(0, 142, 177)"/>
    <polygon fill="#1b9fd8" opacity="1" points="177.5,162.50000000000023 162.5,173.95898033750333 168.22949016875157,192.50000000000006 186.77050983124843,192.50000000000009 192.5,173.95898033750333" stroke-width="0" transform=" rotate(0, 177, 177)"/>
    <polygon fill="#1b9fd8" opacity="1" points="212.5,162.50000000000023 197.5,173.95898033750333 203.22949016875157,192.50000000000006 221.77050983124843,192.50000000000009 227.5,173.95898033750333" stroke-width="0" transform=" rotate(0, 212, 177)"/>
    <polygon fill="#1b9fd8" opacity="1" points="37.5,197.50000000000023 22.5,208.95898033750333 28.229490168751575,227.50000000000006 46.77050983124842,227.50000000000009 52.5,208.95898033750333" stroke-width="0" transform=" rotate(0, 37, 212)"/>
    <polygon fill="#1b9fd8" opacity="1" points="72.5,197.50000000000023 57.5,208.95898033750333 63.229490168751575,227.50000000000006 81.77050983124842,227.50000000000009 87.5,208.95898033750333" stroke-width="0" transform=" rotate(0, 72, 212)"/>
    <polygon fill="#1b9fd8" opacity="1" points="107.5,197.50000000000023 92.5,208.95898033750333 98.22949016875157,227.50000000000006 116.77050983124842,227.50000000000009 122.5,208.95898033750333" stroke-width="0" transform=" rotate(0, 107, 212)"/>
    <polygon fill="#1b9fd8" opacity="1" points="142.5,197.50000000000023 127.5,208.95898033750333 133.22949016875157,227.50000000000006 151.77050983124843,227.50000000000009 157.5,208.95898033750333" stroke-width="0" transform=" rotate(0, 142, 212)"/>
    <polygon fill="#1b9fd8" opacity="1" points="177.5,197.50000000000023 162.5,208.95898033750333 168.22949016875157,227.50000000000006 186.77050983124843,227.50000000000009 192.5,208.95898033750333" stroke-width="0" transform=" rotate(0, 177, 212)"/>
    <polygon fill="#1b9fd8" opacity="1" points="212.5,197.50000000000023 197.5,208.95898033750333 203.22949016875157,227.50000000000006 221.77050983124843,227.50000000000009 227.5,208.95898033750333" stroke-width="0" transform=" rotate(0, 212, 212)"/>
  </g>
</g>
  </g>
</svg>
