<?xml version='1.0' encoding='ASCII' standalone='yes'?>
<svg xmlns="http://www.w3.org/2000/svg" xmlns:xlink="http://www.w3.org/1999/xlink" version="1.1" width="125.0px" viewBox="0 0 125.0 125.0" height="125.0px">
  <g>
    <g transform="translate(0, 0) scale(0.5 0.5) "><defs/>
  <g transform=" rotate(0, 125, 125)">
    <rect fill="none" height="250" width="250" x="0" y="0"/>
    <path d="M 256,0 C 114.615,0 0,114.615 0,256 S 114.615,512 256,512 S 512,397.385 512,256 S 397.385,0 256,0 Z M 208,416 L 102,278 L 149,229 L 208,304 L 393,153 L 416,176 L 208,416 Z" fill="#32cd32" opacity="1" stroke-width="0" transform=" scale(0.058594, 0.058594) translate(341.333333, 341.333333) rotate(30, 256, 256)"/>
    <text fill="#32cd32" opacity="1" stroke-width="0" style="text-align: middle; font-size:40.65px; font-family: Arial" text-anchor="middle" textLength="100%" transform=" rotate(30, 80, 35)" x="80.0" y="49.55">C</text>
    <text fill="#32cd32" opacity="1" stroke-width="0" style="text-align: middle; font-size:40.65px; font-family: Arial" text-anchor="middle" textLength="100%" transform=" rotate(30, 125, 35)" x="125.0" y="49.55">J</text>
    <text fill="#32cd32" opacity="1" stroke-width="0" style="text-align: middle; font-size:40.65px; font-family: Arial" text-anchor="middle" textLength="100%" transform=" rotate(30, 170, 35)" x="170.0" y="49.55">E</text>
    <path d="M 256,0 C 114.615,0 0,114.615 0,256 S 114.615,512 256,512 S 512,397.385 512,256 S 397.385,0 256,0 Z M 208,416 L 102,278 L 149,229 L 208,304 L 393,153 L 416,176 L 208,416 Z" fill="#32cd32" opacity="1" stroke-width="0" transform=" scale(0.058594, 0.058594) translate(3413.333333, 341.333333) rotate(30, 256, 256)"/>
    <path d="M 256,0 C 114.615,0 0,114.615 0,256 S 114.615,512 256,512 S 512,397.385 512,256 S 397.385,0 256,0 Z M 208,416 L 102,278 L 149,229 L 208,304 L 393,153 L 416,176 L 208,416 Z" fill="#37c76b" opacity="1" stroke-width="0" transform="scale(-1, 1) translate(-70.000000, 0) scale(0.058594, 0.058594) translate(341.333333, 1109.333333) rotate(30, 256, 256)"/>
    <text fill="#37c76b" opacity="1" stroke-width="0" style="text-align: middle; font-size:40.65px; font-family: Arial" text-anchor="middle" textLength="100%" transform="scale(-1, 1) translate(-160.000000, 0) rotate(30, 80, 80)" x="80.0" y="94.55">C</text>
    <text fill="#37c76b" opacity="1" stroke-width="0" style="text-align: middle; font-size:40.65px; font-family: Arial" text-anchor="middle" textLength="100%" transform="scale(-1, 1) translate(-250.000000, 0) rotate(30, 125, 80)" x="125.0" y="94.55">J</text>
    <text fill="#37c76b" opacity="1" stroke-width="0" style="text-align: middle; font-size:40.65px; font-family: Arial" text-anchor="middle" textLength="100%" transform="scale(-1, 1) translate(-340.000000, 0) rotate(30, 170, 80)" x="170.0" y="94.55">E</text>
    <path d="M 256,0 C 114.615,0 0,114.615 0,256 S 114.615,512 256,512 S 512,397.385 512,256 S 397.385,0 256,0 Z M 208,416 L 102,278 L 149,229 L 208,304 L 393,153 L 416,176 L 208,416 Z" fill="#37c76b" opacity="1" stroke-width="0" transform="scale(-1, 1) translate(-430.000000, 0) scale(0.058594, 0.058594) translate(3413.333333, 1109.333333) rotate(30, 256, 256)"/>
    <path d="M 256,0 C 114.615,0 0,114.615 0,256 S 114.615,512 256,512 S 512,397.385 512,256 S 397.385,0 256,0 Z M 208,416 L 102,278 L 149,229 L 208,304 L 393,153 L 416,176 L 208,416 Z" fill="#3cc09c" opacity="1" stroke-width="0" transform="scale(1, -1), translate(0, -250.000000) scale(0.058594, 0.058594) translate(341.333333, 1877.333333) rotate(30, 256, 256)"/>
    <text fill="#3cc09c" opacity="1" stroke-width="0" style="text-align: middle; font-size:40.65px; font-family: Arial" text-anchor="middle" textLength="100%" transform="scale(1, -1), translate(0, -250.000000) rotate(30, 80, 125)" x="80.0" y="139.55">C</text>
    <text fill="#3cc09c" opacity="1" stroke-width="0" style="text-align: middle; font-size:40.65px; font-family: Arial" text-anchor="middle" textLength="100%" transform="scale(1, -1), translate(0, -250.000000) rotate(30, 125, 125)" x="125.0" y="139.55">J</text>
    <text fill="#3cc09c" opacity="1" stroke-width="0" style="text-align: middle; font-size:40.65px; font-family: Arial" text-anchor="middle" textLength="100%" transform="scale(1, -1), translate(0, -250.000000) rotate(30, 170, 125)" x="170.0" y="139.55">E</text>
    <path d="M 256,0 C 114.615,0 0,114.615 0,256 S 114.615,512 256,512 S 512,397.385 512,256 S 397.385,0 256,0 Z M 208,416 L 102,278 L 149,229 L 208,304 L 393,153 L 416,176 L 208,416 Z" fill="#3cc09c" opacity="1" stroke-width="0" transform="scale(1, -1), translate(0, -250.000000) scale(0.058594, 0.058594) translate(3413.333333, 1877.333333) rotate(30, 256, 256)"/>
    <path d="M 256,0 C 114.615,0 0,114.615 0,256 S 114.615,512 256,512 S 512,397.385 512,256 S 397.385,0 256,0 Z M 208,416 L 102,278 L 149,229 L 208,304 L 393,153 L 416,176 L 208,416 Z" fill="#41afba" opacity="1" stroke-width="0" transform="scale(-1, -1) translate(-70.000000, -340.000000) scale(0.058594, 0.058594) translate(341.333333, 2645.333333) rotate(30, 256, 256)"/>
    <text fill="#41afba" opacity="1" stroke-width="0" style="text-align: middle; font-size:40.65px; font-family: Arial" text-anchor="middle" textLength="100%" transform="scale(-1, -1) translate(-160.000000, -340.000000) rotate(30, 80, 170)" x="80.0" y="184.55">C</text>
    <text fill="#41afba" opacity="1" stroke-width="0" style="text-align: middle; font-size:40.65px; font-family: Arial" text-anchor="middle" textLength="100%" transform="scale(-1, -1) translate(-250.000000, -340.000000) rotate(30, 125, 170)" x="125.0" y="184.55">J</text>
    <text fill="#41afba" opacity="1" stroke-width="0" style="text-align: middle; font-size:40.65px; font-family: Arial" text-anchor="middle" textLength="100%" transform="scale(-1, -1) translate(-340.000000, -340.000000) rotate(30, 170, 170)" x="170.0" y="184.55">E</text>
    <path d="M 256,0 C 114.615,0 0,114.615 0,256 S 114.615,512 256,512 S 512,397.385 512,256 S 397.385,0 256,0 Z M 208,416 L 102,278 L 149,229 L 208,304 L 393,153 L 416,176 L 208,416 Z" fill="#41afba" opacity="1" stroke-width="0" transform="scale(-1, -1) translate(-430.000000, -340.000000) scale(0.058594, 0.058594) translate(3413.333333, 2645.333333) rotate(30, 256, 256)"/>
    <path d="M 256,0 C 114.615,0 0,114.615 0,256 S 114.615,512 256,512 S 512,397.385 512,256 S 397.385,0 256,0 Z M 208,416 L 102,278 L 149,229 L 208,304 L 393,153 L 416,176 L 208,416 Z" fill="#4682b4" opacity="1" stroke-width="0" transform=" scale(0.058594, 0.058594) translate(341.333333, 3413.333333) rotate(30, 256, 256)"/>
    <text fill="#4682b4" opacity="1" stroke-width="0" style="text-align: middle; font-size:40.65px; font-family: Arial" text-anchor="middle" textLength="100%" transform=" rotate(30, 80, 215)" x="80.0" y="229.55">C</text>
    <text fill="#4682b4" opacity="1" stroke-width="0" style="text-align: middle; font-size:40.65px; font-family: Arial" text-anchor="middle" textLength="100%" transform=" rotate(30, 125, 215)" x="125.0" y="229.55">J</text>
    <text fill="#4682b4" opacity="1" stroke-width="0" style="text-align: middle; font-size:40.65px; font-family: Arial" text-anchor="middle" textLength="100%" transform=" rotate(30, 170, 215)" x="170.0" y="229.55">E</text>
    <path d="M 256,0 C 114.615,0 0,114.615 0,256 S 114.615,512 256,512 S 512,397.385 512,256 S 397.385,0 256,0 Z M 208,416 L 102,278 L 149,229 L 208,304 L 393,153 L 416,176 L 208,416 Z" fill="#4682b4" opacity="1" stroke-width="0" transform=" scale(0.058594, 0.058594) translate(3413.333333, 3413.333333) rotate(30, 256, 256)"/>
  </g>
</g>
  </g>
</svg>
