<?xml version='1.0' encoding='ASCII' standalone='yes'?>
<svg xmlns="http://www.w3.org/2000/svg" xmlns:xlink="http://www.w3.org/1999/xlink" version="1.1" width="150.0px" viewBox="0 0 150.0 150.0" height="150.0px">
  <g>
    <g transform="translate(0, 0) scale(0.3 0.3) "><defs>
    <clipPath id="custom_clip_path">
      <ellipse cx="250.0" cy="250.0" fill="none" opacity="1" rx="250.0" ry="250.0" stroke="none" stroke-width="0" transform=" rotate(0, 0, 0)"/>
    </clipPath>
  </defs>
  <a target="_blank" xlink:href="None">
    <ellipse cx="250.0" cy="250.0" fill="none" opacity="1" rx="250.0" ry="250.0" stroke="none" stroke-width="0" transform=" rotate(0, 0, 0)"/>
  </a>
  <g clip-path="url(#custom_clip_path)" transform=" rotate(30, 250, 250)">
    <rect fill="white" height="500" width="500" x="0" y="0"/>
    <ellipse cx="-237.5" cy="-12.5" fill="limegreen" opacity="1" rx="12.5" ry="12.5" stroke-width="0" transform=" rotate(0, -237, -12)"/>
    <ellipse cx="-172.5" cy="-12.5" fill="steelblue" opacity="1" rx="12.5" ry="12.5" stroke-width="0" transform=" rotate(0, -172, -12)"/>
    <ellipse cx="-107.5" cy="-12.5" fill="limegreen" opacity="1" rx="12.5" ry="12.5" stroke-width="0" transform=" rotate(0, -107, -12)"/>
    <ellipse cx="-42.5" cy="-12.5" fill="steelblue" opacity="1" rx="12.5" ry="12.5" stroke-width="0" transform=" rotate(0, -42, -12)"/>
    <ellipse cx="22.5" cy="-12.5" fill="limegreen" opacity="1" rx="12.5" ry="12.5" stroke-width="0" transform=" rotate(0, 22, -12)"/>
    <ellipse cx="87.5" cy="-12.5" fill="steelblue" opacity="1" rx="12.5" ry="12.5" stroke-width="0" transform=" rotate(0, 87, -12)"/>
    <ellipse cx="152.5" cy="-12.5" fill="limegreen" opacity="1" rx="12.5" ry="12.5" stroke-width="0" transform=" rotate(0, 152, -12)"/>
    <ellipse cx="217.5" cy="-12.5" fill="steelblue" opacity="1" rx="12.5" ry="12.5" stroke-width="0" transform=" rotate(0, 217, -12)"/>
    <ellipse cx="282.5" cy="-12.5" fill="limegreen" opacity="1" rx="12.5" ry="12.5" stroke-width="0" transform=" rotate(0, 282, -12)"/>
    <ellipse cx="347.5" cy="-12.5" fill="steelblue" opacity="1" rx="12.5" ry="12.5" stroke-width="0" transform=" rotate(0, 347, -12)"/>
    <ellipse cx="412.5" cy="-12.5" fill="limegreen" opacity="1" rx="12.5" ry="12.5" stroke-width="0" transform=" rotate(0, 412, -12)"/>
    <ellipse cx="477.5" cy="-12.5" fill="steelblue" opacity="1" rx="12.5" ry="12.5" stroke-width="0" transform=" rotate(0, 477, -12)"/>
    <ellipse cx="542.5" cy="-12.5" fill="limegreen" opacity="1" rx="12.5" ry="12.5" stroke-width="0" transform=" rotate(0, 542, -12)"/>
    <ellipse cx="607.5" cy="-12.5" fill="steelblue" opacity="1" rx="12.5" ry="12.5" stroke-width="0" transform=" rotate(0, 607, -12)"/>
    <ellipse cx="672.5" cy="-12.5" fill="limegreen" opacity="1" rx="12.5" ry="12.5" stroke-width="0" transform=" rotate(0, 672, -12)"/>
    <ellipse cx="737.5" cy="-12.5" fill="steelblue" opacity="1" rx="12.5" ry="12.5" stroke-width="0" transform=" rotate(0, 737, -12)"/>
    <ellipse cx="-237.5" cy="22.5" fill="limegreen" opacity="1" rx="12.5" ry="12.5" stroke-width="0" transform=" rotate(0, -237, 22)"/>
    <ellipse cx="-172.5" cy="22.5" fill="steelblue" opacity="1" rx="12.5" ry="12.5" stroke-width="0" transform=" rotate(0, -172, 22)"/>
    <ellipse cx="-107.5" cy="22.5" fill="limegreen" opacity="1" rx="12.5" ry="12.5" stroke-width="0" transform=" rotate(0, -107, 22)"/>
    <ellipse cx="-42.5" cy="22.5" fill="steelblue" opacity="1" rx="12.5" ry="12.5" stroke-width="0" transform=" rotate(0, -42, 22)"/>
    <ellipse cx="22.5" cy="22.5" fill="limegreen" opacity="1" rx="12.5" ry="12.5" stroke-width="0" transform=" rotate(0, 22, 22)"/>
    <ellipse cx="87.5" cy="22.5" fill="steelblue" opacity="1" rx="12.5" ry="12.5" stroke-width="0" transform=" rotate(0, 87, 22)"/>
    <ellipse cx="152.5" cy="22.5" fill="limegreen" opacity="1" rx="12.5" ry="12.5" stroke-width="0" transform=" rotate(0, 152, 22)"/>
    <ellipse cx="217.5" cy="22.5" fill="steelblue" opacity="1" rx="12.5" ry="12.5" stroke-width="0" transform=" rotate(0, 217, 22)"/>
    <ellipse cx="282.5" cy="22.5" fill="limegreen" opacity="1" rx="12.5" ry="12.5" stroke-width="0" transform=" rotate(0, 282, 22)"/>
    <ellipse cx="347.5" cy="22.5" fill="steelblue" opacity="1" rx="12.5" ry="12.5" stroke-width="0" transform=" rotate(0, 347, 22)"/>
    <ellipse cx="412.5" cy="22.5" fill="limegreen" opacity="1" rx="12.5" ry="12.5" stroke-width="0" transform=" rotate(0, 412, 22)"/>
    <ellipse cx="477.5" cy="22.5" fill="steelblue" opacity="1" rx="12.5" ry="12.5" stroke-width="0" transform=" rotate(0, 477, 22)"/>
    <ellipse cx="542.5" cy="22.5" fill="limegreen" opacity="1" rx="12.5" ry="12.5" stroke-width="0" transform=" rotate(0, 542, 22)"/>
    <ellipse cx="607.5" cy="22.5" fill="steelblue" opacity="1" rx="12.5" ry="12.5" stroke-width="0" transform=" rotate(0, 607, 22)"/>
    <ellipse cx="672.5" cy="22.5" fill="limegreen" opacity="1" rx="12.5" ry="12.5" stroke-width="0" transform=" rotate(0, 672, 22)"/>
    <ellipse cx="737.5" cy="22.5" fill="steelblue" opacity="1" rx="12.5" ry="12.5" stroke-width="0" transform=" rotate(0, 737, 22)"/>
    <ellipse cx="-237.5" cy="57.5" fill="limegreen" opacity="1" rx="12.5" ry="12.5" stroke-width="0" transform=" rotate(0, -237, 57)"/>
    <ellipse cx="-172.5" cy="57.5" fill="steelblue" opacity="1" rx="12.5" ry="12.5" stroke-width="0" transform=" rotate(0, -172, 57)"/>
    <ellipse cx="-107.5" cy="57.5" fill="limegreen" opacity="1" rx="12.5" ry="12.5" stroke-width="0" transform=" rotate(0, -107, 57)"/>
    <ellipse cx="-42.5" cy="57.5" fill="steelblue" opacity="1" rx="12.5" ry="12.5" stroke-width="0" transform=" rotate(0, -42, 57)"/>
    <ellipse cx="22.5" cy="57.5" fill="limegreen" opacity="1" rx="12.5" ry="12.5" stroke-width="0" transform=" rotate(0, 22, 57)"/>
    <ellipse cx="87.5" cy="57.5" fill="steelblue" opacity="1" rx="12.5" ry="12.5" stroke-width="0" transform=" rotate(0, 87, 57)"/>
    <ellipse cx="152.5" cy="57.5" fill="limegreen" opacity="1" rx="12.5" ry="12.5" stroke-width="0" transform=" rotate(0, 152, 57)"/>
    <ellipse cx="217.5" cy="57.5" fill="steelblue" opacity="1" rx="12.5" ry="12.5" stroke-width="0" transform=" rotate(0, 217, 57)"/>
    <ellipse cx="282.5" cy="57.5" fill="limegreen" opacity="1" rx="12.5" ry="12.5" stroke-width="0" transform=" rotate(0, 282, 57)"/>
    <ellipse cx="347.5" cy="57.5" fill="steelblue" opacity="1" rx="12.5" ry="12.5" stroke-width="0" transform=" rotate(0, 347, 57)"/>
    <ellipse cx="412.5" cy="57.5" fill="limegreen" opacity="1" rx="12.5" ry="12.5" stroke-width="0" transform=" rotate(0, 412, 57)"/>
    <ellipse cx="477.5" cy="57.5" fill="steelblue" opacity="1" rx="12.5" ry="12.5" stroke-width="0" transform=" rotate(0, 477, 57)"/>
    <ellipse cx="542.5" cy="57.5" fill="limegreen" opacity="1" rx="12.5" ry="12.5" stroke-width="0" transform=" rotate(0, 542, 57)"/>
    <ellipse cx="607.5" cy="57.5" fill="steelblue" opacity="1" rx="12.5" ry="12.5" stroke-width="0" transform=" rotate(0, 607, 57)"/>
    <ellipse cx="672.5" cy="57.5" fill="limegreen" opacity="1" rx="12.5" ry="12.5" stroke-width="0" transform=" rotate(0, 672, 57)"/>
    <ellipse cx="737.5" cy="57.5" fill="steelblue" opacity="1" rx="12.5" ry="12.5" stroke-width="0" transform=" rotate(0, 737, 57)"/>
    <ellipse cx="-237.5" cy="92.5" fill="limegreen" opacity="1" rx="12.5" ry="12.5" stroke-width="0" transform=" rotate(0, -237, 92)"/>
    <ellipse cx="-172.5" cy="92.5" fill="steelblue" opacity="1" rx="12.5" ry="12.5" stroke-width="0" transform=" rotate(0, -172, 92)"/>
    <ellipse cx="-107.5" cy="92.5" fill="limegreen" opacity="1" rx="12.5" ry="12.5" stroke-width="0" transform=" rotate(0, -107, 92)"/>
    <ellipse cx="-42.5" cy="92.5" fill="steelblue" opacity="1" rx="12.5" ry="12.5" stroke-width="0" transform=" rotate(0, -42, 92)"/>
    <ellipse cx="22.5" cy="92.5" fill="limegreen" opacity="1" rx="12.5" ry="12.5" stroke-width="0" transform=" rotate(0, 22, 92)"/>
    <ellipse cx="87.5" cy="92.5" fill="steelblue" opacity="1" rx="12.5" ry="12.5" stroke-width="0" transform=" rotate(0, 87, 92)"/>
    <ellipse cx="152.5" cy="92.5" fill="limegreen" opacity="1" rx="12.5" ry="12.5" stroke-width="0" transform=" rotate(0, 152, 92)"/>
    <ellipse cx="217.5" cy="92.5" fill="steelblue" opacity="1" rx="12.5" ry="12.5" stroke-width="0" transform=" rotate(0, 217, 92)"/>
    <ellipse cx="282.5" cy="92.5" fill="limegreen" opacity="1" rx="12.5" ry="12.5" stroke-width="0" transform=" rotate(0, 282, 92)"/>
    <ellipse cx="347.5" cy="92.5" fill="steelblue" opacity="1" rx="12.5" ry="12.5" stroke-width="0" transform=" rotate(0, 347, 92)"/>
    <ellipse cx="412.5" cy="92.5" fill="limegreen" opacity="1" rx="12.5" ry="12.5" stroke-width="0" transform=" rotate(0, 412, 92)"/>
    <ellipse cx="477.5" cy="92.5" fill="steelblue" opacity="1" rx="12.5" ry="12.5" stroke-width="0" transform=" rotate(0, 477, 92)"/>
    <ellipse cx="542.5" cy="92.5" fill="limegreen" opacity="1" rx="12.5" ry="12.5" stroke-width="0" transform=" rotate(0, 542, 92)"/>
    <ellipse cx="607.5" cy="92.5" fill="steelblue" opacity="1" rx="12.5" ry="12.5" stroke-width="0" transform=" rotate(0, 607, 92)"/>
    <ellipse cx="672.5" cy="92.5" fill="limegreen" opacity="1" rx="12.5" ry="12.5" stroke-width="0" transform=" rotate(0, 672, 92)"/>
    <ellipse cx="737.5" cy="92.5" fill="steelblue" opacity="1" rx="12.5" ry="12.5" stroke-width="0" transform=" rotate(0, 737, 92)"/>
    <ellipse cx="-237.5" cy="127.5" fill="limegreen" opacity="1" rx="12.5" ry="12.5" stroke-width="0" transform=" rotate(0, -237, 127)"/>
    <ellipse cx="-172.5" cy="127.5" fill="steelblue" opacity="1" rx="12.5" ry="12.5" stroke-width="0" transform=" rotate(0, -172, 127)"/>
    <ellipse cx="-107.5" cy="127.5" fill="limegreen" opacity="1" rx="12.5" ry="12.5" stroke-width="0" transform=" rotate(0, -107, 127)"/>
    <ellipse cx="-42.5" cy="127.5" fill="steelblue" opacity="1" rx="12.5" ry="12.5" stroke-width="0" transform=" rotate(0, -42, 127)"/>
    <ellipse cx="22.5" cy="127.5" fill="limegreen" opacity="1" rx="12.5" ry="12.5" stroke-width="0" transform=" rotate(0, 22, 127)"/>
    <ellipse cx="87.5" cy="127.5" fill="steelblue" opacity="1" rx="12.5" ry="12.5" stroke-width="0" transform=" rotate(0, 87, 127)"/>
    <ellipse cx="152.5" cy="127.5" fill="limegreen" opacity="1" rx="12.5" ry="12.5" stroke-width="0" transform=" rotate(0, 152, 127)"/>
    <ellipse cx="217.5" cy="127.5" fill="steelblue" opacity="1" rx="12.5" ry="12.5" stroke-width="0" transform=" rotate(0, 217, 127)"/>
    <ellipse cx="282.5" cy="127.5" fill="limegreen" opacity="1" rx="12.5" ry="12.5" stroke-width="0" transform=" rotate(0, 282, 127)"/>
    <ellipse cx="347.5" cy="127.5" fill="steelblue" opacity="1" rx="12.5" ry="12.5" stroke-width="0" transform=" rotate(0, 347, 127)"/>
    <ellipse cx="412.5" cy="127.5" fill="limegreen" opacity="1" rx="12.5" ry="12.5" stroke-width="0" transform=" rotate(0, 412, 127)"/>
    <ellipse cx="477.5" cy="127.5" fill="steelblue" opacity="1" rx="12.5" ry="12.5" stroke-width="0" transform=" rotate(0, 477, 127)"/>
    <ellipse cx="542.5" cy="127.5" fill="limegreen" opacity="1" rx="12.5" ry="12.5" stroke-width="0" transform=" rotate(0, 542, 127)"/>
    <ellipse cx="607.5" cy="127.5" fill="steelblue" opacity="1" rx="12.5" ry="12.5" stroke-width="0" transform=" rotate(0, 607, 127)"/>
    <ellipse cx="672.5" cy="127.5" fill="limegreen" opacity="1" rx="12.5" ry="12.5" stroke-width="0" transform=" rotate(0, 672, 127)"/>
    <ellipse cx="737.5" cy="127.5" fill="steelblue" opacity="1" rx="12.5" ry="12.5" stroke-width="0" transform=" rotate(0, 737, 127)"/>
    <ellipse cx="-237.5" cy="162.5" fill="limegreen" opacity="1" rx="12.5" ry="12.5" stroke-width="0" transform=" rotate(0, -237, 162)"/>
    <ellipse cx="-172.5" cy="162.5" fill="steelblue" opacity="1" rx="12.5" ry="12.5" stroke-width="0" transform=" rotate(0, -172, 162)"/>
    <ellipse cx="-107.5" cy="162.5" fill="limegreen" opacity="1" rx="12.5" ry="12.5" stroke-width="0" transform=" rotate(0, -107, 162)"/>
    <ellipse cx="-42.5" cy="162.5" fill="steelblue" opacity="1" rx="12.5" ry="12.5" stroke-width="0" transform=" rotate(0, -42, 162)"/>
    <ellipse cx="22.5" cy="162.5" fill="limegreen" opacity="1" rx="12.5" ry="12.5" stroke-width="0" transform=" rotate(0, 22, 162)"/>
    <ellipse cx="87.5" cy="162.5" fill="steelblue" opacity="1" rx="12.5" ry="12.5" stroke-width="0" transform=" rotate(0, 87, 162)"/>
    <ellipse cx="152.5" cy="162.5" fill="limegreen" opacity="1" rx="12.5" ry="12.5" stroke-width="0" transform=" rotate(0, 152, 162)"/>
    <ellipse cx="217.5" cy="162.5" fill="steelblue" opacity="1" rx="12.5" ry="12.5" stroke-width="0" transform=" rotate(0, 217, 162)"/>
    <ellipse cx="282.5" cy="162.5" fill="limegreen" opacity="1" rx="12.5" ry="12.5" stroke-width="0" transform=" rotate(0, 282, 162)"/>
    <ellipse cx="347.5" cy="162.5" fill="steelblue" opacity="1" rx="12.5" ry="12.5" stroke-width="0" transform=" rotate(0, 347, 162)"/>
    <ellipse cx="412.5" cy="162.5" fill="limegreen" opacity="1" rx="12.5" ry="12.5" stroke-width="0" transform=" rotate(0, 412, 162)"/>
    <ellipse cx="477.5" cy="162.5" fill="steelblue" opacity="1" rx="12.5" ry="12.5" stroke-width="0" transform=" rotate(0, 477, 162)"/>
    <ellipse cx="542.5" cy="162.5" fill="limegreen" opacity="1" rx="12.5" ry="12.5" stroke-width="0" transform=" rotate(0, 542, 162)"/>
    <ellipse cx="607.5" cy="162.5" fill="steelblue" opacity="1" rx="12.5" ry="12.5" stroke-width="0" transform=" rotate(0, 607, 162)"/>
    <ellipse cx="672.5" cy="162.5" fill="limegreen" opacity="1" rx="12.5" ry="12.5" stroke-width="0" transform=" rotate(0, 672, 162)"/>
    <ellipse cx="737.5" cy="162.5" fill="steelblue" opacity="1" rx="12.5" ry="12.5" stroke-width="0" transform=" rotate(0, 737, 162)"/>
    <ellipse cx="-237.5" cy="197.5" fill="limegreen" opacity="1" rx="12.5" ry="12.5" stroke-width="0" transform=" rotate(0, -237, 197)"/>
    <ellipse cx="-172.5" cy="197.5" fill="steelblue" opacity="1" rx="12.5" ry="12.5" stroke-width="0" transform=" rotate(0, -172, 197)"/>
    <ellipse cx="-107.5" cy="197.5" fill="limegreen" opacity="1" rx="12.5" ry="12.5" stroke-width="0" transform=" rotate(0, -107, 197)"/>
    <ellipse cx="-42.5" cy="197.5" fill="steelblue" opacity="1" rx="12.5" ry="12.5" stroke-width="0" transform=" rotate(0, -42, 197)"/>
    <ellipse cx="22.5" cy="197.5" fill="limegreen" opacity="1" rx="12.5" ry="12.5" stroke-width="0" transform=" rotate(0, 22, 197)"/>
    <ellipse cx="87.5" cy="197.5" fill="steelblue" opacity="1" rx="12.5" ry="12.5" stroke-width="0" transform=" rotate(0, 87, 197)"/>
    <ellipse cx="152.5" cy="197.5" fill="limegreen" opacity="1" rx="12.5" ry="12.5" stroke-width="0" transform=" rotate(0, 152, 197)"/>
    <ellipse cx="217.5" cy="197.5" fill="steelblue" opacity="1" rx="12.5" ry="12.5" stroke-width="0" transform=" rotate(0, 217, 197)"/>
    <ellipse cx="282.5" cy="197.5" fill="limegreen" opacity="1" rx="12.5" ry="12.5" stroke-width="0" transform=" rotate(0, 282, 197)"/>
    <ellipse cx="347.5" cy="197.5" fill="steelblue" opacity="1" rx="12.5" ry="12.5" stroke-width="0" transform=" rotate(0, 347, 197)"/>
    <ellipse cx="412.5" cy="197.5" fill="limegreen" opacity="1" rx="12.5" ry="12.5" stroke-width="0" transform=" rotate(0, 412, 197)"/>
    <ellipse cx="477.5" cy="197.5" fill="steelblue" opacity="1" rx="12.5" ry="12.5" stroke-width="0" transform=" rotate(0, 477, 197)"/>
    <ellipse cx="542.5" cy="197.5" fill="limegreen" opacity="1" rx="12.5" ry="12.5" stroke-width="0" transform=" rotate(0, 542, 197)"/>
    <ellipse cx="607.5" cy="197.5" fill="steelblue" opacity="1" rx="12.5" ry="12.5" stroke-width="0" transform=" rotate(0, 607, 197)"/>
    <ellipse cx="672.5" cy="197.5" fill="limegreen" opacity="1" rx="12.5" ry="12.5" stroke-width="0" transform=" rotate(0, 672, 197)"/>
    <ellipse cx="737.5" cy="197.5" fill="steelblue" opacity="1" rx="12.5" ry="12.5" stroke-width="0" transform=" rotate(0, 737, 197)"/>
    <ellipse cx="-237.5" cy="232.5" fill="limegreen" opacity="1" rx="12.5" ry="12.5" stroke-width="0" transform=" rotate(0, -237, 232)"/>
    <ellipse cx="-172.5" cy="232.5" fill="steelblue" opacity="1" rx="12.5" ry="12.5" stroke-width="0" transform=" rotate(0, -172, 232)"/>
    <ellipse cx="-107.5" cy="232.5" fill="limegreen" opacity="1" rx="12.5" ry="12.5" stroke-width="0" transform=" rotate(0, -107, 232)"/>
    <ellipse cx="-42.5" cy="232.5" fill="steelblue" opacity="1" rx="12.5" ry="12.5" stroke-width="0" transform=" rotate(0, -42, 232)"/>
    <ellipse cx="22.5" cy="232.5" fill="limegreen" opacity="1" rx="12.5" ry="12.5" stroke-width="0" transform=" rotate(0, 22, 232)"/>
    <ellipse cx="87.5" cy="232.5" fill="steelblue" opacity="1" rx="12.5" ry="12.5" stroke-width="0" transform=" rotate(0, 87, 232)"/>
    <ellipse cx="152.5" cy="232.5" fill="limegreen" opacity="1" rx="12.5" ry="12.5" stroke-width="0" transform=" rotate(0, 152, 232)"/>
    <ellipse cx="217.5" cy="232.5" fill="steelblue" opacity="1" rx="12.5" ry="12.5" stroke-width="0" transform=" rotate(0, 217, 232)"/>
    <ellipse cx="282.5" cy="232.5" fill="limegreen" opacity="1" rx="12.5" ry="12.5" stroke-width="0" transform=" rotate(0, 282, 232)"/>
    <ellipse cx="347.5" cy="232.5" fill="steelblue" opacity="1" rx="12.5" ry="12.5" stroke-width="0" transform=" rotate(0, 347, 232)"/>
    <ellipse cx="412.5" cy="232.5" fill="limegreen" opacity="1" rx="12.5" ry="12.5" stroke-width="0" transform=" rotate(0, 412, 232)"/>
    <ellipse cx="477.5" cy="232.5" fill="steelblue" opacity="1" rx="12.5" ry="12.5" stroke-width="0" transform=" rotate(0, 477, 232)"/>
    <ellipse cx="542.5" cy="232.5" fill="limegreen" opacity="1" rx="12.5" ry="12.5" stroke-width="0" transform=" rotate(0, 542, 232)"/>
    <ellipse cx="607.5" cy="232.5" fill="steelblue" opacity="1" rx="12.5" ry="12.5" stroke-width="0" transform=" rotate(0, 607, 232)"/>
    <ellipse cx="672.5" cy="232.5" fill="limegreen" opacity="1" rx="12.5" ry="12.5" stroke-width="0" transform=" rotate(0, 672, 232)"/>
    <ellipse cx="737.5" cy="232.5" fill="steelblue" opacity="1" rx="12.5" ry="12.5" stroke-width="0" transform=" rotate(0, 737, 232)"/>
    <ellipse cx="-237.5" cy="267.5" fill="limegreen" opacity="1" rx="12.5" ry="12.5" stroke-width="0" transform=" rotate(0, -237, 267)"/>
    <ellipse cx="-172.5" cy="267.5" fill="steelblue" opacity="1" rx="12.5" ry="12.5" stroke-width="0" transform=" rotate(0, -172, 267)"/>
    <ellipse cx="-107.5" cy="267.5" fill="limegreen" opacity="1" rx="12.5" ry="12.5" stroke-width="0" transform=" rotate(0, -107, 267)"/>
    <ellipse cx="-42.5" cy="267.5" fill="steelblue" opacity="1" rx="12.5" ry="12.5" stroke-width="0" transform=" rotate(0, -42, 267)"/>
    <ellipse cx="22.5" cy="267.5" fill="limegreen" opacity="1" rx="12.5" ry="12.5" stroke-width="0" transform=" rotate(0, 22, 267)"/>
    <ellipse cx="87.5" cy="267.5" fill="steelblue" opacity="1" rx="12.5" ry="12.5" stroke-width="0" transform=" rotate(0, 87, 267)"/>
    <ellipse cx="152.5" cy="267.5" fill="limegreen" opacity="1" rx="12.5" ry="12.5" stroke-width="0" transform=" rotate(0, 152, 267)"/>
    <ellipse cx="217.5" cy="267.5" fill="steelblue" opacity="1" rx="12.5" ry="12.5" stroke-width="0" transform=" rotate(0, 217, 267)"/>
    <ellipse cx="282.5" cy="267.5" fill="limegreen" opacity="1" rx="12.5" ry="12.5" stroke-width="0" transform=" rotate(0, 282, 267)"/>
    <ellipse cx="347.5" cy="267.5" fill="steelblue" opacity="1" rx="12.5" ry="12.5" stroke-width="0" transform=" rotate(0, 347, 267)"/>
    <ellipse cx="412.5" cy="267.5" fill="limegreen" opacity="1" rx="12.5" ry="12.5" stroke-width="0" transform=" rotate(0, 412, 267)"/>
    <ellipse cx="477.5" cy="267.5" fill="steelblue" opacity="1" rx="12.5" ry="12.5" stroke-width="0" transform=" rotate(0, 477, 267)"/>
    <ellipse cx="542.5" cy="267.5" fill="limegreen" opacity="1" rx="12.5" ry="12.5" stroke-width="0" transform=" rotate(0, 542, 267)"/>
    <ellipse cx="607.5" cy="267.5" fill="steelblue" opacity="1" rx="12.5" ry="12.5" stroke-width="0" transform=" rotate(0, 607, 267)"/>
    <ellipse cx="672.5" cy="267.5" fill="limegreen" opacity="1" rx="12.5" ry="12.5" stroke-width="0" transform=" rotate(0, 672, 267)"/>
    <ellipse cx="737.5" cy="267.5" fill="steelblue" opacity="1" rx="12.5" ry="12.5" stroke-width="0" transform=" rotate(0, 737, 267)"/>
    <ellipse cx="-237.5" cy="302.5" fill="limegreen" opacity="1" rx="12.5" ry="12.5" stroke-width="0" transform=" rotate(0, -237, 302)"/>
    <ellipse cx="-172.5" cy="302.5" fill="steelblue" opacity="1" rx="12.5" ry="12.5" stroke-width="0" transform=" rotate(0, -172, 302)"/>
    <ellipse cx="-107.5" cy="302.5" fill="limegreen" opacity="1" rx="12.5" ry="12.5" stroke-width="0" transform=" rotate(0, -107, 302)"/>
    <ellipse cx="-42.5" cy="302.5" fill="steelblue" opacity="1" rx="12.5" ry="12.5" stroke-width="0" transform=" rotate(0, -42, 302)"/>
    <ellipse cx="22.5" cy="302.5" fill="limegreen" opacity="1" rx="12.5" ry="12.5" stroke-width="0" transform=" rotate(0, 22, 302)"/>
    <ellipse cx="87.5" cy="302.5" fill="steelblue" opacity="1" rx="12.5" ry="12.5" stroke-width="0" transform=" rotate(0, 87, 302)"/>
    <ellipse cx="152.5" cy="302.5" fill="limegreen" opacity="1" rx="12.5" ry="12.5" stroke-width="0" transform=" rotate(0, 152, 302)"/>
    <ellipse cx="217.5" cy="302.5" fill="steelblue" opacity="1" rx="12.5" ry="12.5" stroke-width="0" transform=" rotate(0, 217, 302)"/>
    <ellipse cx="282.5" cy="302.5" fill="limegreen" opacity="1" rx="12.5" ry="12.5" stroke-width="0" transform=" rotate(0, 282, 302)"/>
    <ellipse cx="347.5" cy="302.5" fill="steelblue" opacity="1" rx="12.5" ry="12.5" stroke-width="0" transform=" rotate(0, 347, 302)"/>
    <ellipse cx="412.5" cy="302.5" fill="limegreen" opacity="1" rx="12.5" ry="12.5" stroke-width="0" transform=" rotate(0, 412, 302)"/>
    <ellipse cx="477.5" cy="302.5" fill="steelblue" opacity="1" rx="12.5" ry="12.5" stroke-width="0" transform=" rotate(0, 477, 302)"/>
    <ellipse cx="542.5" cy="302.5" fill="limegreen" opacity="1" rx="12.5" ry="12.5" stroke-width="0" transform=" rotate(0, 542, 302)"/>
    <ellipse cx="607.5" cy="302.5" fill="steelblue" opacity="1" rx="12.5" ry="12.5" stroke-width="0" transform=" rotate(0, 607, 302)"/>
    <ellipse cx="672.5" cy="302.5" fill="limegreen" opacity="1" rx="12.5" ry="12.5" stroke-width="0" transform=" rotate(0, 672, 302)"/>
    <ellipse cx="737.5" cy="302.5" fill="steelblue" opacity="1" rx="12.5" ry="12.5" stroke-width="0" transform=" rotate(0, 737, 302)"/>
    <ellipse cx="-237.5" cy="337.5" fill="limegreen" opacity="1" rx="12.5" ry="12.5" stroke-width="0" transform=" rotate(0, -237, 337)"/>
    <ellipse cx="-172.5" cy="337.5" fill="steelblue" opacity="1" rx="12.5" ry="12.5" stroke-width="0" transform=" rotate(0, -172, 337)"/>
    <ellipse cx="-107.5" cy="337.5" fill="limegreen" opacity="1" rx="12.5" ry="12.5" stroke-width="0" transform=" rotate(0, -107, 337)"/>
    <ellipse cx="-42.5" cy="337.5" fill="steelblue" opacity="1" rx="12.5" ry="12.5" stroke-width="0" transform=" rotate(0, -42, 337)"/>
    <ellipse cx="22.5" cy="337.5" fill="limegreen" opacity="1" rx="12.5" ry="12.5" stroke-width="0" transform=" rotate(0, 22, 337)"/>
    <ellipse cx="87.5" cy="337.5" fill="steelblue" opacity="1" rx="12.5" ry="12.5" stroke-width="0" transform=" rotate(0, 87, 337)"/>
    <ellipse cx="152.5" cy="337.5" fill="limegreen" opacity="1" rx="12.5" ry="12.5" stroke-width="0" transform=" rotate(0, 152, 337)"/>
    <ellipse cx="217.5" cy="337.5" fill="steelblue" opacity="1" rx="12.5" ry="12.5" stroke-width="0" transform=" rotate(0, 217, 337)"/>
    <ellipse cx="282.5" cy="337.5" fill="limegreen" opacity="1" rx="12.5" ry="12.5" stroke-width="0" transform=" rotate(0, 282, 337)"/>
    <ellipse cx="347.5" cy="337.5" fill="steelblue" opacity="1" rx="12.5" ry="12.5" stroke-width="0" transform=" rotate(0, 347, 337)"/>
    <ellipse cx="412.5" cy="337.5" fill="limegreen" opacity="1" rx="12.5" ry="12.5" stroke-width="0" transform=" rotate(0, 412, 337)"/>
    <ellipse cx="477.5" cy="337.5" fill="steelblue" opacity="1" rx="12.5" ry="12.5" stroke-width="0" transform=" rotate(0, 477, 337)"/>
    <ellipse cx="542.5" cy="337.5" fill="limegreen" opacity="1" rx="12.5" ry="12.5" stroke-width="0" transform=" rotate(0, 542, 337)"/>
    <ellipse cx="607.5" cy="337.5" fill="steelblue" opacity="1" rx="12.5" ry="12.5" stroke-width="0" transform=" rotate(0, 607, 337)"/>
    <ellipse cx="672.5" cy="337.5" fill="limegreen" opacity="1" rx="12.5" ry="12.5" stroke-width="0" transform=" rotate(0, 672, 337)"/>
    <ellipse cx="737.5" cy="337.5" fill="steelblue" opacity="1" rx="12.5" ry="12.5" stroke-width="0" transform=" rotate(0, 737, 337)"/>
    <ellipse cx="-237.5" cy="372.5" fill="limegreen" opacity="1" rx="12.5" ry="12.5" stroke-width="0" transform=" rotate(0, -237, 372)"/>
    <ellipse cx="-172.5" cy="372.5" fill="steelblue" opacity="1" rx="12.5" ry="12.5" stroke-width="0" transform=" rotate(0, -172, 372)"/>
    <ellipse cx="-107.5" cy="372.5" fill="limegreen" opacity="1" rx="12.5" ry="12.5" stroke-width="0" transform=" rotate(0, -107, 372)"/>
    <ellipse cx="-42.5" cy="372.5" fill="steelblue" opacity="1" rx="12.5" ry="12.5" stroke-width="0" transform=" rotate(0, -42, 372)"/>
    <ellipse cx="22.5" cy="372.5" fill="limegreen" opacity="1" rx="12.5" ry="12.5" stroke-width="0" transform=" rotate(0, 22, 372)"/>
    <ellipse cx="87.5" cy="372.5" fill="steelblue" opacity="1" rx="12.5" ry="12.5" stroke-width="0" transform=" rotate(0, 87, 372)"/>
    <ellipse cx="152.5" cy="372.5" fill="limegreen" opacity="1" rx="12.5" ry="12.5" stroke-width="0" transform=" rotate(0, 152, 372)"/>
    <ellipse cx="217.5" cy="372.5" fill="steelblue" opacity="1" rx="12.5" ry="12.5" stroke-width="0" transform=" rotate(0, 217, 372)"/>
    <ellipse cx="282.5" cy="372.5" fill="limegreen" opacity="1" rx="12.5" ry="12.5" stroke-width="0" transform=" rotate(0, 282, 372)"/>
    <ellipse cx="347.5" cy="372.5" fill="steelblue" opacity="1" rx="12.5" ry="12.5" stroke-width="0" transform=" rotate(0, 347, 372)"/>
    <ellipse cx="412.5" cy="372.5" fill="limegreen" opacity="1" rx="12.5" ry="12.5" stroke-width="0" transform=" rotate(0, 412, 372)"/>
    <ellipse cx="477.5" cy="372.5" fill="steelblue" opacity="1" rx="12.5" ry="12.5" stroke-width="0" transform=" rotate(0, 477, 372)"/>
    <ellipse cx="542.5" cy="372.5" fill="limegreen" opacity="1" rx="12.5" ry="12.5" stroke-width="0" transform=" rotate(0, 542, 372)"/>
    <ellipse cx="607.5" cy="372.5" fill="steelblue" opacity="1" rx="12.5" ry="12.5" stroke-width="0" transform=" rotate(0, 607, 372)"/>
    <ellipse cx="672.5" cy="372.5" fill="limegreen" opacity="1" rx="12.5" ry="12.5" stroke-width="0" transform=" rotate(0, 672, 372)"/>
    <ellipse cx="737.5" cy="372.5" fill="steelblue" opacity="1" rx="12.5" ry="12.5" stroke-width="0" transform=" rotate(0, 737, 372)"/>
    <ellipse cx="-237.5" cy="407.5" fill="limegreen" opacity="1" rx="12.5" ry="12.5" stroke-width="0" transform=" rotate(0, -237, 407)"/>
    <ellipse cx="-172.5" cy="407.5" fill="steelblue" opacity="1" rx="12.5" ry="12.5" stroke-width="0" transform=" rotate(0, -172, 407)"/>
    <ellipse cx="-107.5" cy="407.5" fill="limegreen" opacity="1" rx="12.5" ry="12.5" stroke-width="0" transform=" rotate(0, -107, 407)"/>
    <ellipse cx="-42.5" cy="407.5" fill="steelblue" opacity="1" rx="12.5" ry="12.5" stroke-width="0" transform=" rotate(0, -42, 407)"/>
    <ellipse cx="22.5" cy="407.5" fill="limegreen" opacity="1" rx="12.5" ry="12.5" stroke-width="0" transform=" rotate(0, 22, 407)"/>
    <ellipse cx="87.5" cy="407.5" fill="steelblue" opacity="1" rx="12.5" ry="12.5" stroke-width="0" transform=" rotate(0, 87, 407)"/>
    <ellipse cx="152.5" cy="407.5" fill="limegreen" opacity="1" rx="12.5" ry="12.5" stroke-width="0" transform=" rotate(0, 152, 407)"/>
    <ellipse cx="217.5" cy="407.5" fill="steelblue" opacity="1" rx="12.5" ry="12.5" stroke-width="0" transform=" rotate(0, 217, 407)"/>
    <ellipse cx="282.5" cy="407.5" fill="limegreen" opacity="1" rx="12.5" ry="12.5" stroke-width="0" transform=" rotate(0, 282, 407)"/>
    <ellipse cx="347.5" cy="407.5" fill="steelblue" opacity="1" rx="12.5" ry="12.5" stroke-width="0" transform=" rotate(0, 347, 407)"/>
    <ellipse cx="412.5" cy="407.5" fill="limegreen" opacity="1" rx="12.5" ry="12.5" stroke-width="0" transform=" rotate(0, 412, 407)"/>
    <ellipse cx="477.5" cy="407.5" fill="steelblue" opacity="1" rx="12.5" ry="12.5" stroke-width="0" transform=" rotate(0, 477, 407)"/>
    <ellipse cx="542.5" cy="407.5" fill="limegreen" opacity="1" rx="12.5" ry="12.5" stroke-width="0" transform=" rotate(0, 542, 407)"/>
    <ellipse cx="607.5" cy="407.5" fill="steelblue" opacity="1" rx="12.5" ry="12.5" stroke-width="0" transform=" rotate(0, 607, 407)"/>
    <ellipse cx="672.5" cy="407.5" fill="limegreen" opacity="1" rx="12.5" ry="12.5" stroke-width="0" transform=" rotate(0, 672, 407)"/>
    <ellipse cx="737.5" cy="407.5" fill="steelblue" opacity="1" rx="12.5" ry="12.5" stroke-width="0" transform=" rotate(0, 737, 407)"/>
    <ellipse cx="-237.5" cy="442.5" fill="limegreen" opacity="1" rx="12.5" ry="12.5" stroke-width="0" transform=" rotate(0, -237, 442)"/>
    <ellipse cx="-172.5" cy="442.5" fill="steelblue" opacity="1" rx="12.5" ry="12.5" stroke-width="0" transform=" rotate(0, -172, 442)"/>
    <ellipse cx="-107.5" cy="442.5" fill="limegreen" opacity="1" rx="12.5" ry="12.5" stroke-width="0" transform=" rotate(0, -107, 442)"/>
    <ellipse cx="-42.5" cy="442.5" fill="steelblue" opacity="1" rx="12.5" ry="12.5" stroke-width="0" transform=" rotate(0, -42, 442)"/>
    <ellipse cx="22.5" cy="442.5" fill="limegreen" opacity="1" rx="12.5" ry="12.5" stroke-width="0" transform=" rotate(0, 22, 442)"/>
    <ellipse cx="87.5" cy="442.5" fill="steelblue" opacity="1" rx="12.5" ry="12.5" stroke-width="0" transform=" rotate(0, 87, 442)"/>
    <ellipse cx="152.5" cy="442.5" fill="limegreen" opacity="1" rx="12.5" ry="12.5" stroke-width="0" transform=" rotate(0, 152, 442)"/>
    <ellipse cx="217.5" cy="442.5" fill="steelblue" opacity="1" rx="12.5" ry="12.5" stroke-width="0" transform=" rotate(0, 217, 442)"/>
    <ellipse cx="282.5" cy="442.5" fill="limegreen" opacity="1" rx="12.5" ry="12.5" stroke-width="0" transform=" rotate(0, 282, 442)"/>
    <ellipse cx="347.5" cy="442.5" fill="steelblue" opacity="1" rx="12.5" ry="12.5" stroke-width="0" transform=" rotate(0, 347, 442)"/>
    <ellipse cx="412.5" cy="442.5" fill="limegreen" opacity="1" rx="12.5" ry="12.5" stroke-width="0" transform=" rotate(0, 412, 442)"/>
    <ellipse cx="477.5" cy="442.5" fill="steelblue" opacity="1" rx="12.5" ry="12.5" stroke-width="0" transform=" rotate(0, 477, 442)"/>
    <ellipse cx="542.5" cy="442.5" fill="limegreen" opacity="1" rx="12.5" ry="12.5" stroke-width="0" transform=" rotate(0, 542, 442)"/>
    <ellipse cx="607.5" cy="442.5" fill="steelblue" opacity="1" rx="12.5" ry="12.5" stroke-width="0" transform=" rotate(0, 607, 442)"/>
    <ellipse cx="672.5" cy="442.5" fill="limegreen" opacity="1" rx="12.5" ry="12.5" stroke-width="0" transform=" rotate(0, 672, 442)"/>
    <ellipse cx="737.5" cy="442.5" fill="steelblue" opacity="1" rx="12.5" ry="12.5" stroke-width="0" transform=" rotate(0, 737, 442)"/>
    <ellipse cx="-237.5" cy="477.5" fill="limegreen" opacity="1" rx="12.5" ry="12.5" stroke-width="0" transform=" rotate(0, -237, 477)"/>
    <ellipse cx="-172.5" cy="477.5" fill="steelblue" opacity="1" rx="12.5" ry="12.5" stroke-width="0" transform=" rotate(0, -172, 477)"/>
    <ellipse cx="-107.5" cy="477.5" fill="limegreen" opacity="1" rx="12.5" ry="12.5" stroke-width="0" transform=" rotate(0, -107, 477)"/>
    <ellipse cx="-42.5" cy="477.5" fill="steelblue" opacity="1" rx="12.5" ry="12.5" stroke-width="0" transform=" rotate(0, -42, 477)"/>
    <ellipse cx="22.5" cy="477.5" fill="limegreen" opacity="1" rx="12.5" ry="12.5" stroke-width="0" transform=" rotate(0, 22, 477)"/>
    <ellipse cx="87.5" cy="477.5" fill="steelblue" opacity="1" rx="12.5" ry="12.5" stroke-width="0" transform=" rotate(0, 87, 477)"/>
    <ellipse cx="152.5" cy="477.5" fill="limegreen" opacity="1" rx="12.5" ry="12.5" stroke-width="0" transform=" rotate(0, 152, 477)"/>
    <ellipse cx="217.5" cy="477.5" fill="steelblue" opacity="1" rx="12.5" ry="12.5" stroke-width="0" transform=" rotate(0, 217, 477)"/>
    <ellipse cx="282.5" cy="477.5" fill="limegreen" opacity="1" rx="12.5" ry="12.5" stroke-width="0" transform=" rotate(0, 282, 477)"/>
    <ellipse cx="347.5" cy="477.5" fill="steelblue" opacity="1" rx="12.5" ry="12.5" stroke-width="0" transform=" rotate(0, 347, 477)"/>
    <ellipse cx="412.5" cy="477.5" fill="limegreen" opacity="1" rx="12.5" ry="12.5" stroke-width="0" transform=" rotate(0, 412, 477)"/>
    <ellipse cx="477.5" cy="477.5" fill="steelblue" opacity="1" rx="12.5" ry="12.5" stroke-width="0" transform=" rotate(0, 477, 477)"/>
    <ellipse cx="542.5" cy="477.5" fill="limegreen" opacity="1" rx="12.5" ry="12.5" stroke-width="0" transform=" rotate(0, 542, 477)"/>
    <ellipse cx="607.5" cy="477.5" fill="steelblue" opacity="1" rx="12.5" ry="12.5" stroke-width="0" transform=" rotate(0, 607, 477)"/>
    <ellipse cx="672.5" cy="477.5" fill="limegreen" opacity="1" rx="12.5" ry="12.5" stroke-width="0" transform=" rotate(0, 672, 477)"/>
    <ellipse cx="737.5" cy="477.5" fill="steelblue" opacity="1" rx="12.5" ry="12.5" stroke-width="0" transform=" rotate(0, 737, 477)"/>
    <ellipse cx="-237.5" cy="512.5" fill="limegreen" opacity="1" rx="12.5" ry="12.5" stroke-width="0" transform=" rotate(0, -237, 512)"/>
    <ellipse cx="-172.5" cy="512.5" fill="steelblue" opacity="1" rx="12.5" ry="12.5" stroke-width="0" transform=" rotate(0, -172, 512)"/>
    <ellipse cx="-107.5" cy="512.5" fill="limegreen" opacity="1" rx="12.5" ry="12.5" stroke-width="0" transform=" rotate(0, -107, 512)"/>
    <ellipse cx="-42.5" cy="512.5" fill="steelblue" opacity="1" rx="12.5" ry="12.5" stroke-width="0" transform=" rotate(0, -42, 512)"/>
    <ellipse cx="22.5" cy="512.5" fill="limegreen" opacity="1" rx="12.5" ry="12.5" stroke-width="0" transform=" rotate(0, 22, 512)"/>
    <ellipse cx="87.5" cy="512.5" fill="steelblue" opacity="1" rx="12.5" ry="12.5" stroke-width="0" transform=" rotate(0, 87, 512)"/>
    <ellipse cx="152.5" cy="512.5" fill="limegreen" opacity="1" rx="12.5" ry="12.5" stroke-width="0" transform=" rotate(0, 152, 512)"/>
    <ellipse cx="217.5" cy="512.5" fill="steelblue" opacity="1" rx="12.5" ry="12.5" stroke-width="0" transform=" rotate(0, 217, 512)"/>
    <ellipse cx="282.5" cy="512.5" fill="limegreen" opacity="1" rx="12.5" ry="12.5" stroke-width="0" transform=" rotate(0, 282, 512)"/>
    <ellipse cx="347.5" cy="512.5" fill="steelblue" opacity="1" rx="12.5" ry="12.5" stroke-width="0" transform=" rotate(0, 347, 512)"/>
    <ellipse cx="412.5" cy="512.5" fill="limegreen" opacity="1" rx="12.5" ry="12.5" stroke-width="0" transform=" rotate(0, 412, 512)"/>
    <ellipse cx="477.5" cy="512.5" fill="steelblue" opacity="1" rx="12.5" ry="12.5" stroke-width="0" transform=" rotate(0, 477, 512)"/>
    <ellipse cx="542.5" cy="512.5" fill="limegreen" opacity="1" rx="12.5" ry="12.5" stroke-width="0" transform=" rotate(0, 542, 512)"/>
    <ellipse cx="607.5" cy="512.5" fill="steelblue" opacity="1" rx="12.5" ry="12.5" stroke-width="0" transform=" rotate(0, 607, 512)"/>
    <ellipse cx="672.5" cy="512.5" fill="limegreen" opacity="1" rx="12.5" ry="12.5" stroke-width="0" transform=" rotate(0, 672, 512)"/>
    <ellipse cx="737.5" cy="512.5" fill="steelblue" opacity="1" rx="12.5" ry="12.5" stroke-width="0" transform=" rotate(0, 737, 512)"/>
  </g>
</g>
  </g>
</svg>
