<?xml version='1.0' encoding='ASCII' standalone='yes'?>
<svg xmlns="http://www.w3.org/2000/svg" xmlns:xlink="http://www.w3.org/1999/xlink" version="1.1" width="125.0px" viewBox="0 0 125.0 125.0" height="125.0px">
  <g>
    <g transform="translate(0, 0) scale(0.5 0.5) "><defs/>
  <g transform=" rotate(0, 125, 125)">
    <rect fill="white" height="250" width="250" x="0" y="0"/>
    <ellipse cx="36.94444444444444" cy="36.94444444444444" fill="#6dd6ff" opacity="1" rx="12.5" ry="12.5" stroke-width="0" transform=" rotate(0, 36, 36)"/>
    <ellipse cx="71.94444444444444" cy="36.94444444444444" fill="#6dd6ff" opacity="1" rx="12.5" ry="12.5" stroke-width="0" transform=" rotate(0, 71, 36)"/>
    <ellipse cx="106.94444444444444" cy="36.94444444444444" fill="#1b9fd8" opacity="1" rx="12.5" ry="12.5" stroke-width="0" transform=" rotate(0, 106, 36)"/>
    <ellipse cx="141.94444444444446" cy="36.94444444444444" fill="#1b9fd8" opacity="1" rx="12.5" ry="12.5" stroke-width="0" transform=" rotate(0, 141, 36)"/>
    <ellipse cx="176.94444444444446" cy="36.94444444444444" fill="#006ca1" opacity="1" rx="12.5" ry="12.5" stroke-width="0" transform=" rotate(0, 176, 36)"/>
    <ellipse cx="211.94444444444446" cy="36.94444444444444" fill="#006ca1" opacity="1" rx="12.5" ry="12.5" stroke-width="0" transform=" rotate(0, 211, 36)"/>
    <ellipse cx="36.94444444444444" cy="71.94444444444444" fill="#6dd6ff" opacity="1" rx="12.5" ry="12.5" stroke-width="0" transform=" rotate(0, 36, 71)"/>
    <ellipse cx="71.94444444444444" cy="71.94444444444444" fill="#6dd6ff" opacity="1" rx="12.5" ry="12.5" stroke-width="0" transform=" rotate(0, 71, 71)"/>
    <ellipse cx="106.94444444444444" cy="71.94444444444444" fill="#1b9fd8" opacity="1" rx="12.5" ry="12.5" stroke-width="0" transform=" rotate(0, 106, 71)"/>
    <ellipse cx="141.94444444444446" cy="71.94444444444444" fill="#1b9fd8" opacity="1" rx="12.5" ry="12.5" stroke-width="0" transform=" rotate(0, 141, 71)"/>
    <ellipse cx="176.94444444444446" cy="71.94444444444444" fill="#006ca1" opacity="1" rx="12.5" ry="12.5" stroke-width="0" transform=" rotate(0, 176, 71)"/>
    <ellipse cx="211.94444444444446" cy="71.94444444444444" fill="#006ca1" opacity="1" rx="12.5" ry="12.5" stroke-width="0" transform=" rotate(0, 211, 71)"/>
    <ellipse cx="36.94444444444444" cy="106.94444444444444" fill="#6dd6ff" opacity="1" rx="12.5" ry="12.5" stroke-width="0" transform=" rotate(0, 36, 106)"/>
    <ellipse cx="71.94444444444444" cy="106.94444444444444" fill="#6dd6ff" opacity="1" rx="12.5" ry="12.5" stroke-width="0" transform=" rotate(0, 71, 106)"/>
    <ellipse cx="106.94444444444444" cy="106.94444444444444" fill="#1b9fd8" opacity="1" rx="12.5" ry="12.5" stroke-width="0" transform=" rotate(0, 106, 106)"/>
    <ellipse cx="141.94444444444446" cy="106.94444444444444" fill="#1b9fd8" opacity="1" rx="12.5" ry="12.5" stroke-width="0" transform=" rotate(0, 141, 106)"/>
    <ellipse cx="176.94444444444446" cy="106.94444444444444" fill="#006ca1" opacity="1" rx="12.5" ry="12.5" stroke-width="0" transform=" rotate(0, 176, 106)"/>
    <ellipse cx="211.94444444444446" cy="106.94444444444444" fill="#006ca1" opacity="1" rx="12.5" ry="12.5" stroke-width="0" transform=" rotate(0, 211, 106)"/>
    <ellipse cx="36.94444444444444" cy="141.94444444444446" fill="#6dd6ff" opacity="1" rx="12.5" ry="12.5" stroke-width="0" transform=" rotate(0, 36, 141)"/>
    <ellipse cx="71.94444444444444" cy="141.94444444444446" fill="#6dd6ff" opacity="1" rx="12.5" ry="12.5" stroke-width="0" transform=" rotate(0, 71, 141)"/>
    <ellipse cx="106.94444444444444" cy="141.94444444444446" fill="#1b9fd8" opacity="1" rx="12.5" ry="12.5" stroke-width="0" transform=" rotate(0, 106, 141)"/>
    <ellipse cx="141.94444444444446" cy="141.94444444444446" fill="#1b9fd8" opacity="1" rx="12.5" ry="12.5" stroke-width="0" transform=" rotate(0, 141, 141)"/>
    <ellipse cx="176.94444444444446" cy="141.94444444444446" fill="#006ca1" opacity="1" rx="12.5" ry="12.5" stroke-width="0" transform=" rotate(0, 176, 141)"/>
    <ellipse cx="211.94444444444446" cy="141.94444444444446" fill="#006ca1" opacity="1" rx="12.5" ry="12.5" stroke-width="0" transform=" rotate(0, 211, 141)"/>
    <ellipse cx="36.94444444444444" cy="176.94444444444446" fill="#6dd6ff" opacity="1" rx="12.5" ry="12.5" stroke-width="0" transform=" rotate(0, 36, 176)"/>
    <ellipse cx="71.94444444444444" cy="176.94444444444446" fill="#6dd6ff" opacity="1" rx="12.5" ry="12.5" stroke-width="0" transform=" rotate(0, 71, 176)"/>
    <ellipse cx="106.94444444444444" cy="176.94444444444446" fill="#1b9fd8" opacity="1" rx="12.5" ry="12.5" stroke-width="0" transform=" rotate(0, 106, 176)"/>
    <ellipse cx="141.94444444444446" cy="176.94444444444446" fill="#1b9fd8" opacity="1" rx="12.5" ry="12.5" stroke-width="0" transform=" rotate(0, 141, 176)"/>
    <ellipse cx="176.94444444444446" cy="176.94444444444446" fill="#006ca1" opacity="1" rx="12.5" ry="12.5" stroke-width="0" transform=" rotate(0, 176, 176)"/>
    <ellipse cx="211.94444444444446" cy="176.94444444444446" fill="#006ca1" opacity="1" rx="12.5" ry="12.5" stroke-width="0" transform=" rotate(0, 211, 176)"/>
    <ellipse cx="36.94444444444444" cy="211.94444444444446" fill="#6dd6ff" opacity="1" rx="12.5" ry="12.5" stroke-width="0" transform=" rotate(0, 36, 211)"/>
    <ellipse cx="71.94444444444444" cy="211.94444444444446" fill="#6dd6ff" opacity="1" rx="12.5" ry="12.5" stroke-width="0" transform=" rotate(0, 71, 211)"/>
    <ellipse cx="106.94444444444444" cy="211.94444444444446" fill="#1b9fd8" opacity="1" rx="12.5" ry="12.5" stroke-width="0" transform=" rotate(0, 106, 211)"/>
    <ellipse cx="141.94444444444446" cy="211.94444444444446" fill="#1b9fd8" opacity="1" rx="12.5" ry="12.5" stroke-width="0" transform=" rotate(0, 141, 211)"/>
    <ellipse cx="176.94444444444446" cy="211.94444444444446" fill="#006ca1" opacity="1" rx="12.5" ry="12.5" stroke-width="0" transform=" rotate(0, 176, 211)"/>
    <ellipse cx="231.94444444444446" cy="231.94444444444446" fill="#006ca1" opacity="1" rx="12.5" ry="12.5" stroke-width="0" transform=" rotate(0, 231, 231)"/>
  </g>
</g>
  </g>
</svg>
