<?xml version='1.0' encoding='ASCII' standalone='yes'?>
<svg xmlns="http://www.w3.org/2000/svg" xmlns:xlink="http://www.w3.org/1999/xlink" version="1.1" width="125.0px" viewBox="0 0 125.0 125.0" height="125.0px">
  <g>
    <g transform="translate(0, 0) scale(0.5 0.5) "><defs/>
  <g transform=" rotate(0, 125, 125)">
    <rect fill="white" height="250" width="250" x="0" y="0"/>
    <rect fill="#6dd6ff" height="25" opacity="1" stroke-width="0" transform=" rotate(0, 37, 37)" width="25" x="25.0" y="25.0"/>
    <rect fill="#1b9fd8" height="15" opacity="1" stroke-width="0" transform=" rotate(0, 72, 37)" width="15" x="65.0" y="30.0"/>
    <rect fill="#006ca1" height="25" opacity="1" stroke-width="0" transform=" rotate(0, 107, 37)" width="25" x="95.0" y="25.0"/>
    <rect fill="#6dd6ff" height="15" opacity="1" stroke-width="0" transform=" rotate(0, 142, 37)" width="15" x="135.0" y="30.0"/>
    <rect fill="#1b9fd8" height="25" opacity="1" stroke-width="0" transform=" rotate(0, 177, 37)" width="25" x="165.0" y="25.0"/>
    <rect fill="#006ca1" height="15" opacity="1" stroke-width="0" transform=" rotate(0, 212, 37)" width="15" x="205.0" y="30.0"/>
    <ellipse cx="37.5" cy="72.5" fill="#1b9fd8" opacity="1" rx="12.5" ry="12.5" stroke-width="0" transform=" rotate(0, 37, 72)"/>
    <ellipse cx="72.5" cy="72.5" fill="#006ca1" opacity="1" rx="7.5" ry="7.5" stroke-width="0" transform=" rotate(0, 72, 72)"/>
    <ellipse cx="107.5" cy="72.5" fill="#6dd6ff" opacity="1" rx="12.5" ry="12.5" stroke-width="0" transform=" rotate(0, 107, 72)"/>
    <ellipse cx="142.5" cy="72.5" fill="#1b9fd8" opacity="1" rx="7.5" ry="7.5" stroke-width="0" transform=" rotate(0, 142, 72)"/>
    <ellipse cx="177.5" cy="72.5" fill="#006ca1" opacity="1" rx="12.5" ry="12.5" stroke-width="0" transform=" rotate(0, 177, 72)"/>
    <ellipse cx="212.5" cy="72.5" fill="#6dd6ff" opacity="1" rx="7.5" ry="7.5" stroke-width="0" transform=" rotate(0, 212, 72)"/>
    <polygon fill="#006ca1" opacity="1" points="25.0,120.0 37.5,95.0 50.0,120.0" stroke-width="0" transform=" rotate(0, 37, 107)"/>
    <polygon fill="#6dd6ff" opacity="1" points="65.0,115.0 72.5,100.0 80.0,115.0" stroke-width="0" transform=" rotate(0, 72, 107)"/>
    <polygon fill="#1b9fd8" opacity="1" points="95.0,120.0 107.5,95.0 120.0,120.0" stroke-width="0" transform=" rotate(0, 107, 107)"/>
    <polygon fill="#006ca1" opacity="1" points="135.0,115.0 142.5,100.0 150.0,115.0" stroke-width="0" transform=" rotate(0, 142, 107)"/>
    <polygon fill="#6dd6ff" opacity="1" points="165.0,120.0 177.5,95.0 190.0,120.0" stroke-width="0" transform=" rotate(0, 177, 107)"/>
    <polygon fill="#1b9fd8" opacity="1" points="205.0,115.0 212.5,100.0 220.0,115.0" stroke-width="0" transform=" rotate(0, 212, 107)"/>
    <rect fill="#6dd6ff" height="25" opacity="1" stroke-width="0" transform=" rotate(0, 37, 142)" width="25" x="25.0" y="130.0"/>
    <rect fill="#1b9fd8" height="15" opacity="1" stroke-width="0" transform=" rotate(0, 72, 142)" width="15" x="65.0" y="135.0"/>
    <rect fill="#006ca1" height="25" opacity="1" stroke-width="0" transform=" rotate(0, 107, 142)" width="25" x="95.0" y="130.0"/>
    <rect fill="#6dd6ff" height="15" opacity="1" stroke-width="0" transform=" rotate(0, 142, 142)" width="15" x="135.0" y="135.0"/>
    <rect fill="#1b9fd8" height="25" opacity="1" stroke-width="0" transform=" rotate(0, 177, 142)" width="25" x="165.0" y="130.0"/>
    <rect fill="#006ca1" height="15" opacity="1" stroke-width="0" transform=" rotate(0, 212, 142)" width="15" x="205.0" y="135.0"/>
    <ellipse cx="37.5" cy="177.5" fill="#1b9fd8" opacity="1" rx="12.5" ry="12.5" stroke-width="0" transform=" rotate(0, 37, 177)"/>
    <ellipse cx="72.5" cy="177.5" fill="#006ca1" opacity="1" rx="7.5" ry="7.5" stroke-width="0" transform=" rotate(0, 72, 177)"/>
    <ellipse cx="107.5" cy="177.5" fill="#6dd6ff" opacity="1" rx="12.5" ry="12.5" stroke-width="0" transform=" rotate(0, 107, 177)"/>
    <ellipse cx="142.5" cy="177.5" fill="#1b9fd8" opacity="1" rx="7.5" ry="7.5" stroke-width="0" transform=" rotate(0, 142, 177)"/>
    <ellipse cx="177.5" cy="177.5" fill="#006ca1" opacity="1" rx="12.5" ry="12.5" stroke-width="0" transform=" rotate(0, 177, 177)"/>
    <ellipse cx="212.5" cy="177.5" fill="#6dd6ff" opacity="1" rx="7.5" ry="7.5" stroke-width="0" transform=" rotate(0, 212, 177)"/>
    <polygon fill="#006ca1" opacity="1" points="25.0,225.0 37.5,200.0 50.0,225.0" stroke-width="0" transform=" rotate(0, 37, 212)"/>
    <polygon fill="#6dd6ff" opacity="1" points="65.0,220.0 72.5,205.0 80.0,220.0" stroke-width="0" transform=" rotate(0, 72, 212)"/>
    <polygon fill="#1b9fd8" opacity="1" points="95.0,225.0 107.5,200.0 120.0,225.0" stroke-width="0" transform=" rotate(0, 107, 212)"/>
    <polygon fill="#006ca1" opacity="1" points="135.0,220.0 142.5,205.0 150.0,220.0" stroke-width="0" transform=" rotate(0, 142, 212)"/>
    <polygon fill="#6dd6ff" opacity="1" points="165.0,225.0 177.5,200.0 190.0,225.0" stroke-width="0" transform=" rotate(0, 177, 212)"/>
    <polygon fill="#1b9fd8" opacity="1" points="205.0,220.0 212.5,205.0 220.0,220.0" stroke-width="0" transform=" rotate(0, 212, 212)"/>
  </g>
</g>
  </g>
</svg>
