<?xml version='1.0' encoding='ASCII' standalone='yes'?>
<svg xmlns="http://www.w3.org/2000/svg" xmlns:xlink="http://www.w3.org/1999/xlink" version="1.1" width="125.0px" viewBox="0 0 125.0 125.0" height="125.0px">
  <g>
    <g transform="translate(0, 0) scale(0.5 0.5) "><defs/>
  <g transform=" rotate(0, 125, 125)">
    <rect fill="white" height="250" width="250" x="0" y="0"/>
    <ellipse cx="29.0" cy="29.0" fill="steelblue" opacity="1" rx="7.5" ry="7.5" stroke-width="0" transform=" rotate(0, 29, 29)"/>
    <ellipse cx="53.0" cy="29.0" fill="#41AFBA" opacity="1" rx="7.5" ry="7.5" stroke-width="0" transform=" rotate(0, 53, 29)"/>
    <ellipse cx="77.0" cy="29.0" fill="limegreen" opacity="1" rx="7.5" ry="7.5" stroke-width="0" transform=" rotate(0, 77, 29)"/>
    <ellipse cx="101.0" cy="29.0" fill="steelblue" opacity="1" rx="7.5" ry="7.5" stroke-width="0" transform=" rotate(0, 101, 29)"/>
    <ellipse cx="125.0" cy="29.0" fill="#41AFBA" opacity="1" rx="7.5" ry="7.5" stroke-width="0" transform=" rotate(0, 125, 29)"/>
    <ellipse cx="149.0" cy="29.0" fill="limegreen" opacity="1" rx="7.5" ry="7.5" stroke-width="0" transform=" rotate(0, 149, 29)"/>
    <ellipse cx="173.0" cy="29.0" fill="steelblue" opacity="1" rx="7.5" ry="7.5" stroke-width="0" transform=" rotate(0, 173, 29)"/>
    <ellipse cx="197.0" cy="29.0" fill="#41AFBA" opacity="1" rx="7.5" ry="7.5" stroke-width="0" transform=" rotate(0, 197, 29)"/>
    <ellipse cx="221.0" cy="29.0" fill="limegreen" opacity="1" rx="7.5" ry="7.5" stroke-width="0" transform=" rotate(0, 221, 29)"/>
    <ellipse cx="29.0" cy="53.0" fill="#41AFBA" opacity="1" rx="7.5" ry="7.5" stroke-width="0" transform=" rotate(0, 29, 53)"/>
    <ellipse cx="53.0" cy="53.0" fill="steelblue" opacity="1" rx="7.5" ry="7.5" stroke-width="0" transform=" rotate(0, 53, 53)"/>
    <ellipse cx="77.0" cy="53.0" fill="#41AFBA" opacity="1" rx="7.5" ry="7.5" stroke-width="0" transform=" rotate(0, 77, 53)"/>
    <ellipse cx="101.0" cy="53.0" fill="limegreen" opacity="1" rx="7.5" ry="7.5" stroke-width="0" transform=" rotate(0, 101, 53)"/>
    <ellipse cx="125.0" cy="53.0" fill="steelblue" opacity="1" rx="7.5" ry="7.5" stroke-width="0" transform=" rotate(0, 125, 53)"/>
    <ellipse cx="149.0" cy="53.0" fill="#41AFBA" opacity="1" rx="7.5" ry="7.5" stroke-width="0" transform=" rotate(0, 149, 53)"/>
    <ellipse cx="173.0" cy="53.0" fill="limegreen" opacity="1" rx="7.5" ry="7.5" stroke-width="0" transform=" rotate(0, 173, 53)"/>
    <ellipse cx="197.0" cy="53.0" fill="steelblue" opacity="1" rx="7.5" ry="7.5" stroke-width="0" transform=" rotate(0, 197, 53)"/>
    <ellipse cx="221.0" cy="53.0" fill="#41AFBA" opacity="1" rx="7.5" ry="7.5" stroke-width="0" transform=" rotate(0, 221, 53)"/>
    <ellipse cx="29.0" cy="77.0" fill="limegreen" opacity="1" rx="7.5" ry="7.5" stroke-width="0" transform=" rotate(0, 29, 77)"/>
    <ellipse cx="53.0" cy="77.0" fill="#41AFBA" opacity="1" rx="7.5" ry="7.5" stroke-width="0" transform=" rotate(0, 53, 77)"/>
    <ellipse cx="77.0" cy="77.0" fill="steelblue" opacity="1" rx="7.5" ry="7.5" stroke-width="0" transform=" rotate(0, 77, 77)"/>
    <ellipse cx="101.0" cy="77.0" fill="#41AFBA" opacity="1" rx="7.5" ry="7.5" stroke-width="0" transform=" rotate(0, 101, 77)"/>
    <ellipse cx="125.0" cy="77.0" fill="limegreen" opacity="1" rx="7.5" ry="7.5" stroke-width="0" transform=" rotate(0, 125, 77)"/>
    <ellipse cx="149.0" cy="77.0" fill="steelblue" opacity="1" rx="7.5" ry="7.5" stroke-width="0" transform=" rotate(0, 149, 77)"/>
    <ellipse cx="173.0" cy="77.0" fill="#41AFBA" opacity="1" rx="7.5" ry="7.5" stroke-width="0" transform=" rotate(0, 173, 77)"/>
    <ellipse cx="197.0" cy="77.0" fill="limegreen" opacity="1" rx="7.5" ry="7.5" stroke-width="0" transform=" rotate(0, 197, 77)"/>
    <ellipse cx="221.0" cy="77.0" fill="steelblue" opacity="1" rx="7.5" ry="7.5" stroke-width="0" transform=" rotate(0, 221, 77)"/>
    <ellipse cx="29.0" cy="101.0" fill="steelblue" opacity="1" rx="7.5" ry="7.5" stroke-width="0" transform=" rotate(0, 29, 101)"/>
    <ellipse cx="53.0" cy="101.0" fill="limegreen" opacity="1" rx="7.5" ry="7.5" stroke-width="0" transform=" rotate(0, 53, 101)"/>
    <ellipse cx="77.0" cy="101.0" fill="#41AFBA" opacity="1" rx="7.5" ry="7.5" stroke-width="0" transform=" rotate(0, 77, 101)"/>
    <ellipse cx="101.0" cy="101.0" fill="steelblue" opacity="1" rx="7.5" ry="7.5" stroke-width="0" transform=" rotate(0, 101, 101)"/>
    <ellipse cx="125.0" cy="101.0" fill="#41AFBA" opacity="1" rx="7.5" ry="7.5" stroke-width="0" transform=" rotate(0, 125, 101)"/>
    <ellipse cx="149.0" cy="101.0" fill="limegreen" opacity="1" rx="7.5" ry="7.5" stroke-width="0" transform=" rotate(0, 149, 101)"/>
    <ellipse cx="173.0" cy="101.0" fill="steelblue" opacity="1" rx="7.5" ry="7.5" stroke-width="0" transform=" rotate(0, 173, 101)"/>
    <ellipse cx="197.0" cy="101.0" fill="#41AFBA" opacity="1" rx="7.5" ry="7.5" stroke-width="0" transform=" rotate(0, 197, 101)"/>
    <ellipse cx="221.0" cy="101.0" fill="limegreen" opacity="1" rx="7.5" ry="7.5" stroke-width="0" transform=" rotate(0, 221, 101)"/>
    <ellipse cx="29.0" cy="125.0" fill="#41AFBA" opacity="1" rx="7.5" ry="7.5" stroke-width="0" transform=" rotate(0, 29, 125)"/>
    <ellipse cx="53.0" cy="125.0" fill="steelblue" opacity="1" rx="7.5" ry="7.5" stroke-width="0" transform=" rotate(0, 53, 125)"/>
    <ellipse cx="77.0" cy="125.0" fill="limegreen" opacity="1" rx="7.5" ry="7.5" stroke-width="0" transform=" rotate(0, 77, 125)"/>
    <ellipse cx="101.0" cy="125.0" fill="#41AFBA" opacity="1" rx="7.5" ry="7.5" stroke-width="0" transform=" rotate(0, 101, 125)"/>
    <ellipse cx="125.0" cy="125.0" fill="steelblue" opacity="1" rx="7.5" ry="7.5" stroke-width="0" transform=" rotate(0, 125, 125)"/>
    <ellipse cx="149.0" cy="125.0" fill="#41AFBA" opacity="1" rx="7.5" ry="7.5" stroke-width="0" transform=" rotate(0, 149, 125)"/>
    <ellipse cx="173.0" cy="125.0" fill="limegreen" opacity="1" rx="7.5" ry="7.5" stroke-width="0" transform=" rotate(0, 173, 125)"/>
    <ellipse cx="197.0" cy="125.0" fill="steelblue" opacity="1" rx="7.5" ry="7.5" stroke-width="0" transform=" rotate(0, 197, 125)"/>
    <ellipse cx="221.0" cy="125.0" fill="#41AFBA" opacity="1" rx="7.5" ry="7.5" stroke-width="0" transform=" rotate(0, 221, 125)"/>
    <ellipse cx="29.0" cy="149.0" fill="limegreen" opacity="1" rx="7.5" ry="7.5" stroke-width="0" transform=" rotate(0, 29, 149)"/>
    <ellipse cx="53.0" cy="149.0" fill="#41AFBA" opacity="1" rx="7.5" ry="7.5" stroke-width="0" transform=" rotate(0, 53, 149)"/>
    <ellipse cx="77.0" cy="149.0" fill="steelblue" opacity="1" rx="7.5" ry="7.5" stroke-width="0" transform=" rotate(0, 77, 149)"/>
    <ellipse cx="101.0" cy="149.0" fill="limegreen" opacity="1" rx="7.5" ry="7.5" stroke-width="0" transform=" rotate(0, 101, 149)"/>
    <ellipse cx="125.0" cy="149.0" fill="#41AFBA" opacity="1" rx="7.5" ry="7.5" stroke-width="0" transform=" rotate(0, 125, 149)"/>
    <ellipse cx="149.0" cy="149.0" fill="steelblue" opacity="1" rx="7.5" ry="7.5" stroke-width="0" transform=" rotate(0, 149, 149)"/>
    <ellipse cx="173.0" cy="149.0" fill="#41AFBA" opacity="1" rx="7.5" ry="7.5" stroke-width="0" transform=" rotate(0, 173, 149)"/>
    <ellipse cx="197.0" cy="149.0" fill="limegreen" opacity="1" rx="7.5" ry="7.5" stroke-width="0" transform=" rotate(0, 197, 149)"/>
    <ellipse cx="221.0" cy="149.0" fill="steelblue" opacity="1" rx="7.5" ry="7.5" stroke-width="0" transform=" rotate(0, 221, 149)"/>
    <ellipse cx="29.0" cy="173.0" fill="steelblue" opacity="1" rx="7.5" ry="7.5" stroke-width="0" transform=" rotate(0, 29, 173)"/>
    <ellipse cx="53.0" cy="173.0" fill="limegreen" opacity="1" rx="7.5" ry="7.5" stroke-width="0" transform=" rotate(0, 53, 173)"/>
    <ellipse cx="77.0" cy="173.0" fill="#41AFBA" opacity="1" rx="7.5" ry="7.5" stroke-width="0" transform=" rotate(0, 77, 173)"/>
    <ellipse cx="101.0" cy="173.0" fill="steelblue" opacity="1" rx="7.5" ry="7.5" stroke-width="0" transform=" rotate(0, 101, 173)"/>
    <ellipse cx="125.0" cy="173.0" fill="limegreen" opacity="1" rx="7.5" ry="7.5" stroke-width="0" transform=" rotate(0, 125, 173)"/>
    <ellipse cx="149.0" cy="173.0" fill="#41AFBA" opacity="1" rx="7.5" ry="7.5" stroke-width="0" transform=" rotate(0, 149, 173)"/>
    <ellipse cx="173.0" cy="173.0" fill="steelblue" opacity="1" rx="7.5" ry="7.5" stroke-width="0" transform=" rotate(0, 173, 173)"/>
    <ellipse cx="197.0" cy="173.0" fill="#41AFBA" opacity="1" rx="7.5" ry="7.5" stroke-width="0" transform=" rotate(0, 197, 173)"/>
    <ellipse cx="221.0" cy="173.0" fill="limegreen" opacity="1" rx="7.5" ry="7.5" stroke-width="0" transform=" rotate(0, 221, 173)"/>
    <ellipse cx="29.0" cy="197.0" fill="#41AFBA" opacity="1" rx="7.5" ry="7.5" stroke-width="0" transform=" rotate(0, 29, 197)"/>
    <ellipse cx="53.0" cy="197.0" fill="steelblue" opacity="1" rx="7.5" ry="7.5" stroke-width="0" transform=" rotate(0, 53, 197)"/>
    <ellipse cx="77.0" cy="197.0" fill="limegreen" opacity="1" rx="7.5" ry="7.5" stroke-width="0" transform=" rotate(0, 77, 197)"/>
    <ellipse cx="101.0" cy="197.0" fill="#41AFBA" opacity="1" rx="7.5" ry="7.5" stroke-width="0" transform=" rotate(0, 101, 197)"/>
    <ellipse cx="125.0" cy="197.0" fill="steelblue" opacity="1" rx="7.5" ry="7.5" stroke-width="0" transform=" rotate(0, 125, 197)"/>
    <ellipse cx="149.0" cy="197.0" fill="limegreen" opacity="1" rx="7.5" ry="7.5" stroke-width="0" transform=" rotate(0, 149, 197)"/>
    <ellipse cx="173.0" cy="197.0" fill="#41AFBA" opacity="1" rx="7.5" ry="7.5" stroke-width="0" transform=" rotate(0, 173, 197)"/>
    <ellipse cx="197.0" cy="197.0" fill="steelblue" opacity="1" rx="7.5" ry="7.5" stroke-width="0" transform=" rotate(0, 197, 197)"/>
    <ellipse cx="221.0" cy="197.0" fill="#41AFBA" opacity="1" rx="7.5" ry="7.5" stroke-width="0" transform=" rotate(0, 221, 197)"/>
    <ellipse cx="29.0" cy="221.0" fill="limegreen" opacity="1" rx="7.5" ry="7.5" stroke-width="0" transform=" rotate(0, 29, 221)"/>
    <ellipse cx="53.0" cy="221.0" fill="#41AFBA" opacity="1" rx="7.5" ry="7.5" stroke-width="0" transform=" rotate(0, 53, 221)"/>
    <ellipse cx="77.0" cy="221.0" fill="steelblue" opacity="1" rx="7.5" ry="7.5" stroke-width="0" transform=" rotate(0, 77, 221)"/>
    <ellipse cx="101.0" cy="221.0" fill="limegreen" opacity="1" rx="7.5" ry="7.5" stroke-width="0" transform=" rotate(0, 101, 221)"/>
    <ellipse cx="125.0" cy="221.0" fill="#41AFBA" opacity="1" rx="7.5" ry="7.5" stroke-width="0" transform=" rotate(0, 125, 221)"/>
    <ellipse cx="149.0" cy="221.0" fill="steelblue" opacity="1" rx="7.5" ry="7.5" stroke-width="0" transform=" rotate(0, 149, 221)"/>
    <ellipse cx="173.0" cy="221.0" fill="limegreen" opacity="1" rx="7.5" ry="7.5" stroke-width="0" transform=" rotate(0, 173, 221)"/>
    <ellipse cx="197.0" cy="221.0" fill="#41AFBA" opacity="1" rx="7.5" ry="7.5" stroke-width="0" transform=" rotate(0, 197, 221)"/>
    <ellipse cx="221.0" cy="221.0" fill="steelblue" opacity="1" rx="7.5" ry="7.5" stroke-width="0" transform=" rotate(0, 221, 221)"/>
  </g>
</g>
  </g>
</svg>
