<?xml version='1.0' encoding='ASCII' standalone='yes'?>
<svg xmlns="http://www.w3.org/2000/svg" xmlns:xlink="http://www.w3.org/1999/xlink" version="1.1" width="125.0px" viewBox="0 0 125.0 125.0" height="125.0px">
  <g>
    <g transform="translate(0, 0) scale(0.5 0.5) "><defs/>
  <g transform=" rotate(0, 125, 125)">
    <rect fill="none" height="250" width="250" x="0" y="0"/>
    <path d="M 256,0 C 114.615,0 0,114.615 0,256 S 114.615,512 256,512 S 512,397.385 512,256 S 397.385,0 256,0 Z M 208,416 L 102,278 L 149,229 L 208,304 L 393,153 L 416,176 L 208,416 Z" fill="#6dd6ff" opacity="1" stroke-width="0" transform=" scale(0.058594, 0.058594) translate(341.333333, 341.333333) rotate(0, 256, 256)"/>
    <text fill="#69d4fe" opacity="1" stroke-width="0" style="text-align: middle; font-size:40.65px; font-family: Arial" text-anchor="middle" textLength="100%" transform=" rotate(0, 80, 35)" x="80.0" y="49.55">A</text>
    <text fill="#64d2fe" opacity="1" stroke-width="0" style="text-align: middle; font-size:40.65px; font-family: Arial" text-anchor="middle" textLength="100%" transform=" rotate(0, 125, 35)" x="125.0" y="49.55">p</text>
    <text fill="#60d0fd" opacity="1" stroke-width="0" style="text-align: middle; font-size:40.65px; font-family: Arial" text-anchor="middle" textLength="100%" transform=" rotate(0, 170, 35)" x="170.0" y="49.55">p</text>
    <path d="M 256,0 C 114.615,0 0,114.615 0,256 S 114.615,512 256,512 S 512,397.385 512,256 S 397.385,0 256,0 Z M 208,416 L 102,278 L 149,229 L 208,304 L 393,153 L 416,176 L 208,416 Z" fill="#5ccefc" opacity="1" stroke-width="0" transform=" scale(0.058594, 0.058594) translate(3413.333333, 341.333333) rotate(0, 256, 256)"/>
    <text fill="#58ccfb" opacity="1" stroke-width="0" style="text-align: middle; font-size:40.65px; font-family: Arial" text-anchor="middle" textLength="100%" transform=" rotate(0, 35, 80)" x="35.0" y="94.55">C</text>
    <text fill="#54cafa" opacity="1" stroke-width="0" style="text-align: middle; font-size:40.65px; font-family: Arial" text-anchor="middle" textLength="100%" transform=" rotate(0, 80, 80)" x="80.0" y="94.55">o</text>
    <text fill="#50c8f9" opacity="1" stroke-width="0" style="text-align: middle; font-size:40.65px; font-family: Arial" text-anchor="middle" textLength="100%" transform=" rotate(0, 125, 80)" x="125.0" y="94.55">d</text>
    <text fill="#4cc6f8" opacity="1" stroke-width="0" style="text-align: middle; font-size:40.65px; font-family: Arial" text-anchor="middle" textLength="100%" transform=" rotate(0, 170, 80)" x="170.0" y="94.55">e</text>
    <path d="M 256,0 C 114.615,0 0,114.615 0,256 S 114.615,512 256,512 S 512,397.385 512,256 S 397.385,0 256,0 Z M 208,416 L 102,278 L 149,229 L 208,304 L 393,153 L 416,176 L 208,416 Z" fill="#48c4f7" opacity="1" stroke-width="0" transform=" scale(0.058594, 0.058594) translate(3413.333333, 1109.333333) rotate(0, 256, 256)"/>
    <path d="M 256,0 C 114.615,0 0,114.615 0,256 S 114.615,512 256,512 S 512,397.385 512,256 S 397.385,0 256,0 Z M 208,416 L 102,278 L 149,229 L 208,304 L 393,153 L 416,176 L 208,416 Z" fill="#44c2f6" opacity="1" stroke-width="0" transform=" scale(0.058594, 0.058594) translate(341.333333, 1877.333333) rotate(0, 256, 256)"/>
    <text fill="#40c0f5" opacity="1" stroke-width="0" style="text-align: middle; font-size:40.65px; font-family: Arial" text-anchor="middle" textLength="100%" transform=" rotate(0, 80, 125)" x="80.0" y="139.55">O</text>
    <text fill="#3cbef4" opacity="1" stroke-width="0" style="text-align: middle; font-size:40.65px; font-family: Arial" text-anchor="middle" textLength="100%" transform=" rotate(0, 125, 125)" x="125.0" y="139.55">C</text>
    <text fill="#38bcf2" opacity="1" stroke-width="0" style="text-align: middle; font-size:40.65px; font-family: Arial" text-anchor="middle" textLength="100%" transform=" rotate(0, 170, 125)" x="170.0" y="139.55">T</text>
    <text fill="#34baf1" opacity="1" stroke-width="0" style="text-align: middle; font-size:40.65px; font-family: Arial" text-anchor="middle" textLength="100%" transform=" rotate(0, 215, 125)" x="215.0" y="139.55">A</text>
    <text fill="#31b8f0" opacity="1" stroke-width="0" style="text-align: middle; font-size:40.65px; font-family: Arial" text-anchor="middle" textLength="100%" transform=" rotate(0, 35, 170)" x="35.0" y="184.55">C</text>
    <text fill="#2db5ee" opacity="1" stroke-width="0" style="text-align: middle; font-size:40.65px; font-family: Arial" text-anchor="middle" textLength="100%" transform=" rotate(0, 80, 170)" x="80.0" y="184.55">o</text>
    <text fill="#2ab3ed" opacity="1" stroke-width="0" style="text-align: middle; font-size:40.65px; font-family: Arial" text-anchor="middle" textLength="100%" transform=" rotate(0, 125, 170)" x="125.0" y="184.55">d</text>
    <text fill="#26b1eb" opacity="1" stroke-width="0" style="text-align: middle; font-size:40.65px; font-family: Arial" text-anchor="middle" textLength="100%" transform=" rotate(0, 170, 170)" x="170.0" y="184.55">e</text>
    <path d="M 256,0 C 114.615,0 0,114.615 0,256 S 114.615,512 256,512 S 512,397.385 512,256 S 397.385,0 256,0 Z M 208,416 L 102,278 L 149,229 L 208,304 L 393,153 L 416,176 L 208,416 Z" fill="#22afea" opacity="1" stroke-width="0" transform=" scale(0.058594, 0.058594) translate(3413.333333, 2645.333333) rotate(0, 256, 256)"/>
    <path d="M 256,0 C 114.615,0 0,114.615 0,256 S 114.615,512 256,512 S 512,397.385 512,256 S 397.385,0 256,0 Z M 208,416 L 102,278 L 149,229 L 208,304 L 393,153 L 416,176 L 208,416 Z" fill="#1face8" opacity="1" stroke-width="0" transform=" scale(0.058594, 0.058594) translate(341.333333, 3413.333333) rotate(0, 256, 256)"/>
    <text fill="#1caae7" opacity="1" stroke-width="0" style="text-align: middle; font-size:40.65px; font-family: Arial" text-anchor="middle" textLength="100%" transform=" rotate(0, 80, 215)" x="80.0" y="229.55">A</text>
    <text fill="#1aa7e3" opacity="1" stroke-width="0" style="text-align: middle; font-size:40.65px; font-family: Arial" text-anchor="middle" textLength="100%" transform=" rotate(0, 125, 215)" x="125.0" y="229.55">p</text>
    <text fill="#1aa3de" opacity="1" stroke-width="0" style="text-align: middle; font-size:40.65px; font-family: Arial" text-anchor="middle" textLength="100%" transform=" rotate(0, 170, 215)" x="170.0" y="229.55">p</text>
    <path d="M 256,0 C 114.615,0 0,114.615 0,256 S 114.615,512 256,512 S 512,397.385 512,256 S 397.385,0 256,0 Z M 208,416 L 102,278 L 149,229 L 208,304 L 393,153 L 416,176 L 208,416 Z" fill="#1b9fd8" opacity="1" stroke-width="0" transform=" scale(0.058594, 0.058594) translate(3413.333333, 3413.333333) rotate(0, 256, 256)"/>
  </g>
  <a target="_blank" xlink:href="https://elinevg.github.io/OCTA/">
    <g transform=" rotate(0, 125, 125)">
      <rect fill="none" height="250" width="250" x="0" y="0"/>
      <path d="M 256,0 C 114.615,0 0,114.615 0,256 S 114.615,512 256,512 S 512,397.385 512,256 S 397.385,0 256,0 Z M 208,416 L 102,278 L 149,229 L 208,304 L 393,153 L 416,176 L 208,416 Z" fill="#6dd6ff" opacity="1" stroke-width="0" transform=" scale(0.058594, 0.058594) translate(341.333333, 341.333333) rotate(0, 256, 256)"/>
      <text fill="#69d4fe" opacity="1" stroke-width="0" style="text-align: middle; font-size:40.65px; font-family: Arial" text-anchor="middle" textLength="100%" transform=" rotate(0, 80, 35)" x="80.0" y="49.55">A</text>
      <text fill="#64d2fe" opacity="1" stroke-width="0" style="text-align: middle; font-size:40.65px; font-family: Arial" text-anchor="middle" textLength="100%" transform=" rotate(0, 125, 35)" x="125.0" y="49.55">p</text>
      <text fill="#60d0fd" opacity="1" stroke-width="0" style="text-align: middle; font-size:40.65px; font-family: Arial" text-anchor="middle" textLength="100%" transform=" rotate(0, 170, 35)" x="170.0" y="49.55">p</text>
      <path d="M 256,0 C 114.615,0 0,114.615 0,256 S 114.615,512 256,512 S 512,397.385 512,256 S 397.385,0 256,0 Z M 208,416 L 102,278 L 149,229 L 208,304 L 393,153 L 416,176 L 208,416 Z" fill="#5ccefc" opacity="1" stroke-width="0" transform=" scale(0.058594, 0.058594) translate(3413.333333, 341.333333) rotate(0, 256, 256)"/>
      <text fill="#58ccfb" opacity="1" stroke-width="0" style="text-align: middle; font-size:40.65px; font-family: Arial" text-anchor="middle" textLength="100%" transform=" rotate(0, 35, 80)" x="35.0" y="94.55">C</text>
      <text fill="#54cafa" opacity="1" stroke-width="0" style="text-align: middle; font-size:40.65px; font-family: Arial" text-anchor="middle" textLength="100%" transform=" rotate(0, 80, 80)" x="80.0" y="94.55">o</text>
      <text fill="#50c8f9" opacity="1" stroke-width="0" style="text-align: middle; font-size:40.65px; font-family: Arial" text-anchor="middle" textLength="100%" transform=" rotate(0, 125, 80)" x="125.0" y="94.55">d</text>
      <text fill="#4cc6f8" opacity="1" stroke-width="0" style="text-align: middle; font-size:40.65px; font-family: Arial" text-anchor="middle" textLength="100%" transform=" rotate(0, 170, 80)" x="170.0" y="94.55">e</text>
      <path d="M 256,0 C 114.615,0 0,114.615 0,256 S 114.615,512 256,512 S 512,397.385 512,256 S 397.385,0 256,0 Z M 208,416 L 102,278 L 149,229 L 208,304 L 393,153 L 416,176 L 208,416 Z" fill="#48c4f7" opacity="1" stroke-width="0" transform=" scale(0.058594, 0.058594) translate(3413.333333, 1109.333333) rotate(0, 256, 256)"/>
      <path d="M 256,0 C 114.615,0 0,114.615 0,256 S 114.615,512 256,512 S 512,397.385 512,256 S 397.385,0 256,0 Z M 208,416 L 102,278 L 149,229 L 208,304 L 393,153 L 416,176 L 208,416 Z" fill="#44c2f6" opacity="1" stroke-width="0" transform=" scale(0.058594, 0.058594) translate(341.333333, 1877.333333) rotate(0, 256, 256)"/>
      <text fill="#40c0f5" opacity="1" stroke-width="0" style="text-align: middle; font-size:40.65px; font-family: Arial" text-anchor="middle" textLength="100%" transform=" rotate(0, 80, 125)" x="80.0" y="139.55">O</text>
      <text fill="#3cbef4" opacity="1" stroke-width="0" style="text-align: middle; font-size:40.65px; font-family: Arial" text-anchor="middle" textLength="100%" transform=" rotate(0, 125, 125)" x="125.0" y="139.55">C</text>
      <text fill="#38bcf2" opacity="1" stroke-width="0" style="text-align: middle; font-size:40.65px; font-family: Arial" text-anchor="middle" textLength="100%" transform=" rotate(0, 170, 125)" x="170.0" y="139.55">T</text>
      <text fill="#34baf1" opacity="1" stroke-width="0" style="text-align: middle; font-size:40.65px; font-family: Arial" text-anchor="middle" textLength="100%" transform=" rotate(0, 215, 125)" x="215.0" y="139.55">A</text>
      <text fill="#31b8f0" opacity="1" stroke-width="0" style="text-align: middle; font-size:40.65px; font-family: Arial" text-anchor="middle" textLength="100%" transform=" rotate(0, 35, 170)" x="35.0" y="184.55">C</text>
      <text fill="#2db5ee" opacity="1" stroke-width="0" style="text-align: middle; font-size:40.65px; font-family: Arial" text-anchor="middle" textLength="100%" transform=" rotate(0, 80, 170)" x="80.0" y="184.55">o</text>
      <text fill="#2ab3ed" opacity="1" stroke-width="0" style="text-align: middle; font-size:40.65px; font-family: Arial" text-anchor="middle" textLength="100%" transform=" rotate(0, 125, 170)" x="125.0" y="184.55">d</text>
      <text fill="#26b1eb" opacity="1" stroke-width="0" style="text-align: middle; font-size:40.65px; font-family: Arial" text-anchor="middle" textLength="100%" transform=" rotate(0, 170, 170)" x="170.0" y="184.55">e</text>
      <path d="M 256,0 C 114.615,0 0,114.615 0,256 S 114.615,512 256,512 S 512,397.385 512,256 S 397.385,0 256,0 Z M 208,416 L 102,278 L 149,229 L 208,304 L 393,153 L 416,176 L 208,416 Z" fill="#22afea" opacity="1" stroke-width="0" transform=" scale(0.058594, 0.058594) translate(3413.333333, 2645.333333) rotate(0, 256, 256)"/>
      <path d="M 256,0 C 114.615,0 0,114.615 0,256 S 114.615,512 256,512 S 512,397.385 512,256 S 397.385,0 256,0 Z M 208,416 L 102,278 L 149,229 L 208,304 L 393,153 L 416,176 L 208,416 Z" fill="#1face8" opacity="1" stroke-width="0" transform=" scale(0.058594, 0.058594) translate(341.333333, 3413.333333) rotate(0, 256, 256)"/>
      <text fill="#1caae7" opacity="1" stroke-width="0" style="text-align: middle; font-size:40.65px; font-family: Arial" text-anchor="middle" textLength="100%" transform=" rotate(0, 80, 215)" x="80.0" y="229.55">A</text>
      <text fill="#1aa7e3" opacity="1" stroke-width="0" style="text-align: middle; font-size:40.65px; font-family: Arial" text-anchor="middle" textLength="100%" transform=" rotate(0, 125, 215)" x="125.0" y="229.55">p</text>
      <text fill="#1aa3de" opacity="1" stroke-width="0" style="text-align: middle; font-size:40.65px; font-family: Arial" text-anchor="middle" textLength="100%" transform=" rotate(0, 170, 215)" x="170.0" y="229.55">p</text>
      <path d="M 256,0 C 114.615,0 0,114.615 0,256 S 114.615,512 256,512 S 512,397.385 512,256 S 397.385,0 256,0 Z M 208,416 L 102,278 L 149,229 L 208,304 L 393,153 L 416,176 L 208,416 Z" fill="#1b9fd8" opacity="1" stroke-width="0" transform=" scale(0.058594, 0.058594) translate(3413.333333, 3413.333333) rotate(0, 256, 256)"/>
    </g>
  </a>
  <a target="_blank" xlink:href="https://elinevg.shinyapps.io/OCTA_toolbox/">
    <path d="M 256,0 C 114.615,0 0,114.615 0,256 S 114.615,512 256,512 S 512,397.385 512,256 S 397.385,0 256,0 Z M 208,416 L 102,278 L 149,229 L 208,304 L 393,153 L 416,176 L 208,416 Z" fill="#6dd6ff" opacity="1" stroke-width="0" transform=" scale(0.058594, 0.058594) translate(341.333333, 341.333333) rotate(0, 256, 256)"/>
  </a>
  <a target="_blank" xlink:href="https://elinevg.shinyapps.io/OCTA_toolbox/">
    <text fill="#69d4fe" opacity="1" stroke-width="0" style="text-align: middle; font-size:40.65px; font-family: Arial" text-anchor="middle" textLength="100%" transform=" rotate(0, 80, 35)" x="80.0" y="49.55">A</text>
  </a>
  <a target="_blank" xlink:href="https://elinevg.shinyapps.io/OCTA_toolbox/">
    <text fill="#64d2fe" opacity="1" stroke-width="0" style="text-align: middle; font-size:40.65px; font-family: Arial" text-anchor="middle" textLength="100%" transform=" rotate(0, 125, 35)" x="125.0" y="49.55">p</text>
  </a>
  <a target="_blank" xlink:href="https://elinevg.shinyapps.io/OCTA_toolbox/">
    <text fill="#60d0fd" opacity="1" stroke-width="0" style="text-align: middle; font-size:40.65px; font-family: Arial" text-anchor="middle" textLength="100%" transform=" rotate(0, 170, 35)" x="170.0" y="49.55">p</text>
  </a>
  <a target="_blank" xlink:href="https://elinevg.shinyapps.io/OCTA_toolbox/">
    <path d="M 256,0 C 114.615,0 0,114.615 0,256 S 114.615,512 256,512 S 512,397.385 512,256 S 397.385,0 256,0 Z M 208,416 L 102,278 L 149,229 L 208,304 L 393,153 L 416,176 L 208,416 Z" fill="#5ccefc" opacity="1" stroke-width="0" transform=" scale(0.058594, 0.058594) translate(3413.333333, 341.333333) rotate(0, 256, 256)"/>
  </a>
  <a target="_blank" xlink:href="https://github.com/gestaltrevision/OCTA_toolbox">
    <text fill="#58ccfb" opacity="1" stroke-width="0" style="text-align: middle; font-size:40.65px; font-family: Arial" text-anchor="middle" textLength="100%" transform=" rotate(0, 35, 80)" x="35.0" y="94.55">C</text>
  </a>
  <a target="_blank" xlink:href="https://github.com/gestaltrevision/OCTA_toolbox">
    <text fill="#54cafa" opacity="1" stroke-width="0" style="text-align: middle; font-size:40.65px; font-family: Arial" text-anchor="middle" textLength="100%" transform=" rotate(0, 80, 80)" x="80.0" y="94.55">o</text>
  </a>
  <a target="_blank" xlink:href="https://github.com/gestaltrevision/OCTA_toolbox">
    <text fill="#50c8f9" opacity="1" stroke-width="0" style="text-align: middle; font-size:40.65px; font-family: Arial" text-anchor="middle" textLength="100%" transform=" rotate(0, 125, 80)" x="125.0" y="94.55">d</text>
  </a>
  <a target="_blank" xlink:href="https://github.com/gestaltrevision/OCTA_toolbox">
    <text fill="#4cc6f8" opacity="1" stroke-width="0" style="text-align: middle; font-size:40.65px; font-family: Arial" text-anchor="middle" textLength="100%" transform=" rotate(0, 170, 80)" x="170.0" y="94.55">e</text>
  </a>
  <a target="_blank" xlink:href="https://github.com/gestaltrevision/OCTA_toolbox">
    <path d="M 256,0 C 114.615,0 0,114.615 0,256 S 114.615,512 256,512 S 512,397.385 512,256 S 397.385,0 256,0 Z M 208,416 L 102,278 L 149,229 L 208,304 L 393,153 L 416,176 L 208,416 Z" fill="#48c4f7" opacity="1" stroke-width="0" transform=" scale(0.058594, 0.058594) translate(3413.333333, 1109.333333) rotate(0, 256, 256)"/>
  </a>
  <a target="_blank" xlink:href="https://github.com/gestaltrevision/OCTA_toolbox">
    <text fill="#31b8f0" opacity="1" stroke-width="0" style="text-align: middle; font-size:40.65px; font-family: Arial" text-anchor="middle" textLength="100%" transform=" rotate(0, 35, 170)" x="35.0" y="184.55">C</text>
  </a>
  <a target="_blank" xlink:href="https://github.com/gestaltrevision/OCTA_toolbox">
    <text fill="#2db5ee" opacity="1" stroke-width="0" style="text-align: middle; font-size:40.65px; font-family: Arial" text-anchor="middle" textLength="100%" transform=" rotate(0, 80, 170)" x="80.0" y="184.55">o</text>
  </a>
  <a target="_blank" xlink:href="https://github.com/gestaltrevision/OCTA_toolbox">
    <text fill="#2ab3ed" opacity="1" stroke-width="0" style="text-align: middle; font-size:40.65px; font-family: Arial" text-anchor="middle" textLength="100%" transform=" rotate(0, 125, 170)" x="125.0" y="184.55">d</text>
  </a>
  <a target="_blank" xlink:href="https://github.com/gestaltrevision/OCTA_toolbox">
    <text fill="#26b1eb" opacity="1" stroke-width="0" style="text-align: middle; font-size:40.65px; font-family: Arial" text-anchor="middle" textLength="100%" transform=" rotate(0, 170, 170)" x="170.0" y="184.55">e</text>
  </a>
  <a target="_blank" xlink:href="https://github.com/gestaltrevision/OCTA_toolbox">
    <path d="M 256,0 C 114.615,0 0,114.615 0,256 S 114.615,512 256,512 S 512,397.385 512,256 S 397.385,0 256,0 Z M 208,416 L 102,278 L 149,229 L 208,304 L 393,153 L 416,176 L 208,416 Z" fill="#22afea" opacity="1" stroke-width="0" transform=" scale(0.058594, 0.058594) translate(3413.333333, 2645.333333) rotate(0, 256, 256)"/>
  </a>
  <a target="_blank" xlink:href="https://elinevg.shinyapps.io/OCTA_toolbox/">
    <path d="M 256,0 C 114.615,0 0,114.615 0,256 S 114.615,512 256,512 S 512,397.385 512,256 S 397.385,0 256,0 Z M 208,416 L 102,278 L 149,229 L 208,304 L 393,153 L 416,176 L 208,416 Z" fill="#1face8" opacity="1" stroke-width="0" transform=" scale(0.058594, 0.058594) translate(341.333333, 3413.333333) rotate(0, 256, 256)"/>
  </a>
  <a target="_blank" xlink:href="https://elinevg.shinyapps.io/OCTA_toolbox/">
    <text fill="#1caae7" opacity="1" stroke-width="0" style="text-align: middle; font-size:40.65px; font-family: Arial" text-anchor="middle" textLength="100%" transform=" rotate(0, 80, 215)" x="80.0" y="229.55">A</text>
  </a>
  <a target="_blank" xlink:href="https://elinevg.shinyapps.io/OCTA_toolbox/">
    <text fill="#1aa7e3" opacity="1" stroke-width="0" style="text-align: middle; font-size:40.65px; font-family: Arial" text-anchor="middle" textLength="100%" transform=" rotate(0, 125, 215)" x="125.0" y="229.55">p</text>
  </a>
  <a target="_blank" xlink:href="https://elinevg.shinyapps.io/OCTA_toolbox/">
    <text fill="#1aa3de" opacity="1" stroke-width="0" style="text-align: middle; font-size:40.65px; font-family: Arial" text-anchor="middle" textLength="100%" transform=" rotate(0, 170, 215)" x="170.0" y="229.55">p</text>
  </a>
  <a target="_blank" xlink:href="https://elinevg.shinyapps.io/OCTA_toolbox/">
    <path d="M 256,0 C 114.615,0 0,114.615 0,256 S 114.615,512 256,512 S 512,397.385 512,256 S 397.385,0 256,0 Z M 208,416 L 102,278 L 149,229 L 208,304 L 393,153 L 416,176 L 208,416 Z" fill="#1b9fd8" opacity="1" stroke-width="0" transform=" scale(0.058594, 0.058594) translate(3413.333333, 3413.333333) rotate(0, 256, 256)"/>
  </a>
</g>
  </g>
</svg>
