<?xml version='1.0' encoding='ASCII' standalone='yes'?>
<svg xmlns="http://www.w3.org/2000/svg" xmlns:xlink="http://www.w3.org/1999/xlink" version="1.1" width="125.0px" viewBox="0 0 125.0 125.0" height="125.0px">
  <g>
    <g transform="translate(0, 0) scale(0.5 0.5) "><defs/>
  <g transform=" rotate(0, 125, 125)">
    <rect fill="white" height="250" width="250" x="0" y="0"/>
    <path d="M 404.5,275.5 Q 383,301 403,354 T 386,427.5 T 303,386.5 T 229.5,372 T 200,369 T 172,316.5 T 108,299 T 107,257 T 93.5,176 T 98,121.5 T 190,146 T 248,106.5 T 310.5,44 T 393,64 T 450.5,124 T 446.5,208 T 404.5,275.5 Z" fill="#1b9fd8" opacity="1" stroke-width="0" transform=" scale(0.056906, 0.062951) translate(395.388842, 357.423637) rotate(0, 263, 238)"/>
    <path d="M 404.5,275.5 Q 383,301 403,354 T 386,427.5 T 303,386.5 T 229.5,372 T 200,369 T 172,316.5 T 108,299 T 107,257 T 93.5,176 T 98,121.5 T 190,146 T 248,106.5 T 310.5,44 T 393,64 T 450.5,124 T 446.5,208 T 404.5,275.5 Z" fill="#1b9fd8" opacity="1" stroke-width="0" transform=" scale(0.056906, 0.062951) translate(1010.438151, 357.423637) rotate(0, 263, 238)"/>
    <path d="M 404.5,275.5 Q 383,301 403,354 T 386,427.5 T 303,386.5 T 229.5,372 T 200,369 T 172,316.5 T 108,299 T 107,257 T 93.5,176 T 98,121.5 T 190,146 T 248,106.5 T 310.5,44 T 393,64 T 450.5,124 T 446.5,208 T 404.5,275.5 Z" fill="#1b9fd8" opacity="1" stroke-width="0" transform=" scale(0.056906, 0.062951) translate(1625.487461, 357.423637) rotate(0, 263, 238)"/>
    <path d="M 404.5,275.5 Q 383,301 403,354 T 386,427.5 T 303,386.5 T 229.5,372 T 200,369 T 172,316.5 T 108,299 T 107,257 T 93.5,176 T 98,121.5 T 190,146 T 248,106.5 T 310.5,44 T 393,64 T 450.5,124 T 446.5,208 T 404.5,275.5 Z" fill="#1b9fd8" opacity="1" stroke-width="0" transform=" scale(0.056906, 0.062951) translate(2240.536770, 357.423637) rotate(0, 263, 238)"/>
    <path d="M 404.5,275.5 Q 383,301 403,354 T 386,427.5 T 303,386.5 T 229.5,372 T 200,369 T 172,316.5 T 108,299 T 107,257 T 93.5,176 T 98,121.5 T 190,146 T 248,106.5 T 310.5,44 T 393,64 T 450.5,124 T 446.5,208 T 404.5,275.5 Z" fill="#1b9fd8" opacity="1" stroke-width="0" transform=" scale(0.056906, 0.062951) translate(2855.586079, 357.423637) rotate(0, 263, 238)"/>
    <path d="M 404.5,275.5 Q 383,301 403,354 T 386,427.5 T 303,386.5 T 229.5,372 T 200,369 T 172,316.5 T 108,299 T 107,257 T 93.5,176 T 98,121.5 T 190,146 T 248,106.5 T 310.5,44 T 393,64 T 450.5,124 T 446.5,208 T 404.5,275.5 Z" fill="#1b9fd8" opacity="1" stroke-width="0" transform=" scale(0.056906, 0.062951) translate(3470.635389, 357.423637) rotate(0, 263, 238)"/>
    <path d="M 404.5,275.5 Q 383,301 403,354 T 386,427.5 T 303,386.5 T 229.5,372 T 200,369 T 172,316.5 T 108,299 T 107,257 T 93.5,176 T 98,121.5 T 190,146 T 248,106.5 T 310.5,44 T 393,64 T 450.5,124 T 446.5,208 T 404.5,275.5 Z" fill="#1b9fd8" opacity="1" stroke-width="0" transform=" scale(0.056906, 0.062951) translate(395.388842, 913.415962) rotate(0, 263, 238)"/>
    <path d="M 404.5,275.5 Q 383,301 403,354 T 386,427.5 T 303,386.5 T 229.5,372 T 200,369 T 172,316.5 T 108,299 T 107,257 T 93.5,176 T 98,121.5 T 190,146 T 248,106.5 T 310.5,44 T 393,64 T 450.5,124 T 446.5,208 T 404.5,275.5 Z" fill="#1b9fd8" opacity="1" stroke-width="0" transform=" scale(0.056906, 0.062951) translate(1010.438151, 913.415962) rotate(0, 263, 238)"/>
    <path d="M 404.5,275.5 Q 383,301 403,354 T 386,427.5 T 303,386.5 T 229.5,372 T 200,369 T 172,316.5 T 108,299 T 107,257 T 93.5,176 T 98,121.5 T 190,146 T 248,106.5 T 310.5,44 T 393,64 T 450.5,124 T 446.5,208 T 404.5,275.5 Z" fill="#1b9fd8" opacity="1" stroke-width="0" transform=" scale(0.056906, 0.062951) translate(1625.487461, 913.415962) rotate(0, 263, 238)"/>
    <path d="M 404.5,275.5 Q 383,301 403,354 T 386,427.5 T 303,386.5 T 229.5,372 T 200,369 T 172,316.5 T 108,299 T 107,257 T 93.5,176 T 98,121.5 T 190,146 T 248,106.5 T 310.5,44 T 393,64 T 450.5,124 T 446.5,208 T 404.5,275.5 Z" fill="#1b9fd8" opacity="1" stroke-width="0" transform=" scale(0.056906, 0.062951) translate(2240.536770, 913.415962) rotate(0, 263, 238)"/>
    <path d="M 404.5,275.5 Q 383,301 403,354 T 386,427.5 T 303,386.5 T 229.5,372 T 200,369 T 172,316.5 T 108,299 T 107,257 T 93.5,176 T 98,121.5 T 190,146 T 248,106.5 T 310.5,44 T 393,64 T 450.5,124 T 446.5,208 T 404.5,275.5 Z" fill="#1b9fd8" opacity="1" stroke-width="0" transform=" scale(0.056906, 0.062951) translate(2855.586079, 913.415962) rotate(0, 263, 238)"/>
    <path d="M 404.5,275.5 Q 383,301 403,354 T 386,427.5 T 303,386.5 T 229.5,372 T 200,369 T 172,316.5 T 108,299 T 107,257 T 93.5,176 T 98,121.5 T 190,146 T 248,106.5 T 310.5,44 T 393,64 T 450.5,124 T 446.5,208 T 404.5,275.5 Z" fill="#1b9fd8" opacity="1" stroke-width="0" transform=" scale(0.056906, 0.062951) translate(3470.635389, 913.415962) rotate(0, 263, 238)"/>
    <path d="M 404.5,275.5 Q 383,301 403,354 T 386,427.5 T 303,386.5 T 229.5,372 T 200,369 T 172,316.5 T 108,299 T 107,257 T 93.5,176 T 98,121.5 T 190,146 T 248,106.5 T 310.5,44 T 393,64 T 450.5,124 T 446.5,208 T 404.5,275.5 Z" fill="#1b9fd8" opacity="1" stroke-width="0" transform=" scale(0.056906, 0.062951) translate(395.388842, 1469.408286) rotate(0, 263, 238)"/>
    <path d="M 404.5,275.5 Q 383,301 403,354 T 386,427.5 T 303,386.5 T 229.5,372 T 200,369 T 172,316.5 T 108,299 T 107,257 T 93.5,176 T 98,121.5 T 190,146 T 248,106.5 T 310.5,44 T 393,64 T 450.5,124 T 446.5,208 T 404.5,275.5 Z" fill="#1b9fd8" opacity="1" stroke-width="0" transform=" scale(0.056906, 0.062951) translate(1010.438151, 1469.408286) rotate(0, 263, 238)"/>
    <path d="M 404.5,275.5 Q 383,301 403,354 T 386,427.5 T 303,386.5 T 229.5,372 T 200,369 T 172,316.5 T 108,299 T 107,257 T 93.5,176 T 98,121.5 T 190,146 T 248,106.5 T 310.5,44 T 393,64 T 450.5,124 T 446.5,208 T 404.5,275.5 Z" fill="#1b9fd8" opacity="1" stroke-width="0" transform=" scale(0.056906, 0.062951) translate(1625.487461, 1469.408286) rotate(0, 263, 238)"/>
    <path d="M 404.5,275.5 Q 383,301 403,354 T 386,427.5 T 303,386.5 T 229.5,372 T 200,369 T 172,316.5 T 108,299 T 107,257 T 93.5,176 T 98,121.5 T 190,146 T 248,106.5 T 310.5,44 T 393,64 T 450.5,124 T 446.5,208 T 404.5,275.5 Z" fill="#1b9fd8" opacity="1" stroke-width="0" transform=" scale(0.056906, 0.062951) translate(2240.536770, 1469.408286) rotate(0, 263, 238)"/>
    <path d="M 404.5,275.5 Q 383,301 403,354 T 386,427.5 T 303,386.5 T 229.5,372 T 200,369 T 172,316.5 T 108,299 T 107,257 T 93.5,176 T 98,121.5 T 190,146 T 248,106.5 T 310.5,44 T 393,64 T 450.5,124 T 446.5,208 T 404.5,275.5 Z" fill="#1b9fd8" opacity="1" stroke-width="0" transform=" scale(0.056906, 0.062951) translate(2855.586079, 1469.408286) rotate(0, 263, 238)"/>
    <path d="M 404.5,275.5 Q 383,301 403,354 T 386,427.5 T 303,386.5 T 229.5,372 T 200,369 T 172,316.5 T 108,299 T 107,257 T 93.5,176 T 98,121.5 T 190,146 T 248,106.5 T 310.5,44 T 393,64 T 450.5,124 T 446.5,208 T 404.5,275.5 Z" fill="#1b9fd8" opacity="1" stroke-width="0" transform=" scale(0.056906, 0.062951) translate(3470.635389, 1469.408286) rotate(0, 263, 238)"/>
    <path d="M 404.5,275.5 Q 383,301 403,354 T 386,427.5 T 303,386.5 T 229.5,372 T 200,369 T 172,316.5 T 108,299 T 107,257 T 93.5,176 T 98,121.5 T 190,146 T 248,106.5 T 310.5,44 T 393,64 T 450.5,124 T 446.5,208 T 404.5,275.5 Z" fill="#1b9fd8" opacity="1" stroke-width="0" transform=" scale(0.056906, 0.062951) translate(395.388842, 2025.400611) rotate(0, 263, 238)"/>
    <path d="M 404.5,275.5 Q 383,301 403,354 T 386,427.5 T 303,386.5 T 229.5,372 T 200,369 T 172,316.5 T 108,299 T 107,257 T 93.5,176 T 98,121.5 T 190,146 T 248,106.5 T 310.5,44 T 393,64 T 450.5,124 T 446.5,208 T 404.5,275.5 Z" fill="#1b9fd8" opacity="1" stroke-width="0" transform=" scale(0.056906, 0.062951) translate(1010.438151, 2025.400611) rotate(0, 263, 238)"/>
    <path d="M 404.5,275.5 Q 383,301 403,354 T 386,427.5 T 303,386.5 T 229.5,372 T 200,369 T 172,316.5 T 108,299 T 107,257 T 93.5,176 T 98,121.5 T 190,146 T 248,106.5 T 310.5,44 T 393,64 T 450.5,124 T 446.5,208 T 404.5,275.5 Z" fill="#1b9fd8" opacity="1" stroke-width="0" transform=" scale(0.056906, 0.062951) translate(1625.487461, 2025.400611) rotate(0, 263, 238)"/>
    <path d="M 404.5,275.5 Q 383,301 403,354 T 386,427.5 T 303,386.5 T 229.5,372 T 200,369 T 172,316.5 T 108,299 T 107,257 T 93.5,176 T 98,121.5 T 190,146 T 248,106.5 T 310.5,44 T 393,64 T 450.5,124 T 446.5,208 T 404.5,275.5 Z" fill="#1b9fd8" opacity="1" stroke-width="0" transform=" scale(0.056906, 0.062951) translate(2240.536770, 2025.400611) rotate(0, 263, 238)"/>
    <path d="M 404.5,275.5 Q 383,301 403,354 T 386,427.5 T 303,386.5 T 229.5,372 T 200,369 T 172,316.5 T 108,299 T 107,257 T 93.5,176 T 98,121.5 T 190,146 T 248,106.5 T 310.5,44 T 393,64 T 450.5,124 T 446.5,208 T 404.5,275.5 Z" fill="#1b9fd8" opacity="1" stroke-width="0" transform=" scale(0.056906, 0.062951) translate(2855.586079, 2025.400611) rotate(0, 263, 238)"/>
    <path d="M 404.5,275.5 Q 383,301 403,354 T 386,427.5 T 303,386.5 T 229.5,372 T 200,369 T 172,316.5 T 108,299 T 107,257 T 93.5,176 T 98,121.5 T 190,146 T 248,106.5 T 310.5,44 T 393,64 T 450.5,124 T 446.5,208 T 404.5,275.5 Z" fill="#1b9fd8" opacity="1" stroke-width="0" transform=" scale(0.056906, 0.062951) translate(3470.635389, 2025.400611) rotate(0, 263, 238)"/>
    <path d="M 404.5,275.5 Q 383,301 403,354 T 386,427.5 T 303,386.5 T 229.5,372 T 200,369 T 172,316.5 T 108,299 T 107,257 T 93.5,176 T 98,121.5 T 190,146 T 248,106.5 T 310.5,44 T 393,64 T 450.5,124 T 446.5,208 T 404.5,275.5 Z" fill="#1b9fd8" opacity="1" stroke-width="0" transform=" scale(0.056906, 0.062951) translate(395.388842, 2581.392935) rotate(0, 263, 238)"/>
    <path d="M 404.5,275.5 Q 383,301 403,354 T 386,427.5 T 303,386.5 T 229.5,372 T 200,369 T 172,316.5 T 108,299 T 107,257 T 93.5,176 T 98,121.5 T 190,146 T 248,106.5 T 310.5,44 T 393,64 T 450.5,124 T 446.5,208 T 404.5,275.5 Z" fill="#1b9fd8" opacity="1" stroke-width="0" transform=" scale(0.056906, 0.062951) translate(1010.438151, 2581.392935) rotate(0, 263, 238)"/>
    <path d="M 404.5,275.5 Q 383,301 403,354 T 386,427.5 T 303,386.5 T 229.5,372 T 200,369 T 172,316.5 T 108,299 T 107,257 T 93.5,176 T 98,121.5 T 190,146 T 248,106.5 T 310.5,44 T 393,64 T 450.5,124 T 446.5,208 T 404.5,275.5 Z" fill="#1b9fd8" opacity="1" stroke-width="0" transform=" scale(0.056906, 0.062951) translate(1625.487461, 2581.392935) rotate(0, 263, 238)"/>
    <path d="M 404.5,275.5 Q 383,301 403,354 T 386,427.5 T 303,386.5 T 229.5,372 T 200,369 T 172,316.5 T 108,299 T 107,257 T 93.5,176 T 98,121.5 T 190,146 T 248,106.5 T 310.5,44 T 393,64 T 450.5,124 T 446.5,208 T 404.5,275.5 Z" fill="#1b9fd8" opacity="1" stroke-width="0" transform=" scale(0.056906, 0.062951) translate(2240.536770, 2581.392935) rotate(0, 263, 238)"/>
    <path d="M 404.5,275.5 Q 383,301 403,354 T 386,427.5 T 303,386.5 T 229.5,372 T 200,369 T 172,316.5 T 108,299 T 107,257 T 93.5,176 T 98,121.5 T 190,146 T 248,106.5 T 310.5,44 T 393,64 T 450.5,124 T 446.5,208 T 404.5,275.5 Z" fill="#1b9fd8" opacity="1" stroke-width="0" transform=" scale(0.056906, 0.062951) translate(2855.586079, 2581.392935) rotate(0, 263, 238)"/>
    <path d="M 404.5,275.5 Q 383,301 403,354 T 386,427.5 T 303,386.5 T 229.5,372 T 200,369 T 172,316.5 T 108,299 T 107,257 T 93.5,176 T 98,121.5 T 190,146 T 248,106.5 T 310.5,44 T 393,64 T 450.5,124 T 446.5,208 T 404.5,275.5 Z" fill="#1b9fd8" opacity="1" stroke-width="0" transform=" scale(0.056906, 0.062951) translate(3470.635389, 2581.392935) rotate(0, 263, 238)"/>
    <path d="M 404.5,275.5 Q 383,301 403,354 T 386,427.5 T 303,386.5 T 229.5,372 T 200,369 T 172,316.5 T 108,299 T 107,257 T 93.5,176 T 98,121.5 T 190,146 T 248,106.5 T 310.5,44 T 393,64 T 450.5,124 T 446.5,208 T 404.5,275.5 Z" fill="#1b9fd8" opacity="1" stroke-width="0" transform=" scale(0.056906, 0.062951) translate(395.388842, 3137.385260) rotate(0, 263, 238)"/>
    <path d="M 404.5,275.5 Q 383,301 403,354 T 386,427.5 T 303,386.5 T 229.5,372 T 200,369 T 172,316.5 T 108,299 T 107,257 T 93.5,176 T 98,121.5 T 190,146 T 248,106.5 T 310.5,44 T 393,64 T 450.5,124 T 446.5,208 T 404.5,275.5 Z" fill="#1b9fd8" opacity="1" stroke-width="0" transform=" scale(0.056906, 0.062951) translate(1010.438151, 3137.385260) rotate(0, 263, 238)"/>
    <path d="M 404.5,275.5 Q 383,301 403,354 T 386,427.5 T 303,386.5 T 229.5,372 T 200,369 T 172,316.5 T 108,299 T 107,257 T 93.5,176 T 98,121.5 T 190,146 T 248,106.5 T 310.5,44 T 393,64 T 450.5,124 T 446.5,208 T 404.5,275.5 Z" fill="#1b9fd8" opacity="1" stroke-width="0" transform=" scale(0.056906, 0.062951) translate(1625.487461, 3137.385260) rotate(0, 263, 238)"/>
    <path d="M 404.5,275.5 Q 383,301 403,354 T 386,427.5 T 303,386.5 T 229.5,372 T 200,369 T 172,316.5 T 108,299 T 107,257 T 93.5,176 T 98,121.5 T 190,146 T 248,106.5 T 310.5,44 T 393,64 T 450.5,124 T 446.5,208 T 404.5,275.5 Z" fill="#1b9fd8" opacity="1" stroke-width="0" transform=" scale(0.056906, 0.062951) translate(2240.536770, 3137.385260) rotate(0, 263, 238)"/>
    <path d="M 404.5,275.5 Q 383,301 403,354 T 386,427.5 T 303,386.5 T 229.5,372 T 200,369 T 172,316.5 T 108,299 T 107,257 T 93.5,176 T 98,121.5 T 190,146 T 248,106.5 T 310.5,44 T 393,64 T 450.5,124 T 446.5,208 T 404.5,275.5 Z" fill="#1b9fd8" opacity="1" stroke-width="0" transform=" scale(0.056906, 0.062951) translate(2855.586079, 3137.385260) rotate(0, 263, 238)"/>
    <path d="M 404.5,275.5 Q 383,301 403,354 T 386,427.5 T 303,386.5 T 229.5,372 T 200,369 T 172,316.5 T 108,299 T 107,257 T 93.5,176 T 98,121.5 T 190,146 T 248,106.5 T 310.5,44 T 393,64 T 450.5,124 T 446.5,208 T 404.5,275.5 Z" fill="#1b9fd8" opacity="1" stroke-width="0" transform=" scale(0.056906, 0.062951) translate(3470.635389, 3137.385260) rotate(0, 263, 238)"/>
  </g>
</g>
  </g>
</svg>
