<?xml version='1.0' encoding='ASCII' standalone='yes'?>
<svg xmlns="http://www.w3.org/2000/svg" xmlns:xlink="http://www.w3.org/1999/xlink" version="1.1" width="125.0px" viewBox="0 0 125.0 125.0" height="125.0px">
  <g>
    <g transform="translate(0, 0) scale(0.5 0.5) "><defs/>
  <g transform=" rotate(0, 125, 125)">
    <rect fill="white" height="250" width="250" x="0" y="0"/>
    <rect fill="#32cd32" height="15" opacity="1" stroke-width="0" transform=" rotate(0, 25, 124)" width="15" x="17.5" y="117.49999999999999"/>
    <ellipse cx="28.407417371093175" cy="99.1180954897479" fill="#33cc3d" opacity="1" rx="7.5" ry="7.5" stroke-width="0" transform=" rotate(0, 28, 99)"/>
    <rect fill="#34cb47" height="15" opacity="1" stroke-width="0" transform=" rotate(0, 38, 75)" width="15" x="30.897459621556123" y="67.5"/>
    <ellipse cx="54.28932188134526" cy="54.289321881345245" fill="#35ca51" opacity="1" rx="7.5" ry="7.5" stroke-width="0" transform=" rotate(0, 54, 54)"/>
    <rect fill="#36c95b" height="15" opacity="1" stroke-width="0" transform=" rotate(0, 75, 38)" width="15" x="67.50000000000003" y="30.897459621556123"/>
    <ellipse cx="99.11809548974792" cy="28.407417371093175" fill="#36c764" opacity="1" rx="7.5" ry="7.5" stroke-width="0" transform=" rotate(0, 99, 28)"/>
    <rect fill="#37c66e" height="15" opacity="1" stroke-width="0" transform=" rotate(0, 125, 25)" width="15" x="117.5" y="17.5"/>
    <ellipse cx="150.88190451025207" cy="28.407417371093175" fill="#38c577" opacity="1" rx="7.5" ry="7.5" stroke-width="0" transform=" rotate(0, 150, 28)"/>
    <rect fill="#39c47f" height="15" opacity="1" stroke-width="0" transform=" rotate(0, 175, 38)" width="15" x="167.5" y="30.897459621556138"/>
    <ellipse cx="195.71067811865476" cy="54.289321881345245" fill="#3ac388" opacity="1" rx="7.5" ry="7.5" stroke-width="0" transform=" rotate(0, 195, 54)"/>
    <rect fill="#3bc290" height="15" opacity="1" stroke-width="0" transform=" rotate(0, 211, 75)" width="15" x="204.10254037844388" y="67.5"/>
    <ellipse cx="221.59258262890683" cy="99.11809548974793" fill="#3cc198" opacity="1" rx="7.5" ry="7.5" stroke-width="0" transform=" rotate(0, 221, 99)"/>
    <rect fill="#3dc0a0" height="15" opacity="1" stroke-width="0" transform=" rotate(0, 225, 125)" width="15" x="217.5" y="117.5"/>
    <ellipse cx="221.59258262890683" cy="150.88190451025207" fill="#3dbfa8" opacity="1" rx="7.5" ry="7.5" stroke-width="0" transform=" rotate(0, 221, 150)"/>
    <rect fill="#3ebeaf" height="15" opacity="1" stroke-width="0" transform=" rotate(0, 211, 175)" width="15" x="204.10254037844388" y="167.5"/>
    <ellipse cx="195.71067811865476" cy="195.71067811865476" fill="#3fbdb6" opacity="1" rx="7.5" ry="7.5" stroke-width="0" transform=" rotate(0, 195, 195)"/>
    <rect fill="#40babc" height="15" opacity="1" stroke-width="0" transform=" rotate(0, 175, 211)" width="15" x="167.5" y="204.10254037844385"/>
    <ellipse cx="150.88190451025207" cy="221.59258262890683" fill="#41b1ba" opacity="1" rx="7.5" ry="7.5" stroke-width="0" transform=" rotate(0, 150, 221)"/>
    <rect fill="#42a9b9" height="15" opacity="1" stroke-width="0" transform=" rotate(0, 125, 225)" width="15" x="117.5" y="217.5"/>
    <ellipse cx="99.11809548974792" cy="221.59258262890683" fill="#43a1b8" opacity="1" rx="7.5" ry="7.5" stroke-width="0" transform=" rotate(0, 99, 221)"/>
    <rect fill="#4399b7" height="15" opacity="1" stroke-width="0" transform=" rotate(0, 75, 211)" width="15" x="67.50000000000003" y="204.10254037844388"/>
    <ellipse cx="54.28932188134526" cy="195.71067811865476" fill="#4491b6" opacity="1" rx="7.5" ry="7.5" stroke-width="0" transform=" rotate(0, 54, 195)"/>
    <rect fill="#4589b5" height="15" opacity="1" stroke-width="0" transform=" rotate(0, 38, 175)" width="15" x="30.897459621556123" y="167.5"/>
    <ellipse cx="28.407417371093175" cy="150.8819045102521" fill="#4682b4" opacity="1" rx="7.5" ry="7.5" stroke-width="0" transform=" rotate(0, 28, 150)"/>
  </g>
</g>
  </g>
</svg>
