<?xml version='1.0' encoding='ASCII' standalone='yes'?>
<svg xmlns="http://www.w3.org/2000/svg" xmlns:xlink="http://www.w3.org/1999/xlink" version="1.1" width="125.0px" viewBox="0 0 125.0 125.0" height="125.0px">
  <g>
    <g transform="translate(0, 0) scale(0.5 0.5) "><defs/>
  <g transform=" rotate(0, 125, 125)">
    <rect fill="white" height="250" width="250" x="0" y="0"/>
    <ellipse cx="20.0" cy="20.0" fill="#1b9fd8" opacity="1" rx="11.0" ry="11.0" stroke-width="0" transform=" rotate(0, 20, 20)"/>
    <ellipse cx="55.0" cy="20.0" fill="#1b9fd8" opacity="1" rx="11.0" ry="11.0" stroke-width="0" transform=" rotate(0, 55, 20)"/>
    <ellipse cx="90.0" cy="20.0" fill="#1b9fd8" opacity="1" rx="11.0" ry="11.0" stroke-width="0" transform=" rotate(0, 90, 20)"/>
    <ellipse cx="125.0" cy="20.0" fill="#1b9fd8" opacity="1" rx="11.0" ry="11.0" stroke-width="0" transform=" rotate(0, 125, 20)"/>
    <ellipse cx="160.0" cy="20.0" fill="#1b9fd8" opacity="1" rx="11.0" ry="11.0" stroke-width="0" transform=" rotate(0, 160, 20)"/>
    <ellipse cx="195.0" cy="20.0" fill="#1b9fd8" opacity="1" rx="11.0" ry="11.0" stroke-width="0" transform=" rotate(0, 195, 20)"/>
    <ellipse cx="230.0" cy="20.0" fill="#1b9fd8" opacity="1" rx="11.0" ry="11.0" stroke-width="0" transform=" rotate(0, 230, 20)"/>
    <ellipse cx="20.0" cy="55.0" fill="#1b9fd8" opacity="1" rx="11.0" ry="11.0" stroke-width="0" transform=" rotate(0, 20, 55)"/>
    <ellipse cx="55.0" cy="55.0" fill="#1b9fd8" opacity="1" rx="11.0" ry="11.0" stroke-width="0" transform=" rotate(0, 55, 55)"/>
    <ellipse cx="90.0" cy="55.0" fill="#1b9fd8" opacity="1" rx="11.0" ry="11.0" stroke-width="0" transform=" rotate(0, 90, 55)"/>
    <ellipse cx="125.0" cy="55.0" fill="#1b9fd8" opacity="1" rx="11.0" ry="11.0" stroke-width="0" transform=" rotate(0, 125, 55)"/>
    <ellipse cx="160.0" cy="55.0" fill="#1b9fd8" opacity="1" rx="11.0" ry="11.0" stroke-width="0" transform=" rotate(0, 160, 55)"/>
    <ellipse cx="195.0" cy="55.0" fill="#1b9fd8" opacity="1" rx="11.0" ry="11.0" stroke-width="0" transform=" rotate(0, 195, 55)"/>
    <ellipse cx="230.0" cy="55.0" fill="#1b9fd8" opacity="1" rx="11.0" ry="11.0" stroke-width="0" transform=" rotate(0, 230, 55)"/>
    <ellipse cx="20.0" cy="90.0" fill="#1b9fd8" opacity="1" rx="11.0" ry="11.0" stroke-width="0" transform=" rotate(0, 20, 90)"/>
    <ellipse cx="55.0" cy="90.0" fill="#1b9fd8" opacity="1" rx="11.0" ry="11.0" stroke-width="0" transform=" rotate(0, 55, 90)"/>
    <ellipse cx="90.0" cy="90.0" fill="#1b9fd8" opacity="1" rx="11.0" ry="11.0" stroke-width="0" transform=" rotate(0, 90, 90)"/>
    <ellipse cx="125.0" cy="90.0" fill="#1b9fd8" opacity="1" rx="11.0" ry="11.0" stroke-width="0" transform=" rotate(0, 125, 90)"/>
    <ellipse cx="160.0" cy="90.0" fill="#1b9fd8" opacity="1" rx="11.0" ry="11.0" stroke-width="0" transform=" rotate(0, 160, 90)"/>
    <ellipse cx="195.0" cy="90.0" fill="#1b9fd8" opacity="1" rx="11.0" ry="11.0" stroke-width="0" transform=" rotate(0, 195, 90)"/>
    <ellipse cx="230.0" cy="90.0" fill="#1b9fd8" opacity="1" rx="11.0" ry="11.0" stroke-width="0" transform=" rotate(0, 230, 90)"/>
    <ellipse cx="20.0" cy="125.0" fill="#1b9fd8" opacity="1" rx="11.0" ry="11.0" stroke-width="0" transform=" rotate(0, 20, 125)"/>
    <ellipse cx="55.0" cy="125.0" fill="#1b9fd8" opacity="1" rx="11.0" ry="11.0" stroke-width="0" transform=" rotate(0, 55, 125)"/>
    <ellipse cx="90.0" cy="125.0" fill="#1b9fd8" opacity="1" rx="11.0" ry="11.0" stroke-width="0" transform=" rotate(0, 90, 125)"/>
    <ellipse cx="125.0" cy="125.0" fill="#1b9fd8" opacity="1" rx="11.0" ry="11.0" stroke-width="0" transform=" rotate(0, 125, 125)"/>
    <ellipse cx="160.0" cy="125.0" fill="#1b9fd8" opacity="1" rx="11.0" ry="11.0" stroke-width="0" transform=" rotate(0, 160, 125)"/>
    <ellipse cx="195.0" cy="125.0" fill="#1b9fd8" opacity="1" rx="11.0" ry="11.0" stroke-width="0" transform=" rotate(0, 195, 125)"/>
    <ellipse cx="230.0" cy="125.0" fill="#1b9fd8" opacity="1" rx="11.0" ry="11.0" stroke-width="0" transform=" rotate(0, 230, 125)"/>
    <ellipse cx="20.0" cy="160.0" fill="#1b9fd8" opacity="1" rx="11.0" ry="11.0" stroke-width="0" transform=" rotate(0, 20, 160)"/>
    <ellipse cx="55.0" cy="160.0" fill="#1b9fd8" opacity="1" rx="11.0" ry="11.0" stroke-width="0" transform=" rotate(0, 55, 160)"/>
    <ellipse cx="90.0" cy="160.0" fill="#1b9fd8" opacity="1" rx="11.0" ry="11.0" stroke-width="0" transform=" rotate(0, 90, 160)"/>
    <ellipse cx="125.0" cy="160.0" fill="#1b9fd8" opacity="1" rx="11.0" ry="11.0" stroke-width="0" transform=" rotate(0, 125, 160)"/>
    <ellipse cx="160.0" cy="160.0" fill="#1b9fd8" opacity="1" rx="11.0" ry="11.0" stroke-width="0" transform=" rotate(0, 160, 160)"/>
    <ellipse cx="195.0" cy="160.0" fill="#1b9fd8" opacity="1" rx="11.0" ry="11.0" stroke-width="0" transform=" rotate(0, 195, 160)"/>
    <ellipse cx="230.0" cy="160.0" fill="#1b9fd8" opacity="1" rx="11.0" ry="11.0" stroke-width="0" transform=" rotate(0, 230, 160)"/>
    <ellipse cx="20.0" cy="195.0" fill="#1b9fd8" opacity="1" rx="11.0" ry="11.0" stroke-width="0" transform=" rotate(0, 20, 195)"/>
    <ellipse cx="55.0" cy="195.0" fill="#1b9fd8" opacity="1" rx="11.0" ry="11.0" stroke-width="0" transform=" rotate(0, 55, 195)"/>
    <ellipse cx="90.0" cy="195.0" fill="#1b9fd8" opacity="1" rx="11.0" ry="11.0" stroke-width="0" transform=" rotate(0, 90, 195)"/>
    <ellipse cx="125.0" cy="195.0" fill="#1b9fd8" opacity="1" rx="11.0" ry="11.0" stroke-width="0" transform=" rotate(0, 125, 195)"/>
    <ellipse cx="160.0" cy="195.0" fill="#1b9fd8" opacity="1" rx="11.0" ry="11.0" stroke-width="0" transform=" rotate(0, 160, 195)"/>
    <ellipse cx="195.0" cy="195.0" fill="#1b9fd8" opacity="1" rx="11.0" ry="11.0" stroke-width="0" transform=" rotate(0, 195, 195)"/>
    <ellipse cx="230.0" cy="195.0" fill="#1b9fd8" opacity="1" rx="11.0" ry="11.0" stroke-width="0" transform=" rotate(0, 230, 195)"/>
    <ellipse cx="20.0" cy="230.0" fill="#1b9fd8" opacity="1" rx="11.0" ry="11.0" stroke-width="0" transform=" rotate(0, 20, 230)"/>
    <ellipse cx="55.0" cy="230.0" fill="#1b9fd8" opacity="1" rx="11.0" ry="11.0" stroke-width="0" transform=" rotate(0, 55, 230)"/>
    <ellipse cx="90.0" cy="230.0" fill="#1b9fd8" opacity="1" rx="11.0" ry="11.0" stroke-width="0" transform=" rotate(0, 90, 230)"/>
    <ellipse cx="125.0" cy="230.0" fill="#1b9fd8" opacity="1" rx="11.0" ry="11.0" stroke-width="0" transform=" rotate(0, 125, 230)"/>
    <ellipse cx="160.0" cy="230.0" fill="#1b9fd8" opacity="1" rx="11.0" ry="11.0" stroke-width="0" transform=" rotate(0, 160, 230)"/>
    <ellipse cx="195.0" cy="230.0" fill="#1b9fd8" opacity="1" rx="11.0" ry="11.0" stroke-width="0" transform=" rotate(0, 195, 230)"/>
    <ellipse cx="230.0" cy="230.0" fill="#1b9fd8" opacity="1" rx="11.0" ry="11.0" stroke-width="0" transform=" rotate(0, 230, 230)"/>
  </g>
</g>
  </g>
</svg>
