<?xml version='1.0' encoding='ASCII' standalone='yes'?>
<svg xmlns="http://www.w3.org/2000/svg" xmlns:xlink="http://www.w3.org/1999/xlink" version="1.1" width="150.0px" viewBox="0 0 150.0 150.0" height="150.0px">
  <g>
    <g transform="translate(0, 0) scale(0.3 0.3) "><defs>
    <clipPath id="custom_clip_path">
      <ellipse cx="250.0" cy="250.0" fill="none" opacity="1" rx="250.0" ry="250.0" stroke="none" stroke-width="0" transform=" rotate(0, 0, 0)"/>
    </clipPath>
  </defs>
  <a target="_blank" xlink:href="None">
    <ellipse cx="250.0" cy="250.0" fill="none" opacity="1" rx="250.0" ry="250.0" stroke="none" stroke-width="0" transform=" rotate(0, 0, 0)"/>
  </a>
  <g clip-path="url(#custom_clip_path)" transform=" rotate(30, 250, 250)">
    <rect fill="white" height="500" width="500" x="0" y="0"/>
    <ellipse cx="-12.5" cy="-237.5" fill="limegreen" opacity="1" rx="12.5" ry="12.5" stroke-width="0" transform=" rotate(0, -12, -237)"/>
    <ellipse cx="22.5" cy="-237.5" fill="limegreen" opacity="1" rx="12.5" ry="12.5" stroke-width="0" transform=" rotate(0, 22, -237)"/>
    <ellipse cx="57.5" cy="-237.5" fill="limegreen" opacity="1" rx="12.5" ry="12.5" stroke-width="0" transform=" rotate(0, 57, -237)"/>
    <ellipse cx="92.5" cy="-237.5" fill="limegreen" opacity="1" rx="12.5" ry="12.5" stroke-width="0" transform=" rotate(0, 92, -237)"/>
    <ellipse cx="127.5" cy="-237.5" fill="limegreen" opacity="1" rx="12.5" ry="12.5" stroke-width="0" transform=" rotate(0, 127, -237)"/>
    <ellipse cx="162.5" cy="-237.5" fill="limegreen" opacity="1" rx="12.5" ry="12.5" stroke-width="0" transform=" rotate(0, 162, -237)"/>
    <ellipse cx="197.5" cy="-237.5" fill="limegreen" opacity="1" rx="12.5" ry="12.5" stroke-width="0" transform=" rotate(0, 197, -237)"/>
    <ellipse cx="232.5" cy="-237.5" fill="limegreen" opacity="1" rx="12.5" ry="12.5" stroke-width="0" transform=" rotate(0, 232, -237)"/>
    <ellipse cx="267.5" cy="-237.5" fill="limegreen" opacity="1" rx="12.5" ry="12.5" stroke-width="0" transform=" rotate(0, 267, -237)"/>
    <ellipse cx="302.5" cy="-237.5" fill="limegreen" opacity="1" rx="12.5" ry="12.5" stroke-width="0" transform=" rotate(0, 302, -237)"/>
    <ellipse cx="337.5" cy="-237.5" fill="limegreen" opacity="1" rx="12.5" ry="12.5" stroke-width="0" transform=" rotate(0, 337, -237)"/>
    <ellipse cx="372.5" cy="-237.5" fill="limegreen" opacity="1" rx="12.5" ry="12.5" stroke-width="0" transform=" rotate(0, 372, -237)"/>
    <ellipse cx="407.5" cy="-237.5" fill="limegreen" opacity="1" rx="12.5" ry="12.5" stroke-width="0" transform=" rotate(0, 407, -237)"/>
    <ellipse cx="442.5" cy="-237.5" fill="limegreen" opacity="1" rx="12.5" ry="12.5" stroke-width="0" transform=" rotate(0, 442, -237)"/>
    <ellipse cx="477.5" cy="-237.5" fill="limegreen" opacity="1" rx="12.5" ry="12.5" stroke-width="0" transform=" rotate(0, 477, -237)"/>
    <ellipse cx="512.5" cy="-237.5" fill="limegreen" opacity="1" rx="12.5" ry="12.5" stroke-width="0" transform=" rotate(0, 512, -237)"/>
    <ellipse cx="-12.5" cy="-172.5" fill="steelblue" opacity="1" rx="12.5" ry="12.5" stroke-width="0" transform=" rotate(0, -12, -172)"/>
    <ellipse cx="22.5" cy="-172.5" fill="steelblue" opacity="1" rx="12.5" ry="12.5" stroke-width="0" transform=" rotate(0, 22, -172)"/>
    <ellipse cx="57.5" cy="-172.5" fill="steelblue" opacity="1" rx="12.5" ry="12.5" stroke-width="0" transform=" rotate(0, 57, -172)"/>
    <ellipse cx="92.5" cy="-172.5" fill="steelblue" opacity="1" rx="12.5" ry="12.5" stroke-width="0" transform=" rotate(0, 92, -172)"/>
    <ellipse cx="127.5" cy="-172.5" fill="steelblue" opacity="1" rx="12.5" ry="12.5" stroke-width="0" transform=" rotate(0, 127, -172)"/>
    <ellipse cx="162.5" cy="-172.5" fill="steelblue" opacity="1" rx="12.5" ry="12.5" stroke-width="0" transform=" rotate(0, 162, -172)"/>
    <ellipse cx="197.5" cy="-172.5" fill="steelblue" opacity="1" rx="12.5" ry="12.5" stroke-width="0" transform=" rotate(0, 197, -172)"/>
    <ellipse cx="232.5" cy="-172.5" fill="steelblue" opacity="1" rx="12.5" ry="12.5" stroke-width="0" transform=" rotate(0, 232, -172)"/>
    <ellipse cx="267.5" cy="-172.5" fill="steelblue" opacity="1" rx="12.5" ry="12.5" stroke-width="0" transform=" rotate(0, 267, -172)"/>
    <ellipse cx="302.5" cy="-172.5" fill="steelblue" opacity="1" rx="12.5" ry="12.5" stroke-width="0" transform=" rotate(0, 302, -172)"/>
    <ellipse cx="337.5" cy="-172.5" fill="steelblue" opacity="1" rx="12.5" ry="12.5" stroke-width="0" transform=" rotate(0, 337, -172)"/>
    <ellipse cx="372.5" cy="-172.5" fill="steelblue" opacity="1" rx="12.5" ry="12.5" stroke-width="0" transform=" rotate(0, 372, -172)"/>
    <ellipse cx="407.5" cy="-172.5" fill="steelblue" opacity="1" rx="12.5" ry="12.5" stroke-width="0" transform=" rotate(0, 407, -172)"/>
    <ellipse cx="442.5" cy="-172.5" fill="steelblue" opacity="1" rx="12.5" ry="12.5" stroke-width="0" transform=" rotate(0, 442, -172)"/>
    <ellipse cx="477.5" cy="-172.5" fill="steelblue" opacity="1" rx="12.5" ry="12.5" stroke-width="0" transform=" rotate(0, 477, -172)"/>
    <ellipse cx="512.5" cy="-172.5" fill="steelblue" opacity="1" rx="12.5" ry="12.5" stroke-width="0" transform=" rotate(0, 512, -172)"/>
    <ellipse cx="-12.5" cy="-107.5" fill="limegreen" opacity="1" rx="12.5" ry="12.5" stroke-width="0" transform=" rotate(0, -12, -107)"/>
    <ellipse cx="22.5" cy="-107.5" fill="limegreen" opacity="1" rx="12.5" ry="12.5" stroke-width="0" transform=" rotate(0, 22, -107)"/>
    <ellipse cx="57.5" cy="-107.5" fill="limegreen" opacity="1" rx="12.5" ry="12.5" stroke-width="0" transform=" rotate(0, 57, -107)"/>
    <ellipse cx="92.5" cy="-107.5" fill="limegreen" opacity="1" rx="12.5" ry="12.5" stroke-width="0" transform=" rotate(0, 92, -107)"/>
    <ellipse cx="127.5" cy="-107.5" fill="limegreen" opacity="1" rx="12.5" ry="12.5" stroke-width="0" transform=" rotate(0, 127, -107)"/>
    <ellipse cx="162.5" cy="-107.5" fill="limegreen" opacity="1" rx="12.5" ry="12.5" stroke-width="0" transform=" rotate(0, 162, -107)"/>
    <ellipse cx="197.5" cy="-107.5" fill="limegreen" opacity="1" rx="12.5" ry="12.5" stroke-width="0" transform=" rotate(0, 197, -107)"/>
    <ellipse cx="232.5" cy="-107.5" fill="limegreen" opacity="1" rx="12.5" ry="12.5" stroke-width="0" transform=" rotate(0, 232, -107)"/>
    <ellipse cx="267.5" cy="-107.5" fill="limegreen" opacity="1" rx="12.5" ry="12.5" stroke-width="0" transform=" rotate(0, 267, -107)"/>
    <ellipse cx="302.5" cy="-107.5" fill="limegreen" opacity="1" rx="12.5" ry="12.5" stroke-width="0" transform=" rotate(0, 302, -107)"/>
    <ellipse cx="337.5" cy="-107.5" fill="limegreen" opacity="1" rx="12.5" ry="12.5" stroke-width="0" transform=" rotate(0, 337, -107)"/>
    <ellipse cx="372.5" cy="-107.5" fill="limegreen" opacity="1" rx="12.5" ry="12.5" stroke-width="0" transform=" rotate(0, 372, -107)"/>
    <ellipse cx="407.5" cy="-107.5" fill="limegreen" opacity="1" rx="12.5" ry="12.5" stroke-width="0" transform=" rotate(0, 407, -107)"/>
    <ellipse cx="442.5" cy="-107.5" fill="limegreen" opacity="1" rx="12.5" ry="12.5" stroke-width="0" transform=" rotate(0, 442, -107)"/>
    <ellipse cx="477.5" cy="-107.5" fill="limegreen" opacity="1" rx="12.5" ry="12.5" stroke-width="0" transform=" rotate(0, 477, -107)"/>
    <ellipse cx="512.5" cy="-107.5" fill="limegreen" opacity="1" rx="12.5" ry="12.5" stroke-width="0" transform=" rotate(0, 512, -107)"/>
    <ellipse cx="-12.5" cy="-42.5" fill="steelblue" opacity="1" rx="12.5" ry="12.5" stroke-width="0" transform=" rotate(0, -12, -42)"/>
    <ellipse cx="22.5" cy="-42.5" fill="steelblue" opacity="1" rx="12.5" ry="12.5" stroke-width="0" transform=" rotate(0, 22, -42)"/>
    <ellipse cx="57.5" cy="-42.5" fill="steelblue" opacity="1" rx="12.5" ry="12.5" stroke-width="0" transform=" rotate(0, 57, -42)"/>
    <ellipse cx="92.5" cy="-42.5" fill="steelblue" opacity="1" rx="12.5" ry="12.5" stroke-width="0" transform=" rotate(0, 92, -42)"/>
    <ellipse cx="127.5" cy="-42.5" fill="steelblue" opacity="1" rx="12.5" ry="12.5" stroke-width="0" transform=" rotate(0, 127, -42)"/>
    <ellipse cx="162.5" cy="-42.5" fill="steelblue" opacity="1" rx="12.5" ry="12.5" stroke-width="0" transform=" rotate(0, 162, -42)"/>
    <ellipse cx="197.5" cy="-42.5" fill="steelblue" opacity="1" rx="12.5" ry="12.5" stroke-width="0" transform=" rotate(0, 197, -42)"/>
    <ellipse cx="232.5" cy="-42.5" fill="steelblue" opacity="1" rx="12.5" ry="12.5" stroke-width="0" transform=" rotate(0, 232, -42)"/>
    <ellipse cx="267.5" cy="-42.5" fill="steelblue" opacity="1" rx="12.5" ry="12.5" stroke-width="0" transform=" rotate(0, 267, -42)"/>
    <ellipse cx="302.5" cy="-42.5" fill="steelblue" opacity="1" rx="12.5" ry="12.5" stroke-width="0" transform=" rotate(0, 302, -42)"/>
    <ellipse cx="337.5" cy="-42.5" fill="steelblue" opacity="1" rx="12.5" ry="12.5" stroke-width="0" transform=" rotate(0, 337, -42)"/>
    <ellipse cx="372.5" cy="-42.5" fill="steelblue" opacity="1" rx="12.5" ry="12.5" stroke-width="0" transform=" rotate(0, 372, -42)"/>
    <ellipse cx="407.5" cy="-42.5" fill="steelblue" opacity="1" rx="12.5" ry="12.5" stroke-width="0" transform=" rotate(0, 407, -42)"/>
    <ellipse cx="442.5" cy="-42.5" fill="steelblue" opacity="1" rx="12.5" ry="12.5" stroke-width="0" transform=" rotate(0, 442, -42)"/>
    <ellipse cx="477.5" cy="-42.5" fill="steelblue" opacity="1" rx="12.5" ry="12.5" stroke-width="0" transform=" rotate(0, 477, -42)"/>
    <ellipse cx="512.5" cy="-42.5" fill="steelblue" opacity="1" rx="12.5" ry="12.5" stroke-width="0" transform=" rotate(0, 512, -42)"/>
    <ellipse cx="-12.5" cy="22.5" fill="limegreen" opacity="1" rx="12.5" ry="12.5" stroke-width="0" transform=" rotate(0, -12, 22)"/>
    <ellipse cx="22.5" cy="22.5" fill="limegreen" opacity="1" rx="12.5" ry="12.5" stroke-width="0" transform=" rotate(0, 22, 22)"/>
    <ellipse cx="57.5" cy="22.5" fill="limegreen" opacity="1" rx="12.5" ry="12.5" stroke-width="0" transform=" rotate(0, 57, 22)"/>
    <ellipse cx="92.5" cy="22.5" fill="limegreen" opacity="1" rx="12.5" ry="12.5" stroke-width="0" transform=" rotate(0, 92, 22)"/>
    <ellipse cx="127.5" cy="22.5" fill="limegreen" opacity="1" rx="12.5" ry="12.5" stroke-width="0" transform=" rotate(0, 127, 22)"/>
    <ellipse cx="162.5" cy="22.5" fill="limegreen" opacity="1" rx="12.5" ry="12.5" stroke-width="0" transform=" rotate(0, 162, 22)"/>
    <ellipse cx="197.5" cy="22.5" fill="limegreen" opacity="1" rx="12.5" ry="12.5" stroke-width="0" transform=" rotate(0, 197, 22)"/>
    <ellipse cx="232.5" cy="22.5" fill="limegreen" opacity="1" rx="12.5" ry="12.5" stroke-width="0" transform=" rotate(0, 232, 22)"/>
    <ellipse cx="267.5" cy="22.5" fill="limegreen" opacity="1" rx="12.5" ry="12.5" stroke-width="0" transform=" rotate(0, 267, 22)"/>
    <ellipse cx="302.5" cy="22.5" fill="limegreen" opacity="1" rx="12.5" ry="12.5" stroke-width="0" transform=" rotate(0, 302, 22)"/>
    <ellipse cx="337.5" cy="22.5" fill="limegreen" opacity="1" rx="12.5" ry="12.5" stroke-width="0" transform=" rotate(0, 337, 22)"/>
    <ellipse cx="372.5" cy="22.5" fill="limegreen" opacity="1" rx="12.5" ry="12.5" stroke-width="0" transform=" rotate(0, 372, 22)"/>
    <ellipse cx="407.5" cy="22.5" fill="limegreen" opacity="1" rx="12.5" ry="12.5" stroke-width="0" transform=" rotate(0, 407, 22)"/>
    <ellipse cx="442.5" cy="22.5" fill="limegreen" opacity="1" rx="12.5" ry="12.5" stroke-width="0" transform=" rotate(0, 442, 22)"/>
    <ellipse cx="477.5" cy="22.5" fill="limegreen" opacity="1" rx="12.5" ry="12.5" stroke-width="0" transform=" rotate(0, 477, 22)"/>
    <ellipse cx="512.5" cy="22.5" fill="limegreen" opacity="1" rx="12.5" ry="12.5" stroke-width="0" transform=" rotate(0, 512, 22)"/>
    <ellipse cx="-12.5" cy="87.5" fill="steelblue" opacity="1" rx="12.5" ry="12.5" stroke-width="0" transform=" rotate(0, -12, 87)"/>
    <ellipse cx="22.5" cy="87.5" fill="steelblue" opacity="1" rx="12.5" ry="12.5" stroke-width="0" transform=" rotate(0, 22, 87)"/>
    <ellipse cx="57.5" cy="87.5" fill="steelblue" opacity="1" rx="12.5" ry="12.5" stroke-width="0" transform=" rotate(0, 57, 87)"/>
    <ellipse cx="92.5" cy="87.5" fill="steelblue" opacity="1" rx="12.5" ry="12.5" stroke-width="0" transform=" rotate(0, 92, 87)"/>
    <ellipse cx="127.5" cy="87.5" fill="steelblue" opacity="1" rx="12.5" ry="12.5" stroke-width="0" transform=" rotate(0, 127, 87)"/>
    <ellipse cx="162.5" cy="87.5" fill="steelblue" opacity="1" rx="12.5" ry="12.5" stroke-width="0" transform=" rotate(0, 162, 87)"/>
    <ellipse cx="197.5" cy="87.5" fill="steelblue" opacity="1" rx="12.5" ry="12.5" stroke-width="0" transform=" rotate(0, 197, 87)"/>
    <ellipse cx="232.5" cy="87.5" fill="steelblue" opacity="1" rx="12.5" ry="12.5" stroke-width="0" transform=" rotate(0, 232, 87)"/>
    <ellipse cx="267.5" cy="87.5" fill="steelblue" opacity="1" rx="12.5" ry="12.5" stroke-width="0" transform=" rotate(0, 267, 87)"/>
    <ellipse cx="302.5" cy="87.5" fill="steelblue" opacity="1" rx="12.5" ry="12.5" stroke-width="0" transform=" rotate(0, 302, 87)"/>
    <ellipse cx="337.5" cy="87.5" fill="steelblue" opacity="1" rx="12.5" ry="12.5" stroke-width="0" transform=" rotate(0, 337, 87)"/>
    <ellipse cx="372.5" cy="87.5" fill="steelblue" opacity="1" rx="12.5" ry="12.5" stroke-width="0" transform=" rotate(0, 372, 87)"/>
    <ellipse cx="407.5" cy="87.5" fill="steelblue" opacity="1" rx="12.5" ry="12.5" stroke-width="0" transform=" rotate(0, 407, 87)"/>
    <ellipse cx="442.5" cy="87.5" fill="steelblue" opacity="1" rx="12.5" ry="12.5" stroke-width="0" transform=" rotate(0, 442, 87)"/>
    <ellipse cx="477.5" cy="87.5" fill="steelblue" opacity="1" rx="12.5" ry="12.5" stroke-width="0" transform=" rotate(0, 477, 87)"/>
    <ellipse cx="512.5" cy="87.5" fill="steelblue" opacity="1" rx="12.5" ry="12.5" stroke-width="0" transform=" rotate(0, 512, 87)"/>
    <ellipse cx="-12.5" cy="152.5" fill="limegreen" opacity="1" rx="12.5" ry="12.5" stroke-width="0" transform=" rotate(0, -12, 152)"/>
    <ellipse cx="22.5" cy="152.5" fill="limegreen" opacity="1" rx="12.5" ry="12.5" stroke-width="0" transform=" rotate(0, 22, 152)"/>
    <ellipse cx="57.5" cy="152.5" fill="limegreen" opacity="1" rx="12.5" ry="12.5" stroke-width="0" transform=" rotate(0, 57, 152)"/>
    <ellipse cx="92.5" cy="152.5" fill="limegreen" opacity="1" rx="12.5" ry="12.5" stroke-width="0" transform=" rotate(0, 92, 152)"/>
    <ellipse cx="127.5" cy="152.5" fill="limegreen" opacity="1" rx="12.5" ry="12.5" stroke-width="0" transform=" rotate(0, 127, 152)"/>
    <ellipse cx="162.5" cy="152.5" fill="limegreen" opacity="1" rx="12.5" ry="12.5" stroke-width="0" transform=" rotate(0, 162, 152)"/>
    <ellipse cx="197.5" cy="152.5" fill="limegreen" opacity="1" rx="12.5" ry="12.5" stroke-width="0" transform=" rotate(0, 197, 152)"/>
    <ellipse cx="232.5" cy="152.5" fill="limegreen" opacity="1" rx="12.5" ry="12.5" stroke-width="0" transform=" rotate(0, 232, 152)"/>
    <ellipse cx="267.5" cy="152.5" fill="limegreen" opacity="1" rx="12.5" ry="12.5" stroke-width="0" transform=" rotate(0, 267, 152)"/>
    <ellipse cx="302.5" cy="152.5" fill="limegreen" opacity="1" rx="12.5" ry="12.5" stroke-width="0" transform=" rotate(0, 302, 152)"/>
    <ellipse cx="337.5" cy="152.5" fill="limegreen" opacity="1" rx="12.5" ry="12.5" stroke-width="0" transform=" rotate(0, 337, 152)"/>
    <ellipse cx="372.5" cy="152.5" fill="limegreen" opacity="1" rx="12.5" ry="12.5" stroke-width="0" transform=" rotate(0, 372, 152)"/>
    <ellipse cx="407.5" cy="152.5" fill="limegreen" opacity="1" rx="12.5" ry="12.5" stroke-width="0" transform=" rotate(0, 407, 152)"/>
    <ellipse cx="442.5" cy="152.5" fill="limegreen" opacity="1" rx="12.5" ry="12.5" stroke-width="0" transform=" rotate(0, 442, 152)"/>
    <ellipse cx="477.5" cy="152.5" fill="limegreen" opacity="1" rx="12.5" ry="12.5" stroke-width="0" transform=" rotate(0, 477, 152)"/>
    <ellipse cx="512.5" cy="152.5" fill="limegreen" opacity="1" rx="12.5" ry="12.5" stroke-width="0" transform=" rotate(0, 512, 152)"/>
    <ellipse cx="-12.5" cy="217.5" fill="steelblue" opacity="1" rx="12.5" ry="12.5" stroke-width="0" transform=" rotate(0, -12, 217)"/>
    <ellipse cx="22.5" cy="217.5" fill="steelblue" opacity="1" rx="12.5" ry="12.5" stroke-width="0" transform=" rotate(0, 22, 217)"/>
    <ellipse cx="57.5" cy="217.5" fill="steelblue" opacity="1" rx="12.5" ry="12.5" stroke-width="0" transform=" rotate(0, 57, 217)"/>
    <ellipse cx="92.5" cy="217.5" fill="steelblue" opacity="1" rx="12.5" ry="12.5" stroke-width="0" transform=" rotate(0, 92, 217)"/>
    <ellipse cx="127.5" cy="217.5" fill="steelblue" opacity="1" rx="12.5" ry="12.5" stroke-width="0" transform=" rotate(0, 127, 217)"/>
    <ellipse cx="162.5" cy="217.5" fill="steelblue" opacity="1" rx="12.5" ry="12.5" stroke-width="0" transform=" rotate(0, 162, 217)"/>
    <ellipse cx="197.5" cy="217.5" fill="steelblue" opacity="1" rx="12.5" ry="12.5" stroke-width="0" transform=" rotate(0, 197, 217)"/>
    <ellipse cx="232.5" cy="217.5" fill="steelblue" opacity="1" rx="12.5" ry="12.5" stroke-width="0" transform=" rotate(0, 232, 217)"/>
    <ellipse cx="267.5" cy="217.5" fill="steelblue" opacity="1" rx="12.5" ry="12.5" stroke-width="0" transform=" rotate(0, 267, 217)"/>
    <ellipse cx="302.5" cy="217.5" fill="steelblue" opacity="1" rx="12.5" ry="12.5" stroke-width="0" transform=" rotate(0, 302, 217)"/>
    <ellipse cx="337.5" cy="217.5" fill="steelblue" opacity="1" rx="12.5" ry="12.5" stroke-width="0" transform=" rotate(0, 337, 217)"/>
    <ellipse cx="372.5" cy="217.5" fill="steelblue" opacity="1" rx="12.5" ry="12.5" stroke-width="0" transform=" rotate(0, 372, 217)"/>
    <ellipse cx="407.5" cy="217.5" fill="steelblue" opacity="1" rx="12.5" ry="12.5" stroke-width="0" transform=" rotate(0, 407, 217)"/>
    <ellipse cx="442.5" cy="217.5" fill="steelblue" opacity="1" rx="12.5" ry="12.5" stroke-width="0" transform=" rotate(0, 442, 217)"/>
    <ellipse cx="477.5" cy="217.5" fill="steelblue" opacity="1" rx="12.5" ry="12.5" stroke-width="0" transform=" rotate(0, 477, 217)"/>
    <ellipse cx="512.5" cy="217.5" fill="steelblue" opacity="1" rx="12.5" ry="12.5" stroke-width="0" transform=" rotate(0, 512, 217)"/>
    <ellipse cx="-12.5" cy="282.5" fill="limegreen" opacity="1" rx="12.5" ry="12.5" stroke-width="0" transform=" rotate(0, -12, 282)"/>
    <ellipse cx="22.5" cy="282.5" fill="limegreen" opacity="1" rx="12.5" ry="12.5" stroke-width="0" transform=" rotate(0, 22, 282)"/>
    <ellipse cx="57.5" cy="282.5" fill="limegreen" opacity="1" rx="12.5" ry="12.5" stroke-width="0" transform=" rotate(0, 57, 282)"/>
    <ellipse cx="92.5" cy="282.5" fill="limegreen" opacity="1" rx="12.5" ry="12.5" stroke-width="0" transform=" rotate(0, 92, 282)"/>
    <ellipse cx="127.5" cy="282.5" fill="limegreen" opacity="1" rx="12.5" ry="12.5" stroke-width="0" transform=" rotate(0, 127, 282)"/>
    <ellipse cx="162.5" cy="282.5" fill="limegreen" opacity="1" rx="12.5" ry="12.5" stroke-width="0" transform=" rotate(0, 162, 282)"/>
    <ellipse cx="197.5" cy="282.5" fill="limegreen" opacity="1" rx="12.5" ry="12.5" stroke-width="0" transform=" rotate(0, 197, 282)"/>
    <ellipse cx="232.5" cy="282.5" fill="limegreen" opacity="1" rx="12.5" ry="12.5" stroke-width="0" transform=" rotate(0, 232, 282)"/>
    <ellipse cx="267.5" cy="282.5" fill="limegreen" opacity="1" rx="12.5" ry="12.5" stroke-width="0" transform=" rotate(0, 267, 282)"/>
    <ellipse cx="302.5" cy="282.5" fill="limegreen" opacity="1" rx="12.5" ry="12.5" stroke-width="0" transform=" rotate(0, 302, 282)"/>
    <ellipse cx="337.5" cy="282.5" fill="limegreen" opacity="1" rx="12.5" ry="12.5" stroke-width="0" transform=" rotate(0, 337, 282)"/>
    <ellipse cx="372.5" cy="282.5" fill="limegreen" opacity="1" rx="12.5" ry="12.5" stroke-width="0" transform=" rotate(0, 372, 282)"/>
    <ellipse cx="407.5" cy="282.5" fill="limegreen" opacity="1" rx="12.5" ry="12.5" stroke-width="0" transform=" rotate(0, 407, 282)"/>
    <ellipse cx="442.5" cy="282.5" fill="limegreen" opacity="1" rx="12.5" ry="12.5" stroke-width="0" transform=" rotate(0, 442, 282)"/>
    <ellipse cx="477.5" cy="282.5" fill="limegreen" opacity="1" rx="12.5" ry="12.5" stroke-width="0" transform=" rotate(0, 477, 282)"/>
    <ellipse cx="512.5" cy="282.5" fill="limegreen" opacity="1" rx="12.5" ry="12.5" stroke-width="0" transform=" rotate(0, 512, 282)"/>
    <ellipse cx="-12.5" cy="347.5" fill="steelblue" opacity="1" rx="12.5" ry="12.5" stroke-width="0" transform=" rotate(0, -12, 347)"/>
    <ellipse cx="22.5" cy="347.5" fill="steelblue" opacity="1" rx="12.5" ry="12.5" stroke-width="0" transform=" rotate(0, 22, 347)"/>
    <ellipse cx="57.5" cy="347.5" fill="steelblue" opacity="1" rx="12.5" ry="12.5" stroke-width="0" transform=" rotate(0, 57, 347)"/>
    <ellipse cx="92.5" cy="347.5" fill="steelblue" opacity="1" rx="12.5" ry="12.5" stroke-width="0" transform=" rotate(0, 92, 347)"/>
    <ellipse cx="127.5" cy="347.5" fill="steelblue" opacity="1" rx="12.5" ry="12.5" stroke-width="0" transform=" rotate(0, 127, 347)"/>
    <ellipse cx="162.5" cy="347.5" fill="steelblue" opacity="1" rx="12.5" ry="12.5" stroke-width="0" transform=" rotate(0, 162, 347)"/>
    <ellipse cx="197.5" cy="347.5" fill="steelblue" opacity="1" rx="12.5" ry="12.5" stroke-width="0" transform=" rotate(0, 197, 347)"/>
    <ellipse cx="232.5" cy="347.5" fill="steelblue" opacity="1" rx="12.5" ry="12.5" stroke-width="0" transform=" rotate(0, 232, 347)"/>
    <ellipse cx="267.5" cy="347.5" fill="steelblue" opacity="1" rx="12.5" ry="12.5" stroke-width="0" transform=" rotate(0, 267, 347)"/>
    <ellipse cx="302.5" cy="347.5" fill="steelblue" opacity="1" rx="12.5" ry="12.5" stroke-width="0" transform=" rotate(0, 302, 347)"/>
    <ellipse cx="337.5" cy="347.5" fill="steelblue" opacity="1" rx="12.5" ry="12.5" stroke-width="0" transform=" rotate(0, 337, 347)"/>
    <ellipse cx="372.5" cy="347.5" fill="steelblue" opacity="1" rx="12.5" ry="12.5" stroke-width="0" transform=" rotate(0, 372, 347)"/>
    <ellipse cx="407.5" cy="347.5" fill="steelblue" opacity="1" rx="12.5" ry="12.5" stroke-width="0" transform=" rotate(0, 407, 347)"/>
    <ellipse cx="442.5" cy="347.5" fill="steelblue" opacity="1" rx="12.5" ry="12.5" stroke-width="0" transform=" rotate(0, 442, 347)"/>
    <ellipse cx="477.5" cy="347.5" fill="steelblue" opacity="1" rx="12.5" ry="12.5" stroke-width="0" transform=" rotate(0, 477, 347)"/>
    <ellipse cx="512.5" cy="347.5" fill="steelblue" opacity="1" rx="12.5" ry="12.5" stroke-width="0" transform=" rotate(0, 512, 347)"/>
    <ellipse cx="-12.5" cy="412.5" fill="limegreen" opacity="1" rx="12.5" ry="12.5" stroke-width="0" transform=" rotate(0, -12, 412)"/>
    <ellipse cx="22.5" cy="412.5" fill="limegreen" opacity="1" rx="12.5" ry="12.5" stroke-width="0" transform=" rotate(0, 22, 412)"/>
    <ellipse cx="57.5" cy="412.5" fill="limegreen" opacity="1" rx="12.5" ry="12.5" stroke-width="0" transform=" rotate(0, 57, 412)"/>
    <ellipse cx="92.5" cy="412.5" fill="limegreen" opacity="1" rx="12.5" ry="12.5" stroke-width="0" transform=" rotate(0, 92, 412)"/>
    <ellipse cx="127.5" cy="412.5" fill="limegreen" opacity="1" rx="12.5" ry="12.5" stroke-width="0" transform=" rotate(0, 127, 412)"/>
    <ellipse cx="162.5" cy="412.5" fill="limegreen" opacity="1" rx="12.5" ry="12.5" stroke-width="0" transform=" rotate(0, 162, 412)"/>
    <ellipse cx="197.5" cy="412.5" fill="limegreen" opacity="1" rx="12.5" ry="12.5" stroke-width="0" transform=" rotate(0, 197, 412)"/>
    <ellipse cx="232.5" cy="412.5" fill="limegreen" opacity="1" rx="12.5" ry="12.5" stroke-width="0" transform=" rotate(0, 232, 412)"/>
    <ellipse cx="267.5" cy="412.5" fill="limegreen" opacity="1" rx="12.5" ry="12.5" stroke-width="0" transform=" rotate(0, 267, 412)"/>
    <ellipse cx="302.5" cy="412.5" fill="limegreen" opacity="1" rx="12.5" ry="12.5" stroke-width="0" transform=" rotate(0, 302, 412)"/>
    <ellipse cx="337.5" cy="412.5" fill="limegreen" opacity="1" rx="12.5" ry="12.5" stroke-width="0" transform=" rotate(0, 337, 412)"/>
    <ellipse cx="372.5" cy="412.5" fill="limegreen" opacity="1" rx="12.5" ry="12.5" stroke-width="0" transform=" rotate(0, 372, 412)"/>
    <ellipse cx="407.5" cy="412.5" fill="limegreen" opacity="1" rx="12.5" ry="12.5" stroke-width="0" transform=" rotate(0, 407, 412)"/>
    <ellipse cx="442.5" cy="412.5" fill="limegreen" opacity="1" rx="12.5" ry="12.5" stroke-width="0" transform=" rotate(0, 442, 412)"/>
    <ellipse cx="477.5" cy="412.5" fill="limegreen" opacity="1" rx="12.5" ry="12.5" stroke-width="0" transform=" rotate(0, 477, 412)"/>
    <ellipse cx="512.5" cy="412.5" fill="limegreen" opacity="1" rx="12.5" ry="12.5" stroke-width="0" transform=" rotate(0, 512, 412)"/>
    <ellipse cx="-12.5" cy="477.5" fill="steelblue" opacity="1" rx="12.5" ry="12.5" stroke-width="0" transform=" rotate(0, -12, 477)"/>
    <ellipse cx="22.5" cy="477.5" fill="steelblue" opacity="1" rx="12.5" ry="12.5" stroke-width="0" transform=" rotate(0, 22, 477)"/>
    <ellipse cx="57.5" cy="477.5" fill="steelblue" opacity="1" rx="12.5" ry="12.5" stroke-width="0" transform=" rotate(0, 57, 477)"/>
    <ellipse cx="92.5" cy="477.5" fill="steelblue" opacity="1" rx="12.5" ry="12.5" stroke-width="0" transform=" rotate(0, 92, 477)"/>
    <ellipse cx="127.5" cy="477.5" fill="steelblue" opacity="1" rx="12.5" ry="12.5" stroke-width="0" transform=" rotate(0, 127, 477)"/>
    <ellipse cx="162.5" cy="477.5" fill="steelblue" opacity="1" rx="12.5" ry="12.5" stroke-width="0" transform=" rotate(0, 162, 477)"/>
    <ellipse cx="197.5" cy="477.5" fill="steelblue" opacity="1" rx="12.5" ry="12.5" stroke-width="0" transform=" rotate(0, 197, 477)"/>
    <ellipse cx="232.5" cy="477.5" fill="steelblue" opacity="1" rx="12.5" ry="12.5" stroke-width="0" transform=" rotate(0, 232, 477)"/>
    <ellipse cx="267.5" cy="477.5" fill="steelblue" opacity="1" rx="12.5" ry="12.5" stroke-width="0" transform=" rotate(0, 267, 477)"/>
    <ellipse cx="302.5" cy="477.5" fill="steelblue" opacity="1" rx="12.5" ry="12.5" stroke-width="0" transform=" rotate(0, 302, 477)"/>
    <ellipse cx="337.5" cy="477.5" fill="steelblue" opacity="1" rx="12.5" ry="12.5" stroke-width="0" transform=" rotate(0, 337, 477)"/>
    <ellipse cx="372.5" cy="477.5" fill="steelblue" opacity="1" rx="12.5" ry="12.5" stroke-width="0" transform=" rotate(0, 372, 477)"/>
    <ellipse cx="407.5" cy="477.5" fill="steelblue" opacity="1" rx="12.5" ry="12.5" stroke-width="0" transform=" rotate(0, 407, 477)"/>
    <ellipse cx="442.5" cy="477.5" fill="steelblue" opacity="1" rx="12.5" ry="12.5" stroke-width="0" transform=" rotate(0, 442, 477)"/>
    <ellipse cx="477.5" cy="477.5" fill="steelblue" opacity="1" rx="12.5" ry="12.5" stroke-width="0" transform=" rotate(0, 477, 477)"/>
    <ellipse cx="512.5" cy="477.5" fill="steelblue" opacity="1" rx="12.5" ry="12.5" stroke-width="0" transform=" rotate(0, 512, 477)"/>
    <ellipse cx="-12.5" cy="542.5" fill="limegreen" opacity="1" rx="12.5" ry="12.5" stroke-width="0" transform=" rotate(0, -12, 542)"/>
    <ellipse cx="22.5" cy="542.5" fill="limegreen" opacity="1" rx="12.5" ry="12.5" stroke-width="0" transform=" rotate(0, 22, 542)"/>
    <ellipse cx="57.5" cy="542.5" fill="limegreen" opacity="1" rx="12.5" ry="12.5" stroke-width="0" transform=" rotate(0, 57, 542)"/>
    <ellipse cx="92.5" cy="542.5" fill="limegreen" opacity="1" rx="12.5" ry="12.5" stroke-width="0" transform=" rotate(0, 92, 542)"/>
    <ellipse cx="127.5" cy="542.5" fill="limegreen" opacity="1" rx="12.5" ry="12.5" stroke-width="0" transform=" rotate(0, 127, 542)"/>
    <ellipse cx="162.5" cy="542.5" fill="limegreen" opacity="1" rx="12.5" ry="12.5" stroke-width="0" transform=" rotate(0, 162, 542)"/>
    <ellipse cx="197.5" cy="542.5" fill="limegreen" opacity="1" rx="12.5" ry="12.5" stroke-width="0" transform=" rotate(0, 197, 542)"/>
    <ellipse cx="232.5" cy="542.5" fill="limegreen" opacity="1" rx="12.5" ry="12.5" stroke-width="0" transform=" rotate(0, 232, 542)"/>
    <ellipse cx="267.5" cy="542.5" fill="limegreen" opacity="1" rx="12.5" ry="12.5" stroke-width="0" transform=" rotate(0, 267, 542)"/>
    <ellipse cx="302.5" cy="542.5" fill="limegreen" opacity="1" rx="12.5" ry="12.5" stroke-width="0" transform=" rotate(0, 302, 542)"/>
    <ellipse cx="337.5" cy="542.5" fill="limegreen" opacity="1" rx="12.5" ry="12.5" stroke-width="0" transform=" rotate(0, 337, 542)"/>
    <ellipse cx="372.5" cy="542.5" fill="limegreen" opacity="1" rx="12.5" ry="12.5" stroke-width="0" transform=" rotate(0, 372, 542)"/>
    <ellipse cx="407.5" cy="542.5" fill="limegreen" opacity="1" rx="12.5" ry="12.5" stroke-width="0" transform=" rotate(0, 407, 542)"/>
    <ellipse cx="442.5" cy="542.5" fill="limegreen" opacity="1" rx="12.5" ry="12.5" stroke-width="0" transform=" rotate(0, 442, 542)"/>
    <ellipse cx="477.5" cy="542.5" fill="limegreen" opacity="1" rx="12.5" ry="12.5" stroke-width="0" transform=" rotate(0, 477, 542)"/>
    <ellipse cx="512.5" cy="542.5" fill="limegreen" opacity="1" rx="12.5" ry="12.5" stroke-width="0" transform=" rotate(0, 512, 542)"/>
    <ellipse cx="-12.5" cy="607.5" fill="steelblue" opacity="1" rx="12.5" ry="12.5" stroke-width="0" transform=" rotate(0, -12, 607)"/>
    <ellipse cx="22.5" cy="607.5" fill="steelblue" opacity="1" rx="12.5" ry="12.5" stroke-width="0" transform=" rotate(0, 22, 607)"/>
    <ellipse cx="57.5" cy="607.5" fill="steelblue" opacity="1" rx="12.5" ry="12.5" stroke-width="0" transform=" rotate(0, 57, 607)"/>
    <ellipse cx="92.5" cy="607.5" fill="steelblue" opacity="1" rx="12.5" ry="12.5" stroke-width="0" transform=" rotate(0, 92, 607)"/>
    <ellipse cx="127.5" cy="607.5" fill="steelblue" opacity="1" rx="12.5" ry="12.5" stroke-width="0" transform=" rotate(0, 127, 607)"/>
    <ellipse cx="162.5" cy="607.5" fill="steelblue" opacity="1" rx="12.5" ry="12.5" stroke-width="0" transform=" rotate(0, 162, 607)"/>
    <ellipse cx="197.5" cy="607.5" fill="steelblue" opacity="1" rx="12.5" ry="12.5" stroke-width="0" transform=" rotate(0, 197, 607)"/>
    <ellipse cx="232.5" cy="607.5" fill="steelblue" opacity="1" rx="12.5" ry="12.5" stroke-width="0" transform=" rotate(0, 232, 607)"/>
    <ellipse cx="267.5" cy="607.5" fill="steelblue" opacity="1" rx="12.5" ry="12.5" stroke-width="0" transform=" rotate(0, 267, 607)"/>
    <ellipse cx="302.5" cy="607.5" fill="steelblue" opacity="1" rx="12.5" ry="12.5" stroke-width="0" transform=" rotate(0, 302, 607)"/>
    <ellipse cx="337.5" cy="607.5" fill="steelblue" opacity="1" rx="12.5" ry="12.5" stroke-width="0" transform=" rotate(0, 337, 607)"/>
    <ellipse cx="372.5" cy="607.5" fill="steelblue" opacity="1" rx="12.5" ry="12.5" stroke-width="0" transform=" rotate(0, 372, 607)"/>
    <ellipse cx="407.5" cy="607.5" fill="steelblue" opacity="1" rx="12.5" ry="12.5" stroke-width="0" transform=" rotate(0, 407, 607)"/>
    <ellipse cx="442.5" cy="607.5" fill="steelblue" opacity="1" rx="12.5" ry="12.5" stroke-width="0" transform=" rotate(0, 442, 607)"/>
    <ellipse cx="477.5" cy="607.5" fill="steelblue" opacity="1" rx="12.5" ry="12.5" stroke-width="0" transform=" rotate(0, 477, 607)"/>
    <ellipse cx="512.5" cy="607.5" fill="steelblue" opacity="1" rx="12.5" ry="12.5" stroke-width="0" transform=" rotate(0, 512, 607)"/>
    <ellipse cx="-12.5" cy="672.5" fill="limegreen" opacity="1" rx="12.5" ry="12.5" stroke-width="0" transform=" rotate(0, -12, 672)"/>
    <ellipse cx="22.5" cy="672.5" fill="limegreen" opacity="1" rx="12.5" ry="12.5" stroke-width="0" transform=" rotate(0, 22, 672)"/>
    <ellipse cx="57.5" cy="672.5" fill="limegreen" opacity="1" rx="12.5" ry="12.5" stroke-width="0" transform=" rotate(0, 57, 672)"/>
    <ellipse cx="92.5" cy="672.5" fill="limegreen" opacity="1" rx="12.5" ry="12.5" stroke-width="0" transform=" rotate(0, 92, 672)"/>
    <ellipse cx="127.5" cy="672.5" fill="limegreen" opacity="1" rx="12.5" ry="12.5" stroke-width="0" transform=" rotate(0, 127, 672)"/>
    <ellipse cx="162.5" cy="672.5" fill="limegreen" opacity="1" rx="12.5" ry="12.5" stroke-width="0" transform=" rotate(0, 162, 672)"/>
    <ellipse cx="197.5" cy="672.5" fill="limegreen" opacity="1" rx="12.5" ry="12.5" stroke-width="0" transform=" rotate(0, 197, 672)"/>
    <ellipse cx="232.5" cy="672.5" fill="limegreen" opacity="1" rx="12.5" ry="12.5" stroke-width="0" transform=" rotate(0, 232, 672)"/>
    <ellipse cx="267.5" cy="672.5" fill="limegreen" opacity="1" rx="12.5" ry="12.5" stroke-width="0" transform=" rotate(0, 267, 672)"/>
    <ellipse cx="302.5" cy="672.5" fill="limegreen" opacity="1" rx="12.5" ry="12.5" stroke-width="0" transform=" rotate(0, 302, 672)"/>
    <ellipse cx="337.5" cy="672.5" fill="limegreen" opacity="1" rx="12.5" ry="12.5" stroke-width="0" transform=" rotate(0, 337, 672)"/>
    <ellipse cx="372.5" cy="672.5" fill="limegreen" opacity="1" rx="12.5" ry="12.5" stroke-width="0" transform=" rotate(0, 372, 672)"/>
    <ellipse cx="407.5" cy="672.5" fill="limegreen" opacity="1" rx="12.5" ry="12.5" stroke-width="0" transform=" rotate(0, 407, 672)"/>
    <ellipse cx="442.5" cy="672.5" fill="limegreen" opacity="1" rx="12.5" ry="12.5" stroke-width="0" transform=" rotate(0, 442, 672)"/>
    <ellipse cx="477.5" cy="672.5" fill="limegreen" opacity="1" rx="12.5" ry="12.5" stroke-width="0" transform=" rotate(0, 477, 672)"/>
    <ellipse cx="512.5" cy="672.5" fill="limegreen" opacity="1" rx="12.5" ry="12.5" stroke-width="0" transform=" rotate(0, 512, 672)"/>
    <ellipse cx="-12.5" cy="737.5" fill="steelblue" opacity="1" rx="12.5" ry="12.5" stroke-width="0" transform=" rotate(0, -12, 737)"/>
    <ellipse cx="22.5" cy="737.5" fill="steelblue" opacity="1" rx="12.5" ry="12.5" stroke-width="0" transform=" rotate(0, 22, 737)"/>
    <ellipse cx="57.5" cy="737.5" fill="steelblue" opacity="1" rx="12.5" ry="12.5" stroke-width="0" transform=" rotate(0, 57, 737)"/>
    <ellipse cx="92.5" cy="737.5" fill="steelblue" opacity="1" rx="12.5" ry="12.5" stroke-width="0" transform=" rotate(0, 92, 737)"/>
    <ellipse cx="127.5" cy="737.5" fill="steelblue" opacity="1" rx="12.5" ry="12.5" stroke-width="0" transform=" rotate(0, 127, 737)"/>
    <ellipse cx="162.5" cy="737.5" fill="steelblue" opacity="1" rx="12.5" ry="12.5" stroke-width="0" transform=" rotate(0, 162, 737)"/>
    <ellipse cx="197.5" cy="737.5" fill="steelblue" opacity="1" rx="12.5" ry="12.5" stroke-width="0" transform=" rotate(0, 197, 737)"/>
    <ellipse cx="232.5" cy="737.5" fill="steelblue" opacity="1" rx="12.5" ry="12.5" stroke-width="0" transform=" rotate(0, 232, 737)"/>
    <ellipse cx="267.5" cy="737.5" fill="steelblue" opacity="1" rx="12.5" ry="12.5" stroke-width="0" transform=" rotate(0, 267, 737)"/>
    <ellipse cx="302.5" cy="737.5" fill="steelblue" opacity="1" rx="12.5" ry="12.5" stroke-width="0" transform=" rotate(0, 302, 737)"/>
    <ellipse cx="337.5" cy="737.5" fill="steelblue" opacity="1" rx="12.5" ry="12.5" stroke-width="0" transform=" rotate(0, 337, 737)"/>
    <ellipse cx="372.5" cy="737.5" fill="steelblue" opacity="1" rx="12.5" ry="12.5" stroke-width="0" transform=" rotate(0, 372, 737)"/>
    <ellipse cx="407.5" cy="737.5" fill="steelblue" opacity="1" rx="12.5" ry="12.5" stroke-width="0" transform=" rotate(0, 407, 737)"/>
    <ellipse cx="442.5" cy="737.5" fill="steelblue" opacity="1" rx="12.5" ry="12.5" stroke-width="0" transform=" rotate(0, 442, 737)"/>
    <ellipse cx="477.5" cy="737.5" fill="steelblue" opacity="1" rx="12.5" ry="12.5" stroke-width="0" transform=" rotate(0, 477, 737)"/>
    <ellipse cx="512.5" cy="737.5" fill="steelblue" opacity="1" rx="12.5" ry="12.5" stroke-width="0" transform=" rotate(0, 512, 737)"/>
  </g>
</g>
  </g>
</svg>
