<?xml version='1.0' encoding='ASCII' standalone='yes'?>
<svg xmlns="http://www.w3.org/2000/svg" xmlns:xlink="http://www.w3.org/1999/xlink" version="1.1" width="125.0px" viewBox="0 0 125.0 125.0" height="125.0px">
  <g>
    <g transform="translate(0, 0) scale(0.5 0.5) "><defs/>
  <g transform=" rotate(0, 125, 125)">
    <rect fill="none" height="250" width="250" x="0" y="0"/>
    <ellipse cx="75.0" cy="75.0" fill="none" opacity="1" rx="15.0" ry="15.0" stroke-width="0" transform=" rotate(0, 75, 75)"/>
    <ellipse cx="125.0" cy="75.0" fill="black" opacity="1" rx="15.0" ry="15.0" stroke-width="0" transform=" rotate(0, 125, 75)"/>
    <ellipse cx="175.0" cy="75.0" fill="black" opacity="1" rx="15.0" ry="15.0" stroke-width="0" transform=" rotate(0, 175, 75)"/>
    <ellipse cx="75.0" cy="125.0" fill="black" opacity="1" rx="15.0" ry="15.0" stroke-width="0" transform=" rotate(0, 75, 125)"/>
    <ellipse cx="125.0" cy="125.0" fill="none" opacity="1" rx="15.0" ry="15.0" stroke-width="0" transform=" rotate(0, 125, 125)"/>
    <ellipse cx="175.0" cy="125.0" fill="black" opacity="1" rx="15.0" ry="15.0" stroke-width="0" transform=" rotate(0, 175, 125)"/>
    <ellipse cx="75.0" cy="175.0" fill="none" opacity="1" rx="15.0" ry="15.0" stroke-width="0" transform=" rotate(0, 75, 175)"/>
    <ellipse cx="125.0" cy="175.0" fill="black" opacity="1" rx="15.0" ry="15.0" stroke-width="0" transform=" rotate(0, 125, 175)"/>
    <ellipse cx="175.0" cy="175.0" fill="none" opacity="1" rx="15.0" ry="15.0" stroke-width="0" transform=" rotate(0, 175, 175)"/>
  </g>
</g>
  </g>
</svg>
