<?xml version='1.0' encoding='ASCII' standalone='yes'?>
<svg xmlns="http://www.w3.org/2000/svg" xmlns:xlink="http://www.w3.org/1999/xlink" version="1.1" width="2500.0px" viewBox="0 0 2500.0 2500.0" height="2500.0px">
  <g>
    <g transform="translate(0, 0) scale(10 10) "><defs/>
  <g transform=" rotate(0, 125, 125)">
    <rect fill="white" height="250" width="250" x="0" y="0"/>
    <ellipse cx="24.020357912845867" cy="25.0" fill="dodgerblue" opacity="1" rx="7.5" ry="7.5" stroke-width="0" transform=" rotate(0, 24, 25)"/>
    <ellipse cx="49.02035791284587" cy="25.0" fill="dodgerblue" opacity="1" rx="7.5" ry="7.5" stroke-width="0" transform=" rotate(0, 49, 25)"/>
    <ellipse cx="74.02035791284587" cy="25.0" fill="dodgerblue" opacity="1" rx="7.5" ry="7.5" stroke-width="0" transform=" rotate(0, 74, 25)"/>
    <ellipse cx="99.02035791284587" cy="25.0" fill="dodgerblue" opacity="1" rx="7.5" ry="7.5" stroke-width="0" transform=" rotate(0, 99, 25)"/>
    <ellipse cx="124.02035791284587" cy="25.0" fill="dodgerblue" opacity="1" rx="7.5" ry="7.5" stroke-width="0" transform=" rotate(0, 124, 25)"/>
    <ellipse cx="149.02035791284587" cy="25.0" fill="dodgerblue" opacity="1" rx="7.5" ry="7.5" stroke-width="0" transform=" rotate(0, 149, 25)"/>
    <ellipse cx="174.02035791284587" cy="25.0" fill="dodgerblue" opacity="1" rx="7.5" ry="7.5" stroke-width="0" transform=" rotate(0, 174, 25)"/>
    <ellipse cx="199.02035791284587" cy="25.0" fill="dodgerblue" opacity="1" rx="7.5" ry="7.5" stroke-width="0" transform=" rotate(0, 199, 25)"/>
    <ellipse cx="224.02035791284587" cy="25.0" fill="dodgerblue" opacity="1" rx="7.5" ry="7.5" stroke-width="0" transform=" rotate(0, 224, 25)"/>
    <ellipse cx="32.837136697232964" cy="50.0" fill="dodgerblue" opacity="1" rx="7.5" ry="7.5" stroke-width="0" transform=" rotate(0, 32, 50)"/>
    <ellipse cx="57.837136697232964" cy="50.0" fill="dodgerblue" opacity="1" rx="7.5" ry="7.5" stroke-width="0" transform=" rotate(0, 57, 50)"/>
    <ellipse cx="82.83713669723296" cy="50.0" fill="dodgerblue" opacity="1" rx="7.5" ry="7.5" stroke-width="0" transform=" rotate(0, 82, 50)"/>
    <ellipse cx="107.83713669723296" cy="50.0" fill="dodgerblue" opacity="1" rx="7.5" ry="7.5" stroke-width="0" transform=" rotate(0, 107, 50)"/>
    <ellipse cx="132.83713669723295" cy="50.0" fill="dodgerblue" opacity="1" rx="7.5" ry="7.5" stroke-width="0" transform=" rotate(0, 132, 50)"/>
    <ellipse cx="157.83713669723298" cy="50.0" fill="dodgerblue" opacity="1" rx="7.5" ry="7.5" stroke-width="0" transform=" rotate(0, 157, 50)"/>
    <ellipse cx="182.83713669723298" cy="50.0" fill="dodgerblue" opacity="1" rx="7.5" ry="7.5" stroke-width="0" transform=" rotate(0, 182, 50)"/>
    <ellipse cx="207.83713669723298" cy="50.0" fill="dodgerblue" opacity="1" rx="7.5" ry="7.5" stroke-width="0" transform=" rotate(0, 207, 50)"/>
    <ellipse cx="232.83713669723298" cy="50.0" fill="dodgerblue" opacity="1" rx="7.5" ry="7.5" stroke-width="0" transform=" rotate(0, 232, 50)"/>
    <ellipse cx="38.28620565727317" cy="75.0" fill="dodgerblue" opacity="1" rx="7.5" ry="7.5" stroke-width="0" transform=" rotate(0, 38, 75)"/>
    <ellipse cx="63.28620565727317" cy="75.0" fill="dodgerblue" opacity="1" rx="7.5" ry="7.5" stroke-width="0" transform=" rotate(0, 63, 75)"/>
    <ellipse cx="88.28620565727317" cy="75.0" fill="dodgerblue" opacity="1" rx="7.5" ry="7.5" stroke-width="0" transform=" rotate(0, 88, 75)"/>
    <ellipse cx="113.28620565727317" cy="75.0" fill="dodgerblue" opacity="1" rx="7.5" ry="7.5" stroke-width="0" transform=" rotate(0, 113, 75)"/>
    <ellipse cx="138.28620565727317" cy="75.0" fill="dodgerblue" opacity="1" rx="7.5" ry="7.5" stroke-width="0" transform=" rotate(0, 138, 75)"/>
    <ellipse cx="163.28620565727317" cy="75.0" fill="dodgerblue" opacity="1" rx="7.5" ry="7.5" stroke-width="0" transform=" rotate(0, 163, 75)"/>
    <ellipse cx="188.28620565727317" cy="75.0" fill="dodgerblue" opacity="1" rx="7.5" ry="7.5" stroke-width="0" transform=" rotate(0, 188, 75)"/>
    <ellipse cx="213.28620565727317" cy="75.0" fill="dodgerblue" opacity="1" rx="7.5" ry="7.5" stroke-width="0" transform=" rotate(0, 213, 75)"/>
    <ellipse cx="238.28620565727317" cy="75.0" fill="dodgerblue" opacity="1" rx="7.5" ry="7.5" stroke-width="0" transform=" rotate(0, 238, 75)"/>
    <ellipse cx="38.28620565727317" cy="100.0" fill="dodgerblue" opacity="1" rx="7.5" ry="7.5" stroke-width="0" transform=" rotate(0, 38, 100)"/>
    <ellipse cx="63.28620565727317" cy="100.0" fill="dodgerblue" opacity="1" rx="7.5" ry="7.5" stroke-width="0" transform=" rotate(0, 63, 100)"/>
    <ellipse cx="88.28620565727317" cy="100.0" fill="dodgerblue" opacity="1" rx="7.5" ry="7.5" stroke-width="0" transform=" rotate(0, 88, 100)"/>
    <ellipse cx="113.28620565727317" cy="100.0" fill="dodgerblue" opacity="1" rx="7.5" ry="7.5" stroke-width="0" transform=" rotate(0, 113, 100)"/>
    <ellipse cx="138.28620565727317" cy="100.0" fill="dodgerblue" opacity="1" rx="7.5" ry="7.5" stroke-width="0" transform=" rotate(0, 138, 100)"/>
    <ellipse cx="163.28620565727317" cy="100.0" fill="dodgerblue" opacity="1" rx="7.5" ry="7.5" stroke-width="0" transform=" rotate(0, 163, 100)"/>
    <ellipse cx="188.28620565727317" cy="100.0" fill="dodgerblue" opacity="1" rx="7.5" ry="7.5" stroke-width="0" transform=" rotate(0, 188, 100)"/>
    <ellipse cx="213.28620565727317" cy="100.0" fill="dodgerblue" opacity="1" rx="7.5" ry="7.5" stroke-width="0" transform=" rotate(0, 213, 100)"/>
    <ellipse cx="238.28620565727317" cy="100.0" fill="dodgerblue" opacity="1" rx="7.5" ry="7.5" stroke-width="0" transform=" rotate(0, 238, 100)"/>
    <ellipse cx="32.837136697232964" cy="125.0" fill="dodgerblue" opacity="1" rx="7.5" ry="7.5" stroke-width="0" transform=" rotate(0, 32, 125)"/>
    <ellipse cx="57.837136697232964" cy="125.0" fill="dodgerblue" opacity="1" rx="7.5" ry="7.5" stroke-width="0" transform=" rotate(0, 57, 125)"/>
    <ellipse cx="82.83713669723296" cy="125.0" fill="dodgerblue" opacity="1" rx="7.5" ry="7.5" stroke-width="0" transform=" rotate(0, 82, 125)"/>
    <ellipse cx="107.83713669723296" cy="125.0" fill="dodgerblue" opacity="1" rx="7.5" ry="7.5" stroke-width="0" transform=" rotate(0, 107, 125)"/>
    <ellipse cx="132.83713669723295" cy="125.0" fill="dodgerblue" opacity="1" rx="7.5" ry="7.5" stroke-width="0" transform=" rotate(0, 132, 125)"/>
    <ellipse cx="157.83713669723298" cy="125.0" fill="dodgerblue" opacity="1" rx="7.5" ry="7.5" stroke-width="0" transform=" rotate(0, 157, 125)"/>
    <ellipse cx="182.83713669723298" cy="125.0" fill="dodgerblue" opacity="1" rx="7.5" ry="7.5" stroke-width="0" transform=" rotate(0, 182, 125)"/>
    <ellipse cx="207.83713669723298" cy="125.0" fill="dodgerblue" opacity="1" rx="7.5" ry="7.5" stroke-width="0" transform=" rotate(0, 207, 125)"/>
    <ellipse cx="232.83713669723298" cy="125.0" fill="dodgerblue" opacity="1" rx="7.5" ry="7.5" stroke-width="0" transform=" rotate(0, 232, 125)"/>
    <ellipse cx="24.02035791284587" cy="150.0" fill="dodgerblue" opacity="1" rx="7.5" ry="7.5" stroke-width="0" transform=" rotate(0, 24, 150)"/>
    <ellipse cx="49.02035791284587" cy="150.0" fill="dodgerblue" opacity="1" rx="7.5" ry="7.5" stroke-width="0" transform=" rotate(0, 49, 150)"/>
    <ellipse cx="74.02035791284587" cy="150.0" fill="dodgerblue" opacity="1" rx="7.5" ry="7.5" stroke-width="0" transform=" rotate(0, 74, 150)"/>
    <ellipse cx="99.02035791284587" cy="150.0" fill="dodgerblue" opacity="1" rx="7.5" ry="7.5" stroke-width="0" transform=" rotate(0, 99, 150)"/>
    <ellipse cx="124.02035791284587" cy="150.0" fill="dodgerblue" opacity="1" rx="7.5" ry="7.5" stroke-width="0" transform=" rotate(0, 124, 150)"/>
    <ellipse cx="149.02035791284587" cy="150.0" fill="dodgerblue" opacity="1" rx="7.5" ry="7.5" stroke-width="0" transform=" rotate(0, 149, 150)"/>
    <ellipse cx="174.02035791284587" cy="150.0" fill="dodgerblue" opacity="1" rx="7.5" ry="7.5" stroke-width="0" transform=" rotate(0, 174, 150)"/>
    <ellipse cx="199.02035791284587" cy="150.0" fill="dodgerblue" opacity="1" rx="7.5" ry="7.5" stroke-width="0" transform=" rotate(0, 199, 150)"/>
    <ellipse cx="224.02035791284587" cy="150.0" fill="dodgerblue" opacity="1" rx="7.5" ry="7.5" stroke-width="0" transform=" rotate(0, 224, 150)"/>
    <ellipse cx="15.203579128458772" cy="175.0" fill="dodgerblue" opacity="1" rx="7.5" ry="7.5" stroke-width="0" transform=" rotate(0, 15, 175)"/>
    <ellipse cx="40.20357912845877" cy="175.0" fill="dodgerblue" opacity="1" rx="7.5" ry="7.5" stroke-width="0" transform=" rotate(0, 40, 175)"/>
    <ellipse cx="65.20357912845877" cy="175.0" fill="dodgerblue" opacity="1" rx="7.5" ry="7.5" stroke-width="0" transform=" rotate(0, 65, 175)"/>
    <ellipse cx="90.20357912845877" cy="175.0" fill="dodgerblue" opacity="1" rx="7.5" ry="7.5" stroke-width="0" transform=" rotate(0, 90, 175)"/>
    <ellipse cx="115.20357912845877" cy="175.0" fill="dodgerblue" opacity="1" rx="7.5" ry="7.5" stroke-width="0" transform=" rotate(0, 115, 175)"/>
    <ellipse cx="140.20357912845878" cy="175.0" fill="dodgerblue" opacity="1" rx="7.5" ry="7.5" stroke-width="0" transform=" rotate(0, 140, 175)"/>
    <ellipse cx="165.20357912845878" cy="175.0" fill="dodgerblue" opacity="1" rx="7.5" ry="7.5" stroke-width="0" transform=" rotate(0, 165, 175)"/>
    <ellipse cx="190.20357912845878" cy="175.0" fill="dodgerblue" opacity="1" rx="7.5" ry="7.5" stroke-width="0" transform=" rotate(0, 190, 175)"/>
    <ellipse cx="215.20357912845878" cy="175.0" fill="dodgerblue" opacity="1" rx="7.5" ry="7.5" stroke-width="0" transform=" rotate(0, 215, 175)"/>
    <ellipse cx="9.754510168418564" cy="200.0" fill="dodgerblue" opacity="1" rx="7.5" ry="7.5" stroke-width="0" transform=" rotate(0, 9, 200)"/>
    <ellipse cx="34.75451016841856" cy="200.0" fill="dodgerblue" opacity="1" rx="7.5" ry="7.5" stroke-width="0" transform=" rotate(0, 34, 200)"/>
    <ellipse cx="59.75451016841856" cy="200.0" fill="dodgerblue" opacity="1" rx="7.5" ry="7.5" stroke-width="0" transform=" rotate(0, 59, 200)"/>
    <ellipse cx="84.75451016841856" cy="200.0" fill="dodgerblue" opacity="1" rx="7.5" ry="7.5" stroke-width="0" transform=" rotate(0, 84, 200)"/>
    <ellipse cx="109.75451016841856" cy="200.0" fill="dodgerblue" opacity="1" rx="7.5" ry="7.5" stroke-width="0" transform=" rotate(0, 109, 200)"/>
    <ellipse cx="134.75451016841856" cy="200.0" fill="dodgerblue" opacity="1" rx="7.5" ry="7.5" stroke-width="0" transform=" rotate(0, 134, 200)"/>
    <ellipse cx="159.75451016841856" cy="200.0" fill="dodgerblue" opacity="1" rx="7.5" ry="7.5" stroke-width="0" transform=" rotate(0, 159, 200)"/>
    <ellipse cx="184.75451016841856" cy="200.0" fill="dodgerblue" opacity="1" rx="7.5" ry="7.5" stroke-width="0" transform=" rotate(0, 184, 200)"/>
    <ellipse cx="209.75451016841856" cy="200.0" fill="dodgerblue" opacity="1" rx="7.5" ry="7.5" stroke-width="0" transform=" rotate(0, 209, 200)"/>
    <ellipse cx="9.754510168418562" cy="225.0" fill="dodgerblue" opacity="1" rx="7.5" ry="7.5" stroke-width="0" transform=" rotate(0, 9, 225)"/>
    <ellipse cx="34.75451016841856" cy="225.0" fill="dodgerblue" opacity="1" rx="7.5" ry="7.5" stroke-width="0" transform=" rotate(0, 34, 225)"/>
    <ellipse cx="59.75451016841856" cy="225.0" fill="dodgerblue" opacity="1" rx="7.5" ry="7.5" stroke-width="0" transform=" rotate(0, 59, 225)"/>
    <ellipse cx="84.75451016841856" cy="225.0" fill="dodgerblue" opacity="1" rx="7.5" ry="7.5" stroke-width="0" transform=" rotate(0, 84, 225)"/>
    <ellipse cx="109.75451016841856" cy="225.0" fill="dodgerblue" opacity="1" rx="7.5" ry="7.5" stroke-width="0" transform=" rotate(0, 109, 225)"/>
    <ellipse cx="134.75451016841856" cy="225.0" fill="dodgerblue" opacity="1" rx="7.5" ry="7.5" stroke-width="0" transform=" rotate(0, 134, 225)"/>
    <ellipse cx="159.75451016841856" cy="225.0" fill="dodgerblue" opacity="1" rx="7.5" ry="7.5" stroke-width="0" transform=" rotate(0, 159, 225)"/>
    <ellipse cx="184.75451016841856" cy="225.0" fill="dodgerblue" opacity="1" rx="7.5" ry="7.5" stroke-width="0" transform=" rotate(0, 184, 225)"/>
    <ellipse cx="209.75451016841856" cy="225.0" fill="dodgerblue" opacity="1" rx="7.5" ry="7.5" stroke-width="0" transform=" rotate(0, 209, 225)"/>
  </g>
</g>
  </g>
</svg>
