<?xml version="1.0" encoding="utf-8" ?>
<svg xmlns="http://www.w3.org/2000/svg" xmlns:ev="http://www.w3.org/2001/xml-events" xmlns:xlink="http://www.w3.org/1999/xlink" baseProfile="full" height="250" version="1.1" width="250">
  <defs/>
  <g transform=" rotate(0, 125, 125)">
    <rect fill="white" height="250" width="250" x="0" y="0"/>
    <polygon fill="dodgerblue" opacity="1" points="25.000000000000004,7.5 12.62563132923542,12.625631329235416 7.5,24.999999999999996 12.625631329235416,37.37436867076458 24.999999999999996,42.5 37.37436867076458,37.37436867076458 42.5,25.000000000000007 37.374368670764596,12.625631329235434" stroke-width="0" transform=" rotate(0, 25, 25)"/>
    <polygon fill="dodgerblue" opacity="1" points="65.0,7.5 52.62563132923542,12.625631329235416 47.5,24.999999999999996 52.62563132923542,37.37436867076458 65.0,42.5 77.37436867076458,37.37436867076458 82.5,25.000000000000007 77.3743686707646,12.625631329235434" stroke-width="0" transform=" rotate(0, 65, 25)"/>
    <polygon fill="dodgerblue" opacity="1" points="105.0,7.5 92.62563132923542,12.625631329235416 87.5,24.999999999999996 92.62563132923542,37.37436867076458 105.0,42.5 117.37436867076458,37.37436867076458 122.5,25.000000000000007 117.3743686707646,12.625631329235434" stroke-width="0" transform=" rotate(0, 105, 25)"/>
    <polygon fill="dodgerblue" opacity="1" points="145.0,7.5 132.62563132923543,12.625631329235416 127.5,24.999999999999996 132.6256313292354,37.37436867076458 145.0,42.5 157.37436867076457,37.37436867076458 162.5,25.000000000000007 157.3743686707646,12.625631329235434" stroke-width="0" transform=" rotate(0, 145, 25)"/>
    <polygon fill="dodgerblue" opacity="1" points="185.0,7.5 172.62563132923543,12.625631329235416 167.5,24.999999999999996 172.6256313292354,37.37436867076458 185.0,42.5 197.37436867076457,37.37436867076458 202.5,25.000000000000007 197.3743686707646,12.625631329235434" stroke-width="0" transform=" rotate(0, 185, 25)"/>
    <polygon fill="dodgerblue" opacity="1" points="225.0,7.5 212.62563132923543,12.625631329235416 207.5,24.999999999999996 212.6256313292354,37.37436867076458 225.0,42.5 237.37436867076457,37.37436867076458 242.5,25.000000000000007 237.3743686707646,12.625631329235434" stroke-width="0" transform=" rotate(0, 225, 25)"/>
    <polygon fill="dodgerblue" opacity="1" points="25.000000000000004,47.5 12.62563132923542,52.62563132923542 7.5,65.0 12.625631329235416,77.37436867076458 24.999999999999996,82.5 37.37436867076458,77.37436867076458 42.5,65.0 37.374368670764596,52.62563132923543" stroke-width="0" transform=" rotate(0, 25, 65)"/>
    <polygon fill="dodgerblue" opacity="1" points="65.0,47.5 52.62563132923542,52.62563132923542 47.5,65.0 52.62563132923542,77.37436867076458 65.0,82.5 77.37436867076458,77.37436867076458 82.5,65.0 77.3743686707646,52.62563132923543" stroke-width="0" transform=" rotate(0, 65, 65)"/>
    <polygon fill="dodgerblue" opacity="1" points="105.0,47.5 92.62563132923542,52.62563132923542 87.5,65.0 92.62563132923542,77.37436867076458 105.0,82.5 117.37436867076458,77.37436867076458 122.5,65.0 117.3743686707646,52.62563132923543" stroke-width="0" transform=" rotate(0, 105, 65)"/>
    <polygon fill="dodgerblue" opacity="1" points="145.0,47.5 132.62563132923543,52.62563132923542 127.5,65.0 132.6256313292354,77.37436867076458 145.0,82.5 157.37436867076457,77.37436867076458 162.5,65.0 157.3743686707646,52.62563132923543" stroke-width="0" transform=" rotate(0, 145, 65)"/>
    <polygon fill="dodgerblue" opacity="1" points="185.0,47.5 172.62563132923543,52.62563132923542 167.5,65.0 172.6256313292354,77.37436867076458 185.0,82.5 197.37436867076457,77.37436867076458 202.5,65.0 197.3743686707646,52.62563132923543" stroke-width="0" transform=" rotate(0, 185, 65)"/>
    <polygon fill="dodgerblue" opacity="1" points="225.0,47.5 212.62563132923543,52.62563132923542 207.5,65.0 212.6256313292354,77.37436867076458 225.0,82.5 237.37436867076457,77.37436867076458 242.5,65.0 237.3743686707646,52.62563132923543" stroke-width="0" transform=" rotate(0, 225, 65)"/>
    <polygon fill="dodgerblue" opacity="1" points="25.000000000000004,87.5 12.62563132923542,92.62563132923542 7.5,105.0 12.625631329235416,117.37436867076458 24.999999999999996,122.5 37.37436867076458,117.37436867076458 42.5,105.0 37.374368670764596,92.62563132923543" stroke-width="0" transform=" rotate(0, 25, 105)"/>
    <polygon fill="dodgerblue" opacity="1" points="65.0,87.5 52.62563132923542,92.62563132923542 47.5,105.0 52.62563132923542,117.37436867076458 65.0,122.5 77.37436867076458,117.37436867076458 82.5,105.0 77.3743686707646,92.62563132923543" stroke-width="0" transform=" rotate(0, 65, 105)"/>
    <polygon fill="dodgerblue" opacity="1" points="105.0,87.5 92.62563132923542,92.62563132923542 87.5,105.0 92.62563132923542,117.37436867076458 105.0,122.5 117.37436867076458,117.37436867076458 122.5,105.0 117.3743686707646,92.62563132923543" stroke-width="0" transform=" rotate(0, 105, 105)"/>
    <polygon fill="dodgerblue" opacity="1" points="145.0,87.5 132.62563132923543,92.62563132923542 127.5,105.0 132.6256313292354,117.37436867076458 145.0,122.5 157.37436867076457,117.37436867076458 162.5,105.0 157.3743686707646,92.62563132923543" stroke-width="0" transform=" rotate(0, 145, 105)"/>
    <polygon fill="dodgerblue" opacity="1" points="185.0,87.5 172.62563132923543,92.62563132923542 167.5,105.0 172.6256313292354,117.37436867076458 185.0,122.5 197.37436867076457,117.37436867076458 202.5,105.0 197.3743686707646,92.62563132923543" stroke-width="0" transform=" rotate(0, 185, 105)"/>
    <polygon fill="dodgerblue" opacity="1" points="225.0,87.5 212.62563132923543,92.62563132923542 207.5,105.0 212.6256313292354,117.37436867076458 225.0,122.5 237.37436867076457,117.37436867076458 242.5,105.0 237.3743686707646,92.62563132923543" stroke-width="0" transform=" rotate(0, 225, 105)"/>
    <polygon fill="dodgerblue" opacity="1" points="25.000000000000004,127.5 12.62563132923542,132.6256313292354 7.5,145.0 12.625631329235416,157.37436867076457 24.999999999999996,162.5 37.37436867076458,157.3743686707646 42.5,145.0 37.374368670764596,132.62563132923543" stroke-width="0" transform=" rotate(0, 25, 145)"/>
    <polygon fill="dodgerblue" opacity="1" points="65.0,127.5 52.62563132923542,132.6256313292354 47.5,145.0 52.62563132923542,157.37436867076457 65.0,162.5 77.37436867076458,157.3743686707646 82.5,145.0 77.3743686707646,132.62563132923543" stroke-width="0" transform=" rotate(0, 65, 145)"/>
    <polygon fill="dodgerblue" opacity="1" points="105.0,127.5 92.62563132923542,132.6256313292354 87.5,145.0 92.62563132923542,157.37436867076457 105.0,162.5 117.37436867076458,157.3743686707646 122.5,145.0 117.3743686707646,132.62563132923543" stroke-width="0" transform=" rotate(0, 105, 145)"/>
    <polygon fill="dodgerblue" opacity="1" points="145.0,127.5 132.62563132923543,132.6256313292354 127.5,145.0 132.6256313292354,157.37436867076457 145.0,162.5 157.37436867076457,157.3743686707646 162.5,145.0 157.3743686707646,132.62563132923543" stroke-width="0" transform=" rotate(0, 145, 145)"/>
    <polygon fill="dodgerblue" opacity="1" points="185.0,127.5 172.62563132923543,132.6256313292354 167.5,145.0 172.6256313292354,157.37436867076457 185.0,162.5 197.37436867076457,157.3743686707646 202.5,145.0 197.3743686707646,132.62563132923543" stroke-width="0" transform=" rotate(0, 185, 145)"/>
    <polygon fill="dodgerblue" opacity="1" points="225.0,127.5 212.62563132923543,132.6256313292354 207.5,145.0 212.6256313292354,157.37436867076457 225.0,162.5 237.37436867076457,157.3743686707646 242.5,145.0 237.3743686707646,132.62563132923543" stroke-width="0" transform=" rotate(0, 225, 145)"/>
    <polygon fill="dodgerblue" opacity="1" points="25.000000000000004,167.5 12.62563132923542,172.6256313292354 7.5,185.0 12.625631329235416,197.37436867076457 24.999999999999996,202.5 37.37436867076458,197.3743686707646 42.5,185.0 37.374368670764596,172.62563132923543" stroke-width="0" transform=" rotate(0, 25, 185)"/>
    <polygon fill="dodgerblue" opacity="1" points="65.0,167.5 52.62563132923542,172.6256313292354 47.5,185.0 52.62563132923542,197.37436867076457 65.0,202.5 77.37436867076458,197.3743686707646 82.5,185.0 77.3743686707646,172.62563132923543" stroke-width="0" transform=" rotate(0, 65, 185)"/>
    <polygon fill="dodgerblue" opacity="1" points="105.0,167.5 92.62563132923542,172.6256313292354 87.5,185.0 92.62563132923542,197.37436867076457 105.0,202.5 117.37436867076458,197.3743686707646 122.5,185.0 117.3743686707646,172.62563132923543" stroke-width="0" transform=" rotate(0, 105, 185)"/>
    <polygon fill="dodgerblue" opacity="1" points="145.0,167.5 132.62563132923543,172.6256313292354 127.5,185.0 132.6256313292354,197.37436867076457 145.0,202.5 157.37436867076457,197.3743686707646 162.5,185.0 157.3743686707646,172.62563132923543" stroke-width="0" transform=" rotate(0, 145, 185)"/>
    <polygon fill="dodgerblue" opacity="1" points="185.0,167.5 172.62563132923543,172.6256313292354 167.5,185.0 172.6256313292354,197.37436867076457 185.0,202.5 197.37436867076457,197.3743686707646 202.5,185.0 197.3743686707646,172.62563132923543" stroke-width="0" transform=" rotate(0, 185, 185)"/>
    <polygon fill="dodgerblue" opacity="1" points="225.0,167.5 212.62563132923543,172.6256313292354 207.5,185.0 212.6256313292354,197.37436867076457 225.0,202.5 237.37436867076457,197.3743686707646 242.5,185.0 237.3743686707646,172.62563132923543" stroke-width="0" transform=" rotate(0, 225, 185)"/>
    <polygon fill="dodgerblue" opacity="1" points="25.000000000000004,207.5 12.62563132923542,212.6256313292354 7.5,225.0 12.625631329235416,237.37436867076457 24.999999999999996,242.5 37.37436867076458,237.3743686707646 42.5,225.0 37.374368670764596,212.62563132923543" stroke-width="0" transform=" rotate(0, 25, 225)"/>
    <polygon fill="dodgerblue" opacity="1" points="65.0,207.5 52.62563132923542,212.6256313292354 47.5,225.0 52.62563132923542,237.37436867076457 65.0,242.5 77.37436867076458,237.3743686707646 82.5,225.0 77.3743686707646,212.62563132923543" stroke-width="0" transform=" rotate(0, 65, 225)"/>
    <polygon fill="dodgerblue" opacity="1" points="105.0,207.5 92.62563132923542,212.6256313292354 87.5,225.0 92.62563132923542,237.37436867076457 105.0,242.5 117.37436867076458,237.3743686707646 122.5,225.0 117.3743686707646,212.62563132923543" stroke-width="0" transform=" rotate(0, 105, 225)"/>
    <polygon fill="dodgerblue" opacity="1" points="145.0,207.5 132.62563132923543,212.6256313292354 127.5,225.0 132.6256313292354,237.37436867076457 145.0,242.5 157.37436867076457,237.3743686707646 162.5,225.0 157.3743686707646,212.62563132923543" stroke-width="0" transform=" rotate(0, 145, 225)"/>
    <polygon fill="dodgerblue" opacity="1" points="185.0,207.5 172.62563132923543,212.6256313292354 167.5,225.0 172.6256313292354,237.37436867076457 185.0,242.5 197.37436867076457,237.3743686707646 202.5,225.0 197.3743686707646,212.62563132923543" stroke-width="0" transform=" rotate(0, 185, 225)"/>
    <polygon fill="dodgerblue" opacity="1" points="225.0,207.5 212.62563132923543,212.6256313292354 207.5,225.0 212.6256313292354,237.37436867076457 225.0,242.5 237.37436867076457,237.3743686707646 242.5,225.0 237.3743686707646,212.62563132923543" stroke-width="0" transform=" rotate(0, 225, 225)"/>
  </g>
</svg>
