<?xml version="1.0" encoding="utf-8" ?>
<svg xmlns="http://www.w3.org/2000/svg" xmlns:ev="http://www.w3.org/2001/xml-events" xmlns:xlink="http://www.w3.org/1999/xlink" baseProfile="full" height="250" version="1.1" width="250">
  <defs/>
  <g transform=" rotate(0, 125, 125)">
    <rect fill="white" height="250" width="250" x="0" y="0"/>
    <rect fill="#6dd6ff" height="22" opacity="1" stroke-width="0" transform=" rotate(0, 25, 124)" width="22" x="14.0" y="113.99999999999999"/>
    <ellipse cx="26.519224698779198" cy="107.63518223330698" fill="#1b9fd8" opacity="1" rx="11.0" ry="11.0" stroke-width="0" transform=" rotate(0, 26, 107)"/>
    <polygon fill="#006ca1" opacity="1" points="20.03073792140917,101.79798566743311 31.03073792140917,79.79798566743311 42.03073792140917,101.79798566743311" stroke-width="0" transform=" rotate(0, 31, 90)"/>
    <rect fill="#6dd6ff" height="22" opacity="1" stroke-width="0" transform=" rotate(0, 38, 75)" width="22" x="27.397459621556123" y="64.0"/>
    <ellipse cx="48.395555688102206" cy="60.72123903134606" fill="#1b9fd8" opacity="1" rx="11.0" ry="11.0" stroke-width="0" transform=" rotate(0, 48, 60)"/>
    <polygon fill="#006ca1" opacity="1" points="49.72123903134606,59.39555568810219 60.72123903134606,37.39555568810219 71.72123903134606,59.39555568810219" stroke-width="0" transform=" rotate(0, 60, 48)"/>
    <rect fill="#6dd6ff" height="22" opacity="1" stroke-width="0" transform=" rotate(0, 75, 38)" width="22" x="64.00000000000003" y="27.397459621556123"/>
    <ellipse cx="90.79798566743312" cy="31.030737921409155" fill="#1b9fd8" opacity="1" rx="11.0" ry="11.0" stroke-width="0" transform=" rotate(0, 90, 31)"/>
    <polygon fill="#006ca1" opacity="1" points="96.63518223330698,37.5192246987792 107.63518223330698,15.519224698779198 118.63518223330698,37.5192246987792" stroke-width="0" transform=" rotate(0, 107, 26)"/>
    <rect fill="#6dd6ff" height="22" opacity="1" stroke-width="0" transform=" rotate(0, 125, 25)" width="22" x="114.0" y="14.0"/>
    <ellipse cx="142.36481776669305" cy="26.519224698779198" fill="#1b9fd8" opacity="1" rx="11.0" ry="11.0" stroke-width="0" transform=" rotate(0, 142, 26)"/>
    <polygon fill="#006ca1" opacity="1" points="148.20201433256688,42.03073792140917 159.20201433256688,20.03073792140917 170.20201433256688,42.03073792140917" stroke-width="0" transform=" rotate(0, 159, 31)"/>
    <rect fill="#6dd6ff" height="22" opacity="1" stroke-width="0" transform=" rotate(0, 175, 38)" width="22" x="164.0" y="27.397459621556138"/>
    <ellipse cx="189.27876096865396" cy="48.39555568810219" fill="#1b9fd8" opacity="1" rx="11.0" ry="11.0" stroke-width="0" transform=" rotate(0, 189, 48)"/>
    <polygon fill="#006ca1" opacity="1" points="190.6044443118978,71.72123903134607 201.6044443118978,49.72123903134607 212.6044443118978,71.72123903134607" stroke-width="0" transform=" rotate(0, 201, 60)"/>
    <rect fill="#6dd6ff" height="22" opacity="1" stroke-width="0" transform=" rotate(0, 211, 75)" width="22" x="200.60254037844388" y="64.0"/>
    <ellipse cx="218.96926207859084" cy="90.79798566743312" fill="#1b9fd8" opacity="1" rx="11.0" ry="11.0" stroke-width="0" transform=" rotate(0, 218, 90)"/>
    <polygon fill="#006ca1" opacity="1" points="212.4807753012208,118.63518223330696 223.4807753012208,96.63518223330696 234.4807753012208,118.63518223330696" stroke-width="0" transform=" rotate(0, 223, 107)"/>
    <rect fill="#6dd6ff" height="22" opacity="1" stroke-width="0" transform=" rotate(0, 225, 125)" width="22" x="214.0" y="114.0"/>
    <ellipse cx="223.4807753012208" cy="142.36481776669302" fill="#1b9fd8" opacity="1" rx="11.0" ry="11.0" stroke-width="0" transform=" rotate(0, 223, 142)"/>
    <polygon fill="#006ca1" opacity="1" points="207.96926207859084,170.20201433256688 218.96926207859084,148.20201433256688 229.96926207859084,170.20201433256688" stroke-width="0" transform=" rotate(0, 218, 159)"/>
    <rect fill="#6dd6ff" height="22" opacity="1" stroke-width="0" transform=" rotate(0, 211, 175)" width="22" x="200.60254037844388" y="164.0"/>
    <ellipse cx="201.6044443118978" cy="189.27876096865393" fill="#1b9fd8" opacity="1" rx="11.0" ry="11.0" stroke-width="0" transform=" rotate(0, 201, 189)"/>
    <polygon fill="#006ca1" opacity="1" points="178.27876096865396,212.6044443118978 189.27876096865396,190.6044443118978 200.27876096865396,212.6044443118978" stroke-width="0" transform=" rotate(0, 189, 201)"/>
    <rect fill="#6dd6ff" height="22" opacity="1" stroke-width="0" transform=" rotate(0, 175, 211)" width="22" x="164.0" y="200.60254037844385"/>
    <ellipse cx="159.20201433256688" cy="218.96926207859082" fill="#1b9fd8" opacity="1" rx="11.0" ry="11.0" stroke-width="0" transform=" rotate(0, 159, 218)"/>
    <polygon fill="#006ca1" opacity="1" points="131.36481776669305,234.4807753012208 142.36481776669305,212.4807753012208 153.36481776669305,234.4807753012208" stroke-width="0" transform=" rotate(0, 142, 223)"/>
    <rect fill="#6dd6ff" height="22" opacity="1" stroke-width="0" transform=" rotate(0, 125, 225)" width="22" x="114.0" y="214.0"/>
    <ellipse cx="107.63518223330698" cy="223.4807753012208" fill="#1b9fd8" opacity="1" rx="11.0" ry="11.0" stroke-width="0" transform=" rotate(0, 107, 223)"/>
    <polygon fill="#006ca1" opacity="1" points="79.79798566743312,229.96926207859084 90.79798566743312,207.96926207859084 101.79798566743312,229.96926207859084" stroke-width="0" transform=" rotate(0, 90, 218)"/>
    <rect fill="#6dd6ff" height="22" opacity="1" stroke-width="0" transform=" rotate(0, 75, 211)" width="22" x="64.00000000000003" y="200.60254037844388"/>
    <ellipse cx="60.72123903134606" cy="201.6044443118978" fill="#1b9fd8" opacity="1" rx="11.0" ry="11.0" stroke-width="0" transform=" rotate(0, 60, 201)"/>
    <polygon fill="#006ca1" opacity="1" points="37.395555688102206,200.27876096865396 48.395555688102206,178.27876096865396 59.395555688102206,200.27876096865396" stroke-width="0" transform=" rotate(0, 48, 189)"/>
    <rect fill="#6dd6ff" height="22" opacity="1" stroke-width="0" transform=" rotate(0, 38, 175)" width="22" x="27.397459621556123" y="164.0"/>
    <ellipse cx="31.03073792140917" cy="159.20201433256688" fill="#1b9fd8" opacity="1" rx="11.0" ry="11.0" stroke-width="0" transform=" rotate(0, 31, 159)"/>
    <polygon fill="#006ca1" opacity="1" points="15.519224698779198,153.36481776669302 26.519224698779198,131.36481776669302 37.5192246987792,153.36481776669302" stroke-width="0" transform=" rotate(0, 26, 142)"/>
  </g>
</svg>
