<?xml version="1.0" encoding="utf-8" ?>
<svg xmlns="http://www.w3.org/2000/svg" xmlns:ev="http://www.w3.org/2001/xml-events" xmlns:xlink="http://www.w3.org/1999/xlink" baseProfile="full" height="250" version="1.1" width="250">
  <defs/>
  <g transform=" rotate(0, 125, 125)">
    <rect fill="white" height="250" width="250" x="0" y="0"/>
    <rect fill="#32cd32" height="15" opacity="1" stroke-width="0" transform=" rotate(0, 28, 28)" width="15" x="20.520357912845853" y="20.52035791284588"/>
    <ellipse cx="52.02035791284585" cy="36.83713669723298" fill="#35ca50" opacity="1" rx="7.5" ry="7.5" stroke-width="0" transform=" rotate(0, 52, 36)"/>
    <rect fill="#37c76b" height="15" opacity="1" stroke-width="0" transform=" rotate(0, 76, 42)" width="15" x="68.52035791284585" y="34.786205657273186"/>
    <ellipse cx="100.02035791284585" cy="42.286205657273186" fill="#3ac485" opacity="1" rx="7.5" ry="7.5" stroke-width="0" transform=" rotate(0, 100, 42)"/>
    <rect fill="#3cc09c" height="15" opacity="1" stroke-width="0" transform=" rotate(0, 124, 36)" width="15" x="116.52035791284585" y="29.337136697232978"/>
    <ellipse cx="148.02035791284584" cy="28.020357912845885" fill="#3fbdb2" opacity="1" rx="7.5" ry="7.5" stroke-width="0" transform=" rotate(0, 148, 28)"/>
    <rect fill="#41afba" height="15" opacity="1" stroke-width="0" transform=" rotate(0, 172, 19)" width="15" x="164.52035791284584" y="11.703579128458784"/>
    <ellipse cx="196.02035791284584" cy="13.754510168418578" fill="#4498b7" opacity="1" rx="7.5" ry="7.5" stroke-width="0" transform=" rotate(0, 196, 13)"/>
    <rect fill="#4682b4" height="15" opacity="1" stroke-width="0" transform=" rotate(0, 220, 13)" width="15" x="212.52035791284584" y="6.254510168418577"/>
    <ellipse cx="36.83713669723295" cy="52.02035791284588" fill="#32cd32" opacity="1" rx="7.5" ry="7.5" stroke-width="0" transform=" rotate(0, 36, 52)"/>
    <rect fill="#35ca50" height="15" opacity="1" stroke-width="0" transform=" rotate(0, 60, 60)" width="15" x="53.33713669723295" y="53.33713669723298"/>
    <ellipse cx="84.83713669723295" cy="66.28620565727319" fill="#37c76b" opacity="1" rx="7.5" ry="7.5" stroke-width="0" transform=" rotate(0, 84, 66)"/>
    <rect fill="#3ac485" height="15" opacity="1" stroke-width="0" transform=" rotate(0, 108, 66)" width="15" x="101.33713669723295" y="58.786205657273186"/>
    <ellipse cx="132.83713669723295" cy="60.83713669723298" fill="#3cc09c" opacity="1" rx="7.5" ry="7.5" stroke-width="0" transform=" rotate(0, 132, 60)"/>
    <rect fill="#3fbdb2" height="15" opacity="1" stroke-width="0" transform=" rotate(0, 156, 52)" width="15" x="149.33713669723295" y="44.52035791284588"/>
    <ellipse cx="180.83713669723295" cy="43.203579128458784" fill="#41afba" opacity="1" rx="7.5" ry="7.5" stroke-width="0" transform=" rotate(0, 180, 43)"/>
    <rect fill="#4498b7" height="15" opacity="1" stroke-width="0" transform=" rotate(0, 204, 37)" width="15" x="197.33713669723295" y="30.254510168418577"/>
    <ellipse cx="228.83713669723295" cy="37.75451016841858" fill="#4682b4" opacity="1" rx="7.5" ry="7.5" stroke-width="0" transform=" rotate(0, 228, 37)"/>
    <rect fill="#32cd32" height="15" opacity="1" stroke-width="0" transform=" rotate(0, 42, 76)" width="15" x="34.78620565727316" y="68.52035791284588"/>
    <ellipse cx="66.28620565727316" cy="84.83713669723298" fill="#35ca50" opacity="1" rx="7.5" ry="7.5" stroke-width="0" transform=" rotate(0, 66, 84)"/>
    <rect fill="#37c76b" height="15" opacity="1" stroke-width="0" transform=" rotate(0, 90, 90)" width="15" x="82.78620565727316" y="82.78620565727319"/>
    <ellipse cx="114.28620565727316" cy="90.28620565727319" fill="#3ac485" opacity="1" rx="7.5" ry="7.5" stroke-width="0" transform=" rotate(0, 114, 90)"/>
    <rect fill="#3cc09c" height="15" opacity="1" stroke-width="0" transform=" rotate(0, 138, 84)" width="15" x="130.78620565727317" y="77.33713669723298"/>
    <ellipse cx="162.28620565727317" cy="76.02035791284588" fill="#3fbdb2" opacity="1" rx="7.5" ry="7.5" stroke-width="0" transform=" rotate(0, 162, 76)"/>
    <rect fill="#41afba" height="15" opacity="1" stroke-width="0" transform=" rotate(0, 186, 67)" width="15" x="178.78620565727317" y="59.703579128458784"/>
    <ellipse cx="210.28620565727317" cy="61.75451016841858" fill="#4498b7" opacity="1" rx="7.5" ry="7.5" stroke-width="0" transform=" rotate(0, 210, 61)"/>
    <rect fill="#4682b4" height="15" opacity="1" stroke-width="0" transform=" rotate(0, 234, 61)" width="15" x="226.78620565727317" y="54.25451016841858"/>
    <ellipse cx="42.28620565727316" cy="100.02035791284588" fill="#32cd32" opacity="1" rx="7.5" ry="7.5" stroke-width="0" transform=" rotate(0, 42, 100)"/>
    <rect fill="#35ca50" height="15" opacity="1" stroke-width="0" transform=" rotate(0, 66, 108)" width="15" x="58.78620565727316" y="101.33713669723298"/>
    <ellipse cx="90.28620565727316" cy="114.28620565727319" fill="#37c76b" opacity="1" rx="7.5" ry="7.5" stroke-width="0" transform=" rotate(0, 90, 114)"/>
    <rect fill="#3ac485" height="15" opacity="1" stroke-width="0" transform=" rotate(0, 114, 114)" width="15" x="106.78620565727316" y="106.78620565727319"/>
    <ellipse cx="138.28620565727317" cy="108.83713669723298" fill="#3cc09c" opacity="1" rx="7.5" ry="7.5" stroke-width="0" transform=" rotate(0, 138, 108)"/>
    <rect fill="#3fbdb2" height="15" opacity="1" stroke-width="0" transform=" rotate(0, 162, 100)" width="15" x="154.78620565727317" y="92.52035791284588"/>
    <ellipse cx="186.28620565727317" cy="91.20357912845878" fill="#41afba" opacity="1" rx="7.5" ry="7.5" stroke-width="0" transform=" rotate(0, 186, 91)"/>
    <rect fill="#4498b7" height="15" opacity="1" stroke-width="0" transform=" rotate(0, 210, 85)" width="15" x="202.78620565727317" y="78.25451016841858"/>
    <ellipse cx="234.28620565727317" cy="85.75451016841858" fill="#4682b4" opacity="1" rx="7.5" ry="7.5" stroke-width="0" transform=" rotate(0, 234, 85)"/>
    <rect fill="#32cd32" height="15" opacity="1" stroke-width="0" transform=" rotate(0, 36, 124)" width="15" x="29.33713669723295" y="116.52035791284588"/>
    <ellipse cx="60.83713669723295" cy="132.83713669723298" fill="#35ca50" opacity="1" rx="7.5" ry="7.5" stroke-width="0" transform=" rotate(0, 60, 132)"/>
    <rect fill="#37c76b" height="15" opacity="1" stroke-width="0" transform=" rotate(0, 84, 138)" width="15" x="77.33713669723295" y="130.78620565727317"/>
    <ellipse cx="108.83713669723295" cy="138.28620565727317" fill="#3ac485" opacity="1" rx="7.5" ry="7.5" stroke-width="0" transform=" rotate(0, 108, 138)"/>
    <rect fill="#3cc09c" height="15" opacity="1" stroke-width="0" transform=" rotate(0, 132, 132)" width="15" x="125.33713669723295" y="125.33713669723298"/>
    <ellipse cx="156.83713669723295" cy="124.02035791284588" fill="#3fbdb2" opacity="1" rx="7.5" ry="7.5" stroke-width="0" transform=" rotate(0, 156, 124)"/>
    <rect fill="#41afba" height="15" opacity="1" stroke-width="0" transform=" rotate(0, 180, 115)" width="15" x="173.33713669723295" y="107.70357912845878"/>
    <ellipse cx="204.83713669723295" cy="109.75451016841858" fill="#4498b7" opacity="1" rx="7.5" ry="7.5" stroke-width="0" transform=" rotate(0, 204, 109)"/>
    <rect fill="#4682b4" height="15" opacity="1" stroke-width="0" transform=" rotate(0, 228, 109)" width="15" x="221.33713669723295" y="102.25451016841858"/>
    <ellipse cx="28.020357912845856" cy="148.0203579128459" fill="#32cd32" opacity="1" rx="7.5" ry="7.5" stroke-width="0" transform=" rotate(0, 28, 148)"/>
    <rect fill="#35ca50" height="15" opacity="1" stroke-width="0" transform=" rotate(0, 52, 156)" width="15" x="44.52035791284585" y="149.337136697233"/>
    <ellipse cx="76.02035791284585" cy="162.28620565727317" fill="#37c76b" opacity="1" rx="7.5" ry="7.5" stroke-width="0" transform=" rotate(0, 76, 162)"/>
    <rect fill="#3ac485" height="15" opacity="1" stroke-width="0" transform=" rotate(0, 100, 162)" width="15" x="92.52035791284585" y="154.78620565727317"/>
    <ellipse cx="124.02035791284585" cy="156.837136697233" fill="#3cc09c" opacity="1" rx="7.5" ry="7.5" stroke-width="0" transform=" rotate(0, 124, 156)"/>
    <rect fill="#3fbdb2" height="15" opacity="1" stroke-width="0" transform=" rotate(0, 148, 148)" width="15" x="140.52035791284584" y="140.5203579128459"/>
    <ellipse cx="172.02035791284584" cy="139.20357912845878" fill="#41afba" opacity="1" rx="7.5" ry="7.5" stroke-width="0" transform=" rotate(0, 172, 139)"/>
    <rect fill="#4498b7" height="15" opacity="1" stroke-width="0" transform=" rotate(0, 196, 133)" width="15" x="188.52035791284584" y="126.25451016841856"/>
    <ellipse cx="220.02035791284584" cy="133.75451016841856" fill="#4682b4" opacity="1" rx="7.5" ry="7.5" stroke-width="0" transform=" rotate(0, 220, 133)"/>
    <rect fill="#32cd32" height="15" opacity="1" stroke-width="0" transform=" rotate(0, 19, 172)" width="15" x="11.703579128458756" y="164.5203579128459"/>
    <ellipse cx="43.203579128458756" cy="180.837136697233" fill="#35ca50" opacity="1" rx="7.5" ry="7.5" stroke-width="0" transform=" rotate(0, 43, 180)"/>
    <rect fill="#37c76b" height="15" opacity="1" stroke-width="0" transform=" rotate(0, 67, 186)" width="15" x="59.703579128458756" y="178.78620565727317"/>
    <ellipse cx="91.20357912845876" cy="186.28620565727317" fill="#3ac485" opacity="1" rx="7.5" ry="7.5" stroke-width="0" transform=" rotate(0, 91, 186)"/>
    <rect fill="#3cc09c" height="15" opacity="1" stroke-width="0" transform=" rotate(0, 115, 180)" width="15" x="107.70357912845876" y="173.337136697233"/>
    <ellipse cx="139.20357912845876" cy="172.0203579128459" fill="#3fbdb2" opacity="1" rx="7.5" ry="7.5" stroke-width="0" transform=" rotate(0, 139, 172)"/>
    <rect fill="#41afba" height="15" opacity="1" stroke-width="0" transform=" rotate(0, 163, 163)" width="15" x="155.70357912845878" y="155.70357912845878"/>
    <ellipse cx="187.20357912845878" cy="157.75451016841856" fill="#4498b7" opacity="1" rx="7.5" ry="7.5" stroke-width="0" transform=" rotate(0, 187, 157)"/>
    <rect fill="#4682b4" height="15" opacity="1" stroke-width="0" transform=" rotate(0, 211, 157)" width="15" x="203.70357912845878" y="150.25451016841856"/>
    <ellipse cx="13.75451016841855" cy="196.0203579128459" fill="#32cd32" opacity="1" rx="7.5" ry="7.5" stroke-width="0" transform=" rotate(0, 13, 196)"/>
    <rect fill="#35ca50" height="15" opacity="1" stroke-width="0" transform=" rotate(0, 37, 204)" width="15" x="30.25451016841855" y="197.337136697233"/>
    <ellipse cx="61.75451016841855" cy="210.28620565727317" fill="#37c76b" opacity="1" rx="7.5" ry="7.5" stroke-width="0" transform=" rotate(0, 61, 210)"/>
    <rect fill="#3ac485" height="15" opacity="1" stroke-width="0" transform=" rotate(0, 85, 210)" width="15" x="78.25451016841855" y="202.78620565727317"/>
    <ellipse cx="109.75451016841855" cy="204.837136697233" fill="#3cc09c" opacity="1" rx="7.5" ry="7.5" stroke-width="0" transform=" rotate(0, 109, 204)"/>
    <rect fill="#3fbdb2" height="15" opacity="1" stroke-width="0" transform=" rotate(0, 133, 196)" width="15" x="126.25451016841856" y="188.5203579128459"/>
    <ellipse cx="157.75451016841856" cy="187.20357912845878" fill="#41afba" opacity="1" rx="7.5" ry="7.5" stroke-width="0" transform=" rotate(0, 157, 187)"/>
    <rect fill="#4498b7" height="15" opacity="1" stroke-width="0" transform=" rotate(0, 181, 181)" width="15" x="174.25451016841856" y="174.25451016841856"/>
    <ellipse cx="205.75451016841856" cy="181.75451016841856" fill="#4682b4" opacity="1" rx="7.5" ry="7.5" stroke-width="0" transform=" rotate(0, 205, 181)"/>
    <rect fill="#32cd32" height="15" opacity="1" stroke-width="0" transform=" rotate(0, 13, 220)" width="15" x="6.254510168418548" y="212.5203579128459"/>
    <ellipse cx="37.75451016841855" cy="228.837136697233" fill="#35ca50" opacity="1" rx="7.5" ry="7.5" stroke-width="0" transform=" rotate(0, 37, 228)"/>
    <rect fill="#37c76b" height="15" opacity="1" stroke-width="0" transform=" rotate(0, 61, 234)" width="15" x="54.25451016841855" y="226.78620565727317"/>
    <ellipse cx="85.75451016841855" cy="234.28620565727317" fill="#3ac485" opacity="1" rx="7.5" ry="7.5" stroke-width="0" transform=" rotate(0, 85, 234)"/>
    <rect fill="#3cc09c" height="15" opacity="1" stroke-width="0" transform=" rotate(0, 109, 228)" width="15" x="102.25451016841855" y="221.337136697233"/>
    <ellipse cx="133.75451016841856" cy="220.0203579128459" fill="#3fbdb2" opacity="1" rx="7.5" ry="7.5" stroke-width="0" transform=" rotate(0, 133, 220)"/>
    <rect fill="#41afba" height="15" opacity="1" stroke-width="0" transform=" rotate(0, 157, 211)" width="15" x="150.25451016841856" y="203.70357912845878"/>
    <ellipse cx="181.75451016841856" cy="205.75451016841856" fill="#4498b7" opacity="1" rx="7.5" ry="7.5" stroke-width="0" transform=" rotate(0, 181, 205)"/>
    <rect fill="#4682b4" height="15" opacity="1" stroke-width="0" transform=" rotate(0, 205, 205)" width="15" x="198.25451016841856" y="198.25451016841856"/>
  </g>
</svg>
