<?xml version="1.0" encoding="utf-8" ?>
<svg xmlns="http://www.w3.org/2000/svg" xmlns:ev="http://www.w3.org/2001/xml-events" xmlns:xlink="http://www.w3.org/1999/xlink" baseProfile="full" height="293" version="1.1" width="161">
  <defs/>
  <g transform=" rotate(0, 80, 146)">
    <rect fill="none" height="293" width="161" x="0" y="0"/>
    <ellipse cx="139" cy="108" fill="dodgerblue" opacity="1" rx="10.0" ry="10.0" stroke-width="0" transform=" rotate(0, 139, 108)"/>
    <ellipse cx="64" cy="158" fill="dodgerblue" opacity="1" rx="10.0" ry="10.0" stroke-width="0" transform=" rotate(0, 64, 158)"/>
    <ellipse cx="19" cy="237" fill="dodgerblue" opacity="1" rx="10.0" ry="10.0" stroke-width="0" transform=" rotate(0, 19, 237)"/>
    <ellipse cx="106" cy="102" fill="dodgerblue" opacity="1" rx="10.0" ry="10.0" stroke-width="0" transform=" rotate(0, 106, 102)"/>
    <ellipse cx="107" cy="57" fill="dodgerblue" opacity="1" rx="10.0" ry="10.0" stroke-width="0" transform=" rotate(0, 107, 57)"/>
    <ellipse cx="90" cy="137" fill="dodgerblue" opacity="1" rx="10.0" ry="10.0" stroke-width="0" transform=" rotate(0, 90, 137)"/>
    <ellipse cx="120" cy="223" fill="dodgerblue" opacity="1" rx="10.0" ry="10.0" stroke-width="0" transform=" rotate(0, 120, 223)"/>
    <ellipse cx="105" cy="203" fill="dodgerblue" opacity="1" rx="10.0" ry="10.0" stroke-width="0" transform=" rotate(0, 105, 203)"/>
    <ellipse cx="15" cy="78" fill="dodgerblue" opacity="1" rx="10.0" ry="10.0" stroke-width="0" transform=" rotate(0, 15, 78)"/>
    <ellipse cx="130" cy="79" fill="dodgerblue" opacity="1" rx="10.0" ry="10.0" stroke-width="0" transform=" rotate(0, 130, 79)"/>
    <ellipse cx="74" cy="218" fill="dodgerblue" opacity="1" rx="10.0" ry="10.0" stroke-width="0" transform=" rotate(0, 74, 218)"/>
    <ellipse cx="91" cy="78" fill="dodgerblue" opacity="1" rx="10.0" ry="10.0" stroke-width="0" transform=" rotate(0, 91, 78)"/>
    <ellipse cx="151" cy="12" fill="dodgerblue" opacity="1" rx="10.0" ry="10.0" stroke-width="0" transform=" rotate(0, 151, 12)"/>
    <ellipse cx="142" cy="267" fill="dodgerblue" opacity="1" rx="10.0" ry="10.0" stroke-width="0" transform=" rotate(0, 142, 267)"/>
    <ellipse cx="32" cy="184" fill="dodgerblue" opacity="1" rx="10.0" ry="10.0" stroke-width="0" transform=" rotate(0, 32, 184)"/>
    <ellipse cx="68" cy="111" fill="dodgerblue" opacity="1" rx="10.0" ry="10.0" stroke-width="0" transform=" rotate(0, 68, 111)"/>
    <ellipse cx="142" cy="63" fill="dodgerblue" opacity="1" rx="10.0" ry="10.0" stroke-width="0" transform=" rotate(0, 142, 63)"/>
    <ellipse cx="110" cy="31" fill="dodgerblue" opacity="1" rx="10.0" ry="10.0" stroke-width="0" transform=" rotate(0, 110, 31)"/>
    <ellipse cx="142" cy="179" fill="dodgerblue" opacity="1" rx="10.0" ry="10.0" stroke-width="0" transform=" rotate(0, 142, 179)"/>
    <ellipse cx="43" cy="206" fill="dodgerblue" opacity="1" rx="10.0" ry="10.0" stroke-width="0" transform=" rotate(0, 43, 206)"/>
    <ellipse cx="28" cy="124" fill="dodgerblue" opacity="1" rx="10.0" ry="10.0" stroke-width="0" transform=" rotate(0, 28, 124)"/>
    <ellipse cx="122" cy="145" fill="dodgerblue" opacity="1" rx="10.0" ry="10.0" stroke-width="0" transform=" rotate(0, 122, 145)"/>
    <ellipse cx="13" cy="175" fill="dodgerblue" opacity="1" rx="10.0" ry="10.0" stroke-width="0" transform=" rotate(0, 13, 175)"/>
    <ellipse cx="55" cy="283" fill="dodgerblue" opacity="1" rx="10.0" ry="10.0" stroke-width="0" transform=" rotate(0, 55, 283)"/>
    <ellipse cx="47" cy="21" fill="dodgerblue" opacity="1" rx="10.0" ry="10.0" stroke-width="0" transform=" rotate(0, 47, 21)"/>
    <ellipse cx="20" cy="155" fill="dodgerblue" opacity="1" rx="10.0" ry="10.0" stroke-width="0" transform=" rotate(0, 20, 155)"/>
    <ellipse cx="59" cy="255" fill="dodgerblue" opacity="1" rx="10.0" ry="10.0" stroke-width="0" transform=" rotate(0, 59, 255)"/>
    <ellipse cx="111" cy="279" fill="dodgerblue" opacity="1" rx="10.0" ry="10.0" stroke-width="0" transform=" rotate(0, 111, 279)"/>
    <ellipse cx="88" cy="27" fill="dodgerblue" opacity="1" rx="10.0" ry="10.0" stroke-width="0" transform=" rotate(0, 88, 27)"/>
    <ellipse cx="25" cy="10" fill="dodgerblue" opacity="1" rx="10.0" ry="10.0" stroke-width="0" transform=" rotate(0, 25, 10)"/>
    <ellipse cx="82" cy="59" fill="dodgerblue" opacity="1" rx="10.0" ry="10.0" stroke-width="0" transform=" rotate(0, 82, 59)"/>
    <ellipse cx="77" cy="178" fill="dodgerblue" opacity="1" rx="10.0" ry="10.0" stroke-width="0" transform=" rotate(0, 77, 178)"/>
    <ellipse cx="105" cy="248" fill="dodgerblue" opacity="1" rx="10.0" ry="10.0" stroke-width="0" transform=" rotate(0, 105, 248)"/>
    <ellipse cx="10" cy="101" fill="dodgerblue" opacity="1" rx="10.0" ry="10.0" stroke-width="0" transform=" rotate(0, 10, 101)"/>
    <ellipse cx="140" cy="38" fill="dodgerblue" opacity="1" rx="10.0" ry="10.0" stroke-width="0" transform=" rotate(0, 140, 38)"/>
    <ellipse cx="20" cy="280" fill="dodgerblue" opacity="1" rx="10.0" ry="10.0" stroke-width="0" transform=" rotate(0, 20, 280)"/>
  </g>
</svg>
