<?xml version="1.0" encoding="utf-8" ?>
<svg xmlns="http://www.w3.org/2000/svg" xmlns:ev="http://www.w3.org/2001/xml-events" xmlns:xlink="http://www.w3.org/1999/xlink" baseProfile="full" height="250" version="1.1" width="250">
  <defs/>
  <g transform=" rotate(0, 125, 125)">
    <rect fill="white" height="250" width="250" x="0" y="0"/>
    <polygon fill="dodgerblue" opacity="1" points="25.0,15.0 17.928932188134524,17.928932188134524 15.0,24.999999999999996 17.928932188134524,32.071067811865476 24.999999999999996,35.0 32.071067811865476,32.071067811865476 35.0,25.000000000000004 32.07106781186548,17.92893218813453" stroke-width="0" transform=" rotate(0, 25, 25)"/>
    <polygon fill="dodgerblue" opacity="1" points="50.0,17.5 44.69669914110089,19.696699141100893 42.5,25.0 44.69669914110089,30.303300858899107 50.0,32.5 55.30330085889911,30.303300858899107 57.5,25.000000000000004 55.303300858899114,19.6966991411009" stroke-width="0" transform=" rotate(0, 50, 25)"/>
    <polygon fill="dodgerblue" opacity="1" points="75.0,15.0 67.92893218813452,17.928932188134524 65.0,24.999999999999996 67.92893218813452,32.071067811865476 75.0,35.0 82.07106781186548,32.071067811865476 85.0,25.000000000000004 82.07106781186549,17.92893218813453" stroke-width="0" transform=" rotate(0, 75, 25)"/>
    <polygon fill="dodgerblue" opacity="1" points="100.0,17.5 94.6966991411009,19.696699141100893 92.5,25.0 94.6966991411009,30.303300858899107 100.0,32.5 105.3033008588991,30.303300858899107 107.5,25.000000000000004 105.3033008588991,19.6966991411009" stroke-width="0" transform=" rotate(0, 100, 25)"/>
    <polygon fill="dodgerblue" opacity="1" points="125.0,15.0 117.92893218813452,17.928932188134524 115.0,24.999999999999996 117.92893218813452,32.071067811865476 125.0,35.0 132.07106781186548,32.071067811865476 135.0,25.000000000000004 132.07106781186548,17.92893218813453" stroke-width="0" transform=" rotate(0, 125, 25)"/>
    <polygon fill="dodgerblue" opacity="1" points="150.0,17.5 144.6966991411009,19.696699141100893 142.5,25.0 144.69669914110088,30.303300858899107 150.0,32.5 155.3033008588991,30.303300858899107 157.5,25.000000000000004 155.30330085889912,19.6966991411009" stroke-width="0" transform=" rotate(0, 150, 25)"/>
    <polygon fill="dodgerblue" opacity="1" points="175.0,15.0 167.92893218813452,17.928932188134524 165.0,24.999999999999996 167.92893218813452,32.071067811865476 175.0,35.0 182.07106781186548,32.071067811865476 185.0,25.000000000000004 182.07106781186548,17.92893218813453" stroke-width="0" transform=" rotate(0, 175, 25)"/>
    <polygon fill="dodgerblue" opacity="1" points="200.0,17.5 194.6966991411009,19.696699141100893 192.5,25.0 194.69669914110088,30.303300858899107 200.0,32.5 205.3033008588991,30.303300858899107 207.5,25.000000000000004 205.30330085889912,19.6966991411009" stroke-width="0" transform=" rotate(0, 200, 25)"/>
    <polygon fill="dodgerblue" opacity="1" points="225.0,15.0 217.92893218813452,17.928932188134524 215.0,24.999999999999996 217.92893218813452,32.071067811865476 225.0,35.0 232.07106781186548,32.071067811865476 235.0,25.000000000000004 232.07106781186548,17.92893218813453" stroke-width="0" transform=" rotate(0, 225, 25)"/>
    <polygon fill="dodgerblue" opacity="1" points="25.0,42.5 19.696699141100893,44.69669914110089 17.5,50.0 19.696699141100893,55.30330085889911 24.999999999999996,57.5 30.303300858899107,55.30330085889911 32.5,50.0 30.303300858899114,44.6966991411009" stroke-width="0" transform=" rotate(0, 25, 50)"/>
    <polygon fill="dodgerblue" opacity="1" points="50.0,40.0 42.928932188134524,42.928932188134524 40.0,50.0 42.928932188134524,57.071067811865476 50.0,60.0 57.071067811865476,57.071067811865476 60.0,50.0 57.07106781186548,42.92893218813453" stroke-width="0" transform=" rotate(0, 50, 50)"/>
    <polygon fill="dodgerblue" opacity="1" points="75.0,42.5 69.6966991411009,44.69669914110089 67.5,50.0 69.6966991411009,55.30330085889911 75.0,57.5 80.3033008588991,55.30330085889911 82.5,50.0 80.3033008588991,44.6966991411009" stroke-width="0" transform=" rotate(0, 75, 50)"/>
    <polygon fill="dodgerblue" opacity="1" points="100.0,40.0 92.92893218813452,42.928932188134524 90.0,50.0 92.92893218813452,57.071067811865476 100.0,60.0 107.07106781186548,57.071067811865476 110.0,50.0 107.07106781186549,42.92893218813453" stroke-width="0" transform=" rotate(0, 100, 50)"/>
    <polygon fill="dodgerblue" opacity="1" points="125.0,42.5 119.6966991411009,44.69669914110089 117.5,50.0 119.6966991411009,55.30330085889911 125.0,57.5 130.3033008588991,55.30330085889911 132.5,50.0 130.30330085889912,44.6966991411009" stroke-width="0" transform=" rotate(0, 125, 50)"/>
    <polygon fill="dodgerblue" opacity="1" points="150.0,40.0 142.92893218813452,42.928932188134524 140.0,50.0 142.92893218813452,57.071067811865476 150.0,60.0 157.07106781186548,57.071067811865476 160.0,50.0 157.07106781186548,42.92893218813453" stroke-width="0" transform=" rotate(0, 150, 50)"/>
    <polygon fill="dodgerblue" opacity="1" points="175.0,42.5 169.6966991411009,44.69669914110089 167.5,50.0 169.69669914110088,55.30330085889911 175.0,57.5 180.3033008588991,55.30330085889911 182.5,50.0 180.30330085889912,44.6966991411009" stroke-width="0" transform=" rotate(0, 175, 50)"/>
    <polygon fill="dodgerblue" opacity="1" points="200.0,40.0 192.92893218813452,42.928932188134524 190.0,50.0 192.92893218813452,57.071067811865476 200.0,60.0 207.07106781186548,57.071067811865476 210.0,50.0 207.07106781186548,42.92893218813453" stroke-width="0" transform=" rotate(0, 200, 50)"/>
    <polygon fill="dodgerblue" opacity="1" points="225.0,42.5 219.6966991411009,44.69669914110089 217.5,50.0 219.69669914110088,55.30330085889911 225.0,57.5 230.3033008588991,55.30330085889911 232.5,50.0 230.30330085889912,44.6966991411009" stroke-width="0" transform=" rotate(0, 225, 50)"/>
    <polygon fill="dodgerblue" opacity="1" points="25.0,65.0 17.928932188134524,67.92893218813452 15.0,75.0 17.928932188134524,82.07106781186548 24.999999999999996,85.0 32.071067811865476,82.07106781186548 35.0,75.0 32.07106781186548,67.92893218813454" stroke-width="0" transform=" rotate(0, 25, 75)"/>
    <polygon fill="dodgerblue" opacity="1" points="50.0,67.5 44.69669914110089,69.6966991411009 42.5,75.0 44.69669914110089,80.3033008588991 50.0,82.5 55.30330085889911,80.3033008588991 57.5,75.0 55.303300858899114,69.6966991411009" stroke-width="0" transform=" rotate(0, 50, 75)"/>
    <polygon fill="dodgerblue" opacity="1" points="75.0,65.0 67.92893218813452,67.92893218813452 65.0,75.0 67.92893218813452,82.07106781186548 75.0,85.0 82.07106781186548,82.07106781186548 85.0,75.0 82.07106781186549,67.92893218813454" stroke-width="0" transform=" rotate(0, 75, 75)"/>
    <polygon fill="dodgerblue" opacity="1" points="100.0,67.5 94.6966991411009,69.6966991411009 92.5,75.0 94.6966991411009,80.3033008588991 100.0,82.5 105.3033008588991,80.3033008588991 107.5,75.0 105.3033008588991,69.6966991411009" stroke-width="0" transform=" rotate(0, 100, 75)"/>
    <polygon fill="dodgerblue" opacity="1" points="125.0,65.0 117.92893218813452,67.92893218813452 115.0,75.0 117.92893218813452,82.07106781186548 125.0,85.0 132.07106781186548,82.07106781186548 135.0,75.0 132.07106781186548,67.92893218813454" stroke-width="0" transform=" rotate(0, 125, 75)"/>
    <polygon fill="dodgerblue" opacity="1" points="150.0,67.5 144.6966991411009,69.6966991411009 142.5,75.0 144.69669914110088,80.3033008588991 150.0,82.5 155.3033008588991,80.3033008588991 157.5,75.0 155.30330085889912,69.6966991411009" stroke-width="0" transform=" rotate(0, 150, 75)"/>
    <polygon fill="dodgerblue" opacity="1" points="175.0,65.0 167.92893218813452,67.92893218813452 165.0,75.0 167.92893218813452,82.07106781186548 175.0,85.0 182.07106781186548,82.07106781186548 185.0,75.0 182.07106781186548,67.92893218813454" stroke-width="0" transform=" rotate(0, 175, 75)"/>
    <polygon fill="dodgerblue" opacity="1" points="200.0,67.5 194.6966991411009,69.6966991411009 192.5,75.0 194.69669914110088,80.3033008588991 200.0,82.5 205.3033008588991,80.3033008588991 207.5,75.0 205.30330085889912,69.6966991411009" stroke-width="0" transform=" rotate(0, 200, 75)"/>
    <polygon fill="dodgerblue" opacity="1" points="225.0,65.0 217.92893218813452,67.92893218813452 215.0,75.0 217.92893218813452,82.07106781186548 225.0,85.0 232.07106781186548,82.07106781186548 235.0,75.0 232.07106781186548,67.92893218813454" stroke-width="0" transform=" rotate(0, 225, 75)"/>
    <polygon fill="dodgerblue" opacity="1" points="25.0,92.5 19.696699141100893,94.6966991411009 17.5,100.0 19.696699141100893,105.3033008588991 24.999999999999996,107.5 30.303300858899107,105.3033008588991 32.5,100.0 30.303300858899114,94.6966991411009" stroke-width="0" transform=" rotate(0, 25, 100)"/>
    <polygon fill="dodgerblue" opacity="1" points="50.0,90.0 42.928932188134524,92.92893218813452 40.0,100.0 42.928932188134524,107.07106781186548 50.0,110.0 57.071067811865476,107.07106781186548 60.0,100.0 57.07106781186548,92.92893218813454" stroke-width="0" transform=" rotate(0, 50, 100)"/>
    <polygon fill="dodgerblue" opacity="1" points="75.0,92.5 69.6966991411009,94.6966991411009 67.5,100.0 69.6966991411009,105.3033008588991 75.0,107.5 80.3033008588991,105.3033008588991 82.5,100.0 80.3033008588991,94.6966991411009" stroke-width="0" transform=" rotate(0, 75, 100)"/>
    <polygon fill="dodgerblue" opacity="1" points="100.0,90.0 92.92893218813452,92.92893218813452 90.0,100.0 92.92893218813452,107.07106781186548 100.0,110.0 107.07106781186548,107.07106781186548 110.0,100.0 107.07106781186549,92.92893218813454" stroke-width="0" transform=" rotate(0, 100, 100)"/>
    <polygon fill="dodgerblue" opacity="1" points="125.0,92.5 119.6966991411009,94.6966991411009 117.5,100.0 119.6966991411009,105.3033008588991 125.0,107.5 130.3033008588991,105.3033008588991 132.5,100.0 130.30330085889912,94.6966991411009" stroke-width="0" transform=" rotate(0, 125, 100)"/>
    <polygon fill="dodgerblue" opacity="1" points="150.0,90.0 142.92893218813452,92.92893218813452 140.0,100.0 142.92893218813452,107.07106781186548 150.0,110.0 157.07106781186548,107.07106781186548 160.0,100.0 157.07106781186548,92.92893218813454" stroke-width="0" transform=" rotate(0, 150, 100)"/>
    <polygon fill="dodgerblue" opacity="1" points="175.0,92.5 169.6966991411009,94.6966991411009 167.5,100.0 169.69669914110088,105.3033008588991 175.0,107.5 180.3033008588991,105.3033008588991 182.5,100.0 180.30330085889912,94.6966991411009" stroke-width="0" transform=" rotate(0, 175, 100)"/>
    <polygon fill="dodgerblue" opacity="1" points="200.0,90.0 192.92893218813452,92.92893218813452 190.0,100.0 192.92893218813452,107.07106781186548 200.0,110.0 207.07106781186548,107.07106781186548 210.0,100.0 207.07106781186548,92.92893218813454" stroke-width="0" transform=" rotate(0, 200, 100)"/>
    <polygon fill="dodgerblue" opacity="1" points="225.0,92.5 219.6966991411009,94.6966991411009 217.5,100.0 219.69669914110088,105.3033008588991 225.0,107.5 230.3033008588991,105.3033008588991 232.5,100.0 230.30330085889912,94.6966991411009" stroke-width="0" transform=" rotate(0, 225, 100)"/>
    <polygon fill="dodgerblue" opacity="1" points="25.0,115.0 17.928932188134524,117.92893218813452 15.0,125.0 17.928932188134524,132.07106781186548 24.999999999999996,135.0 32.071067811865476,132.07106781186548 35.0,125.0 32.07106781186548,117.92893218813454" stroke-width="0" transform=" rotate(0, 25, 125)"/>
    <polygon fill="dodgerblue" opacity="1" points="50.0,117.5 44.69669914110089,119.6966991411009 42.5,125.0 44.69669914110089,130.3033008588991 50.0,132.5 55.30330085889911,130.30330085889912 57.5,125.0 55.303300858899114,119.6966991411009" stroke-width="0" transform=" rotate(0, 50, 125)"/>
    <polygon fill="dodgerblue" opacity="1" points="75.0,115.0 67.92893218813452,117.92893218813452 65.0,125.0 67.92893218813452,132.07106781186548 75.0,135.0 82.07106781186548,132.07106781186548 85.0,125.0 82.07106781186549,117.92893218813454" stroke-width="0" transform=" rotate(0, 75, 125)"/>
    <polygon fill="dodgerblue" opacity="1" points="100.0,117.5 94.6966991411009,119.6966991411009 92.5,125.0 94.6966991411009,130.3033008588991 100.0,132.5 105.3033008588991,130.30330085889912 107.5,125.0 105.3033008588991,119.6966991411009" stroke-width="0" transform=" rotate(0, 100, 125)"/>
    <polygon fill="dodgerblue" opacity="1" points="125.0,115.0 117.92893218813452,117.92893218813452 115.0,125.0 117.92893218813452,132.07106781186548 125.0,135.0 132.07106781186548,132.07106781186548 135.0,125.0 132.07106781186548,117.92893218813454" stroke-width="0" transform=" rotate(0, 125, 125)"/>
    <polygon fill="dodgerblue" opacity="1" points="150.0,117.5 144.6966991411009,119.6966991411009 142.5,125.0 144.69669914110088,130.3033008588991 150.0,132.5 155.3033008588991,130.30330085889912 157.5,125.0 155.30330085889912,119.6966991411009" stroke-width="0" transform=" rotate(0, 150, 125)"/>
    <polygon fill="dodgerblue" opacity="1" points="175.0,115.0 167.92893218813452,117.92893218813452 165.0,125.0 167.92893218813452,132.07106781186548 175.0,135.0 182.07106781186548,132.07106781186548 185.0,125.0 182.07106781186548,117.92893218813454" stroke-width="0" transform=" rotate(0, 175, 125)"/>
    <polygon fill="dodgerblue" opacity="1" points="200.0,117.5 194.6966991411009,119.6966991411009 192.5,125.0 194.69669914110088,130.3033008588991 200.0,132.5 205.3033008588991,130.30330085889912 207.5,125.0 205.30330085889912,119.6966991411009" stroke-width="0" transform=" rotate(0, 200, 125)"/>
    <polygon fill="dodgerblue" opacity="1" points="225.0,115.0 217.92893218813452,117.92893218813452 215.0,125.0 217.92893218813452,132.07106781186548 225.0,135.0 232.07106781186548,132.07106781186548 235.0,125.0 232.07106781186548,117.92893218813454" stroke-width="0" transform=" rotate(0, 225, 125)"/>
    <polygon fill="dodgerblue" opacity="1" points="25.0,142.5 19.696699141100893,144.69669914110088 17.5,150.0 19.696699141100893,155.3033008588991 24.999999999999996,157.5 30.303300858899107,155.30330085889912 32.5,150.0 30.303300858899114,144.6966991411009" stroke-width="0" transform=" rotate(0, 25, 150)"/>
    <polygon fill="dodgerblue" opacity="1" points="50.0,140.0 42.928932188134524,142.92893218813452 40.0,150.0 42.928932188134524,157.07106781186548 50.0,160.0 57.071067811865476,157.07106781186548 60.0,150.0 57.07106781186548,142.92893218813452" stroke-width="0" transform=" rotate(0, 50, 150)"/>
    <polygon fill="dodgerblue" opacity="1" points="75.0,142.5 69.6966991411009,144.69669914110088 67.5,150.0 69.6966991411009,155.3033008588991 75.0,157.5 80.3033008588991,155.30330085889912 82.5,150.0 80.3033008588991,144.6966991411009" stroke-width="0" transform=" rotate(0, 75, 150)"/>
    <polygon fill="dodgerblue" opacity="1" points="100.0,140.0 92.92893218813452,142.92893218813452 90.0,150.0 92.92893218813452,157.07106781186548 100.0,160.0 107.07106781186548,157.07106781186548 110.0,150.0 107.07106781186549,142.92893218813452" stroke-width="0" transform=" rotate(0, 100, 150)"/>
    <polygon fill="dodgerblue" opacity="1" points="125.0,142.5 119.6966991411009,144.69669914110088 117.5,150.0 119.6966991411009,155.3033008588991 125.0,157.5 130.3033008588991,155.30330085889912 132.5,150.0 130.30330085889912,144.6966991411009" stroke-width="0" transform=" rotate(0, 125, 150)"/>
    <polygon fill="dodgerblue" opacity="1" points="150.0,140.0 142.92893218813452,142.92893218813452 140.0,150.0 142.92893218813452,157.07106781186548 150.0,160.0 157.07106781186548,157.07106781186548 160.0,150.0 157.07106781186548,142.92893218813452" stroke-width="0" transform=" rotate(0, 150, 150)"/>
    <polygon fill="dodgerblue" opacity="1" points="175.0,142.5 169.6966991411009,144.69669914110088 167.5,150.0 169.69669914110088,155.3033008588991 175.0,157.5 180.3033008588991,155.30330085889912 182.5,150.0 180.30330085889912,144.6966991411009" stroke-width="0" transform=" rotate(0, 175, 150)"/>
    <polygon fill="dodgerblue" opacity="1" points="200.0,140.0 192.92893218813452,142.92893218813452 190.0,150.0 192.92893218813452,157.07106781186548 200.0,160.0 207.07106781186548,157.07106781186548 210.0,150.0 207.07106781186548,142.92893218813452" stroke-width="0" transform=" rotate(0, 200, 150)"/>
    <polygon fill="dodgerblue" opacity="1" points="225.0,142.5 219.6966991411009,144.69669914110088 217.5,150.0 219.69669914110088,155.3033008588991 225.0,157.5 230.3033008588991,155.30330085889912 232.5,150.0 230.30330085889912,144.6966991411009" stroke-width="0" transform=" rotate(0, 225, 150)"/>
    <polygon fill="dodgerblue" opacity="1" points="25.0,165.0 17.928932188134524,167.92893218813452 15.0,175.0 17.928932188134524,182.07106781186548 24.999999999999996,185.0 32.071067811865476,182.07106781186548 35.0,175.0 32.07106781186548,167.92893218813452" stroke-width="0" transform=" rotate(0, 25, 175)"/>
    <polygon fill="dodgerblue" opacity="1" points="50.0,167.5 44.69669914110089,169.69669914110088 42.5,175.0 44.69669914110089,180.3033008588991 50.0,182.5 55.30330085889911,180.30330085889912 57.5,175.0 55.303300858899114,169.6966991411009" stroke-width="0" transform=" rotate(0, 50, 175)"/>
    <polygon fill="dodgerblue" opacity="1" points="75.0,165.0 67.92893218813452,167.92893218813452 65.0,175.0 67.92893218813452,182.07106781186548 75.0,185.0 82.07106781186548,182.07106781186548 85.0,175.0 82.07106781186549,167.92893218813452" stroke-width="0" transform=" rotate(0, 75, 175)"/>
    <polygon fill="dodgerblue" opacity="1" points="100.0,167.5 94.6966991411009,169.69669914110088 92.5,175.0 94.6966991411009,180.3033008588991 100.0,182.5 105.3033008588991,180.30330085889912 107.5,175.0 105.3033008588991,169.6966991411009" stroke-width="0" transform=" rotate(0, 100, 175)"/>
    <polygon fill="dodgerblue" opacity="1" points="125.0,165.0 117.92893218813452,167.92893218813452 115.0,175.0 117.92893218813452,182.07106781186548 125.0,185.0 132.07106781186548,182.07106781186548 135.0,175.0 132.07106781186548,167.92893218813452" stroke-width="0" transform=" rotate(0, 125, 175)"/>
    <polygon fill="dodgerblue" opacity="1" points="150.0,167.5 144.6966991411009,169.69669914110088 142.5,175.0 144.69669914110088,180.3033008588991 150.0,182.5 155.3033008588991,180.30330085889912 157.5,175.0 155.30330085889912,169.6966991411009" stroke-width="0" transform=" rotate(0, 150, 175)"/>
    <polygon fill="dodgerblue" opacity="1" points="175.0,165.0 167.92893218813452,167.92893218813452 165.0,175.0 167.92893218813452,182.07106781186548 175.0,185.0 182.07106781186548,182.07106781186548 185.0,175.0 182.07106781186548,167.92893218813452" stroke-width="0" transform=" rotate(0, 175, 175)"/>
    <polygon fill="dodgerblue" opacity="1" points="200.0,167.5 194.6966991411009,169.69669914110088 192.5,175.0 194.69669914110088,180.3033008588991 200.0,182.5 205.3033008588991,180.30330085889912 207.5,175.0 205.30330085889912,169.6966991411009" stroke-width="0" transform=" rotate(0, 200, 175)"/>
    <polygon fill="dodgerblue" opacity="1" points="225.0,165.0 217.92893218813452,167.92893218813452 215.0,175.0 217.92893218813452,182.07106781186548 225.0,185.0 232.07106781186548,182.07106781186548 235.0,175.0 232.07106781186548,167.92893218813452" stroke-width="0" transform=" rotate(0, 225, 175)"/>
    <polygon fill="dodgerblue" opacity="1" points="25.0,192.5 19.696699141100893,194.69669914110088 17.5,200.0 19.696699141100893,205.3033008588991 24.999999999999996,207.5 30.303300858899107,205.30330085889912 32.5,200.0 30.303300858899114,194.6966991411009" stroke-width="0" transform=" rotate(0, 25, 200)"/>
    <polygon fill="dodgerblue" opacity="1" points="50.0,190.0 42.928932188134524,192.92893218813452 40.0,200.0 42.928932188134524,207.07106781186548 50.0,210.0 57.071067811865476,207.07106781186548 60.0,200.0 57.07106781186548,192.92893218813452" stroke-width="0" transform=" rotate(0, 50, 200)"/>
    <polygon fill="dodgerblue" opacity="1" points="75.0,192.5 69.6966991411009,194.69669914110088 67.5,200.0 69.6966991411009,205.3033008588991 75.0,207.5 80.3033008588991,205.30330085889912 82.5,200.0 80.3033008588991,194.6966991411009" stroke-width="0" transform=" rotate(0, 75, 200)"/>
    <polygon fill="dodgerblue" opacity="1" points="100.0,190.0 92.92893218813452,192.92893218813452 90.0,200.0 92.92893218813452,207.07106781186548 100.0,210.0 107.07106781186548,207.07106781186548 110.0,200.0 107.07106781186549,192.92893218813452" stroke-width="0" transform=" rotate(0, 100, 200)"/>
    <polygon fill="dodgerblue" opacity="1" points="125.0,192.5 119.6966991411009,194.69669914110088 117.5,200.0 119.6966991411009,205.3033008588991 125.0,207.5 130.3033008588991,205.30330085889912 132.5,200.0 130.30330085889912,194.6966991411009" stroke-width="0" transform=" rotate(0, 125, 200)"/>
    <polygon fill="dodgerblue" opacity="1" points="150.0,190.0 142.92893218813452,192.92893218813452 140.0,200.0 142.92893218813452,207.07106781186548 150.0,210.0 157.07106781186548,207.07106781186548 160.0,200.0 157.07106781186548,192.92893218813452" stroke-width="0" transform=" rotate(0, 150, 200)"/>
    <polygon fill="dodgerblue" opacity="1" points="175.0,192.5 169.6966991411009,194.69669914110088 167.5,200.0 169.69669914110088,205.3033008588991 175.0,207.5 180.3033008588991,205.30330085889912 182.5,200.0 180.30330085889912,194.6966991411009" stroke-width="0" transform=" rotate(0, 175, 200)"/>
    <polygon fill="dodgerblue" opacity="1" points="200.0,190.0 192.92893218813452,192.92893218813452 190.0,200.0 192.92893218813452,207.07106781186548 200.0,210.0 207.07106781186548,207.07106781186548 210.0,200.0 207.07106781186548,192.92893218813452" stroke-width="0" transform=" rotate(0, 200, 200)"/>
    <polygon fill="dodgerblue" opacity="1" points="225.0,192.5 219.6966991411009,194.69669914110088 217.5,200.0 219.69669914110088,205.3033008588991 225.0,207.5 230.3033008588991,205.30330085889912 232.5,200.0 230.30330085889912,194.6966991411009" stroke-width="0" transform=" rotate(0, 225, 200)"/>
    <polygon fill="dodgerblue" opacity="1" points="25.0,215.0 17.928932188134524,217.92893218813452 15.0,225.0 17.928932188134524,232.07106781186548 24.999999999999996,235.0 32.071067811865476,232.07106781186548 35.0,225.0 32.07106781186548,217.92893218813452" stroke-width="0" transform=" rotate(0, 25, 225)"/>
    <polygon fill="dodgerblue" opacity="1" points="50.0,217.5 44.69669914110089,219.69669914110088 42.5,225.0 44.69669914110089,230.3033008588991 50.0,232.5 55.30330085889911,230.30330085889912 57.5,225.0 55.303300858899114,219.6966991411009" stroke-width="0" transform=" rotate(0, 50, 225)"/>
    <polygon fill="dodgerblue" opacity="1" points="75.0,215.0 67.92893218813452,217.92893218813452 65.0,225.0 67.92893218813452,232.07106781186548 75.0,235.0 82.07106781186548,232.07106781186548 85.0,225.0 82.07106781186549,217.92893218813452" stroke-width="0" transform=" rotate(0, 75, 225)"/>
    <polygon fill="dodgerblue" opacity="1" points="100.0,217.5 94.6966991411009,219.69669914110088 92.5,225.0 94.6966991411009,230.3033008588991 100.0,232.5 105.3033008588991,230.30330085889912 107.5,225.0 105.3033008588991,219.6966991411009" stroke-width="0" transform=" rotate(0, 100, 225)"/>
    <polygon fill="dodgerblue" opacity="1" points="125.0,215.0 117.92893218813452,217.92893218813452 115.0,225.0 117.92893218813452,232.07106781186548 125.0,235.0 132.07106781186548,232.07106781186548 135.0,225.0 132.07106781186548,217.92893218813452" stroke-width="0" transform=" rotate(0, 125, 225)"/>
    <polygon fill="dodgerblue" opacity="1" points="150.0,217.5 144.6966991411009,219.69669914110088 142.5,225.0 144.69669914110088,230.3033008588991 150.0,232.5 155.3033008588991,230.30330085889912 157.5,225.0 155.30330085889912,219.6966991411009" stroke-width="0" transform=" rotate(0, 150, 225)"/>
    <polygon fill="dodgerblue" opacity="1" points="175.0,215.0 167.92893218813452,217.92893218813452 165.0,225.0 167.92893218813452,232.07106781186548 175.0,235.0 182.07106781186548,232.07106781186548 185.0,225.0 182.07106781186548,217.92893218813452" stroke-width="0" transform=" rotate(0, 175, 225)"/>
    <polygon fill="dodgerblue" opacity="1" points="200.0,217.5 194.6966991411009,219.69669914110088 192.5,225.0 194.69669914110088,230.3033008588991 200.0,232.5 205.3033008588991,230.30330085889912 207.5,225.0 205.30330085889912,219.6966991411009" stroke-width="0" transform=" rotate(0, 200, 225)"/>
    <polygon fill="dodgerblue" opacity="1" points="225.0,215.0 217.92893218813452,217.92893218813452 215.0,225.0 217.92893218813452,232.07106781186548 225.0,235.0 232.07106781186548,232.07106781186548 235.0,225.0 232.07106781186548,217.92893218813452" stroke-width="0" transform=" rotate(0, 225, 225)"/>
  </g>
</svg>
