<?xml version="1.0" encoding="utf-8" ?>
<svg xmlns="http://www.w3.org/2000/svg" xmlns:ev="http://www.w3.org/2001/xml-events" xmlns:xlink="http://www.w3.org/1999/xlink" baseProfile="full" height="269.0" version="1.1" width="269.0">
  <defs>
    <clipPath id="custom_clip_path">
      <polygon fill="none" opacity="1" points="0.0,269.0 134.5,0.0 269.0,269.0" stroke="none" stroke-width="0" transform=" rotate(0, 134, 134)"/>
    </clipPath>
  </defs>
  <a target="_blank" xlink:href="None">
    <polygon fill="none" opacity="1" points="0.0,269.0 134.5,0.0 269.0,269.0" stroke="none" stroke-width="0" transform=" rotate(0, 134, 134)"/>
  </a>
  <g clip-path="url(#custom_clip_path)" transform=" rotate(0, 134, 134)">
    <rect fill="#F8F8F8" height="269.0" width="269.0" x="0" y="0"/>
    <polygon fill="#f00" opacity="1" points="7.000000000000001,0.9378221735089305 -1.7763568394002505e-15,13.062177826491064 13.999999999999996,13.062177826491073" stroke-width="0" transform=" rotate(0, 7, 7)"/>
    <polygon fill="#f00" opacity="1" points="22.0,0.9378221735089216 14.999999999999988,13.062177826491073 29.000000000000007,13.062177826491084" stroke-width="0" transform=" rotate(0, 22, 7)"/>
    <polygon fill="#f00" opacity="1" points="37.0,0.9378221735089465 30.000000000000018,13.062177826491048 43.99999999999998,13.062177826491057" stroke-width="0" transform=" rotate(0, 37, 7)"/>
    <polygon fill="#f00" opacity="1" points="52.0,0.9378221735089465 45.000000000000014,13.062177826491048 58.99999999999998,13.062177826491057" stroke-width="0" transform=" rotate(0, 52, 7)"/>
    <polygon fill="#f00" opacity="1" points="67.0,0.9378221735088959 59.99999999999996,13.062177826491098 74.00000000000004,13.062177826491109" stroke-width="0" transform=" rotate(0, 67, 7)"/>
    <polygon fill="#f00" opacity="1" points="82.0,0.9378221735088959 74.99999999999996,13.062177826491098 89.00000000000004,13.062177826491109" stroke-width="0" transform=" rotate(0, 82, 7)"/>
    <polygon fill="#f00" opacity="1" points="97.0,0.9378221735088959 89.99999999999996,13.062177826491098 104.00000000000004,13.062177826491109" stroke-width="0" transform=" rotate(0, 97, 7)"/>
    <polygon fill="#f00" opacity="1" points="112.0,0.9378221735088959 104.99999999999996,13.062177826491098 119.00000000000004,13.062177826491109" stroke-width="0" transform=" rotate(0, 112, 7)"/>
    <polygon fill="#f00" opacity="1" points="127.0,0.9378221735088959 119.99999999999996,13.062177826491098 134.00000000000003,13.062177826491109" stroke-width="0" transform=" rotate(0, 127, 7)"/>
    <polygon fill="#f00" opacity="1" points="142.0,0.9378221735089962 135.00000000000009,13.062177826490998 148.99999999999991,13.06217782649101" stroke-width="0" transform=" rotate(0, 142, 7)"/>
    <polygon fill="#f00" opacity="1" points="157.0,0.9378221735089962 150.00000000000009,13.062177826490998 163.99999999999991,13.06217782649101" stroke-width="0" transform=" rotate(0, 157, 7)"/>
    <polygon fill="#f00" opacity="1" points="172.0,0.9378221735089962 165.00000000000009,13.062177826490998 178.99999999999991,13.06217782649101" stroke-width="0" transform=" rotate(0, 172, 7)"/>
    <polygon fill="#f00" opacity="1" points="187.0,0.9378221735089962 180.00000000000009,13.062177826490998 193.99999999999991,13.06217782649101" stroke-width="0" transform=" rotate(0, 187, 7)"/>
    <polygon fill="#f00" opacity="1" points="202.0,0.9378221735089962 195.00000000000009,13.062177826490998 208.99999999999991,13.06217782649101" stroke-width="0" transform=" rotate(0, 202, 7)"/>
    <polygon fill="#f00" opacity="1" points="217.0,0.9378221735089962 210.00000000000009,13.062177826490998 223.99999999999991,13.06217782649101" stroke-width="0" transform=" rotate(0, 217, 7)"/>
    <polygon fill="#f00" opacity="1" points="232.0,0.9378221735089962 225.00000000000009,13.062177826490998 238.99999999999991,13.06217782649101" stroke-width="0" transform=" rotate(0, 232, 7)"/>
    <polygon fill="#f00" opacity="1" points="247.0,0.9378221735089962 240.00000000000009,13.062177826490998 253.99999999999991,13.06217782649101" stroke-width="0" transform=" rotate(0, 247, 7)"/>
    <polygon fill="#f00" opacity="1" points="262.0,0.9378221735087973 254.99999999999986,13.062177826491197 269.00000000000017,13.062177826491206" stroke-width="0" transform=" rotate(0, 262, 7)"/>
    <polygon fill="#fb3604" opacity="1" points="7.000000000000001,15.93782217350893 -1.7763568394002505e-15,28.062177826491066 13.999999999999996,28.062177826491073" stroke-width="0" transform=" rotate(180, 7, 22)"/>
    <polygon fill="#fb3604" opacity="1" points="22.0,16.262581699928084 15.37499999999999,27.73741830007191 28.625000000000007,27.737418300071916" stroke-width="0" transform=" rotate(180, 22, 22)"/>
    <polygon fill="#fb3604" opacity="1" points="37.0,16.26258169992811 30.375000000000014,27.737418300071887 43.62499999999998,27.737418300071894" stroke-width="0" transform=" rotate(180, 37, 22)"/>
    <polygon fill="#fb3604" opacity="1" points="52.0,16.26258169992811 45.375000000000014,27.737418300071887 58.62499999999998,27.737418300071894" stroke-width="0" transform=" rotate(180, 52, 22)"/>
    <polygon fill="#fb3604" opacity="1" points="67.0,16.262581699928063 60.37499999999996,27.737418300071933 73.62500000000003,27.73741830007194" stroke-width="0" transform=" rotate(180, 67, 22)"/>
    <polygon fill="#fb3604" opacity="1" points="82.0,16.262581699928063 75.37499999999996,27.737418300071933 88.62500000000003,27.73741830007194" stroke-width="0" transform=" rotate(180, 82, 22)"/>
    <polygon fill="#fb3604" opacity="1" points="97.0,16.262581699928063 90.37499999999996,27.737418300071933 103.62500000000003,27.73741830007194" stroke-width="0" transform=" rotate(180, 97, 22)"/>
    <polygon fill="#fb3604" opacity="1" points="112.0,16.262581699928063 105.37499999999996,27.737418300071933 118.62500000000003,27.73741830007194" stroke-width="0" transform=" rotate(180, 112, 22)"/>
    <polygon fill="#fb3604" opacity="1" points="127.0,16.262581699928063 120.37499999999996,27.737418300071933 133.62500000000003,27.73741830007194" stroke-width="0" transform=" rotate(180, 127, 22)"/>
    <polygon fill="#fb3604" opacity="1" points="142.0,16.262581699928155 135.37500000000006,27.737418300071838 148.62499999999991,27.737418300071845" stroke-width="0" transform=" rotate(180, 142, 22)"/>
    <polygon fill="#fb3604" opacity="1" points="157.0,16.262581699928155 150.37500000000006,27.737418300071838 163.62499999999991,27.737418300071845" stroke-width="0" transform=" rotate(180, 157, 22)"/>
    <polygon fill="#fb3604" opacity="1" points="172.0,16.262581699928155 165.37500000000006,27.737418300071838 178.62499999999991,27.737418300071845" stroke-width="0" transform=" rotate(180, 172, 22)"/>
    <polygon fill="#fb3604" opacity="1" points="187.0,16.262581699928155 180.37500000000006,27.737418300071838 193.62499999999991,27.737418300071845" stroke-width="0" transform=" rotate(180, 187, 22)"/>
    <polygon fill="#fb3604" opacity="1" points="202.0,16.262581699928155 195.37500000000006,27.737418300071838 208.62499999999991,27.737418300071845" stroke-width="0" transform=" rotate(180, 202, 22)"/>
    <polygon fill="#fb3604" opacity="1" points="217.0,16.262581699928155 210.37500000000006,27.737418300071838 223.62499999999991,27.737418300071845" stroke-width="0" transform=" rotate(180, 217, 22)"/>
    <polygon fill="#fb3604" opacity="1" points="232.0,16.262581699928155 225.37500000000006,27.737418300071838 238.62499999999991,27.737418300071845" stroke-width="0" transform=" rotate(180, 232, 22)"/>
    <polygon fill="#fb3604" opacity="1" points="247.0,16.262581699928155 240.37500000000006,27.737418300071838 253.62499999999991,27.737418300071845" stroke-width="0" transform=" rotate(180, 247, 22)"/>
    <polygon fill="#fb3604" opacity="1" points="262.0,15.937822173508797 254.99999999999986,28.062177826491197 269.00000000000017,28.062177826491208" stroke-width="0" transform=" rotate(180, 262, 22)"/>
    <polygon fill="#f66908" opacity="1" points="7.000000000000001,30.93782217350893 -1.7763568394002505e-15,43.062177826491066 13.999999999999996,43.06217782649107" stroke-width="0" transform=" rotate(0, 7, 37)"/>
    <polygon fill="#f66908" opacity="1" points="22.0,31.262581699928084 15.37499999999999,42.73741830007191 28.625000000000007,42.737418300071916" stroke-width="0" transform=" rotate(0, 22, 37)"/>
    <polygon fill="#f66908" opacity="1" points="37.0,31.587341226347274 30.750000000000014,42.41265877365272 43.24999999999998,42.41265877365273" stroke-width="0" transform=" rotate(0, 37, 37)"/>
    <polygon fill="#f66908" opacity="1" points="52.0,31.587341226347274 45.750000000000014,42.41265877365272 58.24999999999998,42.41265877365273" stroke-width="0" transform=" rotate(0, 52, 37)"/>
    <polygon fill="#f66908" opacity="1" points="67.0,31.587341226347228 60.749999999999964,42.412658773652765 73.25000000000003,42.41265877365277" stroke-width="0" transform=" rotate(0, 67, 37)"/>
    <polygon fill="#f66908" opacity="1" points="82.0,31.587341226347228 75.74999999999996,42.412658773652765 88.25000000000003,42.41265877365277" stroke-width="0" transform=" rotate(0, 82, 37)"/>
    <polygon fill="#f66908" opacity="1" points="97.0,31.587341226347228 90.74999999999996,42.412658773652765 103.25000000000003,42.41265877365277" stroke-width="0" transform=" rotate(0, 97, 37)"/>
    <polygon fill="#f66908" opacity="1" points="112.0,31.587341226347228 105.74999999999996,42.412658773652765 118.25000000000003,42.41265877365277" stroke-width="0" transform=" rotate(0, 112, 37)"/>
    <polygon fill="#f66908" opacity="1" points="127.0,31.587341226347228 120.74999999999996,42.412658773652765 133.25000000000003,42.41265877365277" stroke-width="0" transform=" rotate(0, 127, 37)"/>
    <polygon fill="#f66908" opacity="1" points="142.0,31.58734122634732 135.75000000000006,42.41265877365268 148.24999999999994,42.41265877365269" stroke-width="0" transform=" rotate(0, 142, 37)"/>
    <polygon fill="#f66908" opacity="1" points="157.0,31.58734122634732 150.75000000000006,42.41265877365268 163.24999999999994,42.41265877365269" stroke-width="0" transform=" rotate(0, 157, 37)"/>
    <polygon fill="#f66908" opacity="1" points="172.0,31.58734122634732 165.75000000000006,42.41265877365268 178.24999999999994,42.41265877365269" stroke-width="0" transform=" rotate(0, 172, 37)"/>
    <polygon fill="#f66908" opacity="1" points="187.0,31.58734122634732 180.75000000000006,42.41265877365268 193.24999999999994,42.41265877365269" stroke-width="0" transform=" rotate(0, 187, 37)"/>
    <polygon fill="#f66908" opacity="1" points="202.0,31.58734122634732 195.75000000000006,42.41265877365268 208.24999999999994,42.41265877365269" stroke-width="0" transform=" rotate(0, 202, 37)"/>
    <polygon fill="#f66908" opacity="1" points="217.0,31.58734122634732 210.75000000000006,42.41265877365268 223.24999999999994,42.41265877365269" stroke-width="0" transform=" rotate(0, 217, 37)"/>
    <polygon fill="#f66908" opacity="1" points="232.0,31.58734122634732 225.75000000000006,42.41265877365268 238.24999999999994,42.41265877365269" stroke-width="0" transform=" rotate(0, 232, 37)"/>
    <polygon fill="#f66908" opacity="1" points="247.0,31.262581699928155 240.37500000000006,42.73741830007184 253.62499999999991,42.737418300071845" stroke-width="0" transform=" rotate(0, 247, 37)"/>
    <polygon fill="#f66908" opacity="1" points="262.0,30.9378221735088 254.99999999999986,43.062177826491194 269.00000000000017,43.06217782649121" stroke-width="0" transform=" rotate(0, 262, 37)"/>
    <polygon fill="#f2980d" opacity="1" points="7.000000000000001,45.937822173508934 -1.7763568394002505e-15,58.062177826491066 13.999999999999996,58.06217782649107" stroke-width="0" transform=" rotate(180, 7, 52)"/>
    <polygon fill="#f2980d" opacity="1" points="22.0,46.262581699928084 15.37499999999999,57.73741830007191 28.625000000000007,57.737418300071916" stroke-width="0" transform=" rotate(180, 22, 52)"/>
    <polygon fill="#f2980d" opacity="1" points="37.0,46.58734122634728 30.750000000000014,57.41265877365272 43.24999999999998,57.41265877365273" stroke-width="0" transform=" rotate(180, 37, 52)"/>
    <polygon fill="#f2980d" opacity="1" points="52.0,46.912100752766435 46.125000000000014,57.08789924723356 57.874999999999986,57.087899247233565" stroke-width="0" transform=" rotate(180, 52, 52)"/>
    <polygon fill="#f2980d" opacity="1" points="67.0,46.91210075276639 61.124999999999964,57.0878992472336 72.87500000000003,57.08789924723361" stroke-width="0" transform=" rotate(180, 67, 52)"/>
    <polygon fill="#f2980d" opacity="1" points="82.0,46.91210075276639 76.12499999999997,57.0878992472336 87.87500000000003,57.08789924723361" stroke-width="0" transform=" rotate(180, 82, 52)"/>
    <polygon fill="#f2980d" opacity="1" points="97.0,46.91210075276639 91.12499999999997,57.0878992472336 102.87500000000003,57.08789924723361" stroke-width="0" transform=" rotate(180, 97, 52)"/>
    <polygon fill="#f2980d" opacity="1" points="112.0,46.91210075276639 106.12499999999997,57.0878992472336 117.87500000000003,57.08789924723361" stroke-width="0" transform=" rotate(180, 112, 52)"/>
    <polygon fill="#f2980d" opacity="1" points="127.0,46.91210075276639 121.12499999999997,57.0878992472336 132.87500000000003,57.08789924723361" stroke-width="0" transform=" rotate(180, 127, 52)"/>
    <polygon fill="#f2980d" opacity="1" points="142.0,46.91210075276648 136.12500000000006,57.087899247233516 147.87499999999994,57.08789924723352" stroke-width="0" transform=" rotate(180, 142, 52)"/>
    <polygon fill="#f2980d" opacity="1" points="157.0,46.91210075276648 151.12500000000006,57.087899247233516 162.87499999999994,57.08789924723352" stroke-width="0" transform=" rotate(180, 157, 52)"/>
    <polygon fill="#f2980d" opacity="1" points="172.0,46.91210075276648 166.12500000000006,57.087899247233516 177.87499999999994,57.08789924723352" stroke-width="0" transform=" rotate(180, 172, 52)"/>
    <polygon fill="#f2980d" opacity="1" points="187.0,46.91210075276648 181.12500000000006,57.087899247233516 192.87499999999994,57.08789924723352" stroke-width="0" transform=" rotate(180, 187, 52)"/>
    <polygon fill="#f2980d" opacity="1" points="202.0,46.91210075276648 196.12500000000006,57.087899247233516 207.87499999999994,57.08789924723352" stroke-width="0" transform=" rotate(180, 202, 52)"/>
    <polygon fill="#f2980d" opacity="1" points="217.0,46.91210075276648 211.12500000000006,57.087899247233516 222.87499999999994,57.08789924723352" stroke-width="0" transform=" rotate(180, 217, 52)"/>
    <polygon fill="#f2980d" opacity="1" points="232.0,46.58734122634732 225.75000000000006,57.41265877365268 238.24999999999994,57.41265877365269" stroke-width="0" transform=" rotate(180, 232, 52)"/>
    <polygon fill="#f2980d" opacity="1" points="247.0,46.262581699928155 240.37500000000006,57.73741830007184 253.62499999999991,57.737418300071845" stroke-width="0" transform=" rotate(180, 247, 52)"/>
    <polygon fill="#f2980d" opacity="1" points="262.0,45.9378221735088 254.99999999999986,58.062177826491194 269.00000000000017,58.06217782649121" stroke-width="0" transform=" rotate(180, 262, 52)"/>
    <polygon fill="#edc411" opacity="1" points="7.000000000000001,60.937822173508934 -1.7763568394002505e-15,73.06217782649107 13.999999999999996,73.06217782649108" stroke-width="0" transform=" rotate(0, 7, 67)"/>
    <polygon fill="#edc411" opacity="1" points="22.0,61.262581699928084 15.37499999999999,72.73741830007191 28.625000000000007,72.73741830007192" stroke-width="0" transform=" rotate(0, 22, 67)"/>
    <polygon fill="#edc411" opacity="1" points="37.0,61.58734122634728 30.750000000000014,72.41265877365272 43.24999999999998,72.41265877365274" stroke-width="0" transform=" rotate(0, 37, 67)"/>
    <polygon fill="#edc411" opacity="1" points="52.0,61.912100752766435 46.125000000000014,72.08789924723357 57.874999999999986,72.08789924723357" stroke-width="0" transform=" rotate(0, 52, 67)"/>
    <polygon fill="#edc411" opacity="1" points="67.0,62.236860279185564 61.499999999999964,71.76313972081444 72.50000000000003,71.76313972081444" stroke-width="0" transform=" rotate(0, 67, 67)"/>
    <polygon fill="#edc411" opacity="1" points="82.0,62.236860279185564 76.49999999999997,71.76313972081444 87.50000000000003,71.76313972081444" stroke-width="0" transform=" rotate(0, 82, 67)"/>
    <polygon fill="#edc411" opacity="1" points="97.0,62.236860279185564 91.49999999999997,71.76313972081444 102.50000000000003,71.76313972081444" stroke-width="0" transform=" rotate(0, 97, 67)"/>
    <polygon fill="#edc411" opacity="1" points="112.0,62.236860279185564 106.49999999999997,71.76313972081444 117.50000000000003,71.76313972081444" stroke-width="0" transform=" rotate(0, 112, 67)"/>
    <polygon fill="#edc411" opacity="1" points="127.0,62.236860279185564 121.49999999999997,71.76313972081444 132.50000000000003,71.76313972081444" stroke-width="0" transform=" rotate(0, 127, 67)"/>
    <polygon fill="#edc411" opacity="1" points="142.0,62.23686027918564 136.50000000000006,71.76313972081435 147.49999999999994,71.76313972081437" stroke-width="0" transform=" rotate(0, 142, 67)"/>
    <polygon fill="#edc411" opacity="1" points="157.0,62.23686027918564 151.50000000000006,71.76313972081435 162.49999999999994,71.76313972081437" stroke-width="0" transform=" rotate(0, 157, 67)"/>
    <polygon fill="#edc411" opacity="1" points="172.0,62.23686027918564 166.50000000000006,71.76313972081435 177.49999999999994,71.76313972081437" stroke-width="0" transform=" rotate(0, 172, 67)"/>
    <polygon fill="#edc411" opacity="1" points="187.0,62.23686027918564 181.50000000000006,71.76313972081435 192.49999999999994,71.76313972081437" stroke-width="0" transform=" rotate(0, 187, 67)"/>
    <polygon fill="#edc411" opacity="1" points="202.0,62.23686027918564 196.50000000000006,71.76313972081435 207.49999999999994,71.76313972081437" stroke-width="0" transform=" rotate(0, 202, 67)"/>
    <polygon fill="#edc411" opacity="1" points="217.0,61.91210075276648 211.12500000000006,72.08789924723352 222.87499999999994,72.08789924723352" stroke-width="0" transform=" rotate(0, 217, 67)"/>
    <polygon fill="#edc411" opacity="1" points="232.0,61.58734122634732 225.75000000000006,72.41265877365268 238.24999999999994,72.41265877365268" stroke-width="0" transform=" rotate(0, 232, 67)"/>
    <polygon fill="#edc411" opacity="1" points="247.0,61.262581699928155 240.37500000000006,72.73741830007184 253.62499999999991,72.73741830007185" stroke-width="0" transform=" rotate(0, 247, 67)"/>
    <polygon fill="#edc411" opacity="1" points="262.0,60.9378221735088 254.99999999999986,73.0621778264912 269.00000000000017,73.06217782649121" stroke-width="0" transform=" rotate(0, 262, 67)"/>
    <polygon fill="#e5e915" opacity="1" points="7.000000000000001,75.93782217350893 -1.7763568394002505e-15,88.06217782649107 13.999999999999996,88.06217782649108" stroke-width="0" transform=" rotate(180, 7, 82)"/>
    <polygon fill="#e5e915" opacity="1" points="22.0,76.26258169992809 15.37499999999999,87.73741830007191 28.625000000000007,87.73741830007192" stroke-width="0" transform=" rotate(180, 22, 82)"/>
    <polygon fill="#e5e915" opacity="1" points="37.0,76.58734122634728 30.750000000000014,87.41265877365272 43.24999999999998,87.41265877365274" stroke-width="0" transform=" rotate(180, 37, 82)"/>
    <polygon fill="#e5e915" opacity="1" points="52.0,76.91210075276643 46.125000000000014,87.08789924723357 57.874999999999986,87.08789924723357" stroke-width="0" transform=" rotate(180, 52, 82)"/>
    <polygon fill="#e5e915" opacity="1" points="67.0,77.23686027918556 61.499999999999964,86.76313972081444 72.50000000000003,86.76313972081444" stroke-width="0" transform=" rotate(180, 67, 82)"/>
    <polygon fill="#e5e915" opacity="1" points="82.0,77.56161980560472 76.87499999999997,86.43838019439526 87.12500000000003,86.43838019439528" stroke-width="0" transform=" rotate(180, 82, 82)"/>
    <polygon fill="#e5e915" opacity="1" points="97.0,77.56161980560472 91.87499999999997,86.43838019439526 102.12500000000003,86.43838019439528" stroke-width="0" transform=" rotate(180, 97, 82)"/>
    <polygon fill="#e5e915" opacity="1" points="112.0,77.56161980560472 106.87499999999997,86.43838019439526 117.12500000000003,86.43838019439528" stroke-width="0" transform=" rotate(180, 112, 82)"/>
    <polygon fill="#e5e915" opacity="1" points="127.0,77.56161980560472 121.87499999999997,86.43838019439526 132.12500000000003,86.43838019439528" stroke-width="0" transform=" rotate(180, 127, 82)"/>
    <polygon fill="#e5e915" opacity="1" points="142.0,77.5616198056048 136.87500000000006,86.4383801943952 147.12499999999994,86.43838019439521" stroke-width="0" transform=" rotate(180, 142, 82)"/>
    <polygon fill="#e5e915" opacity="1" points="157.0,77.5616198056048 151.87500000000006,86.4383801943952 162.12499999999994,86.43838019439521" stroke-width="0" transform=" rotate(180, 157, 82)"/>
    <polygon fill="#e5e915" opacity="1" points="172.0,77.5616198056048 166.87500000000006,86.4383801943952 177.12499999999994,86.43838019439521" stroke-width="0" transform=" rotate(180, 172, 82)"/>
    <polygon fill="#e5e915" opacity="1" points="187.0,77.5616198056048 181.87500000000006,86.4383801943952 192.12499999999994,86.43838019439521" stroke-width="0" transform=" rotate(180, 187, 82)"/>
    <polygon fill="#e5e915" opacity="1" points="202.0,77.23686027918563 196.50000000000006,86.76313972081435 207.49999999999994,86.76313972081437" stroke-width="0" transform=" rotate(180, 202, 82)"/>
    <polygon fill="#e5e915" opacity="1" points="217.0,76.91210075276648 211.12500000000006,87.08789924723352 222.87499999999994,87.08789924723352" stroke-width="0" transform=" rotate(180, 217, 82)"/>
    <polygon fill="#e5e915" opacity="1" points="232.0,76.58734122634732 225.75000000000006,87.41265877365268 238.24999999999994,87.41265877365268" stroke-width="0" transform=" rotate(180, 232, 82)"/>
    <polygon fill="#e5e915" opacity="1" points="247.0,76.26258169992816 240.37500000000006,87.73741830007184 253.62499999999991,87.73741830007185" stroke-width="0" transform=" rotate(180, 247, 82)"/>
    <polygon fill="#e5e915" opacity="1" points="262.0,75.93782217350879 254.99999999999986,88.0621778264912 269.00000000000017,88.06217782649121" stroke-width="0" transform=" rotate(180, 262, 82)"/>
    <polygon fill="#b8e419" opacity="1" points="7.000000000000001,90.93782217350893 -1.7763568394002505e-15,103.06217782649107 13.999999999999996,103.06217782649108" stroke-width="0" transform=" rotate(0, 7, 97)"/>
    <polygon fill="#b8e419" opacity="1" points="22.0,91.26258169992809 15.37499999999999,102.73741830007191 28.625000000000007,102.73741830007192" stroke-width="0" transform=" rotate(0, 22, 97)"/>
    <polygon fill="#b8e419" opacity="1" points="37.0,91.58734122634728 30.750000000000014,102.41265877365272 43.24999999999998,102.41265877365274" stroke-width="0" transform=" rotate(0, 37, 97)"/>
    <polygon fill="#b8e419" opacity="1" points="52.0,91.91210075276643 46.125000000000014,102.08789924723357 57.874999999999986,102.08789924723357" stroke-width="0" transform=" rotate(0, 52, 97)"/>
    <polygon fill="#b8e419" opacity="1" points="67.0,92.23686027918556 61.499999999999964,101.76313972081444 72.50000000000003,101.76313972081444" stroke-width="0" transform=" rotate(0, 67, 97)"/>
    <polygon fill="#b8e419" opacity="1" points="82.0,92.56161980560472 76.87499999999997,101.43838019439526 87.12500000000003,101.43838019439528" stroke-width="0" transform=" rotate(0, 82, 97)"/>
    <polygon fill="#b8e419" opacity="1" points="97.0,92.88637933202389 92.24999999999997,101.11362066797611 101.75000000000003,101.11362066797611" stroke-width="0" transform=" rotate(0, 97, 97)"/>
    <polygon fill="#b8e419" opacity="1" points="112.0,92.88637933202389 107.24999999999997,101.11362066797611 116.75000000000003,101.11362066797611" stroke-width="0" transform=" rotate(0, 112, 97)"/>
    <polygon fill="#b8e419" opacity="1" points="127.0,92.88637933202389 122.24999999999997,101.11362066797611 131.75000000000003,101.11362066797611" stroke-width="0" transform=" rotate(0, 127, 97)"/>
    <polygon fill="#b8e419" opacity="1" points="142.0,92.88637933202396 137.25000000000006,101.11362066797604 146.74999999999994,101.11362066797604" stroke-width="0" transform=" rotate(0, 142, 97)"/>
    <polygon fill="#b8e419" opacity="1" points="157.0,92.88637933202396 152.25000000000006,101.11362066797604 161.74999999999994,101.11362066797604" stroke-width="0" transform=" rotate(0, 157, 97)"/>
    <polygon fill="#b8e419" opacity="1" points="172.0,92.88637933202396 167.25000000000006,101.11362066797604 176.74999999999994,101.11362066797604" stroke-width="0" transform=" rotate(0, 172, 97)"/>
    <polygon fill="#b8e419" opacity="1" points="187.0,92.5616198056048 181.87500000000006,101.4383801943952 192.12499999999994,101.43838019439521" stroke-width="0" transform=" rotate(0, 187, 97)"/>
    <polygon fill="#b8e419" opacity="1" points="202.0,92.23686027918563 196.50000000000006,101.76313972081435 207.49999999999994,101.76313972081437" stroke-width="0" transform=" rotate(0, 202, 97)"/>
    <polygon fill="#b8e419" opacity="1" points="217.0,91.91210075276648 211.12500000000006,102.08789924723352 222.87499999999994,102.08789924723352" stroke-width="0" transform=" rotate(0, 217, 97)"/>
    <polygon fill="#b8e419" opacity="1" points="232.0,91.58734122634732 225.75000000000006,102.41265877365268 238.24999999999994,102.41265877365268" stroke-width="0" transform=" rotate(0, 232, 97)"/>
    <polygon fill="#b8e419" opacity="1" points="247.0,91.26258169992816 240.37500000000006,102.73741830007184 253.62499999999991,102.73741830007185" stroke-width="0" transform=" rotate(0, 247, 97)"/>
    <polygon fill="#b8e419" opacity="1" points="262.0,90.93782217350879 254.99999999999986,103.0621778264912 269.00000000000017,103.06217782649121" stroke-width="0" transform=" rotate(0, 262, 97)"/>
    <polygon fill="#8ee01d" opacity="1" points="7.000000000000001,105.93782217350893 -1.7763568394002505e-15,118.06217782649107 13.999999999999996,118.06217782649108" stroke-width="0" transform=" rotate(180, 7, 112)"/>
    <polygon fill="#8ee01d" opacity="1" points="22.0,106.26258169992809 15.37499999999999,117.73741830007191 28.625000000000007,117.73741830007192" stroke-width="0" transform=" rotate(180, 22, 112)"/>
    <polygon fill="#8ee01d" opacity="1" points="37.0,106.58734122634728 30.750000000000014,117.41265877365272 43.24999999999998,117.41265877365274" stroke-width="0" transform=" rotate(180, 37, 112)"/>
    <polygon fill="#8ee01d" opacity="1" points="52.0,106.91210075276643 46.125000000000014,117.08789924723357 57.874999999999986,117.08789924723357" stroke-width="0" transform=" rotate(180, 52, 112)"/>
    <polygon fill="#8ee01d" opacity="1" points="67.0,107.23686027918556 61.499999999999964,116.76313972081444 72.50000000000003,116.76313972081444" stroke-width="0" transform=" rotate(180, 67, 112)"/>
    <polygon fill="#8ee01d" opacity="1" points="82.0,107.56161980560472 76.87499999999997,116.43838019439526 87.12500000000003,116.43838019439528" stroke-width="0" transform=" rotate(180, 82, 112)"/>
    <polygon fill="#8ee01d" opacity="1" points="97.0,107.88637933202389 92.24999999999997,116.11362066797611 101.75000000000003,116.11362066797611" stroke-width="0" transform=" rotate(180, 97, 112)"/>
    <polygon fill="#8ee01d" opacity="1" points="112.0,108.21113885844306 107.62499999999997,115.78886114155694 116.37500000000003,115.78886114155694" stroke-width="0" transform=" rotate(180, 112, 112)"/>
    <polygon fill="#8ee01d" opacity="1" points="127.0,108.21113885844306 122.62499999999997,115.78886114155694 131.37500000000003,115.78886114155694" stroke-width="0" transform=" rotate(180, 127, 112)"/>
    <polygon fill="#8ee01d" opacity="1" points="142.0,108.21113885844312 137.62500000000006,115.78886114155688 146.37499999999994,115.78886114155688" stroke-width="0" transform=" rotate(180, 142, 112)"/>
    <polygon fill="#8ee01d" opacity="1" points="157.0,108.21113885844312 152.62500000000006,115.78886114155688 161.37499999999994,115.78886114155688" stroke-width="0" transform=" rotate(180, 157, 112)"/>
    <polygon fill="#8ee01d" opacity="1" points="172.0,107.88637933202396 167.25000000000006,116.11362066797604 176.74999999999994,116.11362066797604" stroke-width="0" transform=" rotate(180, 172, 112)"/>
    <polygon fill="#8ee01d" opacity="1" points="187.0,107.5616198056048 181.87500000000006,116.4383801943952 192.12499999999994,116.43838019439521" stroke-width="0" transform=" rotate(180, 187, 112)"/>
    <polygon fill="#8ee01d" opacity="1" points="202.0,107.23686027918563 196.50000000000006,116.76313972081435 207.49999999999994,116.76313972081437" stroke-width="0" transform=" rotate(180, 202, 112)"/>
    <polygon fill="#8ee01d" opacity="1" points="217.0,106.91210075276648 211.12500000000006,117.08789924723352 222.87499999999994,117.08789924723352" stroke-width="0" transform=" rotate(180, 217, 112)"/>
    <polygon fill="#8ee01d" opacity="1" points="232.0,106.58734122634732 225.75000000000006,117.41265877365268 238.24999999999994,117.41265877365268" stroke-width="0" transform=" rotate(180, 232, 112)"/>
    <polygon fill="#8ee01d" opacity="1" points="247.0,106.26258169992816 240.37500000000006,117.73741830007184 253.62499999999991,117.73741830007185" stroke-width="0" transform=" rotate(180, 247, 112)"/>
    <polygon fill="#8ee01d" opacity="1" points="262.0,105.93782217350879 254.99999999999986,118.0621778264912 269.00000000000017,118.06217782649121" stroke-width="0" transform=" rotate(180, 262, 112)"/>
    <polygon fill="#67db21" opacity="1" points="7.000000000000001,120.93782217350893 -1.7763568394002505e-15,133.06217782649105 13.999999999999996,133.06217782649108" stroke-width="0" transform=" rotate(0, 7, 127)"/>
    <polygon fill="#67db21" opacity="1" points="22.0,121.26258169992809 15.37499999999999,132.7374183000719 28.625000000000007,132.7374183000719" stroke-width="0" transform=" rotate(0, 22, 127)"/>
    <polygon fill="#67db21" opacity="1" points="37.0,121.58734122634728 30.750000000000014,132.4126587736527 43.24999999999998,132.41265877365274" stroke-width="0" transform=" rotate(0, 37, 127)"/>
    <polygon fill="#67db21" opacity="1" points="52.0,121.91210075276643 46.125000000000014,132.08789924723357 57.874999999999986,132.08789924723357" stroke-width="0" transform=" rotate(0, 52, 127)"/>
    <polygon fill="#67db21" opacity="1" points="67.0,122.23686027918556 61.499999999999964,131.76313972081442 72.50000000000003,131.76313972081445" stroke-width="0" transform=" rotate(0, 67, 127)"/>
    <polygon fill="#67db21" opacity="1" points="82.0,122.56161980560472 76.87499999999997,131.43838019439528 87.12500000000003,131.43838019439528" stroke-width="0" transform=" rotate(0, 82, 127)"/>
    <polygon fill="#67db21" opacity="1" points="97.0,122.88637933202389 92.24999999999997,131.1136206679761 101.75000000000003,131.1136206679761" stroke-width="0" transform=" rotate(0, 97, 127)"/>
    <polygon fill="#67db21" opacity="1" points="112.0,123.21113885844306 107.62499999999997,130.78886114155694 116.37500000000003,130.78886114155694" stroke-width="0" transform=" rotate(0, 112, 127)"/>
    <polygon fill="#67db21" opacity="1" points="127.0,123.53589838486222 122.99999999999997,130.46410161513776 131.00000000000003,130.46410161513776" stroke-width="0" transform=" rotate(0, 127, 127)"/>
    <polygon fill="#67db21" opacity="1" points="142.0,123.53589838486228 138.00000000000003,130.4641016151377 145.99999999999994,130.4641016151377" stroke-width="0" transform=" rotate(0, 142, 127)"/>
    <polygon fill="#67db21" opacity="1" points="157.0,123.21113885844312 152.62500000000006,130.78886114155688 161.37499999999994,130.78886114155688" stroke-width="0" transform=" rotate(0, 157, 127)"/>
    <polygon fill="#67db21" opacity="1" points="172.0,122.88637933202396 167.25000000000006,131.11362066797602 176.74999999999994,131.11362066797605" stroke-width="0" transform=" rotate(0, 172, 127)"/>
    <polygon fill="#67db21" opacity="1" points="187.0,122.5616198056048 181.87500000000006,131.4383801943952 192.12499999999994,131.4383801943952" stroke-width="0" transform=" rotate(0, 187, 127)"/>
    <polygon fill="#67db21" opacity="1" points="202.0,122.23686027918563 196.50000000000006,131.76313972081437 207.49999999999994,131.76313972081437" stroke-width="0" transform=" rotate(0, 202, 127)"/>
    <polygon fill="#67db21" opacity="1" points="217.0,121.91210075276648 211.12500000000006,132.0878992472335 222.87499999999994,132.08789924723354" stroke-width="0" transform=" rotate(0, 217, 127)"/>
    <polygon fill="#67db21" opacity="1" points="232.0,121.58734122634732 225.75000000000006,132.41265877365268 238.24999999999994,132.41265877365268" stroke-width="0" transform=" rotate(0, 232, 127)"/>
    <polygon fill="#67db21" opacity="1" points="247.0,121.26258169992816 240.37500000000006,132.73741830007185 253.62499999999991,132.73741830007185" stroke-width="0" transform=" rotate(0, 247, 127)"/>
    <polygon fill="#67db21" opacity="1" points="262.0,120.93782217350879 254.99999999999986,133.0621778264912 269.00000000000017,133.0621778264912" stroke-width="0" transform=" rotate(0, 262, 127)"/>
    <polygon fill="#44d725" opacity="1" points="7.000000000000001,135.93782217350892 -1.7763568394002505e-15,148.06217782649105 13.999999999999996,148.06217782649108" stroke-width="0" transform=" rotate(180, 7, 142)"/>
    <polygon fill="#44d725" opacity="1" points="22.0,136.2625816999281 15.37499999999999,147.7374183000719 28.625000000000007,147.7374183000719" stroke-width="0" transform=" rotate(180, 22, 142)"/>
    <polygon fill="#44d725" opacity="1" points="37.0,136.58734122634726 30.750000000000014,147.4126587736527 43.24999999999998,147.41265877365274" stroke-width="0" transform=" rotate(180, 37, 142)"/>
    <polygon fill="#44d725" opacity="1" points="52.0,136.91210075276643 46.125000000000014,147.08789924723357 57.874999999999986,147.08789924723357" stroke-width="0" transform=" rotate(180, 52, 142)"/>
    <polygon fill="#44d725" opacity="1" points="67.0,137.23686027918555 61.499999999999964,146.76313972081442 72.50000000000003,146.76313972081445" stroke-width="0" transform=" rotate(180, 67, 142)"/>
    <polygon fill="#44d725" opacity="1" points="82.0,137.56161980560472 76.87499999999997,146.43838019439528 87.12500000000003,146.43838019439528" stroke-width="0" transform=" rotate(180, 82, 142)"/>
    <polygon fill="#44d725" opacity="1" points="97.0,137.8863793320239 92.24999999999997,146.1136206679761 101.75000000000003,146.1136206679761" stroke-width="0" transform=" rotate(180, 97, 142)"/>
    <polygon fill="#44d725" opacity="1" points="112.0,138.21113885844306 107.62499999999997,145.78886114155694 116.37500000000003,145.78886114155694" stroke-width="0" transform=" rotate(180, 112, 142)"/>
    <polygon fill="#44d725" opacity="1" points="127.0,138.53589838486224 122.99999999999997,145.46410161513776 131.00000000000003,145.46410161513776" stroke-width="0" transform=" rotate(180, 127, 142)"/>
    <polygon fill="#44d725" opacity="1" points="142.0,138.5358983848623 138.00000000000003,145.4641016151377 145.99999999999994,145.4641016151377" stroke-width="0" transform=" rotate(180, 142, 142)"/>
    <polygon fill="#44d725" opacity="1" points="157.0,138.21113885844312 152.62500000000006,145.78886114155688 161.37499999999994,145.78886114155688" stroke-width="0" transform=" rotate(180, 157, 142)"/>
    <polygon fill="#44d725" opacity="1" points="172.0,137.88637933202395 167.25000000000006,146.11362066797602 176.74999999999994,146.11362066797605" stroke-width="0" transform=" rotate(180, 172, 142)"/>
    <polygon fill="#44d725" opacity="1" points="187.0,137.5616198056048 181.87500000000006,146.4383801943952 192.12499999999994,146.4383801943952" stroke-width="0" transform=" rotate(180, 187, 142)"/>
    <polygon fill="#44d725" opacity="1" points="202.0,137.23686027918563 196.50000000000006,146.76313972081437 207.49999999999994,146.76313972081437" stroke-width="0" transform=" rotate(180, 202, 142)"/>
    <polygon fill="#44d725" opacity="1" points="217.0,136.9121007527665 211.12500000000006,147.0878992472335 222.87499999999994,147.08789924723354" stroke-width="0" transform=" rotate(180, 217, 142)"/>
    <polygon fill="#44d725" opacity="1" points="232.0,136.58734122634732 225.75000000000006,147.41265877365268 238.24999999999994,147.41265877365268" stroke-width="0" transform=" rotate(180, 232, 142)"/>
    <polygon fill="#44d725" opacity="1" points="247.0,136.26258169992815 240.37500000000006,147.73741830007185 253.62499999999991,147.73741830007185" stroke-width="0" transform=" rotate(180, 247, 142)"/>
    <polygon fill="#44d725" opacity="1" points="262.0,135.9378221735088 254.99999999999986,148.0621778264912 269.00000000000017,148.0621778264912" stroke-width="0" transform=" rotate(180, 262, 142)"/>
    <polygon fill="#2ad32f" opacity="1" points="7.000000000000001,150.93782217350892 -1.7763568394002505e-15,163.06217782649105 13.999999999999996,163.06217782649108" stroke-width="0" transform=" rotate(0, 7, 157)"/>
    <polygon fill="#2ad32f" opacity="1" points="22.0,151.2625816999281 15.37499999999999,162.7374183000719 28.625000000000007,162.7374183000719" stroke-width="0" transform=" rotate(0, 22, 157)"/>
    <polygon fill="#2ad32f" opacity="1" points="37.0,151.58734122634726 30.750000000000014,162.4126587736527 43.24999999999998,162.41265877365274" stroke-width="0" transform=" rotate(0, 37, 157)"/>
    <polygon fill="#2ad32f" opacity="1" points="52.0,151.91210075276643 46.125000000000014,162.08789924723357 57.874999999999986,162.08789924723357" stroke-width="0" transform=" rotate(0, 52, 157)"/>
    <polygon fill="#2ad32f" opacity="1" points="67.0,152.23686027918555 61.499999999999964,161.76313972081442 72.50000000000003,161.76313972081445" stroke-width="0" transform=" rotate(0, 67, 157)"/>
    <polygon fill="#2ad32f" opacity="1" points="82.0,152.56161980560472 76.87499999999997,161.43838019439528 87.12500000000003,161.43838019439528" stroke-width="0" transform=" rotate(0, 82, 157)"/>
    <polygon fill="#2ad32f" opacity="1" points="97.0,152.8863793320239 92.24999999999997,161.1136206679761 101.75000000000003,161.1136206679761" stroke-width="0" transform=" rotate(0, 97, 157)"/>
    <polygon fill="#2ad32f" opacity="1" points="112.0,153.21113885844306 107.62499999999997,160.78886114155694 116.37500000000003,160.78886114155694" stroke-width="0" transform=" rotate(0, 112, 157)"/>
    <polygon fill="#2ad32f" opacity="1" points="127.0,153.21113885844306 122.62499999999997,160.78886114155694 131.37500000000003,160.78886114155694" stroke-width="0" transform=" rotate(0, 127, 157)"/>
    <polygon fill="#2ad32f" opacity="1" points="142.0,153.21113885844312 137.62500000000006,160.78886114155688 146.37499999999994,160.78886114155688" stroke-width="0" transform=" rotate(0, 142, 157)"/>
    <polygon fill="#2ad32f" opacity="1" points="157.0,153.21113885844312 152.62500000000006,160.78886114155688 161.37499999999994,160.78886114155688" stroke-width="0" transform=" rotate(0, 157, 157)"/>
    <polygon fill="#2ad32f" opacity="1" points="172.0,152.88637933202395 167.25000000000006,161.11362066797602 176.74999999999994,161.11362066797605" stroke-width="0" transform=" rotate(0, 172, 157)"/>
    <polygon fill="#2ad32f" opacity="1" points="187.0,152.5616198056048 181.87500000000006,161.4383801943952 192.12499999999994,161.4383801943952" stroke-width="0" transform=" rotate(0, 187, 157)"/>
    <polygon fill="#2ad32f" opacity="1" points="202.0,152.23686027918563 196.50000000000006,161.76313972081437 207.49999999999994,161.76313972081437" stroke-width="0" transform=" rotate(0, 202, 157)"/>
    <polygon fill="#2ad32f" opacity="1" points="217.0,151.9121007527665 211.12500000000006,162.0878992472335 222.87499999999994,162.08789924723354" stroke-width="0" transform=" rotate(0, 217, 157)"/>
    <polygon fill="#2ad32f" opacity="1" points="232.0,151.58734122634732 225.75000000000006,162.41265877365268 238.24999999999994,162.41265877365268" stroke-width="0" transform=" rotate(0, 232, 157)"/>
    <polygon fill="#2ad32f" opacity="1" points="247.0,151.26258169992815 240.37500000000006,162.73741830007185 253.62499999999991,162.73741830007185" stroke-width="0" transform=" rotate(0, 247, 157)"/>
    <polygon fill="#2ad32f" opacity="1" points="262.0,150.9378221735088 254.99999999999986,163.0621778264912 269.00000000000017,163.0621778264912" stroke-width="0" transform=" rotate(0, 262, 157)"/>
    <polygon fill="#2ece53" opacity="1" points="7.000000000000001,165.93782217350892 -1.7763568394002505e-15,178.06217782649105 13.999999999999996,178.06217782649108" stroke-width="0" transform=" rotate(180, 7, 172)"/>
    <polygon fill="#2ece53" opacity="1" points="22.0,166.2625816999281 15.37499999999999,177.7374183000719 28.625000000000007,177.7374183000719" stroke-width="0" transform=" rotate(180, 22, 172)"/>
    <polygon fill="#2ece53" opacity="1" points="37.0,166.58734122634726 30.750000000000014,177.4126587736527 43.24999999999998,177.41265877365274" stroke-width="0" transform=" rotate(180, 37, 172)"/>
    <polygon fill="#2ece53" opacity="1" points="52.0,166.91210075276643 46.125000000000014,177.08789924723357 57.874999999999986,177.08789924723357" stroke-width="0" transform=" rotate(180, 52, 172)"/>
    <polygon fill="#2ece53" opacity="1" points="67.0,167.23686027918555 61.499999999999964,176.76313972081442 72.50000000000003,176.76313972081445" stroke-width="0" transform=" rotate(180, 67, 172)"/>
    <polygon fill="#2ece53" opacity="1" points="82.0,167.56161980560472 76.87499999999997,176.43838019439528 87.12500000000003,176.43838019439528" stroke-width="0" transform=" rotate(180, 82, 172)"/>
    <polygon fill="#2ece53" opacity="1" points="97.0,167.8863793320239 92.24999999999997,176.1136206679761 101.75000000000003,176.1136206679761" stroke-width="0" transform=" rotate(180, 97, 172)"/>
    <polygon fill="#2ece53" opacity="1" points="112.0,167.8863793320239 107.24999999999997,176.1136206679761 116.75000000000003,176.1136206679761" stroke-width="0" transform=" rotate(180, 112, 172)"/>
    <polygon fill="#2ece53" opacity="1" points="127.0,167.8863793320239 122.24999999999997,176.1136206679761 131.75000000000003,176.1136206679761" stroke-width="0" transform=" rotate(180, 127, 172)"/>
    <polygon fill="#2ece53" opacity="1" points="142.0,167.88637933202395 137.25000000000006,176.11362066797602 146.74999999999994,176.11362066797605" stroke-width="0" transform=" rotate(180, 142, 172)"/>
    <polygon fill="#2ece53" opacity="1" points="157.0,167.88637933202395 152.25000000000006,176.11362066797602 161.74999999999994,176.11362066797605" stroke-width="0" transform=" rotate(180, 157, 172)"/>
    <polygon fill="#2ece53" opacity="1" points="172.0,167.88637933202395 167.25000000000006,176.11362066797602 176.74999999999994,176.11362066797605" stroke-width="0" transform=" rotate(180, 172, 172)"/>
    <polygon fill="#2ece53" opacity="1" points="187.0,167.5616198056048 181.87500000000006,176.4383801943952 192.12499999999994,176.4383801943952" stroke-width="0" transform=" rotate(180, 187, 172)"/>
    <polygon fill="#2ece53" opacity="1" points="202.0,167.23686027918563 196.50000000000006,176.76313972081437 207.49999999999994,176.76313972081437" stroke-width="0" transform=" rotate(180, 202, 172)"/>
    <polygon fill="#2ece53" opacity="1" points="217.0,166.9121007527665 211.12500000000006,177.0878992472335 222.87499999999994,177.08789924723354" stroke-width="0" transform=" rotate(180, 217, 172)"/>
    <polygon fill="#2ece53" opacity="1" points="232.0,166.58734122634732 225.75000000000006,177.41265877365268 238.24999999999994,177.41265877365268" stroke-width="0" transform=" rotate(180, 232, 172)"/>
    <polygon fill="#2ece53" opacity="1" points="247.0,166.26258169992815 240.37500000000006,177.73741830007185 253.62499999999991,177.73741830007185" stroke-width="0" transform=" rotate(180, 247, 172)"/>
    <polygon fill="#2ece53" opacity="1" points="262.0,165.9378221735088 254.99999999999986,178.0621778264912 269.00000000000017,178.0621778264912" stroke-width="0" transform=" rotate(180, 262, 172)"/>
    <polygon fill="#32ca74" opacity="1" points="7.000000000000001,180.93782217350892 -1.7763568394002505e-15,193.06217782649105 13.999999999999996,193.06217782649108" stroke-width="0" transform=" rotate(0, 7, 187)"/>
    <polygon fill="#32ca74" opacity="1" points="22.0,181.2625816999281 15.37499999999999,192.7374183000719 28.625000000000007,192.7374183000719" stroke-width="0" transform=" rotate(0, 22, 187)"/>
    <polygon fill="#32ca74" opacity="1" points="37.0,181.58734122634726 30.750000000000014,192.4126587736527 43.24999999999998,192.41265877365274" stroke-width="0" transform=" rotate(0, 37, 187)"/>
    <polygon fill="#32ca74" opacity="1" points="52.0,181.91210075276643 46.125000000000014,192.08789924723357 57.874999999999986,192.08789924723357" stroke-width="0" transform=" rotate(0, 52, 187)"/>
    <polygon fill="#32ca74" opacity="1" points="67.0,182.23686027918555 61.499999999999964,191.76313972081442 72.50000000000003,191.76313972081445" stroke-width="0" transform=" rotate(0, 67, 187)"/>
    <polygon fill="#32ca74" opacity="1" points="82.0,182.56161980560472 76.87499999999997,191.43838019439528 87.12500000000003,191.43838019439528" stroke-width="0" transform=" rotate(0, 82, 187)"/>
    <polygon fill="#32ca74" opacity="1" points="97.0,182.56161980560472 91.87499999999997,191.43838019439528 102.12500000000003,191.43838019439528" stroke-width="0" transform=" rotate(0, 97, 187)"/>
    <polygon fill="#32ca74" opacity="1" points="112.0,182.56161980560472 106.87499999999997,191.43838019439528 117.12500000000003,191.43838019439528" stroke-width="0" transform=" rotate(0, 112, 187)"/>
    <polygon fill="#32ca74" opacity="1" points="127.0,182.56161980560472 121.87499999999997,191.43838019439528 132.12500000000003,191.43838019439528" stroke-width="0" transform=" rotate(0, 127, 187)"/>
    <polygon fill="#32ca74" opacity="1" points="142.0,182.5616198056048 136.87500000000006,191.4383801943952 147.12499999999994,191.4383801943952" stroke-width="0" transform=" rotate(0, 142, 187)"/>
    <polygon fill="#32ca74" opacity="1" points="157.0,182.5616198056048 151.87500000000006,191.4383801943952 162.12499999999994,191.4383801943952" stroke-width="0" transform=" rotate(0, 157, 187)"/>
    <polygon fill="#32ca74" opacity="1" points="172.0,182.5616198056048 166.87500000000006,191.4383801943952 177.12499999999994,191.4383801943952" stroke-width="0" transform=" rotate(0, 172, 187)"/>
    <polygon fill="#32ca74" opacity="1" points="187.0,182.5616198056048 181.87500000000006,191.4383801943952 192.12499999999994,191.4383801943952" stroke-width="0" transform=" rotate(0, 187, 187)"/>
    <polygon fill="#32ca74" opacity="1" points="202.0,182.23686027918563 196.50000000000006,191.76313972081437 207.49999999999994,191.76313972081437" stroke-width="0" transform=" rotate(0, 202, 187)"/>
    <polygon fill="#32ca74" opacity="1" points="217.0,181.9121007527665 211.12500000000006,192.0878992472335 222.87499999999994,192.08789924723354" stroke-width="0" transform=" rotate(0, 217, 187)"/>
    <polygon fill="#32ca74" opacity="1" points="232.0,181.58734122634732 225.75000000000006,192.41265877365268 238.24999999999994,192.41265877365268" stroke-width="0" transform=" rotate(0, 232, 187)"/>
    <polygon fill="#32ca74" opacity="1" points="247.0,181.26258169992815 240.37500000000006,192.73741830007185 253.62499999999991,192.73741830007185" stroke-width="0" transform=" rotate(0, 247, 187)"/>
    <polygon fill="#32ca74" opacity="1" points="262.0,180.9378221735088 254.99999999999986,193.0621778264912 269.00000000000017,193.0621778264912" stroke-width="0" transform=" rotate(0, 262, 187)"/>
    <polygon fill="#36c592" opacity="1" points="7.000000000000001,195.93782217350892 -1.7763568394002505e-15,208.06217782649105 13.999999999999996,208.06217782649108" stroke-width="0" transform=" rotate(180, 7, 202)"/>
    <polygon fill="#36c592" opacity="1" points="22.0,196.2625816999281 15.37499999999999,207.7374183000719 28.625000000000007,207.7374183000719" stroke-width="0" transform=" rotate(180, 22, 202)"/>
    <polygon fill="#36c592" opacity="1" points="37.0,196.58734122634726 30.750000000000014,207.4126587736527 43.24999999999998,207.41265877365274" stroke-width="0" transform=" rotate(180, 37, 202)"/>
    <polygon fill="#36c592" opacity="1" points="52.0,196.91210075276643 46.125000000000014,207.08789924723357 57.874999999999986,207.08789924723357" stroke-width="0" transform=" rotate(180, 52, 202)"/>
    <polygon fill="#36c592" opacity="1" points="67.0,197.23686027918555 61.499999999999964,206.76313972081442 72.50000000000003,206.76313972081445" stroke-width="0" transform=" rotate(180, 67, 202)"/>
    <polygon fill="#36c592" opacity="1" points="82.0,197.23686027918555 76.49999999999997,206.76313972081442 87.50000000000003,206.76313972081445" stroke-width="0" transform=" rotate(180, 82, 202)"/>
    <polygon fill="#36c592" opacity="1" points="97.0,197.23686027918555 91.49999999999997,206.76313972081442 102.50000000000003,206.76313972081445" stroke-width="0" transform=" rotate(180, 97, 202)"/>
    <polygon fill="#36c592" opacity="1" points="112.0,197.23686027918555 106.49999999999997,206.76313972081442 117.50000000000003,206.76313972081445" stroke-width="0" transform=" rotate(180, 112, 202)"/>
    <polygon fill="#36c592" opacity="1" points="127.0,197.23686027918555 121.49999999999997,206.76313972081442 132.50000000000003,206.76313972081445" stroke-width="0" transform=" rotate(180, 127, 202)"/>
    <polygon fill="#36c592" opacity="1" points="142.0,197.23686027918563 136.50000000000006,206.76313972081437 147.49999999999994,206.76313972081437" stroke-width="0" transform=" rotate(180, 142, 202)"/>
    <polygon fill="#36c592" opacity="1" points="157.0,197.23686027918563 151.50000000000006,206.76313972081437 162.49999999999994,206.76313972081437" stroke-width="0" transform=" rotate(180, 157, 202)"/>
    <polygon fill="#36c592" opacity="1" points="172.0,197.23686027918563 166.50000000000006,206.76313972081437 177.49999999999994,206.76313972081437" stroke-width="0" transform=" rotate(180, 172, 202)"/>
    <polygon fill="#36c592" opacity="1" points="187.0,197.23686027918563 181.50000000000006,206.76313972081437 192.49999999999994,206.76313972081437" stroke-width="0" transform=" rotate(180, 187, 202)"/>
    <polygon fill="#36c592" opacity="1" points="202.0,197.23686027918563 196.50000000000006,206.76313972081437 207.49999999999994,206.76313972081437" stroke-width="0" transform=" rotate(180, 202, 202)"/>
    <polygon fill="#36c592" opacity="1" points="217.0,196.9121007527665 211.12500000000006,207.0878992472335 222.87499999999994,207.08789924723354" stroke-width="0" transform=" rotate(180, 217, 202)"/>
    <polygon fill="#36c592" opacity="1" points="232.0,196.58734122634732 225.75000000000006,207.41265877365268 238.24999999999994,207.41265877365268" stroke-width="0" transform=" rotate(180, 232, 202)"/>
    <polygon fill="#36c592" opacity="1" points="247.0,196.26258169992815 240.37500000000006,207.73741830007185 253.62499999999991,207.73741830007185" stroke-width="0" transform=" rotate(180, 247, 202)"/>
    <polygon fill="#36c592" opacity="1" points="262.0,195.9378221735088 254.99999999999986,208.0621778264912 269.00000000000017,208.0621778264912" stroke-width="0" transform=" rotate(180, 262, 202)"/>
    <polygon fill="#3ac1ac" opacity="1" points="7.000000000000001,210.93782217350892 -1.7763568394002505e-15,223.06217782649105 13.999999999999996,223.06217782649108" stroke-width="0" transform=" rotate(0, 7, 217)"/>
    <polygon fill="#3ac1ac" opacity="1" points="22.0,211.2625816999281 15.37499999999999,222.7374183000719 28.625000000000007,222.7374183000719" stroke-width="0" transform=" rotate(0, 22, 217)"/>
    <polygon fill="#3ac1ac" opacity="1" points="37.0,211.58734122634726 30.750000000000014,222.4126587736527 43.24999999999998,222.41265877365274" stroke-width="0" transform=" rotate(0, 37, 217)"/>
    <polygon fill="#3ac1ac" opacity="1" points="52.0,211.91210075276643 46.125000000000014,222.08789924723357 57.874999999999986,222.08789924723357" stroke-width="0" transform=" rotate(0, 52, 217)"/>
    <polygon fill="#3ac1ac" opacity="1" points="67.0,211.9121007527664 61.124999999999964,222.0878992472336 72.87500000000003,222.08789924723362" stroke-width="0" transform=" rotate(0, 67, 217)"/>
    <polygon fill="#3ac1ac" opacity="1" points="82.0,211.9121007527664 76.12499999999997,222.0878992472336 87.87500000000003,222.08789924723362" stroke-width="0" transform=" rotate(0, 82, 217)"/>
    <polygon fill="#3ac1ac" opacity="1" points="97.0,211.9121007527664 91.12499999999997,222.0878992472336 102.87500000000003,222.08789924723362" stroke-width="0" transform=" rotate(0, 97, 217)"/>
    <polygon fill="#3ac1ac" opacity="1" points="112.0,211.9121007527664 106.12499999999997,222.0878992472336 117.87500000000003,222.08789924723362" stroke-width="0" transform=" rotate(0, 112, 217)"/>
    <polygon fill="#3ac1ac" opacity="1" points="127.0,211.9121007527664 121.12499999999997,222.0878992472336 132.87500000000003,222.08789924723362" stroke-width="0" transform=" rotate(0, 127, 217)"/>
    <polygon fill="#3ac1ac" opacity="1" points="142.0,211.9121007527665 136.12500000000006,222.0878992472335 147.87499999999994,222.08789924723354" stroke-width="0" transform=" rotate(0, 142, 217)"/>
    <polygon fill="#3ac1ac" opacity="1" points="157.0,211.9121007527665 151.12500000000006,222.0878992472335 162.87499999999994,222.08789924723354" stroke-width="0" transform=" rotate(0, 157, 217)"/>
    <polygon fill="#3ac1ac" opacity="1" points="172.0,211.9121007527665 166.12500000000006,222.0878992472335 177.87499999999994,222.08789924723354" stroke-width="0" transform=" rotate(0, 172, 217)"/>
    <polygon fill="#3ac1ac" opacity="1" points="187.0,211.9121007527665 181.12500000000006,222.0878992472335 192.87499999999994,222.08789924723354" stroke-width="0" transform=" rotate(0, 187, 217)"/>
    <polygon fill="#3ac1ac" opacity="1" points="202.0,211.9121007527665 196.12500000000006,222.0878992472335 207.87499999999994,222.08789924723354" stroke-width="0" transform=" rotate(0, 202, 217)"/>
    <polygon fill="#3ac1ac" opacity="1" points="217.0,211.9121007527665 211.12500000000006,222.0878992472335 222.87499999999994,222.08789924723354" stroke-width="0" transform=" rotate(0, 217, 217)"/>
    <polygon fill="#3ac1ac" opacity="1" points="232.0,211.58734122634732 225.75000000000006,222.41265877365268 238.24999999999994,222.41265877365268" stroke-width="0" transform=" rotate(0, 232, 217)"/>
    <polygon fill="#3ac1ac" opacity="1" points="247.0,211.26258169992815 240.37500000000006,222.73741830007185 253.62499999999991,222.73741830007185" stroke-width="0" transform=" rotate(0, 247, 217)"/>
    <polygon fill="#3ac1ac" opacity="1" points="262.0,210.9378221735088 254.99999999999986,223.0621778264912 269.00000000000017,223.0621778264912" stroke-width="0" transform=" rotate(0, 262, 217)"/>
    <polygon fill="#3eb7bd" opacity="1" points="7.000000000000001,225.93782217350892 -1.7763568394002505e-15,238.06217782649105 13.999999999999996,238.06217782649108" stroke-width="0" transform=" rotate(180, 7, 232)"/>
    <polygon fill="#3eb7bd" opacity="1" points="22.0,226.2625816999281 15.37499999999999,237.7374183000719 28.625000000000007,237.7374183000719" stroke-width="0" transform=" rotate(180, 22, 232)"/>
    <polygon fill="#3eb7bd" opacity="1" points="37.0,226.58734122634726 30.750000000000014,237.4126587736527 43.24999999999998,237.41265877365274" stroke-width="0" transform=" rotate(180, 37, 232)"/>
    <polygon fill="#3eb7bd" opacity="1" points="52.0,226.58734122634726 45.750000000000014,237.4126587736527 58.24999999999998,237.41265877365274" stroke-width="0" transform=" rotate(180, 52, 232)"/>
    <polygon fill="#3eb7bd" opacity="1" points="67.0,226.58734122634723 60.749999999999964,237.41265877365277 73.25000000000003,237.41265877365277" stroke-width="0" transform=" rotate(180, 67, 232)"/>
    <polygon fill="#3eb7bd" opacity="1" points="82.0,226.58734122634723 75.74999999999996,237.41265877365277 88.25000000000003,237.41265877365277" stroke-width="0" transform=" rotate(180, 82, 232)"/>
    <polygon fill="#3eb7bd" opacity="1" points="97.0,226.58734122634723 90.74999999999996,237.41265877365277 103.25000000000003,237.41265877365277" stroke-width="0" transform=" rotate(180, 97, 232)"/>
    <polygon fill="#3eb7bd" opacity="1" points="112.0,226.58734122634723 105.74999999999996,237.41265877365277 118.25000000000003,237.41265877365277" stroke-width="0" transform=" rotate(180, 112, 232)"/>
    <polygon fill="#3eb7bd" opacity="1" points="127.0,226.58734122634723 120.74999999999996,237.41265877365277 133.25000000000003,237.41265877365277" stroke-width="0" transform=" rotate(180, 127, 232)"/>
    <polygon fill="#3eb7bd" opacity="1" points="142.0,226.58734122634732 135.75000000000006,237.41265877365268 148.24999999999994,237.41265877365268" stroke-width="0" transform=" rotate(180, 142, 232)"/>
    <polygon fill="#3eb7bd" opacity="1" points="157.0,226.58734122634732 150.75000000000006,237.41265877365268 163.24999999999994,237.41265877365268" stroke-width="0" transform=" rotate(180, 157, 232)"/>
    <polygon fill="#3eb7bd" opacity="1" points="172.0,226.58734122634732 165.75000000000006,237.41265877365268 178.24999999999994,237.41265877365268" stroke-width="0" transform=" rotate(180, 172, 232)"/>
    <polygon fill="#3eb7bd" opacity="1" points="187.0,226.58734122634732 180.75000000000006,237.41265877365268 193.24999999999994,237.41265877365268" stroke-width="0" transform=" rotate(180, 187, 232)"/>
    <polygon fill="#3eb7bd" opacity="1" points="202.0,226.58734122634732 195.75000000000006,237.41265877365268 208.24999999999994,237.41265877365268" stroke-width="0" transform=" rotate(180, 202, 232)"/>
    <polygon fill="#3eb7bd" opacity="1" points="217.0,226.58734122634732 210.75000000000006,237.41265877365268 223.24999999999994,237.41265877365268" stroke-width="0" transform=" rotate(180, 217, 232)"/>
    <polygon fill="#3eb7bd" opacity="1" points="232.0,226.58734122634732 225.75000000000006,237.41265877365268 238.24999999999994,237.41265877365268" stroke-width="0" transform=" rotate(180, 232, 232)"/>
    <polygon fill="#3eb7bd" opacity="1" points="247.0,226.26258169992815 240.37500000000006,237.73741830007185 253.62499999999991,237.73741830007185" stroke-width="0" transform=" rotate(180, 247, 232)"/>
    <polygon fill="#3eb7bd" opacity="1" points="262.0,225.9378221735088 254.99999999999986,238.0621778264912 269.00000000000017,238.0621778264912" stroke-width="0" transform=" rotate(180, 262, 232)"/>
    <polygon fill="#429bb8" opacity="1" points="7.000000000000001,240.93782217350892 -1.7763568394002505e-15,253.06217782649105 13.999999999999996,253.06217782649108" stroke-width="0" transform=" rotate(0, 7, 247)"/>
    <polygon fill="#429bb8" opacity="1" points="22.0,241.2625816999281 15.37499999999999,252.7374183000719 28.625000000000007,252.7374183000719" stroke-width="0" transform=" rotate(0, 22, 247)"/>
    <polygon fill="#429bb8" opacity="1" points="37.0,241.26258169992812 30.375000000000014,252.73741830007188 43.62499999999998,252.73741830007188" stroke-width="0" transform=" rotate(0, 37, 247)"/>
    <polygon fill="#429bb8" opacity="1" points="52.0,241.26258169992812 45.375000000000014,252.73741830007188 58.62499999999998,252.73741830007188" stroke-width="0" transform=" rotate(0, 52, 247)"/>
    <polygon fill="#429bb8" opacity="1" points="67.0,241.26258169992806 60.37499999999996,252.73741830007194 73.62500000000003,252.73741830007194" stroke-width="0" transform=" rotate(0, 67, 247)"/>
    <polygon fill="#429bb8" opacity="1" points="82.0,241.26258169992806 75.37499999999996,252.73741830007194 88.62500000000003,252.73741830007194" stroke-width="0" transform=" rotate(0, 82, 247)"/>
    <polygon fill="#429bb8" opacity="1" points="97.0,241.26258169992806 90.37499999999996,252.73741830007194 103.62500000000003,252.73741830007194" stroke-width="0" transform=" rotate(0, 97, 247)"/>
    <polygon fill="#429bb8" opacity="1" points="112.0,241.26258169992806 105.37499999999996,252.73741830007194 118.62500000000003,252.73741830007194" stroke-width="0" transform=" rotate(0, 112, 247)"/>
    <polygon fill="#429bb8" opacity="1" points="127.0,241.26258169992806 120.37499999999996,252.73741830007194 133.62500000000003,252.73741830007194" stroke-width="0" transform=" rotate(0, 127, 247)"/>
    <polygon fill="#429bb8" opacity="1" points="142.0,241.26258169992815 135.37500000000006,252.73741830007185 148.62499999999991,252.73741830007185" stroke-width="0" transform=" rotate(0, 142, 247)"/>
    <polygon fill="#429bb8" opacity="1" points="157.0,241.26258169992815 150.37500000000006,252.73741830007185 163.62499999999991,252.73741830007185" stroke-width="0" transform=" rotate(0, 157, 247)"/>
    <polygon fill="#429bb8" opacity="1" points="172.0,241.26258169992815 165.37500000000006,252.73741830007185 178.62499999999991,252.73741830007185" stroke-width="0" transform=" rotate(0, 172, 247)"/>
    <polygon fill="#429bb8" opacity="1" points="187.0,241.26258169992815 180.37500000000006,252.73741830007185 193.62499999999991,252.73741830007185" stroke-width="0" transform=" rotate(0, 187, 247)"/>
    <polygon fill="#429bb8" opacity="1" points="202.0,241.26258169992815 195.37500000000006,252.73741830007185 208.62499999999991,252.73741830007185" stroke-width="0" transform=" rotate(0, 202, 247)"/>
    <polygon fill="#429bb8" opacity="1" points="217.0,241.26258169992815 210.37500000000006,252.73741830007185 223.62499999999991,252.73741830007185" stroke-width="0" transform=" rotate(0, 217, 247)"/>
    <polygon fill="#429bb8" opacity="1" points="232.0,241.26258169992815 225.37500000000006,252.73741830007185 238.62499999999991,252.73741830007185" stroke-width="0" transform=" rotate(0, 232, 247)"/>
    <polygon fill="#429bb8" opacity="1" points="247.0,241.26258169992815 240.37500000000006,252.73741830007185 253.62499999999991,252.73741830007185" stroke-width="0" transform=" rotate(0, 247, 247)"/>
    <polygon fill="#429bb8" opacity="1" points="262.0,240.9378221735088 254.99999999999986,253.0621778264912 269.00000000000017,253.0621778264912" stroke-width="0" transform=" rotate(0, 262, 247)"/>
    <polygon fill="#4682b4" opacity="1" points="7.000000000000001,255.93782217350892 -1.7763568394002505e-15,268.06217782649105 13.999999999999996,268.06217782649105" stroke-width="0" transform=" rotate(180, 7, 262)"/>
    <polygon fill="#4682b4" opacity="1" points="22.0,255.93782217350892 14.999999999999988,268.06217782649105 29.000000000000007,268.0621778264911" stroke-width="0" transform=" rotate(180, 22, 262)"/>
    <polygon fill="#4682b4" opacity="1" points="37.0,255.93782217350895 30.000000000000018,268.06217782649105 43.99999999999998,268.06217782649105" stroke-width="0" transform=" rotate(180, 37, 262)"/>
    <polygon fill="#4682b4" opacity="1" points="52.0,255.93782217350895 45.000000000000014,268.06217782649105 58.99999999999998,268.06217782649105" stroke-width="0" transform=" rotate(180, 52, 262)"/>
    <polygon fill="#4682b4" opacity="1" points="67.0,255.9378221735089 59.99999999999996,268.0621778264911 74.00000000000004,268.0621778264911" stroke-width="0" transform=" rotate(180, 67, 262)"/>
    <polygon fill="#4682b4" opacity="1" points="82.0,255.9378221735089 74.99999999999996,268.0621778264911 89.00000000000004,268.0621778264911" stroke-width="0" transform=" rotate(180, 82, 262)"/>
    <polygon fill="#4682b4" opacity="1" points="97.0,255.9378221735089 89.99999999999996,268.0621778264911 104.00000000000004,268.0621778264911" stroke-width="0" transform=" rotate(180, 97, 262)"/>
    <polygon fill="#4682b4" opacity="1" points="112.0,255.9378221735089 104.99999999999996,268.0621778264911 119.00000000000004,268.0621778264911" stroke-width="0" transform=" rotate(180, 112, 262)"/>
    <polygon fill="#4682b4" opacity="1" points="127.0,255.9378221735089 119.99999999999996,268.0621778264911 134.00000000000003,268.0621778264911" stroke-width="0" transform=" rotate(180, 127, 262)"/>
    <polygon fill="#4682b4" opacity="1" points="142.0,255.937822173509 135.00000000000009,268.062177826491 148.99999999999991,268.062177826491" stroke-width="0" transform=" rotate(180, 142, 262)"/>
    <polygon fill="#4682b4" opacity="1" points="157.0,255.937822173509 150.00000000000009,268.062177826491 163.99999999999991,268.062177826491" stroke-width="0" transform=" rotate(180, 157, 262)"/>
    <polygon fill="#4682b4" opacity="1" points="172.0,255.937822173509 165.00000000000009,268.062177826491 178.99999999999991,268.062177826491" stroke-width="0" transform=" rotate(180, 172, 262)"/>
    <polygon fill="#4682b4" opacity="1" points="187.0,255.937822173509 180.00000000000009,268.062177826491 193.99999999999991,268.062177826491" stroke-width="0" transform=" rotate(180, 187, 262)"/>
    <polygon fill="#4682b4" opacity="1" points="202.0,255.937822173509 195.00000000000009,268.062177826491 208.99999999999991,268.062177826491" stroke-width="0" transform=" rotate(180, 202, 262)"/>
    <polygon fill="#4682b4" opacity="1" points="217.0,255.937822173509 210.00000000000009,268.062177826491 223.99999999999991,268.062177826491" stroke-width="0" transform=" rotate(180, 217, 262)"/>
    <polygon fill="#4682b4" opacity="1" points="232.0,255.937822173509 225.00000000000009,268.062177826491 238.99999999999991,268.062177826491" stroke-width="0" transform=" rotate(180, 232, 262)"/>
    <polygon fill="#4682b4" opacity="1" points="247.0,255.937822173509 240.00000000000009,268.062177826491 253.99999999999991,268.062177826491" stroke-width="0" transform=" rotate(180, 247, 262)"/>
    <polygon fill="#4682b4" opacity="1" points="262.0,255.9378221735088 254.99999999999986,268.0621778264912 269.00000000000017,268.0621778264912" stroke-width="0" transform=" rotate(180, 262, 262)"/>
  </g>
</svg>
