<?xml version="1.0" encoding="utf-8" ?>
<svg xmlns="http://www.w3.org/2000/svg" xmlns:ev="http://www.w3.org/2001/xml-events" xmlns:xlink="http://www.w3.org/1999/xlink" baseProfile="full" height="250" version="1.1" width="250">
  <defs/>
  <g transform=" rotate(0, 125, 125)">
    <rect fill="white" height="250" width="250" x="0" y="0"/>
    <rect fill="#006ca1" height="30" opacity="1" stroke-width="0" transform=" rotate(0, 20, 20)" width="30" x="5.0" y="5.0"/>
    <rect fill="#006ca1" height="30" opacity="1" stroke-width="0" transform=" rotate(0, 90, 55)" width="30" x="75.0" y="40.0"/>
    <rect fill="#006ca1" height="30" opacity="1" stroke-width="0" transform=" rotate(0, 125, 55)" width="30" x="110.0" y="40.0"/>
    <rect fill="#006ca1" height="30" opacity="1" stroke-width="0" transform=" rotate(0, 160, 55)" width="30" x="145.0" y="40.0"/>
    <rect fill="#006ca1" height="30" opacity="1" stroke-width="0" transform=" rotate(0, 230, 20)" width="30" x="215.0" y="5.0"/>
    <rect fill="#006ca1" height="30" opacity="1" stroke-width="0" transform=" rotate(0, 55, 90)" width="30" x="40.0" y="75.0"/>
    <rect fill="#6dd6ff" height="30" opacity="1" stroke-width="0" transform=" rotate(0, 90, 90)" width="30" x="75.0" y="75.0"/>
    <rect fill="#6dd6ff" height="30" opacity="1" stroke-width="0" transform=" rotate(0, 125, 90)" width="30" x="110.0" y="75.0"/>
    <rect fill="#6dd6ff" height="30" opacity="1" stroke-width="0" transform=" rotate(0, 160, 90)" width="30" x="145.0" y="75.0"/>
    <rect fill="#006ca1" height="30" opacity="1" stroke-width="0" transform=" rotate(0, 195, 90)" width="30" x="180.0" y="75.0"/>
    <rect fill="#006ca1" height="30" opacity="1" stroke-width="0" transform=" rotate(0, 55, 125)" width="30" x="40.0" y="110.0"/>
    <rect fill="#6dd6ff" height="30" opacity="1" stroke-width="0" transform=" rotate(0, 90, 125)" width="30" x="75.0" y="110.0"/>
    <rect fill="#1b9fd8" height="30" opacity="1" stroke-width="0" transform=" rotate(0, 125, 125)" width="30" x="110.0" y="110.0"/>
    <rect fill="#6dd6ff" height="30" opacity="1" stroke-width="0" transform=" rotate(0, 160, 125)" width="30" x="145.0" y="110.0"/>
    <rect fill="#006ca1" height="30" opacity="1" stroke-width="0" transform=" rotate(0, 195, 125)" width="30" x="180.0" y="110.0"/>
    <rect fill="#006ca1" height="30" opacity="1" stroke-width="0" transform=" rotate(0, 55, 160)" width="30" x="40.0" y="145.0"/>
    <rect fill="#6dd6ff" height="30" opacity="1" stroke-width="0" transform=" rotate(0, 90, 160)" width="30" x="75.0" y="145.0"/>
    <rect fill="#6dd6ff" height="30" opacity="1" stroke-width="0" transform=" rotate(0, 125, 160)" width="30" x="110.0" y="145.0"/>
    <rect fill="#6dd6ff" height="30" opacity="1" stroke-width="0" transform=" rotate(0, 160, 160)" width="30" x="145.0" y="145.0"/>
    <rect fill="#006ca1" height="30" opacity="1" stroke-width="0" transform=" rotate(0, 195, 160)" width="30" x="180.0" y="145.0"/>
    <rect fill="#006ca1" height="30" opacity="1" stroke-width="0" transform=" rotate(0, 20, 230)" width="30" x="5.0" y="215.0"/>
    <rect fill="#006ca1" height="30" opacity="1" stroke-width="0" transform=" rotate(0, 90, 195)" width="30" x="75.0" y="180.0"/>
    <rect fill="#006ca1" height="30" opacity="1" stroke-width="0" transform=" rotate(0, 125, 195)" width="30" x="110.0" y="180.0"/>
    <rect fill="#006ca1" height="30" opacity="1" stroke-width="0" transform=" rotate(0, 160, 195)" width="30" x="145.0" y="180.0"/>
    <rect fill="#006ca1" height="30" opacity="1" stroke-width="0" transform=" rotate(0, 230, 230)" width="30" x="215.0" y="215.0"/>
  </g>
</svg>
