<?xml version="1.0" encoding="utf-8" ?>
<svg xmlns="http://www.w3.org/2000/svg" xmlns:ev="http://www.w3.org/2001/xml-events" xmlns:xlink="http://www.w3.org/1999/xlink" baseProfile="full" height="250" version="1.1" width="250">
  <defs/>
  <g transform=" rotate(0, 125, 125)">
    <rect fill="white" height="250" width="250" x="0" y="0"/>
    <ellipse cx="37.5" cy="38.21785247231904" fill="#6dd6ff" opacity="1" rx="12.5" ry="12.5" stroke-width="0" transform=" rotate(0, 37, 38)"/>
    <ellipse cx="72.5" cy="35.93763583208226" fill="#6dd6ff" opacity="1" rx="12.5" ry="12.5" stroke-width="0" transform=" rotate(0, 72, 35)"/>
    <ellipse cx="107.5" cy="38.32487177543195" fill="#1b9fd8" opacity="1" rx="12.5" ry="12.5" stroke-width="0" transform=" rotate(0, 107, 38)"/>
    <ellipse cx="142.5" cy="32.37298267151245" fill="#1b9fd8" opacity="1" rx="12.5" ry="12.5" stroke-width="0" transform=" rotate(0, 142, 32)"/>
    <ellipse cx="177.5" cy="42.088550978997546" fill="#006ca1" opacity="1" rx="12.5" ry="12.5" stroke-width="0" transform=" rotate(0, 177, 42)"/>
    <ellipse cx="212.5" cy="42.25283291781555" fill="#006ca1" opacity="1" rx="12.5" ry="12.5" stroke-width="0" transform=" rotate(0, 212, 42)"/>
    <ellipse cx="37.5" cy="74.53097149969923" fill="#6dd6ff" opacity="1" rx="12.5" ry="12.5" stroke-width="0" transform=" rotate(0, 37, 74)"/>
    <ellipse cx="72.5" cy="66.63908386158154" fill="#6dd6ff" opacity="1" rx="12.5" ry="12.5" stroke-width="0" transform=" rotate(0, 72, 66)"/>
    <ellipse cx="107.5" cy="72.40612071151922" fill="#1b9fd8" opacity="1" rx="12.5" ry="12.5" stroke-width="0" transform=" rotate(0, 107, 72)"/>
    <ellipse cx="142.5" cy="69.3197759432339" fill="#1b9fd8" opacity="1" rx="12.5" ry="12.5" stroke-width="0" transform=" rotate(0, 142, 69)"/>
    <ellipse cx="177.5" cy="68.07535778426283" fill="#006ca1" opacity="1" rx="12.5" ry="12.5" stroke-width="0" transform=" rotate(0, 177, 68)"/>
    <ellipse cx="212.5" cy="79.32048150361501" fill="#006ca1" opacity="1" rx="12.5" ry="12.5" stroke-width="0" transform=" rotate(0, 212, 79)"/>
    <ellipse cx="37.5" cy="115.0203228379117" fill="#6dd6ff" opacity="1" rx="12.5" ry="12.5" stroke-width="0" transform=" rotate(0, 37, 115)"/>
    <ellipse cx="72.5" cy="99.78831307648736" fill="#6dd6ff" opacity="1" rx="12.5" ry="12.5" stroke-width="0" transform=" rotate(0, 72, 99)"/>
    <ellipse cx="107.5" cy="112.83798755386108" fill="#1b9fd8" opacity="1" rx="12.5" ry="12.5" stroke-width="0" transform=" rotate(0, 107, 112)"/>
    <ellipse cx="142.5" cy="108.72646073277139" fill="#1b9fd8" opacity="1" rx="12.5" ry="12.5" stroke-width="0" transform=" rotate(0, 142, 108)"/>
    <ellipse cx="177.5" cy="105.1811067319863" fill="#006ca1" opacity="1" rx="12.5" ry="12.5" stroke-width="0" transform=" rotate(0, 177, 105)"/>
    <ellipse cx="212.5" cy="103.61330244378787" fill="#006ca1" opacity="1" rx="12.5" ry="12.5" stroke-width="0" transform=" rotate(0, 212, 103)"/>
    <ellipse cx="37.5" cy="144.87484851143972" fill="#6dd6ff" opacity="1" rx="12.5" ry="12.5" stroke-width="0" transform=" rotate(0, 37, 144)"/>
    <ellipse cx="72.5" cy="141.38470937421332" fill="#6dd6ff" opacity="1" rx="12.5" ry="12.5" stroke-width="0" transform=" rotate(0, 72, 141)"/>
    <ellipse cx="107.5" cy="145.04919472487393" fill="#1b9fd8" opacity="1" rx="12.5" ry="12.5" stroke-width="0" transform=" rotate(0, 107, 145)"/>
    <ellipse cx="142.5" cy="144.66495207811806" fill="#1b9fd8" opacity="1" rx="12.5" ry="12.5" stroke-width="0" transform=" rotate(0, 142, 144)"/>
    <ellipse cx="177.5" cy="136.20306127267582" fill="#006ca1" opacity="1" rx="12.5" ry="12.5" stroke-width="0" transform=" rotate(0, 177, 136)"/>
    <ellipse cx="212.5" cy="146.36081598038427" fill="#006ca1" opacity="1" rx="12.5" ry="12.5" stroke-width="0" transform=" rotate(0, 212, 146)"/>
    <ellipse cx="37.5" cy="184.7940229414595" fill="#6dd6ff" opacity="1" rx="12.5" ry="12.5" stroke-width="0" transform=" rotate(0, 37, 184)"/>
    <ellipse cx="72.5" cy="184.58562152375913" fill="#6dd6ff" opacity="1" rx="12.5" ry="12.5" stroke-width="0" transform=" rotate(0, 72, 184)"/>
    <ellipse cx="107.5" cy="178.88864008602775" fill="#1b9fd8" opacity="1" rx="12.5" ry="12.5" stroke-width="0" transform=" rotate(0, 107, 178)"/>
    <ellipse cx="142.5" cy="169.78358108311437" fill="#1b9fd8" opacity="1" rx="12.5" ry="12.5" stroke-width="0" transform=" rotate(0, 142, 169)"/>
    <ellipse cx="177.5" cy="169.14029326381495" fill="#006ca1" opacity="1" rx="12.5" ry="12.5" stroke-width="0" transform=" rotate(0, 177, 169)"/>
    <ellipse cx="212.5" cy="171.21897139006654" fill="#006ca1" opacity="1" rx="12.5" ry="12.5" stroke-width="0" transform=" rotate(0, 212, 171)"/>
    <ellipse cx="37.5" cy="219.1314472996138" fill="#6dd6ff" opacity="1" rx="12.5" ry="12.5" stroke-width="0" transform=" rotate(0, 37, 219)"/>
    <ellipse cx="72.5" cy="208.92117994974558" fill="#6dd6ff" opacity="1" rx="12.5" ry="12.5" stroke-width="0" transform=" rotate(0, 72, 208)"/>
    <ellipse cx="107.5" cy="209.93374058384723" fill="#1b9fd8" opacity="1" rx="12.5" ry="12.5" stroke-width="0" transform=" rotate(0, 107, 209)"/>
    <ellipse cx="142.5" cy="218.4465508699074" fill="#1b9fd8" opacity="1" rx="12.5" ry="12.5" stroke-width="0" transform=" rotate(0, 142, 218)"/>
    <ellipse cx="177.5" cy="209.10523183658364" fill="#006ca1" opacity="1" rx="12.5" ry="12.5" stroke-width="0" transform=" rotate(0, 177, 209)"/>
    <ellipse cx="212.5" cy="212.85912590147893" fill="#006ca1" opacity="1" rx="12.5" ry="12.5" stroke-width="0" transform=" rotate(0, 212, 212)"/>
  </g>
</svg>
