<?xml version="1.0" encoding="utf-8" ?>
<svg xmlns="http://www.w3.org/2000/svg" xmlns:ev="http://www.w3.org/2001/xml-events" xmlns:xlink="http://www.w3.org/1999/xlink" baseProfile="full" height="250" version="1.1" width="250">
  <defs/>
  <g transform=" rotate(0, 125, 125)">
    <rect fill="none" height="250" width="250" x="0" y="0"/>
    <ellipse cx="35.0" cy="35.0" fill="orange" opacity="0.1" rx="15.0" ry="15.0" stroke-width="0" transform=" rotate(0, 35, 35)"/>
    <polygon fill="orange" opacity="0.25" points="65.0,50.0 80.0,20.0 95.0,50.0" stroke-width="0" transform=" rotate(0, 80, 35)"/>
    <rect fill="orange" height="30" opacity="0.5" stroke-width="0" transform=" rotate(0, 125, 35)" width="30" x="110.0" y="20.0"/>
    <polygon fill="orange" opacity="0.75" points="170.0,20.73415225557262 155.0,31.63229017565303 160.72949016875157,49.26584774442723 179.27050983124843,49.26584774442723 185.0,31.632290175653036" stroke-width="0" transform=" rotate(0, 170, 35)"/>
    <polygon fill="orange" opacity="1" points="215.0,20.0 204.3933982822018,24.393398282201787 200.0,35.0 204.3933982822018,45.60660171779821 215.0,50.0 225.6066017177982,45.60660171779821 230.0,35.00000000000001 225.6066017177982,24.3933982822018" stroke-width="0" transform=" rotate(0, 215, 35)"/>
    <ellipse cx="35.0" cy="80.0" fill="dodgerblue" opacity="1" rx="15.0" ry="15.0" stroke-width="0" transform=" rotate(0, 35, 80)"/>
    <polygon fill="dodgerblue" opacity="0.75" points="65.0,95.0 80.0,65.0 95.0,95.0" stroke-width="0" transform=" rotate(0, 80, 80)"/>
    <rect fill="dodgerblue" height="30" opacity="0.5" stroke-width="0" transform=" rotate(0, 125, 80)" width="30" x="110.0" y="65.0"/>
    <polygon fill="dodgerblue" opacity="0.25" points="170.0,65.73415225557284 155.0,76.63229017565325 160.72949016875157,94.26584774442745 179.27050983124843,94.26584774442745 185.0,76.63229017565327" stroke-width="0" transform=" rotate(0, 170, 80)"/>
    <polygon fill="dodgerblue" opacity="0.1" points="215.0,65.0 204.3933982822018,69.39339828220179 200.0,80.0 204.3933982822018,90.60660171779821 215.0,95.0 225.6066017177982,90.60660171779821 230.0,80.0 225.6066017177982,69.3933982822018" stroke-width="0" transform=" rotate(0, 215, 80)"/>
    <ellipse cx="35.0" cy="125.0" fill="orange" opacity="0.1" rx="15.0" ry="15.0" stroke-width="0" transform=" rotate(0, 35, 125)">
      <set attributeName="opacity" begin="click" dur="2s" to="1"/>
    </ellipse>
    <polygon fill="orange" opacity="1" points="65.0,140.0 80.0,110.0 95.0,140.0" stroke-width="0" transform=" rotate(0, 80, 125)">
      <animate attributeName="opacity" begin="2s" calcMode="linear" dur="10s" repeatCount="indefinite" values=".8;.6;.4;.2;0;.2;.4;.6;.8;1"/>
    </polygon>
    <rect fill="orange" height="30" opacity="1" stroke-width="0" transform=" rotate(0, 125, 125)" width="30" x="110.0" y="110.0">
      <animate attributeName="opacity" begin="2s" calcMode="discrete" dur="10s" repeatCount="indefinite" values=".8;.6;.4;.2;0;.2;.4;.6;.8;1"/>
    </rect>
    <polygon fill="orange" opacity="1" points="170.0,110.73415225557284 155.0,121.63229017565325 160.72949016875157,139.26584774442745 179.27050983124843,139.26584774442745 185.0,121.63229017565327" stroke-width="0" transform=" rotate(0, 170, 125)">
      <animate attributeName="opacity" begin="2s" calcMode="linear" dur="10s" repeatCount="indefinite" values=".8;.6;.4;.2;0;.2;.4;.6;.8;1"/>
    </polygon>
    <polygon fill="orange" opacity="0.1" points="215.0,110.0 204.3933982822018,114.39339828220179 200.0,125.0 204.3933982822018,135.6066017177982 215.0,140.0 225.6066017177982,135.6066017177982 230.0,125.0 225.6066017177982,114.3933982822018" stroke-width="0" transform=" rotate(0, 215, 125)">
      <set attributeName="opacity" begin="click" dur="2s" to="1"/>
    </polygon>
    <ellipse cx="35.0" cy="170.0" fill="dodgerblue" opacity="0.1" rx="15.0" ry="15.0" stroke-width="0" transform=" rotate(0, 35, 170)"/>
    <polygon fill="dodgerblue" opacity="0.25" points="65.0,185.0 80.0,155.0 95.0,185.0" stroke-width="0" transform=" rotate(0, 80, 170)"/>
    <rect fill="dodgerblue" height="30" opacity="0.5" stroke-width="0" transform=" rotate(0, 125, 170)" width="30" x="110.0" y="155.0"/>
    <polygon fill="dodgerblue" opacity="0.75" points="170.0,155.73415225557284 155.0,166.63229017565325 160.72949016875157,184.26584774442745 179.27050983124843,184.26584774442745 185.0,166.63229017565325" stroke-width="0" transform=" rotate(0, 170, 170)"/>
    <polygon fill="dodgerblue" opacity="1" points="215.0,155.0 204.3933982822018,159.3933982822018 200.0,170.0 204.3933982822018,180.6066017177982 215.0,185.0 225.6066017177982,180.6066017177982 230.0,170.0 225.6066017177982,159.3933982822018" stroke-width="0" transform=" rotate(0, 215, 170)"/>
    <ellipse cx="35.0" cy="215.0" fill="orange" opacity="1" rx="15.0" ry="15.0" stroke-width="0" transform=" rotate(0, 35, 215)"/>
    <polygon fill="orange" opacity="0.75" points="65.0,230.0 80.0,200.0 95.0,230.0" stroke-width="0" transform=" rotate(0, 80, 215)"/>
    <rect fill="orange" height="30" opacity="0.5" stroke-width="0" transform=" rotate(0, 125, 215)" width="30" x="110.0" y="200.0"/>
    <polygon fill="orange" opacity="0.25" points="170.0,200.73415225557284 155.0,211.63229017565325 160.72949016875157,229.26584774442745 179.27050983124843,229.26584774442745 185.0,211.63229017565325" stroke-width="0" transform=" rotate(0, 170, 215)"/>
    <polygon fill="orange" opacity="0.1" points="215.0,200.0 204.3933982822018,204.3933982822018 200.0,215.0 204.3933982822018,225.6066017177982 215.0,230.0 225.6066017177982,225.6066017177982 230.0,215.0 225.6066017177982,204.3933982822018" stroke-width="0" transform=" rotate(0, 215, 215)"/>
  </g>
</svg>
