<?xml version="1.0" encoding="utf-8" ?>
<svg xmlns="http://www.w3.org/2000/svg" xmlns:ev="http://www.w3.org/2001/xml-events" xmlns:xlink="http://www.w3.org/1999/xlink" baseProfile="full" height="250" version="1.1" width="250">
  <defs/>
  <g transform=" rotate(0, 125, 125)">
    <rect fill="none" height="250" width="250" x="0" y="0"/>
    <ellipse cx="23.0" cy="23.0" fill="#4682b4" opacity="1" rx="5.0" ry="5.0" stroke-width="0" transform=" rotate(0, 23, 23)"/>
    <ellipse cx="35.0" cy="23.0" fill="#4682b4" opacity="1" rx="5.0" ry="5.0" stroke-width="0" transform=" rotate(0, 35, 23)"/>
    <ellipse cx="47.0" cy="23.0" fill="#4682b4" opacity="1" rx="5.0" ry="5.0" stroke-width="0" transform=" rotate(0, 47, 23)"/>
    <ellipse cx="59.0" cy="23.0" fill="#4682b4" opacity="1" rx="5.0" ry="5.0" stroke-width="0" transform=" rotate(0, 59, 23)"/>
    <ellipse cx="71.0" cy="23.0" fill="#4682b4" opacity="1" rx="5.0" ry="5.0" stroke-width="0" transform=" rotate(0, 71, 23)"/>
    <ellipse cx="83.0" cy="23.0" fill="#4682b4" opacity="1" rx="5.0" ry="5.0" stroke-width="0" transform=" rotate(0, 83, 23)"/>
    <ellipse cx="95.0" cy="23.0" fill="#4682b4" opacity="1" rx="5.0" ry="5.0" stroke-width="0" transform=" rotate(0, 95, 23)"/>
    <ellipse cx="107.0" cy="23.0" fill="#4682b4" opacity="1" rx="5.0" ry="5.0" stroke-width="0" transform=" rotate(0, 107, 23)"/>
    <ellipse cx="119.0" cy="23.0" fill="#4682b4" opacity="1" rx="5.0" ry="5.0" stroke-width="0" transform=" rotate(0, 119, 23)"/>
    <ellipse cx="131.0" cy="23.0" fill="#4682b4" opacity="1" rx="5.0" ry="5.0" stroke-width="0" transform=" rotate(0, 131, 23)"/>
    <ellipse cx="143.0" cy="23.0" fill="#4682b4" opacity="1" rx="5.0" ry="5.0" stroke-width="0" transform=" rotate(0, 143, 23)"/>
    <ellipse cx="155.0" cy="23.0" fill="#4682b4" opacity="1" rx="5.0" ry="5.0" stroke-width="0" transform=" rotate(0, 155, 23)"/>
    <ellipse cx="167.0" cy="23.0" fill="#4682b4" opacity="1" rx="5.0" ry="5.0" stroke-width="0" transform=" rotate(0, 167, 23)"/>
    <ellipse cx="179.0" cy="23.0" fill="#4682b4" opacity="1" rx="5.0" ry="5.0" stroke-width="0" transform=" rotate(0, 179, 23)"/>
    <ellipse cx="191.0" cy="23.0" fill="#4682b4" opacity="1" rx="5.0" ry="5.0" stroke-width="0" transform=" rotate(0, 191, 23)"/>
    <ellipse cx="203.0" cy="23.0" fill="#4682b4" opacity="1" rx="5.0" ry="5.0" stroke-width="0" transform=" rotate(0, 203, 23)"/>
    <ellipse cx="215.0" cy="23.0" fill="#4682b4" opacity="1" rx="5.0" ry="5.0" stroke-width="0" transform=" rotate(0, 215, 23)"/>
    <ellipse cx="227.0" cy="23.0" fill="#4682b4" opacity="1" rx="5.0" ry="5.0" stroke-width="0" transform=" rotate(0, 227, 23)"/>
    <ellipse cx="23.0" cy="35.0" fill="#4682b4" opacity="1" rx="5.0" ry="5.0" stroke-width="0" transform=" rotate(0, 23, 35)"/>
    <ellipse cx="35.0" cy="35.0" fill="#3dbabd" opacity="1" rx="4.75" ry="4.75" stroke-width="0" transform=" rotate(0, 35, 35)"/>
    <ellipse cx="47.0" cy="35.0" fill="#3dbabd" opacity="1" rx="4.75" ry="4.75" stroke-width="0" transform=" rotate(0, 47, 35)"/>
    <ellipse cx="59.0" cy="35.0" fill="#3dbabd" opacity="1" rx="4.75" ry="4.75" stroke-width="0" transform=" rotate(0, 59, 35)"/>
    <ellipse cx="71.0" cy="35.0" fill="#3dbabd" opacity="1" rx="4.75" ry="4.75" stroke-width="0" transform=" rotate(0, 71, 35)"/>
    <ellipse cx="83.0" cy="35.0" fill="#3dbabd" opacity="1" rx="4.75" ry="4.75" stroke-width="0" transform=" rotate(0, 83, 35)"/>
    <ellipse cx="95.0" cy="35.0" fill="#3dbabd" opacity="1" rx="4.75" ry="4.75" stroke-width="0" transform=" rotate(0, 95, 35)"/>
    <ellipse cx="107.0" cy="35.0" fill="#3dbabd" opacity="1" rx="4.75" ry="4.75" stroke-width="0" transform=" rotate(0, 107, 35)"/>
    <ellipse cx="119.0" cy="35.0" fill="#3dbabd" opacity="1" rx="4.75" ry="4.75" stroke-width="0" transform=" rotate(0, 119, 35)"/>
    <ellipse cx="131.0" cy="35.0" fill="#3dbabd" opacity="1" rx="4.75" ry="4.75" stroke-width="0" transform=" rotate(0, 131, 35)"/>
    <ellipse cx="143.0" cy="35.0" fill="#3dbabd" opacity="1" rx="4.75" ry="4.75" stroke-width="0" transform=" rotate(0, 143, 35)"/>
    <ellipse cx="155.0" cy="35.0" fill="#3dbabd" opacity="1" rx="4.75" ry="4.75" stroke-width="0" transform=" rotate(0, 155, 35)"/>
    <ellipse cx="167.0" cy="35.0" fill="#3dbabd" opacity="1" rx="4.75" ry="4.75" stroke-width="0" transform=" rotate(0, 167, 35)"/>
    <ellipse cx="179.0" cy="35.0" fill="#3dbabd" opacity="1" rx="4.75" ry="4.75" stroke-width="0" transform=" rotate(0, 179, 35)"/>
    <ellipse cx="191.0" cy="35.0" fill="#3dbabd" opacity="1" rx="4.75" ry="4.75" stroke-width="0" transform=" rotate(0, 191, 35)"/>
    <ellipse cx="203.0" cy="35.0" fill="#3dbabd" opacity="1" rx="4.75" ry="4.75" stroke-width="0" transform=" rotate(0, 203, 35)"/>
    <ellipse cx="215.0" cy="35.0" fill="#3dbabd" opacity="1" rx="4.75" ry="4.75" stroke-width="0" transform=" rotate(0, 215, 35)"/>
    <ellipse cx="227.0" cy="35.0" fill="#4682b4" opacity="1" rx="5.0" ry="5.0" stroke-width="0" transform=" rotate(0, 227, 35)"/>
    <ellipse cx="23.0" cy="47.0" fill="#4682b4" opacity="1" rx="5.0" ry="5.0" stroke-width="0" transform=" rotate(0, 23, 47)"/>
    <ellipse cx="35.0" cy="47.0" fill="#3dbabd" opacity="1" rx="4.75" ry="4.75" stroke-width="0" transform=" rotate(0, 35, 47)"/>
    <ellipse cx="47.0" cy="47.0" fill="#35c68b" opacity="1" rx="4.5" ry="4.5" stroke-width="0" transform=" rotate(0, 47, 47)"/>
    <ellipse cx="59.0" cy="47.0" fill="#35c68b" opacity="1" rx="4.5" ry="4.5" stroke-width="0" transform=" rotate(0, 59, 47)"/>
    <ellipse cx="71.0" cy="47.0" fill="#35c68b" opacity="1" rx="4.5" ry="4.5" stroke-width="0" transform=" rotate(0, 71, 47)"/>
    <ellipse cx="83.0" cy="47.0" fill="#35c68b" opacity="1" rx="4.5" ry="4.5" stroke-width="0" transform=" rotate(0, 83, 47)"/>
    <ellipse cx="95.0" cy="47.0" fill="#35c68b" opacity="1" rx="4.5" ry="4.5" stroke-width="0" transform=" rotate(0, 95, 47)"/>
    <ellipse cx="107.0" cy="47.0" fill="#35c68b" opacity="1" rx="4.5" ry="4.5" stroke-width="0" transform=" rotate(0, 107, 47)"/>
    <ellipse cx="119.0" cy="47.0" fill="#35c68b" opacity="1" rx="4.5" ry="4.5" stroke-width="0" transform=" rotate(0, 119, 47)"/>
    <ellipse cx="131.0" cy="47.0" fill="#35c68b" opacity="1" rx="4.5" ry="4.5" stroke-width="0" transform=" rotate(0, 131, 47)"/>
    <ellipse cx="143.0" cy="47.0" fill="#35c68b" opacity="1" rx="4.5" ry="4.5" stroke-width="0" transform=" rotate(0, 143, 47)"/>
    <ellipse cx="155.0" cy="47.0" fill="#35c68b" opacity="1" rx="4.5" ry="4.5" stroke-width="0" transform=" rotate(0, 155, 47)"/>
    <ellipse cx="167.0" cy="47.0" fill="#35c68b" opacity="1" rx="4.5" ry="4.5" stroke-width="0" transform=" rotate(0, 167, 47)"/>
    <ellipse cx="179.0" cy="47.0" fill="#35c68b" opacity="1" rx="4.5" ry="4.5" stroke-width="0" transform=" rotate(0, 179, 47)"/>
    <ellipse cx="191.0" cy="47.0" fill="#35c68b" opacity="1" rx="4.5" ry="4.5" stroke-width="0" transform=" rotate(0, 191, 47)"/>
    <ellipse cx="203.0" cy="47.0" fill="#35c68b" opacity="1" rx="4.5" ry="4.5" stroke-width="0" transform=" rotate(0, 203, 47)"/>
    <ellipse cx="215.0" cy="47.0" fill="#3dbabd" opacity="1" rx="4.75" ry="4.75" stroke-width="0" transform=" rotate(0, 215, 47)"/>
    <ellipse cx="227.0" cy="47.0" fill="#4682b4" opacity="1" rx="5.0" ry="5.0" stroke-width="0" transform=" rotate(0, 227, 47)"/>
    <ellipse cx="23.0" cy="59.0" fill="#4682b4" opacity="1" rx="5.0" ry="5.0" stroke-width="0" transform=" rotate(0, 23, 59)"/>
    <ellipse cx="35.0" cy="59.0" fill="#3dbabd" opacity="1" rx="4.75" ry="4.75" stroke-width="0" transform=" rotate(0, 35, 59)"/>
    <ellipse cx="47.0" cy="59.0" fill="#35c68b" opacity="1" rx="4.5" ry="4.5" stroke-width="0" transform=" rotate(0, 47, 59)"/>
    <ellipse cx="59.0" cy="59.0" fill="#2cd046" opacity="1" rx="4.25" ry="4.25" stroke-width="0" transform=" rotate(0, 59, 59)"/>
    <ellipse cx="71.0" cy="59.0" fill="#2cd046" opacity="1" rx="4.25" ry="4.25" stroke-width="0" transform=" rotate(0, 71, 59)"/>
    <ellipse cx="83.0" cy="59.0" fill="#2cd046" opacity="1" rx="4.25" ry="4.25" stroke-width="0" transform=" rotate(0, 83, 59)"/>
    <ellipse cx="95.0" cy="59.0" fill="#2cd046" opacity="1" rx="4.25" ry="4.25" stroke-width="0" transform=" rotate(0, 95, 59)"/>
    <ellipse cx="107.0" cy="59.0" fill="#2cd046" opacity="1" rx="4.25" ry="4.25" stroke-width="0" transform=" rotate(0, 107, 59)"/>
    <ellipse cx="119.0" cy="59.0" fill="#2cd046" opacity="1" rx="4.25" ry="4.25" stroke-width="0" transform=" rotate(0, 119, 59)"/>
    <ellipse cx="131.0" cy="59.0" fill="#2cd046" opacity="1" rx="4.25" ry="4.25" stroke-width="0" transform=" rotate(0, 131, 59)"/>
    <ellipse cx="143.0" cy="59.0" fill="#2cd046" opacity="1" rx="4.25" ry="4.25" stroke-width="0" transform=" rotate(0, 143, 59)"/>
    <ellipse cx="155.0" cy="59.0" fill="#2cd046" opacity="1" rx="4.25" ry="4.25" stroke-width="0" transform=" rotate(0, 155, 59)"/>
    <ellipse cx="167.0" cy="59.0" fill="#2cd046" opacity="1" rx="4.25" ry="4.25" stroke-width="0" transform=" rotate(0, 167, 59)"/>
    <ellipse cx="179.0" cy="59.0" fill="#2cd046" opacity="1" rx="4.25" ry="4.25" stroke-width="0" transform=" rotate(0, 179, 59)"/>
    <ellipse cx="191.0" cy="59.0" fill="#2cd046" opacity="1" rx="4.25" ry="4.25" stroke-width="0" transform=" rotate(0, 191, 59)"/>
    <ellipse cx="203.0" cy="59.0" fill="#35c68b" opacity="1" rx="4.5" ry="4.5" stroke-width="0" transform=" rotate(0, 203, 59)"/>
    <ellipse cx="215.0" cy="59.0" fill="#3dbabd" opacity="1" rx="4.75" ry="4.75" stroke-width="0" transform=" rotate(0, 215, 59)"/>
    <ellipse cx="227.0" cy="59.0" fill="#4682b4" opacity="1" rx="5.0" ry="5.0" stroke-width="0" transform=" rotate(0, 227, 59)"/>
    <ellipse cx="23.0" cy="71.0" fill="#4682b4" opacity="1" rx="5.0" ry="5.0" stroke-width="0" transform=" rotate(0, 23, 71)"/>
    <ellipse cx="35.0" cy="71.0" fill="#3dbabd" opacity="1" rx="4.75" ry="4.75" stroke-width="0" transform=" rotate(0, 35, 71)"/>
    <ellipse cx="47.0" cy="71.0" fill="#35c68b" opacity="1" rx="4.5" ry="4.5" stroke-width="0" transform=" rotate(0, 47, 71)"/>
    <ellipse cx="59.0" cy="71.0" fill="#2cd046" opacity="1" rx="4.25" ry="4.25" stroke-width="0" transform=" rotate(0, 59, 71)"/>
    <ellipse cx="71.0" cy="71.0" fill="#55d923" opacity="1" rx="4.0" ry="4.0" stroke-width="0" transform=" rotate(0, 71, 71)"/>
    <ellipse cx="83.0" cy="71.0" fill="#55d923" opacity="1" rx="4.0" ry="4.0" stroke-width="0" transform=" rotate(0, 83, 71)"/>
    <ellipse cx="95.0" cy="71.0" fill="#55d923" opacity="1" rx="4.0" ry="4.0" stroke-width="0" transform=" rotate(0, 95, 71)"/>
    <ellipse cx="107.0" cy="71.0" fill="#55d923" opacity="1" rx="4.0" ry="4.0" stroke-width="0" transform=" rotate(0, 107, 71)"/>
    <ellipse cx="119.0" cy="71.0" fill="#55d923" opacity="1" rx="4.0" ry="4.0" stroke-width="0" transform=" rotate(0, 119, 71)"/>
    <ellipse cx="131.0" cy="71.0" fill="#55d923" opacity="1" rx="4.0" ry="4.0" stroke-width="0" transform=" rotate(0, 131, 71)"/>
    <ellipse cx="143.0" cy="71.0" fill="#55d923" opacity="1" rx="4.0" ry="4.0" stroke-width="0" transform=" rotate(0, 143, 71)"/>
    <ellipse cx="155.0" cy="71.0" fill="#55d923" opacity="1" rx="4.0" ry="4.0" stroke-width="0" transform=" rotate(0, 155, 71)"/>
    <ellipse cx="167.0" cy="71.0" fill="#55d923" opacity="1" rx="4.0" ry="4.0" stroke-width="0" transform=" rotate(0, 167, 71)"/>
    <ellipse cx="179.0" cy="71.0" fill="#55d923" opacity="1" rx="4.0" ry="4.0" stroke-width="0" transform=" rotate(0, 179, 71)"/>
    <ellipse cx="191.0" cy="71.0" fill="#2cd046" opacity="1" rx="4.25" ry="4.25" stroke-width="0" transform=" rotate(0, 191, 71)"/>
    <ellipse cx="203.0" cy="71.0" fill="#35c68b" opacity="1" rx="4.5" ry="4.5" stroke-width="0" transform=" rotate(0, 203, 71)"/>
    <ellipse cx="215.0" cy="71.0" fill="#3dbabd" opacity="1" rx="4.75" ry="4.75" stroke-width="0" transform=" rotate(0, 215, 71)"/>
    <ellipse cx="227.0" cy="71.0" fill="#4682b4" opacity="1" rx="5.0" ry="5.0" stroke-width="0" transform=" rotate(0, 227, 71)"/>
    <ellipse cx="23.0" cy="83.0" fill="#4682b4" opacity="1" rx="5.0" ry="5.0" stroke-width="0" transform=" rotate(0, 23, 83)"/>
    <ellipse cx="35.0" cy="83.0" fill="#3dbabd" opacity="1" rx="4.75" ry="4.75" stroke-width="0" transform=" rotate(0, 35, 83)"/>
    <ellipse cx="47.0" cy="83.0" fill="#35c68b" opacity="1" rx="4.5" ry="4.5" stroke-width="0" transform=" rotate(0, 47, 83)"/>
    <ellipse cx="59.0" cy="83.0" fill="#2cd046" opacity="1" rx="4.25" ry="4.25" stroke-width="0" transform=" rotate(0, 59, 83)"/>
    <ellipse cx="71.0" cy="83.0" fill="#55d923" opacity="1" rx="4.0" ry="4.0" stroke-width="0" transform=" rotate(0, 71, 83)"/>
    <ellipse cx="83.0" cy="83.0" fill="#a7e31b" opacity="1" rx="3.75" ry="3.75" stroke-width="0" transform=" rotate(0, 83, 83)"/>
    <ellipse cx="95.0" cy="83.0" fill="#a7e31b" opacity="1" rx="3.75" ry="3.75" stroke-width="0" transform=" rotate(0, 95, 83)"/>
    <ellipse cx="107.0" cy="83.0" fill="#a7e31b" opacity="1" rx="3.75" ry="3.75" stroke-width="0" transform=" rotate(0, 107, 83)"/>
    <ellipse cx="119.0" cy="83.0" fill="#a7e31b" opacity="1" rx="3.75" ry="3.75" stroke-width="0" transform=" rotate(0, 119, 83)"/>
    <ellipse cx="131.0" cy="83.0" fill="#a7e31b" opacity="1" rx="3.75" ry="3.75" stroke-width="0" transform=" rotate(0, 131, 83)"/>
    <ellipse cx="143.0" cy="83.0" fill="#a7e31b" opacity="1" rx="3.75" ry="3.75" stroke-width="0" transform=" rotate(0, 143, 83)"/>
    <ellipse cx="155.0" cy="83.0" fill="#a7e31b" opacity="1" rx="3.75" ry="3.75" stroke-width="0" transform=" rotate(0, 155, 83)"/>
    <ellipse cx="167.0" cy="83.0" fill="#a7e31b" opacity="1" rx="3.75" ry="3.75" stroke-width="0" transform=" rotate(0, 167, 83)"/>
    <ellipse cx="179.0" cy="83.0" fill="#55d923" opacity="1" rx="4.0" ry="4.0" stroke-width="0" transform=" rotate(0, 179, 83)"/>
    <ellipse cx="191.0" cy="83.0" fill="#2cd046" opacity="1" rx="4.25" ry="4.25" stroke-width="0" transform=" rotate(0, 191, 83)"/>
    <ellipse cx="203.0" cy="83.0" fill="#35c68b" opacity="1" rx="4.5" ry="4.5" stroke-width="0" transform=" rotate(0, 203, 83)"/>
    <ellipse cx="215.0" cy="83.0" fill="#3dbabd" opacity="1" rx="4.75" ry="4.75" stroke-width="0" transform=" rotate(0, 215, 83)"/>
    <ellipse cx="227.0" cy="83.0" fill="#4682b4" opacity="1" rx="5.0" ry="5.0" stroke-width="0" transform=" rotate(0, 227, 83)"/>
    <ellipse cx="23.0" cy="95.0" fill="#4682b4" opacity="1" rx="5.0" ry="5.0" stroke-width="0" transform=" rotate(0, 23, 95)"/>
    <ellipse cx="35.0" cy="95.0" fill="#3dbabd" opacity="1" rx="4.75" ry="4.75" stroke-width="0" transform=" rotate(0, 35, 95)"/>
    <ellipse cx="47.0" cy="95.0" fill="#35c68b" opacity="1" rx="4.5" ry="4.5" stroke-width="0" transform=" rotate(0, 47, 95)"/>
    <ellipse cx="59.0" cy="95.0" fill="#2cd046" opacity="1" rx="4.25" ry="4.25" stroke-width="0" transform=" rotate(0, 59, 95)"/>
    <ellipse cx="71.0" cy="95.0" fill="#55d923" opacity="1" rx="4.0" ry="4.0" stroke-width="0" transform=" rotate(0, 71, 95)"/>
    <ellipse cx="83.0" cy="95.0" fill="#a7e31b" opacity="1" rx="3.75" ry="3.75" stroke-width="0" transform=" rotate(0, 83, 95)"/>
    <ellipse cx="95.0" cy="95.0" fill="#ecce12" opacity="1" rx="3.5" ry="3.5" stroke-width="0" transform=" rotate(0, 95, 95)"/>
    <ellipse cx="107.0" cy="95.0" fill="#ecce12" opacity="1" rx="3.5" ry="3.5" stroke-width="0" transform=" rotate(0, 107, 95)"/>
    <ellipse cx="119.0" cy="95.0" fill="#ecce12" opacity="1" rx="3.5" ry="3.5" stroke-width="0" transform=" rotate(0, 119, 95)"/>
    <ellipse cx="131.0" cy="95.0" fill="#ecce12" opacity="1" rx="3.5" ry="3.5" stroke-width="0" transform=" rotate(0, 131, 95)"/>
    <ellipse cx="143.0" cy="95.0" fill="#ecce12" opacity="1" rx="3.5" ry="3.5" stroke-width="0" transform=" rotate(0, 143, 95)"/>
    <ellipse cx="155.0" cy="95.0" fill="#ecce12" opacity="1" rx="3.5" ry="3.5" stroke-width="0" transform=" rotate(0, 155, 95)"/>
    <ellipse cx="167.0" cy="95.0" fill="#a7e31b" opacity="1" rx="3.75" ry="3.75" stroke-width="0" transform=" rotate(0, 167, 95)"/>
    <ellipse cx="179.0" cy="95.0" fill="#55d923" opacity="1" rx="4.0" ry="4.0" stroke-width="0" transform=" rotate(0, 179, 95)"/>
    <ellipse cx="191.0" cy="95.0" fill="#2cd046" opacity="1" rx="4.25" ry="4.25" stroke-width="0" transform=" rotate(0, 191, 95)"/>
    <ellipse cx="203.0" cy="95.0" fill="#35c68b" opacity="1" rx="4.5" ry="4.5" stroke-width="0" transform=" rotate(0, 203, 95)"/>
    <ellipse cx="215.0" cy="95.0" fill="#3dbabd" opacity="1" rx="4.75" ry="4.75" stroke-width="0" transform=" rotate(0, 215, 95)"/>
    <ellipse cx="227.0" cy="95.0" fill="#4682b4" opacity="1" rx="5.0" ry="5.0" stroke-width="0" transform=" rotate(0, 227, 95)"/>
    <ellipse cx="23.0" cy="107.0" fill="#4682b4" opacity="1" rx="5.0" ry="5.0" stroke-width="0" transform=" rotate(0, 23, 107)"/>
    <ellipse cx="35.0" cy="107.0" fill="#3dbabd" opacity="1" rx="4.75" ry="4.75" stroke-width="0" transform=" rotate(0, 35, 107)"/>
    <ellipse cx="47.0" cy="107.0" fill="#35c68b" opacity="1" rx="4.5" ry="4.5" stroke-width="0" transform=" rotate(0, 47, 107)"/>
    <ellipse cx="59.0" cy="107.0" fill="#2cd046" opacity="1" rx="4.25" ry="4.25" stroke-width="0" transform=" rotate(0, 59, 107)"/>
    <ellipse cx="71.0" cy="107.0" fill="#55d923" opacity="1" rx="4.0" ry="4.0" stroke-width="0" transform=" rotate(0, 71, 107)"/>
    <ellipse cx="83.0" cy="107.0" fill="#a7e31b" opacity="1" rx="3.75" ry="3.75" stroke-width="0" transform=" rotate(0, 83, 107)"/>
    <ellipse cx="95.0" cy="107.0" fill="#ecce12" opacity="1" rx="3.5" ry="3.5" stroke-width="0" transform=" rotate(0, 95, 107)"/>
    <ellipse cx="107.0" cy="107.0" fill="#f56f09" opacity="1" rx="3.25" ry="3.25" stroke-width="0" transform=" rotate(0, 107, 107)"/>
    <ellipse cx="119.0" cy="107.0" fill="#f56f09" opacity="1" rx="3.25" ry="3.25" stroke-width="0" transform=" rotate(0, 119, 107)"/>
    <ellipse cx="131.0" cy="107.0" fill="#f56f09" opacity="1" rx="3.25" ry="3.25" stroke-width="0" transform=" rotate(0, 131, 107)"/>
    <ellipse cx="143.0" cy="107.0" fill="#f56f09" opacity="1" rx="3.25" ry="3.25" stroke-width="0" transform=" rotate(0, 143, 107)"/>
    <ellipse cx="155.0" cy="107.0" fill="#ecce12" opacity="1" rx="3.5" ry="3.5" stroke-width="0" transform=" rotate(0, 155, 107)"/>
    <ellipse cx="167.0" cy="107.0" fill="#a7e31b" opacity="1" rx="3.75" ry="3.75" stroke-width="0" transform=" rotate(0, 167, 107)"/>
    <ellipse cx="179.0" cy="107.0" fill="#55d923" opacity="1" rx="4.0" ry="4.0" stroke-width="0" transform=" rotate(0, 179, 107)"/>
    <ellipse cx="191.0" cy="107.0" fill="#2cd046" opacity="1" rx="4.25" ry="4.25" stroke-width="0" transform=" rotate(0, 191, 107)"/>
    <ellipse cx="203.0" cy="107.0" fill="#35c68b" opacity="1" rx="4.5" ry="4.5" stroke-width="0" transform=" rotate(0, 203, 107)"/>
    <ellipse cx="215.0" cy="107.0" fill="#3dbabd" opacity="1" rx="4.75" ry="4.75" stroke-width="0" transform=" rotate(0, 215, 107)"/>
    <ellipse cx="227.0" cy="107.0" fill="#4682b4" opacity="1" rx="5.0" ry="5.0" stroke-width="0" transform=" rotate(0, 227, 107)"/>
    <ellipse cx="23.0" cy="119.0" fill="#4682b4" opacity="1" rx="5.0" ry="5.0" stroke-width="0" transform=" rotate(0, 23, 119)"/>
    <ellipse cx="35.0" cy="119.0" fill="#3dbabd" opacity="1" rx="4.75" ry="4.75" stroke-width="0" transform=" rotate(0, 35, 119)"/>
    <ellipse cx="47.0" cy="119.0" fill="#35c68b" opacity="1" rx="4.5" ry="4.5" stroke-width="0" transform=" rotate(0, 47, 119)"/>
    <ellipse cx="59.0" cy="119.0" fill="#2cd046" opacity="1" rx="4.25" ry="4.25" stroke-width="0" transform=" rotate(0, 59, 119)"/>
    <ellipse cx="71.0" cy="119.0" fill="#55d923" opacity="1" rx="4.0" ry="4.0" stroke-width="0" transform=" rotate(0, 71, 119)"/>
    <ellipse cx="83.0" cy="119.0" fill="#a7e31b" opacity="1" rx="3.75" ry="3.75" stroke-width="0" transform=" rotate(0, 83, 119)"/>
    <ellipse cx="95.0" cy="119.0" fill="#ecce12" opacity="1" rx="3.5" ry="3.5" stroke-width="0" transform=" rotate(0, 95, 119)"/>
    <ellipse cx="107.0" cy="119.0" fill="#f56f09" opacity="1" rx="3.25" ry="3.25" stroke-width="0" transform=" rotate(0, 107, 119)"/>
    <ellipse cx="119.0" cy="119.0" fill="#f00" opacity="1" rx="3.0" ry="3.0" stroke-width="0" transform=" rotate(0, 119, 119)"/>
    <ellipse cx="131.0" cy="119.0" fill="#f00" opacity="1" rx="3.0" ry="3.0" stroke-width="0" transform=" rotate(0, 131, 119)"/>
    <ellipse cx="143.0" cy="119.0" fill="#f56f09" opacity="1" rx="3.25" ry="3.25" stroke-width="0" transform=" rotate(0, 143, 119)"/>
    <ellipse cx="155.0" cy="119.0" fill="#ecce12" opacity="1" rx="3.5" ry="3.5" stroke-width="0" transform=" rotate(0, 155, 119)"/>
    <ellipse cx="167.0" cy="119.0" fill="#a7e31b" opacity="1" rx="3.75" ry="3.75" stroke-width="0" transform=" rotate(0, 167, 119)"/>
    <ellipse cx="179.0" cy="119.0" fill="#55d923" opacity="1" rx="4.0" ry="4.0" stroke-width="0" transform=" rotate(0, 179, 119)"/>
    <ellipse cx="191.0" cy="119.0" fill="#2cd046" opacity="1" rx="4.25" ry="4.25" stroke-width="0" transform=" rotate(0, 191, 119)"/>
    <ellipse cx="203.0" cy="119.0" fill="#35c68b" opacity="1" rx="4.5" ry="4.5" stroke-width="0" transform=" rotate(0, 203, 119)"/>
    <ellipse cx="215.0" cy="119.0" fill="#3dbabd" opacity="1" rx="4.75" ry="4.75" stroke-width="0" transform=" rotate(0, 215, 119)"/>
    <ellipse cx="227.0" cy="119.0" fill="#4682b4" opacity="1" rx="5.0" ry="5.0" stroke-width="0" transform=" rotate(0, 227, 119)"/>
    <ellipse cx="23.0" cy="131.0" fill="#4682b4" opacity="1" rx="5.0" ry="5.0" stroke-width="0" transform=" rotate(0, 23, 131)"/>
    <ellipse cx="35.0" cy="131.0" fill="#3dbabd" opacity="1" rx="4.75" ry="4.75" stroke-width="0" transform=" rotate(0, 35, 131)"/>
    <ellipse cx="47.0" cy="131.0" fill="#35c68b" opacity="1" rx="4.5" ry="4.5" stroke-width="0" transform=" rotate(0, 47, 131)"/>
    <ellipse cx="59.0" cy="131.0" fill="#2cd046" opacity="1" rx="4.25" ry="4.25" stroke-width="0" transform=" rotate(0, 59, 131)"/>
    <ellipse cx="71.0" cy="131.0" fill="#55d923" opacity="1" rx="4.0" ry="4.0" stroke-width="0" transform=" rotate(0, 71, 131)"/>
    <ellipse cx="83.0" cy="131.0" fill="#a7e31b" opacity="1" rx="3.75" ry="3.75" stroke-width="0" transform=" rotate(0, 83, 131)"/>
    <ellipse cx="95.0" cy="131.0" fill="#ecce12" opacity="1" rx="3.5" ry="3.5" stroke-width="0" transform=" rotate(0, 95, 131)"/>
    <ellipse cx="107.0" cy="131.0" fill="#f56f09" opacity="1" rx="3.25" ry="3.25" stroke-width="0" transform=" rotate(0, 107, 131)"/>
    <ellipse cx="119.0" cy="131.0" fill="#f00" opacity="1" rx="3.0" ry="3.0" stroke-width="0" transform=" rotate(0, 119, 131)"/>
    <ellipse cx="131.0" cy="131.0" fill="#f00" opacity="1" rx="3.0" ry="3.0" stroke-width="0" transform=" rotate(0, 131, 131)"/>
    <ellipse cx="143.0" cy="131.0" fill="#f56f09" opacity="1" rx="3.25" ry="3.25" stroke-width="0" transform=" rotate(0, 143, 131)"/>
    <ellipse cx="155.0" cy="131.0" fill="#ecce12" opacity="1" rx="3.5" ry="3.5" stroke-width="0" transform=" rotate(0, 155, 131)"/>
    <ellipse cx="167.0" cy="131.0" fill="#a7e31b" opacity="1" rx="3.75" ry="3.75" stroke-width="0" transform=" rotate(0, 167, 131)"/>
    <ellipse cx="179.0" cy="131.0" fill="#55d923" opacity="1" rx="4.0" ry="4.0" stroke-width="0" transform=" rotate(0, 179, 131)"/>
    <ellipse cx="191.0" cy="131.0" fill="#2cd046" opacity="1" rx="4.25" ry="4.25" stroke-width="0" transform=" rotate(0, 191, 131)"/>
    <ellipse cx="203.0" cy="131.0" fill="#35c68b" opacity="1" rx="4.5" ry="4.5" stroke-width="0" transform=" rotate(0, 203, 131)"/>
    <ellipse cx="215.0" cy="131.0" fill="#3dbabd" opacity="1" rx="4.75" ry="4.75" stroke-width="0" transform=" rotate(0, 215, 131)"/>
    <ellipse cx="227.0" cy="131.0" fill="#4682b4" opacity="1" rx="5.0" ry="5.0" stroke-width="0" transform=" rotate(0, 227, 131)"/>
    <ellipse cx="23.0" cy="143.0" fill="#4682b4" opacity="1" rx="5.0" ry="5.0" stroke-width="0" transform=" rotate(0, 23, 143)"/>
    <ellipse cx="35.0" cy="143.0" fill="#3dbabd" opacity="1" rx="4.75" ry="4.75" stroke-width="0" transform=" rotate(0, 35, 143)"/>
    <ellipse cx="47.0" cy="143.0" fill="#35c68b" opacity="1" rx="4.5" ry="4.5" stroke-width="0" transform=" rotate(0, 47, 143)"/>
    <ellipse cx="59.0" cy="143.0" fill="#2cd046" opacity="1" rx="4.25" ry="4.25" stroke-width="0" transform=" rotate(0, 59, 143)"/>
    <ellipse cx="71.0" cy="143.0" fill="#55d923" opacity="1" rx="4.0" ry="4.0" stroke-width="0" transform=" rotate(0, 71, 143)"/>
    <ellipse cx="83.0" cy="143.0" fill="#a7e31b" opacity="1" rx="3.75" ry="3.75" stroke-width="0" transform=" rotate(0, 83, 143)"/>
    <ellipse cx="95.0" cy="143.0" fill="#ecce12" opacity="1" rx="3.5" ry="3.5" stroke-width="0" transform=" rotate(0, 95, 143)"/>
    <ellipse cx="107.0" cy="143.0" fill="#f56f09" opacity="1" rx="3.25" ry="3.25" stroke-width="0" transform=" rotate(0, 107, 143)"/>
    <ellipse cx="119.0" cy="143.0" fill="#f56f09" opacity="1" rx="3.25" ry="3.25" stroke-width="0" transform=" rotate(0, 119, 143)"/>
    <ellipse cx="131.0" cy="143.0" fill="#f56f09" opacity="1" rx="3.25" ry="3.25" stroke-width="0" transform=" rotate(0, 131, 143)"/>
    <ellipse cx="143.0" cy="143.0" fill="#f56f09" opacity="1" rx="3.25" ry="3.25" stroke-width="0" transform=" rotate(0, 143, 143)"/>
    <ellipse cx="155.0" cy="143.0" fill="#ecce12" opacity="1" rx="3.5" ry="3.5" stroke-width="0" transform=" rotate(0, 155, 143)"/>
    <ellipse cx="167.0" cy="143.0" fill="#a7e31b" opacity="1" rx="3.75" ry="3.75" stroke-width="0" transform=" rotate(0, 167, 143)"/>
    <ellipse cx="179.0" cy="143.0" fill="#55d923" opacity="1" rx="4.0" ry="4.0" stroke-width="0" transform=" rotate(0, 179, 143)"/>
    <ellipse cx="191.0" cy="143.0" fill="#2cd046" opacity="1" rx="4.25" ry="4.25" stroke-width="0" transform=" rotate(0, 191, 143)"/>
    <ellipse cx="203.0" cy="143.0" fill="#35c68b" opacity="1" rx="4.5" ry="4.5" stroke-width="0" transform=" rotate(0, 203, 143)"/>
    <ellipse cx="215.0" cy="143.0" fill="#3dbabd" opacity="1" rx="4.75" ry="4.75" stroke-width="0" transform=" rotate(0, 215, 143)"/>
    <ellipse cx="227.0" cy="143.0" fill="#4682b4" opacity="1" rx="5.0" ry="5.0" stroke-width="0" transform=" rotate(0, 227, 143)"/>
    <ellipse cx="23.0" cy="155.0" fill="#4682b4" opacity="1" rx="5.0" ry="5.0" stroke-width="0" transform=" rotate(0, 23, 155)"/>
    <ellipse cx="35.0" cy="155.0" fill="#3dbabd" opacity="1" rx="4.75" ry="4.75" stroke-width="0" transform=" rotate(0, 35, 155)"/>
    <ellipse cx="47.0" cy="155.0" fill="#35c68b" opacity="1" rx="4.5" ry="4.5" stroke-width="0" transform=" rotate(0, 47, 155)"/>
    <ellipse cx="59.0" cy="155.0" fill="#2cd046" opacity="1" rx="4.25" ry="4.25" stroke-width="0" transform=" rotate(0, 59, 155)"/>
    <ellipse cx="71.0" cy="155.0" fill="#55d923" opacity="1" rx="4.0" ry="4.0" stroke-width="0" transform=" rotate(0, 71, 155)"/>
    <ellipse cx="83.0" cy="155.0" fill="#a7e31b" opacity="1" rx="3.75" ry="3.75" stroke-width="0" transform=" rotate(0, 83, 155)"/>
    <ellipse cx="95.0" cy="155.0" fill="#ecce12" opacity="1" rx="3.5" ry="3.5" stroke-width="0" transform=" rotate(0, 95, 155)"/>
    <ellipse cx="107.0" cy="155.0" fill="#ecce12" opacity="1" rx="3.5" ry="3.5" stroke-width="0" transform=" rotate(0, 107, 155)"/>
    <ellipse cx="119.0" cy="155.0" fill="#ecce12" opacity="1" rx="3.5" ry="3.5" stroke-width="0" transform=" rotate(0, 119, 155)"/>
    <ellipse cx="131.0" cy="155.0" fill="#ecce12" opacity="1" rx="3.5" ry="3.5" stroke-width="0" transform=" rotate(0, 131, 155)"/>
    <ellipse cx="143.0" cy="155.0" fill="#ecce12" opacity="1" rx="3.5" ry="3.5" stroke-width="0" transform=" rotate(0, 143, 155)"/>
    <ellipse cx="155.0" cy="155.0" fill="#ecce12" opacity="1" rx="3.5" ry="3.5" stroke-width="0" transform=" rotate(0, 155, 155)"/>
    <ellipse cx="167.0" cy="155.0" fill="#a7e31b" opacity="1" rx="3.75" ry="3.75" stroke-width="0" transform=" rotate(0, 167, 155)"/>
    <ellipse cx="179.0" cy="155.0" fill="#55d923" opacity="1" rx="4.0" ry="4.0" stroke-width="0" transform=" rotate(0, 179, 155)"/>
    <ellipse cx="191.0" cy="155.0" fill="#2cd046" opacity="1" rx="4.25" ry="4.25" stroke-width="0" transform=" rotate(0, 191, 155)"/>
    <ellipse cx="203.0" cy="155.0" fill="#35c68b" opacity="1" rx="4.5" ry="4.5" stroke-width="0" transform=" rotate(0, 203, 155)"/>
    <ellipse cx="215.0" cy="155.0" fill="#3dbabd" opacity="1" rx="4.75" ry="4.75" stroke-width="0" transform=" rotate(0, 215, 155)"/>
    <ellipse cx="227.0" cy="155.0" fill="#4682b4" opacity="1" rx="5.0" ry="5.0" stroke-width="0" transform=" rotate(0, 227, 155)"/>
    <ellipse cx="23.0" cy="167.0" fill="#4682b4" opacity="1" rx="5.0" ry="5.0" stroke-width="0" transform=" rotate(0, 23, 167)"/>
    <ellipse cx="35.0" cy="167.0" fill="#3dbabd" opacity="1" rx="4.75" ry="4.75" stroke-width="0" transform=" rotate(0, 35, 167)"/>
    <ellipse cx="47.0" cy="167.0" fill="#35c68b" opacity="1" rx="4.5" ry="4.5" stroke-width="0" transform=" rotate(0, 47, 167)"/>
    <ellipse cx="59.0" cy="167.0" fill="#2cd046" opacity="1" rx="4.25" ry="4.25" stroke-width="0" transform=" rotate(0, 59, 167)"/>
    <ellipse cx="71.0" cy="167.0" fill="#55d923" opacity="1" rx="4.0" ry="4.0" stroke-width="0" transform=" rotate(0, 71, 167)"/>
    <ellipse cx="83.0" cy="167.0" fill="#a7e31b" opacity="1" rx="3.75" ry="3.75" stroke-width="0" transform=" rotate(0, 83, 167)"/>
    <ellipse cx="95.0" cy="167.0" fill="#a7e31b" opacity="1" rx="3.75" ry="3.75" stroke-width="0" transform=" rotate(0, 95, 167)"/>
    <ellipse cx="107.0" cy="167.0" fill="#a7e31b" opacity="1" rx="3.75" ry="3.75" stroke-width="0" transform=" rotate(0, 107, 167)"/>
    <ellipse cx="119.0" cy="167.0" fill="#a7e31b" opacity="1" rx="3.75" ry="3.75" stroke-width="0" transform=" rotate(0, 119, 167)"/>
    <ellipse cx="131.0" cy="167.0" fill="#a7e31b" opacity="1" rx="3.75" ry="3.75" stroke-width="0" transform=" rotate(0, 131, 167)"/>
    <ellipse cx="143.0" cy="167.0" fill="#a7e31b" opacity="1" rx="3.75" ry="3.75" stroke-width="0" transform=" rotate(0, 143, 167)"/>
    <ellipse cx="155.0" cy="167.0" fill="#a7e31b" opacity="1" rx="3.75" ry="3.75" stroke-width="0" transform=" rotate(0, 155, 167)"/>
    <ellipse cx="167.0" cy="167.0" fill="#a7e31b" opacity="1" rx="3.75" ry="3.75" stroke-width="0" transform=" rotate(0, 167, 167)"/>
    <ellipse cx="179.0" cy="167.0" fill="#55d923" opacity="1" rx="4.0" ry="4.0" stroke-width="0" transform=" rotate(0, 179, 167)"/>
    <ellipse cx="191.0" cy="167.0" fill="#2cd046" opacity="1" rx="4.25" ry="4.25" stroke-width="0" transform=" rotate(0, 191, 167)"/>
    <ellipse cx="203.0" cy="167.0" fill="#35c68b" opacity="1" rx="4.5" ry="4.5" stroke-width="0" transform=" rotate(0, 203, 167)"/>
    <ellipse cx="215.0" cy="167.0" fill="#3dbabd" opacity="1" rx="4.75" ry="4.75" stroke-width="0" transform=" rotate(0, 215, 167)"/>
    <ellipse cx="227.0" cy="167.0" fill="#4682b4" opacity="1" rx="5.0" ry="5.0" stroke-width="0" transform=" rotate(0, 227, 167)"/>
    <ellipse cx="23.0" cy="179.0" fill="#4682b4" opacity="1" rx="5.0" ry="5.0" stroke-width="0" transform=" rotate(0, 23, 179)"/>
    <ellipse cx="35.0" cy="179.0" fill="#3dbabd" opacity="1" rx="4.75" ry="4.75" stroke-width="0" transform=" rotate(0, 35, 179)"/>
    <ellipse cx="47.0" cy="179.0" fill="#35c68b" opacity="1" rx="4.5" ry="4.5" stroke-width="0" transform=" rotate(0, 47, 179)"/>
    <ellipse cx="59.0" cy="179.0" fill="#2cd046" opacity="1" rx="4.25" ry="4.25" stroke-width="0" transform=" rotate(0, 59, 179)"/>
    <ellipse cx="71.0" cy="179.0" fill="#55d923" opacity="1" rx="4.0" ry="4.0" stroke-width="0" transform=" rotate(0, 71, 179)"/>
    <ellipse cx="83.0" cy="179.0" fill="#55d923" opacity="1" rx="4.0" ry="4.0" stroke-width="0" transform=" rotate(0, 83, 179)"/>
    <ellipse cx="95.0" cy="179.0" fill="#55d923" opacity="1" rx="4.0" ry="4.0" stroke-width="0" transform=" rotate(0, 95, 179)"/>
    <ellipse cx="107.0" cy="179.0" fill="#55d923" opacity="1" rx="4.0" ry="4.0" stroke-width="0" transform=" rotate(0, 107, 179)"/>
    <ellipse cx="119.0" cy="179.0" fill="#55d923" opacity="1" rx="4.0" ry="4.0" stroke-width="0" transform=" rotate(0, 119, 179)"/>
    <ellipse cx="131.0" cy="179.0" fill="#55d923" opacity="1" rx="4.0" ry="4.0" stroke-width="0" transform=" rotate(0, 131, 179)"/>
    <ellipse cx="143.0" cy="179.0" fill="#55d923" opacity="1" rx="4.0" ry="4.0" stroke-width="0" transform=" rotate(0, 143, 179)"/>
    <ellipse cx="155.0" cy="179.0" fill="#55d923" opacity="1" rx="4.0" ry="4.0" stroke-width="0" transform=" rotate(0, 155, 179)"/>
    <ellipse cx="167.0" cy="179.0" fill="#55d923" opacity="1" rx="4.0" ry="4.0" stroke-width="0" transform=" rotate(0, 167, 179)"/>
    <ellipse cx="179.0" cy="179.0" fill="#55d923" opacity="1" rx="4.0" ry="4.0" stroke-width="0" transform=" rotate(0, 179, 179)"/>
    <ellipse cx="191.0" cy="179.0" fill="#2cd046" opacity="1" rx="4.25" ry="4.25" stroke-width="0" transform=" rotate(0, 191, 179)"/>
    <ellipse cx="203.0" cy="179.0" fill="#35c68b" opacity="1" rx="4.5" ry="4.5" stroke-width="0" transform=" rotate(0, 203, 179)"/>
    <ellipse cx="215.0" cy="179.0" fill="#3dbabd" opacity="1" rx="4.75" ry="4.75" stroke-width="0" transform=" rotate(0, 215, 179)"/>
    <ellipse cx="227.0" cy="179.0" fill="#4682b4" opacity="1" rx="5.0" ry="5.0" stroke-width="0" transform=" rotate(0, 227, 179)"/>
    <ellipse cx="23.0" cy="191.0" fill="#4682b4" opacity="1" rx="5.0" ry="5.0" stroke-width="0" transform=" rotate(0, 23, 191)"/>
    <ellipse cx="35.0" cy="191.0" fill="#3dbabd" opacity="1" rx="4.75" ry="4.75" stroke-width="0" transform=" rotate(0, 35, 191)"/>
    <ellipse cx="47.0" cy="191.0" fill="#35c68b" opacity="1" rx="4.5" ry="4.5" stroke-width="0" transform=" rotate(0, 47, 191)"/>
    <ellipse cx="59.0" cy="191.0" fill="#2cd046" opacity="1" rx="4.25" ry="4.25" stroke-width="0" transform=" rotate(0, 59, 191)"/>
    <ellipse cx="71.0" cy="191.0" fill="#2cd046" opacity="1" rx="4.25" ry="4.25" stroke-width="0" transform=" rotate(0, 71, 191)"/>
    <ellipse cx="83.0" cy="191.0" fill="#2cd046" opacity="1" rx="4.25" ry="4.25" stroke-width="0" transform=" rotate(0, 83, 191)"/>
    <ellipse cx="95.0" cy="191.0" fill="#2cd046" opacity="1" rx="4.25" ry="4.25" stroke-width="0" transform=" rotate(0, 95, 191)"/>
    <ellipse cx="107.0" cy="191.0" fill="#2cd046" opacity="1" rx="4.25" ry="4.25" stroke-width="0" transform=" rotate(0, 107, 191)"/>
    <ellipse cx="119.0" cy="191.0" fill="#2cd046" opacity="1" rx="4.25" ry="4.25" stroke-width="0" transform=" rotate(0, 119, 191)"/>
    <ellipse cx="131.0" cy="191.0" fill="#2cd046" opacity="1" rx="4.25" ry="4.25" stroke-width="0" transform=" rotate(0, 131, 191)"/>
    <ellipse cx="143.0" cy="191.0" fill="#2cd046" opacity="1" rx="4.25" ry="4.25" stroke-width="0" transform=" rotate(0, 143, 191)"/>
    <ellipse cx="155.0" cy="191.0" fill="#2cd046" opacity="1" rx="4.25" ry="4.25" stroke-width="0" transform=" rotate(0, 155, 191)"/>
    <ellipse cx="167.0" cy="191.0" fill="#2cd046" opacity="1" rx="4.25" ry="4.25" stroke-width="0" transform=" rotate(0, 167, 191)"/>
    <ellipse cx="179.0" cy="191.0" fill="#2cd046" opacity="1" rx="4.25" ry="4.25" stroke-width="0" transform=" rotate(0, 179, 191)"/>
    <ellipse cx="191.0" cy="191.0" fill="#2cd046" opacity="1" rx="4.25" ry="4.25" stroke-width="0" transform=" rotate(0, 191, 191)"/>
    <ellipse cx="203.0" cy="191.0" fill="#35c68b" opacity="1" rx="4.5" ry="4.5" stroke-width="0" transform=" rotate(0, 203, 191)"/>
    <ellipse cx="215.0" cy="191.0" fill="#3dbabd" opacity="1" rx="4.75" ry="4.75" stroke-width="0" transform=" rotate(0, 215, 191)"/>
    <ellipse cx="227.0" cy="191.0" fill="#4682b4" opacity="1" rx="5.0" ry="5.0" stroke-width="0" transform=" rotate(0, 227, 191)"/>
    <ellipse cx="23.0" cy="203.0" fill="#4682b4" opacity="1" rx="5.0" ry="5.0" stroke-width="0" transform=" rotate(0, 23, 203)"/>
    <ellipse cx="35.0" cy="203.0" fill="#3dbabd" opacity="1" rx="4.75" ry="4.75" stroke-width="0" transform=" rotate(0, 35, 203)"/>
    <ellipse cx="47.0" cy="203.0" fill="#35c68b" opacity="1" rx="4.5" ry="4.5" stroke-width="0" transform=" rotate(0, 47, 203)"/>
    <ellipse cx="59.0" cy="203.0" fill="#35c68b" opacity="1" rx="4.5" ry="4.5" stroke-width="0" transform=" rotate(0, 59, 203)"/>
    <ellipse cx="71.0" cy="203.0" fill="#35c68b" opacity="1" rx="4.5" ry="4.5" stroke-width="0" transform=" rotate(0, 71, 203)"/>
    <ellipse cx="83.0" cy="203.0" fill="#35c68b" opacity="1" rx="4.5" ry="4.5" stroke-width="0" transform=" rotate(0, 83, 203)"/>
    <ellipse cx="95.0" cy="203.0" fill="#35c68b" opacity="1" rx="4.5" ry="4.5" stroke-width="0" transform=" rotate(0, 95, 203)"/>
    <ellipse cx="107.0" cy="203.0" fill="#35c68b" opacity="1" rx="4.5" ry="4.5" stroke-width="0" transform=" rotate(0, 107, 203)"/>
    <ellipse cx="119.0" cy="203.0" fill="#35c68b" opacity="1" rx="4.5" ry="4.5" stroke-width="0" transform=" rotate(0, 119, 203)"/>
    <ellipse cx="131.0" cy="203.0" fill="#35c68b" opacity="1" rx="4.5" ry="4.5" stroke-width="0" transform=" rotate(0, 131, 203)"/>
    <ellipse cx="143.0" cy="203.0" fill="#35c68b" opacity="1" rx="4.5" ry="4.5" stroke-width="0" transform=" rotate(0, 143, 203)"/>
    <ellipse cx="155.0" cy="203.0" fill="#35c68b" opacity="1" rx="4.5" ry="4.5" stroke-width="0" transform=" rotate(0, 155, 203)"/>
    <ellipse cx="167.0" cy="203.0" fill="#35c68b" opacity="1" rx="4.5" ry="4.5" stroke-width="0" transform=" rotate(0, 167, 203)"/>
    <ellipse cx="179.0" cy="203.0" fill="#35c68b" opacity="1" rx="4.5" ry="4.5" stroke-width="0" transform=" rotate(0, 179, 203)"/>
    <ellipse cx="191.0" cy="203.0" fill="#35c68b" opacity="1" rx="4.5" ry="4.5" stroke-width="0" transform=" rotate(0, 191, 203)"/>
    <ellipse cx="203.0" cy="203.0" fill="#35c68b" opacity="1" rx="4.5" ry="4.5" stroke-width="0" transform=" rotate(0, 203, 203)"/>
    <ellipse cx="215.0" cy="203.0" fill="#3dbabd" opacity="1" rx="4.75" ry="4.75" stroke-width="0" transform=" rotate(0, 215, 203)"/>
    <ellipse cx="227.0" cy="203.0" fill="#4682b4" opacity="1" rx="5.0" ry="5.0" stroke-width="0" transform=" rotate(0, 227, 203)"/>
    <ellipse cx="23.0" cy="215.0" fill="#4682b4" opacity="1" rx="5.0" ry="5.0" stroke-width="0" transform=" rotate(0, 23, 215)"/>
    <ellipse cx="35.0" cy="215.0" fill="#3dbabd" opacity="1" rx="4.75" ry="4.75" stroke-width="0" transform=" rotate(0, 35, 215)"/>
    <ellipse cx="47.0" cy="215.0" fill="#3dbabd" opacity="1" rx="4.75" ry="4.75" stroke-width="0" transform=" rotate(0, 47, 215)"/>
    <ellipse cx="59.0" cy="215.0" fill="#3dbabd" opacity="1" rx="4.75" ry="4.75" stroke-width="0" transform=" rotate(0, 59, 215)"/>
    <ellipse cx="71.0" cy="215.0" fill="#3dbabd" opacity="1" rx="4.75" ry="4.75" stroke-width="0" transform=" rotate(0, 71, 215)"/>
    <ellipse cx="83.0" cy="215.0" fill="#3dbabd" opacity="1" rx="4.75" ry="4.75" stroke-width="0" transform=" rotate(0, 83, 215)"/>
    <ellipse cx="95.0" cy="215.0" fill="#3dbabd" opacity="1" rx="4.75" ry="4.75" stroke-width="0" transform=" rotate(0, 95, 215)"/>
    <ellipse cx="107.0" cy="215.0" fill="#3dbabd" opacity="1" rx="4.75" ry="4.75" stroke-width="0" transform=" rotate(0, 107, 215)"/>
    <ellipse cx="119.0" cy="215.0" fill="#3dbabd" opacity="1" rx="4.75" ry="4.75" stroke-width="0" transform=" rotate(0, 119, 215)"/>
    <ellipse cx="131.0" cy="215.0" fill="#3dbabd" opacity="1" rx="4.75" ry="4.75" stroke-width="0" transform=" rotate(0, 131, 215)"/>
    <ellipse cx="143.0" cy="215.0" fill="#3dbabd" opacity="1" rx="4.75" ry="4.75" stroke-width="0" transform=" rotate(0, 143, 215)"/>
    <ellipse cx="155.0" cy="215.0" fill="#3dbabd" opacity="1" rx="4.75" ry="4.75" stroke-width="0" transform=" rotate(0, 155, 215)"/>
    <ellipse cx="167.0" cy="215.0" fill="#3dbabd" opacity="1" rx="4.75" ry="4.75" stroke-width="0" transform=" rotate(0, 167, 215)"/>
    <ellipse cx="179.0" cy="215.0" fill="#3dbabd" opacity="1" rx="4.75" ry="4.75" stroke-width="0" transform=" rotate(0, 179, 215)"/>
    <ellipse cx="191.0" cy="215.0" fill="#3dbabd" opacity="1" rx="4.75" ry="4.75" stroke-width="0" transform=" rotate(0, 191, 215)"/>
    <ellipse cx="203.0" cy="215.0" fill="#3dbabd" opacity="1" rx="4.75" ry="4.75" stroke-width="0" transform=" rotate(0, 203, 215)"/>
    <ellipse cx="215.0" cy="215.0" fill="#3dbabd" opacity="1" rx="4.75" ry="4.75" stroke-width="0" transform=" rotate(0, 215, 215)"/>
    <ellipse cx="227.0" cy="215.0" fill="#4682b4" opacity="1" rx="5.0" ry="5.0" stroke-width="0" transform=" rotate(0, 227, 215)"/>
    <ellipse cx="23.0" cy="227.0" fill="#4682b4" opacity="1" rx="5.0" ry="5.0" stroke-width="0" transform=" rotate(0, 23, 227)"/>
    <ellipse cx="35.0" cy="227.0" fill="#4682b4" opacity="1" rx="5.0" ry="5.0" stroke-width="0" transform=" rotate(0, 35, 227)"/>
    <ellipse cx="47.0" cy="227.0" fill="#4682b4" opacity="1" rx="5.0" ry="5.0" stroke-width="0" transform=" rotate(0, 47, 227)"/>
    <ellipse cx="59.0" cy="227.0" fill="#4682b4" opacity="1" rx="5.0" ry="5.0" stroke-width="0" transform=" rotate(0, 59, 227)"/>
    <ellipse cx="71.0" cy="227.0" fill="#4682b4" opacity="1" rx="5.0" ry="5.0" stroke-width="0" transform=" rotate(0, 71, 227)"/>
    <ellipse cx="83.0" cy="227.0" fill="#4682b4" opacity="1" rx="5.0" ry="5.0" stroke-width="0" transform=" rotate(0, 83, 227)"/>
    <ellipse cx="95.0" cy="227.0" fill="#4682b4" opacity="1" rx="5.0" ry="5.0" stroke-width="0" transform=" rotate(0, 95, 227)"/>
    <ellipse cx="107.0" cy="227.0" fill="#4682b4" opacity="1" rx="5.0" ry="5.0" stroke-width="0" transform=" rotate(0, 107, 227)"/>
    <ellipse cx="119.0" cy="227.0" fill="#4682b4" opacity="1" rx="5.0" ry="5.0" stroke-width="0" transform=" rotate(0, 119, 227)"/>
    <ellipse cx="131.0" cy="227.0" fill="#4682b4" opacity="1" rx="5.0" ry="5.0" stroke-width="0" transform=" rotate(0, 131, 227)"/>
    <ellipse cx="143.0" cy="227.0" fill="#4682b4" opacity="1" rx="5.0" ry="5.0" stroke-width="0" transform=" rotate(0, 143, 227)"/>
    <ellipse cx="155.0" cy="227.0" fill="#4682b4" opacity="1" rx="5.0" ry="5.0" stroke-width="0" transform=" rotate(0, 155, 227)"/>
    <ellipse cx="167.0" cy="227.0" fill="#4682b4" opacity="1" rx="5.0" ry="5.0" stroke-width="0" transform=" rotate(0, 167, 227)"/>
    <ellipse cx="179.0" cy="227.0" fill="#4682b4" opacity="1" rx="5.0" ry="5.0" stroke-width="0" transform=" rotate(0, 179, 227)"/>
    <ellipse cx="191.0" cy="227.0" fill="#4682b4" opacity="1" rx="5.0" ry="5.0" stroke-width="0" transform=" rotate(0, 191, 227)"/>
    <ellipse cx="203.0" cy="227.0" fill="#4682b4" opacity="1" rx="5.0" ry="5.0" stroke-width="0" transform=" rotate(0, 203, 227)"/>
    <ellipse cx="215.0" cy="227.0" fill="#4682b4" opacity="1" rx="5.0" ry="5.0" stroke-width="0" transform=" rotate(0, 215, 227)"/>
    <ellipse cx="227.0" cy="227.0" fill="#4682b4" opacity="1" rx="5.0" ry="5.0" stroke-width="0" transform=" rotate(0, 227, 227)"/>
  </g>
</svg>
