<?xml version="1.0" encoding="utf-8" ?>
<svg xmlns="http://www.w3.org/2000/svg" xmlns:ev="http://www.w3.org/2001/xml-events" xmlns:xlink="http://www.w3.org/1999/xlink" baseProfile="full" height="250" version="1.1" width="250">
  <defs/>
  <g transform=" rotate(0, 125, 125)">
    <rect fill="white" height="250" width="250" x="0" y="0"/>
    <rect fill="#6dd6ff" height="25" opacity="1" stroke-width="0" transform=" rotate(0, 37, 37)" width="25" x="25.0" y="25.0"/>
    <rect fill="#6dd6ff" height="25" opacity="1" stroke-width="0" transform=" rotate(0, 72, 37)" width="25" x="60.0" y="25.0"/>
    <ellipse cx="107.5" cy="37.5" fill="#1b9fd8" opacity="1" rx="12.5" ry="12.5" stroke-width="0" transform=" rotate(0, 107, 37)"/>
    <ellipse cx="142.5" cy="37.5" fill="#1b9fd8" opacity="1" rx="12.5" ry="12.5" stroke-width="0" transform=" rotate(0, 142, 37)"/>
    <polygon fill="#006ca1" opacity="1" points="165.0,50.0 177.5,25.0 190.0,50.0" stroke-width="0" transform=" rotate(0, 177, 37)"/>
    <polygon fill="#006ca1" opacity="1" points="200.0,50.0 212.5,25.0 225.0,50.0" stroke-width="0" transform=" rotate(0, 212, 37)"/>
    <rect fill="#6dd6ff" height="25" opacity="1" stroke-width="0" transform=" rotate(0, 37, 72)" width="25" x="25.0" y="60.0"/>
    <rect fill="#6dd6ff" height="25" opacity="1" stroke-width="0" transform=" rotate(0, 72, 72)" width="25" x="60.0" y="60.0"/>
    <ellipse cx="107.5" cy="72.5" fill="#1b9fd8" opacity="1" rx="12.5" ry="12.5" stroke-width="0" transform=" rotate(0, 107, 72)"/>
    <ellipse cx="142.5" cy="72.5" fill="#1b9fd8" opacity="1" rx="12.5" ry="12.5" stroke-width="0" transform=" rotate(0, 142, 72)"/>
    <polygon fill="#006ca1" opacity="1" points="165.0,85.0 177.5,60.0 190.0,85.0" stroke-width="0" transform=" rotate(0, 177, 72)"/>
    <polygon fill="#006ca1" opacity="1" points="200.0,85.0 212.5,60.0 225.0,85.0" stroke-width="0" transform=" rotate(0, 212, 72)"/>
    <rect fill="#6dd6ff" height="25" opacity="1" stroke-width="0" transform=" rotate(0, 37, 107)" width="25" x="25.0" y="95.0"/>
    <rect fill="#6dd6ff" height="25" opacity="1" stroke-width="0" transform=" rotate(0, 72, 107)" width="25" x="60.0" y="95.0"/>
    <ellipse cx="107.5" cy="107.5" fill="#1b9fd8" opacity="1" rx="12.5" ry="12.5" stroke-width="0" transform=" rotate(0, 107, 107)"/>
    <ellipse cx="142.5" cy="107.5" fill="#1b9fd8" opacity="1" rx="12.5" ry="12.5" stroke-width="0" transform=" rotate(0, 142, 107)"/>
    <polygon fill="#006ca1" opacity="1" points="165.0,120.0 177.5,95.0 190.0,120.0" stroke-width="0" transform=" rotate(0, 177, 107)"/>
    <polygon fill="#006ca1" opacity="1" points="200.0,120.0 212.5,95.0 225.0,120.0" stroke-width="0" transform=" rotate(0, 212, 107)"/>
    <rect fill="#6dd6ff" height="25" opacity="1" stroke-width="0" transform=" rotate(0, 37, 142)" width="25" x="25.0" y="130.0"/>
    <rect fill="#6dd6ff" height="25" opacity="1" stroke-width="0" transform=" rotate(0, 72, 142)" width="25" x="60.0" y="130.0"/>
    <ellipse cx="107.5" cy="142.5" fill="#1b9fd8" opacity="1" rx="12.5" ry="12.5" stroke-width="0" transform=" rotate(0, 107, 142)"/>
    <ellipse cx="142.5" cy="142.5" fill="#1b9fd8" opacity="1" rx="12.5" ry="12.5" stroke-width="0" transform=" rotate(0, 142, 142)"/>
    <polygon fill="#006ca1" opacity="1" points="165.0,155.0 177.5,130.0 190.0,155.0" stroke-width="0" transform=" rotate(0, 177, 142)"/>
    <polygon fill="#006ca1" opacity="1" points="200.0,155.0 212.5,130.0 225.0,155.0" stroke-width="0" transform=" rotate(0, 212, 142)"/>
    <rect fill="#6dd6ff" height="25" opacity="1" stroke-width="0" transform=" rotate(0, 37, 177)" width="25" x="25.0" y="165.0"/>
    <rect fill="#6dd6ff" height="25" opacity="1" stroke-width="0" transform=" rotate(0, 72, 177)" width="25" x="60.0" y="165.0"/>
    <ellipse cx="107.5" cy="177.5" fill="#1b9fd8" opacity="1" rx="12.5" ry="12.5" stroke-width="0" transform=" rotate(0, 107, 177)"/>
    <ellipse cx="142.5" cy="177.5" fill="#1b9fd8" opacity="1" rx="12.5" ry="12.5" stroke-width="0" transform=" rotate(0, 142, 177)"/>
    <polygon fill="#006ca1" opacity="1" points="165.0,190.0 177.5,165.0 190.0,190.0" stroke-width="0" transform=" rotate(0, 177, 177)"/>
    <polygon fill="#006ca1" opacity="1" points="200.0,190.0 212.5,165.0 225.0,190.0" stroke-width="0" transform=" rotate(0, 212, 177)"/>
    <rect fill="#6dd6ff" height="25" opacity="1" stroke-width="0" transform=" rotate(0, 37, 212)" width="25" x="25.0" y="200.0"/>
    <rect fill="#6dd6ff" height="25" opacity="1" stroke-width="0" transform=" rotate(0, 72, 212)" width="25" x="60.0" y="200.0"/>
    <ellipse cx="107.5" cy="212.5" fill="#1b9fd8" opacity="1" rx="12.5" ry="12.5" stroke-width="0" transform=" rotate(0, 107, 212)"/>
    <ellipse cx="142.5" cy="212.5" fill="#1b9fd8" opacity="1" rx="12.5" ry="12.5" stroke-width="0" transform=" rotate(0, 142, 212)"/>
    <polygon fill="#006ca1" opacity="1" points="165.0,225.0 177.5,200.0 190.0,225.0" stroke-width="0" transform=" rotate(0, 177, 212)"/>
    <polygon fill="#006ca1" opacity="1" points="200.0,225.0 212.5,200.0 225.0,225.0" stroke-width="0" transform=" rotate(0, 212, 212)"/>
  </g>
</svg>
