<?xml version="1.0" encoding="utf-8" ?>
<svg xmlns="http://www.w3.org/2000/svg" xmlns:ev="http://www.w3.org/2001/xml-events" xmlns:xlink="http://www.w3.org/1999/xlink" baseProfile="full" height="250" version="1.1" width="250">
  <defs/>
  <g transform=" rotate(0, 125, 125)">
    <rect fill="white" height="250" width="250" x="0" y="0"/>
    <ellipse cx="37.5" cy="38.08840921580916" fill="#6dd6ff" opacity="1" rx="12.5" ry="12.5" stroke-width="0" transform=" rotate(0, 37, 38)"/>
    <ellipse cx="72.5" cy="40.21624385902142" fill="#6dd6ff" opacity="1" rx="12.5" ry="12.5" stroke-width="0" transform=" rotate(0, 72, 40)"/>
    <ellipse cx="107.5" cy="29.947711506647277" fill="#1b9fd8" opacity="1" rx="12.5" ry="12.5" stroke-width="0" transform=" rotate(0, 107, 29)"/>
    <ellipse cx="142.5" cy="34.660912728485364" fill="#1b9fd8" opacity="1" rx="12.5" ry="12.5" stroke-width="0" transform=" rotate(0, 142, 34)"/>
    <ellipse cx="177.5" cy="42.06122178824157" fill="#006ca1" opacity="1" rx="12.5" ry="12.5" stroke-width="0" transform=" rotate(0, 177, 42)"/>
    <ellipse cx="212.5" cy="34.67717656781849" fill="#006ca1" opacity="1" rx="12.5" ry="12.5" stroke-width="0" transform=" rotate(0, 212, 34)"/>
    <ellipse cx="37.5" cy="78.4172076686221" fill="#6dd6ff" opacity="1" rx="12.5" ry="12.5" stroke-width="0" transform=" rotate(0, 37, 78)"/>
    <ellipse cx="72.5" cy="71.05688780278801" fill="#6dd6ff" opacity="1" rx="12.5" ry="12.5" stroke-width="0" transform=" rotate(0, 72, 71)"/>
    <ellipse cx="107.5" cy="73.17300181388967" fill="#1b9fd8" opacity="1" rx="12.5" ry="12.5" stroke-width="0" transform=" rotate(0, 107, 73)"/>
    <ellipse cx="142.5" cy="65.59101280774914" fill="#1b9fd8" opacity="1" rx="12.5" ry="12.5" stroke-width="0" transform=" rotate(0, 142, 65)"/>
    <ellipse cx="177.5" cy="71.93361136140155" fill="#006ca1" opacity="1" rx="12.5" ry="12.5" stroke-width="0" transform=" rotate(0, 177, 71)"/>
    <ellipse cx="212.5" cy="78.48969353381962" fill="#006ca1" opacity="1" rx="12.5" ry="12.5" stroke-width="0" transform=" rotate(0, 212, 78)"/>
    <ellipse cx="37.5" cy="113.34756204223534" fill="#6dd6ff" opacity="1" rx="12.5" ry="12.5" stroke-width="0" transform=" rotate(0, 37, 113)"/>
    <ellipse cx="72.5" cy="101.29627838120958" fill="#6dd6ff" opacity="1" rx="12.5" ry="12.5" stroke-width="0" transform=" rotate(0, 72, 101)"/>
    <ellipse cx="107.5" cy="109.88594862619163" fill="#1b9fd8" opacity="1" rx="12.5" ry="12.5" stroke-width="0" transform=" rotate(0, 107, 109)"/>
    <ellipse cx="142.5" cy="113.51769215656482" fill="#1b9fd8" opacity="1" rx="12.5" ry="12.5" stroke-width="0" transform=" rotate(0, 142, 113)"/>
    <ellipse cx="177.5" cy="114.50649400812208" fill="#006ca1" opacity="1" rx="12.5" ry="12.5" stroke-width="0" transform=" rotate(0, 177, 114)"/>
    <ellipse cx="212.5" cy="101.3203940104149" fill="#006ca1" opacity="1" rx="12.5" ry="12.5" stroke-width="0" transform=" rotate(0, 212, 101)"/>
    <ellipse cx="37.5" cy="143.311779038894" fill="#6dd6ff" opacity="1" rx="12.5" ry="12.5" stroke-width="0" transform=" rotate(0, 37, 143)"/>
    <ellipse cx="72.5" cy="143.20168734112258" fill="#6dd6ff" opacity="1" rx="12.5" ry="12.5" stroke-width="0" transform=" rotate(0, 72, 143)"/>
    <ellipse cx="107.5" cy="148.6690239680202" fill="#1b9fd8" opacity="1" rx="12.5" ry="12.5" stroke-width="0" transform=" rotate(0, 107, 148)"/>
    <ellipse cx="142.5" cy="136.4863890221774" fill="#1b9fd8" opacity="1" rx="12.5" ry="12.5" stroke-width="0" transform=" rotate(0, 142, 136)"/>
    <ellipse cx="177.5" cy="141.17342152081955" fill="#006ca1" opacity="1" rx="12.5" ry="12.5" stroke-width="0" transform=" rotate(0, 177, 141)"/>
    <ellipse cx="212.5" cy="148.56798289686387" fill="#006ca1" opacity="1" rx="12.5" ry="12.5" stroke-width="0" transform=" rotate(0, 212, 148)"/>
    <ellipse cx="37.5" cy="171.8327590582706" fill="#6dd6ff" opacity="1" rx="12.5" ry="12.5" stroke-width="0" transform=" rotate(0, 37, 171)"/>
    <ellipse cx="72.5" cy="168.9923044329855" fill="#6dd6ff" opacity="1" rx="12.5" ry="12.5" stroke-width="0" transform=" rotate(0, 72, 168)"/>
    <ellipse cx="107.5" cy="176.24756604280523" fill="#1b9fd8" opacity="1" rx="12.5" ry="12.5" stroke-width="0" transform=" rotate(0, 107, 176)"/>
    <ellipse cx="142.5" cy="171.24247745149674" fill="#1b9fd8" opacity="1" rx="12.5" ry="12.5" stroke-width="0" transform=" rotate(0, 142, 171)"/>
    <ellipse cx="177.5" cy="179.39839230584445" fill="#006ca1" opacity="1" rx="12.5" ry="12.5" stroke-width="0" transform=" rotate(0, 177, 179)"/>
    <ellipse cx="212.5" cy="183.50031730780483" fill="#006ca1" opacity="1" rx="12.5" ry="12.5" stroke-width="0" transform=" rotate(0, 212, 183)"/>
    <ellipse cx="37.5" cy="208.66417162947872" fill="#6dd6ff" opacity="1" rx="12.5" ry="12.5" stroke-width="0" transform=" rotate(0, 37, 208)"/>
    <ellipse cx="72.5" cy="219.40156907717315" fill="#6dd6ff" opacity="1" rx="12.5" ry="12.5" stroke-width="0" transform=" rotate(0, 72, 219)"/>
    <ellipse cx="107.5" cy="211.1590876871545" fill="#1b9fd8" opacity="1" rx="12.5" ry="12.5" stroke-width="0" transform=" rotate(0, 107, 211)"/>
    <ellipse cx="142.5" cy="218.90402478245835" fill="#1b9fd8" opacity="1" rx="12.5" ry="12.5" stroke-width="0" transform=" rotate(0, 142, 218)"/>
    <ellipse cx="177.5" cy="204.4234771196079" fill="#006ca1" opacity="1" rx="12.5" ry="12.5" stroke-width="0" transform=" rotate(0, 177, 204)"/>
    <ellipse cx="212.5" cy="212.63610943799134" fill="#006ca1" opacity="1" rx="12.5" ry="12.5" stroke-width="0" transform=" rotate(0, 212, 212)"/>
  </g>
</svg>
