<?xml version="1.0" encoding="utf-8" ?>
<svg xmlns="http://www.w3.org/2000/svg" xmlns:ev="http://www.w3.org/2001/xml-events" xmlns:xlink="http://www.w3.org/1999/xlink" baseProfile="full" height="250" version="1.1" width="250">
  <defs/>
  <g transform=" rotate(0, 125, 125)">
    <rect fill="white" height="250" width="250" x="0" y="0"/>
    <rect fill="#1b9fd8" height="25" opacity="1" stroke-width="0" transform=" rotate(0, 37, 37)" width="25" x="25.0" y="25.0"/>
    <rect fill="#1b9fd8" height="25" opacity="1" stroke-width="0" transform=" rotate(0, 72, 37)" width="25" x="60.0" y="25.0"/>
    <rect fill="#1b9fd8" height="25" opacity="1" stroke-width="0" transform=" rotate(0, 107, 37)" width="25" x="95.0" y="25.0"/>
    <rect fill="#1b9fd8" height="25" opacity="1" stroke-width="0" transform=" rotate(0, 142, 37)" width="25" x="130.0" y="25.0"/>
    <rect fill="#1b9fd8" height="25" opacity="1" stroke-width="0" transform=" rotate(0, 177, 37)" width="25" x="165.0" y="25.0"/>
    <rect fill="#1b9fd8" height="25" opacity="1" stroke-width="0" transform=" rotate(0, 212, 37)" width="25" x="200.0" y="25.0"/>
    <rect fill="#1b9fd8" height="20" opacity="1" stroke-width="0" transform=" rotate(0, 37, 72)" width="20" x="27.5" y="62.5"/>
    <rect fill="#1b9fd8" height="20" opacity="1" stroke-width="0" transform=" rotate(0, 72, 72)" width="20" x="62.5" y="62.5"/>
    <rect fill="#1b9fd8" height="20" opacity="1" stroke-width="0" transform=" rotate(0, 107, 72)" width="20" x="97.5" y="62.5"/>
    <rect fill="#1b9fd8" height="20" opacity="1" stroke-width="0" transform=" rotate(0, 142, 72)" width="20" x="132.5" y="62.5"/>
    <rect fill="#1b9fd8" height="20" opacity="1" stroke-width="0" transform=" rotate(0, 177, 72)" width="20" x="167.5" y="62.5"/>
    <rect fill="#1b9fd8" height="20" opacity="1" stroke-width="0" transform=" rotate(0, 212, 72)" width="20" x="202.5" y="62.5"/>
    <rect fill="#1b9fd8" height="25" opacity="1" stroke-width="0" transform=" rotate(0, 37, 107)" width="25" x="25.0" y="95.0"/>
    <rect fill="#1b9fd8" height="25" opacity="1" stroke-width="0" transform=" rotate(0, 72, 107)" width="25" x="60.0" y="95.0"/>
    <rect fill="#1b9fd8" height="25" opacity="1" stroke-width="0" transform=" rotate(0, 107, 107)" width="25" x="95.0" y="95.0"/>
    <rect fill="#1b9fd8" height="25" opacity="1" stroke-width="0" transform=" rotate(0, 142, 107)" width="25" x="130.0" y="95.0"/>
    <rect fill="#1b9fd8" height="25" opacity="1" stroke-width="0" transform=" rotate(0, 177, 107)" width="25" x="165.0" y="95.0"/>
    <rect fill="#1b9fd8" height="25" opacity="1" stroke-width="0" transform=" rotate(0, 212, 107)" width="25" x="200.0" y="95.0"/>
    <rect fill="#1b9fd8" height="20" opacity="1" stroke-width="0" transform=" rotate(0, 37, 142)" width="20" x="27.5" y="132.5"/>
    <rect fill="#1b9fd8" height="20" opacity="1" stroke-width="0" transform=" rotate(0, 72, 142)" width="20" x="62.5" y="132.5"/>
    <rect fill="#1b9fd8" height="20" opacity="1" stroke-width="0" transform=" rotate(0, 107, 142)" width="20" x="97.5" y="132.5"/>
    <rect fill="#1b9fd8" height="20" opacity="1" stroke-width="0" transform=" rotate(0, 142, 142)" width="20" x="132.5" y="132.5"/>
    <rect fill="#1b9fd8" height="20" opacity="1" stroke-width="0" transform=" rotate(0, 177, 142)" width="20" x="167.5" y="132.5"/>
    <rect fill="#1b9fd8" height="20" opacity="1" stroke-width="0" transform=" rotate(0, 212, 142)" width="20" x="202.5" y="132.5"/>
    <rect fill="#1b9fd8" height="25" opacity="1" stroke-width="0" transform=" rotate(0, 37, 177)" width="25" x="25.0" y="165.0"/>
    <rect fill="#1b9fd8" height="25" opacity="1" stroke-width="0" transform=" rotate(0, 72, 177)" width="25" x="60.0" y="165.0"/>
    <rect fill="#1b9fd8" height="25" opacity="1" stroke-width="0" transform=" rotate(0, 107, 177)" width="25" x="95.0" y="165.0"/>
    <rect fill="#1b9fd8" height="25" opacity="1" stroke-width="0" transform=" rotate(0, 142, 177)" width="25" x="130.0" y="165.0"/>
    <rect fill="#1b9fd8" height="25" opacity="1" stroke-width="0" transform=" rotate(0, 177, 177)" width="25" x="165.0" y="165.0"/>
    <rect fill="#1b9fd8" height="25" opacity="1" stroke-width="0" transform=" rotate(0, 212, 177)" width="25" x="200.0" y="165.0"/>
    <rect fill="#1b9fd8" height="20" opacity="1" stroke-width="0" transform=" rotate(0, 37, 212)" width="20" x="27.5" y="202.5"/>
    <rect fill="#1b9fd8" height="20" opacity="1" stroke-width="0" transform=" rotate(0, 72, 212)" width="20" x="62.5" y="202.5"/>
    <rect fill="#1b9fd8" height="20" opacity="1" stroke-width="0" transform=" rotate(0, 107, 212)" width="20" x="97.5" y="202.5"/>
    <rect fill="#1b9fd8" height="20" opacity="1" stroke-width="0" transform=" rotate(0, 142, 212)" width="20" x="132.5" y="202.5"/>
    <rect fill="#1b9fd8" height="20" opacity="1" stroke-width="0" transform=" rotate(0, 177, 212)" width="20" x="167.5" y="202.5"/>
    <rect fill="#1b9fd8" height="20" opacity="1" stroke-width="0" transform=" rotate(0, 212, 212)" width="20" x="202.5" y="202.5"/>
  </g>
</svg>
