<?xml version="1.0" encoding="utf-8" ?>
<svg xmlns="http://www.w3.org/2000/svg" xmlns:ev="http://www.w3.org/2001/xml-events" xmlns:xlink="http://www.w3.org/1999/xlink" baseProfile="full" height="150.0" version="1.1" width="850.0">
  <defs/>
  <g transform=" rotate(0, 425, 75)">
    <rect fill="white" height="150.0" width="850.0" x="0" y="0"/>
    <path d="M 46.94,0 C 65.14,-0.34 82.61,10.56 88.53,33.31 C 97.03,65.96 77.15,111.31 47.53,122.87 L 22.58,122.87 C 31.8,112.29 61.2,84.47 56.76,69.47 C 49.85,77.41 39.76,80.47 30,79.31 C -19.27,73.68 -3.79,0.94 46.94,0 Z" fill="red" opacity="1" stroke-width="0" transform=" scale(1.104888, 0.813919) translate(22.626723, 30.715572) rotate(0, 45, 61)"/>
    <path d="M 46.94,0 C 65.14,-0.34 82.61,10.56 88.53,33.31 C 97.03,65.96 77.15,111.31 47.53,122.87 L 22.58,122.87 C 31.8,112.29 61.2,84.47 56.76,69.47 C 49.85,77.41 39.76,80.47 30,79.31 C -19.27,73.68 -3.79,0.94 46.94,0 Z" fill="black" opacity="1" stroke-width="0" transform=" scale(1.104888, 0.813919) translate(113.133613, 30.715572) rotate(0, 45, 61)"/>
    <path d="M 46.94,0 C 65.14,-0.34 82.61,10.56 88.53,33.31 C 97.03,65.96 77.15,111.31 47.53,122.87 L 22.58,122.87 C 31.8,112.29 61.2,84.47 56.76,69.47 C 49.85,77.41 39.76,80.47 30,79.31 C -19.27,73.68 -3.79,0.94 46.94,0 Z" fill="red" opacity="1" stroke-width="0" transform=" scale(1.104888, 0.813919) translate(203.640504, 30.715572) rotate(0, 45, 61)"/>
    <path d="M 46.94,0 C 65.14,-0.34 82.61,10.56 88.53,33.31 C 97.03,65.96 77.15,111.31 47.53,122.87 L 22.58,122.87 C 31.8,112.29 61.2,84.47 56.76,69.47 C 49.85,77.41 39.76,80.47 30,79.31 C -19.27,73.68 -3.79,0.94 46.94,0 Z" fill="black" opacity="1" stroke-width="0" transform=" scale(1.104888, 0.813919) translate(294.147395, 30.715572) rotate(0, 45, 61)"/>
    <path d="M 46.94,0 C 65.14,-0.34 82.61,10.56 88.53,33.31 C 97.03,65.96 77.15,111.31 47.53,122.87 L 22.58,122.87 C 31.8,112.29 61.2,84.47 56.76,69.47 C 49.85,77.41 39.76,80.47 30,79.31 C -19.27,73.68 -3.79,0.94 46.94,0 Z" fill="red" opacity="1" stroke-width="0" transform=" scale(1.104888, 0.813919) translate(384.654285, 30.715572) rotate(0, 45, 61)"/>
    <path d="M 46.94,0 C 65.14,-0.34 82.61,10.56 88.53,33.31 C 97.03,65.96 77.15,111.31 47.53,122.87 L 22.58,122.87 C 31.8,112.29 61.2,84.47 56.76,69.47 C 49.85,77.41 39.76,80.47 30,79.31 C -19.27,73.68 -3.79,0.94 46.94,0 Z" fill="black" opacity="1" stroke-width="0" transform=" scale(1.104888, 0.813919) translate(475.161176, 30.715572) rotate(0, 45, 61)"/>
    <path d="M 46.94,0 C 65.14,-0.34 82.61,10.56 88.53,33.31 C 97.03,65.96 77.15,111.31 47.53,122.87 L 22.58,122.87 C 31.8,112.29 61.2,84.47 56.76,69.47 C 49.85,77.41 39.76,80.47 30,79.31 C -19.27,73.68 -3.79,0.94 46.94,0 Z" fill="red" opacity="1" stroke-width="0" transform=" scale(1.104888, 0.813919) translate(565.668066, 30.715572) rotate(0, 45, 61)"/>
    <path d="M 46.94,0 C 65.14,-0.34 82.61,10.56 88.53,33.31 C 97.03,65.96 77.15,111.31 47.53,122.87 L 22.58,122.87 C 31.8,112.29 61.2,84.47 56.76,69.47 C 49.85,77.41 39.76,80.47 30,79.31 C -19.27,73.68 -3.79,0.94 46.94,0 Z" fill="black" opacity="1" stroke-width="0" transform=" scale(1.104888, 0.813919) translate(656.174957, 30.715572) rotate(0, 45, 61)"/>
  </g>
</svg>
