<?xml version="1.0" encoding="utf-8" ?>
<svg xmlns="http://www.w3.org/2000/svg" xmlns:ev="http://www.w3.org/2001/xml-events" xmlns:xlink="http://www.w3.org/1999/xlink" baseProfile="full" height="250" version="1.1" width="250">
  <defs/>
  <g transform=" rotate(0, 125, 125)">
    <rect fill="none" height="250" width="250" x="0" y="0"/>
    <ellipse cx="50.0" cy="75.0" fill="none" opacity="1" rx="20.0" ry="20.0" stroke="grey" stroke-width="1" transform=" rotate(0, 50, 75)"/>
    <ellipse cx="100.0" cy="75.0" fill="none" opacity="1" rx="20.0" ry="20.0" stroke="grey" stroke-width="1" transform=" rotate(0, 100, 75)"/>
    <ellipse cx="150.0" cy="75.0" fill="none" opacity="1" rx="20.0" ry="20.0" stroke="grey" stroke-width="1" transform=" rotate(0, 150, 75)"/>
    <ellipse cx="200.0" cy="75.0" fill="none" opacity="1" rx="20.0" ry="20.0" stroke="grey" stroke-width="1" transform=" rotate(0, 200, 75)"/>
    <ellipse cx="50.0" cy="125.0" fill="none" opacity="1" rx="20.0" ry="20.0" stroke="grey" stroke-width="1" transform=" rotate(0, 50, 125)"/>
    <ellipse cx="100.0" cy="125.0" fill="none" opacity="1" rx="20.0" ry="20.0" stroke="grey" stroke-width="1" transform=" rotate(0, 100, 125)"/>
    <ellipse cx="150.0" cy="125.0" fill="none" opacity="1" rx="20.0" ry="20.0" stroke="grey" stroke-width="1" transform=" rotate(0, 150, 125)"/>
    <ellipse cx="200.0" cy="125.0" fill="none" opacity="1" rx="20.0" ry="20.0" stroke="grey" stroke-width="1" transform=" rotate(0, 200, 125)"/>
    <ellipse cx="50.0" cy="175.0" fill="none" opacity="1" rx="20.0" ry="20.0" stroke="grey" stroke-width="1" transform=" rotate(0, 50, 175)"/>
    <ellipse cx="100.0" cy="175.0" fill="none" opacity="1" rx="20.0" ry="20.0" stroke="grey" stroke-width="1" transform=" rotate(0, 100, 175)"/>
    <ellipse cx="150.0" cy="175.0" fill="none" opacity="1" rx="20.0" ry="20.0" stroke="grey" stroke-width="1" transform=" rotate(0, 150, 175)"/>
    <ellipse cx="200.0" cy="175.0" fill="none" opacity="1" rx="20.0" ry="20.0" stroke="grey" stroke-width="1" transform=" rotate(0, 200, 175)"/>
  </g>
</svg>
