<?xml version='1.0' encoding='ASCII' standalone='yes'?>
<svg xmlns="http://www.w3.org/2000/svg" xmlns:xlink="http://www.w3.org/1999/xlink" version="1.1" width="260.79999999999995px" viewBox="0 0 260.79999999999995 260.8" height="260.8px">
  <g>
    <g transform="translate(0, 0) scale(2.4 2.4) "><defs/>
  <g transform=" rotate(0, 54, 54)">
    <rect fill="none" height="108.66666666666667" width="108.66666666666666" x="0" y="0"/>
    <polygon fill="#54C4D0" opacity="1" points="4.333333333333332,104.33333333333334 21.0,71.0 37.66666666666667,104.33333333333334" stroke-width="0" transform=" rotate(0, 21, 87)"/>
    <polygon fill="#54C4D0" opacity="1" points="37.66666666666666,104.33333333333334 54.33333333333333,71.0 71.0,104.33333333333334" stroke-width="0" transform=" rotate(0, 54, 87)"/>
    <polygon fill="#54C4D0" opacity="1" points="70.99999999999999,104.33333333333334 87.66666666666666,71.0 104.33333333333333,104.33333333333334" stroke-width="0" transform=" rotate(0, 87, 87)"/>
    <polygon fill="#54C4D0" opacity="1" points="21.000000000000004,71.0 37.66666666666667,37.66666666666667 54.33333333333334,71.0" stroke-width="0" transform=" rotate(0, 37, 54)"/>
    <polygon fill="#54C4D0" opacity="1" points="54.33333333333333,71.0 71.0,37.66666666666667 87.66666666666667,71.0" stroke-width="0" transform=" rotate(0, 71, 54)"/>
    <polygon fill="#54C4D0" opacity="1" points="37.66666666666666,37.66666666666667 54.33333333333333,4.333333333333332 71.0,37.66666666666667" stroke-width="0" transform=" rotate(0, 54, 21)"/>
  </g>
</g>
  </g>
</svg>
