<?xml version="1.0" encoding="utf-8" ?>
<svg xmlns="http://www.w3.org/2000/svg" xmlns:ev="http://www.w3.org/2001/xml-events" xmlns:xlink="http://www.w3.org/1999/xlink" baseProfile="full" height="250" version="1.1" width="250">
  <defs/>
  <g transform=" rotate(0, 125, 125)">
    <rect fill="white" height="250" width="250" x="0" y="0"/>
    <rect fill="#4682b4" height="13.521125555172013" opacity="1" stroke-width="0" transform=" rotate(0, 24, 24)" width="18.836530242897247" x="14.602092791397244" y="17.25979513525989"/>
    <rect fill="#4682b4" height="19.293385551543505" opacity="1" stroke-width="0" transform=" rotate(0, 49, 32)" width="15.934151173895662" x="41.05328232589804" y="23.190443921461238"/>
    <rect fill="#4682b4" height="10.351425378432909" opacity="1" stroke-width="0" transform=" rotate(0, 74, 38)" width="15.025791212276143" x="66.5074623067078" y="33.11049296805675"/>
    <rect fill="#4682b4" height="10.45613028023169" opacity="1" stroke-width="0" transform=" rotate(0, 99, 38)" width="15.24292007142142" x="91.39889787713516" y="33.058140517157355"/>
    <rect fill="#4682b4" height="15.661158375060634" opacity="1" stroke-width="0" transform=" rotate(0, 124, 32)" width="13.683148733665469" x="117.17878354601314" y="25.006557509702674"/>
    <rect fill="#4682b4" height="18.18725018943795" opacity="1" stroke-width="0" transform=" rotate(0, 149, 24)" width="13.999895191939196" x="142.02041031687628" y="14.926732818126924"/>
    <rect fill="#4682b4" height="13.547897457361081" opacity="1" stroke-width="0" transform=" rotate(0, 174, 15)" width="12.909864203454923" x="167.56542581111842" y="8.42963039977826"/>
    <rect fill="#4682b4" height="17.443404791556915" opacity="1" stroke-width="0" transform=" rotate(0, 199, 9)" width="12.379340321669904" x="192.8306877520109" y="1.032807772640135"/>
    <rect fill="#4682b4" height="13.107617239934246" opacity="1" stroke-width="0" transform=" rotate(0, 224, 9)" width="11.985547715105135" x="218.0275840552933" y="3.200701548451468"/>
    <rect fill="#4682b4" height="10.25725607510659" opacity="1" stroke-width="0" transform=" rotate(0, 32, 49)" width="12.740094123552202" x="26.467089635456862" y="43.8917298752926"/>
    <rect fill="#41afba" height="16.864540572265458" opacity="1" stroke-width="0" transform=" rotate(0, 57, 57)" width="14.866175579168441" x="50.40404890764874" y="49.404866411100265"/>
    <rect fill="#41afba" height="15.08606276760404" opacity="1" stroke-width="0" transform=" rotate(0, 82, 63)" width="19.793521844466675" x="72.94037577499962" y="55.74317427347118"/>
    <rect fill="#41afba" height="13.831598604386407" opacity="1" stroke-width="0" transform=" rotate(0, 107, 63)" width="14.113375022535928" x="100.780449185965" y="56.37040635507999"/>
    <rect fill="#41afba" height="12.006315076251994" opacity="1" stroke-width="0" transform=" rotate(0, 132, 57)" width="13.497498466311706" x="126.0883874640771" y="51.833979159106995"/>
    <rect fill="#41afba" height="16.198890373151904" opacity="1" stroke-width="0" transform=" rotate(0, 157, 49)" width="18.571594618015894" x="148.55133938822502" y="40.92091272626995"/>
    <rect fill="#41afba" height="12.015768744049323" opacity="1" stroke-width="0" transform=" rotate(0, 182, 40)" width="16.020009616625167" x="174.8271318889204" y="34.195694756434136"/>
    <rect fill="#41afba" height="14.330341783826634" opacity="1" stroke-width="0" transform=" rotate(0, 207, 34)" width="14.148094476621273" x="200.76308945892234" y="27.589339276505275"/>
    <rect fill="#4682b4" height="10.724311393899177" opacity="1" stroke-width="0" transform=" rotate(0, 232, 34)" width="11.033145748627964" x="227.32056382291898" y="29.392354471469"/>
    <rect fill="#4682b4" height="18.32382789269076" opacity="1" stroke-width="0" transform=" rotate(0, 38, 74)" width="10.252640161518313" x="33.159885576514014" y="64.85844396650052"/>
    <rect fill="#41afba" height="15.982881007783714" opacity="1" stroke-width="0" transform=" rotate(0, 63, 82)" width="11.787313452887684" x="57.39254893082933" y="74.84569619334114"/>
    <rect fill="#3cc09c" height="19.814417446668095" opacity="1" stroke-width="0" transform=" rotate(0, 88, 88)" width="12.293111666827519" x="82.13964982385941" y="78.37899693393915"/>
    <rect fill="#3cc09c" height="10.074385206780107" opacity="1" stroke-width="0" transform=" rotate(0, 113, 88)" width="18.665835123947414" x="103.95328809529947" y="83.24901305388315"/>
    <rect fill="#3cc09c" height="17.941895195383573" opacity="1" stroke-width="0" transform=" rotate(0, 138, 82)" width="14.292631052064753" x="131.1398901312408" y="73.8661890995412"/>
    <rect fill="#3cc09c" height="14.07031558512902" opacity="1" stroke-width="0" transform=" rotate(0, 163, 74)" width="15.180559763299833" x="155.69592577562327" y="66.98520012028139"/>
    <rect fill="#3cc09c" height="17.484291510791437" opacity="1" stroke-width="0" transform=" rotate(0, 188, 65)" width="10.53467556271789" x="183.01886787591422" y="56.46143337306308"/>
    <rect fill="#41afba" height="18.504417029510762" opacity="1" stroke-width="0" transform=" rotate(0, 213, 59)" width="19.354574998386866" x="203.60891815807975" y="50.50230165366321"/>
    <rect fill="#4682b4" height="19.27984190078181" opacity="1" stroke-width="0" transform=" rotate(0, 238, 59)" width="18.746011783282455" x="228.91319976563193" y="50.11458921802769"/>
    <rect fill="#4682b4" height="17.87620345935794" opacity="1" stroke-width="0" transform=" rotate(0, 38, 99)" width="17.81660322692896" x="29.37790404380869" y="90.08225618316692"/>
    <rect fill="#41afba" height="11.204163856202207" opacity="1" stroke-width="0" transform=" rotate(0, 63, 107)" width="15.801362033214662" x="55.38552464066584" y="102.23505476913189"/>
    <rect fill="#3cc09c" height="17.166628694520814" opacity="1" stroke-width="0" transform=" rotate(0, 88, 113)" width="13.622729769742515" x="81.47484077240192" y="104.70289131001279"/>
    <rect fill="#37c76b" height="16.920621694182316" opacity="1" stroke-width="0" transform=" rotate(0, 113, 113)" width="15.895603438433398" x="105.33840393805647" y="104.82589481018204"/>
    <rect fill="#37c76b" height="16.86752932346927" opacity="1" stroke-width="0" transform=" rotate(0, 138, 107)" width="17.774767865636882" x="129.39882172445473" y="99.40337203549836"/>
    <rect fill="#37c76b" height="15.721194321645786" opacity="1" stroke-width="0" transform=" rotate(0, 163, 99)" width="14.233641711724388" x="156.16938480141098" y="91.159760752023"/>
    <rect fill="#3cc09c" height="10.056717966353899" opacity="1" stroke-width="0" transform=" rotate(0, 188, 90)" width="16.77385940605943" x="179.89927595424345" y="85.17522014528186"/>
    <rect fill="#41afba" height="15.089835596881489" opacity="1" stroke-width="0" transform=" rotate(0, 213, 84)" width="18.754540659891273" x="203.90893532732753" y="77.20959236997784"/>
    <rect fill="#4682b4" height="10.470005861789456" opacity="1" stroke-width="0" transform=" rotate(0, 238, 84)" width="18.338802257407963" x="229.1168045285692" y="79.51950723752387"/>
    <rect fill="#4682b4" height="19.44686817852991" opacity="1" stroke-width="0" transform=" rotate(0, 32, 124)" width="12.420340863276053" x="26.626966265594938" y="114.29692382358094"/>
    <rect fill="#41afba" height="15.928087972664013" opacity="1" stroke-width="0" transform=" rotate(0, 57, 132)" width="14.14510409261657" x="50.764584650924675" y="124.873092710901"/>
    <rect fill="#3cc09c" height="11.26747081617889" opacity="1" stroke-width="0" transform=" rotate(0, 82, 138)" width="11.60865509536473" x="77.0328091495506" y="132.65247024918375"/>
    <rect fill="#37c76b" height="14.425886069476972" opacity="1" stroke-width="0" transform=" rotate(0, 107, 138)" width="14.692846263197506" x="100.49071356563421" y="131.0732626225347"/>
    <rect fill="#32cd32" height="12.957488595863303" opacity="1" stroke-width="0" transform=" rotate(0, 132, 132)" width="14.679738008675756" x="125.49726769289506" y="126.35839239930135"/>
    <rect fill="#37c76b" height="12.58789315732431" opacity="1" stroke-width="0" transform=" rotate(0, 157, 124)" width="13.566217045376222" x="151.05402817454487" y="117.72641133418374"/>
    <rect fill="#3cc09c" height="15.175098582108252" opacity="1" stroke-width="0" transform=" rotate(0, 182, 115)" width="13.432129402069663" x="176.12107199619814" y="107.61602983740467"/>
    <rect fill="#41afba" height="15.790596002119367" opacity="1" stroke-width="0" transform=" rotate(0, 207, 109)" width="10.518032819523544" x="202.5781202874712" y="101.8592121673589"/>
    <rect fill="#4682b4" height="10.540015105376366" opacity="1" stroke-width="0" transform=" rotate(0, 232, 109)" width="15.999380630665954" x="224.8374463819" y="104.4845026157304"/>
    <rect fill="#4682b4" height="14.11050089246333" opacity="1" stroke-width="0" transform=" rotate(0, 24, 149)" width="11.458568948938641" x="18.29107343837655" y="141.96510746661423"/>
    <rect fill="#41afba" height="11.788363753642935" opacity="1" stroke-width="0" transform=" rotate(0, 49, 157)" width="12.67555791844906" x="42.68257895362134" y="151.94295482041153"/>
    <rect fill="#3cc09c" height="17.067899026005247" opacity="1" stroke-width="0" transform=" rotate(0, 74, 163)" width="14.295004519571982" x="66.87285565305987" y="154.75225614427058"/>
    <rect fill="#37c76b" height="18.979363987145405" opacity="1" stroke-width="0" transform=" rotate(0, 99, 163)" width="15.77793135535865" x="91.13139223516654" y="153.7965236637005"/>
    <rect fill="#37c76b" height="10.63173632487823" opacity="1" stroke-width="0" transform=" rotate(0, 124, 157)" width="14.298436995919593" x="116.87113941488607" y="152.5212685347939"/>
    <rect fill="#37c76b" height="13.595380398229373" opacity="1" stroke-width="0" transform=" rotate(0, 149, 149)" width="18.997037680269678" x="139.52183907271103" y="142.2226677137312"/>
    <rect fill="#3cc09c" height="19.347101874386254" opacity="1" stroke-width="0" transform=" rotate(0, 174, 140)" width="14.549263198219437" x="166.74572631373616" y="130.53002819126567"/>
    <rect fill="#41afba" height="19.262042093146974" opacity="1" stroke-width="0" transform=" rotate(0, 199, 134)" width="10.003800489843858" x="194.01845766792394" y="125.1234891218451"/>
    <rect fill="#4682b4" height="18.516928772258396" opacity="1" stroke-width="0" transform=" rotate(0, 224, 134)" width="11.746843012348485" x="218.1469364066716" y="125.4960457822894"/>
    <rect fill="#4682b4" height="11.136094970833291" opacity="1" stroke-width="0" transform=" rotate(0, 15, 174)" width="14.621950403909214" x="7.892603926504165" y="168.45231042742924"/>
    <rect fill="#41afba" height="11.42576489935325" opacity="1" stroke-width="0" transform=" rotate(0, 40, 182)" width="14.550950960626286" x="32.92810364814563" y="177.1242542475564"/>
    <rect fill="#3cc09c" height="13.364602270425248" opacity="1" stroke-width="0" transform=" rotate(0, 65, 188)" width="10.726602239619993" x="59.840278008648774" y="181.6039045220606"/>
    <rect fill="#3cc09c" height="19.450291631557064" opacity="1" stroke-width="0" transform=" rotate(0, 90, 188)" width="12.345191059711796" x="84.03098359860287" y="178.56105984149468"/>
    <rect fill="#3cc09c" height="17.75099798601375" opacity="1" stroke-width="0" transform=" rotate(0, 115, 182)" width="12.894000737813641" x="108.75657875955196" y="173.96163770422612"/>
    <rect fill="#3cc09c" height="15.34734876066654" opacity="1" stroke-width="0" transform=" rotate(0, 140, 174)" width="12.033730612499136" x="134.1867138222092" y="166.34668353251263"/>
    <rect fill="#3cc09c" height="10.836146901620527" opacity="1" stroke-width="0" transform=" rotate(0, 165, 165)" width="16.644811870107212" x="156.88117319340517" y="159.78550567764856"/>
    <rect fill="#41afba" height="17.586375290077456" opacity="1" stroke-width="0" transform=" rotate(0, 190, 159)" width="15.761311580081282" x="182.32292333841815" y="150.96132252337986"/>
    <rect fill="#4682b4" height="12.594933068520263" opacity="1" stroke-width="0" transform=" rotate(0, 215, 159)" width="15.320430963821133" x="207.54336364654822" y="153.45704363415845"/>
    <rect fill="#4682b4" height="14.394982005307376" opacity="1" stroke-width="0" transform=" rotate(0, 9, 199)" width="12.558411020476088" x="3.4753046581805203" y="191.8228669101922"/>
    <rect fill="#41afba" height="10.275687851420178" opacity="1" stroke-width="0" transform=" rotate(0, 34, 207)" width="11.15264607400399" x="29.178187131416568" y="202.69929277152292"/>
    <rect fill="#41afba" height="18.16390193058018" opacity="1" stroke-width="0" transform=" rotate(0, 59, 213)" width="15.561348507387045" x="51.97383591472504" y="204.20425469198312"/>
    <rect fill="#41afba" height="11.254708519234685" opacity="1" stroke-width="0" transform=" rotate(0, 84, 213)" width="13.721115629419824" x="77.89395235370866" y="207.65885139765587"/>
    <rect fill="#41afba" height="15.350504127304745" opacity="1" stroke-width="0" transform=" rotate(0, 109, 207)" width="15.802798781371123" x="101.85311077773301" y="200.16188463358063"/>
    <rect fill="#41afba" height="16.401888688416353" opacity="1" stroke-width="0" transform=" rotate(0, 134, 199)" width="16.943648145739765" x="126.28268609554868" y="190.8194135686377"/>
    <rect fill="#41afba" height="13.028645796679957" opacity="1" stroke-width="0" transform=" rotate(0, 159, 190)" width="17.81425849255878" x="150.84738092213917" y="183.68925623011884"/>
    <rect fill="#41afba" height="15.763489937681284" opacity="1" stroke-width="0" transform=" rotate(0, 184, 184)" width="15.681458715209047" x="176.91378081081405" y="176.87276519957794"/>
    <rect fill="#4682b4" height="12.526813531678977" opacity="1" stroke-width="0" transform=" rotate(0, 209, 184)" width="19.176528722316995" x="200.16624580726005" y="178.4911034025791"/>
    <rect fill="#4682b4" height="13.292406441238963" opacity="1" stroke-width="0" transform=" rotate(0, 9, 224)" width="19.062545813479794" x="0.22323726167866553" y="217.37415469222643"/>
    <rect fill="#4682b4" height="13.157946599928449" opacity="1" stroke-width="0" transform=" rotate(0, 34, 232)" width="12.335915908296911" x="28.586552214270107" y="226.2581633972688"/>
    <rect fill="#4682b4" height="17.722962086455947" opacity="1" stroke-width="0" transform=" rotate(0, 59, 238)" width="11.883155675813981" x="53.81293233051157" y="229.42472461404523"/>
    <rect fill="#4682b4" height="16.302263260612076" opacity="1" stroke-width="0" transform=" rotate(0, 84, 238)" width="19.71412565757796" x="74.89744733962958" y="230.13507402696717"/>
    <rect fill="#4682b4" height="13.875179059921836" opacity="1" stroke-width="0" transform=" rotate(0, 109, 232)" width="13.608329259121454" x="102.95034553885783" y="225.8995471672721"/>
    <rect fill="#4682b4" height="19.18672170013693" opacity="1" stroke-width="0" transform=" rotate(0, 134, 224)" width="14.672578827596954" x="127.41822075462008" y="214.42699706277745"/>
    <rect fill="#4682b4" height="13.298728044912815" opacity="1" stroke-width="0" transform=" rotate(0, 159, 215)" width="19.141355014616494" x="150.18383266111033" y="208.5542151060024"/>
    <rect fill="#4682b4" height="15.489830799496964" opacity="1" stroke-width="0" transform=" rotate(0, 184, 209)" width="16.200469706141476" x="176.65427531534783" y="202.0095947686701"/>
    <rect fill="#4682b4" height="17.989295963412765" opacity="1" stroke-width="0" transform=" rotate(0, 209, 209)" width="16.029759783856043" x="201.73963027649054" y="200.7598621867122"/>
  </g>
</svg>
