<?xml version='1.0' encoding='ASCII' standalone='yes'?>
<svg xmlns="http://www.w3.org/2000/svg" xmlns:xlink="http://www.w3.org/1999/xlink" version="1.1" width="125.0px" viewBox="0 0 125.0 125.0" height="125.0px">
  <g>
    <g transform="translate(0, 0) scale(0.5 0.5) "><defs/>
  <g transform=" rotate(0, 125, 125)">
    <rect fill="none" height="250" width="250" x="0" y="0"/>
    <rect fill="#32cd32" height="40" opacity="1" stroke-width="0" transform=" rotate(-45, 35, 35)" width="5" x="32.5" y="15.0"/>
    <rect fill="#32cd32" height="40" opacity="1" stroke-width="0" transform=" rotate(-30, 80, 35)" width="5" x="77.5" y="15.0"/>
    <rect fill="#32cd32" height="40" opacity="1" stroke-width="0" transform=" rotate(0, 125, 35)" width="5" x="122.5" y="15.0"/>
    <rect fill="#32cd32" height="40" opacity="1" stroke-width="0" transform=" rotate(30, 170, 35)" width="5" x="167.5" y="15.0"/>
    <rect fill="#32cd32" height="40" opacity="1" stroke-width="0" transform=" rotate(45, 215, 35)" width="5" x="212.5" y="15.0"/>
    <rect fill="#37c76b" height="40" opacity="1" stroke-width="0" transform=" rotate(-60, 35, 80)" width="5" x="32.5" y="60.0"/>
    <rect fill="#37c76b" height="40" opacity="1" stroke-width="0" transform=" rotate(-75, 80, 80)" width="5" x="77.5" y="60.0"/>
    <rect fill="#37c76b" height="40" opacity="1" stroke-width="0" transform=" rotate(90, 125, 80)" width="5" x="122.5" y="60.0"/>
    <rect fill="#37c76b" height="40" opacity="1" stroke-width="0" transform=" rotate(75, 170, 80)" width="5" x="167.5" y="60.0"/>
    <rect fill="#37c76b" height="40" opacity="1" stroke-width="0" transform=" rotate(60, 215, 80)" width="5" x="212.5" y="60.0"/>
    <rect fill="#3cc09c" height="40" opacity="1" stroke-width="0" transform=" rotate(0, 35, 125)" width="5" x="32.5" y="105.0">
      <animateTransform additive="sum" attributeName="transform" begin="click" dur="4s" from="0 35.0 125.0" to="360 35.0 125.0" type="rotate"/>
    </rect>
    <rect fill="#3cc09c" height="40" opacity="1" stroke-width="0" transform=" rotate(0, 80, 125)" width="5" x="77.5" y="105.0">
      <animateTransform attributeName="transform" dur="4s" from="0 80.0 125.0" repeatCount="indefinite" to="360 80.0 125.0" type="rotate"/>
    </rect>
    <rect fill="#3cc09c" height="40" opacity="1" stroke-width="0" transform=" rotate(360, 125, 125)" width="5" x="122.5" y="105.0">
      <animateTransform attributeName="transform" dur="8s" from="360 125.0 125.0" repeatCount="indefinite" to="0 125.0 125.0" type="rotate"/>
    </rect>
    <rect fill="#3cc09c" height="40" opacity="1" stroke-width="0" transform=" rotate(0, 170, 125)" width="5" x="167.5" y="105.0">
      <animateTransform attributeName="transform" dur="4s" from="0 170.0 125.0" repeatCount="indefinite" to="360 170.0 125.0" type="rotate"/>
    </rect>
    <rect fill="#3cc09c" height="40" opacity="1" stroke-width="0" transform=" rotate(0, 215, 125)" width="5" x="212.5" y="105.0">
      <animateTransform additive="sum" attributeName="transform" begin="click" dur="4s" from="0 215.0 125.0" to="360 215.0 125.0" type="rotate"/>
    </rect>
    <rect fill="#41afba" height="40" opacity="1" stroke-width="0" transform=" rotate(60, 35, 170)" width="5" x="32.5" y="150.0"/>
    <rect fill="#41afba" height="40" opacity="1" stroke-width="0" transform=" rotate(75, 80, 170)" width="5" x="77.5" y="150.0"/>
    <rect fill="#41afba" height="40" opacity="1" stroke-width="0" transform=" rotate(90, 125, 170)" width="5" x="122.5" y="150.0"/>
    <rect fill="#41afba" height="40" opacity="1" stroke-width="0" transform=" rotate(-75, 170, 170)" width="5" x="167.5" y="150.0"/>
    <rect fill="#41afba" height="40" opacity="1" stroke-width="0" transform=" rotate(-60, 215, 170)" width="5" x="212.5" y="150.0"/>
    <rect fill="#4682b4" height="40" opacity="1" stroke-width="0" transform=" rotate(45, 35, 215)" width="5" x="32.5" y="195.0"/>
    <rect fill="#4682b4" height="40" opacity="1" stroke-width="0" transform=" rotate(30, 80, 215)" width="5" x="77.5" y="195.0"/>
    <rect fill="#4682b4" height="40" opacity="1" stroke-width="0" transform=" rotate(0, 125, 215)" width="5" x="122.5" y="195.0"/>
    <rect fill="#4682b4" height="40" opacity="1" stroke-width="0" transform=" rotate(-30, 170, 215)" width="5" x="167.5" y="195.0"/>
    <rect fill="#4682b4" height="40" opacity="1" stroke-width="0" transform=" rotate(-45, 215, 215)" width="5" x="212.5" y="195.0"/>
  </g>
</g>
  </g>
</svg>
