<?xml version='1.0' encoding='ASCII' standalone='yes'?>
<svg xmlns="http://www.w3.org/2000/svg" xmlns:xlink="http://www.w3.org/1999/xlink" version="1.1" width="125.0px" viewBox="0 0 125.0 125.0" height="125.0px">
  <g>
    <g transform="translate(0, 0) scale(0.5 0.5) "><defs/>
  <g transform=" rotate(0, 125, 125)">
    <rect fill="white" height="250" width="250" x="0" y="0"/>
    <polygon fill="dodgerblue" opacity="1" points="192.90779743157634,139.4927945797458 187.60449657267725,141.68949372084668 185.40779743157634,146.9927945797458 187.60449657267722,152.2960954386449 192.90779743157634,154.4927945797458 198.21109829047543,152.29609543864493 200.40779743157634,146.9927945797458 198.21109829047546,141.6894937208467" stroke-width="0" transform=" rotate(0, 192, 146)"/>
    <polygon fill="dodgerblue" opacity="1" points="187.231059155681,159.03555578029716 181.92775829678192,161.23225492139804 179.731059155681,166.53555578029716 181.9277582967819,171.83885663919625 187.231059155681,174.03555578029716 192.5343600145801,171.83885663919628 194.731059155681,166.53555578029716 192.53436001458013,161.23225492139807" stroke-width="0" transform=" rotate(0, 187, 166)"/>
    <polygon fill="dodgerblue" opacity="1" points="194.40888324681873,187.0560297355208 189.10558238791964,189.2527288766217 186.90888324681873,194.5560297355208 189.1055823879196,199.8593305944199 194.40888324681873,202.0560297355208 199.71218410571782,199.85933059441993 201.90888324681873,194.5560297355208 199.71218410571785,189.25272887662172" stroke-width="0" transform=" rotate(0, 194, 194)"/>
    <polygon fill="dodgerblue" opacity="1" points="192.2096800207552,209.813159048986 186.9063791618561,212.00985819008687 184.7096800207552,217.313159048986 186.90637916185608,222.6164599078851 192.2096800207552,224.813159048986 197.5129808796543,222.61645990788512 199.7096800207552,217.313159048986 197.51298087965432,212.0098581900869" stroke-width="0" transform=" rotate(0, 192, 217)"/>
    <polygon fill="dodgerblue" opacity="1" points="175.0405726896114,220.28610667018188 169.7372718307123,222.48280581128276 167.5405726896114,227.78610667018188 169.73727183071227,233.08940752908097 175.0405726896114,235.28610667018188 180.3438735485105,233.089407529081 182.5405726896114,227.78610667018188 180.34387354851052,222.4828058112828" stroke-width="0" transform=" rotate(0, 175, 227)"/>
    <polygon fill="dodgerblue" opacity="1" points="155.52540038918656,212.69171516634987 150.22209953028747,214.88841430745074 148.02540038918656,220.19171516634987 150.22209953028744,225.49501602524896 155.52540038918656,227.69171516634987 160.82870124808565,225.495016025249 163.02540038918656,220.19171516634987 160.82870124808568,214.88841430745077" stroke-width="0" transform=" rotate(0, 155, 220)"/>
    <polygon fill="dodgerblue" opacity="1" points="133.91050894391938,188.5181198475746 128.6072080850203,190.7148189886755 126.41050894391938,196.0181198475746 128.60720808502026,201.3214207064737 133.91050894391938,203.5181198475746 139.21380980281847,201.32142070647373 141.41050894391938,196.0181198475746 139.2138098028185,190.71481898867552" stroke-width="0" transform=" rotate(0, 133, 196)"/>
    <polygon fill="dodgerblue" opacity="1" points="114.30907847737814,178.95704049094286 109.00577761847903,181.15373963204374 106.80907847737814,186.45704049094286 109.00577761847903,191.76034134984195 114.30907847737814,193.95704049094286 119.61237933627724,191.76034134984198 121.80907847737814,186.45704049094286 119.61237933627724,181.15373963204377" stroke-width="0" transform=" rotate(0, 114, 186)"/>
    <polygon fill="dodgerblue" opacity="1" points="97.58929245954997,196.94503305961294 92.28599160065086,199.14173220071382 90.08929245954997,204.44503305961294 92.28599160065086,209.74833391851203 97.58929245954997,211.94503305961294 102.89259331844907,209.74833391851206 105.08929245954997,204.44503305961294 102.89259331844907,199.14173220071385" stroke-width="0" transform=" rotate(0, 97, 204)"/>
    <polygon fill="dodgerblue" opacity="1" points="87.69276827911283,188.74134304792824 82.38946742021372,190.93804218902912 80.19276827911283,196.24134304792824 82.38946742021372,201.54464390682733 87.69276827911283,203.74134304792824 92.99606913801193,201.54464390682736 95.19276827911283,196.24134304792824 92.99606913801193,190.93804218902915" stroke-width="0" transform=" rotate(0, 87, 196)"/>
    <polygon fill="dodgerblue" opacity="1" points="80.14007722349868,163.55707281991167 74.83677636459957,165.75377196101255 72.64007722349868,171.05707281991167 74.83677636459957,176.36037367881076 80.14007722349868,178.55707281991167 85.44337808239779,176.3603736788108 87.64007722349868,171.05707281991167 85.44337808239779,165.75377196101257" stroke-width="0" transform=" rotate(0, 80, 171)"/>
    <polygon fill="dodgerblue" opacity="1" points="61.1546632046247,158.43906369796036 55.85136234572559,160.63576283906124 53.6546632046247,165.93906369796036 55.85136234572559,171.24236455685946 61.1546632046247,173.43906369796036 66.4579640635238,171.24236455685948 68.6546632046247,165.93906369796036 66.4579640635238,160.63576283906127" stroke-width="0" transform=" rotate(0, 61, 165)"/>
    <polygon fill="dodgerblue" opacity="1" points="35.80837894193105,149.4502822570304 30.505078083031947,151.6469813981313 28.308378941931053,156.9502822570304 30.505078083031947,162.2535831159295 35.80837894193105,164.4502822570304 41.11167980083016,162.25358311592953 43.30837894193105,156.9502822570304 41.11167980083017,151.64698139813132" stroke-width="0" transform=" rotate(0, 35, 156)"/>
    <polygon fill="dodgerblue" opacity="1" points="37.15421629373468,132.00025031016878 31.85091543483557,134.19694945126966 29.654216293734677,139.50025031016878 31.85091543483557,144.80355116906787 37.15421629373468,147.00025031016878 42.457517152633784,144.8035511690679 44.65421629373468,139.50025031016878 42.45751715263379,134.1969494512697" stroke-width="0" transform=" rotate(0, 37, 139)"/>
    <polygon fill="dodgerblue" opacity="1" points="47.79490608385317,114.78618353819334 42.491605224954064,116.98288267929424 40.29490608385317,122.28618353819334 42.491605224954064,127.58948439709245 47.79490608385317,129.78618353819334 53.09820694275228,127.58948439709245 55.29490608385317,122.28618353819334 53.098206942752284,116.98288267929424" stroke-width="0" transform=" rotate(0, 47, 122)"/>
    <polygon fill="dodgerblue" opacity="1" points="35.79562072304223,91.60278127853064 30.49231986414312,93.79948041963154 28.295620723042227,99.10278127853064 30.49231986414312,104.40608213742975 35.79562072304223,106.60278127853064 41.09892158194133,104.40608213742975 43.29562072304223,99.10278127853064 41.09892158194134,93.79948041963154" stroke-width="0" transform=" rotate(0, 35, 99)"/>
    <polygon fill="dodgerblue" opacity="1" points="20.388423915029705,67.53861526644975 15.085123056130598,69.73531440755065 12.888423915029705,75.03861526644975 15.085123056130598,80.34191612534886 20.3884239150297,82.53861526644975 25.69172477392881,80.34191612534886 27.888423915029705,75.03861526644975 25.69172477392882,69.73531440755065" stroke-width="0" transform=" rotate(0, 20, 75)"/>
    <polygon fill="dodgerblue" opacity="1" points="37.96814399557377,60.25873130304345 32.66484313667466,62.45543044414434 30.46814399557377,67.75873130304345 32.66484313667466,73.06203216194255 37.96814399557377,75.25873130304345 43.271444854472875,73.06203216194255 45.46814399557377,67.75873130304345 43.27144485447288,62.45543044414435" stroke-width="0" transform=" rotate(0, 37, 67)"/>
    <polygon fill="dodgerblue" opacity="1" points="62.798392188332954,63.738204096366346 57.49509132943385,65.93490323746724 55.298392188332954,71.23820409636635 57.49509132943385,76.54150495526545 62.798392188332954,78.73820409636635 68.10169304723206,76.54150495526545 70.29839218833295,71.23820409636635 68.10169304723206,65.93490323746724" stroke-width="0" transform=" rotate(0, 62, 71)"/>
    <polygon fill="dodgerblue" opacity="1" points="83.37400134251604,73.43171484655112 78.07070048361693,75.62841398765201 75.87400134251604,80.93171484655112 78.07070048361693,86.23501570545022 83.37400134251604,88.43171484655112 88.67730220141515,86.23501570545022 90.87400134251604,80.93171484655112 88.67730220141515,75.62841398765201" stroke-width="0" transform=" rotate(0, 83, 80)"/>
    <polygon fill="dodgerblue" opacity="1" points="101.6341688844764,72.4609424281094 96.33086802557729,74.6576415692103 94.1341688844764,79.9609424281094 96.33086802557729,85.26424328700851 101.6341688844764,87.4609424281094 106.9374697433755,85.26424328700851 109.1341688844764,79.9609424281094 106.9374697433755,74.6576415692103" stroke-width="0" transform=" rotate(0, 101, 79)"/>
    <polygon fill="dodgerblue" opacity="1" points="114.87187787500744,45.601140485327086 109.56857701610834,47.79783962642798 107.37187787500744,53.101140485327086 109.56857701610834,58.40444134422619 114.87187787500744,60.601140485327086 120.17517873390655,58.40444134422619 122.37187787500744,53.101140485327086 120.17517873390655,47.79783962642799" stroke-width="0" transform=" rotate(0, 114, 53)"/>
    <polygon fill="dodgerblue" opacity="1" points="129.18714576345985,24.974538927934965 123.88384490456075,27.17123806903586 121.68714576345985,32.474538927934965 123.88384490456075,37.77783978683407 129.18714576345985,39.974538927934965 134.49044662235895,37.77783978683407 136.68714576345985,32.474538927934965 134.49044662235897,27.171238069035866" stroke-width="0" transform=" rotate(0, 129, 32)"/>
    <polygon fill="dodgerblue" opacity="1" points="148.9722792104212,20.677340679169458 143.6689783515221,22.87403982027035 141.4722792104212,28.177340679169458 143.66897835152207,33.48064153806856 148.9722792104212,35.67734067916946 154.27558006932028,33.48064153806857 156.4722792104212,28.17734067916946 154.2755800693203,22.874039820270358" stroke-width="0" transform=" rotate(0, 148, 28)"/>
    <polygon fill="dodgerblue" opacity="1" points="172.3371147201374,25.236003228348267 167.03381386123831,27.43270236944916 164.8371147201374,32.73600322834827 167.0338138612383,38.03930408724737 172.3371147201374,40.23600322834827 177.6404155790365,38.03930408724737 179.8371147201374,32.73600322834827 177.64041557903653,27.432702369449167" stroke-width="0" transform=" rotate(0, 172, 32)"/>
    <polygon fill="dodgerblue" opacity="1" points="195.03424256140593,34.93185088660882 189.73094170250684,37.128550027709714 187.53424256140593,42.43185088660882 189.7309417025068,47.73515174550793 195.03424256140593,49.93185088660882 200.33754342030502,47.73515174550793 202.53424256140593,42.43185088660882 200.33754342030505,37.12855002770972" stroke-width="0" transform=" rotate(0, 195, 42)"/>
    <polygon fill="dodgerblue" opacity="1" points="211.59979655582026,51.580419493300475 206.29649569692117,53.77711863440137 204.09979655582026,59.080419493300475 206.29649569692114,64.38372035219957 211.59979655582026,66.58041949330047 216.90309741471935,64.38372035219959 219.09979655582026,59.080419493300475 216.90309741471938,53.777118634401376" stroke-width="0" transform=" rotate(0, 211, 59)"/>
    <polygon fill="dodgerblue" opacity="1" points="219.94962753412398,74.35792254092715 214.64632667522488,76.55462168202804 212.44962753412398,81.85792254092715 214.64632667522486,87.16122339982626 219.94962753412398,89.35792254092715 225.25292839302307,87.16122339982626 227.44962753412398,81.85792254092715 225.2529283930231,76.55462168202804" stroke-width="0" transform=" rotate(0, 219, 81)"/>
    <polygon fill="dodgerblue" opacity="1" points="217.4562775511687,97.731007497889 212.15297669226962,99.92770663898989 209.9562775511687,105.231007497889 212.1529766922696,110.5343083567881 217.4562775511687,112.731007497889 222.7595784100678,110.5343083567881 224.9562775511687,105.231007497889 222.75957841006783,99.92770663898989" stroke-width="0" transform=" rotate(0, 217, 105)"/>
    <polygon fill="dodgerblue" opacity="1" points="205.75560433825288,121.10903699103866 200.4523034793538,123.30573613213956 198.25560433825288,128.60903699103866 200.45230347935376,133.91233784993776 205.75560433825288,136.10903699103866 211.05890519715197,133.91233784993778 213.25560433825288,128.60903699103866 211.058905197152,123.30573613213956" stroke-width="0" transform=" rotate(0, 205, 128)"/>
  </g>
</g>
  </g>
</svg>
