<?xml version='1.0' encoding='ASCII' standalone='yes'?>
<svg xmlns="http://www.w3.org/2000/svg" xmlns:xlink="http://www.w3.org/1999/xlink" version="1.1" width="125.0px" viewBox="0 0 125.0 125.0" height="125.0px">
  <g>
    <g transform="translate(0, 0) scale(0.5 0.5) "><defs/>
  <g transform=" rotate(0, 125, 125)">
    <rect fill="white" height="250" width="250" x="0" y="0"/>
    <rect fill="#6dd6ff" height="22" opacity="1" stroke-width="0" transform=" rotate(0, 37, 37)" width="22" x="26.5" y="26.5"/>
    <rect fill="#6dd6ff" height="22" opacity="1" stroke-width="0" transform=" rotate(0, 72, 37)" width="22" x="61.5" y="26.5"/>
    <rect fill="#6dd6ff" height="22" opacity="1" stroke-width="0" transform=" rotate(0, 107, 37)" width="22" x="96.5" y="26.5"/>
    <rect fill="#6dd6ff" height="22" opacity="1" stroke-width="0" transform=" rotate(0, 142, 37)" width="22" x="131.5" y="26.5"/>
    <rect fill="#6dd6ff" height="22" opacity="1" stroke-width="0" transform=" rotate(0, 177, 37)" width="22" x="166.5" y="26.5"/>
    <rect fill="#6dd6ff" height="22" opacity="1" stroke-width="0" transform=" rotate(0, 212, 37)" width="22" x="201.5" y="26.5"/>
    <rect fill="#6dd6ff" height="22" opacity="1" stroke-width="0" transform=" rotate(0, 37, 72)" width="22" x="26.5" y="61.5"/>
    <rect fill="#6dd6ff" height="22" opacity="1" stroke-width="0" transform=" rotate(0, 72, 72)" width="22" x="61.5" y="61.5"/>
    <rect fill="#6dd6ff" height="22" opacity="1" stroke-width="0" transform=" rotate(0, 107, 72)" width="22" x="96.5" y="61.5"/>
    <rect fill="#6dd6ff" height="22" opacity="1" stroke-width="0" transform=" rotate(0, 142, 72)" width="22" x="131.5" y="61.5"/>
    <rect fill="#6dd6ff" height="22" opacity="1" stroke-width="0" transform=" rotate(0, 177, 72)" width="22" x="166.5" y="61.5"/>
    <rect fill="#6dd6ff" height="22" opacity="1" stroke-width="0" transform=" rotate(0, 212, 72)" width="22" x="201.5" y="61.5"/>
    <ellipse cx="37.5" cy="107.5" fill="#1b9fd8" opacity="1" rx="11.0" ry="11.0" stroke-width="0" transform=" rotate(0, 37, 107)"/>
    <ellipse cx="72.5" cy="107.5" fill="#1b9fd8" opacity="1" rx="11.0" ry="11.0" stroke-width="0" transform=" rotate(0, 72, 107)"/>
    <ellipse cx="107.5" cy="107.5" fill="#1b9fd8" opacity="1" rx="11.0" ry="11.0" stroke-width="0" transform=" rotate(0, 107, 107)"/>
    <ellipse cx="142.5" cy="107.5" fill="#1b9fd8" opacity="1" rx="11.0" ry="11.0" stroke-width="0" transform=" rotate(0, 142, 107)"/>
    <ellipse cx="177.5" cy="107.5" fill="#1b9fd8" opacity="1" rx="11.0" ry="11.0" stroke-width="0" transform=" rotate(0, 177, 107)"/>
    <ellipse cx="212.5" cy="107.5" fill="#1b9fd8" opacity="1" rx="11.0" ry="11.0" stroke-width="0" transform=" rotate(0, 212, 107)"/>
    <ellipse cx="37.5" cy="142.5" fill="#1b9fd8" opacity="1" rx="11.0" ry="11.0" stroke-width="0" transform=" rotate(0, 37, 142)"/>
    <ellipse cx="72.5" cy="142.5" fill="#1b9fd8" opacity="1" rx="11.0" ry="11.0" stroke-width="0" transform=" rotate(0, 72, 142)"/>
    <ellipse cx="107.5" cy="142.5" fill="#1b9fd8" opacity="1" rx="11.0" ry="11.0" stroke-width="0" transform=" rotate(0, 107, 142)"/>
    <ellipse cx="142.5" cy="142.5" fill="#1b9fd8" opacity="1" rx="11.0" ry="11.0" stroke-width="0" transform=" rotate(0, 142, 142)"/>
    <ellipse cx="177.5" cy="142.5" fill="#1b9fd8" opacity="1" rx="11.0" ry="11.0" stroke-width="0" transform=" rotate(0, 177, 142)"/>
    <ellipse cx="212.5" cy="142.5" fill="#1b9fd8" opacity="1" rx="11.0" ry="11.0" stroke-width="0" transform=" rotate(0, 212, 142)"/>
    <polygon fill="#006ca1" opacity="1" points="26.5,188.5 37.5,166.5 48.5,188.5" stroke-width="0" transform=" rotate(0, 37, 177)"/>
    <polygon fill="#006ca1" opacity="1" points="61.5,188.5 72.5,166.5 83.5,188.5" stroke-width="0" transform=" rotate(0, 72, 177)"/>
    <polygon fill="#006ca1" opacity="1" points="96.5,188.5 107.5,166.5 118.5,188.5" stroke-width="0" transform=" rotate(0, 107, 177)"/>
    <polygon fill="#006ca1" opacity="1" points="131.5,188.5 142.5,166.5 153.5,188.5" stroke-width="0" transform=" rotate(0, 142, 177)"/>
    <polygon fill="#006ca1" opacity="1" points="166.5,188.5 177.5,166.5 188.5,188.5" stroke-width="0" transform=" rotate(0, 177, 177)"/>
    <polygon fill="#006ca1" opacity="1" points="201.5,188.5 212.5,166.5 223.5,188.5" stroke-width="0" transform=" rotate(0, 212, 177)"/>
    <polygon fill="#006ca1" opacity="1" points="26.5,223.5 37.5,201.5 48.5,223.5" stroke-width="0" transform=" rotate(0, 37, 212)"/>
    <polygon fill="#006ca1" opacity="1" points="61.5,223.5 72.5,201.5 83.5,223.5" stroke-width="0" transform=" rotate(0, 72, 212)"/>
    <polygon fill="#006ca1" opacity="1" points="96.5,223.5 107.5,201.5 118.5,223.5" stroke-width="0" transform=" rotate(0, 107, 212)"/>
    <polygon fill="#006ca1" opacity="1" points="131.5,223.5 142.5,201.5 153.5,223.5" stroke-width="0" transform=" rotate(0, 142, 212)"/>
    <polygon fill="#006ca1" opacity="1" points="166.5,223.5 177.5,201.5 188.5,223.5" stroke-width="0" transform=" rotate(0, 177, 212)"/>
    <polygon fill="#006ca1" opacity="1" points="201.5,223.5 212.5,201.5 223.5,223.5" stroke-width="0" transform=" rotate(0, 212, 212)"/>
  </g>
</g>
  </g>
</svg>
