<?xml version='1.0' encoding='ASCII' standalone='yes'?>
<svg xmlns="http://www.w3.org/2000/svg" xmlns:xlink="http://www.w3.org/1999/xlink" version="1.1" width="125.0px" viewBox="0 0 125.0 125.0" height="125.0px">
  <g>
    <g transform="translate(0, 0) scale(0.5 0.5) "><defs/>
  <g transform=" rotate(0, 125, 125)">
    <rect fill="white" height="250" width="250" x="0" y="0"/>
    <ellipse cx="80.0" cy="80.0" fill="#1b9fd8" opacity="1" rx="17.5" ry="17.5" stroke-width="0" transform=" rotate(0, 80, 80)"/>
    <ellipse cx="125.0" cy="80.0" fill="#1b9fd8" opacity="1" rx="12.5" ry="12.5" stroke-width="0" transform=" rotate(0, 125, 80)"/>
    <ellipse cx="170.0" cy="80.0" fill="#1b9fd8" opacity="1" rx="17.5" ry="17.5" stroke-width="0" transform=" rotate(0, 170, 80)"/>
    <ellipse cx="80.0" cy="125.0" fill="#1b9fd8" opacity="1" rx="17.5" ry="17.5" stroke-width="0" transform=" rotate(0, 80, 125)"/>
    <ellipse cx="125.0" cy="125.0" fill="#1b9fd8" opacity="1" rx="12.5" ry="12.5" stroke-width="0" transform=" rotate(0, 125, 125)"/>
    <ellipse cx="170.0" cy="125.0" fill="#1b9fd8" opacity="1" rx="17.5" ry="17.5" stroke-width="0" transform=" rotate(0, 170, 125)"/>
    <ellipse cx="80.0" cy="170.0" fill="#1b9fd8" opacity="1" rx="17.5" ry="17.5" stroke-width="0" transform=" rotate(0, 80, 170)"/>
    <ellipse cx="125.0" cy="170.0" fill="#1b9fd8" opacity="1" rx="12.5" ry="12.5" stroke-width="0" transform=" rotate(0, 125, 170)"/>
    <ellipse cx="170.0" cy="170.0" fill="#1b9fd8" opacity="1" rx="17.5" ry="17.5" stroke-width="0" transform=" rotate(0, 170, 170)"/>
  </g>
</g>
  </g>
</svg>
