<?xml version='1.0' encoding='ASCII' standalone='yes'?>
<svg xmlns="http://www.w3.org/2000/svg" xmlns:xlink="http://www.w3.org/1999/xlink" version="1.1" width="125.0px" viewBox="0 0 125.0 125.0" height="125.0px">
  <g>
    <g transform="translate(0, 0) scale(0.5 0.5) "><defs/>
  <g transform=" rotate(0, 125, 125)">
    <rect fill="white" height="250" width="250" x="0" y="0"/>
    <rect fill="#4682b4" height="14.300919943288903" opacity="1" stroke-width="0" transform=" rotate(0, 24, 24)" width="19.034115301464333" x="14.5033002621137" y="16.869897941201444"/>
    <rect fill="#4682b4" height="17.79934887884325" opacity="1" stroke-width="0" transform=" rotate(0, 49, 32)" width="19.946404122272803" x="39.04715585170946" y="23.93746225781137"/>
    <rect fill="#4682b4" height="17.29267994024162" opacity="1" stroke-width="0" transform=" rotate(0, 74, 38)" width="15.116717685972548" x="66.46199906985959" y="29.63986568715239"/>
    <rect fill="#4682b4" height="12.9820320483103" opacity="1" stroke-width="0" transform=" rotate(0, 99, 38)" width="15.788969605670848" x="91.12587311001045" y="31.79518963311805"/>
    <rect fill="#4682b4" height="12.349292097068009" opacity="1" stroke-width="0" transform=" rotate(0, 124, 32)" width="13.743543464978707" x="117.14858618035652" y="26.662490648698988"/>
    <rect fill="#4682b4" height="14.272229633094458" opacity="1" stroke-width="0" transform=" rotate(0, 149, 24)" width="19.01923461628358" x="139.51074060470407" y="16.88424309629867"/>
    <rect fill="#4682b4" height="12.110521300698814" opacity="1" stroke-width="0" transform=" rotate(0, 174, 15)" width="13.92898783252987" x="167.05586399658094" y="9.148318478109394"/>
    <rect fill="#4682b4" height="18.953390159234498" opacity="1" stroke-width="0" transform=" rotate(0, 199, 9)" width="13.680886269067042" x="192.17991477831234" y="0.27781508880134353"/>
    <rect fill="#4682b4" height="17.91406331688518" opacity="1" stroke-width="0" transform=" rotate(0, 224, 9)" width="10.535347808135096" x="218.75268400877832" y="0.7974785099760009"/>
    <rect fill="#4682b4" height="14.017835776228651" opacity="1" stroke-width="0" transform=" rotate(0, 32, 49)" width="19.580524986351044" x="23.046874204057442" y="42.01144002473157"/>
    <rect fill="#41afba" height="17.864598061692824" opacity="1" stroke-width="0" transform=" rotate(0, 57, 57)" width="12.742794907431485" x="51.46573924351722" y="48.904837666386584"/>
    <rect fill="#41afba" height="11.749164307793894" opacity="1" stroke-width="0" transform=" rotate(0, 82, 63)" width="19.4754233740422" x="73.09942501021186" y="57.411623503376255"/>
    <rect fill="#41afba" height="11.762915361989645" opacity="1" stroke-width="0" transform=" rotate(0, 107, 63)" width="16.897342962543647" x="99.38846521596113" y="57.40474797627838"/>
    <rect fill="#41afba" height="16.345886720920504" opacity="1" stroke-width="0" transform=" rotate(0, 132, 57)" width="11.392394052626488" x="127.1409396709197" y="49.66419333677274"/>
    <rect fill="#41afba" height="11.546731904000277" opacity="1" stroke-width="0" transform=" rotate(0, 157, 49)" width="12.985038628607239" x="151.34461738292936" y="43.246991960845754"/>
    <rect fill="#41afba" height="15.775196235295232" opacity="1" stroke-width="0" transform=" rotate(0, 182, 40)" width="15.719726483849367" x="174.9772734553083" y="32.315981010811186"/>
    <rect fill="#41afba" height="17.067653126163584" opacity="1" stroke-width="0" transform=" rotate(0, 207, 34)" width="19.47412032578062" x="198.10007653434266" y="26.2206836053368"/>
    <rect fill="#4682b4" height="10.067871936811182" opacity="1" stroke-width="0" transform=" rotate(0, 232, 34)" width="12.848171230091658" x="226.41305108218714" y="29.720574200013"/>
    <rect fill="#4682b4" height="10.0438858458073" opacity="1" stroke-width="0" transform=" rotate(0, 38, 74)" width="17.481509538462554" x="29.545450888041895" y="68.99841498994225"/>
    <rect fill="#41afba" height="13.13129498313662" opacity="1" stroke-width="0" transform=" rotate(0, 63, 82)" width="12.468140497950852" x="57.052135408297744" y="76.27148920566468"/>
    <rect fill="#3cc09c" height="15.60036087210939" opacity="1" stroke-width="0" transform=" rotate(0, 88, 88)" width="19.918513529343272" x="78.32694889260154" y="80.48602522121851"/>
    <rect fill="#3cc09c" height="14.291851430364527" opacity="1" stroke-width="0" transform=" rotate(0, 113, 88)" width="12.047577313374866" x="107.26241700058574" y="81.14027994209094"/>
    <rect fill="#3cc09c" height="15.052595032056233" opacity="1" stroke-width="0" transform=" rotate(0, 138, 82)" width="18.265091302840087" x="129.15366000585314" y="75.31083918120487"/>
    <rect fill="#3cc09c" height="11.229699605156078" opacity="1" stroke-width="0" transform=" rotate(0, 163, 74)" width="10.201273534182196" x="158.18556889018208" y="68.40550811026786"/>
    <rect fill="#3cc09c" height="14.056549371929973" opacity="1" stroke-width="0" transform=" rotate(0, 188, 65)" width="11.408458529523262" x="182.58197639251154" y="58.17530444249381"/>
    <rect fill="#41afba" height="16.26761086863282" opacity="1" stroke-width="0" transform=" rotate(0, 213, 59)" width="14.073177352561201" x="206.24961698099258" y="51.62070473410218"/>
    <rect fill="#4682b4" height="14.780995006317667" opacity="1" stroke-width="0" transform=" rotate(0, 238, 59)" width="17.8356002906691" x="229.36840551193862" y="52.36401266525976"/>
    <rect fill="#4682b4" height="17.012850922481356" opacity="1" stroke-width="0" transform=" rotate(0, 38, 99)" width="15.029293212044816" x="30.77155905125076" y="90.51393245160521"/>
    <rect fill="#41afba" height="17.048710130929265" opacity="1" stroke-width="0" transform=" rotate(0, 63, 107)" width="19.99393252665134" x="53.289239393947504" y="99.31278163176836"/>
    <rect fill="#3cc09c" height="15.374278372631068" opacity="1" stroke-width="0" transform=" rotate(0, 88, 113)" width="15.640040700606534" x="80.4661853069699" y="105.59906647095767"/>
    <rect fill="#37c76b" height="11.025710715172874" opacity="1" stroke-width="0" transform=" rotate(0, 113, 113)" width="19.444613742389443" x="103.56389878607845" y="107.77335029968677"/>
    <rect fill="#37c76b" height="19.109022625648507" opacity="1" stroke-width="0" transform=" rotate(0, 138, 107)" width="15.10068427114415" x="130.7358635217011" y="98.28262538440873"/>
    <rect fill="#37c76b" height="19.967871925003784" opacity="1" stroke-width="0" transform=" rotate(0, 163, 99)" width="12.567694967400872" x="157.00235817357273" y="89.036421950344"/>
    <rect fill="#3cc09c" height="18.310895261146175" opacity="1" stroke-width="0" transform=" rotate(0, 188, 90)" width="18.58937857078631" x="178.99151637188" y="81.0481314978857"/>
    <rect fill="#41afba" height="10.062855444882947" opacity="1" stroke-width="0" transform=" rotate(0, 213, 84)" width="18.565604486193177" x="204.00340341417657" y="79.72308244597711"/>
    <rect fill="#4682b4" height="18.71750233655623" opacity="1" stroke-width="0" transform=" rotate(0, 238, 84)" width="14.643070611488623" x="230.96467035152887" y="75.39575900014047"/>
    <rect fill="#4682b4" height="10.854867336488077" opacity="1" stroke-width="0" transform=" rotate(0, 32, 124)" width="17.19742114756113" x="24.2384261234524" y="118.59292424460186"/>
    <rect fill="#41afba" height="16.049372337232413" opacity="1" stroke-width="0" transform=" rotate(0, 57, 132)" width="10.693552371840042" x="52.49036051131294" y="124.81245052861681"/>
    <rect fill="#3cc09c" height="18.637350731305254" opacity="1" stroke-width="0" transform=" rotate(0, 82, 138)" width="18.683457435840122" x="73.4954079793129" y="128.96753029162056"/>
    <rect fill="#37c76b" height="11.510602023937249" opacity="1" stroke-width="0" transform=" rotate(0, 107, 138)" width="12.904354738794407" x="101.38495932783576" y="132.5309046453046"/>
    <rect fill="#32cd32" height="13.668572485795798" opacity="1" stroke-width="0" transform=" rotate(0, 132, 132)" width="11.656294700689294" x="127.0089893468883" y="126.0028504543351"/>
    <rect fill="#37c76b" height="11.205013012540253" opacity="1" stroke-width="0" transform=" rotate(0, 157, 124)" width="14.015459775559071" x="150.82940680945345" y="118.41785140657576"/>
    <rect fill="#3cc09c" height="15.047876641325546" opacity="1" stroke-width="0" transform=" rotate(0, 182, 115)" width="19.036949471788674" x="173.31866196133865" y="107.67964080779602"/>
    <rect fill="#41afba" height="19.53351969193229" opacity="1" stroke-width="0" transform=" rotate(0, 207, 109)" width="11.163037431020676" x="202.25561798172265" y="99.98775032245244"/>
    <rect fill="#4682b4" height="12.354796945259288" opacity="1" stroke-width="0" transform=" rotate(0, 232, 109)" width="14.056725274023902" x="225.80877406022103" y="103.57711169578894"/>
    <rect fill="#4682b4" height="10.279794637521997" opacity="1" stroke-width="0" transform=" rotate(0, 24, 149)" width="15.131977154524051" x="16.454369335583845" y="143.8804605940849"/>
    <rect fill="#41afba" height="18.818406530386905" opacity="1" stroke-width="0" transform=" rotate(0, 49, 157)" width="14.543307831928235" x="41.74870399688175" y="148.42793343203957"/>
    <rect fill="#3cc09c" height="13.816178664958137" opacity="1" stroke-width="0" transform=" rotate(0, 74, 163)" width="14.236928832126056" x="66.90189349678283" y="156.37811632479412"/>
    <rect fill="#37c76b" height="18.73978389901928" opacity="1" stroke-width="0" transform=" rotate(0, 99, 163)" width="19.06805868968253" x="89.48632856800461" y="153.91631370776355"/>
    <rect fill="#37c76b" height="15.725489909117101" opacity="1" stroke-width="0" transform=" rotate(0, 124, 157)" width="18.79222969623832" x="114.62424306472671" y="149.97439174267447"/>
    <rect fill="#37c76b" height="17.87839184136179" opacity="1" stroke-width="0" transform=" rotate(0, 149, 149)" width="16.201487406353195" x="140.91961420966928" y="140.081161992165"/>
    <rect fill="#3cc09c" height="17.26973596975127" opacity="1" stroke-width="0" transform=" rotate(0, 174, 140)" width="19.304146415249747" x="164.368284705221" y="131.56871114358316"/>
    <rect fill="#41afba" height="18.35216779809056" opacity="1" stroke-width="0" transform=" rotate(0, 199, 134)" width="12.624409740961266" x="192.70815304236524" y="125.57842626937331"/>
    <rect fill="#4682b4" height="14.72920356764103" opacity="1" stroke-width="0" transform=" rotate(0, 224, 134)" width="13.760897460874801" x="217.13990918240847" y="127.38990838459807"/>
    <rect fill="#4682b4" height="14.78724844167288" opacity="1" stroke-width="0" transform=" rotate(0, 15, 174)" width="19.334455614722124" x="5.53635132109771" y="166.62673369200945"/>
    <rect fill="#41afba" height="10.324217775184625" opacity="1" stroke-width="0" transform=" rotate(0, 40, 182)" width="10.07272348275805" x="35.167217387079745" y="177.67502780964068"/>
    <rect fill="#3cc09c" height="16.003320637186878" opacity="1" stroke-width="0" transform=" rotate(0, 65, 188)" width="17.00002646311232" x="56.70356589690261" y="180.28454533867975"/>
    <rect fill="#3cc09c" height="13.334933589415563" opacity="1" stroke-width="0" transform=" rotate(0, 90, 188)" width="14.280964349105922" x="83.06309695390581" y="181.6187388625654"/>
    <rect fill="#3cc09c" height="11.660668720400764" opacity="1" stroke-width="0" transform=" rotate(0, 115, 182)" width="12.618083421034562" x="108.89453741794149" y="177.00680233703264"/>
    <rect fill="#3cc09c" height="19.521175720396215" opacity="1" stroke-width="0" transform=" rotate(0, 140, 174)" width="12.025326924770996" x="134.1909156660733" y="164.25977005264778"/>
    <rect fill="#3cc09c" height="15.385199632092872" opacity="1" stroke-width="0" transform=" rotate(0, 165, 165)" width="11.064526789044322" x="159.67131573393664" y="157.5109793124124"/>
    <rect fill="#41afba" height="19.873803615959662" opacity="1" stroke-width="0" transform=" rotate(0, 190, 159)" width="18.776792668539372" x="180.8151827941891" y="149.81760836043875"/>
    <rect fill="#4682b4" height="10.413201292947667" opacity="1" stroke-width="0" transform=" rotate(0, 215, 159)" width="19.22958780450291" x="205.58878522620734" y="154.54790952194475"/>
    <rect fill="#4682b4" height="12.359997027857197" opacity="1" stroke-width="0" transform=" rotate(0, 9, 199)" width="10.950147621828675" x="4.279436357504227" y="192.8403593989173"/>
    <rect fill="#41afba" height="13.221233965011331" opacity="1" stroke-width="0" transform=" rotate(0, 34, 207)" width="15.144921339536882" x="27.182049498650123" y="201.22651971472735"/>
    <rect fill="#41afba" height="13.22270170165121" opacity="1" stroke-width="0" transform=" rotate(0, 59, 213)" width="10.428819903799084" x="54.54010021651902" y="206.6748548064476"/>
    <rect fill="#41afba" height="11.852973881968332" opacity="1" stroke-width="0" transform=" rotate(0, 84, 213)" width="11.296718937366428" x="79.10615069973535" y="207.35971871628902"/>
    <rect fill="#41afba" height="10.17451134049865" opacity="1" stroke-width="0" transform=" rotate(0, 109, 207)" width="17.678214325227636" x="100.91540300580475" y="202.74988102698367"/>
    <rect fill="#41afba" height="18.35379700155289" opacity="1" stroke-width="0" transform=" rotate(0, 134, 199)" width="18.238648045267823" x="125.63518614578464" y="189.84345941206945"/>
    <rect fill="#41afba" height="13.504001299456796" opacity="1" stroke-width="0" transform=" rotate(0, 159, 190)" width="10.254826586934474" x="154.62709687495132" y="183.45157847873043"/>
    <rect fill="#41afba" height="19.411649135681415" opacity="1" stroke-width="0" transform=" rotate(0, 184, 184)" width="11.398833939330622" x="179.05509319875324" y="175.04868560057787"/>
    <rect fill="#4682b4" height="14.127111339188627" opacity="1" stroke-width="0" transform=" rotate(0, 209, 184)" width="17.744496239896353" x="200.88226204847038" y="177.69095449882428"/>
    <rect fill="#4682b4" height="14.229610728653212" opacity="1" stroke-width="0" transform=" rotate(0, 9, 224)" width="18.376121362778935" x="0.5664494870290948" y="216.9055525485193"/>
    <rect fill="#4682b4" height="18.246999016713126" opacity="1" stroke-width="0" transform=" rotate(0, 34, 232)" width="14.924875721072988" x="27.29207230788207" y="223.71363718887645"/>
    <rect fill="#4682b4" height="10.59483052241" opacity="1" stroke-width="0" transform=" rotate(0, 59, 238)" width="18.36688912434449" x="50.57106560624632" y="232.9887903960682"/>
    <rect fill="#4682b4" height="12.51547346950512" opacity="1" stroke-width="0" transform=" rotate(0, 84, 238)" width="12.82750057649443" x="78.34075988017135" y="232.02846892252063"/>
    <rect fill="#4682b4" height="13.630891277160627" opacity="1" stroke-width="0" transform=" rotate(0, 109, 232)" width="16.744266882944196" x="101.38237672694646" y="226.0216910586527"/>
    <rect fill="#4682b4" height="16.174572683531068" opacity="1" stroke-width="0" transform=" rotate(0, 134, 224)" width="18.092426763599477" x="125.70829678661883" y="215.93307157108035"/>
    <rect fill="#4682b4" height="12.452662769016062" opacity="1" stroke-width="0" transform=" rotate(0, 159, 215)" width="15.598874319704468" x="151.95507300856633" y="208.97724774395078"/>
    <rect fill="#4682b4" height="17.021701319691896" opacity="1" stroke-width="0" transform=" rotate(0, 184, 209)" width="12.60804649103936" x="178.45048692289888" y="201.24365950857265"/>
    <rect fill="#4682b4" height="16.061478106409304" opacity="1" stroke-width="0" transform=" rotate(0, 209, 209)" width="14.401151043545632" x="202.55393464664576" y="201.72377111521394"/>
  </g>
</g>
  </g>
</svg>
