<?xml version='1.0' encoding='ASCII' standalone='yes'?>
<svg xmlns="http://www.w3.org/2000/svg" xmlns:xlink="http://www.w3.org/1999/xlink" version="1.1" width="125.0px" viewBox="0 0 125.0 125.0" height="125.0px">
  <g>
    <g transform="translate(0, 0) scale(0.5 0.5) "><defs/>
  <g transform=" rotate(0, 125, 125)">
    <rect fill="white" height="250" width="250" x="0" y="0"/>
    <ellipse cx="85.0" cy="125.0" fill="dodgerblue" opacity="1" rx="10.0" ry="10.0" stroke-width="0" transform=" rotate(0, 85, 125)"/>
    <ellipse cx="94.35822227524088" cy="99.28849561253841" fill="dodgerblue" opacity="1" rx="10.0" ry="10.0" stroke-width="0" transform=" rotate(0, 94, 99)"/>
    <ellipse cx="118.05407289332278" cy="85.60768987951168" fill="dodgerblue" opacity="1" rx="10.0" ry="10.0" stroke-width="0" transform=" rotate(0, 118, 85)"/>
    <ellipse cx="145.0" cy="90.35898384862246" fill="dodgerblue" opacity="1" rx="10.0" ry="10.0" stroke-width="0" transform=" rotate(0, 145, 90)"/>
    <ellipse cx="162.58770483143633" cy="111.31919426697326" fill="dodgerblue" opacity="1" rx="10.0" ry="10.0" stroke-width="0" transform=" rotate(0, 162, 111)"/>
    <ellipse cx="162.58770483143633" cy="138.68080573302674" fill="dodgerblue" opacity="1" rx="10.0" ry="10.0" stroke-width="0" transform=" rotate(0, 162, 138)"/>
    <ellipse cx="145.0" cy="159.64101615137753" fill="dodgerblue" opacity="1" rx="10.0" ry="10.0" stroke-width="0" transform=" rotate(0, 145, 159)"/>
    <ellipse cx="118.05407289332278" cy="164.39231012048833" fill="dodgerblue" opacity="1" rx="10.0" ry="10.0" stroke-width="0" transform=" rotate(0, 118, 164)"/>
    <ellipse cx="94.35822227524088" cy="150.7115043874616" fill="dodgerblue" opacity="1" rx="10.0" ry="10.0" stroke-width="0" transform=" rotate(0, 94, 150)"/>
    <ellipse cx="125.0" cy="125.0" fill="orange" opacity="1" rx="20.0" ry="20.0" stroke-width="0" transform=" rotate(0, 125, 125)"/>
  </g>
</g>
  </g>
</svg>
