<?xml version='1.0' encoding='ASCII' standalone='yes'?>
<svg xmlns="http://www.w3.org/2000/svg" xmlns:xlink="http://www.w3.org/1999/xlink" version="1.1" width="125.0px" viewBox="0 0 125.0 125.0" height="125.0px">
  <g>
    <g transform="translate(0, 0) scale(0.5 0.5) "><defs/>
  <g transform=" rotate(0, 125, 125)">
    <rect fill="white" height="250" width="250" x="0" y="0"/>
    <rect fill="#32cd32" height="15" opacity="1" stroke-width="0" transform=" rotate(0, 89, 116)" width="15" x="82.18125" y="109.3625"/>
    <ellipse cx="103.68125" cy="150.8625" fill="#35ca50" opacity="1" rx="7.5" ry="7.5" stroke-width="0" transform=" rotate(0, 103, 150)"/>
    <rect fill="#37c76b" height="15" opacity="1" stroke-width="0" transform=" rotate(0, 79, 138)" width="15" x="72.18125" y="131.3625"/>
    <ellipse cx="63.681250000000006" cy="72.8625" fill="#3ac485" opacity="1" rx="7.5" ry="7.5" stroke-width="0" transform=" rotate(0, 63, 72)"/>
    <rect fill="#3cc09c" height="15" opacity="1" stroke-width="0" transform=" rotate(0, 130, 24)" width="15" x="123.18125" y="17.362499999999997"/>
    <ellipse cx="211.68125" cy="97.8625" fill="#3fbdb2" opacity="1" rx="7.5" ry="7.5" stroke-width="0" transform=" rotate(0, 211, 97)"/>
    <rect fill="#41afba" height="15" opacity="1" stroke-width="0" transform=" rotate(0, 27, 184)" width="15" x="20.181250000000006" y="177.3625"/>
    <ellipse cx="136.68125" cy="88.8625" fill="#4498b7" opacity="1" rx="7.5" ry="7.5" stroke-width="0" transform=" rotate(0, 136, 88)"/>
    <rect fill="#4682b4" height="15" opacity="1" stroke-width="0" transform=" rotate(0, 118, 202)" width="15" x="111.18125" y="195.3625"/>
    <ellipse cx="157.68125" cy="181.8625" fill="#32cd32" opacity="1" rx="7.5" ry="7.5" stroke-width="0" transform=" rotate(0, 157, 181)"/>
    <rect fill="#35ca50" height="15" opacity="1" stroke-width="0" transform=" rotate(0, 224, 77)" width="15" x="217.18125" y="70.3625"/>
    <ellipse cx="185.68125" cy="89.8625" fill="#37c76b" opacity="1" rx="7.5" ry="7.5" stroke-width="0" transform=" rotate(0, 185, 89)"/>
    <rect fill="#3ac485" height="15" opacity="1" stroke-width="0" transform=" rotate(0, 175, 94)" width="15" x="168.18125" y="87.3625"/>
    <ellipse cx="149.68125" cy="38.8625" fill="#3cc09c" opacity="1" rx="7.5" ry="7.5" stroke-width="0" transform=" rotate(0, 149, 38)"/>
    <rect fill="#3fbdb2" height="15" opacity="1" stroke-width="0" transform=" rotate(0, 148, 152)" width="15" x="141.18125" y="145.3625"/>
    <ellipse cx="149.68125" cy="86.8625" fill="#41afba" opacity="1" rx="7.5" ry="7.5" stroke-width="0" transform=" rotate(0, 149, 86)"/>
    <rect fill="#4498b7" height="15" opacity="1" stroke-width="0" transform=" rotate(0, 176, 184)" width="15" x="169.18125" y="177.3625"/>
    <ellipse cx="189.68125" cy="202.8625" fill="#4682b4" opacity="1" rx="7.5" ry="7.5" stroke-width="0" transform=" rotate(0, 189, 202)"/>
    <rect fill="#32cd32" height="15" opacity="1" stroke-width="0" transform=" rotate(0, 71, 211)" width="15" x="64.18125" y="204.3625"/>
    <ellipse cx="199.68125" cy="198.8625" fill="#35ca50" opacity="1" rx="7.5" ry="7.5" stroke-width="0" transform=" rotate(0, 199, 198)"/>
    <rect fill="#37c76b" height="15" opacity="1" stroke-width="0" transform=" rotate(0, 206, 134)" width="15" x="199.18125" y="127.36250000000001"/>
    <ellipse cx="84.68125" cy="28.862499999999997" fill="#3ac485" opacity="1" rx="7.5" ry="7.5" stroke-width="0" transform=" rotate(0, 84, 28)"/>
    <rect fill="#3cc09c" height="15" opacity="1" stroke-width="0" transform=" rotate(0, 115, 103)" width="15" x="108.18125" y="96.3625"/>
    <ellipse cx="210.68125" cy="23.862499999999997" fill="#3fbdb2" opacity="1" rx="7.5" ry="7.5" stroke-width="0" transform=" rotate(0, 210, 23)"/>
    <rect fill="#41afba" height="15" opacity="1" stroke-width="0" transform=" rotate(0, 185, 71)" width="15" x="178.18125" y="64.3625"/>
    <ellipse cx="49.681250000000006" cy="148.8625" fill="#4498b7" opacity="1" rx="7.5" ry="7.5" stroke-width="0" transform=" rotate(0, 49, 148)"/>
    <rect fill="#4682b4" height="15" opacity="1" stroke-width="0" transform=" rotate(0, 62, 183)" width="15" x="55.181250000000006" y="176.3625"/>
    <ellipse cx="25.681250000000006" cy="92.8625" fill="#32cd32" opacity="1" rx="7.5" ry="7.5" stroke-width="0" transform=" rotate(0, 25, 92)"/>
    <rect fill="#35ca50" height="15" opacity="1" stroke-width="0" transform=" rotate(0, 140, 44)" width="15" x="133.18125" y="37.3625"/>
    <ellipse cx="91.68125" cy="163.8625" fill="#37c76b" opacity="1" rx="7.5" ry="7.5" stroke-width="0" transform=" rotate(0, 91, 163)"/>
    <rect fill="#3ac485" height="15" opacity="1" stroke-width="0" transform=" rotate(0, 58, 50)" width="15" x="51.181250000000006" y="43.3625"/>
    <ellipse cx="115.68125" cy="75.8625" fill="#3cc09c" opacity="1" rx="7.5" ry="7.5" stroke-width="0" transform=" rotate(0, 115, 75)"/>
    <rect fill="#3fbdb2" height="15" opacity="1" stroke-width="0" transform=" rotate(0, 119, 139)" width="15" x="112.18125" y="132.3625"/>
    <ellipse cx="191.68125" cy="108.8625" fill="#41afba" opacity="1" rx="7.5" ry="7.5" stroke-width="0" transform=" rotate(0, 191, 108)"/>
    <rect fill="#4498b7" height="15" opacity="1" stroke-width="0" transform=" rotate(0, 38, 178)" width="15" x="31.181250000000006" y="171.3625"/>
    <ellipse cx="187.68125" cy="162.8625" fill="#4682b4" opacity="1" rx="7.5" ry="7.5" stroke-width="0" transform=" rotate(0, 187, 162)"/>
    <rect fill="#32cd32" height="15" opacity="1" stroke-width="0" transform=" rotate(0, 198, 34)" width="15" x="191.18125" y="27.362499999999997"/>
    <ellipse cx="29.681250000000006" cy="102.8625" fill="#35ca50" opacity="1" rx="7.5" ry="7.5" stroke-width="0" transform=" rotate(0, 29, 102)"/>
    <rect fill="#37c76b" height="15" opacity="1" stroke-width="0" transform=" rotate(0, 127, 58)" width="15" x="120.18125" y="51.3625"/>
    <ellipse cx="30.681250000000006" cy="165.8625" fill="#3ac485" opacity="1" rx="7.5" ry="7.5" stroke-width="0" transform=" rotate(0, 30, 165)"/>
    <rect fill="#3cc09c" height="15" opacity="1" stroke-width="0" transform=" rotate(0, 193, 154)" width="15" x="186.18125" y="147.3625"/>
    <ellipse cx="183.68125" cy="217.8625" fill="#3fbdb2" opacity="1" rx="7.5" ry="7.5" stroke-width="0" transform=" rotate(0, 183, 217)"/>
    <rect fill="#41afba" height="15" opacity="1" stroke-width="0" transform=" rotate(0, 84, 128)" width="15" x="77.18125" y="121.36250000000001"/>
    <ellipse cx="220.68125" cy="183.8625" fill="#4498b7" opacity="1" rx="7.5" ry="7.5" stroke-width="0" transform=" rotate(0, 220, 183)"/>
    <rect fill="#4682b4" height="15" opacity="1" stroke-width="0" transform=" rotate(0, 102, 95)" width="15" x="95.18125" y="88.3625"/>
    <ellipse cx="58.681250000000006" cy="193.8625" fill="#32cd32" opacity="1" rx="7.5" ry="7.5" stroke-width="0" transform=" rotate(0, 58, 193)"/>
    <rect fill="#35ca50" height="15" opacity="1" stroke-width="0" transform=" rotate(0, 92, 90)" width="15" x="85.18125" y="83.3625"/>
    <ellipse cx="118.68125" cy="49.8625" fill="#37c76b" opacity="1" rx="7.5" ry="7.5" stroke-width="0" transform=" rotate(0, 118, 49)"/>
    <rect fill="#3ac485" height="15" opacity="1" stroke-width="0" transform=" rotate(0, 146, 68)" width="15" x="139.18125" y="61.3625"/>
    <ellipse cx="72.68125" cy="222.8625" fill="#3cc09c" opacity="1" rx="7.5" ry="7.5" stroke-width="0" transform=" rotate(0, 72, 222)"/>
    <rect fill="#3fbdb2" height="15" opacity="1" stroke-width="0" transform=" rotate(0, 122, 176)" width="15" x="115.18125" y="169.3625"/>
    <ellipse cx="74.68125" cy="174.8625" fill="#41afba" opacity="1" rx="7.5" ry="7.5" stroke-width="0" transform=" rotate(0, 74, 174)"/>
    <rect fill="#4498b7" height="15" opacity="1" stroke-width="0" transform=" rotate(0, 164, 33)" width="15" x="157.18125" y="26.362499999999997"/>
    <ellipse cx="163.68125" cy="117.8625" fill="#4682b4" opacity="1" rx="7.5" ry="7.5" stroke-width="0" transform=" rotate(0, 163, 117)"/>
    <rect fill="#32cd32" height="15" opacity="1" stroke-width="0" transform=" rotate(0, 158, 154)" width="15" x="151.18125" y="147.3625"/>
    <ellipse cx="144.68125" cy="120.8625" fill="#35ca50" opacity="1" rx="7.5" ry="7.5" stroke-width="0" transform=" rotate(0, 144, 120)"/>
    <rect fill="#37c76b" height="15" opacity="1" stroke-width="0" transform=" rotate(0, 84, 201)" width="15" x="77.18125" y="194.3625"/>
    <ellipse cx="133.68125" cy="177.8625" fill="#3ac485" opacity="1" rx="7.5" ry="7.5" stroke-width="0" transform=" rotate(0, 133, 177)"/>
    <rect fill="#3cc09c" height="15" opacity="1" stroke-width="0" transform=" rotate(0, 65, 141)" width="15" x="58.181250000000006" y="134.3625"/>
    <ellipse cx="173.68125" cy="162.8625" fill="#3fbdb2" opacity="1" rx="7.5" ry="7.5" stroke-width="0" transform=" rotate(0, 173, 162)"/>
    <rect fill="#41afba" height="15" opacity="1" stroke-width="0" transform=" rotate(0, 41, 104)" width="15" x="34.181250000000006" y="97.3625"/>
    <ellipse cx="115.68125" cy="192.8625" fill="#4498b7" opacity="1" rx="7.5" ry="7.5" stroke-width="0" transform=" rotate(0, 115, 192)"/>
    <rect fill="#4682b4" height="15" opacity="1" stroke-width="0" transform=" rotate(0, 33, 46)" width="15" x="26.181250000000006" y="39.3625"/>
    <ellipse cx="124.68125" cy="214.8625" fill="#32cd32" opacity="1" rx="7.5" ry="7.5" stroke-width="0" transform=" rotate(0, 124, 214)"/>
    <rect fill="#35ca50" height="15" opacity="1" stroke-width="0" transform=" rotate(0, 193, 81)" width="15" x="186.18125" y="74.3625"/>
    <ellipse cx="80.68125" cy="190.8625" fill="#37c76b" opacity="1" rx="7.5" ry="7.5" stroke-width="0" transform=" rotate(0, 80, 190)"/>
    <rect fill="#3ac485" height="15" opacity="1" stroke-width="0" transform=" rotate(0, 79, 64)" width="15" x="72.18125" y="57.3625"/>
    <ellipse cx="127.68125" cy="196.8625" fill="#3cc09c" opacity="1" rx="7.5" ry="7.5" stroke-width="0" transform=" rotate(0, 127, 196)"/>
    <rect fill="#3fbdb2" height="15" opacity="1" stroke-width="0" transform=" rotate(0, 178, 128)" width="15" x="171.18125" y="121.36250000000001"/>
    <ellipse cx="139.68125" cy="31.862499999999997" fill="#41afba" opacity="1" rx="7.5" ry="7.5" stroke-width="0" transform=" rotate(0, 139, 31)"/>
    <rect fill="#4498b7" height="15" opacity="1" stroke-width="0" transform=" rotate(0, 88, 215)" width="15" x="81.18125" y="208.3625"/>
    <ellipse cx="210.68125" cy="206.8625" fill="#4682b4" opacity="1" rx="7.5" ry="7.5" stroke-width="0" transform=" rotate(0, 210, 206)"/>
    <rect fill="#32cd32" height="15" opacity="1" stroke-width="0" transform=" rotate(0, 144, 212)" width="15" x="137.18125" y="205.3625"/>
    <ellipse cx="157.68125" cy="138.8625" fill="#35ca50" opacity="1" rx="7.5" ry="7.5" stroke-width="0" transform=" rotate(0, 157, 138)"/>
    <rect fill="#37c76b" height="15" opacity="1" stroke-width="0" transform=" rotate(0, 98, 26)" width="15" x="91.18125" y="19.362499999999997"/>
    <ellipse cx="25.681250000000006" cy="72.8625" fill="#3ac485" opacity="1" rx="7.5" ry="7.5" stroke-width="0" transform=" rotate(0, 25, 72)"/>
    <rect fill="#3cc09c" height="15" opacity="1" stroke-width="0" transform=" rotate(0, 96, 204)" width="15" x="89.18125" y="197.3625"/>
    <ellipse cx="47.681250000000006" cy="39.8625" fill="#3fbdb2" opacity="1" rx="7.5" ry="7.5" stroke-width="0" transform=" rotate(0, 47, 39)"/>
    <rect fill="#41afba" height="15" opacity="1" stroke-width="0" transform=" rotate(0, 224, 119)" width="15" x="217.18125" y="112.3625"/>
    <ellipse cx="62.681250000000006" cy="169.8625" fill="#4498b7" opacity="1" rx="7.5" ry="7.5" stroke-width="0" transform=" rotate(0, 62, 169)"/>
    <rect fill="#4682b4" height="15" opacity="1" stroke-width="0" transform=" rotate(0, 39, 23)" width="15" x="32.181250000000006" y="16.362499999999997"/>
  </g>
</g>
  </g>
</svg>
