<?xml version='1.0' encoding='ASCII' standalone='yes'?>
<svg xmlns="http://www.w3.org/2000/svg" xmlns:xlink="http://www.w3.org/1999/xlink" version="1.1" width="125.0px" viewBox="0 0 125.0 125.0" height="125.0px">
  <g>
    <g transform="translate(0, 0) scale(0.5 0.5) "><defs/>
  <g transform=" rotate(0, 125, 125)">
    <rect fill="white" height="250" width="250" x="0" y="0"/>
    <ellipse cx="35.0" cy="35.0" fill="#6dd6ff" opacity="1" rx="17.5" ry="17.5" stroke-width="0" transform=" rotate(0, 35, 35)"/>
    <ellipse cx="80.0" cy="35.0" fill="#6dd6ff" opacity="1" rx="17.5" ry="17.5" stroke-width="0" transform=" rotate(0, 80, 35)"/>
    <polygon fill="#006ca1" opacity="1" points="107.5,52.5 125.0,17.5 142.5,52.5" stroke-width="0" transform=" rotate(0, 125, 35)"/>
    <rect fill="#1b9fd8" height="35" opacity="1" stroke-width="0" transform=" rotate(0, 170, 35)" width="35" x="152.5" y="17.5"/>
    <ellipse cx="215.0" cy="35.0" fill="#6dd6ff" opacity="1" rx="17.5" ry="17.5" stroke-width="0" transform=" rotate(0, 215, 35)"/>
    <rect fill="#1b9fd8" height="35" opacity="1" stroke-width="0" transform=" rotate(0, 35, 80)" width="35" x="17.5" y="62.5"/>
    <ellipse cx="80.0" cy="80.0" fill="#6dd6ff" opacity="1" rx="17.5" ry="17.5" stroke-width="0" transform=" rotate(0, 80, 80)"/>
    <polygon fill="#006ca1" opacity="1" points="107.5,97.5 125.0,62.5 142.5,97.5" stroke-width="0" transform=" rotate(0, 125, 80)"/>
    <rect fill="#1b9fd8" height="35" opacity="1" stroke-width="0" transform=" rotate(0, 170, 80)" width="35" x="152.5" y="62.5"/>
    <polygon fill="#006ca1" opacity="1" points="197.5,97.5 215.0,62.5 232.5,97.5" stroke-width="0" transform=" rotate(0, 215, 80)"/>
    <rect fill="#1b9fd8" height="35" opacity="1" stroke-width="0" transform=" rotate(0, 35, 125)" width="35" x="17.5" y="107.5"/>
    <ellipse cx="80.0" cy="125.0" fill="#6dd6ff" opacity="1" rx="17.5" ry="17.5" stroke-width="0" transform=" rotate(0, 80, 125)"/>
    <polygon fill="#006ca1" opacity="1" points="107.5,142.5 125.0,107.5 142.5,142.5" stroke-width="0" transform=" rotate(0, 125, 125)"/>
    <rect fill="#1b9fd8" height="35" opacity="1" stroke-width="0" transform=" rotate(0, 170, 125)" width="35" x="152.5" y="107.5"/>
    <ellipse cx="215.0" cy="125.0" fill="#6dd6ff" opacity="1" rx="17.5" ry="17.5" stroke-width="0" transform=" rotate(0, 215, 125)"/>
    <rect fill="#1b9fd8" height="35" opacity="1" stroke-width="0" transform=" rotate(0, 35, 170)" width="35" x="17.5" y="152.5"/>
    <ellipse cx="80.0" cy="170.0" fill="#6dd6ff" opacity="1" rx="17.5" ry="17.5" stroke-width="0" transform=" rotate(0, 80, 170)"/>
    <ellipse cx="125.0" cy="170.0" fill="#6dd6ff" opacity="1" rx="17.5" ry="17.5" stroke-width="0" transform=" rotate(0, 125, 170)"/>
    <rect fill="#1b9fd8" height="35" opacity="1" stroke-width="0" transform=" rotate(0, 170, 170)" width="35" x="152.5" y="152.5"/>
    <ellipse cx="215.0" cy="170.0" fill="#6dd6ff" opacity="1" rx="17.5" ry="17.5" stroke-width="0" transform=" rotate(0, 215, 170)"/>
    <rect fill="#1b9fd8" height="35" opacity="1" stroke-width="0" transform=" rotate(0, 35, 215)" width="35" x="17.5" y="197.5"/>
    <ellipse cx="80.0" cy="215.0" fill="#6dd6ff" opacity="1" rx="17.5" ry="17.5" stroke-width="0" transform=" rotate(0, 80, 215)"/>
    <polygon fill="#006ca1" opacity="1" points="107.5,232.5 125.0,197.5 142.5,232.5" stroke-width="0" transform=" rotate(0, 125, 215)"/>
    <rect fill="#1b9fd8" height="35" opacity="1" stroke-width="0" transform=" rotate(0, 170, 215)" width="35" x="152.5" y="197.5"/>
    <rect fill="#1b9fd8" height="35" opacity="1" stroke-width="0" transform=" rotate(0, 215, 215)" width="35" x="197.5" y="197.5"/>
  </g>
</g>
  </g>
</svg>
