<?xml version='1.0' encoding='ASCII' standalone='yes'?>
<svg xmlns="http://www.w3.org/2000/svg" xmlns:xlink="http://www.w3.org/1999/xlink" version="1.1" width="125.0px" viewBox="0 0 125.0 125.0" height="125.0px">
  <g>
    <g transform="translate(0, 0) scale(0.5 0.5) "><defs/>
  <g transform=" rotate(0, 125, 125)">
    <rect fill="white" height="250" width="250" x="0" y="0"/>
    <animateTransform additive="sum" attributeName="transform" dur="10s" from="0 125.0 125.0" repeatCount="indefinite" to="360 125.0 125.0" type="rotate"/>
    <path d="M 35.67,19.72 A 22.05,22.05 0 0,0 38.67,8.46 C 38.48,5.54 36.88,2.46 33.54,2.46 C 29.84,2.46 26.45,5.76 25.06,8.72 C 23.89,11.22 24.65,15.39 20.6,15.52 C 16.6,15.39 17.31,11.22 16.14,8.72 C 14.76,5.72 11.37,2.51 7.67,2.46 C 4.32,2.46 2.72,5.46 2.54,8.46 A 22.05,22.05 0 0,0 5.54,19.72 C 7.92,23.72 3.67,26.51 4.48,30.57 C 5.08,33.57 7.95,38.31 11.35,38.62 S 16.2,31.99 17.52,29.75 A 3.91,3.91 0 0,1 23.76,29.75 C 25,32 26.32,39 29.86,38.63 S 36.13,33.56 36.73,30.58 C 37.54,26.51 33.29,23.76 35.67,19.72 Z" fill="#6dd6ff" opacity="1" stroke-width="0" transform=" scale(6.066489, 6.082114) translate(0.000000, 0.000000) rotate(0, 20, 20)"/>
  </g>
</g>
  </g>
</svg>
