<?xml version='1.0' encoding='ASCII' standalone='yes'?>
<svg xmlns="http://www.w3.org/2000/svg" xmlns:xlink="http://www.w3.org/1999/xlink" version="1.1" width="125.0px" viewBox="0 0 125.0 125.0" height="125.0px">
  <g>
    <g transform="translate(0, 0) scale(0.5 0.5) "><defs/>
  <g transform=" rotate(0, 125, 125)">
    <rect fill="white" height="250" width="250" x="0" y="0"/>
    <ellipse cx="125.0" cy="125.0" fill="dodgerblue" opacity="1" rx="115.0" ry="115.0" stroke-width="0" transform=" rotate(0, 125, 125)"/>
    <ellipse cx="125.0" cy="125.0" fill="limegreen" opacity="1" rx="96.66666666666667" ry="96.66666666666667" stroke-width="0" transform=" rotate(0, 125, 125)"/>
    <ellipse cx="125.0" cy="125.0" fill="dodgerblue" opacity="1" rx="78.33333333333334" ry="78.33333333333334" stroke-width="0" transform=" rotate(0, 125, 125)"/>
    <ellipse cx="125.0" cy="125.0" fill="limegreen" opacity="1" rx="60.000000000000014" ry="60.000000000000014" stroke-width="0" transform=" rotate(0, 125, 125)"/>
    <ellipse cx="125.0" cy="125.0" fill="dodgerblue" opacity="1" rx="41.666666666666686" ry="41.666666666666686" stroke-width="0" transform=" rotate(0, 125, 125)"/>
    <ellipse cx="125.0" cy="125.0" fill="limegreen" opacity="1" rx="23.333333333333353" ry="23.333333333333353" stroke-width="0" transform=" rotate(0, 125, 125)"/>
    <ellipse cx="125.0" cy="125.0" fill="dodgerblue" opacity="1" rx="5.000000000000021" ry="5.000000000000021" stroke-width="0" transform=" rotate(0, 125, 125)"/>
  </g>
</g>
  </g>
</svg>
