<?xml version='1.0' encoding='ASCII' standalone='yes'?>
<svg xmlns="http://www.w3.org/2000/svg" xmlns:xlink="http://www.w3.org/1999/xlink" version="1.1" width="125.0px" viewBox="0 0 125.0 125.0" height="125.0px">
  <g>
    <g transform="translate(0, 0) scale(0.5 0.5) "><defs/>
  <g transform=" rotate(0, 125, 125)">
    <rect fill="white" height="250" width="250" x="0" y="0"/>
    <rect fill="#1b9fd8" height="31.272291132537262" opacity="1" stroke-width="0" transform=" rotate(0, 37, 37)" width="31.272291132537262" x="21.86385443373137" y="21.86385443373137"/>
    <rect fill="#1b9fd8" height="32.248565084938164" opacity="1" stroke-width="0" transform=" rotate(0, 72, 37)" width="32.248565084938164" x="56.37571745753092" y="21.375717457530918"/>
    <rect fill="#1b9fd8" height="24.0223528327507" opacity="1" stroke-width="0" transform=" rotate(0, 107, 37)" width="24.0223528327507" x="95.48882358362465" y="25.48882358362465"/>
    <rect fill="#1b9fd8" height="24.84655686627019" opacity="1" stroke-width="0" transform=" rotate(0, 142, 37)" width="24.84655686627019" x="130.0767215668649" y="25.076721566864904"/>
    <rect fill="#1b9fd8" height="34.93259880840036" opacity="1" stroke-width="0" transform=" rotate(0, 177, 37)" width="34.93259880840036" x="160.03370059579981" y="20.03370059579982"/>
    <rect fill="#1b9fd8" height="31.747209135616522" opacity="1" stroke-width="0" transform=" rotate(0, 212, 37)" width="31.747209135616522" x="196.62639543219174" y="21.62639543219174"/>
    <rect fill="#1b9fd8" height="28.4524080740594" opacity="1" stroke-width="0" transform=" rotate(0, 37, 72)" width="28.4524080740594" x="23.2737959629703" y="58.2737959629703"/>
    <rect fill="#1b9fd8" height="27.370650103795935" opacity="1" stroke-width="0" transform=" rotate(0, 72, 72)" width="27.370650103795935" x="58.81467494810203" y="58.81467494810203"/>
    <rect fill="#1b9fd8" height="20.018709112952813" opacity="1" stroke-width="0" transform=" rotate(0, 107, 72)" width="20.018709112952813" x="97.49064544352359" y="62.49064544352359"/>
    <rect fill="#1b9fd8" height="17.725400614002577" opacity="1" stroke-width="0" transform=" rotate(0, 142, 72)" width="17.725400614002577" x="133.6372996929987" y="63.63729969299871"/>
    <rect fill="#1b9fd8" height="17.49267446370188" opacity="1" stroke-width="0" transform=" rotate(0, 177, 72)" width="17.49267446370188" x="168.75366276814907" y="63.753662768149056"/>
    <rect fill="#1b9fd8" height="14.045986486210474" opacity="1" stroke-width="0" transform=" rotate(0, 212, 72)" width="14.045986486210474" x="205.47700675689475" y="65.47700675689477"/>
    <rect fill="#1b9fd8" height="13.40474141338509" opacity="1" stroke-width="0" transform=" rotate(0, 37, 107)" width="13.40474141338509" x="30.797629293307455" y="100.79762929330745"/>
    <rect fill="#1b9fd8" height="21.11801485626945" opacity="1" stroke-width="0" transform=" rotate(0, 72, 107)" width="21.11801485626945" x="61.94099257186527" y="96.94099257186528"/>
    <rect fill="#1b9fd8" height="39.198745422223915" opacity="1" stroke-width="0" transform=" rotate(0, 107, 107)" width="39.198745422223915" x="87.90062728888805" y="87.90062728888805"/>
    <rect fill="#1b9fd8" height="26.844074266267903" opacity="1" stroke-width="0" transform=" rotate(0, 142, 107)" width="26.844074266267903" x="129.07796286686605" y="94.07796286686605"/>
    <rect fill="#1b9fd8" height="15.09186327262875" opacity="1" stroke-width="0" transform=" rotate(0, 177, 107)" width="15.09186327262875" x="169.95406836368562" y="99.95406836368562"/>
    <rect fill="#1b9fd8" height="32.63527232293929" opacity="1" stroke-width="0" transform=" rotate(0, 212, 107)" width="32.63527232293929" x="196.18236383853036" y="91.18236383853036"/>
    <rect fill="#1b9fd8" height="22.95870353999731" opacity="1" stroke-width="0" transform=" rotate(0, 37, 142)" width="22.95870353999731" x="26.020648230001346" y="131.02064823000134"/>
    <rect fill="#1b9fd8" height="23.82068765286572" opacity="1" stroke-width="0" transform=" rotate(0, 72, 142)" width="23.82068765286572" x="60.58965617356714" y="130.58965617356714"/>
    <rect fill="#1b9fd8" height="10.513074296570274" opacity="1" stroke-width="0" transform=" rotate(0, 107, 142)" width="10.513074296570274" x="102.24346285171487" y="137.24346285171487"/>
    <rect fill="#1b9fd8" height="24.597122380554815" opacity="1" stroke-width="0" transform=" rotate(0, 142, 142)" width="24.597122380554815" x="130.2014388097226" y="130.2014388097226"/>
    <rect fill="#1b9fd8" height="19.779830618439465" opacity="1" stroke-width="0" transform=" rotate(0, 177, 142)" width="19.779830618439465" x="167.61008469078027" y="132.61008469078027"/>
    <rect fill="#1b9fd8" height="17.344923450292114" opacity="1" stroke-width="0" transform=" rotate(0, 212, 142)" width="17.344923450292114" x="203.82753827485394" y="133.82753827485394"/>
    <rect fill="#1b9fd8" height="26.481992897554022" opacity="1" stroke-width="0" transform=" rotate(0, 37, 177)" width="26.481992897554022" x="24.25900355122299" y="164.25900355122297"/>
    <rect fill="#1b9fd8" height="27.13128187070164" opacity="1" stroke-width="0" transform=" rotate(0, 72, 177)" width="27.13128187070164" x="58.93435906464918" y="163.9343590646492"/>
    <rect fill="#1b9fd8" height="24.548617042496335" opacity="1" stroke-width="0" transform=" rotate(0, 107, 177)" width="24.548617042496335" x="95.22569147875183" y="165.22569147875183"/>
    <rect fill="#1b9fd8" height="22.954903173410152" opacity="1" stroke-width="0" transform=" rotate(0, 142, 177)" width="22.954903173410152" x="131.0225484132949" y="166.0225484132949"/>
    <rect fill="#1b9fd8" height="28.769659546611685" opacity="1" stroke-width="0" transform=" rotate(0, 177, 177)" width="28.769659546611685" x="163.11517022669415" y="163.11517022669415"/>
    <rect fill="#1b9fd8" height="24.182595364923724" opacity="1" stroke-width="0" transform=" rotate(0, 212, 177)" width="24.182595364923724" x="200.40870231753814" y="165.40870231753814"/>
    <rect fill="#1b9fd8" height="15.381621259228535" opacity="1" stroke-width="0" transform=" rotate(0, 37, 212)" width="15.381621259228535" x="29.80918937038573" y="204.80918937038572"/>
    <rect fill="#1b9fd8" height="18.27358405926629" opacity="1" stroke-width="0" transform=" rotate(0, 72, 212)" width="18.27358405926629" x="63.36320797036686" y="203.36320797036686"/>
    <rect fill="#1b9fd8" height="23.39645564359816" opacity="1" stroke-width="0" transform=" rotate(0, 107, 212)" width="23.39645564359816" x="95.80177217820092" y="200.8017721782009"/>
    <rect fill="#1b9fd8" height="27.46453896112176" opacity="1" stroke-width="0" transform=" rotate(0, 142, 212)" width="27.46453896112176" x="128.7677305194391" y="198.7677305194391"/>
    <rect fill="#1b9fd8" height="25.669475922835716" opacity="1" stroke-width="0" transform=" rotate(0, 177, 212)" width="25.669475922835716" x="164.66526203858214" y="199.66526203858214"/>
    <rect fill="#1b9fd8" height="14.146488789466705" opacity="1" stroke-width="0" transform=" rotate(0, 212, 212)" width="14.146488789466705" x="205.42675560526664" y="205.42675560526664"/>
  </g>
</g>
  </g>
</svg>
