<?xml version='1.0' encoding='ASCII' standalone='yes'?>
<svg xmlns="http://www.w3.org/2000/svg" xmlns:xlink="http://www.w3.org/1999/xlink" version="1.1" width="125.0px" viewBox="0 0 125.0 125.0" height="125.0px">
  <g>
    <g transform="translate(0, 0) scale(0.5 0.5) "><defs/>
  <g transform=" rotate(0, 125, 125)">
    <rect fill="white" height="250" width="250" x="0" y="0"/>
    <rect fill="#6dd6ff" height="22" opacity="1" stroke-width="0" transform=" rotate(0, 37, 37)" width="22" x="26.5" y="26.5"/>
    <rect fill="#1b9fd8" height="22" opacity="1" stroke-width="0" transform=" rotate(0, 72, 37)" width="22" x="61.5" y="26.5"/>
    <rect fill="#006ca1" height="22" opacity="1" stroke-width="0" transform=" rotate(0, 107, 37)" width="22" x="96.5" y="26.5"/>
    <rect fill="#6dd6ff" height="22" opacity="1" stroke-width="0" transform=" rotate(0, 142, 37)" width="22" x="131.5" y="26.5"/>
    <rect fill="#1b9fd8" height="22" opacity="1" stroke-width="0" transform=" rotate(0, 177, 37)" width="22" x="166.5" y="26.5"/>
    <rect fill="#006ca1" height="22" opacity="1" stroke-width="0" transform=" rotate(0, 212, 37)" width="22" x="201.5" y="26.5"/>
    <rect fill="#6dd6ff" height="22" opacity="1" stroke-width="0" transform=" rotate(0, 37, 72)" width="22" x="26.5" y="61.5"/>
    <rect fill="#1b9fd8" height="22" opacity="1" stroke-width="0" transform=" rotate(0, 72, 72)" width="22" x="61.5" y="61.5"/>
    <rect fill="#006ca1" height="22" opacity="1" stroke-width="0" transform=" rotate(0, 107, 72)" width="22" x="96.5" y="61.5"/>
    <rect fill="#6dd6ff" height="22" opacity="1" stroke-width="0" transform=" rotate(0, 142, 72)" width="22" x="131.5" y="61.5"/>
    <rect fill="#1b9fd8" height="22" opacity="1" stroke-width="0" transform=" rotate(0, 177, 72)" width="22" x="166.5" y="61.5"/>
    <rect fill="#006ca1" height="22" opacity="1" stroke-width="0" transform=" rotate(0, 212, 72)" width="22" x="201.5" y="61.5"/>
    <rect fill="#6dd6ff" height="22" opacity="1" stroke-width="0" transform=" rotate(0, 37, 107)" width="22" x="26.5" y="96.5"/>
    <rect fill="#1b9fd8" height="22" opacity="1" stroke-width="0" transform=" rotate(0, 72, 107)" width="22" x="61.5" y="96.5"/>
    <rect fill="#006ca1" height="22" opacity="1" stroke-width="0" transform=" rotate(0, 107, 107)" width="22" x="96.5" y="96.5"/>
    <rect fill="#6dd6ff" height="22" opacity="1" stroke-width="0" transform=" rotate(0, 142, 107)" width="22" x="131.5" y="96.5"/>
    <rect fill="#1b9fd8" height="22" opacity="1" stroke-width="0" transform=" rotate(0, 177, 107)" width="22" x="166.5" y="96.5"/>
    <rect fill="#006ca1" height="22" opacity="1" stroke-width="0" transform=" rotate(0, 212, 107)" width="22" x="201.5" y="96.5"/>
    <rect fill="#6dd6ff" height="22" opacity="1" stroke-width="0" transform=" rotate(0, 37, 142)" width="22" x="26.5" y="131.5"/>
    <rect fill="#1b9fd8" height="22" opacity="1" stroke-width="0" transform=" rotate(0, 72, 142)" width="22" x="61.5" y="131.5"/>
    <rect fill="#006ca1" height="22" opacity="1" stroke-width="0" transform=" rotate(0, 107, 142)" width="22" x="96.5" y="131.5"/>
    <rect fill="#6dd6ff" height="22" opacity="1" stroke-width="0" transform=" rotate(0, 142, 142)" width="22" x="131.5" y="131.5"/>
    <rect fill="#1b9fd8" height="22" opacity="1" stroke-width="0" transform=" rotate(0, 177, 142)" width="22" x="166.5" y="131.5"/>
    <rect fill="#006ca1" height="22" opacity="1" stroke-width="0" transform=" rotate(0, 212, 142)" width="22" x="201.5" y="131.5"/>
    <rect fill="#6dd6ff" height="22" opacity="1" stroke-width="0" transform=" rotate(0, 37, 177)" width="22" x="26.5" y="166.5"/>
    <rect fill="#1b9fd8" height="22" opacity="1" stroke-width="0" transform=" rotate(0, 72, 177)" width="22" x="61.5" y="166.5"/>
    <rect fill="#006ca1" height="22" opacity="1" stroke-width="0" transform=" rotate(0, 107, 177)" width="22" x="96.5" y="166.5"/>
    <rect fill="#6dd6ff" height="22" opacity="1" stroke-width="0" transform=" rotate(0, 142, 177)" width="22" x="131.5" y="166.5"/>
    <rect fill="#1b9fd8" height="22" opacity="1" stroke-width="0" transform=" rotate(0, 177, 177)" width="22" x="166.5" y="166.5"/>
    <rect fill="#006ca1" height="22" opacity="1" stroke-width="0" transform=" rotate(0, 212, 177)" width="22" x="201.5" y="166.5"/>
    <rect fill="#6dd6ff" height="22" opacity="1" stroke-width="0" transform=" rotate(0, 37, 212)" width="22" x="26.5" y="201.5"/>
    <rect fill="#1b9fd8" height="22" opacity="1" stroke-width="0" transform=" rotate(0, 72, 212)" width="22" x="61.5" y="201.5"/>
    <rect fill="#006ca1" height="22" opacity="1" stroke-width="0" transform=" rotate(0, 107, 212)" width="22" x="96.5" y="201.5"/>
    <rect fill="#6dd6ff" height="22" opacity="1" stroke-width="0" transform=" rotate(0, 142, 212)" width="22" x="131.5" y="201.5"/>
    <rect fill="#1b9fd8" height="22" opacity="1" stroke-width="0" transform=" rotate(0, 177, 212)" width="22" x="166.5" y="201.5"/>
    <rect fill="#006ca1" height="22" opacity="1" stroke-width="0" transform=" rotate(0, 212, 212)" width="22" x="201.5" y="201.5"/>
  </g>
</g>
  </g>
</svg>
