<?xml version='1.0' encoding='ASCII' standalone='yes'?>
<svg xmlns="http://www.w3.org/2000/svg" xmlns:xlink="http://www.w3.org/1999/xlink" version="1.1" width="125.0px" viewBox="0 0 125.0 125.0" height="125.0px">
  <g>
    <g transform="translate(0, 0) scale(0.5 0.5) "><defs/>
  <g transform=" rotate(0, 125, 125)">
    <rect fill="white" height="250" width="250" x="0" y="0"/>
    <ellipse cx="50.89607940197958" cy="46.34115485449003" fill="#6dd6ff" opacity="1" rx="12.5" ry="12.5" stroke-width="0" transform=" rotate(0, 50, 46)"/>
    <ellipse cx="65.60270793083195" cy="46.92530428546214" fill="#6dd6ff" opacity="1" rx="12.5" ry="12.5" stroke-width="0" transform=" rotate(0, 65, 46)"/>
    <ellipse cx="94.57916722946732" cy="35.87598392390049" fill="#1b9fd8" opacity="1" rx="12.5" ry="12.5" stroke-width="0" transform=" rotate(0, 94, 35)"/>
    <ellipse cx="139.1303157456677" cy="46.52336307943686" fill="#1b9fd8" opacity="1" rx="12.5" ry="12.5" stroke-width="0" transform=" rotate(0, 139, 46)"/>
    <ellipse cx="180.7269871747333" cy="25.501381710761727" fill="#006ca1" opacity="1" rx="12.5" ry="12.5" stroke-width="0" transform=" rotate(0, 180, 25)"/>
    <ellipse cx="212.39840374607428" cy="29.602667976329645" fill="#006ca1" opacity="1" rx="12.5" ry="12.5" stroke-width="0" transform=" rotate(0, 212, 29)"/>
    <ellipse cx="38.84257496582453" cy="74.01966964428549" fill="#6dd6ff" opacity="1" rx="12.5" ry="12.5" stroke-width="0" transform=" rotate(0, 38, 74)"/>
    <ellipse cx="82.14391416421456" cy="57.98274527459553" fill="#6dd6ff" opacity="1" rx="12.5" ry="12.5" stroke-width="0" transform=" rotate(0, 82, 57)"/>
    <ellipse cx="105.73684730410551" cy="73.82583001894577" fill="#1b9fd8" opacity="1" rx="12.5" ry="12.5" stroke-width="0" transform=" rotate(0, 105, 73)"/>
    <ellipse cx="134.62913329327193" cy="63.34521652141169" fill="#1b9fd8" opacity="1" rx="12.5" ry="12.5" stroke-width="0" transform=" rotate(0, 134, 63)"/>
    <ellipse cx="169.20525256964177" cy="68.15809693265417" fill="#006ca1" opacity="1" rx="12.5" ry="12.5" stroke-width="0" transform=" rotate(0, 169, 68)"/>
    <ellipse cx="209.8600049334194" cy="82.98906978750519" fill="#006ca1" opacity="1" rx="12.5" ry="12.5" stroke-width="0" transform=" rotate(0, 209, 82)"/>
    <ellipse cx="29.76954967763679" cy="107.76287946668056" fill="#6dd6ff" opacity="1" rx="12.5" ry="12.5" stroke-width="0" transform=" rotate(0, 29, 107)"/>
    <ellipse cx="71.79435090224406" cy="91.94667553514138" fill="#6dd6ff" opacity="1" rx="12.5" ry="12.5" stroke-width="0" transform=" rotate(0, 71, 91)"/>
    <ellipse cx="113.37303410576554" cy="101.61075594718388" fill="#1b9fd8" opacity="1" rx="12.5" ry="12.5" stroke-width="0" transform=" rotate(0, 113, 101)"/>
    <ellipse cx="153.99677781246797" cy="110.15239607060873" fill="#1b9fd8" opacity="1" rx="12.5" ry="12.5" stroke-width="0" transform=" rotate(0, 153, 110)"/>
    <ellipse cx="182.03206397159354" cy="105.48816894192312" fill="#006ca1" opacity="1" rx="12.5" ry="12.5" stroke-width="0" transform=" rotate(0, 182, 105)"/>
    <ellipse cx="210.9276276086593" cy="115.10292620668014" fill="#006ca1" opacity="1" rx="12.5" ry="12.5" stroke-width="0" transform=" rotate(0, 210, 115)"/>
    <ellipse cx="26.213669570973643" cy="139.47644200286416" fill="#6dd6ff" opacity="1" rx="12.5" ry="12.5" stroke-width="0" transform=" rotate(0, 26, 139)"/>
    <ellipse cx="57.57144765656291" cy="156.05815629188038" fill="#6dd6ff" opacity="1" rx="12.5" ry="12.5" stroke-width="0" transform=" rotate(0, 57, 156)"/>
    <ellipse cx="109.36097854182765" cy="150.91687873057657" fill="#1b9fd8" opacity="1" rx="12.5" ry="12.5" stroke-width="0" transform=" rotate(0, 109, 150)"/>
    <ellipse cx="132.2241791916033" cy="150.92580066735061" fill="#1b9fd8" opacity="1" rx="12.5" ry="12.5" stroke-width="0" transform=" rotate(0, 132, 150)"/>
    <ellipse cx="155.98115978986954" cy="130.51687501625997" fill="#006ca1" opacity="1" rx="12.5" ry="12.5" stroke-width="0" transform=" rotate(0, 155, 130)"/>
    <ellipse cx="223.87235642416772" cy="145.1633891261059" fill="#006ca1" opacity="1" rx="12.5" ry="12.5" stroke-width="0" transform=" rotate(0, 223, 145)"/>
    <ellipse cx="45.39853242475555" cy="185.59054088457" fill="#6dd6ff" opacity="1" rx="12.5" ry="12.5" stroke-width="0" transform=" rotate(0, 45, 185)"/>
    <ellipse cx="81.01892751226815" cy="175.51019166090575" fill="#6dd6ff" opacity="1" rx="12.5" ry="12.5" stroke-width="0" transform=" rotate(0, 81, 175)"/>
    <ellipse cx="103.05494856048163" cy="175.5475846362088" fill="#1b9fd8" opacity="1" rx="12.5" ry="12.5" stroke-width="0" transform=" rotate(0, 103, 175)"/>
    <ellipse cx="151.50788926242922" cy="171.27888627027136" fill="#1b9fd8" opacity="1" rx="12.5" ry="12.5" stroke-width="0" transform=" rotate(0, 151, 171)"/>
    <ellipse cx="186.68523590339063" cy="178.3275852149483" fill="#006ca1" opacity="1" rx="12.5" ry="12.5" stroke-width="0" transform=" rotate(0, 186, 178)"/>
    <ellipse cx="210.94080303901052" cy="179.68492398074665" fill="#006ca1" opacity="1" rx="12.5" ry="12.5" stroke-width="0" transform=" rotate(0, 210, 179)"/>
    <ellipse cx="26.199964931880423" cy="209.38624771821696" fill="#6dd6ff" opacity="1" rx="12.5" ry="12.5" stroke-width="0" transform=" rotate(0, 26, 209)"/>
    <ellipse cx="85.87227057445962" cy="218.6028500324733" fill="#6dd6ff" opacity="1" rx="12.5" ry="12.5" stroke-width="0" transform=" rotate(0, 85, 218)"/>
    <ellipse cx="117.2060113409376" cy="227.27623947904823" fill="#1b9fd8" opacity="1" rx="12.5" ry="12.5" stroke-width="0" transform=" rotate(0, 117, 227)"/>
    <ellipse cx="152.7682594212399" cy="209.02848523578515" fill="#1b9fd8" opacity="1" rx="12.5" ry="12.5" stroke-width="0" transform=" rotate(0, 152, 209)"/>
    <ellipse cx="174.76832152805557" cy="194.47528063911884" fill="#006ca1" opacity="1" rx="12.5" ry="12.5" stroke-width="0" transform=" rotate(0, 174, 194)"/>
    <ellipse cx="213.71025178848686" cy="219.07935623467233" fill="#006ca1" opacity="1" rx="12.5" ry="12.5" stroke-width="0" transform=" rotate(0, 213, 219)"/>
  </g>
</g>
  </g>
</svg>
