<?xml version='1.0' encoding='iso-8859-1'?>
<svg version="1.1" xmlns="http://www.w3.org/2000/svg" viewBox="0 0 276.894 276.894" xmlns:xlink="http://www.w3.org/1999/xlink" enable-background="new 0 0 276.894 276.894">
  <path d="m269.164,116.335c-7.306-9.521-19.047-15.877-33.421-18.189 8.528-11.8 12.337-24.597 10.771-36.495-2.21-16.786-14.484-29.061-31.271-31.271-11.898-1.567-24.695,2.242-36.495,10.771-2.313-14.374-8.668-26.115-18.189-33.421-13.432-10.307-30.791-10.307-44.223,0-9.521,7.306-15.877,19.047-18.189,33.421-11.8-8.529-24.601-12.338-36.495-10.771-16.786,2.21-29.061,14.484-31.27,31.271-1.566,11.898 2.241,24.695 10.771,36.495-14.374,2.313-26.116,8.668-33.422,18.189-10.307,13.432-10.307,30.791 0,44.223 7.306,9.521 19.048,15.877 33.422,18.189-8.529,11.8-12.337,24.597-10.771,36.495 2.209,16.786 14.483,29.061 31.27,31.271 11.896,1.566 24.694-2.243 36.495-10.771 2.313,14.374 8.668,26.115 18.189,33.421 6.716,5.153 14.414,7.73 22.111,7.73s15.396-2.577 22.111-7.73c9.521-7.306 15.877-19.047 18.189-33.421 11.799,8.528 24.6,12.34 36.495,10.771 16.786-2.21 29.061-14.484 31.271-31.271 1.566-11.898-2.242-24.695-10.771-36.495 14.374-2.313 26.115-8.668 33.421-18.189 10.307-13.432 10.307-30.791 0.001-44.223zm-57.837-56.211c3.191,0.421 5.022,2.252 5.443,5.443 0.882,6.701-5.053,21.544-30.824,35.905-3.063-3.926-6.599-7.462-10.524-10.524 14.359-25.769 29.201-31.702 35.905-30.824zm-103.114,78.323c0-16.672 13.563-30.235 30.234-30.235 16.672,0 30.235,13.563 30.235,30.235s-13.563,30.235-30.235,30.235c-16.671-2.84217e-14-30.234-13.563-30.234-30.235zm26.385-106.916c2.555-1.961 5.143-1.961 7.697-7.10543e-15 5.361,4.114 11.658,18.798 3.6,47.158-2.443-0.303-4.925-0.477-7.449-0.477s-5.006,0.174-7.449,0.477c-8.056-28.36-1.76-43.044 3.601-47.158zm-74.473,34.036c0.42-3.191 2.251-5.022 5.442-5.443 6.706-0.876 21.547,5.056 35.905,30.824-3.926,3.063-7.461,6.598-10.524,10.524-25.771-14.36-31.705-29.204-30.823-35.905zm-28.594,76.728c-1.96-2.554-1.96-5.144 0-7.697 4.115-5.361 18.798-11.658 47.159-3.601-0.303,2.443-0.477,4.926-0.477,7.449s0.174,5.006 0.477,7.449c-28.361,8.058-43.047,1.761-47.159-3.6zm34.036,74.475c-3.191-0.421-5.022-2.252-5.442-5.443-0.882-6.701 5.053-21.545 30.823-35.905 3.063,3.926 6.599,7.461 10.524,10.524-14.357,25.768-29.194,31.7-35.905,30.824zm76.729,28.593c-2.555,1.961-5.143,1.961-7.697,0-5.361-4.114-11.658-18.798-3.6-47.158 2.443,0.303 4.925,0.477 7.449,0.477s5.006-0.174 7.449-0.477c8.056,28.36 1.76,43.044-3.601,47.158zm74.474-34.036c-0.421,3.191-2.252,5.022-5.443,5.443-6.712,0.87-21.547-5.058-35.905-30.823 3.926-3.063 7.462-6.599 10.525-10.525 25.77,14.36 31.705,29.203 30.823,35.905zm28.593-69.032c-4.114,5.36-18.8,11.656-47.158,3.601 0.303-2.443 0.477-4.926 0.477-7.449 0-2.524-0.174-5.007-0.477-7.45 28.359-8.058 43.044-1.76 47.158,3.601 1.96,2.554 1.96,5.144 0,7.697z"/>
</svg>
