<?xml version="1.0" encoding="UTF-8"?>
<svg viewBox="0 0 75 251.25" xmlns="http://www.w3.org/2000/svg">
 <defs>
  <linearGradient id="c" x1="648.23" x2="631.2" y1="189.96" y2="212.82" gradientTransform="matrix(.57464 0 0 1.7402 -308.14 -320.34)" gradientUnits="userSpaceOnUse">
   <stop stop-color="#fff" offset="0"/>
   <stop stop-color="#505050" stop-opacity="0" offset="1"/>
  </linearGradient>
  <linearGradient id="a" x1="385.25" x2="409.06" y1="277.8" y2="289.89" gradientTransform="matrix(.80861 0 0 1.2367 -308.14 -320.34)" gradientUnits="userSpaceOnUse">
   <stop stop-color="#fff" offset="0"/>
   <stop stop-color="#fff" stop-opacity="0" offset="1"/>
  </linearGradient>
  <linearGradient id="b" x1="361.31" x2="419.92" y1="341.43" y2="376.37" gradientTransform="matrix(.93899 0 0 1.065 -308.14 -320.34)" gradientUnits="userSpaceOnUse">
   <stop stop-color="#bdb7c4" offset="0"/>
   <stop stop-color="#fff" offset="1"/>
  </linearGradient>
 </defs>
 <g display="block">
  <path d="m12.317 26.238c2.7548 73.278-24.242 208.54 27.273 216.53 20.11 3.0303 29.542-42.007 1.6529-43.802-27.824-1.7906-31.68 38.017-2.4793 44.628 42.7-1.6529 20.11-148.76 23.967-218.18" fill="none" stroke="#000" stroke-linecap="round" stroke-width="4.3125"/>
 </g>
 <g display="block" fill-rule="evenodd">
  <path d="m60.253 76.238c3.0992 1.7218 5.3719 2.8237 8.0578 2.0661 0.82645-19.835 3.8667-42.517-1.6529-62.397-3.2958-11.87-13.502-12.574-25.62-12.19-7.4418 0.23583-14.414 0.2962-20.868 2.8926-5.5296 2.2246-13.711 7.6051-14.05 14.876l-2.2727 48.76 7.8512-1.0331c7.7135-7.0248 16.9-10.985 28.306-14.256 1.1023-0.31613 2.3421-8.7646-0.41322-10.124-10.247-5.0554-15.358-11.915-17.975-22.727 5.0276-3.6501 8.8843-5.9917 13.223-5.9917s10.813 2.7548 12.81 5.9917l-3.9256 28.099c-1.1019 15.22 8.9532 17.424 16.529 26.033z" fill="url(#b)"/>
  <path d="m66.885 74.792-5.2066-1.2397c-2.0661-45.661 3.3264-61.983-17.645-68.595 28.202 2.0661 20.785 16.736 22.851 69.835z" fill="url(#c)"/>
  <path d="m7.1537 29.75c0.20661-18.733 6.405-17.837 14.05-21.488-7.6446 6.1295-11.364 9.1598-14.05 21.488z" fill="url(#a)"/>
  <path d="m14.385 64.048 2.686-43.182c0.6887-3.8568 5.7385-5.9279 6.8182-2.4793 9.4385-4.4083 17.149-4.9587 24.793 3.719-2.3416-7.0937-3.8322-11.082-8.2645-13.223-5.6917-2.7491-11.965-1.1623-17.769 2.2727-4.3199 2.5567-7.3691 5.303-10.744 10.744l-0.61983 45.041 3.0992-2.8926z" fill="url(#a)"/>
 </g>
</svg>
