<svg xmlns="http://www.w3.org/2000/svg" xmlns:xlink="http://www.w3.org/1999/xlink" version="1.1" x="0px" y="0px" viewBox="0 0 100 125" enable-background="new 0 0 100 100" xml:space="preserve"><path d="M74.614,20.738c-0.017,0.004-0.032,0.005-0.048,0.005c-0.052,0-0.1-0.021-0.143-0.051c-0.014-0.01-0.021-0.021-0.032-0.033  c-0.015-0.016-0.034-0.027-0.045-0.047c-0.006-0.011,0.001-0.023-0.004-0.035c-0.005-0.014-0.019-0.021-0.021-0.036  c-0.004-0.021,0.011-0.038,0.012-0.06c0.002-0.033,0.004-0.06,0.019-0.09c0.014-0.029,0.033-0.049,0.058-0.071  c0.016-0.015,0.019-0.036,0.038-0.047l5.878-3.185l10.499-8.368l1.808-2.138H81.109l-10.901,7.499  c-0.009,0.006-0.02,0.004-0.028,0.009c-0.007,0.004-0.009,0.013-0.016,0.016l-5.504,2.324c-0.004,0.002-0.007,0.001-0.011,0.002  c-0.001,0.001-0.001,0.002-0.003,0.003c-0.027,0.01-0.056,0.015-0.084,0.015c-0.05,0-0.098-0.016-0.139-0.043  c-0.013-0.009-0.019-0.024-0.029-0.035c-0.023-0.022-0.049-0.043-0.062-0.074c-0.001-0.002,0.001-0.005,0-0.008  c-0.001-0.002-0.004-0.003-0.005-0.006l-1.434-4.008c-0.003-0.008,0.003-0.015,0.001-0.022s-0.01-0.012-0.012-0.021l-0.949-5.65  H41.355L41.28,6.625c-0.013,0.008-0.027,0.006-0.04,0.011c-0.008,0.003-0.011,0.012-0.019,0.014  c-0.021,0.005-0.043,0.008-0.063,0.008c-0.05,0-0.096-0.019-0.138-0.047c-0.012-0.008-0.019-0.018-0.029-0.027h-7.952l0.631,2.795  c0.006,0.028-0.011,0.053-0.014,0.08c-0.004,0.031,0,0.062-0.016,0.09c-0.016,0.029-0.043,0.044-0.07,0.065  c-0.02,0.017-0.029,0.043-0.056,0.053l-3.178,1.209c-0.012,0.005-0.023,0.004-0.035,0.007c-0.004,0.001-0.006,0.005-0.01,0.006  l-5.842,1.041c-0.015,0.003-0.029,0.004-0.044,0.004c-0.055,0-0.104-0.021-0.147-0.053c-0.015-0.011-0.021-0.026-0.032-0.04  c-0.018-0.02-0.04-0.035-0.051-0.061l-2.173-5.196H8.068L8.017,6.9C8.015,6.91,8.006,6.915,8.003,6.925  C8.001,6.933,8.007,6.94,8.004,6.948L7.891,7.251C7.888,7.259,7.88,7.263,7.876,7.27C7.873,7.274,7.877,7.28,7.874,7.285  l-0.17,0.303c-0.005,0.01-0.015,0.013-0.021,0.021C7.679,7.615,7.682,7.622,7.677,7.628L7.45,7.894  C7.445,7.899,7.437,7.897,7.432,7.902C7.426,7.908,7.428,7.917,7.421,7.923L7.175,8.13C7.167,8.136,7.157,8.134,7.149,8.14  C7.143,8.144,7.143,8.152,7.136,8.156l-0.303,0.17C6.825,8.331,6.816,8.329,6.808,8.333C6.803,8.335,6.802,8.342,6.796,8.344  l-0.32,0.115C6.464,8.463,6.452,8.463,6.439,8.465C6.438,8.466,6.436,8.47,6.433,8.47L6.148,8.518v13.939l5.159,2.153  c0.021,0.009,0.028,0.031,0.045,0.045c0.026,0.021,0.048,0.037,0.064,0.065s0.021,0.056,0.024,0.089  c0.004,0.021,0.021,0.039,0.018,0.062l-0.416,3.385c-0.001,0.009-0.01,0.014-0.012,0.022c-0.002,0.008,0.005,0.016,0.002,0.024  l-1.816,5.635c-0.011,0.032-0.036,0.054-0.058,0.078c-0.012,0.014-0.017,0.032-0.031,0.043c-0.043,0.032-0.095,0.052-0.149,0.052  c-0.018,0-0.036-0.002-0.054-0.006L6.148,33.49v7.969c0.019,0.026,0.026,0.052,0.033,0.083c0.005,0.019,0.021,0.031,0.021,0.051  c0,0.016-0.014,0.025-0.017,0.04c-0.003,0.016,0.008,0.03,0.002,0.045l-0.04,0.11v20.573l3.999,0.556  c0.009,0.001,0.013,0.01,0.021,0.013c0.009,0.001,0.016-0.005,0.023-0.002l5.635,1.852c0.007,0.003,0.009,0.011,0.016,0.014  c0.008,0.003,0.015-0.002,0.021,0.002c0.025,0.013,0.032,0.04,0.051,0.06c0.022,0.023,0.046,0.04,0.059,0.07s0.007,0.06,0.007,0.093  c0,0.026,0.015,0.051,0.006,0.077c-0.003,0.008-0.011,0.012-0.015,0.02c-0.002,0.006,0.002,0.012-0.001,0.018L9.862,76.948  c-0.005,0.01-0.016,0.014-0.021,0.023c-0.004,0.006-0.001,0.013-0.006,0.019l-3.687,4.563v11.464l4.4-4.229l7.876-10.836  l1.407-3.039c0.011-0.024,0.037-0.031,0.054-0.05c0.022-0.023,0.038-0.048,0.067-0.062c0.031-0.016,0.062-0.013,0.096-0.015  c0.025-0.001,0.046-0.017,0.072-0.011c0.009,0.002,0.012,0.012,0.02,0.015s0.016-0.003,0.023,0.001  c0.024,0.012,0.031,0.037,0.051,0.055c0.023,0.022,0.049,0.038,0.062,0.068c0.014,0.029,0.012,0.059,0.013,0.092  c0.002,0.025,0.018,0.048,0.011,0.074l-1.655,6.422l-0.722,12.209h7.342l-0.183-1.9c-0.001-0.01,0.008-0.017,0.009-0.027  c0-0.009-0.009-0.016-0.008-0.025l0.701-5.975c0-0.003,0.003-0.004,0.004-0.007c0-0.003-0.002-0.005-0.002-0.008  c0.007-0.037,0.037-0.06,0.058-0.09c0.015-0.021,0.02-0.047,0.04-0.062c0.034-0.026,0.075-0.028,0.117-0.034  c0.021-0.004,0.038-0.02,0.061-0.018c0.003,0,0.004,0.003,0.007,0.004c0.003,0,0.005-0.003,0.008-0.002l10.788,1.908  c0.122,0.007,0.204,0.107,0.214,0.226l0.111,1.243l0.632,2.416l1.166,2.352h24.661l0.57-0.929l0.066-0.247  c0.006-0.022,0.028-0.032,0.04-0.052c0.021-0.036,0.037-0.072,0.072-0.094c0.022-0.014,0.048-0.009,0.073-0.016  c0.033-0.008,0.062-0.028,0.099-0.021l7.69,1.357H93.26V18.36h-6.382L74.614,20.738z M11.623,14.12c0-0.008,0.007-0.012,0.008-0.019  c0-0.008-0.006-0.013-0.005-0.021l0.057-0.359c0.002-0.012,0.013-0.017,0.017-0.027c0.003-0.01-0.004-0.02,0-0.029l0.133-0.32  c0.002-0.005,0.009-0.006,0.011-0.011c0.003-0.005-0.001-0.011,0.002-0.016l0.17-0.303c0.004-0.007,0.012-0.007,0.016-0.013  s0.001-0.014,0.006-0.02l0.207-0.264c0.007-0.009,0.019-0.008,0.026-0.016s0.007-0.02,0.016-0.026l0.266-0.209  c0.006-0.005,0.014-0.001,0.02-0.006c0.006-0.004,0.006-0.012,0.013-0.016l0.303-0.17c0.006-0.003,0.013,0.001,0.019-0.002  c0.007-0.004,0.009-0.012,0.016-0.015l0.303-0.113c0.012-0.004,0.021,0.004,0.033,0.001c0.01-0.003,0.016-0.014,0.026-0.015  l0.34-0.039c0.006,0,0.009,0.004,0.015,0.004c0.005,0,0.008-0.006,0.014-0.006h0.338c0.006,0,0.009,0.006,0.015,0.006  c0.005,0,0.008-0.004,0.014-0.004l0.342,0.039c0.011,0.001,0.016,0.012,0.025,0.014c0.01,0.003,0.02-0.005,0.029-0.001l0.32,0.113  c0.008,0.003,0.009,0.012,0.017,0.015c0.007,0.004,0.016-0.001,0.022,0.003l0.303,0.17c0.008,0.004,0.008,0.014,0.015,0.019  c0.008,0.005,0.018,0.002,0.024,0.008l0.248,0.209c0.006,0.005,0.005,0.014,0.011,0.02c0.005,0.006,0.014,0.004,0.019,0.01  l0.225,0.264c0.007,0.009,0.004,0.021,0.01,0.029c0.006,0.01,0.019,0.011,0.023,0.021l0.152,0.303  c0.002,0.003-0.001,0.007,0.001,0.011c0.001,0.002,0.005,0.003,0.006,0.006l0.133,0.32c0.004,0.01-0.003,0.02,0,0.029  c0.004,0.011,0.015,0.016,0.017,0.027l0.057,0.359c0.001,0.008-0.005,0.013-0.005,0.021c0.001,0.007,0.008,0.011,0.008,0.019v0.322  c0,0.008-0.008,0.013-0.009,0.021c-0.001,0.008,0.007,0.014,0.005,0.021l-0.057,0.322c-0.002,0.01-0.012,0.015-0.014,0.024  c-0.003,0.008,0.003,0.016,0,0.023l-0.133,0.34c-0.002,0.006-0.009,0.009-0.012,0.015c-0.002,0.004,0.001,0.009-0.001,0.013  l-0.152,0.283c-0.006,0.011-0.017,0.015-0.022,0.023c-0.005,0.007-0.002,0.015-0.007,0.021l-0.225,0.264  c-0.005,0.006-0.014,0.004-0.019,0.009c-0.006,0.006-0.004,0.015-0.011,0.021l-0.248,0.209c-0.005,0.005-0.013,0.003-0.019,0.007  c-0.005,0.003-0.005,0.011-0.01,0.014l-0.303,0.189c-0.014,0.008-0.028,0.007-0.043,0.013c-0.008,0.003-0.011,0.013-0.02,0.016  l-0.32,0.094c-0.004,0.001-0.008,0.001-0.013,0.002c-0.001,0-0.002,0.002-0.003,0.002l-0.342,0.076  c-0.019,0.004-0.037,0.006-0.055,0.006H13.65c-0.018,0-0.036-0.002-0.055-0.006l-0.34-0.076c-0.002,0-0.002-0.002-0.004-0.003  c-0.005-0.001-0.011-0.001-0.016-0.002l-0.303-0.094c-0.009-0.003-0.011-0.013-0.02-0.017c-0.013-0.005-0.027-0.003-0.039-0.011  l-0.303-0.189c-0.004-0.003-0.004-0.008-0.008-0.011s-0.01-0.002-0.014-0.005l-0.266-0.209c-0.01-0.008-0.009-0.021-0.017-0.029  c-0.007-0.008-0.019-0.005-0.025-0.013l-0.207-0.264c-0.003-0.003-0.001-0.007-0.003-0.01c-0.004-0.007-0.012-0.009-0.016-0.016  l-0.17-0.283c-0.004-0.006,0-0.014-0.003-0.02c-0.004-0.008-0.012-0.011-0.015-0.019l-0.133-0.34c-0.003-0.008,0.003-0.016,0-0.023  c-0.002-0.01-0.012-0.015-0.014-0.024l-0.057-0.322c-0.002-0.008,0.006-0.014,0.005-0.021c-0.001-0.009-0.009-0.014-0.009-0.021  V14.12z M18.716,57.313c-0.001,0.006-0.007,0.009-0.009,0.015c-0.002,0.005,0.003,0.01,0.001,0.015  c-0.011,0.031-0.035,0.051-0.055,0.075c-0.013,0.014-0.018,0.032-0.032,0.043c-0.043,0.033-0.095,0.054-0.15,0.054  c-0.016,0-0.032-0.002-0.049-0.005c-0.003-0.001-0.004-0.003-0.006-0.004c-0.008-0.002-0.016-0.001-0.023-0.004l-6.291-2.072  l-4.006-0.544c-0.008-0.001-0.012-0.01-0.02-0.012c-0.022-0.005-0.045-0.005-0.066-0.017c-0.017-0.009-0.02-0.028-0.033-0.04  c-0.025-0.022-0.044-0.043-0.059-0.074c-0.015-0.028-0.021-0.054-0.023-0.086c-0.002-0.019-0.017-0.033-0.014-0.053  c0.002-0.017,0.019-0.025,0.023-0.041c0.005-0.015-0.003-0.03,0.005-0.045l5.785-10.682c0.009-0.016,0.028-0.019,0.039-0.031  c0.022-0.028,0.046-0.049,0.078-0.063c0.029-0.015,0.056-0.018,0.088-0.02c0.021-0.001,0.034-0.017,0.057-0.013l1.324,0.225  c0.013,0.002,0.019,0.016,0.03,0.02c0.013,0.004,0.025-0.004,0.037,0.002l5.332,2.592c0.021,0.011,0.027,0.034,0.044,0.049  c0.024,0.022,0.047,0.04,0.062,0.07c0.015,0.029,0.016,0.057,0.018,0.089c0.002,0.022,0.018,0.042,0.013,0.065L18.716,57.313z   M21.275,38.034c-0.008,0.021-0.026,0.031-0.039,0.049c-0.012,0.016-0.02,0.029-0.034,0.042c-0.04,0.035-0.087,0.058-0.141,0.062  c-0.005,0.001-0.008,0.006-0.013,0.006c-0.002,0-0.004,0-0.006,0c-0.03,0-0.062-0.006-0.092-0.018l-4.199-1.664  c-0.027-0.011-0.038-0.039-0.06-0.058c-0.024-0.021-0.053-0.036-0.067-0.065s-0.01-0.061-0.012-0.093  c-0.003-0.028-0.019-0.054-0.011-0.082l1.797-6.598c0.002-0.006,0.008-0.008,0.01-0.013c0.011-0.031,0.036-0.05,0.058-0.074  c0.021-0.025,0.037-0.052,0.066-0.066c0.006-0.003,0.006-0.01,0.012-0.012c0.028-0.013,0.057,0,0.086-0.001  c0.025-0.001,0.049-0.017,0.075-0.01c0.005,0.001,0.007,0.007,0.012,0.009c0.033,0.011,0.053,0.037,0.079,0.062  c0.023,0.021,0.049,0.035,0.062,0.063c0.003,0.006,0.01,0.006,0.012,0.012l2.344,5.652c0.006,0.016-0.003,0.029,0,0.045  c0.004,0.017,0.02,0.027,0.02,0.045l0.059,2.609c0,0.019-0.015,0.03-0.019,0.047C21.271,38.001,21.282,38.018,21.275,38.034z   M57.325,27.063c0.035,0.001,0.062,0.004,0.094,0.018c0.03,0.014,0.052,0.031,0.074,0.055c0.013,0.014,0.034,0.016,0.044,0.033  c0.008,0.014,0.001,0.028,0.006,0.043c0.006,0.014,0.021,0.02,0.023,0.034c0.004,0.02-0.01,0.035-0.01,0.055  c-0.001,0.034-0.004,0.062-0.018,0.093c-0.013,0.029-0.029,0.049-0.053,0.071c-0.015,0.015-0.017,0.037-0.035,0.048l-5.367,3.215  c-0.041,0.023-0.085,0.035-0.129,0.035c-0.041,0-0.08-0.011-0.117-0.03c-0.016-0.008-0.025-0.023-0.04-0.035  c-0.017-0.014-0.036-0.024-0.049-0.043l-0.009-0.013l-1.241-1.802c-0.009-0.013-0.003-0.028-0.009-0.042  c-0.008-0.018-0.025-0.028-0.029-0.048c-0.004-0.017,0.009-0.03,0.009-0.048c-0.001-0.033,0.004-0.061,0.017-0.092  c0.013-0.03,0.026-0.053,0.05-0.076c0.012-0.013,0.013-0.031,0.027-0.042c0.015-0.01,0.033-0.004,0.049-0.011  c0.016-0.006,0.023-0.023,0.041-0.027l6.617-1.4C57.291,27.05,57.306,27.063,57.325,27.063z M43.271,14.372  c-0.001-0.031-0.007-0.06,0.004-0.09c0.012-0.031,0.037-0.05,0.06-0.074c0.019-0.02,0.024-0.046,0.049-0.06l10.682-5.807  c0.013-0.007,0.027,0,0.041-0.004c0.014-0.005,0.02-0.02,0.034-0.022c0.021-0.004,0.037,0.011,0.058,0.013  c0.033,0.001,0.059,0.005,0.088,0.019c0.031,0.015,0.051,0.033,0.074,0.06c0.013,0.015,0.034,0.018,0.044,0.036  c0.007,0.013,0,0.027,0.004,0.04c0.005,0.014,0.021,0.021,0.022,0.035l1.17,6.519l1.446,3.779c0.003,0.008-0.003,0.015-0.001,0.022  c0.003,0.008,0.011,0.011,0.013,0.019c0.005,0.026-0.012,0.048-0.015,0.074c-0.004,0.033-0.002,0.063-0.019,0.092  c-0.015,0.028-0.04,0.042-0.065,0.062c-0.021,0.017-0.03,0.044-0.057,0.054c-0.011,0.004-0.021,0.003-0.032,0.006  c-0.004,0.001-0.005,0.005-0.009,0.006l-10.494,2.098c-0.017,0.003-0.033,0.005-0.049,0.005c-0.072,0-0.131-0.038-0.178-0.09  c-0.006-0.006-0.018-0.003-0.022-0.011l-0.793-1.059c-0.007-0.009-0.002-0.02-0.007-0.028c-0.009-0.014-0.022-0.021-0.028-0.036  l-2.023-5.576C43.257,14.426,43.271,14.4,43.271,14.372z M29.018,19.06c0.001-0.027-0.012-0.054,0-0.08  c0.002-0.006,0.009-0.006,0.012-0.012c0.015-0.029,0.041-0.045,0.066-0.066c0.025-0.022,0.043-0.048,0.074-0.058  c0.006-0.002,0.008-0.009,0.013-0.01l6.561-1.777c0.026-0.007,0.051,0.009,0.077,0.011c0.035,0.002,0.067-0.002,0.098,0.014  c0.026,0.013,0.038,0.037,0.059,0.059c0.021,0.022,0.053,0.034,0.064,0.065l1.682,4.195c0.007,0.018-0.004,0.034-0.001,0.052  c0.004,0.018,0.019,0.029,0.019,0.048c0,0.018-0.016,0.028-0.02,0.045c-0.007,0.031-0.018,0.055-0.036,0.081  c-0.019,0.027-0.038,0.047-0.066,0.065c-0.015,0.009-0.019,0.027-0.035,0.034c-0.03,0.012-0.062,0.018-0.093,0.018  c-0.002,0-0.005,0-0.007,0l-2.609-0.074c-0.002,0-0.003-0.002-0.006-0.003c-0.028-0.001-0.056-0.005-0.083-0.017l-5.633-2.344  c-0.009-0.004-0.011-0.015-0.02-0.019c-0.036-0.021-0.062-0.05-0.085-0.086c-0.011-0.017-0.024-0.027-0.031-0.046  c-0.002-0.006-0.008-0.009-0.01-0.015C28.999,19.112,29.016,19.088,29.018,19.06z M28.45,29.108  c0.003-0.029,0.026-0.048,0.038-0.073s0.017-0.05,0.035-0.069c0.026-0.029,0.06-0.039,0.097-0.052  c0.021-0.008,0.032-0.027,0.055-0.029c0.011-0.002,0.016,0.007,0.025,0.007c0.009,0,0.015-0.008,0.024-0.007l4.121,0.414  c0.018,0.002,0.026,0.018,0.042,0.022c0.017,0.005,0.031-0.004,0.047,0.004l6.467,3.309c0.008,0.004,0.008,0.014,0.015,0.018  c0.008,0.004,0.016,0.001,0.022,0.006l4.764,3.611c0.005,0.004,0.005,0.012,0.009,0.016c0.005,0.004,0.012,0.002,0.017,0.007  c0.021,0.021,0.019,0.049,0.03,0.073c0.015,0.029,0.034,0.054,0.036,0.087c0.002,0.032-0.014,0.06-0.024,0.091  c-0.008,0.025-0.002,0.055-0.02,0.077c-0.004,0.005-0.011,0.003-0.015,0.008c-0.005,0.005-0.003,0.013-0.008,0.018l-8.035,8.035  c-0.005,0.005-0.013,0.003-0.019,0.008s-0.005,0.013-0.011,0.018c-0.045,0.032-0.096,0.048-0.147,0.048  c-0.064,0-0.128-0.024-0.177-0.073c-0.006-0.006-0.004-0.015-0.009-0.021c-0.004-0.006-0.013-0.003-0.017-0.009l-4.291-5.879  c-0.004-0.005-0.001-0.012-0.004-0.017c-0.005-0.008-0.015-0.012-0.019-0.021l-2.627-5.369c-0.007-0.014,0.001-0.028-0.003-0.043  c-0.005-0.016-0.02-0.025-0.021-0.043l-0.398-4.121c-0.001-0.009,0.008-0.016,0.008-0.024C28.458,29.124,28.449,29.118,28.45,29.108  z M26.986,57.957c-0.043,0.03-0.09,0.05-0.141,0.05c-0.017,0-0.034-0.002-0.052-0.006c-0.009-0.002-0.012-0.012-0.021-0.014  c-0.019-0.006-0.038-0.006-0.056-0.016c-0.019-0.011-0.021-0.032-0.034-0.047c-0.024-0.022-0.042-0.043-0.055-0.072  c-0.014-0.031-0.017-0.059-0.018-0.093c0-0.019-0.014-0.035-0.01-0.055l1.4-6.617c0.004-0.018,0.021-0.025,0.027-0.041  c0.007-0.017,0.001-0.034,0.011-0.049c0.01-0.014,0.027-0.014,0.039-0.025c0.024-0.025,0.05-0.04,0.083-0.053  c0.029-0.011,0.054-0.016,0.085-0.016c0.019,0.001,0.032-0.013,0.051-0.009c0.018,0.004,0.025,0.021,0.041,0.028  c0.016,0.006,0.034,0,0.049,0.01l1.812,1.248c0.026,0.019,0.032,0.05,0.049,0.075c0.019,0.027,0.044,0.047,0.051,0.078  s-0.008,0.062-0.014,0.094c-0.005,0.029,0.003,0.06-0.013,0.087l-3.213,5.369c-0.011,0.019-0.029,0.027-0.043,0.042  C27.007,57.938,26.999,57.948,26.986,57.957z M55.014,70.504c-0.005,0.015,0.002,0.031-0.006,0.046l-1.021,1.775  c-0.01,0.018-0.027,0.027-0.041,0.041c-0.012,0.012-0.02,0.022-0.032,0.031c-0.043,0.031-0.091,0.053-0.144,0.053  c-0.014,0-0.027-0.001-0.041-0.003l-1.23-0.204h-2.503l-2.458,0.465l-2.361,0.855l-2.129,1.259l-1.922,1.624l-1.592,1.905  l-1.2,2.212c-0.011,0.02-0.029,0.03-0.044,0.046c-0.012,0.012-0.019,0.023-0.032,0.033c-0.043,0.03-0.091,0.052-0.144,0.052  c-0.014,0-0.028-0.001-0.044-0.004l-10.812-1.91c-0.002,0-0.003-0.003-0.005-0.003c-0.007-0.001-0.014-0.001-0.021-0.003  c-0.027-0.008-0.04-0.034-0.062-0.05c-0.029-0.02-0.06-0.032-0.077-0.062c-0.018-0.027-0.015-0.059-0.021-0.091  c-0.005-0.028-0.023-0.052-0.018-0.082c0.001-0.005,0.006-0.007,0.008-0.013c0-0.004-0.003-0.008-0.002-0.013l2.912-10.039  c0.003-0.009,0.013-0.012,0.016-0.02s-0.002-0.017,0.002-0.024l5.367-10.588c0.004-0.007,0.013-0.008,0.017-0.014  c0.005-0.008,0.001-0.017,0.006-0.023l7.146-9.508c0.005-0.007,0.015-0.006,0.021-0.012s0.004-0.016,0.01-0.021l4.348-4.029  c0.002-0.002,0.004-0.001,0.006-0.002c0.002-0.002,0.001-0.004,0.003-0.006c0.026-0.022,0.062-0.02,0.093-0.029  c0.028-0.008,0.053-0.027,0.082-0.025c0.035,0.002,0.062,0.025,0.093,0.041c0.025,0.014,0.056,0.013,0.077,0.035  c0.002,0.002,0.001,0.004,0.002,0.006c0.002,0.002,0.004,0.001,0.006,0.003l7.035,8.377c0.016,0.019,0.011,0.043,0.02,0.063  c0.015,0.03,0.027,0.055,0.028,0.088s-0.009,0.059-0.021,0.09c-0.008,0.021-0.001,0.045-0.015,0.064l-0.723,1.02l-1.062,2.27  l-0.668,2.415l-0.223,2.472l0.205,2.486l0.634,2.422l1.054,2.279l1.463,2.023c0.01,0.014,0.004,0.03,0.011,0.045  c0.015,0.029,0.02,0.056,0.021,0.09C55.027,70.446,55.025,70.473,55.014,70.504z M81.875,85.665  c-0.008,0.021-0.001,0.047-0.016,0.066l-0.725,1.005L80.541,88c-0.011,0.023-0.032,0.036-0.049,0.055  c-0.012,0.013-0.019,0.026-0.032,0.036c-0.043,0.031-0.092,0.053-0.146,0.053c-0.015,0-0.029-0.001-0.044-0.004l-14.521-2.572  c-0.022-0.004-0.034-0.024-0.054-0.034c-0.032-0.015-0.062-0.027-0.084-0.054c-0.02-0.022-0.026-0.047-0.037-0.075  c-0.008-0.022-0.028-0.038-0.03-0.063l-0.094-1.223l-0.634-2.422l-1.053-2.276l-1.417-2.049l-1.437-1.419  c-0.018-0.018-0.016-0.043-0.026-0.063c-0.017-0.029-0.032-0.053-0.036-0.085s0.006-0.059,0.014-0.09  c0.006-0.023-0.002-0.048,0.011-0.069l0.473-0.775c0.013-0.021,0.037-0.023,0.054-0.039c0.025-0.023,0.045-0.044,0.077-0.056  c0.03-0.011,0.058-0.008,0.09-0.008c0.023,0.001,0.044-0.014,0.067-0.006l1.186,0.369l2.477,0.317l2.51-0.092l2.435-0.54  l1.849-0.766c0.021-0.009,0.041,0.003,0.062,0c0.032-0.006,0.058-0.009,0.089-0.001c0.034,0.008,0.058,0.023,0.086,0.045  c0.016,0.012,0.037,0.011,0.051,0.026l9.473,11.305c0.016,0.018,0.011,0.042,0.02,0.062c0.014,0.03,0.027,0.056,0.028,0.089  C81.896,85.608,81.887,85.634,81.875,85.665z M90.072,79.913c0,0.023-0.019,0.039-0.025,0.061c-0.008,0.032-0.015,0.06-0.035,0.086  c-0.021,0.025-0.044,0.038-0.072,0.055c-0.02,0.012-0.03,0.035-0.054,0.041l-1.21,0.317l-1.264,0.578  c-0.033,0.016-0.068,0.022-0.104,0.022c-0.064,0-0.121-0.032-0.168-0.078c-0.007-0.006-0.018-0.004-0.023-0.011l-9.473-11.289  c-0.016-0.019-0.011-0.042-0.02-0.062c-0.015-0.031-0.027-0.056-0.028-0.089s0.009-0.059,0.021-0.09  c0.008-0.021,0.001-0.045,0.015-0.064l0.726-1.021l1.059-2.263l0.669-2.42l0.223-2.469l-0.188-2.019  c-0.002-0.023,0.016-0.041,0.02-0.063c0.006-0.033,0.01-0.062,0.027-0.089c0.019-0.028,0.042-0.043,0.069-0.062  c0.019-0.013,0.026-0.036,0.049-0.044l0.852-0.303c0.023-0.008,0.043,0.005,0.065,0.003c0.034-0.002,0.062-0.006,0.094,0.005  c0.033,0.011,0.055,0.031,0.081,0.054c0.017,0.015,0.04,0.017,0.053,0.036l0.691,1.046l1.672,1.856l1.985,1.54l2.193,1.154  l1.925,0.597c0.021,0.007,0.029,0.028,0.048,0.04c0.028,0.017,0.05,0.031,0.069,0.058c0.02,0.027,0.027,0.054,0.035,0.086  c0.006,0.021,0.023,0.034,0.023,0.056V79.913z M89.815,25.842c0.003,0,0.004-0.003,0.007-0.003c0.096,0,0.163,0.062,0.205,0.143  c0.018,0.029,0.043,0.055,0.045,0.094c0,0.003-0.003,0.005-0.003,0.008c0,0.002,0.003,0.004,0.003,0.006v10.967  c0,0.023-0.019,0.038-0.024,0.06c-0.009,0.032-0.016,0.059-0.036,0.085c-0.02,0.026-0.043,0.04-0.072,0.057  c-0.019,0.012-0.028,0.033-0.051,0.04l-1.208,0.332l-2.27,1.045l-2.062,1.411l-1.765,1.744l-1.448,2.043l-1.059,2.253l-0.65,2.411  l-0.188,2.509c-0.001,0.017-0.016,0.026-0.021,0.042c-0.008,0.029-0.019,0.051-0.036,0.076c-0.021,0.028-0.041,0.048-0.071,0.066  c-0.014,0.008-0.019,0.025-0.034,0.031l-1.93,0.717c-0.028,0.011-0.058,0.016-0.087,0.016c-0.064,0-0.121-0.032-0.168-0.077  c-0.006-0.007-0.017-0.004-0.022-0.011l-0.82-0.967l-1.907-1.595l-2.178-1.229l-2.361-0.837l-2.45-0.426h-2.509l-2.449,0.444  l-2.341,0.937c-0.03,0.012-0.062,0.018-0.093,0.018c-0.066,0-0.123-0.033-0.169-0.079c-0.007-0.007-0.017-0.004-0.022-0.011  l-7.051-8.414c-0.002-0.003-0.001-0.007-0.003-0.01c-0.004-0.004-0.01-0.006-0.014-0.012c-0.017-0.025-0.01-0.055-0.017-0.083  c-0.008-0.031-0.022-0.059-0.018-0.091c0.004-0.032,0.027-0.055,0.044-0.084c0.015-0.023,0.016-0.053,0.038-0.072  c0.004-0.003,0.01-0.001,0.014-0.004c0.004-0.004,0.003-0.01,0.008-0.013l8.732-5.84c0.007-0.005,0.016-0.001,0.023-0.005  s0.009-0.014,0.017-0.017l10.891-4.652c0.008-0.003,0.016,0.002,0.023,0c0.008-0.003,0.011-0.012,0.019-0.014l11.572-2.686  c0.008-0.002,0.014,0.005,0.021,0.004c0.008-0.002,0.013-0.011,0.021-0.011l5.916-0.32C89.812,25.839,89.812,25.841,89.815,25.842z"/><text x="0" y="115" fill="#000000" font-size="5px" font-weight="bold" font-family="'Helvetica Neue', Helvetica, Arial-Unicode, Arial, Sans-serif">Created by Lluisa Iborra</text><text x="0" y="120" fill="#000000" font-size="5px" font-weight="bold" font-family="'Helvetica Neue', Helvetica, Arial-Unicode, Arial, Sans-serif">from the Noun Project</text></svg>