<svg xmlns="http://www.w3.org/2000/svg" xmlns:xlink="http://www.w3.org/1999/xlink" version="1.1" x="0px" y="0px" viewBox="0 0 100 125" enable-background="new 0 0 100 100" xml:space="preserve"><g><path d="M40.9,23.8c0,0-1,1.7-6.5,1.9c-2,0.1-2.6-0.2-1.8,1.9c0.8,2.1,1.3,3.3,0.3,5.3c-2,1-3.3,0.5-5.3-0.3   c-2.1-0.8-1.8-0.3-1.9,1.8c-0.2,5.6-1.9,6.5-1.9,6.5s-1.2-0.2-2.3-1.3c-3.8-3.8-4.3-9.3-4.4-11.3c0-0.4-0.3-0.8-0.8-0.8   c-0.9,0-2.3-0.3-3.5-1.5c-0.3-0.3-0.6-0.7-0.8-1c-0.3-0.4-0.3-1,0-1.4c1.3-2.3,1.5-5.1-0.8-7.4c-2.5-2.5-4.8-2.3-6.3-2.3V5h8.9   c0,1.5-0.2,3.7,2.3,6.3c2.3,2.3,5.1,2.1,7.4,0.8c0.5-0.3,1-0.2,1.4,0c0.3,0.2,0.7,0.5,1,0.8c1.2,1.2,1.5,2.6,1.5,3.5   c0,0.4,0.4,0.8,0.8,0.8c2,0.1,7.5,0.6,11.3,4.4C40.7,22.6,40.9,23.8,40.9,23.8z"/><path d="M75.6,27.1c-4.5,0.7-18.6,3.8-31.7,16.8c-13,13-16.1,27.2-16.8,31.7c-0.1,0.5-0.7,0.6-0.9,0.2C23,70.3,10.8,48.8,5,43.1   V25.4c5.8,5.8,16.1,22.2,18.8,26.5c0.3,0.5,0.9,0.5,1.2,0c1.4-2.2,5.3-7.8,12.2-14.7c6.9-6.9,12.5-10.8,14.7-12.2   c0.5-0.3,0.5-0.9,0-1.2c-4.3-2.6-20.7-13-26.5-18.8h17.6c5.8,5.8,27.2,18,32.7,21.2C76.1,26.4,76,27,75.6,27.1z"/><path d="M26.1,95H13c-3.2-8.8-8-12.3-8-12.3v-20C9.6,67.2,22.1,87.9,26.1,95z"/><path d="M95,13v13.1C87.9,22.1,67.2,9.6,62.6,5h20C82.7,5,86.3,9.8,95,13z"/><path d="M95,35.9v11c-26.5,0-48,21.5-48,48h-11C35.9,62.4,62.4,35.9,95,35.9z"/><path d="M95,49.6v30.4c-8.3,0-14.9,6.7-14.9,14.9H49.6c0-2.2,1.3-3.2,3.3-3.9c1.9-0.7,2-0.5,2-3c0.1-2.5,1.1-4.1,3.1-4.6   c0.4-0.1,0.3,5.4,5.6,7.3c0.6,0.2,1.4-5.8,5.7-6c0.9,0.1-1.6,3.3,1.6,6.5c2.3,2.3,5.2,2.1,6.8,0.4c1.6-1.7,3.4-5.3,0.6-8   c-2.7-2.7-4.7-1.4-6.4-3.2c-0.9-0.9-0.9-2.5-0.9-3.3c0-0.3-0.2-0.6-0.5-0.5c-0.8,0.1-2.1,0.1-3.1-0.8c-1.4-1.4-0.7-2.1-1.2-2.6   c-0.5-0.5-1.1-0.3-2-1.1c-1.6-1.6,0.2-3.5-0.6-4.3c-1.7-1.6-2.1-3.7-0.9-5s3.3-0.8,5,0.9c0.8,0.8,2.7-1,4.3,0.6   c0.9,0.9,0.6,1.5,1.1,2c0.5,0.5,1.2-0.2,2.6,1.2c0.9,1,0.9,2.3,0.8,3.1c0,0.3,0.2,0.6,0.5,0.5c0.9-0.1,2.4-0.1,3.3,0.8   c1.8,1.8,0.5,3.7,3.2,6.4c2.7,2.7,6.4,1,8-0.6c1.7-1.7,1.9-4.5-0.4-6.8c-3.2-3.2-6.4-0.7-6.5-1.6c0.2-4.2,6.2-5.1,6-5.7   c-2-5.3-7.4-5.2-7.3-5.6c0.5-2,2.1-3,4.6-3.1c2.5-0.1,2.3-0.1,3-2C91.8,51,92.8,49.6,95,49.6z"/><path d="M95,86.2V95h-8.8C86.2,90.1,90.1,86.2,95,86.2z"/></g><text x="0" y="115" fill="#000000" font-size="5px" font-weight="bold" font-family="'Helvetica Neue', Helvetica, Arial-Unicode, Arial, Sans-serif">Created by Jorge Carrillo</text><text x="0" y="120" fill="#000000" font-size="5px" font-weight="bold" font-family="'Helvetica Neue', Helvetica, Arial-Unicode, Arial, Sans-serif">from the Noun Project</text></svg>